<?xml version="1.0" encoding="utf-8"?>
<!-- Generator: Adobe Illustrator 23.0.1, SVG Export Plug-In . SVG Version: 6.00 Build 0)  -->
<svg version="1.1" id="Capa_1" xmlns="http://www.w3.org/2000/svg" xmlns:xlink="http://www.w3.org/1999/xlink" x="0px" y="0px"
	 viewBox="0 0 177.3 97.8" style="enable-background:new 0 0 177.3 97.8;" xml:space="preserve">
<style type="text/css">
	.st0{fill:#175384;}
	.st1{fill:#A0A5AA;}
	.st2{fill:#0B040C;}
	.st3{fill:#FFC727;}
	.st4{fill:#F0545B;}
	.st5{fill:#FFFFFF;}
	.st6{fill:#00A855;}
	.st7{fill:#B4C4C9;}
	.st8{fill:#221A21;}
	.st9{fill:#EF3A47;}
	.st10{fill:url(#SVGID_1_);}
	.st11{fill:url(#SVGID_2_);}
	.st12{fill:url(#SVGID_3_);}
	.st13{fill:url(#SVGID_4_);}
	.st14{fill:url(#SVGID_5_);}
	.st15{fill:url(#SVGID_6_);}
	.st16{fill:url(#SVGID_7_);}
	.st17{fill:url(#SVGID_8_);}
	.st18{fill:url(#SVGID_9_);}
	.st19{fill:url(#SVGID_10_);}
	.st20{fill:url(#SVGID_11_);}
	.st21{fill:url(#SVGID_12_);}
	.st22{fill:#313564;}
	.st23{fill:#F04B41;stroke:#FFFFFF;stroke-width:2.1543;stroke-linecap:round;stroke-linejoin:round;stroke-miterlimit:10;}
	.st24{fill:#007FBA;stroke:#FFFFFF;stroke-width:2.1543;stroke-linecap:round;stroke-linejoin:round;stroke-miterlimit:10;}
	.st25{fill:#313564;stroke:#FFFFFF;stroke-width:2.1543;stroke-linecap:round;stroke-linejoin:round;stroke-miterlimit:10;}
	.st26{fill:#FFFFFF;stroke:#FFFFFF;stroke-width:2.1543;stroke-linecap:round;stroke-linejoin:round;stroke-miterlimit:10;}
	.st27{clip-path:url(#SVGID_14_);}
	.st28{fill:#FBAC36;stroke:#FFFFFF;stroke-width:2.1543;stroke-linecap:round;stroke-linejoin:round;stroke-miterlimit:10;}
	.st29{fill:#F04B41;}
	.st30{fill:#007FBA;}
	.st31{clip-path:url(#SVGID_16_);}
	.st32{fill:#FBAC36;}
	.st33{fill:#2C2F61;}
	.st34{fill:#B7B9BA;}
	.st35{fill:#EF3748;}
	.st36{fill:#8999AC;}
	.st37{fill:#2B2F61;}
	.st38{fill:#EE2C45;}
	.st39{fill:#101624;}
	.st40{fill:#59707A;}
	.st41{fill:#4A3285;}
	.st42{fill:#F79230;}
	.st43{fill:#F15733;}
	.st44{fill:#D7303F;}
	.st45{fill:#FAA832;}
	.st46{fill:#1F1721;}
	.st47{fill:#5F3188;}
	.st48{fill:#EE243D;}
	.st49{fill:#1F4BA0;}
	.st50{fill:#244789;}
	.st51{fill:#FBAE2E;}
	.st52{fill:#006991;}
	.st53{fill:#F9A01B;stroke:#FFFFFF;stroke-width:0.4473;stroke-miterlimit:10;}
	.st54{fill:#FAA533;}
	.st55{fill:#0092BC;}
	.st56{fill:#15182C;}
	.st57{fill:#3E419A;}
	.st58{fill:#101721;}
	.st59{fill:#ADA3A5;}
	.st60{fill:#9CA7AC;}
	.st61{clip-path:url(#SVGID_18_);}
	.st62{clip-path:url(#SVGID_20_);}
	.st63{fill:#F3FAF7;}
	.st64{fill:#2D2F63;}
	.st65{fill:#FAA819;}
	.st66{fill:#FEF6FA;}
	.st67{fill:#004F30;}
	.st68{fill:#A2C7D3;}
	.st69{fill:#EE2E55;}
	.st70{fill:#32366E;}
	.st71{fill:#00ADDC;}
	.st72{fill:#FFFFFF;stroke:#00ACD0;stroke-width:0.2915;stroke-miterlimit:10;}
	.st73{fill:#FFFFFF;stroke:#00ACD0;stroke-width:0.2973;stroke-miterlimit:10;}
	.st74{fill:#450000;}
	.st75{fill:#EE224A;}
	.st76{fill:#0064A5;}
	.st77{fill:#F47736;}
	.st78{fill:#B5BCBF;}
	.st79{fill:#F47B35;}
	.st80{fill:#EE2B52;}
	.st81{fill:#0C060E;}
	.st82{fill:#B58D49;}
	.st83{fill:#C9BBCB;}
	.st84{fill:#BA924C;}
	.st85{fill:#006BAF;}
	.st86{fill:#B3C5CB;}
	.st87{fill:#898C89;}
	.st88{fill:#2E2C61;}
	.st89{fill:#C3C5BD;}
	.st90{fill:#C4D2D9;}
	.st91{fill:#EE284D;}
	.st92{fill:#161212;}
	.st93{fill:#EE274E;}
	.st94{fill:#A2A7AA;}
	.st95{fill:#A6AAAC;}
	.st96{fill:#A1A2AB;}
	.st97{fill:#110B13;}
	.st98{fill:#AFC1C6;}
	.st99{fill:#0067AD;}
	.st100{fill:#FBFBFB;}
	.st101{fill:#0065AF;}
	.st102{fill:#121A26;}
	.st103{fill:#008D4C;}
	.st104{fill:#B43A3D;}
	.st105{fill:#111623;}
	.st106{fill:#AB9048;}
	.st107{fill:#F8A174;}
	.st108{fill:#120B19;}
	.st109{fill:#C59751;}
	.st110{fill:#B33638;}
	.st111{fill:#009154;}
	.st112{fill:#1C2026;}
	.st113{fill:#EE2844;}
	.st114{fill:#30385F;}
	.st115{fill:#3A84B1;}
	.st116{fill:#A3C5D7;}
	.st117{fill:#F9A039;}
	.st118{fill:#B0BEC0;}
	.st119{fill:#231D46;}
	.st120{fill:#FDB840;}
	.st121{fill:#CD2C32;}
	.st122{fill:#272049;}
	.st123{fill:#FEC027;}
	.st124{fill:#ADC7C6;}
	.st125{fill:#014429;}
	.st126{fill:#DF2539;}
	.st127{fill:#F57E30;}
	.st128{fill:#ED1942;}
	.st129{fill:#FEF9FB;}
	.st130{fill:#0065AA;}
	.st131{fill:#A6B5B8;}
	.st132{fill:#0B040C;stroke:#0B040C;stroke-width:0.2716;stroke-miterlimit:10;}
	.st133{fill:#F7F9FD;}
	.st134{fill:none;stroke:#EBF2CC;stroke-width:0.2972;stroke-miterlimit:10;}
	.st135{fill:#48484A;}
	.st136{opacity:0.2;}
	.st137{fill:#EE2E3B;}
	.st138{fill:#005BA6;}
	.st139{fill:#737577;}
	.st140{fill:#A1A0A5;}
	.st141{fill:#272360;}
	.st142{fill:#FAFAFB;}
	.st143{fill:#058BA6;}
	.st144{fill:#DEDBE7;}
	.st145{fill:#B2965B;}
	.st146{fill:#1B305B;}
	.st147{fill:#F9F9FA;}
	.st148{fill:#E12039;}
	.st149{fill:#FEF4F4;}
</style>
<g>
	<g>
		<path class="st33" d="M88.4,20.3c-6.9-0.1-9.9,2.6-9.9,2.6l0.6,0.9l-2.4,1.3l0.8,1.2c0,0-0.2,2.3-6.1,2.1
			c-5.9-0.2-20-0.8-28.6-2.7c-7.4-1.6-14.9-3.7-17.2-6c-2.3-2.3-4.4-5.3-4.6-8.4c-2.5,2.4-3.5,4.7-2.3,8.5c-3.9-1.2-6.9-3-7.7-5.7
			c-0.5,4.2,0.9,6.1,1.7,7.2c-2.4-0.4-6-1.2-7.1-2.8c0,3.6,2.8,6,4.1,7c-2.3-0.1-5.9-1.2-6.3-1.6c0,0,0.2,3.5,3.8,5.6
			c0.8,0.5,1,1,0,0.9c-1.1-0.1-3-0.5-3.7-0.8c0.1,1.5,2.6,4.2,6.6,5.6c0.6,0.2,0.9,0.6-0.1,0.8c-1,0.2-2.5,0.1-3.2-0.2
			c1.1,1.7,3.4,4.1,8.1,5c0.5,0.1,0,0.5-0.8,0.5c-0.8,0-2.8,0-2.8,0s1.9,4.9,10.1,4.3c0.3,2.6,0.5,3,0.5,3l2.8,0.1l1.2,3.2l3.2-0.2
			l1.3,3.1l3.1-0.8l1.7,3.1l3.2-1l1.9,2.6l3-1.1l2,2l2.9-1.7l1.9,2c0,0,9.7,0.7,16.6-2.2c1.4-3.2,4.5-5.6,5.9-6.1
			c1.8,0.8,1.5,3.7,1.5,3.7s-6.9,0-5,6.9c-3.8,0.5-5.4,2.2-5.8,3.8c-0.4,1.6,0,3.8,1.5,5.2c-1.3,1.5-7.6,8.2-7.6,8.2l6.6-0.5
			l2.9,3.5l2.4-1.5c0,0,2.8,15.3,19.5,15.3h0.8l1.4-14.8l-1.3-23.7c0.1-0.1,0.1-0.1,0.1-0.1l2.3-33.4L88.4,20.3z"/>
		<g>
			<path class="st34" d="M76.4,75.3c0.2-0.1-4.2-0.7-5.6-3.2c1.4-3.5,1.9-4.3,1.9-4.3s5.9,3.3,8.3,9.7c0,0,0.7,2.1,0.7,3.9
				c-2.2-0.4-8.4-2.7-11.3-4.8c-0.1-1.3-0.1-1.3-0.1-1.3S74.1,76.8,76.4,75.3z"/>
			<path class="st34" d="M78.1,62.2c0,0,2.2,4.7,7.3,5.1c-2.5-1.5-4.3-5.5-4-6.9c1.7-0.8,4.3-1.5,5.5-1.2c0,3.8,0.1,22.6,0.1,22.6
				L84,81.7c0,0-1.2-8.3-5.6-11.7c1.5-0.1,2.8-0.5,2.8-0.5c-0.1,0-3.1-0.5-4.6-2.2c-1.5-1.6-1.5-2.6-1.5-2.6L78.1,62.2z"/>
			<path class="st34" d="M70.5,79c0,0,6.4,3.7,11.1,4.4c-0.5,3.7-3.4,5.9-5.5,6.3C73.6,87.5,70.6,82.6,70.5,79z"/>
			<path class="st34" d="M87,83.9v10.3c0,0-5.3,0.2-8.9-3c2.3-0.9,5.8-4.2,5.7-7.5C85.6,83.9,87,83.9,87,83.9z"/>
		</g>
		<path class="st35" d="M75,34.9c0,0-0.9-3.3-6.6-4.8c-5.7-1.4-10.4-2.4-12.3-2.6c-1.9-0.2-3.3-0.4-3.3-0.4s0.2,3.4,6.8,8.1
			c-3.9-1.2-8.5-3.3-9.9-8.4c-1.2-0.2-3.9-0.6-3.9-0.6s1.7,6.8,9,11.2c4.5,3,9.9,4.5,9.9,4.5s-9.3-0.3-15.7-4.4
			c-6.3-4.1-8.3-9.8-8.6-12.5c-2-0.5-3.9-0.9-3.9-0.9s0.7,6.4,5.1,9.5c-4-1.6-7.6-6.3-7.8-10c-2.8-1.1-7-2.1-8.8-4.3
			c-1.8-2.2-3.2-4.5-3.2-4.5s-2.9,4.5,1.1,7.4c-2.2,0.1-4.8-0.5-6.4-1.5c0.5,1.9,3.7,5.6,7,7c0.2,0.4-0.2,0.5-0.9,0.6
			c-0.6,0.1-4.2,0.4-7.1-1.5c0.9,2.4,2.8,5.2,10.7,6.6c-0.9,1.8-6.2,1.1-7.5,0.7c1.4,2.5,5.1,5.5,13.7,5.5c-0.6,1.5-5,2.4-7.2,2.2
			c1.7,1.4,8.9,3.3,15.1,1.5c-0.6,1.8-3.4,2.9-5.6,3.1c2.3,1.2,9.4,1.3,13.6,0.1c-0.5,1.7-3.2,2.6-5.1,2.8c2,0.9,6.4,1.8,12.8-1
			c0.2,0.9-1.5,2.4-2.7,3.1c4,0.2,14.1-1.3,19.8-6C76,43,76.7,38,71.4,34.5C72.1,34,74.4,34.4,75,34.9z"/>
		<g>
			<path class="st5" d="M53.1,53.4c-0.1,0-3.2,3.8-3.2,3.8l-1-0.1l0-1.1L53.1,53.4z"/>
			<path class="st5" d="M45.1,51.8c-0.1,0-5.1,3.7-5.1,3.7l-1.4-0.3l0.6-1.1L45.1,51.8z"/>
			<path class="st5" d="M35.1,48.9c-0.1,0-3.9,2.2-3.9,2.2L30,50.4l0.4-0.8L35.1,48.9z"/>
			<path class="st5" d="M26.6,44c-0.1,0-3.9,1.5-3.9,1.5L22,45l0.4-0.8L26.6,44z"/>
			<path class="st5" d="M18.8,37.9c-0.1,0-4,1-4,1l-0.7-0.8l0.7-0.8L18.8,37.9z"/>
		</g>
		<g>
			<path class="st34" d="M80,52.2c0,0,2.8-0.4,3.5,1.7c0.7,2.2-1.2,3.8-2,3.9c0.3-1.4-0.5-3.1-2-2.9c0.1-0.8-0.5-1.3-0.5-1.3
				s0.7-0.2,0.9-0.4C80.2,53,80.5,52.5,80,52.2z"/>
			<path class="st34" d="M77.4,60.1c0,0-0.2-0.7-0.3-1.3c-0.8,0.4-0.8,1.3-0.6,1.9C76.8,60,77.4,60.1,77.4,60.1z"/>
			<path class="st34" d="M74.1,61.8c0.1-0.1,1.8-1.2,1.4-3.3C75.1,56.4,73,55.8,71,57c0.5,0.2,0.6,0.4,0.6,0.4s-0.8,0.5-1.1,0.8
				c0.7,0,0.8,0.6,0.7,0.9c1.2-0.2,1.9-0.2,2.4,0.4C74.2,60.2,74.1,61.8,74.1,61.8z"/>
			<path class="st34" d="M69.4,68.1c0,0,0.6-2-0.4-3.3c-1-1.2-3.5-0.9-3.5-0.9s0.9,0.4,1,0.8c-0.3,0.1-1.1,1-1.1,1s0.6,0.1,0.8,0.3
				c0.2,0.2,0.1,1.7,0.1,1.7s0.6-0.5,1.5-0.5C68.7,67.2,69.4,68.1,69.4,68.1z"/>
			<path class="st34" d="M70.9,66.8c0,0,0.6-0.4,0.7-0.4c0.1,0-0.4-0.4-0.6-0.6L70.9,66.8z"/>
		</g>
		<g>
			<path class="st5" d="M77,73.6c0.1,0.2,1.1,1.8,0.9,1.8c-0.1,0-1.5,1.5-1.5,1.5v-1l0.6-0.7l-0.3-0.7L77,73.6z"/>
			<path class="st5" d="M85.9,66l0.1,1.5l-0.8,0.5l0.2,0.8c0,0,1.1-1,1.2-0.9c0-0.9-0.1-1.5-0.1-1.5l-0.6-0.4"/>
			<path class="st5" d="M82.2,69.7L81.6,68c0,0-0.5,0.1,0,1.5c-0.6,0.7-0.7,0.8-0.7,0.8l0.1,0.9L82.2,69.7z"/>
		</g>
		<g>
			<path class="st5" d="M71,59.4c0,0-0.4,3.2,1.7,5.8c2.1,2.5,4.7,3.7,4.6,3.6c-0.1-0.1-3.2-0.3-5.6-3.5C69.8,62.7,69.7,60,71,59.4z
				"/>
			<path class="st5" d="M66.3,68.1c0,0,1.2,4.6,6.1,6.8c-3-0.5-4.9-2-6-3.7C65.3,69.6,65.9,68,66.3,68.1z"/>
			<path class="st5" d="M79,55.1c0.1,0-0.7,4.1,0.7,6.7c1,2,2.2,3.2,2.5,3.5c-1.5-0.9-2.6-2.2-3.7-4.3C77.5,59,77.1,56,79,55.1z"/>
		</g>
	</g>
	<g>
		<path class="st33" d="M39.7,14.5c0,0-1.4-6.9-1.7-8c-0.2-1.1,0.1-1.2,0.1-1.2h-4.8l-0.1,0.3c0.4,0,0.3,0.5,0.3,0.5
			s-1.7,7.7-1.9,8.3c-0.2,0.6-0.4,0.5-0.4,0.5v0.4h2.6V15c-0.5-0.1-0.3-0.5-0.3-0.5l0.4-1.1h3.7c0,0,0.1,0.5,0.1,1
			c0.1,0.5-0.3,0.7-0.3,0.7v0.3h2.9V15C39.8,15,39.7,14.5,39.7,14.5z M34.5,11.5l1-4.5l0.7,0l0.9,4.5H34.5z"/>
		<path class="st33" d="M64.6,14.5c0,0-1.4-6.9-1.7-8C62.6,5.5,63,5.3,63,5.3h-4.8l-0.1,0.3c0.4,0,0.3,0.5,0.3,0.5s-1.7,7.7-1.9,8.3
			c-0.2,0.6-0.4,0.5-0.4,0.5v0.4h2.6V15c-0.5-0.1-0.3-0.5-0.3-0.5l0.4-1.1h3.7c0,0,0.1,0.5,0.1,1c0.1,0.5-0.3,0.7-0.3,0.7v0.3h2.9
			V15C64.6,15,64.6,14.5,64.6,14.5z M59.3,11.5l1-4.5L61,7l0.9,4.5H59.3z"/>
		<path class="st33" d="M91.1,14.5c0,0-1.4-6.9-1.7-8c-0.2-1.1,0.1-1.2,0.1-1.2h-4.8l-0.1,0.3C85,5.6,85,6.1,85,6.1
			s-1.7,7.7-1.9,8.3c-0.2,0.6-0.4,0.5-0.4,0.5v0.4h2.6V15c-0.5-0.1-0.3-0.5-0.3-0.5l0.4-1.1H89c0,0,0.1,0.5,0.1,1
			c0.1,0.5-0.3,0.7-0.3,0.7v0.3h2.9V15C91.2,15,91.1,14.5,91.1,14.5z M85.9,11.5l1-4.5l0.7,0l0.9,4.5H85.9z"/>
		<path class="st33" d="M114.9,14.5c0,0-1.4-6.9-1.7-8c-0.2-1.1,0.1-1.2,0.1-1.2h-4.8l-0.1,0.3c0.4,0,0.3,0.5,0.3,0.5
			s-1.7,7.7-1.9,8.3c-0.2,0.6-0.4,0.5-0.4,0.5v0.4h2.6V15c-0.5-0.1-0.3-0.5-0.3-0.5l0.4-1.1h3.7c0,0,0.1,0.5,0.1,1
			c0.1,0.5-0.3,0.7-0.3,0.7v0.3h2.9V15C115,15,114.9,14.5,114.9,14.5z M109.7,11.5l1-4.5l0.7,0l0.9,4.5H109.7z"/>
		<path class="st33" d="M40,7.2C40.1,7,40.6,7,40.6,7h1.8c0,0,0,6.9,0,7.5c0,0.5-0.3,0.4-0.3,0.4v0.4h2.8V15c-0.3,0-0.4-0.5-0.4-0.5
			V6.9c0,0,0.9,0,1.5,0s1,0.3,1,0.3V5.4h-7V7.2z"/>
		<path class="st33" d="M82,6.9c0.7,0,1,0.3,1,0.3V5.4h-7v1.8C76,7,76.6,7,76.6,7h1.8c0,0,0,6.9,0,7.5c0,0.5-0.3,0.4-0.3,0.4v0.4
			h2.8V15c-0.3,0-0.4-0.5-0.4-0.5V6.9C80.4,6.9,81.3,6.9,82,6.9z"/>
		<path class="st33" d="M53.6,13.6c-0.5,0-3,0-3,0V6.1c0,0-0.1-0.3,0.3-0.4V5.4l-2.6,0v0.3c0,0,0.4,0,0.4,0.4c0,0.5,0,8.1,0,8.1
			s0,0.5-0.4,0.7c0,0-0.1,0.3,0,0.3c0.1,0,6.2,0,6.2,0v-2.1h-0.3C54.2,13.2,54.1,13.6,53.6,13.6z"/>
		<path class="st33" d="M71.8,5.6C72,5.7,72.1,6,72.1,6v3.1c0,0-2.5-2.9-2.7-3.1c-0.2-0.3-0.1-0.7-0.1-0.7h-2.7l0,0.3
			C67,5.6,67,6,67,6s0,7.8,0,8.4c0,0.5-0.4,0.6-0.4,0.6v0.3h2.7V15C69,15,69,14.4,69,14.4V8.5l3.2,3.7c0,0,0,1.8,0,2.2
			c0,0.4-0.4,0.5-0.4,0.5v0.3h2.7v-0.3c-0.2-0.1-0.3-0.5-0.3-0.5s0-7.9,0-8.3c0-0.5,0.3-0.4,0.3-0.4V5.4h-2.7V5.6z"/>
		<path class="st33" d="M104.7,14.6c0,0,0-7.8,0-8.4s0.2-0.5,0.2-0.5V5.4h-2.6v0.2c0.2,0,0.2,0.3,0.2,0.3v2.9h-3.2c0,0,0-2,0-2.5
			c0-0.6,0.5-0.6,0.5-0.6V5.4h-2.6l0,0.3c0.3,0,0.4,0.5,0.4,0.5s0,7.3,0,8c0,0.7-0.5,0.7-0.5,0.7v0.5h2.7V15c-0.4,0-0.4-0.3-0.4-0.3
			s0.1-4.1,0-4.1c-0.1,0,3.1,0,3.1,0s0,3.6,0,4c0,0.4-0.3,0.4-0.3,0.4v0.4h2.7v-0.4C104.8,14.8,104.7,14.6,104.7,14.6z"/>
		<path class="st33" d="M125.9,5.6c0.3,0,0.3,0.4,0.3,0.4l-1.5,5.5c0,0-1.5-4.7-1.6-5.3c-0.1-0.6,0.2-0.5,0.2-0.5V5.4h-2.5v0.3
			c0.3,0,0.3,0.4,0.3,0.4s-1.8,5.3-1.8,5.3c0,0-1.2-4.8-1.3-5.3c-0.1-0.5,0.4-0.4,0.4-0.4V5.3h-2.8v0.4c0.4,0,0.5,0.5,0.5,0.5
			s1.8,7.7,1.9,8.2c0.1,0.5-0.3,0.5-0.3,0.5v0.4h3v-0.4c0,0-0.1,0.1-0.2-0.1c0-0.2,0.1-0.7,0.1-0.7l1.5-4.5c0,0,1.3,4,1.5,4.6
			c0.2,0.6-0.1,0.7-0.1,0.7v0.3h2.8v-0.3c-0.4-0.1-0.1-0.8-0.1-0.9c0-0.1,1.7-7.2,1.8-7.8c0.1-0.6,0.6-0.6,0.6-0.6V5.3h-2.6V5.6z"/>
		<path class="st33" d="M137.9,14.6c-0.1,0-2.5-6-2.5-6s1.5-2,1.9-2.5c0.4-0.5,0.7-0.4,0.7-0.4V5.4h-3v0.2c0.2,0,0.1,0.4,0.1,0.4
			l-2.9,3.1c0,0,0-2.1,0-2.8c0-0.7,0.5-0.7,0.5-0.7V5.3H130l0,0.4c0.2,0,0.3,0.2,0.3,0.2s0,7.3,0,8.2c0,0.9-0.3,0.9-0.3,0.9v0.3h2.7
			v-0.2c-0.5,0-0.4-0.7-0.4-0.7v-2.1l1.7-1.8c0,0,1.4,3.3,1.6,3.9c0.2,0.6-0.2,0.6-0.2,0.6v0.3h3V15C138,15,138,14.6,137.9,14.6z"/>
		<path class="st33" d="M145.9,10c-1.1-0.4-4.3-1.7-4.3-1.7V7h3.4V8h1.8V6.1c0,0,0.1-0.7-1-0.7c-1.1,0-5.8,0-5.8,0S139,7,139.7,9.6
			c1.2,0.4,5.2,2,5.2,2s0.1,1.3,0,1.9c-0.6,0-3.5,0-3.5,0v-1.1c0,0-2.1,0-2.1,0c0,0,0,0.6,0,0.6s0.3-0.2,0.3,0.6c0,0.8,0,1.1,0,1.1
			s0,0.5,0.7,0.5c1.1,0,5.7,0,5.8,0c0.4,0,0.8-0.2,0.8-0.8c0-1,0-3.1,0-3.1C146.9,11.3,147,10.4,145.9,10z"/>
	</g>
	<g>
		<path class="st33" d="M88.9,20.3c6.9-0.1,9.9,2.6,9.9,2.6l-0.6,0.9l2.4,1.3l-0.8,1.2c0,0,0.2,2.3,6.1,2.1c5.9-0.2,20-0.8,28.6-2.7
			c7.4-1.6,14.9-3.7,17.2-6c2.3-2.3,4.4-5.3,4.6-8.4c2.5,2.4,3.5,4.7,2.3,8.5c3.9-1.2,6.9-3,7.7-5.7c0.5,4.2-0.9,6.1-1.7,7.2
			c2.4-0.4,6-1.2,7.1-2.8c0,3.6-2.8,6-4.1,7c2.3-0.1,5.9-1.2,6.3-1.6c0,0-0.2,3.5-3.8,5.6c-0.8,0.5-1,1,0,0.9c1.1-0.1,3-0.5,3.7-0.8
			c-0.1,1.5-2.6,4.2-6.6,5.6c-0.6,0.2-0.9,0.6,0.1,0.8c1,0.2,2.5,0.1,3.2-0.2c-1.2,1.7-3.4,4.1-8.1,5c-0.5,0.1,0,0.5,0.8,0.5
			c0.8,0,2.8,0,2.8,0s-1.9,4.9-10.1,4.3c-0.3,2.6-0.5,3-0.5,3l-2.8,0.1l-1.2,3.2l-3.2-0.2l-1.3,3.1l-3.1-0.8l-1.7,3.1l-3.2-1
			l-1.9,2.6l-3-1.1l-2,2l-2.9-1.7l-1.9,2c0,0-9.7,0.7-16.6-2.2c-1.4-3.2-4.5-5.6-5.9-6.1c-1.8,0.8-1.5,3.7-1.5,3.7s6.9,0,5,6.9
			c3.8,0.5,5.4,2.2,5.8,3.8c0.4,1.6,0,3.8-1.5,5.2c1.3,1.5,7.6,8.2,7.6,8.2l-6.6-0.5l-2.9,3.5l-2.4-1.5c0,0-2.8,15.3-19.5,15.3h-0.8
			l-1.4-14.8l1.3-23.7C88,57.8,88,57.8,88,57.8l-2.3-33.4L88.9,20.3z"/>
		<g>
			<path class="st34" d="M100.8,75.3c-0.2-0.1,4.2-0.7,5.6-3.2c-1.4-3.5-1.9-4.3-1.9-4.3s-5.9,3.3-8.3,9.7c0,0-0.7,2.1-0.7,3.9
				c2.2-0.4,8.4-2.7,11.3-4.8c0.1-1.3,0.1-1.3,0.1-1.3S103.2,76.8,100.8,75.3z"/>
			<path class="st34" d="M99.2,62.2c0,0-2.2,4.7-7.3,5.1c2.5-1.5,4.3-5.5,4-6.9c-1.7-0.8-4.3-1.5-5.5-1.2c0,3.8-0.1,22.6-0.1,22.6
				l3.1-0.1c0,0,1.2-8.3,5.6-11.7c-1.5-0.1-2.8-0.5-2.8-0.5c0.1,0,3.1-0.5,4.6-2.2c1.5-1.6,1.5-2.6,1.5-2.6L99.2,62.2z"/>
			<path class="st34" d="M106.8,79c0,0-6.4,3.7-11.1,4.4c0.5,3.7,3.4,5.9,5.5,6.3C103.7,87.5,106.7,82.6,106.8,79z"/>
			<path class="st34" d="M90.3,83.9v10.3c0,0,5.3,0.2,8.9-3c-2.3-0.9-5.8-4.2-5.7-7.5C91.7,83.9,90.3,83.9,90.3,83.9z"/>
		</g>
		<path class="st35" d="M102.3,34.9c0,0,0.9-3.3,6.6-4.8c5.7-1.4,10.4-2.4,12.3-2.6c1.9-0.2,3.3-0.4,3.3-0.4s-0.2,3.4-6.8,8.1
			c3.9-1.2,8.5-3.3,9.9-8.4c1.2-0.2,3.9-0.6,3.9-0.6s-1.7,6.8-9,11.2c-4.5,3-9.9,4.5-9.9,4.5s9.3-0.3,15.7-4.4
			c6.3-4.1,8.3-9.8,8.6-12.5c2-0.5,3.9-0.9,3.9-0.9s-0.7,6.4-5.1,9.5c4-1.6,7.6-6.3,7.8-10c2.8-1.1,7-2.1,8.8-4.3
			c1.8-2.2,3.2-4.5,3.2-4.5s2.9,4.5-1.1,7.4c2.2,0.1,4.8-0.5,6.4-1.5c-0.6,1.9-3.7,5.6-7,7c-0.2,0.4,0.2,0.5,0.9,0.6
			c0.6,0.1,4.2,0.4,7.1-1.5c-0.9,2.4-2.8,5.2-10.7,6.6c0.9,1.8,6.2,1.1,7.5,0.7c-1.4,2.5-5.1,5.5-13.7,5.5c0.6,1.5,5,2.4,7.2,2.2
			c-1.7,1.4-8.9,3.3-15.1,1.5c0.6,1.8,3.4,2.9,5.6,3.1c-2.3,1.2-9.4,1.3-13.6,0.1c0.6,1.7,3.2,2.6,5.1,2.8c-2,0.9-6.4,1.8-12.8-1
			c-0.2,0.9,1.5,2.4,2.7,3.1c-4.1,0.2-14.1-1.3-19.8-6c-2.9-2.4-3.6-7.4,1.8-10.9C105.2,34,102.9,34.4,102.3,34.9z"/>
		<g>
			<path class="st5" d="M124.2,53.4c0.1,0,3.2,3.8,3.2,3.8l1-0.1l0-1.1L124.2,53.4z"/>
			<path class="st5" d="M132.2,51.8c0.1,0,5.1,3.7,5.1,3.7l1.4-0.3l-0.6-1.1L132.2,51.8z"/>
			<path class="st5" d="M142.2,48.9c0.1,0,3.9,2.2,3.9,2.2l1.3-0.7l-0.4-0.8L142.2,48.9z"/>
			<path class="st5" d="M150.7,44c0.1,0,3.9,1.5,3.9,1.5l0.8-0.5l-0.4-0.8L150.7,44z"/>
			<path class="st5" d="M158.5,37.9c0.1,0,4,1,4,1l0.7-0.8l-0.7-0.8L158.5,37.9z"/>
		</g>
		<g>
			<path class="st34" d="M97.3,52.2c0,0-2.8-0.4-3.5,1.7c-0.7,2.2,1.2,3.8,2,3.9c-0.3-1.4,0.5-3.1,2-2.9c-0.1-0.8,0.5-1.3,0.5-1.3
				s-0.7-0.2-0.9-0.4C97.1,53,96.8,52.5,97.3,52.2z"/>
			<path class="st34" d="M99.9,60.1c0,0,0.2-0.7,0.3-1.3c0.8,0.4,0.8,1.3,0.6,1.9C100.5,60,99.9,60.1,99.9,60.1z"/>
			<path class="st34" d="M103.2,61.8c-0.1-0.1-1.8-1.2-1.4-3.3c0.4-2.1,2.6-2.6,4.5-1.5c-0.5,0.2-0.6,0.4-0.6,0.4s0.8,0.5,1.1,0.8
				c-0.7,0-0.8,0.6-0.7,0.9c-1.2-0.2-1.9-0.2-2.4,0.4C103.1,60.2,103.2,61.8,103.2,61.8z"/>
			<path class="st34" d="M107.9,68.1c0,0-0.6-2,0.4-3.3c1-1.2,3.5-0.9,3.5-0.9s-0.9,0.4-1,0.8c0.3,0.1,1.1,1,1.1,1s-0.6,0.1-0.8,0.3
				c-0.2,0.2-0.1,1.7-0.1,1.7s-0.6-0.5-1.5-0.5C108.6,67.2,107.9,68.1,107.9,68.1z"/>
			<path class="st34" d="M106.4,66.8c0,0-0.6-0.4-0.7-0.4c-0.1,0,0.4-0.4,0.6-0.6L106.4,66.8z"/>
		</g>
		<g>
			<path class="st5" d="M100.3,73.6c-0.1,0.2-1.1,1.8-0.9,1.8c0.1,0,1.5,1.5,1.5,1.5v-1l-0.6-0.7l0.3-0.7L100.3,73.6z"/>
			<path class="st5" d="M91.4,66l-0.1,1.5l0.8,0.5l-0.2,0.8c0,0-1.1-1-1.2-0.9c0-0.9,0.1-1.5,0.1-1.5l0.6-0.4"/>
			<path class="st5" d="M95.1,69.7l0.7-1.7c0,0,0.5,0.1,0,1.5c0.6,0.7,0.7,0.8,0.7,0.8l-0.1,0.9L95.1,69.7z"/>
		</g>
		<g>
			<path class="st5" d="M106.3,59.4c0,0,0.4,3.2-1.7,5.8c-2.1,2.5-4.7,3.7-4.6,3.6c0.1-0.1,3.2-0.3,5.6-3.5
				C107.5,62.7,107.6,60,106.3,59.4z"/>
			<path class="st5" d="M110.9,68.1c0,0-1.2,4.6-6.1,6.8c3-0.5,4.9-2,6-3.7C112,69.6,111.4,68,110.9,68.1z"/>
			<path class="st5" d="M98.3,55.1c-0.1,0,0.7,4.1-0.7,6.7c-1,2-2.2,3.2-2.5,3.5c1.5-0.9,2.6-2.2,3.7-4.3
				C99.7,59,100.2,56,98.3,55.1z"/>
		</g>
	</g>
	<path class="st35" d="M83.2,22.5c-0.1,0.1,0.7,0.8,1.4,1c-0.1,1.5,0.6,2.9,1.7,3.6c0.7-1.3,3.7-2.4,6-0.1c2-0.8,1.8-3.6,1.8-3.6
		s1.4-0.5,1.6-0.9c-1.3-0.5-4.2-1.2-5.3-1C89.5,23,89.5,23,89.5,23l-1-1.6C88.5,21.4,85,21.5,83.2,22.5z"/>
	<path class="st35" d="M82.3,24.6c0,0-2.4,3.5-2.4,6.8c1.3,0,1.3,0,1.3,0s-0.5,3.4,1,5.8c0.6-0.4,2.1,0.3,2.1,1.3
		c-0.8-0.7-1.3-0.4-1.6-0.2c-0.3,0.2-0.9,0.2-1.2-0.3c-0.3-0.4-1.4-1.4-1.4-1.4s-3.4,4.5-1.8,11.1c1,4.2,2.1,4.5,2.1,4.5
		s5.9-2.7,7.2,3.8c1.6-0.1,1.8,0,1.8,0l0.1-13.7c0,0-1.5-0.6-1.6-1.5c1,0.8,2.7,0.6,3.9-1c1.2-1.6,2.6-2.7,3.3-2.8
		c0.7-0.1,1,1.1,1,0.9c0-0.2,2.2-2.7,1.8-6.2c1.1-0.1,1.1-0.1,1.1-0.1s0.1-4.8-2.3-6.9C96,25,96,25,96,25s1.2,1.5,0.8,2.7
		c-0.4,1.2-1.6,1.9-3.4,1.7c0.2,0.8,0.8,1.3,1.4,1.8c0.7,0.5,2.1,1.3,2.1,1.3l0,0.5c0,0-2.9,1-4.1,2.8c-1.1,1.8-2.3,3.3-2.6,3.6
		c-0.3,0.3-1.2,0.5-1.7-0.3c-0.5-0.8-3.4-5.2-6.5-6.1c1.6-1.3,2.9-2.2,2.9-2.2s0.7-0.4,0.7-1.2c-1.2,0.2-3.3-0.3-3.4-1.8
		c-0.2-1.5,0.4-2.3,1-2.6C83,24.6,82.3,24.6,82.3,24.6z"/>
	<path class="st34" d="M89.5,27.1v6.8c0,0-1.4-2.9-2.8-2.6C85.2,31.7,84,33,84,33l-0.4-0.2l0.3-0.3l2.9-2.4c0,0-0.2-1.5,1-2.5
		C89,26.5,89.5,27.1,89.5,27.1z"/>
	<path class="st33" d="M88.1,27.9c0.1-0.1-0.1,1.5-0.1,1.5s-0.6,0-0.6-0.3C87.4,28.8,87.6,28.2,88.1,27.9z"/>
	<path class="st34" d="M90.7,27.7c0,0.2,0,1.5,0,1.5s0.7,0,0.7-0.5C91.4,28.1,90.7,27.7,90.7,27.7z"/>
	<path class="st5" d="M92.6,27.9l1.3-0.7l0.7,0.8c0,0,0.3-0.8,0.1-1.6c0.6-0.8,0.5-0.9,0.5-0.9s1.6,2,0.1,3
		C94.1,29.3,92.6,27.9,92.6,27.9z"/>
	<path class="st5" d="M86.1,27.9l-1.2-0.7L84.3,28c0,0-0.3-0.8-0.1-1.6c-0.6-0.8-0.5-0.9-0.5-0.9s-1.4,2,0.1,3
		C85.1,29.3,86.1,27.9,86.1,27.9z"/>
	<path class="st34" d="M84.8,33.3c0,0,1-1.6,2.5-0.7c1.1,0.7,2.2,3,2.2,3s1.1-2.8,2.4-3.3c1.2-0.5,2.1,1.1,2.1,1.1s-1.3,0.1-2.1,1.5
		c-0.8,1.5-2,3.3-2,3.3l-0.4-1.1l-0.6,1.1C88.9,38.3,86.6,33.6,84.8,33.3z"/>
	<path class="st33" d="M80.2,38.5c0,0-3.4,4.9-0.1,11.4c-0.7-3.7-1.1-6.8,1-10.5C80.8,38.8,80.2,38.5,80.2,38.5z"/>
	<polygon class="st36" points="37.6,5.6 34.1,5.6 32,14.8 32.4,14.8 34.4,5.9 37.6,5.9 	"/>
	<polygon class="st36" points="36.4,6.8 37.5,11.9 34.3,11.9 34.2,12.1 37.9,12.1 36.8,6.8 	"/>
	<polygon class="st36" points="37.9,13.2 38.1,14.8 38.6,14.8 38.3,13.2 	"/>
	<polygon class="st36" points="62.4,5.6 58.9,5.6 56.8,14.8 57.2,14.8 59.2,5.9 62.4,5.9 	"/>
	<polygon class="st36" points="61.3,6.8 62.3,11.9 59.1,11.9 59.1,12.1 62.8,12.1 61.6,6.8 	"/>
	<polygon class="st36" points="62.7,13.2 62.9,14.8 63.4,14.8 63.2,13.2 	"/>
	<polygon class="st36" points="89,5.6 85.5,5.6 83.4,14.8 83.8,14.8 85.8,5.9 89,5.9 	"/>
	<polygon class="st36" points="87.8,6.8 88.9,11.9 85.7,11.9 85.6,12.1 89.3,12.1 88.1,6.8 	"/>
	<polygon class="st36" points="89.3,13.2 89.5,14.8 90,14.8 89.7,13.2 	"/>
	<polygon class="st36" points="112.8,5.6 109.3,5.6 107.2,14.8 107.6,14.8 109.6,5.9 112.8,5.9 	"/>
	<polygon class="st36" points="111.6,6.8 112.7,11.9 109.5,11.9 109.4,12.1 113.2,12.1 112,6.8 	"/>
	<polygon class="st36" points="113.1,13.2 113.3,14.8 113.8,14.8 113.5,13.2 	"/>
	<polygon class="st36" points="40.3,6.6 40.3,5.7 46.6,5.7 46.6,5.9 40.6,5.9 40.6,6.6 	"/>
	<rect x="42.7" y="6.9" class="st36" width="0.5" height="7.9"/>
	<polygon class="st36" points="76.3,6.6 76.3,5.7 82.5,5.7 82.5,5.9 76.6,5.9 76.6,6.6 	"/>
	<rect x="78.7" y="6.9" class="st36" width="0.5" height="7.9"/>
	<rect x="50.6" y="13.8" class="st36" width="3.5" height="0.3"/>
	<polygon class="st36" points="49.3,5.9 49.3,14.8 49,14.8 49,5.6 49.3,5.6 50.2,5.6 50.2,5.8 	"/>
	<polygon class="st36" points="73.7,5.6 72.6,5.6 72.6,10.4 72.8,10.4 72.8,5.9 73.7,5.9 	"/>
	<polygon class="st36" points="68.8,5.6 68.8,5.9 67.5,5.9 67.5,14.8 67.2,14.8 67.2,5.6 	"/>
	<polygon class="st36" points="68.7,7.5 72.5,12.2 72.5,14.8 72.8,14.8 72.8,11.9 69.1,7.5 	"/>
	<polygon class="st36" points="99.2,5.6 98,5.6 98,14.7 98.2,14.7 98.2,5.8 99.2,5.8 	"/>
	<polygon class="st36" points="104.2,5.6 103,5.6 103,9.1 99.5,9.1 99.5,9.4 103.3,9.4 103.3,5.8 104.2,5.8 	"/>
	<rect x="103" y="10.5" class="st36" width="0.3" height="4.3"/>
	<path class="st36" d="M117.6,5.6h-1.4l2,8.4c0,0,0,0.5,0,0.7c0.1,0,0.4,0,0.4,0s0-0.8-0.2-1.5c-0.2-0.7-1.8-7.4-1.8-7.4l0.9,0
		L117.6,5.6z"/>
	<path class="st36" d="M119.2,13.1c0,0,2.3-7.5,2.3-7.5h1.2v0.2h-0.9l-2.1,7.4L119.2,13.1z"/>
	<path class="st36" d="M122.2,8.2c0,0,1.9,6.5,1.9,6.5h0.4l-2-6.6L122.2,8.2z"/>
	<polygon class="st36" points="126.7,5.6 124.9,12.4 124.9,13.4 125.1,13.4 127,5.9 127.7,5.9 127.7,5.6 	"/>
	<polygon class="st36" points="131.9,5.6 130.6,5.6 130.6,14.8 131,14.8 131,5.9 131.9,5.9 	"/>
	<polygon class="st36" points="137.2,5.6 135.7,5.6 132.1,9.8 132.1,10.4 136,5.9 137,5.9 	"/>
	<polygon class="st36" points="134.3,10.1 136.1,14.8 136.5,14.8 134.4,9.9 	"/>
	<path class="st36" d="M139.9,9.3c0,0-0.4-2.3,0.2-3.7c0.9,0,6.1,0,6.1,0v0.3h-6v3.6L139.9,9.3z"/>
	<rect x="145.4" y="6.8" class="st36" width="0.3" height="0.9"/>
	<path class="st36" d="M141.1,8.8l5,2.1c0,0,0.4-0.2,0.1-0.3c-0.3-0.2-4.9-2-4.9-2S141.1,8.6,141.1,8.8z"/>
	<path class="st36" d="M145.4,11.7h0.3c0,0,0,2.3,0,2.4c0,0-4.4,0-4.4,0v-0.2h4.1L145.4,11.7z"/>
	<path class="st36" d="M140.3,14.8v-1.7h0.7v-0.3h-1.2c0,0,0.2,0.3,0.2,0.7C140,13.8,140,14.8,140.3,14.8z"/>
	<path class="st35" d="M91.7,55c0,0,0.8-5.5,6.9-4c2.6-2.5,2.2-9.1,1.5-11.1c-1.8,2-1.4,1.8-0.9,2.6c0.5,0.9,0.6,1.5,0.6,1.5l-1,1.5
		c0,0-0.5,0.7,0.1,2.2c-0.8,1.3-1.2,2-1.2,2S92.1,49.1,91.7,55z"/>
</g>
</svg>
