<?xml version="1.0" encoding="utf-8"?>
<!-- Generator: Adobe Illustrator 23.0.1, SVG Export Plug-In . SVG Version: 6.00 Build 0)  -->
<svg version="1.1" id="Capa_1" xmlns="http://www.w3.org/2000/svg" xmlns:xlink="http://www.w3.org/1999/xlink" x="0px" y="0px"
	 viewBox="0 0 117.2 123.8" style="enable-background:new 0 0 117.2 123.8;" xml:space="preserve">
<style type="text/css">
	.st0{fill:#175384;}
	.st1{fill:#A0A5AA;}
	.st2{fill:#0B040C;}
	.st3{fill:#FFC727;}
	.st4{fill:#F0545B;}
	.st5{fill:#FFFFFF;}
	.st6{fill:#00A855;}
	.st7{fill:#B4C4C9;}
	.st8{fill:#221A21;}
	.st9{fill:#EF3A47;}
	.st10{fill:url(#SVGID_1_);}
	.st11{fill:url(#SVGID_2_);}
	.st12{fill:url(#SVGID_3_);}
	.st13{fill:url(#SVGID_4_);}
	.st14{fill:url(#SVGID_5_);}
	.st15{fill:url(#SVGID_6_);}
	.st16{fill:url(#SVGID_7_);}
	.st17{fill:url(#SVGID_8_);}
	.st18{fill:url(#SVGID_9_);}
	.st19{fill:url(#SVGID_10_);}
	.st20{fill:url(#SVGID_11_);}
	.st21{fill:url(#SVGID_12_);}
	.st22{fill:#313564;}
	.st23{fill:#F04B41;stroke:#FFFFFF;stroke-width:2.1543;stroke-linecap:round;stroke-linejoin:round;stroke-miterlimit:10;}
	.st24{fill:#007FBA;stroke:#FFFFFF;stroke-width:2.1543;stroke-linecap:round;stroke-linejoin:round;stroke-miterlimit:10;}
	.st25{fill:#313564;stroke:#FFFFFF;stroke-width:2.1543;stroke-linecap:round;stroke-linejoin:round;stroke-miterlimit:10;}
	.st26{fill:#FFFFFF;stroke:#FFFFFF;stroke-width:2.1543;stroke-linecap:round;stroke-linejoin:round;stroke-miterlimit:10;}
	.st27{clip-path:url(#SVGID_14_);}
	.st28{fill:#FBAC36;stroke:#FFFFFF;stroke-width:2.1543;stroke-linecap:round;stroke-linejoin:round;stroke-miterlimit:10;}
	.st29{fill:#F04B41;}
	.st30{fill:#007FBA;}
	.st31{clip-path:url(#SVGID_16_);}
	.st32{fill:#FBAC36;}
	.st33{fill:#2C2F61;}
	.st34{fill:#B7B9BA;}
	.st35{fill:#EF3748;}
	.st36{fill:#8999AC;}
	.st37{fill:#2B2F61;}
	.st38{fill:#EE2C45;}
	.st39{fill:#101624;}
	.st40{fill:#59707A;}
	.st41{fill:#4A3285;}
	.st42{fill:#F79230;}
	.st43{fill:#F15733;}
	.st44{fill:#D7303F;}
	.st45{fill:#FAA832;}
	.st46{fill:#1F1721;}
	.st47{fill:#5F3188;}
	.st48{fill:#EE243D;}
	.st49{fill:#1F4BA0;}
	.st50{fill:#244789;}
	.st51{fill:#FBAE2E;}
	.st52{fill:#006991;}
	.st53{fill:#F9A01B;stroke:#FFFFFF;stroke-width:0.4473;stroke-miterlimit:10;}
	.st54{fill:#FAA533;}
	.st55{fill:#0092BC;}
	.st56{fill:#15182C;}
	.st57{fill:#3E419A;}
	.st58{fill:#101721;}
	.st59{fill:#ADA3A5;}
	.st60{fill:#9CA7AC;}
	.st61{clip-path:url(#SVGID_18_);}
	.st62{clip-path:url(#SVGID_20_);}
	.st63{fill:#F3FAF7;}
	.st64{fill:#2D2F63;}
	.st65{fill:#FAA819;}
	.st66{fill:#FEF6FA;}
	.st67{fill:#004F30;}
	.st68{fill:#A2C7D3;}
	.st69{fill:#EE2E55;}
	.st70{fill:#32366E;}
	.st71{fill:#00ADDC;}
	.st72{fill:#FFFFFF;stroke:#00ACD0;stroke-width:0.2915;stroke-miterlimit:10;}
	.st73{fill:#FFFFFF;stroke:#00ACD0;stroke-width:0.2973;stroke-miterlimit:10;}
	.st74{fill:#450000;}
	.st75{fill:#EE224A;}
	.st76{fill:#0064A5;}
	.st77{fill:#F47736;}
	.st78{fill:#B5BCBF;}
	.st79{fill:#F47B35;}
	.st80{fill:#EE2B52;}
	.st81{fill:#0C060E;}
	.st82{fill:#B58D49;}
	.st83{fill:#C9BBCB;}
	.st84{fill:#BA924C;}
	.st85{fill:#006BAF;}
	.st86{fill:#B3C5CB;}
	.st87{fill:#898C89;}
	.st88{fill:#2E2C61;}
	.st89{fill:#C3C5BD;}
	.st90{fill:#C4D2D9;}
	.st91{fill:#EE284D;}
	.st92{fill:#161212;}
	.st93{fill:#EE274E;}
	.st94{fill:#A2A7AA;}
	.st95{fill:#A6AAAC;}
	.st96{fill:#A1A2AB;}
	.st97{fill:#110B13;}
	.st98{fill:#AFC1C6;}
	.st99{fill:#0067AD;}
	.st100{fill:#FBFBFB;}
	.st101{fill:#0065AF;}
	.st102{fill:#121A26;}
	.st103{fill:#008D4C;}
	.st104{fill:#B43A3D;}
	.st105{fill:#111623;}
	.st106{fill:#AB9048;}
	.st107{fill:#F8A174;}
	.st108{fill:#120B19;}
	.st109{fill:#C59751;}
	.st110{fill:#B33638;}
	.st111{fill:#009154;}
	.st112{fill:#1C2026;}
	.st113{fill:#EE2844;}
	.st114{fill:#30385F;}
	.st115{fill:#3A84B1;}
	.st116{fill:#A3C5D7;}
	.st117{fill:#F9A039;}
	.st118{fill:#B0BEC0;}
	.st119{fill:#231D46;}
	.st120{fill:#FDB840;}
	.st121{fill:#CD2C32;}
	.st122{fill:#272049;}
	.st123{fill:#FEC027;}
	.st124{fill:#ADC7C6;}
	.st125{fill:#014429;}
	.st126{fill:#DF2539;}
	.st127{fill:#F57E30;}
	.st128{fill:#ED1942;}
	.st129{fill:#FEF9FB;}
	.st130{fill:#0065AA;}
	.st131{fill:#A6B5B8;}
	.st132{fill:#0B040C;stroke:#0B040C;stroke-width:0.2716;stroke-miterlimit:10;}
	.st133{fill:#F7F9FD;}
	.st134{fill:none;stroke:#EBF2CC;stroke-width:0.2972;stroke-miterlimit:10;}
	.st135{fill:#48484A;}
	.st136{opacity:0.2;}
	.st137{fill:#EE2E3B;}
	.st138{fill:#005BA6;}
	.st139{fill:#737577;}
	.st140{fill:#A1A0A5;}
	.st141{fill:#272360;}
	.st142{fill:#FAFAFB;}
	.st143{fill:#058BA6;}
	.st144{fill:#DEDBE7;}
	.st145{fill:#B2965B;}
	.st146{fill:#1B305B;}
	.st147{fill:#F9F9FA;}
	.st148{fill:#E12039;}
	.st149{fill:#FEF4F4;}
</style>
<g>
	<path class="st5" d="M99.8,60.2c0-22.3-18-40.3-40.3-40.3c-22.3,0-40.3,18-40.3,40.3c0,22.3,18,40.3,40.3,40.3
		C81.7,100.5,99.8,82.5,99.8,60.2z"/>
	<g>
		<path class="st102" d="M59.2,6.6C29.8,6.6,5.9,30.3,5.9,59.5c0,29.2,23.9,52.9,53.3,52.9s53.3-23.7,53.3-52.9
			C112.5,30.3,88.7,6.6,59.2,6.6z M59.2,97.4c-21.1,0-38.2-17-38.2-37.9c0-20.9,17.1-37.9,38.2-37.9c21.1,0,38.2,17,38.2,37.9
			C97.4,80.4,80.3,97.4,59.2,97.4z"/>
		<path class="st103" d="M59,8.8C30.7,8.8,7.7,31.5,7.7,59.5c0,28,23,50.7,51.3,50.7c28.3,0,51.3-22.7,51.3-50.7
			C110.4,31.5,87.4,8.8,59,8.8z M59,99.4c-22.3,0-40.4-17.8-40.4-39.9c0-22,18.1-39.9,40.4-39.9c22.3,0,40.4,17.8,40.4,39.9
			C99.4,81.5,81.3,99.4,59,99.4z"/>
		<path class="st102" d="M41.6,18.1c0-7.5-6.1-13.5-13.6-13.5c-7.5,0-13.6,6.1-13.6,13.5c0,7.5,6.1,13.5,13.6,13.5
			C35.5,31.6,41.6,25.6,41.6,18.1z"/>
		<path class="st104" d="M28.8,5.6c0,0-1.5,1-1.6,3.3c-0.1,2.3-0.5,4.2-0.6,6.5c-0.1,2.2-2.9,4.8-4.4,5.5c-1.4,0.7-4.8,1.3-6.2,1.1
			c0.8,2.2,2.9,4.5,3.6,4.7c2.4-0.8,13.2-6.3,16.2-15c-0.5,4.4-7,13.4-15.6,15.9c1.4,1.7,6.1,3.4,8.2,3c0-2.4,2.4-6.1,4.2-7.8
			c1.8-1.7,5.9-2.1,7.8-1.9C40.6,18.7,41.4,6.8,28.8,5.6z"/>
		<path class="st105" d="M93.5,77.3c-0.4-1.9-1.5-3.3-2.8-3c-1.4,0.4-2,0.7-2,0.7s-1.5-1.2-2.6-0.9c-0.8-0.2-0.8-0.2-0.8-0.2
			s0.1-0.8-0.4-3.3c-0.5-2.5-1.5-4.1-1.5-4.1s-1.7-5.6-1.7-7.3c0-1.7-1.4-4.4-1.4-4.4s0-3.6,0.4-4.9c0.4-1.4,0.8-4.3-1-7.7
			c-1.8-3.4-3.7-4.1-4.4-3.7c-0.7,0.4-1.7,0.2-2.1-0.1c-0.4-0.4-1.1-1.7-1.5-1.6c-0.4,0.1-3.1-1.2-3.1-1.2l0.1-2.3
			c0,0,2.4-2.2,2.9-3.6c0.5-1.5,0.1-4.6-2-4.6c0-1.8-0.1-6.4-2-8.6c2.2-0.8,5.7-3,4.1-4.7c-1.5-1.7-3,0.7-3,0.7s-1.6,1.2-2.7,1.2
			C66,11.1,65,7.8,63.6,6.8c-1.5-0.9-3-2.4-6.5-1.3c-3.4,1.1-8.5,4-9.4,6.3c-0.9,2.3-1.2,3.7-0.7,5c0.5,1.3,1.8,5.9,1.8,5.9
			s-2.4,1.9-3,2.2c-0.7,0.4-0.1,2.2,0.4,2.4c0.5,0.2,2.4,0.4,4.4-1.3l-0.2,2.3c0,0-2.8,0.8-2.5,3.1c-2.5,0.4-7.8,1.3-7.8,1.3
			l0.9-3.5c0,0-3.3-0.7-4.5,0.6c-0.1,2.2,0.1,5,1.6,4.9c1.5-0.1,2.2-0.9,2.2-0.9l7.8-1.1c0,0,0.1,4.1,4.9,4.9
			c0.7,1.4,0.7,1.4,0.7,1.4s-2.3-1.5-3.8-1.6c-1.5-0.1-1.6,1.6-1.6,2.5c0,0.9,0.2,5.7,0.4,6.1c0.2,0.4,0.7,0.3,1.2,0.1
			c0.6-0.2,6.5-2.5,6.5-2.5s-3.8,5.2-4.6,6.9c-1.1,0.4-5.6-0.6-5.6-0.6s-3-4.1-3.2-4.1c-0.2-0.1-1,0.1-1,0.1s-1.2-1.2-1.2-3.3
			c-0.1-2.1,0.3-4.2-0.9-4.9c-1.2-0.7-4.6-3.3-4.7-5.8c-0.1-2.5-0.9-2.5-1.7-1.7c-0.8,0.7-2,1.9-1.4,3.8c0.7,2,2,3.6,2,3.6
			s-3.8,1.5-3.6,5.2c-0.8,0.9-1.2,3.2,0.1,4.1c1.2,0.9,1.7,0.8,1.7,0.8l1.6,1.2c0,0,0.1,2.6,3.6,2.9c-0.1,2.2,1.8,3.2,2.3,3.9
			c0.5,0.7,2.3,2.9,3.8,1.6c1.1,0.3,1.2,1.4,1.2,1.4s-7,4.7-7.6,9.5c1.4,0.5,3.3,4,3.3,4s0.1,3.6,1.5,7c1.5,3.4,5.5,13.5,5.5,13.5
			s-2.9,1.2-3.5,0.2c-0.6-1-1.5-2.5-3.6-2.4c-2.1,0.1-3.5,0.4-3.5,0.4s-1.2,4.6-0.7,6.5c2,0.4,2,0.4,2,0.4s2.3,4.1,1.5,5.8
			c-0.9,1.7-1.7,6.7-1.6,7.5c0.1,0.9,1.2,2.4,0.9,2.4s-1.7,3.3-1.2,3.8c0.5,0.5,3,3.6,4.4,4c1.5,0.4,4.9,0.4,5.7,0
			c0.8-0.4,4-4.6,4-4.6s2.7,0.9,5.1,0.1c2.4-0.9,4.4-1.2,3.9-4.2c-0.5-2-3.3-3.4-3.3-3.4l0.1-6.1c0,0,5.3-1.6,6.4-3.7
			c1.1-2.1,4.7-12.6,6-14.9c1.2-2.3,2.5-9.4,2.8-10.1c0.3-0.7,0.9-1.2,0.4-2.8c-0.6-1.6-3.3-5.4-2.8-8.6c0.4-3.2,0.8-5.2,0.8-5.2
			s1.2-2.2,1.6-3.1c0.4-0.9,0.8-2,0.9-0.5c0.1,1.5,0.3,3.5-0.4,4.5c-0.7,1-0.7,2.6,0.1,4c0.8,1.4,3.6,6.4,3.6,6.4s0,3.8,0.5,4.9
			c0.5,1.1,0.7,2.3,3.1,2.3c0.1,1.4-0.3,2.4-0.6,2.7c-0.3,0.3-1.3,4.9-0.2,6.5c1.1,1.6,1.2,3.1,1.2,3.1s1.5,0.7,1.7,0.5
			c0.2-0.1-1.7,2.3-0.5,3.6c1.2,1.2,2.5,5.2,1.9,7.8c-0.7,2.5-0.9,4.6,0.6,5.8c1,1,1.5,3.9,1.5,5c0,1.1,1.4,8.6,2.5,9.8
			c0.4-0.4,0.4-1.9,0.6-3c0.1-1.2,0.4-8.9,0.4-9.4c0-0.5-0.1-2.7-0.8-3.8c-0.7-1.1-0.7-2.5-0.4-3.6c0.2-1.2,1.2-1.1,1.3-2.8
			c0.1-1.7-1.4-2.8-1.6-4.2c-0.2-1.5-0.9-3.3-0.9-4c0-0.7,0-1.4,0.4-2c0.4-0.7,0.9-1.7,0.9-1.7l1.7-0.9c0,0,1.2,0.4,1.6,0.1
			c0.4-0.4,1.7-2.2,2.1-2.5C93.9,82.5,95.1,78,93.5,77.3z M49.7,108.4c-0.7,0.1-2.8,1.1-2.8,1.1l-1.2-0.7l-0.1-5.1l2-0.4l-0.4-4.1
			c0,0,1.7,0.7,3.2,1.3c1.5,1.3,2.6,7.7,2.6,7.7S50.4,108.3,49.7,108.4z"/>
		<path class="st104" d="M15.6,21c0,0,7.9,0.6,8.6-4.4c-1.9-2.2-5.7-4.8-7.4-4.7C15.9,13.8,14.9,17.1,15.6,21z"/>
		<path class="st104" d="M17.6,10.9c0,0,4.9,1.5,7.8,5.4C25.8,12,26,9.4,26,8.7c0-0.7,0.4-2.4,1.1-3.2C24.6,5.8,20.3,7.5,17.6,10.9z
			"/>
		<path class="st104" d="M29.5,30.2c0,0,0.6-3.4,2.9-5.9c1.5,0.9,2.7,4,2.7,4S31.9,30.7,29.5,30.2z"/>
		<path class="st104" d="M33.3,23.6c-0.2,0.2,2.6,2.5,3,4.2c1.3-1.3,3.4-4.4,3.5-6.1C38.3,21.7,35.5,21.8,33.3,23.6z"/>
		<path class="st106" d="M48.4,18.6c0.2,0.2,1.6,4.7,1.6,4.7s2.4-2.5,4.6-4.1c2.2-1.6,6-3.6,7.4-4.1c1.4-0.4,3.6-1.1,3.6-1.1
			s-0.4-4.4-1.2-5c-0.8-0.7-4.4,0.7-7.8,3C53.1,14.2,48.4,18.6,48.4,18.6z"/>
		<path class="st5" d="M46.8,25.7c0,0,3-0.9,4.9-3c2-2,6.9-5.9,10.2-6.8c3.3-0.9,5.4-1.5,6.7-2.4c1.2-0.9,2-2,2.5-1.4
			c0.4,0.6,0.1,2-2.1,2.9c-2.2,0.9-9.1,2-12,4.6c-2.9,2.6-6.6,6.1-9,6.9C47,26.7,46.9,26.9,46.8,25.7z"/>
		<path class="st5" d="M51,25.9l-0.1,2.8c0,0,1-0.1,1-1.5C51.9,25.7,51.6,25.1,51,25.9z"/>
		<path class="st107" d="M51.9,25c0.2-0.1,1.2,0.8,1,1.7c-0.1,0.9-0.4,2.4-1.5,3.3c-1.2,0.9-1.2,1.8-0.3,2.2
			c0.9-0.4,1.8-0.8,2.7-0.8c0.9,0,2.7-0.5,1.6-1.7c0.5-0.3,1.4,1,2.2,1c0.8,0,2.5-0.1,3.1,0.2c0.6,0.3,0.9,1.8,0.9,1.8
			s-2,0.9-2.5,1.8c-0.5,0.9-3.2,1.5-4.4,1.3c-1.2-0.2-3.2-1.6-3.7-1.8c-0.4-0.3-1.5-1.5-2.3-1.2c0.2,1.6,1.9,3.7,5.2,4.6
			c0.2,1.1,1.3,3.7,3.4,3.4c2.1-0.3,3.6-2.5,3.6-2.5s3.1,0,4.8-1.5c1.7-1.5,2.4-4.5,2.4-4.5S71,29.4,71,28c0-1.4-0.8-2.2-1.7-2.2
			s-2.9,3.7-3.1,5.6c-3.3-0.2-3.9-0.1-3.7-0.2c0.3-0.1,3.7-3.7,3.2-7.2c-0.4-3.5-2.8-5.6-5.2-5.3c-2.2,1.3-5.7,3.7-6.5,4.7
			C53.2,24.2,51.9,25,51.9,25z"/>
		<path class="st105" d="M54.3,24c0,0-0.7,3.8-2.2,5.2c1.6-1,2.7-3.9,2.9-5C55.1,23.5,54.3,24,54.3,24z"/>
		<path class="st108" d="M57.2,24.3c0,0,0.6,0.8,0.6,1.8c0,1,0.6,1.2,0.6,1.2s-0.3,1,1.6,1.1c1.8,0.1,3.2-0.9,3.2-0.9
			s-2.4,0.5-2.8,0.3c-0.4-0.2-0.2-0.4,0.7-0.7c0.8-0.3,2.7-0.8,2.8-2c-1.5,0.8-4.2,1.7-4.7,1.2c-0.5-0.4-0.7-2.8-0.3-3.1
			C59.1,23,57.2,24.3,57.2,24.3z"/>
		<path class="st107" d="M51.2,32.9c0,0,3,2.5,4.4,2.3c1.4-0.2,2.2-1,3-1.6c0.7-0.6,2-1.4,2-1.4s-0.8-0.7-1.9-0.6
			c-1.1,0.1-2.2-0.3-2.2-0.3S55.5,32,54.4,32C53.3,32,51.2,32.9,51.2,32.9z"/>
		<path class="st107" d="M49.5,31.4c0,0,0.6-1.2,1.2-1.8c-1.2-0.3-2.3,1.1-2.3,1.7C49,30.9,49.5,31.4,49.5,31.4z"/>
		<path class="st5" d="M37.2,30.1c0,0-0.5,4.7,2.4,3.2c-0.3-1.4,0.2-3.6,0.2-3.3C39.8,30.3,37.6,30.1,37.2,30.1z"/>
		<path class="st107" d="M39.4,38.6c0-1.2-1.6-1.6-3.1-2.5c-1.5-0.9-2.3-5.1-2.3-5.3c-0.3-0.8-1.3,0.3-1.7,1.2
			c-0.3,0.8,0.2,1.9,1,3.6c0.8,1.7,2.5,2.9,3.5,2.9c1,0,1.1,0.8,1.1,0.8s-1.7,0-2.6-0.1c-0.9-0.1-1.9,0.1-2.4,0.8
			c-2.3,0.3-1.3,2.1-1.1,2.2c0.3,0.1,0.9-1,0.9-1s-0.1,1.3-0.5,2.5c-0.4,1.2,1.3,1.6,1.7,1.2c0.2-0.2,0.6-0.6,0.9-1
			c0.4-0.7,0.7-1.2,0.7-1.2s0,0.1,0,0.3l0,0l0,0c0,1.2,0.3,5.2,3.6,4.5c-0.6,1.2-2.8,2.2-4.8-1.8c-0.1,0.1-0.2,0.3-0.3,0.3
			c-2.2,1.2-2.7-2.8-2.7-2.8s0,0-0.5,0.5c-0.4,2.3,1.3,3.8,3.2,4c0.1,2,1.9,3.2,3.9,3.3c1.2,0,2.7-3,3.2-4.4
			C39.9,45.7,39.4,39.8,39.4,38.6z"/>
		<path class="st5" d="M38.2,52c-0.1-0.2,3.2-2.5,3.9-5.3c1.7,1.6,3.5,3.5,3.5,4s-0.7,4.3-2.7,5.7c-0.6,0.3-1.9-0.2-2.5-0.9
			C39.8,54.7,38.4,53.1,38.2,52z"/>
		<path class="st5" d="M46.6,51.3c0,0-1.2,4.5-1.9,5.2c0.5,0.9,0.9,1.2,0.9,1.2s4.2-4.1,4.7-5.9C48.6,51.4,46.3,51.3,46.6,51.3z"/>
		<path class="st109" d="M52.7,50.8c0,0-6.7,7.7-10.4,10.6c-3.7,2.8-4.2,5.7-4.3,6.2c1.8,0.8,5.2,6.6,6,8.7c0.8,2.1,1.3,3.8,1.4,3.6
			c0.1-0.2,2.2-2.3,2.2-2.3l3.7,3c0,0,5.4-3,8.2-4.3c2.7-1.3,10.7-3.3,12.6-3.1c0.4-1.1-1.1-2.7-1.5-3.7c-0.4-1-2.6-6.9-0.7-11.3
			c-1.2-0.1-4.5-1.3-4.2-5c0.3-3.7,3.4-12.6,5.7-15.8c-0.7-0.4-2.9-1.4-2.9-1.4l-1.2,2c0,0,1.4-0.3,1.2,0.9
			c-0.2,1.2-1.3,4.9-1.6,5.9c-0.3,1-0.7,2-1.3,2c-0.7,0-2.2-0.3-2.2-0.3s-5.7,6.8-8.1,8.7c-0.7,1.4-2.1,6.4-3.7,9.2
			c-1.6,2.7-4.6,8.9-4.1,12.6c-0.5-1.9-0.3-6.2,1.4-9.3c1.7-3.2,5.6-10.6,5.3-12.3C53.8,53.3,52.7,50.8,52.7,50.8z"/>
		<path class="st5" d="M59.3,43.9c-0.3,0-2,0.5-2.7,0.3c-1.2,1.9-2.7,4.6-2.9,5.1s1.2,4.4,1.2,4.4s3.2-3.2,4-4
			c0.8-0.8,3.7-3.7,3.7-3.7s-0.2-1.1-1.2-1.2C60.2,44.8,59.3,43.9,59.3,43.9z"/>
		<path class="st109" d="M49,38.9c0,0-0.2,4.2-0.1,5.5c0.1,1.2,0,1.7,1.3,1c1.3-0.7,4.9-2.3,5.2-2.3s0.8-0.6,0.7-0.9
			c-0.1-0.3-0.1-0.3-0.1-0.3s-1.8-1.7-2-2c-0.2-0.3-2.7-1.3-3.3-1.3S49.2,38.4,49,38.9z"/>
		<path class="st109" d="M56.8,41.7c0,0-0.2,1.1-0.1,1.5s1.2,0.3,1.5,0.2c0.3-0.1,0.1-1.2,0.7-1.9C58,41.8,56.8,41.7,56.8,41.7z"/>
		<path class="st109" d="M59.6,43.3c0,0,2.7,0.8,3.3,1.6c0.6,0.8,0.6,0.8,0.6,0.8s1.2,0.7,2.2-0.9c1-1.6,1.7-5.6,1.7-5.6
			s-0.6-0.8-1.8-0.8c-1.2,0.1-2.7,0.4-3.5,1.1c-0.8,0.7-2,1.3-2,1.3S59.1,42.4,59.6,43.3z"/>
		<path class="st5" d="M46.8,81.2c0,0,3.9,4.7,12.9,3.9c0,0.7-1.9,1-4.1,1.2c0.4,2.8-0.3,6.1-0.3,6.7c0,0.7,0.3,2.2,0.7,2.7
			c-0.9,0.3-0.9,0.7-1.6-0.3c-0.7-1-1.1-3.4-1.5-3.3c-0.4,0.1-1.5,1.2-1.5,1.2s0.8-0.1,0.8,0.5c0,0.6-0.1,5.7-0.1,5.7
			s-2.6,0.4-4.7-1.2c-2.2-1.6-5.4-1.5-5.4-1.5l0.4-3.2c0,0,1,0.9,3.1,0.3c2.1-0.6,3.2-0.6,5-1c1.2-1.7,1.7-2.4,2.2-1.9
			c0.6,0.5,1.5,1.4,1.5,1.4s0.8-5.4-0.9-6.4C50.2,85.3,47.1,83.3,46.8,81.2z"/>
		<path class="st5" d="M51.7,100.9c0,0,1-0.4,1.9,0.4c0.8,0.7,3.2,1.5,3.2,1.5l-0.1,6.4c0,0-2.6,1-2.9-0.9
			C53.5,104.4,52.5,101.6,51.7,100.9z"/>
		<path class="st5" d="M38.8,91.3c-0.1,0.3-1.1,4-0.9,5.1c-1.1,0.5-1.5,0.2-1.4-1c0.1-1.2,0.7-4.2,0.7-4.2L38.8,91.3z"/>
		<path class="st109" d="M40.9,98.9c-0.2,0.4,0.1,3.6,0.5,3.5c0.4-0.1,5.4,0.3,5.4,0.3s-0.5-3.2-0.6-3.6
			C46.2,98.6,41.7,97.6,40.9,98.9z"/>
		<path class="st5" d="M42.4,99.9c0,0-0.5,0.8,0.3,0.9c1.9,0.2,3,0.2,3,0.2l-0.3-0.8L42.4,99.9z"/>
		<path class="st5" d="M40.7,103.3c-0.1,0.2-0.7,6.5,0.3,8.9c-1.2,0.2-1.2,0.2-1.3-0.2c-0.2-0.3,0.1-2.4-0.2-2.5
			c-0.3-0.1-0.5-0.8-0.5-1.1s1.1-5,1.1-5L40.7,103.3z"/>
		<path class="st5" d="M38.5,116.1c0.3,0,2.4,4.5,8.2,4C47,121,47,121,47,121s-5.3,1.8-8.7-3.8C38.1,116.8,38.5,116.1,38.5,116.1z"
			/>
		<path class="st5" d="M55.7,116.3c0.4,0,2.9-0.6,3.9-1.6c1-1,1.6-1.7,0.3-1.4c-1.2,0.3-3.8,1.3-3.8,1.3L55.7,116.3z"/>
		<path class="st109" d="M47.4,110.4c-0.2,0.5,1.7,1.8,2.7,1.9c1,0.1,2,0.2,1.6-0.2c-0.4-0.3-2.5-2-2.7-2.2
			C48.6,109.6,47.4,110.2,47.4,110.4z"/>
		<path class="st109" d="M51.3,108.9c-0.4,0.2,1.7,1.4,1.6,2.2c-0.1,0.8,1.7-0.3,1-1.1C53.2,109.3,52.5,108.4,51.3,108.9z"/>
		<path class="st5" d="M50.1,110.2c0,0,0.7,1,1.2,0.7C51.9,110.5,51.4,109.6,50.1,110.2z"/>
		<path class="st107" d="M81.1,76.1c0,0,2.3-1.1,3.5-1.7c0.8,0.2,0.8,0.2,0.8,0.2s-1.7,2-1.4,1.9c0.3-0.1,2-1.8,3.1-1.6
			c1.1,0.2,2,1.8,2,4.4c0,2.6-0.5,5.3-0.8,5.7c-0.3,0.3-1,0.4-1.2,0.3s-0.5-3-0.5-4.2c0-1.2-0.1-2.2-1.5-1.5
			c-1.4,0.7-2.2,1.7-2.3,2.7c-0.2,1,0.2,5.5,0.2,5.5s-0.7,0.3-1.1,0.2S81.3,86,81,85.4c-0.2-0.7-1.7-2.2-1.3-3.8
			c0.3-1.7,0.2-2.3,1.1-2.8S82,77,82,77L81.1,76.1z"/>
		<path class="st107" d="M89.5,75.7c0,0,1.3,4.7,0,8.3c0.7-0.1,1.4-1.8,1.9-2.8c0.5-1,0.8-3.2,0.8-4.1C92.2,76.2,91.7,75,89.5,75.7z
			"/>
		<path class="st107" d="M93,77.9c-0.3,0-1.3,4.9-2.5,6.7c0.6,0.2,1.2-0.2,1.9-1.1c0.8-0.9,1.2-2.4,1.4-3.4
			C94,79.1,93.6,77.8,93,77.9z"/>
		<path class="st110" d="M85,80.5c0,0-1.8,1-1.7,3.9c0.1,1.9,0.4,3.2-0.1,3.7c-0.5,0.4-1.2,2.8-0.6,3.5c0.6,0.7,2.3,3,2,5.7
			c-0.3,2.7-1.2,6.2-0.3,7.4c0.9,1.2,1.7,2.7,2,5.2c0.3,2.6,1.5,7.7,1.5,7.7s0.3-6.9,0.3-9.1c0-2.2-0.4-2.7-1-4.4
			c-0.6-1.7-0.6-3.7,0.2-4.6c0.7-0.8,1.6-1.7,0.4-4.2c-1.2-2.4-2-5.1-1.8-6c0.2-0.9,1.2-2.9,1.2-2.9s-0.7-0.7-1.1-2.3
			C85.5,82.5,85.9,80,85,80.5z"/>
		<path class="st5" d="M71.8,38.4c0,0-4.4,7.2-4.8,13.2c-0.2,3,0.4,5.8,2.6,5.4c1.1-1.6,2.4-3.7,2.6-4.5c0.2-0.8,0.7-1.5,0.7-1.5
			s0.9,1.1,1.3,2.6c0.4,1.5,0.7,3.3,0.1,4.4s-1.2,3.2,0.2,5c1.3,1.8,3,5.3,3,5.3l4.7-2.2c0,0-1.3-4.7-1.3-6.7c0-1.9-1.4-2.4-1.4-3.5
			c0-1.1,0.3-3.9,0.4-4.8c0.1-0.9-0.1-6.3-1.4-9c-1.3-2.7-1.6-3-3.2-2.6c-1.6,0.4-2.5,0.6-2.6,0.1C72.5,39.3,71.8,38.4,71.8,38.4z"
			/>
		<path class="st5" d="M77.5,69.5l5.3-2.3c0,0,1.4,4.2,1.8,6.1c-1.5,1.4-3.2,2.4-3.8,2.2C80.1,75.3,77.5,75.5,77.5,69.5z"/>
		<path class="st111" d="M64.6,74.2c0,0,0.8-2.5-0.4-2.3c-1.2,0.2-1,1.8-1.7,1.7c-0.7-0.1-2.2-0.5-2.2-0.9c0-0.4,0.5-2.2,0.2-2.3
			c-0.3-0.1-0.2-1.7-0.2-1.7s4.7,1.7,3.7,0.6c-0.9-1.1-2.7-2.2-2.2-2.5c0.5-0.3,1.6,0.1,2.8-0.4c1.2-0.5,3.6-1.1,3.2-0.5
			c-0.3,0.6-2.4,3.7-1.6,3.2c0.8-0.5,2.3-1.8,2.3-1.8s-0.4,1.2,0.2,2.2c0.6,1,1.2,3.2,0,2.8c-1.2-0.4-2.4-1.7-2.5-0.8
			c-0.1,0.9,0.1,2.2,0.1,2.2l0.4,0.3L64.6,74.2z"/>
		<path class="st111" d="M54.5,77.9c0,0-1-1.7-0.4-1.9c0.6-0.2,2.5,0.3,3-0.2c0.5-0.5-0.8-1.3-0.5-3.1c0.3-1.7,1.2-3.4-0.2-2.4
			c-1.3,1-2,1.2-1.7-0.1c0.3-1.3-3.4,0.1-4.1-0.1C50,70,49,70.5,49.5,71.5c0.5,1,1.2,1.5-0.3,1.5c-1.5,0-2,1.4-1.3,1.9
			c0.7,0.5,0.7,0.2,0.8,1.3c0.2,1.2,0.7,1.7,1.4,0.7c0.8-1,2-0.8,2-0.8l0.5,2.4L54.5,77.9z"/>
		<path class="st111" d="M56,68.5c0.2-0.2,1.6-1.5,0.9-1.8s-0.6-0.6-1.3,0.3c-0.7,0.9-1.7,1.2-2.1,1c-0.3-0.3-0.2-0.9-0.3-2.2
			c-0.1-1.3-2.2-2.5-0.7-2.7c1.6-0.2,3.2,0.2,2.7-0.6c-0.6-0.7-2.1-2.2-1-2.3c1.1-0.1,2.2-0.1,3.2-0.3s2.3-0.3,2.1,0.8
			c-0.3,1.2,0.9,0.8,1.4,0.5c0.5-0.3,0,0.9,0.5,2.2c0.5,1.3,0.5,3.1-0.9,2.7c-1.4-0.3-1.7-0.7-2,0.3c-0.3,0.9-1.4,2.7-1.4,2.7
			L56,68.5z"/>
		<path class="st111" d="M41.7,71.8c0,0,0.7-0.4,1.3,0.2c0.7,0.6,2.2,0.5,2.1-1.4c-0.1-1.9-0.3-3.9-1.1-3.3
			c-0.7,0.6-2.3,1.2-1.9,0.2c0.4-0.9,0.5-2-0.3-1.9C41,65.7,39,65.4,39,65.4l-1.1,2.2C37.9,67.6,41.3,70.9,41.7,71.8z"/>
		<path class="st111" d="M42.7,61.1c0.4,0.1,2.2-1,2,1c-0.3,2,0.1,2.6,0.1,2.6s0.9,0.3,0.9,0s0.3-3.1,0.8-3.1c0.4,0,1,0.6,1.2,1.3
			c0.3,0.7,1.5,0.6,1.9-0.8c0.4-1.3,2.6-2.8,1.8-3c-0.8-0.2-2.2-0.6-1.7-1.1c0.4-0.5,2.2-1.5,1.4-1.7c-0.8-0.3-2.5-0.8-2.5-0.8
			L42.7,61.1z"/>
		<path class="st111" d="M55.4,54.7c0,0,1.2-0.2,0.7,1.1c-0.4,1.2,0,2.1,0.7,1.8c0.7-0.3,1.2-1.6,1.2-1.6s1.5,0.7,2.3,0.7
			c0.8-0.1,0.1-1.7,0.9-2.8c0.8-1.1,2.9-2.7,1.2-2.4c-1.7,0.3-2.3,0.2-1.4-0.6c0.9-0.8,0.4-2.6,0.4-2.6L55.4,54.7z"/>
		<path class="st111" d="M62.6,56c0.3,0.5,1.9,1.9,0.3,2.7c-1.6,0.8-0.4,1.4,0.3,1.7c0.7,0.3-0.2,3,0.4,2.8c0.6-0.2,1-1.7,1.9-2
			c0.9-0.3,2-0.7,1.4,0.3c-0.6,1-1.9,2.2-0.8,2.1c1.2-0.2,1.3-3.1,2.1-3.2c0.7-0.1,0.7-0.1,0.7-0.1l0.8-2.4c0,0-2.5,0.2-3.7-2.6
			C64.6,56.7,62.4,55.7,62.6,56z"/>
		<path class="st111" d="M51.5,44.7c0,0,0.2-1.4-0.6-1.4c-0.8,0.1-1.4,0.2-1.4-0.2c0-0.4,0-0.8-0.1-1.1c-0.1-0.3,0.6-0.7,0.9-0.6
			c0.4,0.1,0.6-0.4,0.2-0.8c-0.4-0.4,0.3-0.5,0.7-0.7c0.4-0.1,1.4-0.9,1.3-0.3c-0.1,0.6-0.3,1.9,0.2,1.5c0.6-0.3,1.3-0.7,1.4,0
			c0.2,0.7-0.8,1-1.3,1.1c-0.4,0.1-1,0.4-0.7,0.8c0.3,0.5,0.6,0.8,0.6,0.8L51.5,44.7z"/>
		<path class="st111" d="M62,44c0,0,0.8-1.2-0.2-1.2c-1,0-1.2-0.2-1-0.9c0.1-0.7,0-1.4,0.7-1c0.7,0.4,1.3,0.6,1.1-0.2
			c-0.2-0.7-0.3-1.4,0.7-1.4c1,0,1.4,1,1.2,1.4c-0.2,0.4-0.4,0.8,0.2,0.7c0.7-0.1,1.2-0.1,1,0.6c-0.2,0.7-1,2.2-1.4,1.5
			c-0.4-0.7-0.9-0.8-1-0.3c-0.1,0.5-0.5,1.4-0.5,1.4L62,44z"/>
		<path class="st111" d="M48.4,18.6c0,0,1.7-0.9,1.4,0.3c-0.3,1.2-0.7,1.7-0.7,1.7l0.9,2.8c0,0,0.7-2.4,1.6-2.5
			c0.8-0.1,0.8-0.1,0.8-0.1s0.3-1.4,0.8-1.7c0.6-0.2,1.4,0,1.1-1.2c-0.3-1.2-0.5-1.6-1.1-1.4c-0.6,0.2-0.7,2-1.1,1.3
			c-0.4-0.7-0.5-1.5-0.5-1.5S49.1,18.1,48.4,18.6z"/>
		<path class="st111" d="M55.1,13c-0.3,0.5,1.6,1.4,0.6,1.5c-1,0.1-0.4,1.6-0.1,1.8c0.3,0.3,0.5,1.2,1.1,0.4
			c0.6-0.8,1.4-0.8,1.5-0.4c0.1,0.4-0.1,0.5,0.6,0.3c0.7-0.3,0.6-1.7,0.6-1.7s1.6,1.1,1.6-0.8c0-1.9-0.6-1.8-1.5-1.8
			c-0.9,0-0.8-1.5-0.8-1.5S55.4,12.5,55.1,13z"/>
		<path class="st111" d="M63.7,8.9c0,0,0,1.9-0.7,2c-0.7,0.1-0.7,0.8-0.7,1.6c-0.1,0.8,0.5,1.6,1,1c0.5-0.6,0.5-1.5,1-0.9
			c0.5,0.6,1,1.1,1,1.1l0.4,0.4c0,0-0.7-4.3-1.2-5C64.6,9,63.7,8.9,63.7,8.9z"/>
		<path class="st105" d="M67.6,29.9c0.2-0.3,0.7-2.3,1.7-2.9c0.9-0.6,1.3-0.2,0.6,0.6c-0.8,0.7-1.6,2.7-1.6,2.7L67.6,29.9z"/>
		<path class="st105" d="M55.7,23.2c0.2,0.1,0.7,1.1,1.5,1.1c0.9,0,1-0.5,1.6-1c0.6-0.5,3.4-1.3,3.8,0.4c0.6-0.5,0.6-0.5,0.6-0.5
			s-1.5-2.4-3.6-2.2C57.5,21.2,55.7,23.2,55.7,23.2z"/>
		<g>
			<g>
				<path class="st5" d="M26.6,86l-6.3,4.4l-2.1-2.9c-0.5-0.6-0.7-1.2-0.6-1.8c0-0.5,0.3-1,0.8-1.3c0.3-0.2,0.6-0.3,0.9-0.4
					c0.3,0,0.6,0,0.9,0.2c-0.1-0.4-0.1-0.8,0.1-1.1c0.1-0.3,0.4-0.6,0.7-0.9c0.6-0.4,1.2-0.6,1.8-0.4c0.6,0.2,1.2,0.6,1.7,1.3
					L26.6,86z M21.8,87.5l-1-1.5c-0.2-0.3-0.4-0.5-0.7-0.6c-0.2-0.1-0.4,0-0.7,0.1c-0.2,0.2-0.3,0.4-0.3,0.6c0,0.2,0.1,0.5,0.3,0.8
					l1,1.5L21.8,87.5z M24.6,85.6L23.5,84c-0.3-0.4-0.5-0.6-0.8-0.6c-0.2-0.1-0.5,0-0.8,0.2c-0.3,0.2-0.4,0.4-0.5,0.7
					c0,0.3,0.1,0.6,0.4,0.9l1.1,1.5L24.6,85.6z"/>
				<path class="st5" d="M18.6,80.9c-1.1,0.5-2.2,0.6-3.1,0.2c-0.9-0.3-1.6-1-2.1-2.1c-0.4-1.1-0.5-2-0.1-2.9
					c0.4-0.9,1.2-1.6,2.3-2.1c1.1-0.5,2.2-0.6,3.1-0.2c0.9,0.3,1.6,1,2.1,2.1c0.4,1.1,0.5,2,0.1,2.9C20.5,79.7,19.7,80.4,18.6,80.9z
					 M17.9,79.4c0.8-0.3,1.3-0.8,1.6-1.3c0.3-0.5,0.3-1.1,0-1.7c-0.3-0.6-0.7-1-1.3-1.2c-0.6-0.2-1.3-0.1-2,0.3
					c-0.8,0.3-1.3,0.8-1.6,1.3c-0.3,0.5-0.3,1.1,0,1.7c0.3,0.6,0.7,1,1.3,1.2C16.5,79.9,17.1,79.8,17.9,79.4z"/>
				<path class="st5" d="M16.4,71.5l-0.3-1.5c0.4-0.1,0.7-0.4,0.8-0.7c0.1-0.3,0.2-0.7,0.1-1.3c-0.1-0.4-0.2-0.8-0.4-1
					c-0.2-0.2-0.5-0.3-0.8-0.2C15.3,66.9,15,67.6,15,69l0,0c0,0,0,0.1,0,0.2c0,0.7-0.1,1.3-0.2,1.6c-0.1,0.3-0.3,0.5-0.6,0.7
					c-0.3,0.2-0.6,0.3-1,0.4c-0.7,0.1-1.3,0-1.8-0.4c-0.5-0.4-0.8-1.1-1-2c-0.2-0.9-0.1-1.6,0.2-2.2c0.3-0.6,0.8-1,1.6-1.1l0.3,1.5
					c-0.4,0.1-0.6,0.3-0.7,0.6c-0.1,0.3-0.2,0.7-0.1,1.1c0.1,0.4,0.2,0.7,0.4,0.9c0.2,0.2,0.5,0.3,0.7,0.2c0.4-0.1,0.6-0.6,0.6-1.5
					c0-0.2,0-0.4,0-0.6c0-0.6,0.1-1,0.1-1.2c0-0.2,0.1-0.5,0.1-0.7c0.1-0.3,0.3-0.6,0.5-0.8c0.3-0.2,0.6-0.4,1-0.4
					c0.8-0.2,1.4,0,2,0.4c0.5,0.4,0.9,1.1,1.1,2.1c0.2,0.9,0.1,1.7-0.2,2.4C17.8,70.8,17.2,71.3,16.4,71.5z"/>
				<path class="st5" d="M17.3,61.3L11,61.5l0.1,2.3l-1.4,0l-0.1-6.1l1.4,0l0.1,2.3l6.3-0.2L17.3,61.3z"/>
				<path class="st5" d="M13.4,55.5c-1.2-0.2-2.1-0.7-2.7-1.5c-0.6-0.8-0.8-1.7-0.6-2.9c0.2-1.1,0.7-2,1.5-2.5
					c0.8-0.5,1.9-0.7,3.1-0.5c1.2,0.2,2.1,0.7,2.7,1.5c0.6,0.8,0.8,1.8,0.6,2.9c-0.2,1.1-0.7,2-1.5,2.5
					C15.7,55.6,14.7,55.8,13.4,55.5z M13.7,54c0.8,0.1,1.5,0.1,2-0.2c0.5-0.3,0.8-0.8,1-1.4c0.1-0.7,0-1.2-0.4-1.7
					c-0.4-0.5-1-0.7-1.8-0.9c-0.8-0.1-1.5-0.1-2,0.2c-0.5,0.3-0.8,0.8-1,1.4c-0.1,0.7,0,1.2,0.4,1.7C12.3,53.5,12.9,53.8,13.7,54z"
					/>
				<path class="st5" d="M19.1,47L12,44.1l0.6-1.5l6-0.9l-4.9-2l0.6-1.4l7.1,2.9l-0.6,1.5l-6.1,0.9l4.9,2L19.1,47z"/>
				<path class="st5" d="M87.4,25.4c-0.5,0.7-1.2,1-2,1.1c-0.8,0.1-1.6-0.2-2.4-0.8c-0.9-0.7-1.4-1.5-1.5-2.4
					c-0.1-0.9,0.2-1.9,0.9-3c0.8-1.1,1.6-1.7,2.5-1.9c0.9-0.2,1.9,0.1,2.9,0.7c0.8,0.6,1.3,1.2,1.5,1.9c0.2,0.7,0.1,1.4-0.4,2.2
					l-1.3-0.9c0.2-0.4,0.2-0.8,0.1-1.1c-0.1-0.4-0.4-0.7-0.8-1c-0.6-0.4-1.1-0.5-1.7-0.4c-0.6,0.2-1.1,0.6-1.6,1.3
					c-0.5,0.7-0.7,1.3-0.7,1.9c0,0.6,0.3,1.1,0.9,1.4c0.4,0.3,0.8,0.4,1.2,0.4c0.4,0,0.8-0.2,1.1-0.5L87.4,25.4z"/>
				<path class="st5" d="M87.3,28.9l5.5-5.3l3.8,4l-1,0.9l-2.8-2.9l-1.2,1.1l2.5,2.7l-0.9,0.9l-2.5-2.7L89.4,29l2.9,3l-1,1
					L87.3,28.9z"/>
				<path class="st5" d="M92.4,34.6l6.4-4.2l0.9,1.3l-5.2,3.5l2.1,3.1L95.4,39L92.4,34.6z"/>
				<path class="st5" d="M96.4,41.2l5.7-2.7l-1-2.1l1.2-0.6l2.6,5.5l-1.2,0.6l-1-2l-5.7,2.7L96.4,41.2z"/>
				<path class="st5" d="M98.5,46.4l7.3-2.3l0.5,1.5L99,47.9L98.5,46.4z"/>
				<path class="st5" d="M103.3,56.4c-0.9,0.1-1.6-0.2-2.2-0.7c-0.6-0.5-1-1.3-1.1-2.3c-0.2-1.1,0-2,0.7-2.8
					c0.6-0.7,1.5-1.2,2.8-1.4c1.3-0.2,2.3,0,3.1,0.5c0.8,0.5,1.3,1.4,1.4,2.6c0.1,1,0,1.8-0.4,2.4c-0.4,0.6-1,1-1.9,1.2l-0.2-1.5
					c0.4-0.1,0.7-0.4,0.9-0.7c0.2-0.3,0.2-0.7,0.2-1.2c-0.1-0.7-0.4-1.2-0.9-1.5c-0.5-0.3-1.2-0.4-2-0.2c-0.8,0.1-1.4,0.4-1.8,0.8
					c-0.4,0.4-0.5,1-0.4,1.6c0.1,0.5,0.3,0.8,0.5,1.1c0.3,0.3,0.7,0.4,1.1,0.4L103.3,56.4z"/>
				<path class="st5" d="M103.1,58.7l-0.1,1.6c-0.4,0-0.7,0.2-1,0.5c-0.2,0.3-0.3,0.7-0.4,1.2c0,0.5,0,0.8,0.2,1
					c0.2,0.2,0.4,0.4,0.7,0.4c0.5,0,0.9-0.6,1.3-1.9l0,0c0,0,0-0.1,0-0.2c0.2-0.7,0.4-1.2,0.6-1.5c0.2-0.3,0.4-0.5,0.7-0.6
					c0.3-0.1,0.6-0.2,1-0.2c0.7,0,1.3,0.3,1.7,0.8c0.4,0.5,0.5,1.3,0.5,2.2c0,0.9-0.3,1.6-0.7,2.1c-0.4,0.5-1.1,0.7-1.8,0.7l0.1-1.5
					c0.4,0,0.7-0.1,0.9-0.4c0.2-0.2,0.3-0.6,0.3-1.1c0-0.4,0-0.7-0.2-1c-0.2-0.2-0.4-0.4-0.7-0.4c-0.4,0-0.7,0.4-1,1.3
					c-0.1,0.2-0.1,0.4-0.2,0.5c-0.2,0.6-0.3,0.9-0.4,1.2c-0.1,0.2-0.2,0.4-0.3,0.6c-0.2,0.3-0.4,0.5-0.7,0.7c-0.3,0.1-0.6,0.2-1,0.2
					c-0.8,0-1.4-0.3-1.8-0.9c-0.4-0.6-0.6-1.3-0.5-2.3c0-1,0.3-1.7,0.8-2.2C101.7,59,102.3,58.7,103.1,58.7z"/>
			</g>
		</g>
	</g>
</g>
</svg>
