<?xml version="1.0" encoding="utf-8"?>
<!-- Generator: Adobe Illustrator 23.0.1, SVG Export Plug-In . SVG Version: 6.00 Build 0)  -->
<svg version="1.1" id="Capa_1" xmlns="http://www.w3.org/2000/svg" xmlns:xlink="http://www.w3.org/1999/xlink" x="0px" y="0px"
	 viewBox="0 0 164.2 108.7" style="enable-background:new 0 0 164.2 108.7;" xml:space="preserve">
<style type="text/css">
	.st0{fill:#175384;}
	.st1{fill:#A0A5AA;}
	.st2{fill:#0B040C;}
	.st3{fill:#FFC727;}
	.st4{fill:#F0545B;}
	.st5{fill:#FFFFFF;}
	.st6{fill:#00A855;}
	.st7{fill:#B4C4C9;}
	.st8{fill:#221A21;}
	.st9{fill:#EF3A47;}
	.st10{fill:url(#SVGID_1_);}
	.st11{fill:url(#SVGID_2_);}
	.st12{fill:url(#SVGID_3_);}
	.st13{fill:url(#SVGID_4_);}
	.st14{fill:url(#SVGID_5_);}
	.st15{fill:url(#SVGID_6_);}
	.st16{fill:url(#SVGID_7_);}
	.st17{fill:url(#SVGID_8_);}
	.st18{fill:url(#SVGID_9_);}
	.st19{fill:url(#SVGID_10_);}
	.st20{fill:url(#SVGID_11_);}
	.st21{fill:url(#SVGID_12_);}
	.st22{fill:#313564;}
	.st23{fill:#F04B41;stroke:#FFFFFF;stroke-width:2.1543;stroke-linecap:round;stroke-linejoin:round;stroke-miterlimit:10;}
	.st24{fill:#007FBA;stroke:#FFFFFF;stroke-width:2.1543;stroke-linecap:round;stroke-linejoin:round;stroke-miterlimit:10;}
	.st25{fill:#313564;stroke:#FFFFFF;stroke-width:2.1543;stroke-linecap:round;stroke-linejoin:round;stroke-miterlimit:10;}
	.st26{fill:#FFFFFF;stroke:#FFFFFF;stroke-width:2.1543;stroke-linecap:round;stroke-linejoin:round;stroke-miterlimit:10;}
	.st27{clip-path:url(#SVGID_14_);}
	.st28{fill:#FBAC36;stroke:#FFFFFF;stroke-width:2.1543;stroke-linecap:round;stroke-linejoin:round;stroke-miterlimit:10;}
	.st29{fill:#F04B41;}
	.st30{fill:#007FBA;}
	.st31{clip-path:url(#SVGID_16_);}
	.st32{fill:#FBAC36;}
	.st33{fill:#2C2F61;}
	.st34{fill:#B7B9BA;}
	.st35{fill:#EF3748;}
	.st36{fill:#8999AC;}
	.st37{fill:#2B2F61;}
	.st38{fill:#EE2C45;}
	.st39{fill:#101624;}
	.st40{fill:#59707A;}
	.st41{fill:#4A3285;}
	.st42{fill:#F79230;}
	.st43{fill:#F15733;}
	.st44{fill:#D7303F;}
	.st45{fill:#FAA832;}
	.st46{fill:#1F1721;}
	.st47{fill:#5F3188;}
	.st48{fill:#EE243D;}
	.st49{fill:#1F4BA0;}
	.st50{fill:#244789;}
	.st51{fill:#FBAE2E;}
	.st52{fill:#006991;}
	.st53{fill:#F9A01B;stroke:#FFFFFF;stroke-width:0.4473;stroke-miterlimit:10;}
	.st54{fill:#FAA533;}
	.st55{fill:#0092BC;}
	.st56{fill:#15182C;}
	.st57{fill:#3E419A;}
	.st58{fill:#101721;}
	.st59{fill:#ADA3A5;}
	.st60{fill:#9CA7AC;}
	.st61{clip-path:url(#SVGID_18_);}
	.st62{clip-path:url(#SVGID_20_);}
	.st63{fill:#F3FAF7;}
	.st64{fill:#2D2F63;}
	.st65{fill:#FAA819;}
	.st66{fill:#FEF6FA;}
	.st67{fill:#004F30;}
	.st68{fill:#A2C7D3;}
	.st69{fill:#EE2E55;}
	.st70{fill:#32366E;}
	.st71{fill:#00ADDC;}
	.st72{fill:#FFFFFF;stroke:#00ACD0;stroke-width:0.2915;stroke-miterlimit:10;}
	.st73{fill:#FFFFFF;stroke:#00ACD0;stroke-width:0.2973;stroke-miterlimit:10;}
	.st74{fill:#450000;}
	.st75{fill:#EE224A;}
	.st76{fill:#0064A5;}
	.st77{fill:#F47736;}
	.st78{fill:#B5BCBF;}
	.st79{fill:#F47B35;}
	.st80{fill:#EE2B52;}
	.st81{fill:#0C060E;}
	.st82{fill:#B58D49;}
	.st83{fill:#C9BBCB;}
	.st84{fill:#BA924C;}
	.st85{fill:#006BAF;}
	.st86{fill:#B3C5CB;}
	.st87{fill:#898C89;}
	.st88{fill:#2E2C61;}
	.st89{fill:#C3C5BD;}
	.st90{fill:#C4D2D9;}
	.st91{fill:#EE284D;}
	.st92{fill:#161212;}
	.st93{fill:#EE274E;}
	.st94{fill:#A2A7AA;}
	.st95{fill:#A6AAAC;}
	.st96{fill:#A1A2AB;}
	.st97{fill:#110B13;}
	.st98{fill:#AFC1C6;}
	.st99{fill:#0067AD;}
	.st100{fill:#FBFBFB;}
	.st101{fill:#0065AF;}
	.st102{fill:#121A26;}
	.st103{fill:#008D4C;}
	.st104{fill:#B43A3D;}
	.st105{fill:#111623;}
	.st106{fill:#AB9048;}
	.st107{fill:#F8A174;}
	.st108{fill:#120B19;}
	.st109{fill:#C59751;}
	.st110{fill:#B33638;}
	.st111{fill:#009154;}
	.st112{fill:#1C2026;}
	.st113{fill:#EE2844;}
	.st114{fill:#30385F;}
	.st115{fill:#3A84B1;}
	.st116{fill:#A3C5D7;}
	.st117{fill:#F9A039;}
	.st118{fill:#B0BEC0;}
	.st119{fill:#231D46;}
	.st120{fill:#FDB840;}
	.st121{fill:#CD2C32;}
	.st122{fill:#272049;}
	.st123{fill:#FEC027;}
	.st124{fill:#ADC7C6;}
	.st125{fill:#014429;}
	.st126{fill:#DF2539;}
	.st127{fill:#F57E30;}
	.st128{fill:#ED1942;}
	.st129{fill:#FEF9FB;}
	.st130{fill:#0065AA;}
	.st131{fill:#A6B5B8;}
	.st132{fill:#0B040C;stroke:#0B040C;stroke-width:0.2716;stroke-miterlimit:10;}
	.st133{fill:#F7F9FD;}
	.st134{fill:none;stroke:#EBF2CC;stroke-width:0.2972;stroke-miterlimit:10;}
	.st135{fill:#48484A;}
	.st136{opacity:0.2;}
	.st137{fill:#EE2E3B;}
	.st138{fill:#005BA6;}
	.st139{fill:#737577;}
	.st140{fill:#A1A0A5;}
	.st141{fill:#272360;}
	.st142{fill:#FAFAFB;}
	.st143{fill:#058BA6;}
	.st144{fill:#DEDBE7;}
	.st145{fill:#B2965B;}
	.st146{fill:#1B305B;}
	.st147{fill:#F9F9FA;}
	.st148{fill:#E12039;}
	.st149{fill:#FEF4F4;}
</style>
<g>
	<path class="st119" d="M51.9,45.7c0,0,4.1-10,7.5-14.4c3.4-4.4,12.6-12.1,25.8-13.6c13.2-1.5,32.5,3.9,41.6,17.8
		c2.2,0.5,14.8-2.9,14.8-2.9l-2,7.7l19.6-4.2L152.7,51c0,0,3.8,11.6-5.4,17.6c0.8,2-4.1,5.2-8.2,7c-4.1,1.8-4.2,2.9-4.2,2.9
		l16.5,4.6c0,0,5.7-1.5,6.9-0.7c-1,4.6-5.1,10.1-8,10.1c-0.8-1.6-0.8-1.6-0.8-1.6s-9.1,9.1-19.8,1.5c-0.8,3.4-0.5,4.9-0.5,4.9
		s-10.5-2.6-11.3-7.7c-5.4,4.4-21.7,13.1-35.1,9.5c-8.3-2.1-19.1-10-23-13.6c-3.3,3.6-16,14.5-25.7,14.2c-9.6-0.3-21.4-6.4-7.8-30.7
		c-6.9,0.5-6.9,0.5-6.9,0.5l9.3-9.8c0,0-15.2-5.2-18.3-6.4C7.3,52.3,2.9,49,2.9,49s5.7-2.6,15.2-0.2c9.5,2.5,20.1,5.1,20.1,5.1
		l13.4-6.7L51.9,45.7z"/>
	<path class="st120" d="M18.9,51c0,0,3.1,2.5,12.7,5c9.7,2.5,27.4,7.2,27.4,7.2l3.7-0.7L18.9,51z"/>
	<g>
		<path class="st5" d="M53.4,57.7c0,0,4.5-3.2,8.4-4.2c3.9-1,10.7-2.2,5.8,7.7c4-2.5,14.4-8.4,14.4-8.4s-5.3-6.6-23.5-3.2
			C49.1,51.8,43,55.2,43,55.2L53.4,57.7z"/>
		<g>
			<path class="st5" d="M34.5,60.2l-7.3,5.5l8.9-1.9c0,0-13.3,12.5-11.6,24.5c1.7,11.2,16.6,10.8,29.9-3.4c-3.7,2-20.1,7.8-21.8,1.5
				c-1.7-6.4,8.9-19.6,13.3-22.7C43.4,62.6,34.5,60.2,34.5,60.2z"/>
			<g>
				<path class="st5" d="M46.3,76l-4.8,9.9l4.8-1.1l2.7-6.2l3.3-0.8l-2.3,6.1l4.5-1.4c0,0,4.5-11.5,6.8-17.5
					C50.3,66.9,46.3,76,46.3,76z M53.4,75.2l-2.7,0.5c1.1-3.2,4.8-5.8,4.8-5.8L53.4,75.2z"/>
				<path class="st5" d="M57.9,81.5C57.9,81.5,57.9,81.5,57.9,81.5C57.9,81.5,57.9,81.5,57.9,81.5z"/>
				<path class="st5" d="M71,63c0,0,0.6,0.2,2.2,1.5c-2.3,5.7-9.3,12.9-9.3,12.9l4.9-14.1l-4.1,0.9c0,0-6.1,16.5-6.7,17.2
					c0.5-0.1,3.6-0.9,8.8-2.4c7.7-5.9,11.8-18.2,11.8-18.2L71,63z"/>
				<path class="st5" d="M79.5,64.9c-2.6,3.8-6.5,12.7-6.6,12.7c-0.2,0.1,4.3-0.9,4.3-0.9l2.9-6l3-0.8l-2,5.7l4.4-1.1l6.9-17.1
					C86.8,58,82.2,61,79.5,64.9z M84.5,67.3l-3.4,0.9c0,0,2.5-4.9,5.4-6.1L84.5,67.3z"/>
				<path class="st5" d="M102,64.9c-3.5,5-8.2,5.3-8.2,5.3l5.5-14.7l-4.6,1.2l-6.6,17.1l11.5-3C99.7,70.8,100.4,69.1,102,64.9z"/>
				<path class="st5" d="M105.7,69.5c0.2,0.1,6.8-17.3,6.8-17.3l-4.1,0.8l-6.8,17.4C101.6,70.4,105.6,69.4,105.7,69.5z"/>
				<path class="st5" d="M118.6,65.9c0,0,1.3-2.4,2.3-5.1c-3.1,3.7-8,4.7-8,4.7l2-5l6-3.1l-4.6,0.3c0,0,0.8-2,2-5.4
					c3.5-1.3,5,1.3,5,1.3l1.7-4.7l-10.3,2.7L108,68.8L118.6,65.9z"/>
				<path class="st5" d="M125.4,64.5c0,0,1.4-3.4,2.7-7.1c3.4,8.3,10.4,4.4,11.8,1.5c-2.9,1.1-6.8,0.3-8-3.3c5.2-2.6,6-10,6-10
					s-10.1,2.8-10.2,2.8l-6.1,17L125.4,64.5z M130.9,49.3c0,0,1.8-0.3,3-0.6c-1,4.2-4.8,6-4.8,6L130.9,49.3z"/>
				<path class="st5" d="M144.4,43.5c-4.8,1.8-6,6.9-3.4,9.4c2.6,2.6,7.2,6.9-1.9,11c-9,4.1-21.5,4.8-32.3,7.1
					c-10.8,2.3-15.7,4.7-18.1,7.5c4.4-2.2,13.7-5.2,34.6-7.3c5.7-2.5,8.1-3.2,8.8-3.2c0.7,0,6.7-0.3,6.7-0.3s9.9-2.9,10.7-9.8
					c0,0,0.7-3.6-2.5-6.6c-2.2-2.2-2.1-2.1-2.4-2.4c-0.3-0.3-1.6-2.3,0.6-3.3c2.2-1,4.6,0.6,5.3,1.6l1.7-4.2
					C152.2,43,149.2,41.7,144.4,43.5z"/>
			</g>
		</g>
	</g>
	<path class="st120" d="M123,76.5c0,0,3.5-5.4,9.2-6.1c3.8-0.3,8.3,1.1,11.4,1.1c0,0-3.2,1.8-5.6,2.6c-2.4,0.8-11.7,4.8-10.7,20.6
		c0,0-5.5-0.1-7.2-9.2c1.1,3.8,4,7.1,5.7,7.5c0,0-0.7-11.3,6.5-17.3c-2.7,1.3-7.4,5.2-8.2,12.5c-1.3-1.6-2.1-4.5-2-5.8
		C123.9,81.4,125.2,79,123,76.5z"/>
	<path class="st5" d="M124.1,78.7c0,0,4-6.4,11.1-7.6c-4.1,0-9.1,1.7-11.8,5.8C123.9,77.6,124.1,78.7,124.1,78.7z"/>
	<path class="st120" d="M131.6,82l19,4.7c0,0,1.1-0.6,0.5-1.8c-1.8-0.3-19-4.9-19-4.9S131,81.5,131.6,82z"/>
	<path class="st120" d="M130.9,85c0,0,7.6,4.9,17.4,3.3c-1.8,2.1-6.5,4.4-11.2,2.9C132.4,89.7,130.8,86.7,130.9,85z"/>
	<path class="st120" d="M129.6,87c0,0,3.4,7.5,13.9,5.9c-1.5,1.1-9.4,2.4-14.2-4C129.3,88,129.6,87,129.6,87z"/>
	<path class="st120" d="M152.6,85.1c0,0-0.6,2.6-1.8,4c1.7-0.5,2-1.6,2.3-2.4c0.3-0.8,1.4-2,3-2.5C154.5,84.4,152.6,85.1,152.6,85.1
		z"/>
	<g>
		<path class="st121" d="M65,84.7c0,0,10.9,13.6,33.4,10.1C92,91.3,88,85,88,85l-6.4,2.2l-0.4-1.1l2.7-7.5L65,84.7z"/>
		<path class="st121" d="M90.4,83.1c0,0,6.2,8.3,10.9,11.2c3.9-1.1,14.8-7.3,16.3-9.4c0.1-2.4,0-2.4,0.1-2.4
			c0.1,0-15.4-4.4-15.4-4.4S92.9,81.2,90.4,83.1z"/>
		<path class="st121" d="M57.3,42.8c0,0,4.5-9.7,9.9-12.8c1.1,2.6,0.7,5.7,0.7,5.7L57.3,42.8z"/>
		<path class="st121" d="M69.1,28.6c0,0,1.7,3.7,1.9,6c2.6-1.4,6-2.3,6-2.3s1.5-7,2.7-9.4C77.2,24.2,72,25.9,69.1,28.6z"/>
		<path class="st121" d="M82.5,22.2c0,0,4.8-1.2,8.7-1.1c-2.6,1.9-5.4,7.5-5.8,9.8c-2.4-0.2-5.7,0.7-5.7,0.7S80.9,25.1,82.5,22.2z"
			/>
		<path class="st121" d="M88.6,30.4c0,0,1.2-6.8,7.9-9.1c5.7,0.6,16.9,4.3,25.1,15.5c-5.5,1.6-5.3,1.6-5.5,1.6
			C116,38.5,105.3,30.2,88.6,30.4z"/>
		<path class="st121" d="M88.2,33.5c0,0,14.3-0.3,23.5,6.1c-9.9,2.1-18.2,4.4-18.2,4.4S88.8,38.3,88.2,33.5z"/>
		<path class="st121" d="M84.8,33.7c0,0.3,2.4,8.8,5.5,11.2c-6.9,1.9-8.2,1.9-8.2,1.9l-3.4-1.1c0,0-0.4-7.9,0.6-10.8
			C83.1,33.9,84.8,33.7,84.8,33.7z"/>
		<path class="st121" d="M76.7,35.5c0,0.3-0.8,9.8-0.8,9.8l-7.7-0.9l2.7-6.7L76.7,35.5z"/>
		<polygon class="st121" points="67.4,39.4 65.8,44.5 58.4,45.1 		"/>
	</g>
	<g>
		<g>
			<path class="st5" d="M87.7,54.6c-0.3,0.2-1,0.2-1,0.2l1.5-4.3c0,0,0.5-0.3,1-0.4c0.5-0.1,0.5,0.1,0.4,0.4l1.5-0.5
				c0,0,0.6-1,0.3-1c-0.3,0-2.4,0.3-3.3,0.8c-0.9,0.5-1.4,0.8-1.8,1.8c-0.4,1-1.5,3.5-1.5,3.5s-0.3,0.5,0.7,0.5c1,0,2-0.3,2.7-0.6
				c0.7-0.3,1.3-0.4,1.3-1.2C89,53.8,88,54,88,54S88.1,54.4,87.7,54.6z"/>
			<path class="st5" d="M94.8,48.2c0,0-1.5,0.5-1.6,0.5l-2.4,5.9l4.1-0.9l0.3-0.8l-2.4,0.6L94.8,48.2z"/>
			<path class="st5" d="M115.9,42.8c0,0-1.5,0.5-1.6,0.5l-2.4,5.9l4.1-0.9l0.3-0.8l-2.4,0.6L115.9,42.8z"/>
			<polygon class="st5" points="96.3,53.2 99.8,52.3 100.2,51.7 98,52 98.9,50 100.8,49.5 101,48.9 99.2,49.4 99.9,47.5 101.8,47.1 
				102,46.5 98.5,47.4 			"/>
			<polygon class="st5" points="110.9,44.8 112.7,44.3 112.9,43.7 109.4,44.6 107.2,50.4 110.7,49.6 111.1,48.9 108.9,49.2 
				109.9,47.2 111.7,46.8 111.9,46.2 110.1,46.6 			"/>
			<polygon class="st5" points="106.5,45.4 104,49.2 103.9,46.1 102.7,46.3 103.4,51.6 108.2,45 			"/>
			<path class="st5" d="M123.2,41.2c-0.9,0-2.3,0.3-3.1,0.8c-0.8,0.5-0.8,1.1-0.8,1.1l-1.9,4.8l1.6-0.5l0.8-2.1l1.2-0.2l-0.5,2
				l1.4-0.5l1.9-4.7C123.7,41.9,124.1,41.2,123.2,41.2z M121.4,44.1l-1.3,0.4l0.8-2.2c0,0,0.4-0.4,1.1-0.2
				C121.7,43.2,121.4,44.1,121.4,44.1z"/>
			<path class="st5" d="M129,39.7c0,0-1,2.1-1,2.3c0-0.2-0.6-1.9-0.6-1.9l-1.4,0.5l-2.3,5.9l1.5-0.4l1.5-4.4l0.5,2.1l-0.7,2l1.6-0.4
				l2.3-5.8L129,39.7z"/>
			<path class="st5" d="M135.3,38.1c-1.4,0.3-2.9,0.6-2.9,0.6l-2.3,5.9c0,0,2.3-0.4,3.9-1.1c0.7-0.4,1.2-0.9,1.4-1.9
				c0.3-1,0.9-3,0.9-3S136.7,37.9,135.3,38.1z M134.7,39.3c0,0-0.7,2-1.2,3.1s-1.7,1.1-1.7,1.1l1.8-4.5
				C135.2,38.6,134.7,39.3,134.7,39.3z"/>
		</g>
	</g>
	<path class="st120" d="M151.8,82.5c0,0-12.3-3.3-15.7-4.2c0-0.3,6-3,7.6-3.9c1.6-0.9,5.3-2.7,4.9-5.8c8.7-6.6,5.1-17.6,5.1-17.6
		l6.5-16.2l-19.6,4.5l2.6-7.7c0,0-16.1,3.9-16.3,4c0,0-11.6-21.3-38.8-19.4C56.8,19,50.3,47,50.3,47c-4.7,1.3-13.1,6.4-13.1,6.4
		s-10.6-2.7-15.9-4c-5.3-1.3-15.4-3-21.1-1.3c5.9,6,21.8,10.1,27.8,11.4c-5.5,4-11.4,11.8-11.4,11.8s4-1,8.2-1.2
		c-10.3,16.1-5.9,31.1,7.9,31.3c14.2,0.2,26.9-14.9,26.9-14.9c0.9,1.8,12.3,12.5,26.5,14c14.2,1.5,28-5.3,32.2-9.3
		c3.1,6.5,11.5,7.2,11.5,7.2s0.5-2,0.2-4.8c10.8,7,19.4-1.5,19.4-1.5s0,0.3,0.2,1.4c6.4,0,9.2-7.5,8.7-11.6
		C155.6,81.4,151.8,82.5,151.8,82.5z M87.8,18.3c25.7-1.8,37,17.8,37,17.8L82.4,46.6c0,0-12-5.8-29.3-0.6C53.1,46,58,21.1,87.8,18.3
		z M58.6,84.4c0,0-12,15.4-27.4,14.6c-15.3-0.8-10.4-22.3-3.2-31c-6.4,0.8-7.7,0.8-7.7,0.8s7.3-7.5,9.7-9c6.1,1.4,21.7,5.7,21.7,5.7
		l1.4-0.8c0,0-30.1-8.1-32.9-8.7c-2.8-0.7-14.1-4-16.7-7.3c0,0,8.3-0.9,20.2,2.2c11.9,3.1,41,10.4,41,10.4l0.3-1L39.2,54
		c0,0,10.7-7,26.8-8.5c0,0,10.6-0.6,16.4,3.1c5.6-1.6,58.5-14.6,58.5-14.6l-2.6,7.6l19.2-4.3L151.9,51c0,0,5,11.1-6.6,17.9
		c-1.7,0.2-5.1-0.8-7.2-1.4c-2-0.6-12.7-1.5-18.7,7.9c-3.4,0.5-16.6,1.1-22.8,3.2c-6.2,2-13.6,6.2-14.9,7.8c0.7-2.5,3.1-7.9,5-9.5
		C83.9,77.8,58.6,84.4,58.6,84.4z M89.1,98.9c-12.4,0.1-25.8-10.1-28-13.5l22-6c0,0-3.5,5.1-3,10.5c3-3.3,15.7-10.3,22.2-10.9
		c6.4,1.5,15,4,15,4s-0.1,4.5,0.4,5.7C113.3,92,104.8,98.9,89.1,98.9z M150.7,91.9c-1-2.2-1-2.2-1-2.2s-5.3,6-11.8,5.3
		c-6.4-0.6-8.8-4.4-8.8-4.4l-0.4,6.1c0,0-10.9,0.5-10.1-14.7c-3.4-1-13.6-3.8-13.6-3.8c0.6,0,8.5-0.9,8.9-0.9c0.4,0,6.9,1.8,6.9,1.8
		s1.2-0.5,1-1.8c-1.3-0.1-1.9-0.2-1.9-0.2s2.7-5.5,9.1-7.4c6.4-1.9,8.1-1.2,10.9-0.4c2.8,0.9,5.6,0.9,7,0.5
		c-0.1,1.7-3.3,3.6-7.5,5.1c-4.3,1.5-6.2,3.9-6.2,3.9l18.5,5.2c0,0,3-1.5,6.1-1.1C156.7,87.9,154.2,91.4,150.7,91.9z"/>
</g>
</svg>
