<?xml version="1.0" encoding="utf-8"?>
<!-- Generator: Adobe Illustrator 23.0.1, SVG Export Plug-In . SVG Version: 6.00 Build 0)  -->
<svg version="1.1" id="Capa_1" xmlns="http://www.w3.org/2000/svg" xmlns:xlink="http://www.w3.org/1999/xlink" x="0px" y="0px"
	 viewBox="0 0 111.6 116.5" style="enable-background:new 0 0 111.6 116.5;" xml:space="preserve">
<style type="text/css">
	.st0{fill:#175384;}
	.st1{fill:#A0A5AA;}
	.st2{fill:#0B040C;}
	.st3{fill:#FFC727;}
	.st4{fill:#F0545B;}
	.st5{fill:#FFFFFF;}
	.st6{fill:#00A855;}
	.st7{fill:#B4C4C9;}
	.st8{fill:#221A21;}
	.st9{fill:#EF3A47;}
	.st10{fill:url(#SVGID_1_);}
	.st11{fill:url(#SVGID_2_);}
	.st12{fill:url(#SVGID_3_);}
	.st13{fill:url(#SVGID_4_);}
	.st14{fill:url(#SVGID_5_);}
	.st15{fill:url(#SVGID_6_);}
	.st16{fill:url(#SVGID_7_);}
	.st17{fill:url(#SVGID_8_);}
	.st18{fill:url(#SVGID_9_);}
	.st19{fill:url(#SVGID_10_);}
	.st20{fill:url(#SVGID_11_);}
	.st21{fill:url(#SVGID_12_);}
	.st22{fill:#313564;}
	.st23{fill:#F04B41;stroke:#FFFFFF;stroke-width:2.1543;stroke-linecap:round;stroke-linejoin:round;stroke-miterlimit:10;}
	.st24{fill:#007FBA;stroke:#FFFFFF;stroke-width:2.1543;stroke-linecap:round;stroke-linejoin:round;stroke-miterlimit:10;}
	.st25{fill:#313564;stroke:#FFFFFF;stroke-width:2.1543;stroke-linecap:round;stroke-linejoin:round;stroke-miterlimit:10;}
	.st26{fill:#FFFFFF;stroke:#FFFFFF;stroke-width:2.1543;stroke-linecap:round;stroke-linejoin:round;stroke-miterlimit:10;}
	.st27{clip-path:url(#SVGID_14_);}
	.st28{fill:#FBAC36;stroke:#FFFFFF;stroke-width:2.1543;stroke-linecap:round;stroke-linejoin:round;stroke-miterlimit:10;}
	.st29{fill:#F04B41;}
	.st30{fill:#007FBA;}
	.st31{clip-path:url(#SVGID_16_);}
	.st32{fill:#FBAC36;}
	.st33{fill:#2C2F61;}
	.st34{fill:#B7B9BA;}
	.st35{fill:#EF3748;}
	.st36{fill:#8999AC;}
	.st37{fill:#2B2F61;}
	.st38{fill:#EE2C45;}
	.st39{fill:#101624;}
	.st40{fill:#59707A;}
	.st41{fill:#4A3285;}
	.st42{fill:#F79230;}
	.st43{fill:#F15733;}
	.st44{fill:#D7303F;}
	.st45{fill:#FAA832;}
	.st46{fill:#1F1721;}
	.st47{fill:#5F3188;}
	.st48{fill:#EE243D;}
	.st49{fill:#1F4BA0;}
	.st50{fill:#244789;}
	.st51{fill:#FBAE2E;}
	.st52{fill:#006991;}
	.st53{fill:#F9A01B;stroke:#FFFFFF;stroke-width:0.4473;stroke-miterlimit:10;}
	.st54{fill:#FAA533;}
	.st55{fill:#0092BC;}
	.st56{fill:#15182C;}
	.st57{fill:#3E419A;}
	.st58{fill:#101721;}
	.st59{fill:#ADA3A5;}
	.st60{fill:#9CA7AC;}
	.st61{clip-path:url(#SVGID_18_);}
	.st62{clip-path:url(#SVGID_20_);}
	.st63{fill:#F3FAF7;}
	.st64{fill:#2D2F63;}
	.st65{fill:#FAA819;}
	.st66{fill:#FEF6FA;}
	.st67{fill:#004F30;}
	.st68{fill:#A2C7D3;}
	.st69{fill:#EE2E55;}
	.st70{fill:#32366E;}
	.st71{fill:#00ADDC;}
	.st72{fill:#FFFFFF;stroke:#00ACD0;stroke-width:0.2915;stroke-miterlimit:10;}
	.st73{fill:#FFFFFF;stroke:#00ACD0;stroke-width:0.2973;stroke-miterlimit:10;}
	.st74{fill:#450000;}
	.st75{fill:#EE224A;}
	.st76{fill:#0064A5;}
	.st77{fill:#F47736;}
	.st78{fill:#B5BCBF;}
	.st79{fill:#F47B35;}
	.st80{fill:#EE2B52;}
	.st81{fill:#0C060E;}
	.st82{fill:#B58D49;}
	.st83{fill:#C9BBCB;}
	.st84{fill:#BA924C;}
	.st85{fill:#006BAF;}
	.st86{fill:#B3C5CB;}
	.st87{fill:#898C89;}
	.st88{fill:#2E2C61;}
	.st89{fill:#C3C5BD;}
	.st90{fill:#C4D2D9;}
	.st91{fill:#EE284D;}
	.st92{fill:#161212;}
	.st93{fill:#EE274E;}
	.st94{fill:#A2A7AA;}
	.st95{fill:#A6AAAC;}
	.st96{fill:#A1A2AB;}
	.st97{fill:#110B13;}
	.st98{fill:#AFC1C6;}
	.st99{fill:#0067AD;}
	.st100{fill:#FBFBFB;}
	.st101{fill:#0065AF;}
	.st102{fill:#121A26;}
	.st103{fill:#008D4C;}
	.st104{fill:#B43A3D;}
	.st105{fill:#111623;}
	.st106{fill:#AB9048;}
	.st107{fill:#F8A174;}
	.st108{fill:#120B19;}
	.st109{fill:#C59751;}
	.st110{fill:#B33638;}
	.st111{fill:#009154;}
	.st112{fill:#1C2026;}
	.st113{fill:#EE2844;}
	.st114{fill:#30385F;}
	.st115{fill:#3A84B1;}
	.st116{fill:#A3C5D7;}
	.st117{fill:#F9A039;}
	.st118{fill:#B0BEC0;}
	.st119{fill:#231D46;}
	.st120{fill:#FDB840;}
	.st121{fill:#CD2C32;}
	.st122{fill:#272049;}
	.st123{fill:#FEC027;}
	.st124{fill:#ADC7C6;}
	.st125{fill:#014429;}
	.st126{fill:#DF2539;}
	.st127{fill:#F57E30;}
	.st128{fill:#ED1942;}
	.st129{fill:#FEF9FB;}
	.st130{fill:#0065AA;}
	.st131{fill:#A6B5B8;}
	.st132{fill:#0B040C;stroke:#0B040C;stroke-width:0.2716;stroke-miterlimit:10;}
	.st133{fill:#F7F9FD;}
	.st134{fill:none;stroke:#EBF2CC;stroke-width:0.2972;stroke-miterlimit:10;}
	.st135{fill:#48484A;}
	.st136{opacity:0.2;}
	.st137{fill:#EE2E3B;}
	.st138{fill:#005BA6;}
	.st139{fill:#737577;}
	.st140{fill:#A1A0A5;}
	.st141{fill:#272360;}
	.st142{fill:#FAFAFB;}
	.st143{fill:#058BA6;}
	.st144{fill:#DEDBE7;}
	.st145{fill:#B2965B;}
	.st146{fill:#1B305B;}
	.st147{fill:#F9F9FA;}
	.st148{fill:#E12039;}
	.st149{fill:#FEF4F4;}
</style>
<g>
	<path class="st97" d="M29,17.8c0,0-14.5-3.8-19-5.6c0.2,8.4,7.3,44.3,14.7,55.5c-5.9-2.5-17-7.3-19-9.2c0.5,0.8,1.8,5.1,1.8,5.1
		L24.8,107c0,0,10.4-6.6,18-6.8c0,0,11.1,13.5,14,15.4c4.1-1.8,12.1-13,13.5-16c3,0.5,15.5,4.6,17.5,6.9c2-4,20-47.4,20-47.4
		S96.7,65.2,91.6,67c1.7-4.8,12.7-37,13.4-55.2c-5,1.7-18.8,5.8-18.8,5.8S75.7,3.1,56.9,3.4C38.7,3.7,29,17.8,29,17.8z"/>
	<path class="st5" d="M85.7,19.2l17.8-5.8c0,0-3.3,29.9-15,56.5c3.8-1.2,19-6.9,19-6.9l-16.7,40.5c0,0-11.1-3.5-20.5-5.1
		c-3,4-9.3,13-13.1,15.6c-3.4-2.7-12.2-13.1-13.4-15.6c-2.1,0.2-16.9,2.8-22.5,5.3c-1.1-3.5-16.5-41.9-16.5-41.9s15,6.4,21.3,7.4
		c-0.7-2.9-1.9-4.9-2.9-7.4C22,59.3,12.6,31,11.9,14.3c0,0,14.1,4.1,16.8,4.7c-2.2,1-1.9,4.4-2.5,6.4c-0.6,2-3.5,5.4-3.5,5.4
		s-3.6,10,1.5,17.8c0.3,0.4,2.4,11,2.5,11.3c0.1,0.3,3.5,6.8,3.5,6.8l6.5,5.4l4.1,2.4l14.8,3.2L70.7,76c0,0,6.9-3.6,7.1-3.9
		s4.2-2.2,6.9-6.6c2.7-4.5,6.7-17.2,7.2-21.6C92.3,39.4,92.4,24.7,85.7,19.2z"/>
	<path class="st98" d="M27.4,21c0,0-4.3,7-3.7,16.6c0.5,9.7,3.6,21.7,13.1,31.6c3.7,3,5.4,3.5,9.6,5.5c4.3,2.1,10.1,3.4,10.1,3.4
		l14.9-4.2c0,0,13.6-4.5,18.1-21.7C94,34.9,90,25,87.7,21.2c4.2-1.8,12.3-4.1,12.3-4.1c-2.5,30.1-15.9,55.7-15.9,55.7
		s-11.4,16-15.2,22.6c-3.8,6.6-12.1,14.9-12.1,14.9s0,0-1-0.8c-5-5-26.4-36.7-26.4-36.7s0.3,1.9,0.2-0.1c-0.2-2-10-17.4-15.5-55.4
		c2.5,1.2,12.7,3.5,12.7,3.5"/>
	<path class="st99" d="M4.6,63.6c0.4,0,48.5,25.7,104.8,0.5l-16.2,37.8c0,0-38.7-13.1-74.2,0.4C14.7,89.7,4.6,63.6,4.6,63.6z"/>
	<path class="st97" d="M29.1,17.8c0,0-7.5,8.2-5.3,25.9c2.4,19.6,12.9,32.6,33.1,33c16.3,0.3,21.9-5.1,26.9-12c0,0,7.1-9.1,8.3-23
		c1.2-13.5-3.6-20.1-5.3-22.7C85.9,18.7,29.1,17.8,29.1,17.8z"/>
	<path class="st100" d="M25.7,42.7c0,0-4-20.8,13.7-31.7c14.5-8.9,33.7-5.3,42.9,5.6c8.1,9.2,8.3,23.3,7.6,24.9
		C88.8,34.8,79.2,11.7,54.2,15c0.3-1.2,0.7-1.8,0.7-1.8s-6.6-1.3-10.9,4.5c-2.1,1.8-4.6,3.1-5.8,2.8c-2,2.1-3,2.8-3,2.8
		S34.8,25,33.6,26c-1.2,1-4.6,4.1-5.3,7.3C27.7,36.4,25.7,40.1,25.7,42.7z"/>
	<path class="st101" d="M57.2,16.8c-0.3,0,3.2,2.2,4.3,3.6c1.7-1,6-1.2,8,0.6c-3.3,3.2-4.4,4.4-4.4,4.4s7.2,5.1,15.7,2.3
		C75.1,21.6,69.2,16.6,57.2,16.8z"/>
	<path class="st101" d="M64.8,29.6c0,0,10.5,2.7,17-0.4c3.5,4.2,9,18.4,3.7,27C84.8,50.1,81.6,37.1,64.8,29.6z"/>
	<path class="st101" d="M68.2,36.5c0,0,16.6,8.3,14.6,22.7c-2.2,5.1-9.2,7.1-9.4,7.2c-0.2,0.1,4.2-16.6-6.3-26.5
		c2.7,1.4,2,0.1,1.8-0.8C68.7,38.2,68.2,36.5,68.2,36.5z"/>
	<path class="st101" d="M66.7,43.7c0,0,7,8.2,4.5,22.9c-2.3,1.2-11.3,1.1-11.1,0.8c0.3-0.3,4.4-4.3,4.4-4.3L62,53.6l1.3-5.3l1.5,5
		C64.8,53.2,67.4,48.3,66.7,43.7z"/>
	<path class="st101" d="M71.3,67.1c0.2,0.4-0.1,3.9,0.8,2c0.9-1.9,1-2.5,1-2.5L71.3,67.1z"/>
	<path class="st100" d="M68.2,70.4c0,0-12.9,2.7-20.7-7.1c5.6,0.5,6.2-0.8,7.2-1.3c1-0.5,1.4-4,1.5-5.6c0.1-1.6,0-3.8,0-3.8
		l-1.4,1.6c0,0-3-13.6-3.9-16.9c2.8,3.2,4.8,2.6,4.8,2.6s-6.5-4.8-6.1-12.5c3.6,4,3.5,4.3,3.6,4c0.1-0.4-2.3-5.6-2.6-7.4
		c-0.3-1.9-0.4-7.6,2.2-9.8c-2.4,0.1-7.8,2.5-7.8,7.8c-4.2,3.7-7.4,10.1-7.1,15.6c0.3,5.5,4,6.9,3.9,7.2c-0.1,0.3-2.5,1.2-5.1-1.8
		c-0.5,1.7,2.2,6,2.2,6s-2.2-1-2.8-2c-0.6-1.1-0.6,1-0.3,1.4c0.4,0.4,4.9,7.9,7.6,9.8c-2.2-0.2-7.3-1.6-7.9-2.1
		c1.1,3,7.2,12.9,20.9,15.3C61.5,72,67,70.9,68.2,70.4z"/>
	<path class="st98" d="M76.3,69.5c0,0-13.5,7-23.8,3.5c-10.4-3.5-18.6-9.4-20.9-23.7c2.3,3.4,5.8,5,5.8,5s-9.3-9.6-3.4-20.7
		c-0.5,4.9,1.1,9.4,1.1,9.4S33.9,29.7,42,22c-2.1,1.6-4.7,4.3-4.7,4.3l0.3-2.7c0,0-1.8,2.7-2.1,4.9c-1.2,1.5-4.3,6.3-4.7,8
		c0.2-2.4-0.4-2.6,1.1-5.1c-1.9,1.2-4.9,9.1-1.5,21.5c-1-1.7-2.6-4.3-2.7-5.9c0.1,3.9,2.9,15,12.3,22.1
		C49.2,76.2,64.8,77.3,76.3,69.5z"/>
	<path class="st97" d="M48.3,58.2c0,0-4.3-10.4-4.6-10.5c-0.3-0.1-2.8-0.2-2.8-0.2S45,55.7,48.3,58.2z"/>
	<path class="st97" d="M52,59.5c-0.4-0.2-2.5-1.5-1-2.8c1.5-1.3,2.5-0.8,2.6,0.2c0.1,1-0.1,2.7-0.1,2.7s-0.4-1.7-1-1.6
		C51.9,58.1,52,59.5,52,59.5z"/>
	<path class="st98" d="M49.9,42.9c0,0.5,0.6,9.7,0.6,9.7l2,0.2L49.9,42.9z"/>
	<path class="st97" d="M49.4,40.7l-1-3.6c0,0-5.9-2.3-4.4-8.3C42.3,33.2,44.2,38.2,49.4,40.7z"/>
	<path class="st97" d="M49.2,34.5c0,0-5.6-0.4-2.4-7.4C47.2,30.9,48.2,33.1,49.2,34.5z"/>
	<path class="st97" d="M46.8,20.6c-0.3,0.1,1-4.3,3.9-5.4C50.5,17.1,48.5,20.1,46.8,20.6z"/>
	<path class="st98" d="M52.5,21.6c0,0,4.6,10.8,5,16.2C58.7,35,57,26.5,57,26.5l2.5,5.4l1.6-3.5c0,0,0.4,6.9-0.7,9.7
		c2.5-4.2,2.2-11.2,1.6-14c-2.1,4.6-2.8,4.7-2.8,4.7S56.6,23.3,52.5,21.6z"/>
	<path class="st98" d="M63.7,32.7c0,0.5-1.2,5.8-2.2,7.4c1.7-0.1,3.1-2.7,2.2-6.9"/>
	<path class="st98" d="M62.7,22.7c0,0,2.8-2,4.7-2c-1.7-0.5-5.1,0.6-5.1,0.6L62.7,22.7z"/>
	<path class="st100" d="M61.4,43.6c-0.1-0.4-1.2,8.2-1.9,9.2c0.3,1.5,2,9.4,2,9.4l-2.9,3.7L63,62l-2.3-9
		C60.7,53.1,61.7,46.7,61.4,43.6z"/>
	<path class="st5" d="M102.1,71.1c-0.1-0.2-0.5-0.6-1.1-0.6c-0.4,0-0.8,0.1-1.3,0.3c-0.3,0.1-0.7,0.3-1.2,0.5
		c-2.1,0.8-5.3,2-6.5,4.5c-0.3,0.7-0.7,1.7-1.2,2.7c0.5-1.3,0.8-2.5,1-3.4c0.1-0.3,0-0.6-0.2-0.9c-0.2-0.2-0.5-0.3-0.8-0.3
		c-1.1,0.2-1.9,0.4-2.4,0.5c-0.7,0.2-1.5,0.3-1.4,1.2c0,0.1,0,0.1,0,0.1c-0.2,1.3-1.2,4.6-2.2,6.6c0.8-2.6,1.8-5.8,1.8-5.8
		c0.1-0.3,0-0.6-0.2-0.9c-0.2-0.2-0.5-0.4-0.8-0.3l-2.9,0.4c-0.4,0-0.7,0.3-0.8,0.7l0,0.1c0,0,0-0.1-0.1-0.1
		c-0.2-0.2-0.5-0.4-0.8-0.3c-0.1,0-3,0.2-4.3,0.5c-0.2,0-0.4,0.1-0.6,0.1c-1.2,0.2-3.2,0.5-4.1,2.9l0.2-1c0.1-0.3,0-0.6-0.2-0.8
		c-0.2-0.2-0.5-0.3-0.8-0.3c-1.2,0.1-3.2,0.2-3.4,0.2c-0.5,0-0.9,0.4-0.9,0.9l-0.1,1.5c-0.4-1.1-1.5-2-3.8-2.1
		c-3.3-0.1-4.5,0.2-4.7,0.2c-0.3,0.1-0.6,0.3-0.7,0.6c-0.1-0.3-0.4-0.5-0.8-0.5l-4.5-0.2c-0.1,0-0.1,0-0.2,0
		c-0.8,0.1-2.2,0.8-2.8,2.4c0-1.1-0.1-1.8-0.1-1.9c0-0.5-0.4-0.9-0.9-0.9L45,77.6c-0.3,0-0.6,0.1-0.7,0.3c-0.1,0.1-0.1,0.1-0.2,0.2
		c0-0.1,0-0.1,0-0.1c0-0.5-0.4-0.9-0.9-0.9L39.6,77c-0.3,0-0.5,0.1-0.7,0.3c-0.2,0.2-0.3,0.4-0.3,0.7c0,0,0,0.1,0.2,1.4
		c-0.9-1.6-3.2-4.1-8.4-4.1c-0.2,0-0.3,0-0.5,0c-0.3,0-0.5,0.1-0.7,0.4c-0.2,0.2-0.2,0.5-0.2,0.8l1.3,5.5c-0.5-1.6-0.9-2.8-1.1-3.4
		c-0.9-2.1-4.3-5.2-7.2-5.2c-0.5,0-1,0.1-1.5,0.3c-0.1,0-0.1-0.1-0.2-0.1c-2.3-1.5-5.9-3.8-8.7-3.5c-0.3,0-0.5,0.2-0.7,0.4
		c-0.2,0.2-0.2,0.5-0.1,0.8c1.7,5.2,9.6,25.6,9.9,26.5c0.1,0.4,0.5,0.6,0.9,0.6c0.1,0,0.2,0,0.3,0l2.7-0.8c0.2-0.1,0.4-0.2,0.6-0.5
		c0-0.1,0.1-0.1,0.1-0.2c0.2,0.2,0.6,0.3,0.9,0.2l2.5-0.8c0.2-0.1,0.4-0.2,0.5-0.3c0.2,0.3,0.5,0.4,0.9,0.4l3.1-0.5
		c0.3,0,0.5-0.2,0.6-0.4c0,0,0,0,0-0.1c0.1,0.1,0.3,0.1,0.5,0.1c0.1,0,0.1,0,0.2,0l2.1-0.4c0.5-0.1,0.8-0.6,0.7-1.1l-1-5.7l0.1,0
		L38,94c0.1,0.4,0.5,0.7,1,0.7l1.6-0.1c0.3,0,0.5-0.2,0.7-0.4c0.2-0.2,0.2-0.5,0.2-0.7l-0.2-1.2c0.4,0.9,1.4,2,3.2,2
		c0.3,0,0.5,0,0.8-0.1c1.6-0.3,3.1-0.7,3.8-2c0,0.4,0,0.6,0,0.7c0,0.3,0.1,0.5,0.3,0.7c0.2,0.2,0.4,0.3,0.6,0.3c0,0,0,0,0,0l4-0.1
		c0,0,0,0,0.1,0c0.4,0,1.6-0.1,2.5-1.1c0.3-0.3,0.6-0.7,0.7-1.1l0,1c0,0.3,0.1,0.5,0.3,0.7c0.2,0.2,0.4,0.3,0.7,0.3h2.4
		c0.5,0,0.9-0.4,0.9-0.9v-4.2c0,0.1,0.1,0.2,0.1,0.3c0.1,1.6,0,3.8,0,3.9c0,0.3,0.1,0.5,0.3,0.7c0.2,0.2,0.4,0.3,0.7,0.3l2.3-0.1
		c0.3,0,0.6-0.2,0.8-0.4c0,0.2,0.1,0.5,0.3,0.6c0.2,0.2,0.4,0.3,0.7,0.3c0,0,0,0,0,0l1.9-0.1c0.4,0,0.8-0.3,0.9-0.8l0-0.3
		c0,0.2,0.1,0.4,0.2,0.6c0.3,0.4,0.7,0.7,1.3,0.7c1.2,0.1,3.9,0.1,4.1,0.1c0.1,0,0.1,0,0.2,0c0.3-0.1,1.4-0.4,2.5-2.3l-0.5,1.9
		c-0.1,0.3,0,0.6,0.2,0.8c0.2,0.2,0.5,0.4,0.7,0.4h2.2c0.4,0,0.8-0.3,0.9-0.7c0.4-1.6,0.8-3.3,1.1-4.6c-0.5,2-1.1,4.7-1.1,4.9
		c-0.1,0.2,0,0.5,0.1,0.7c0.1,0.2,0.4,0.4,0.6,0.4l2.7,0.5c0.1,0,0.1,0,0.2,0c0.2,0,0.4-0.1,0.6-0.2c0,0,0,0,0,0
		c0.4,0.6,1.2,0.8,2.2,0.8l0.2,0c2.4-0.1,4.5-0.1,6-3.3c1.2-2.6,2.8-6.9,2.9-7c0-0.1,0.4-1-0.1-1.9c-0.4-0.6-1.1-1-2.1-1
		c-0.6,0-0.9,0-1.3,0c0.1-0.2,0.2-0.5,0.3-0.8c0,0,0-0.1,0.1-0.1c0,0.1,0.1,0.1,0.1,0.2c0.2,0.3,0.5,0.4,0.8,0.4l2.9-0.1
		c0.4,0,0.7-0.2,0.8-0.6l4.1-9.8C102.3,72.5,102.5,71.7,102.1,71.1z M57.5,85l0,0.2C57.4,85.1,57.4,85.1,57.5,85
		C57.4,85,57.4,85,57.5,85z M79,86.9c-0.2-0.2-0.4-0.4-0.7-0.4h-2.5c-0.4,0-0.8,0.3-0.9,0.7c-0.3,1.2-0.7,3.1-0.8,3.4
		c-0.1,0.2-0.3,0.4-0.5,0.5c0-0.2,0.1-0.7,0.2-1.5c0.3-1.3,0.8-3.6,1.2-5.5c0,0.2,0.1,0.3,0.2,0.5c0.2,0.2,0.5,0.4,0.8,0.4
		c0.2,0,2.4-0.2,3.3-0.2c0.1,0,0.2,0,0.3-0.1L79,86.9C79,86.9,79,86.9,79,86.9z"/>
	<g>
		<g>
			<g>
				<path class="st97" d="M20.6,74.7c-2.1-1.4-6-4.1-8.8-3.8c1.7,5.3,9.9,26.4,9.9,26.4l2.7-0.8l-6.7-19.9c0,0,0.1-2.4,1-0.6
					c0.9,1.8,7.3,20.1,7.3,20.1l2.5-0.8c0,0-5.4-17.1-5.3-17.3c0.1-0.2-0.3-2.1,1-0.9c1.3,1.3,5.8,18.2,5.8,18.2l3.1-0.5
					c0,0-3.8-13.8-4.7-15.9C27.5,76.8,23.3,73,20.6,74.7z"/>
			</g>
			<g>
				<g>
					<path class="st97" d="M30,76.2l4.4,18.3l2.1-0.4l-1.2-6.7l1.9-0.1l1.6,6.6l1.6-0.1l-2-12.8C38.5,80.9,37.4,75.9,30,76.2z
						 M34.9,86l-1.6-7.8c0,0,2,0.6,2.6,2.4c0.6,1.9,1.1,5.2,1.1,5.2L34.9,86z"/>
				</g>
			</g>
			<g>
				<path class="st97" d="M45,78.5c0,0,1.7,11.1,1.6,12.1c-0.1,1-0.8,1.1-1.4,1c-0.6-0.1-1.2-1.1-1.4-3.3
					c-0.1-2.2-0.6-10.3-0.6-10.3l-3.6-0.1c0,0.2,2.4,13.6,2.4,13.6s0.6,2.2,3.1,1.8c2.6-0.4,3.5-1.2,3.5-3.1
					c0-1.9-0.3-11.6-0.3-11.6L45,78.5z"/>
			</g>
			<g>
				<path class="st97" d="M52.1,91.6c0-3.6,0.1-4.7,0.1-4.7h4.6v-1.1H52v-3.1c0,0-0.2-2.1,2.4-2.1l0.1,3.8h2.2v-5.1l-4.5-0.2
					c0,0-2.1,0.3-2.3,2.9C49.7,84.5,50,92.9,50,92.9l4-0.1c0,0,3,0.2,2.9-3.9c-2,0-2.3-0.1-2.3-0.1S55.6,91.7,52.1,91.6z"/>
			</g>
			<g>
				<g>
					<path class="st97" d="M62.9,78.9c-3.2-0.1-4.4,0.2-4.4,0.2l-0.1,13.3h2.4V87c0,0,1.9-0.1,1.9,1.5c0.1,1.6,0,3.9,0,3.9l2.3-0.1
						l0.1-3.6c0,0,0.3-2.3-0.7-3c1.6-0.5,1.9-1.8,1.9-3.4C66.2,80.9,66.1,79,62.9,78.9z M62.7,84.1c-0.1,1.6-1.7,1.1-1.7,1.1
						l0.1-4.6c1.8-0.1,1.6,1.1,1.6,1.1S62.9,82.5,62.7,84.1z"/>
				</g>
			</g>
			<g>
				<path class="st97" d="M67.8,78.7l-1.1,14.2l1.9-0.1l2.8-14.3C71.3,78.4,68,78.7,67.8,78.7z"/>
			</g>
			<g>
				<path class="st97" d="M75.8,87.4c0,0-0.6,3-0.9,3.6c-0.2,0.6-0.9,1.2-1.5,1.1c-0.6-0.1-1.1-0.1-0.5-2.6c0.6-2.6,1.9-8.6,1.9-8.6
					s0.4-1.6,1.5-1.7c1.1-0.1,0.7,0.6,0.6,1.3c-0.1,0.6-1,3.7-1,3.7c0.2,0,3.3-0.2,3.3-0.2l1.9-6.9c0,0-2.9,0.2-4.2,0.5
					c-1.3,0.3-3.6,0.1-4.3,3.3C72,84,70.7,91.1,70.7,91.1s-0.9,2,0.3,2.1c1.2,0.1,4,0.1,4,0.1s2.1-0.4,3.3-5.8
					C76.1,87.4,75.8,87.4,75.8,87.4z"/>
			</g>
			<g>
				<path class="st97" d="M85.9,86.2c1.6-1,4.4-8.1,5.1-11.2c-2.6,0.5-3.2,0.6-3,0.6c0.2,0-2.1,10-4.8,9.4c0.4-2.1,2.6-8.7,2.6-8.7
					l-2.9,0.4L78.1,94h2.2c0,0,1.7-7.2,1.9-7.3c0.2-0.1,1.9-0.1,1.5,1.3c-0.4,1.4-1.6,6.6-1.6,6.6l2.7,0.5c0,0-0.6-0.6,0.1-2.3
					C85.6,91.2,86.6,87.9,85.9,86.2z"/>
			</g>
			<g>
				<path class="st97" d="M100.1,71.7c-1.8,0.8-6,1.8-7.2,4.5c-1.2,2.7-3.9,8.8-3.9,8.8s-0.9,1.9,0.4,1.8c1.3-0.1,2.4,0,2.4,0
					s0.8,0,0.4,1.4c-0.4,1.4-1.8,5.1-1.8,5.1s-0.9,1.1-1.6,1c-0.7-0.1,1.2-5.9,1.2-5.9h-2.5c0,0-1.3,4.4-1.4,5.1
					c-0.1,0.8-0.7,2.4,1.7,2.3c2.4-0.1,3.9-0.1,5.1-2.8c1.2-2.6,2.9-7,2.9-7s0.6-1.5-1.4-1.6c-2.1-0.1-1.9,0.1-1.9,0.1s-1,0,0-2.3
					c1-2.3,2.2-5,2.2-5s0.2-0.5,0.5-0.9c0.6-0.6,1.5-0.9,1,0.6c-0.8,2.3-1.9,5.1-1.9,5.1l2.9-0.1l4.1-9.8
					C101.3,72.3,101.9,71,100.1,71.7z"/>
			</g>
		</g>
	</g>
	<polygon class="st5" points="75.1,84 75.9,84.5 79.8,84.4 79.2,87.5 78,86.8 75.1,87.2 74,91.2 73.4,91.1 	"/>
	<path class="st5" d="M36.7,94.9c0.3-0.1,2.2-0.2,2.2-0.2s-0.5-0.9-0.9-2.2c-0.4-1.3-1.3-4.8-1.3-4.8L36,87.9l1.1,6L36.7,94.9z"/>
	<polygon class="st5" points="61.3,87.7 62.3,88.5 62.4,93.5 60.7,93.4 	"/>
	<g>
		<path class="st97" d="M56.8,93.1c-0.1,0.3-1.2,4.4-1.2,4.4l-6.3,0.8l4.7,2.7l-1.4,4.4l4.4-2.7l4.3,2.7l-1.2-4.6c0,0,3.7-2,4.7-2.3
			c-1.6-0.6-6.2-0.7-6.2-0.7L56.8,93.1z"/>
		<polygon class="st5" points="56.8,96.1 56.2,98.4 52.5,98.9 55.1,100.5 54.4,103.3 56.8,101.6 59.4,103.3 58.6,100.4 61.8,99 
			57.6,98.4 		"/>
	</g>
</g>
</svg>
