<?xml version="1.0" encoding="utf-8"?>
<!-- Generator: Adobe Illustrator 23.0.1, SVG Export Plug-In . SVG Version: 6.00 Build 0)  -->
<svg version="1.1" id="Capa_1" xmlns="http://www.w3.org/2000/svg" xmlns:xlink="http://www.w3.org/1999/xlink" x="0px" y="0px"
	 viewBox="0 0 152.6 109" style="enable-background:new 0 0 152.6 109;" xml:space="preserve">
<style type="text/css">
	.st0{fill:#175384;}
	.st1{fill:#A0A5AA;}
	.st2{fill:#0B040C;}
	.st3{fill:#FFC727;}
	.st4{fill:#F0545B;}
	.st5{fill:#FFFFFF;}
	.st6{fill:#00A855;}
	.st7{fill:#B4C4C9;}
	.st8{fill:#221A21;}
	.st9{fill:#EF3A47;}
	.st10{fill:url(#SVGID_1_);}
	.st11{fill:url(#SVGID_2_);}
	.st12{fill:url(#SVGID_3_);}
	.st13{fill:url(#SVGID_4_);}
	.st14{fill:url(#SVGID_5_);}
	.st15{fill:url(#SVGID_6_);}
	.st16{fill:url(#SVGID_7_);}
	.st17{fill:url(#SVGID_8_);}
	.st18{fill:url(#SVGID_9_);}
	.st19{fill:url(#SVGID_10_);}
	.st20{fill:url(#SVGID_11_);}
	.st21{fill:url(#SVGID_12_);}
	.st22{fill:#313564;}
	.st23{fill:#F04B41;stroke:#FFFFFF;stroke-width:2.1543;stroke-linecap:round;stroke-linejoin:round;stroke-miterlimit:10;}
	.st24{fill:#007FBA;stroke:#FFFFFF;stroke-width:2.1543;stroke-linecap:round;stroke-linejoin:round;stroke-miterlimit:10;}
	.st25{fill:#313564;stroke:#FFFFFF;stroke-width:2.1543;stroke-linecap:round;stroke-linejoin:round;stroke-miterlimit:10;}
	.st26{fill:#FFFFFF;stroke:#FFFFFF;stroke-width:2.1543;stroke-linecap:round;stroke-linejoin:round;stroke-miterlimit:10;}
	.st27{clip-path:url(#SVGID_14_);}
	.st28{fill:#FBAC36;stroke:#FFFFFF;stroke-width:2.1543;stroke-linecap:round;stroke-linejoin:round;stroke-miterlimit:10;}
	.st29{fill:#F04B41;}
	.st30{fill:#007FBA;}
	.st31{clip-path:url(#SVGID_16_);}
	.st32{fill:#FBAC36;}
	.st33{fill:#2C2F61;}
	.st34{fill:#B7B9BA;}
	.st35{fill:#EF3748;}
	.st36{fill:#8999AC;}
	.st37{fill:#2B2F61;}
	.st38{fill:#EE2C45;}
	.st39{fill:#101624;}
	.st40{fill:#59707A;}
	.st41{fill:#4A3285;}
	.st42{fill:#F79230;}
	.st43{fill:#F15733;}
	.st44{fill:#D7303F;}
	.st45{fill:#FAA832;}
	.st46{fill:#1F1721;}
	.st47{fill:#5F3188;}
	.st48{fill:#EE243D;}
	.st49{fill:#1F4BA0;}
	.st50{fill:#244789;}
	.st51{fill:#FBAE2E;}
	.st52{fill:#006991;}
	.st53{fill:#F9A01B;stroke:#FFFFFF;stroke-width:0.4473;stroke-miterlimit:10;}
	.st54{fill:#FAA533;}
	.st55{fill:#0092BC;}
	.st56{fill:#15182C;}
	.st57{fill:#3E419A;}
	.st58{fill:#101721;}
	.st59{fill:#ADA3A5;}
	.st60{fill:#9CA7AC;}
	.st61{clip-path:url(#SVGID_18_);}
	.st62{clip-path:url(#SVGID_20_);}
	.st63{fill:#F3FAF7;}
	.st64{fill:#2D2F63;}
	.st65{fill:#FAA819;}
	.st66{fill:#FEF6FA;}
	.st67{fill:#004F30;}
	.st68{fill:#A2C7D3;}
	.st69{fill:#EE2E55;}
	.st70{fill:#32366E;}
	.st71{fill:#00ADDC;}
	.st72{fill:#FFFFFF;stroke:#00ACD0;stroke-width:0.2915;stroke-miterlimit:10;}
	.st73{fill:#FFFFFF;stroke:#00ACD0;stroke-width:0.2973;stroke-miterlimit:10;}
	.st74{fill:#450000;}
	.st75{fill:#EE224A;}
	.st76{fill:#0064A5;}
	.st77{fill:#F47736;}
	.st78{fill:#B5BCBF;}
	.st79{fill:#F47B35;}
	.st80{fill:#EE2B52;}
	.st81{fill:#0C060E;}
	.st82{fill:#B58D49;}
	.st83{fill:#C9BBCB;}
	.st84{fill:#BA924C;}
	.st85{fill:#006BAF;}
	.st86{fill:#B3C5CB;}
	.st87{fill:#898C89;}
	.st88{fill:#2E2C61;}
	.st89{fill:#C3C5BD;}
	.st90{fill:#C4D2D9;}
	.st91{fill:#EE284D;}
	.st92{fill:#161212;}
	.st93{fill:#EE274E;}
	.st94{fill:#A2A7AA;}
	.st95{fill:#A6AAAC;}
	.st96{fill:#A1A2AB;}
	.st97{fill:#110B13;}
	.st98{fill:#AFC1C6;}
	.st99{fill:#0067AD;}
	.st100{fill:#FBFBFB;}
	.st101{fill:#0065AF;}
	.st102{fill:#121A26;}
	.st103{fill:#008D4C;}
	.st104{fill:#B43A3D;}
	.st105{fill:#111623;}
	.st106{fill:#AB9048;}
	.st107{fill:#F8A174;}
	.st108{fill:#120B19;}
	.st109{fill:#C59751;}
	.st110{fill:#B33638;}
	.st111{fill:#009154;}
	.st112{fill:#1C2026;}
	.st113{fill:#EE2844;}
	.st114{fill:#30385F;}
	.st115{fill:#3A84B1;}
	.st116{fill:#A3C5D7;}
	.st117{fill:#F9A039;}
	.st118{fill:#B0BEC0;}
	.st119{fill:#231D46;}
	.st120{fill:#FDB840;}
	.st121{fill:#CD2C32;}
	.st122{fill:#272049;}
	.st123{fill:#FEC027;}
	.st124{fill:#ADC7C6;}
	.st125{fill:#014429;}
	.st126{fill:#DF2539;}
	.st127{fill:#F57E30;}
	.st128{fill:#ED1942;}
	.st129{fill:#FEF9FB;}
	.st130{fill:#0065AA;}
	.st131{fill:#A6B5B8;}
	.st132{fill:#0B040C;stroke:#0B040C;stroke-width:0.2716;stroke-miterlimit:10;}
	.st133{fill:#F7F9FD;}
	.st134{fill:none;stroke:#EBF2CC;stroke-width:0.2972;stroke-miterlimit:10;}
	.st135{fill:#48484A;}
	.st136{opacity:0.2;}
	.st137{fill:#EE2E3B;}
	.st138{fill:#005BA6;}
	.st139{fill:#737577;}
	.st140{fill:#A1A0A5;}
	.st141{fill:#272360;}
	.st142{fill:#FAFAFB;}
	.st143{fill:#058BA6;}
	.st144{fill:#DEDBE7;}
	.st145{fill:#B2965B;}
	.st146{fill:#1B305B;}
	.st147{fill:#F9F9FA;}
	.st148{fill:#E12039;}
	.st149{fill:#FEF4F4;}
</style>
<g>
	<path class="st52" d="M27.2,49.3c-0.7,0-21.8,0-21.8,0v12.4c0,0,2.1-1.7,2.1,2.1c0,3.7,0,28.3,0,28.3s-0.3,2.6-2.4,2.6v10.7h24.7
		V101c0,0,2.2,4.5,8.5,4.5s10.5-5.1,10.5-5.1s2.7,4.8,9.2,4.8c6.5,0,10.4-5.2,10.4-5.2s2,5.1,9.5,5.1c7.5,0,8.5-3.3,8.5-3.3v3.1
		h21.3v-4.2l2.6,4h13.5h0.9v-3.5l3.4,2.6h2.3c0,0-0.5-1.6,1.3-0.6s2.5,2,7.8,1.7c0,0,3.9-0.4,6.6-3.8s2.5-4.7,2.5-8.8s0-10.1,0-10.1
		s0.1-3.2-2.7-5.2c-2.7-2-5.1-4.2-5.1-4.2h7.8l0.1-22.1c0,0-2.9,1.1-4.3-0.1c-1.4-1.3-6.2-2-11-1.4c-0.5-1.4-3.4-5.5-3.4-5.5
		l5.4-0.1c0,0-13.9-17.6-33-19.1C91.6,14.8,80.6,5.9,80.6,5.9L58.1,24.6c0,0-16.6,1.7-33.4,19.2c2.1,0.4,4.3,0.4,4.3,0.4l-3.1,2.8
		L27.2,49.3z"/>
	<g>
		<path class="st53" d="M7.9,51.6h7.9l5.7,29.3V62.6c0,0,0.2-2.7-1.4-3.3v-7.8h8.5v7.9c0,0-1.7,0.3-1.7,2.8c0,2.5,0,41.3,0,41.3h-7
			L14.7,76v16.4c0,0-0.1,2.6,2.1,3.3v7.9H8v-8.2c0,0,2.1,0.2,2.1-3.6c0-3.7,0-29.1,0-29.1s-0.2-2.8-2.2-3L7.9,51.6z"/>
		<path class="st53" d="M28.5,64.3l10-5.6l-0.1,8.6c0,0-1.3,0.3-1.3,3.5c0,3.2,0,21,0,21s0.2,1.5,1.7,1.5c1.5,0,1.7-1.1,1.7-2.3
			c0-1.2,0-21.2,0-21.2s0-2.6-1.1-2.8v-8.6l9.5-4.1l-0.2,10.3c0,0-1.2-0.4-1.2,1.5c0,2,0,29,0,29.4c0,0.4-0.6,8.2-9,8.3
			c-8.4,0.1-8-10.5-8-10.5V72.2h-1.8L28.5,64.3z"/>
		<path class="st53" d="M67.1,55.5c0,0-1.9,0.2-2.8-1.2c-0.9-1.3-2.7-2.8-6.4-2.3c-3.7,0.4-8.4,2.3-8.4,11.1s0,31.2,0,31.2
			s-0.1,9.5,8.2,9.5s9.5-6,9.5-6V75.3l-8.9-0.2v6.3c0,0,1.7-0.8,1.7,1.7c0,2.5,0,7.8,0,7.8s0.1,2.3-1.6,2.4c-1.7,0.1-1.3-3-1.3-3
			V64.2c0,0-0.1-1.9,1.3-1.9c1.3,0,1.4,1.3,1.4,2.1c0,0.8,0,7.4,0,7.4H67L67.1,55.5z"/>
		<path class="st53" d="M87,53.4c0,0-1.7,0.5-2.6-0.8c-0.9-1.3-3-3.3-6.8-2.9c-5.4,0.5-8.7,4.6-8.7,13.4s0,31.2,0,31.2
			s-0.1,9.5,8.2,9.5c8.3,0,9.5-6,9.5-6V75.3l-8.9-0.2v6.3c0,0,1.7-0.8,1.7,1.7c0,2.5,0,7.8,0,7.8s0.1,2.3-1.6,2.4
			c-1.7,0.1-1.3-3-1.3-3V62.3c0,0-0.1-1.9,1.3-1.9c1.3,0,1.4,1.3,1.4,2.1c0,0.8,0,9.3,0,9.3h7.9L87,53.4z"/>
		<path class="st53" d="M88.2,50.3c0,0,11.4,1.1,16.5,3.5c0.3,9.9,0,17.7,0,17.7h-5.8V63c0,0-1.2-0.8-1.9-0.7v13h4.8v6.8h-4.9v11.8
			c0,0,1.9-0.8,2-1.2c0.1-0.4,0-7.6,0-7.6h6.5v17.9H88.2v-7.2c0,0,2.1,0.4,2.1-2.9c0-3.3,0-31.2,0-31.2s0-1.7-1.9-2.2L88.2,50.3z"/>
		<path class="st53" d="M106.8,54.5c0,0,13.7,4.2,19.8,8.6c0.4,5.4,0,8.4,0,8.4h-4.5c0,0,0.3-4.2-1.4-4.6v24.5c0,0-0.1,3.6,1.9,4.4
			v7.8h-11.2v-7.5c0,0,1.8-0.4,1.8-4.3c0-3.8,0-25.9,0-25.9s-1.3,0.3-1.3,2.3c0,2.1,0,3.2,0,3.2h-4.9L106.8,54.5z"/>
		<path class="st53" d="M146.3,53.6c0,0-2.1-0.2-4.1-1c-2.8-1.3-13.4-2-13.5,5.4c-0.1,7.4-0.2,14.1-0.2,14.1s-0.1,3.5,3.3,5.9
			c3.4,2.4,6.4,4.6,6.4,4.6s1.5,1.5,1.5,4.1c0,2.6,0,5.1,0,5.1s0,2.3-2,2.3c0,0-1.7,0-1.7-2c0-2,0-5.7,0-5.7h-7.6V102h1
			c0,0,0.4-2.3,2.5-0.5c2.1,1.8,7.1,3.7,11.2,0.2c4.1-3.5,3.4-6.4,3.4-8.2c0-1.8,0-11.3,0-11.3s0.3-2.1-1.5-3.3
			c-1.8-1.3-8.2-6.3-8.2-6.3s-1-1-1-3.9c0-2.9,0-6.5,0-6.5s-0.1-2.1,1.5-2.1c1.6,0,2,1.9,2,2.3c0,0.4,0,9.2,0,9.2h7.3L146.3,53.6z"
			/>
	</g>
	<path class="st54" d="M27.5,42.7l4.8,0.2c0,0-3.7,2.6-4.3,3.3c1,1.9,7.4,12.4,7.4,12.4s16.5-11.3,46.4-9.9
		c29.3,1.4,42.4,11,42.4,11l6.9-11.1c0,0-3.6-5.3-4.9-6.1c3.6-0.2,5.8,0,5.8,0s-13-13-28.1-15.7c5.8,4.1,17.7,11.9,23.5,19.7
		c-7.7-4-24.4-11.3-46.5-11.8c-22.1-0.5-47.6,9.4-47.6,9.4s17.4-13.7,24.4-17.1C52.4,27.2,44.7,29.1,27.5,42.7z"/>
	<path class="st55" d="M49.8,30c0,0-9.3,4.2-18.1,11.3c2.7,0.2,2,0.1,2,0.1L49.8,30z"/>
	<path class="st55" d="M110.3,30c0,0,9.3,4.2,18.1,11.3c-2.7,0.2-2,0.1-2,0.1L110.3,30z"/>
	<path class="st55" d="M30.5,46.8l5.8,9.8c0,0,16.1-9.4,41.2-9.4c25.2,0,37.9,6.6,45.9,10.4c2-3,5.6-8.9,5.6-8.9
		s-23.8-12.5-48.6-12.5C54.1,36.2,30.5,46.8,30.5,46.8z"/>
	<path class="st52" d="M80.7,8.8c0,0-23.9,20.4-27.7,23.4c-3.8,3-13,9.6-12.6,9.5c0.4-0.1,24.7-7.8,40.6-6.9
		c15.8,0.9,41.4,9.4,41.4,9.4S96.6,22.4,92.4,19.1C88.2,15.8,80.7,8.8,80.7,8.8z"/>
	<polygon class="st5" points="80.7,10.8 59.5,28.5 71.2,23.6 72.8,28 77,24.3 81.2,32.3 84.6,24.1 88.8,29.6 89.5,23.9 102,29.1 	
		"/>
	<path class="st5" d="M42.3,43.9c-2.6,0.8-5,1.9-5,1.9l2.8,7.4c0,0,4.9-0.7,7.2-3C49.6,48.1,49.1,42.5,42.3,43.9z M41.9,50.7
		l-1.6-4.2c0,0,4.4-2,5.5,0.1C46.5,47.9,46.2,49.4,41.9,50.7z"/>
	<path class="st5" d="M54.6,48.5c0,0-1.6-7-1.4-7.4l8.6-1.6l0.3,1.4L55.8,42l0.3,1.5l3.8-0.7l0.2,1.2c-0.2,0-3.7,0.7-3.7,0.7
		l0.3,1.6l5.6-1.2l0.4,1.7L54.6,48.5z"/>
	<polygon class="st5" points="68.3,46.1 71.2,45.9 71.3,41.5 76.5,45.6 79.4,45.5 79.1,37.7 76,37.9 76.2,41.7 71.4,37.9 68,38.2 	
		"/>
	<polygon class="st5" points="83.8,37.8 88.4,46.2 90.8,46.3 95.7,39 92.3,38.5 89.6,42.9 86.7,37.9 	"/>
	<g>
		<g>
			<path class="st5" d="M99.4,47.8l8.1,1.8l0.4-1.7l-5.6-1.3l0.3-1.6c0,0,3.5,0.8,3.6,0.8l0.3-1.1l-3.8-0.9l0.2-1.3l6,1.3l0.3-1.6
				l-8.4-1.8C100.8,40.7,99.4,47.8,99.4,47.8z"/>
			<path class="st5" d="M122.2,47.2c-1.9-0.9-6.4-2.7-6.4-2.7l-3.3,7l2.6,1.1l1.3-2.6l2.1,0.9l0.4,3.3l2.4,1l-0.2-3.9
				c0,0,1.7,0.5,2.5-0.9C124,49.7,124,48.1,122.2,47.2z M121,49.5c-0.1,0.3-0.6,0.5-1.3,0.2c-0.4-0.1-3-1.4-3-1.4l0.7-1.2l3.3,1.4
				C120.7,48.6,121.3,48.9,121,49.5z"/>
		</g>
	</g>
</g>
</svg>
