<?xml version="1.0" encoding="utf-8"?>
<!-- Generator: Adobe Illustrator 23.0.1, SVG Export Plug-In . SVG Version: 6.00 Build 0)  -->
<svg version="1.1" id="Capa_1" xmlns="http://www.w3.org/2000/svg" xmlns:xlink="http://www.w3.org/1999/xlink" x="0px" y="0px"
	 viewBox="0 0 109.1 125.6" style="enable-background:new 0 0 109.1 125.6;" xml:space="preserve">
<style type="text/css">
	.st0{fill:#175384;}
	.st1{fill:#A0A5AA;}
	.st2{fill:#0B040C;}
	.st3{fill:#FFC727;}
	.st4{fill:#F0545B;}
	.st5{fill:#FFFFFF;}
	.st6{fill:#00A855;}
	.st7{fill:#B4C4C9;}
	.st8{fill:#221A21;}
	.st9{fill:#EF3A47;}
	.st10{fill:url(#SVGID_1_);}
	.st11{fill:url(#SVGID_2_);}
	.st12{fill:url(#SVGID_3_);}
	.st13{fill:url(#SVGID_4_);}
	.st14{fill:url(#SVGID_5_);}
	.st15{fill:url(#SVGID_6_);}
	.st16{fill:url(#SVGID_7_);}
	.st17{fill:url(#SVGID_8_);}
	.st18{fill:url(#SVGID_9_);}
	.st19{fill:url(#SVGID_10_);}
	.st20{fill:url(#SVGID_11_);}
	.st21{fill:url(#SVGID_12_);}
	.st22{fill:#313564;}
	.st23{fill:#F04B41;stroke:#FFFFFF;stroke-width:2.1543;stroke-linecap:round;stroke-linejoin:round;stroke-miterlimit:10;}
	.st24{fill:#007FBA;stroke:#FFFFFF;stroke-width:2.1543;stroke-linecap:round;stroke-linejoin:round;stroke-miterlimit:10;}
	.st25{fill:#313564;stroke:#FFFFFF;stroke-width:2.1543;stroke-linecap:round;stroke-linejoin:round;stroke-miterlimit:10;}
	.st26{fill:#FFFFFF;stroke:#FFFFFF;stroke-width:2.1543;stroke-linecap:round;stroke-linejoin:round;stroke-miterlimit:10;}
	.st27{clip-path:url(#SVGID_14_);}
	.st28{fill:#FBAC36;stroke:#FFFFFF;stroke-width:2.1543;stroke-linecap:round;stroke-linejoin:round;stroke-miterlimit:10;}
	.st29{fill:#F04B41;}
	.st30{fill:#007FBA;}
	.st31{clip-path:url(#SVGID_16_);}
	.st32{fill:#FBAC36;}
	.st33{fill:#2C2F61;}
	.st34{fill:#B7B9BA;}
	.st35{fill:#EF3748;}
	.st36{fill:#8999AC;}
	.st37{fill:#2B2F61;}
	.st38{fill:#EE2C45;}
	.st39{fill:#101624;}
	.st40{fill:#59707A;}
	.st41{fill:#4A3285;}
	.st42{fill:#F79230;}
	.st43{fill:#F15733;}
	.st44{fill:#D7303F;}
	.st45{fill:#FAA832;}
	.st46{fill:#1F1721;}
	.st47{fill:#5F3188;}
	.st48{fill:#EE243D;}
	.st49{fill:#1F4BA0;}
	.st50{fill:#244789;}
	.st51{fill:#FBAE2E;}
	.st52{fill:#006991;}
	.st53{fill:#F9A01B;stroke:#FFFFFF;stroke-width:0.4473;stroke-miterlimit:10;}
	.st54{fill:#FAA533;}
	.st55{fill:#0092BC;}
	.st56{fill:#15182C;}
	.st57{fill:#3E419A;}
	.st58{fill:#101721;}
	.st59{fill:#ADA3A5;}
	.st60{fill:#9CA7AC;}
	.st61{clip-path:url(#SVGID_18_);}
	.st62{clip-path:url(#SVGID_20_);}
	.st63{fill:#F3FAF7;}
	.st64{fill:#2D2F63;}
	.st65{fill:#FAA819;}
	.st66{fill:#FEF6FA;}
	.st67{fill:#004F30;}
	.st68{fill:#A2C7D3;}
	.st69{fill:#EE2E55;}
	.st70{fill:#32366E;}
	.st71{fill:#00ADDC;}
	.st72{fill:#FFFFFF;stroke:#00ACD0;stroke-width:0.2915;stroke-miterlimit:10;}
	.st73{fill:#FFFFFF;stroke:#00ACD0;stroke-width:0.2973;stroke-miterlimit:10;}
	.st74{fill:#450000;}
	.st75{fill:#EE224A;}
	.st76{fill:#0064A5;}
	.st77{fill:#F47736;}
	.st78{fill:#B5BCBF;}
	.st79{fill:#F47B35;}
	.st80{fill:#EE2B52;}
	.st81{fill:#0C060E;}
	.st82{fill:#B58D49;}
	.st83{fill:#C9BBCB;}
	.st84{fill:#BA924C;}
	.st85{fill:#006BAF;}
	.st86{fill:#B3C5CB;}
	.st87{fill:#898C89;}
	.st88{fill:#2E2C61;}
	.st89{fill:#C3C5BD;}
	.st90{fill:#C4D2D9;}
	.st91{fill:#EE284D;}
	.st92{fill:#161212;}
	.st93{fill:#EE274E;}
	.st94{fill:#A2A7AA;}
	.st95{fill:#A6AAAC;}
	.st96{fill:#A1A2AB;}
	.st97{fill:#110B13;}
	.st98{fill:#AFC1C6;}
	.st99{fill:#0067AD;}
	.st100{fill:#FBFBFB;}
	.st101{fill:#0065AF;}
	.st102{fill:#121A26;}
	.st103{fill:#008D4C;}
	.st104{fill:#B43A3D;}
	.st105{fill:#111623;}
	.st106{fill:#AB9048;}
	.st107{fill:#F8A174;}
	.st108{fill:#120B19;}
	.st109{fill:#C59751;}
	.st110{fill:#B33638;}
	.st111{fill:#009154;}
	.st112{fill:#1C2026;}
	.st113{fill:#EE2844;}
	.st114{fill:#30385F;}
	.st115{fill:#3A84B1;}
	.st116{fill:#A3C5D7;}
	.st117{fill:#F9A039;}
	.st118{fill:#B0BEC0;}
	.st119{fill:#231D46;}
	.st120{fill:#FDB840;}
	.st121{fill:#CD2C32;}
	.st122{fill:#272049;}
	.st123{fill:#FEC027;}
	.st124{fill:#ADC7C6;}
	.st125{fill:#014429;}
	.st126{fill:#DF2539;}
	.st127{fill:#F57E30;}
	.st128{fill:#ED1942;}
	.st129{fill:#FEF9FB;}
	.st130{fill:#0065AA;}
	.st131{fill:#A6B5B8;}
	.st132{fill:#0B040C;stroke:#0B040C;stroke-width:0.2716;stroke-miterlimit:10;}
	.st133{fill:#F7F9FD;}
	.st134{fill:none;stroke:#EBF2CC;stroke-width:0.2972;stroke-miterlimit:10;}
	.st135{fill:#48484A;}
	.st136{opacity:0.2;}
	.st137{fill:#EE2E3B;}
	.st138{fill:#005BA6;}
	.st139{fill:#737577;}
	.st140{fill:#A1A0A5;}
	.st141{fill:#272360;}
	.st142{fill:#FAFAFB;}
	.st143{fill:#058BA6;}
	.st144{fill:#DEDBE7;}
	.st145{fill:#B2965B;}
	.st146{fill:#1B305B;}
	.st147{fill:#F9F9FA;}
	.st148{fill:#E12039;}
	.st149{fill:#FEF4F4;}
</style>
<g>
	<path class="st50" d="M102.1,59.7c0-25.7-20.8-46.5-46.5-46.5C30,13.2,9.2,34.1,9.2,59.7c0,25.7,20.8,46.5,46.5,46.5
		C81.3,106.2,102.1,85.4,102.1,59.7z"/>
	<g>
		<g>
			<path class="st50" d="M19.8,99.9l-6.5,3.3c-0.3,0.2-0.5,0.3-0.6,0.3c-0.2,0.2-0.1,0.5,0.1,0.8l-0.2,0.2l-2.8-2.5l0.2-0.2
				c0.3,0.2,0.6,0.2,0.8-0.1c0.1-0.1,0.2-0.3,0.3-0.7l3.3-8.6c0.2-0.4,0.2-0.7,0.3-0.9c0-0.2-0.1-0.4-0.2-0.6l0.2-0.2l3,2.7
				l-0.2,0.2c-0.3-0.2-0.6-0.2-0.7,0c-0.1,0.1-0.2,0.3-0.3,0.5l-2.4,6.1l6-3c0.3-0.1,0.4-0.2,0.5-0.3c0.2-0.2,0.1-0.4-0.1-0.8
				l0.2-0.2l3.1,2.8l-0.2,0.2c-0.4-0.2-0.6-0.2-0.8,0c-0.1,0.1-0.1,0.2-0.2,0.5l-2.4,6.2l5.7-3c0.3-0.1,0.5-0.3,0.6-0.4
				c0.2-0.2,0.1-0.4-0.1-0.8l0.2-0.2l2.9,2.6l-0.2,0.2c-0.3-0.1-0.5-0.2-0.6-0.2c-0.2,0-0.5,0.1-0.9,0.4l-8.2,4.2
				c-0.4,0.2-0.6,0.3-0.7,0.5c-0.2,0.2-0.2,0.5,0.1,0.8l-0.2,0.2l-2.8-2.5l0.2-0.2c0.3,0.2,0.6,0.2,0.8,0c0.1-0.1,0.2-0.3,0.3-0.7
				L19.8,99.9z"/>
			<path class="st50" d="M31.8,113.9l-4.7-2.3l-1.4,1.1c-0.2,0.2-0.3,0.3-0.4,0.4c-0.1,0.2,0,0.5,0.3,0.7l-0.1,0.2l-3.4-1.7l0.1-0.2
				c0.2,0.1,0.4,0.1,0.6,0c0.2-0.1,0.4-0.2,0.7-0.4l7.7-6.2c0.2-0.2,0.4-0.4,0.5-0.5c0.1-0.2,0.1-0.5-0.2-0.7l0.1-0.2l3.7,1.8
				l-0.1,0.2c-0.3-0.1-0.6,0-0.7,0.2c-0.1,0.1-0.1,0.3-0.1,0.6l0,10c0,0.4,0,0.7,0.1,0.9c0.1,0.2,0.2,0.4,0.4,0.5l-0.1,0.2l-3.8-1.9
				l0.1-0.2c0.4,0.1,0.6,0,0.7-0.2c0.1-0.1,0.1-0.3,0.1-0.5L31.8,113.9z M31.9,112.2l0.1-4.6l-3.5,2.9L31.9,112.2z"/>
			<path class="st50" d="M40.8,115.2L40,119c0,0.2,0,0.3,0,0.4c0.1,0.1,0.2,0.2,0.4,0.3l-0.1,0.3l-3.5-0.7l0.1-0.3
				c0.2,0,0.4-0.1,0.5-0.1c0.1-0.1,0.2-0.2,0.2-0.4l2-9.7c0-0.2,0-0.3,0-0.4c-0.1-0.1-0.2-0.2-0.4-0.3l0.1-0.3l7.1,1.4
				c0.9,0.2,1.5,0.4,2,0.6c0.5,0.2,0.9,0.5,1.2,0.8c0.4,0.4,0.6,0.8,0.7,1.4c0.1,0.5,0.1,1.1,0,1.6c-0.4,1.9-1.6,2.7-3.7,2.6
				l1.5,3.6c0.3,0.6,0.5,1,0.6,1.2c0.1,0.2,0.3,0.3,0.6,0.4l-0.1,0.3l-4.1-0.8l0.1-0.3c0.3,0,0.5-0.1,0.5-0.2c0-0.1-0.1-0.4-0.2-0.8
				l-1.6-3.8L40.8,115.2z M41.2,113.3l3.8,0.8c0.6,0.1,1,0.2,1.2,0.2c0.2,0,0.5,0,0.7-0.1c0.5-0.1,0.8-0.5,0.9-1.1
				c0.1-0.6,0-1.1-0.4-1.4c-0.2-0.2-0.4-0.3-0.6-0.3c-0.2-0.1-0.6-0.2-1.2-0.3l-3.8-0.8L41.2,113.3z"/>
			<path class="st50" d="M54.6,117l0.2,3.9c0,0.2,0.1,0.3,0.1,0.4c0.1,0.1,0.2,0.2,0.4,0.2l0,0.3l-3.6,0.2l0-0.3
				c0.2-0.1,0.3-0.1,0.4-0.2c0.1-0.1,0.1-0.2,0.1-0.4l-0.5-9.9c0-0.2-0.1-0.3-0.1-0.4c-0.1-0.1-0.2-0.2-0.4-0.2l0-0.3l7.2-0.3
				c0.9,0,1.6,0,2.1,0.1c0.5,0.1,1,0.2,1.4,0.5c0.5,0.3,0.8,0.7,1.1,1.2c0.2,0.5,0.4,1,0.4,1.6c0.1,1.9-0.9,3.1-3,3.5l2.4,3.1
				c0.4,0.5,0.7,0.9,0.9,1c0.2,0.2,0.4,0.2,0.7,0.2l0,0.3l-4.2,0.2l0-0.3c0.3-0.1,0.4-0.2,0.4-0.3c0-0.1-0.1-0.3-0.4-0.7l-2.5-3.3
				L54.6,117z M54.5,115l3.9-0.2c0.6,0,1-0.1,1.2-0.1s0.4-0.1,0.6-0.2c0.4-0.3,0.6-0.7,0.6-1.3c0-0.6-0.3-1-0.7-1.2
				c-0.2-0.1-0.4-0.2-0.7-0.2c-0.2,0-0.6,0-1.2,0l-3.9,0.2L54.5,115z"/>
			<path class="st50" d="M66.6,119.6l-2.1-9.6c0-0.2-0.1-0.3-0.2-0.4c-0.1-0.1-0.2-0.1-0.5-0.1l-0.1-0.3l3.5-0.8l0.1,0.3
				c-0.2,0.1-0.3,0.2-0.4,0.3c-0.1,0.1-0.1,0.2,0,0.4l2.1,9.6c0,0.2,0.1,0.3,0.2,0.4c0.1,0.1,0.3,0.1,0.5,0.1l0.1,0.3l-3.5,0.8
				l-0.1-0.3c0.2-0.1,0.3-0.2,0.4-0.3C66.6,119.9,66.6,119.8,66.6,119.6z"/>
			<path class="st50" d="M73.7,106c1.9-0.8,3.5-0.9,5-0.3c1.6,0.6,2.7,1.7,3.5,3.4c0.4,1,0.6,2.1,0.4,3.2c-0.3,2.2-1.7,3.8-4.2,4.8
				c-1.8,0.8-3.5,0.9-5,0.3c-0.8-0.3-1.5-0.8-2.1-1.4c-0.5-0.6-1-1.2-1.3-1.9c-0.5-1.1-0.6-2.2-0.4-3.3
				C69.9,108.7,71.3,107.1,73.7,106z M74.5,107.8c-1,0.4-1.7,1.1-2.1,2c-0.5,1.1-0.5,2.2,0,3.3c0.5,1.2,1.3,1.9,2.4,2.3
				c0.9,0.3,1.9,0.3,2.9-0.2c1-0.4,1.7-1.1,2.2-2c0.2-0.5,0.4-1.1,0.4-1.7c0-0.5-0.1-1.1-0.3-1.6c-0.5-1.2-1.3-2-2.4-2.4
				C76.5,107.3,75.5,107.4,74.5,107.8z"/>
			<path class="st50" d="M86.6,107.1l2.4,3.1c0.1,0.1,0.2,0.2,0.3,0.2c0.1,0,0.3,0,0.5-0.1l0.2,0.2l-2.8,2.2l-0.2-0.2
				c0.1-0.2,0.2-0.3,0.2-0.4c0-0.1,0-0.2-0.1-0.4l-6-7.8c-0.1-0.1-0.2-0.2-0.3-0.2c-0.1,0-0.3,0-0.5,0.1l-0.2-0.2l5.7-4.4
				c0.7-0.5,1.3-0.9,1.8-1.1c0.5-0.2,0.9-0.4,1.4-0.4c0.5,0,1,0.1,1.5,0.3c0.5,0.3,0.9,0.6,1.2,1.1c1.2,1.5,1,3-0.4,4.6l3.7,1.2
				c0.7,0.2,1.1,0.3,1.3,0.3c0.2,0,0.5,0,0.7-0.2l0.2,0.2l-3.3,2.5l-0.2-0.2c0.2-0.2,0.3-0.4,0.2-0.5c-0.1-0.1-0.3-0.2-0.8-0.3
				l-3.9-1.3L86.6,107.1z M85.4,105.6l3.1-2.4c0.5-0.3,0.8-0.6,0.9-0.8c0.2-0.2,0.3-0.4,0.4-0.6c0.2-0.4,0.1-0.9-0.3-1.4
				c-0.4-0.5-0.8-0.7-1.3-0.6c-0.2,0-0.4,0.1-0.6,0.2c-0.2,0.1-0.5,0.3-1,0.7l-3.1,2.4L85.4,105.6z"/>
			<path class="st50" d="M97.2,88.2l1.3,2.8l-0.3,0.1c0,0-0.1-0.1-0.1-0.1c-0.1-0.1-0.4-0.1-0.8,0c-1.2,0.3-2.2,1-3.1,2.1
				c-0.4,0.5-0.7,0.9-0.8,1.4c-0.1,0.3-0.2,0.6-0.1,0.9c0,0.3,0.2,0.5,0.4,0.7c0.3,0.3,0.7,0.3,1.2,0c0.2-0.2,0.7-0.6,1.3-1.2
				l0.9-0.9c0.6-0.6,1.1-1,1.5-1.3c0.4-0.3,0.9-0.5,1.3-0.6c0.5-0.1,0.9-0.1,1.4,0c0.5,0.1,0.9,0.3,1.3,0.7c0.6,0.5,1,1.2,1.2,2
				c0.2,0.7,0,1.6-0.4,2.5c-0.3,0.7-0.7,1.4-1.3,2c-1,1.2-2.2,2.1-3.7,2.8c-0.3,0.2-0.5,0.2-0.5,0.3c0,0.1-0.1,0.2-0.1,0.4l-0.3,0.1
				l-1.4-2.8l0.2-0.1c0,0,0.1,0.1,0.1,0.1c0.2,0.2,0.5,0.2,0.8,0.2c0.5-0.1,1.1-0.3,1.7-0.8c0.7-0.4,1.2-0.9,1.7-1.5
				c0.5-0.6,0.8-1.2,0.9-1.7c0.1-0.3,0.1-0.6,0-0.9c-0.1-0.3-0.2-0.5-0.4-0.7c-0.3-0.2-0.6-0.3-1,0c-0.3,0.2-0.7,0.5-1.3,1.1
				l-0.9,0.9c-0.6,0.6-1.1,1-1.4,1.3c-0.3,0.2-0.6,0.4-1,0.6c-0.5,0.2-1.1,0.3-1.7,0.2c-0.5-0.1-1-0.3-1.5-0.7
				c-0.8-0.6-1.2-1.4-1.3-2.3c-0.1-1.2,0.4-2.5,1.5-3.9c0.5-0.6,1-1.1,1.5-1.4c0.5-0.4,1.2-0.8,2.2-1.3c0.3-0.2,0.5-0.3,0.5-0.3
				c0.1-0.1,0.1-0.2,0.1-0.4L97.2,88.2z"/>
		</g>
	</g>
	<g>
		<g>
			<path class="st50" d="M14.7,28.8l-1,1.5c-0.1,0.1-0.1,0.2-0.1,0.2c0,0.1,0.1,0.2,0.1,0.3l-0.1,0.1l-1.4-0.9l0.1-0.1
				c0.1,0,0.2,0.1,0.3,0c0.1,0,0.1-0.1,0.2-0.2l1.9-2.8l0.1,0.1c0,0.1-0.1,0.2,0,0.3c0,0.1,0.1,0.1,0.2,0.2l1.2,0.8
				c0.1,0.1,0.2,0.1,0.2,0.1c0.1,0,0.2-0.1,0.3-0.1l0.1,0.1c-0.1,1.6-0.5,2.9-1.3,3.9c-0.6,0.9-1.4,1.6-2.3,1.9
				c-1.1,0.4-2.1,0.2-3.1-0.5c-0.9-0.6-1.5-1.5-1.6-2.5c-0.1-1,0.2-2,0.9-3.1c0.2-0.3,0.5-0.6,0.7-0.9c0.3-0.3,0.6-0.5,1-0.8
				c0.2-0.1,0.3-0.3,0.4-0.3c0-0.1,0.1-0.2,0-0.3l0.1-0.1l0.9,1.7l-0.1,0.1c-0.1-0.1-0.2-0.1-0.2-0.1c-0.1,0-0.1,0-0.3,0.1
				c-0.3,0.1-0.5,0.3-0.9,0.5c-0.3,0.3-0.6,0.6-0.8,0.9c-0.4,0.6-0.6,1.2-0.5,1.9c0.1,0.7,0.4,1.3,1.1,1.7c0.6,0.4,1.3,0.5,2,0.4
				c0.6-0.2,1.2-0.6,1.6-1.3c0.2-0.3,0.4-0.7,0.5-1c0.1-0.4,0.2-0.7,0.3-1L14.7,28.8z"/>
			<path class="st50" d="M17.2,19c0.9-0.9,1.9-1.3,2.8-1.3c1,0,1.9,0.4,2.7,1.2c0.5,0.5,0.8,1.1,0.9,1.8c0.3,1.3-0.2,2.6-1.4,3.7
				c-0.9,0.8-1.8,1.3-2.8,1.3c-0.5,0-1-0.1-1.5-0.3c-0.4-0.2-0.8-0.5-1.1-0.8c-0.5-0.5-0.8-1.1-0.9-1.8C15.6,21.4,16,20.1,17.2,19z
				 M18.1,19.9c-0.5,0.5-0.8,1-0.8,1.6c-0.1,0.7,0.2,1.4,0.7,1.9c0.5,0.6,1.2,0.8,1.9,0.8c0.6,0,1.2-0.3,1.7-0.7
				c0.5-0.5,0.8-1,0.8-1.6c0-0.4,0-0.7-0.2-1.1c-0.1-0.3-0.3-0.6-0.5-0.8c-0.6-0.6-1.2-0.9-1.9-0.8C19.1,19.2,18.6,19.4,18.1,19.9z"
				/>
			<path class="st50" d="M27.5,18.5l3.7-2.4c0.1-0.1,0.1-0.1,0.2-0.2c0-0.1,0-0.2,0-0.3l0.1-0.1l1,1.5l-0.1,0.1
				c-0.1-0.1-0.2-0.1-0.3-0.1c-0.1,0-0.2,0-0.2,0.1l-5.3,3.4l-0.1-0.1c0.1-0.1,0.1-0.2,0.1-0.3c0-0.1,0-0.2-0.1-0.2l-3.3-5.1
				c-0.1-0.1-0.1-0.1-0.2-0.2c-0.1,0-0.2,0-0.3,0l-0.1-0.1l1.9-1.2l0.1,0.1c-0.1,0.1-0.1,0.2-0.1,0.3c0,0.1,0,0.2,0.1,0.2L27.5,18.5
				z"/>
			<path class="st50" d="M33.9,15.3l-2.3-5.6c0-0.1-0.1-0.2-0.2-0.2c-0.1,0-0.2,0-0.3,0l-0.1-0.2l3.7-1.5c0.8-0.3,1.5-0.5,2-0.5
				c0.7,0,1.4,0.3,1.9,0.8c0.4,0.4,0.8,0.9,1,1.6c0.5,1.1,0.5,2.1,0,3c-0.2,0.4-0.5,0.7-0.8,1c-0.3,0.3-0.8,0.5-1.4,0.8L33.8,16
				l-0.1-0.2c0.1-0.1,0.2-0.2,0.2-0.2C33.9,15.5,33.9,15.4,33.9,15.3z M35.1,14.2l1.8-0.7c0.6-0.2,1-0.5,1.2-0.8
				c0.5-0.6,0.5-1.4,0.1-2.4c-0.3-0.7-0.7-1.2-1.2-1.4c-0.3-0.1-0.6-0.2-0.9-0.2c-0.3,0-0.7,0.1-1.1,0.3l-1.8,0.7L35.1,14.2z"/>
			<path class="st50" d="M44.1,9.1l0.4,1.9l4.5-0.9c0.1,0,0.2-0.1,0.2-0.1c0-0.1,0.1-0.2,0.1-0.3l0.2,0l0.4,1.8l-0.2,0
				c-0.1-0.1-0.1-0.2-0.2-0.2c-0.1,0-0.1,0-0.2,0l-6.4,1.2l0-0.2c0.1-0.1,0.2-0.1,0.2-0.2c0-0.1,0-0.1,0-0.3L41.9,6
				c0-0.1-0.1-0.2-0.1-0.2c-0.1,0-0.2-0.1-0.3-0.1l0-0.2l6.2-1.2c0.1,0,0.2-0.1,0.2-0.1C48,4.2,48,4.1,48,3.9l0.2,0l0.4,1.8l-0.2,0
				c-0.1-0.1-0.1-0.2-0.2-0.2c-0.1,0-0.1,0-0.3,0l-4.4,0.9L43.9,8l2.8-0.6c0.1,0,0.2-0.1,0.2-0.1C47,7.3,47,7.2,47,7.1l0.2,0
				l0.3,1.8l-0.2,0c-0.1-0.1-0.1-0.2-0.2-0.2c-0.1,0-0.1,0-0.3,0L44.1,9.1z"/>
			<path class="st50" d="M53.3,6.1l0.1,4.3c0,0.1,0,0.2,0.1,0.2c0,0.1,0.1,0.1,0.3,0.1l0,0.2l-2.1,0l0-0.2c0.1,0,0.2-0.1,0.3-0.1
				c0-0.1,0.1-0.1,0.1-0.2l-0.1-6c0-0.1,0-0.2-0.1-0.2s-0.1-0.1-0.3-0.1l0-0.2l2.4,0l0,0.2c-0.1,0-0.2,0.1-0.2,0.2
				c0,0.1,0.1,0.2,0.2,0.3l4,4l-0.1-4.2c0-0.1,0-0.2-0.1-0.2C57.6,4.1,57.6,4,57.4,4l0-0.2l2.1,0l0,0.2c-0.1,0-0.2,0.1-0.3,0.1
				c0,0.1-0.1,0.1-0.1,0.2l0.1,6c0,0.1,0,0.2,0.1,0.2s0.1,0.1,0.3,0.1l0,0.2l-2.2,0l0-0.2c0.1,0,0.2-0.1,0.2-0.2
				c0-0.1-0.1-0.2-0.3-0.4L53.3,6.1z"/>
			<path class="st50" d="M74.4,7.6L73.1,9L73,8.9c0,0,0-0.1,0-0.1c0-0.1,0-0.3-0.2-0.5c-0.5-0.6-1.1-1-1.9-1.2C70.6,7,70.3,7,70,7
				c-0.2,0-0.4,0.1-0.6,0.2c-0.2,0.1-0.3,0.2-0.3,0.4c-0.1,0.3,0,0.5,0.3,0.7c0.1,0.1,0.5,0.2,1,0.5l0.8,0.3
				c0.5,0.2,0.8,0.4,1.1,0.5c0.3,0.2,0.5,0.4,0.7,0.6c0.2,0.2,0.3,0.5,0.4,0.8c0.1,0.3,0,0.6-0.1,0.9c-0.1,0.5-0.4,0.9-0.8,1.1
				c-0.4,0.3-0.9,0.4-1.5,0.4c-0.5,0-1-0.1-1.5-0.2c-0.9-0.3-1.7-0.7-2.5-1.4c-0.2-0.1-0.3-0.2-0.3-0.2c0,0-0.1,0-0.2,0l-0.1-0.1
				l1.2-1.5l0.1,0.1c0,0,0,0.1,0,0.1c0,0.2,0,0.3,0.1,0.5c0.2,0.3,0.4,0.5,0.9,0.8c0.4,0.3,0.8,0.5,1.2,0.6c0.4,0.1,0.8,0.2,1.2,0.1
				c0.2,0,0.4-0.1,0.5-0.2c0.1-0.1,0.2-0.2,0.3-0.4c0.1-0.2,0-0.4-0.2-0.6c-0.2-0.1-0.5-0.3-1-0.5L69.8,10c-0.5-0.2-0.9-0.4-1.1-0.5
				c-0.2-0.1-0.4-0.3-0.6-0.4c-0.3-0.2-0.4-0.5-0.5-0.9c-0.1-0.3-0.1-0.6,0-1c0.2-0.6,0.5-1,1-1.3c0.7-0.3,1.5-0.4,2.6-0.1
				c0.4,0.1,0.8,0.3,1.2,0.5c0.4,0.2,0.8,0.5,1.3,0.9C73.9,7.5,74,7.5,74,7.6c0.1,0,0.2,0,0.3,0L74.4,7.6z"/>
			<path class="st50" d="M80.3,10.9l-2.4,4.9c0,0.1-0.1,0.2,0,0.3c0,0.1,0.1,0.2,0.2,0.2L78,16.4l-2-1l0.1-0.1c0.1,0,0.2,0,0.3,0
				c0.1,0,0.1-0.1,0.2-0.2l2.4-4.9l-2-1c-0.1,0-0.2-0.1-0.2,0c-0.1,0-0.2,0.1-0.2,0.2l-0.1-0.1L77,7.6l0.1,0.1c0,0.1,0,0.2,0,0.3
				c0,0.1,0.1,0.1,0.2,0.2l5.4,2.6c0.1,0,0.2,0.1,0.3,0c0.1,0,0.2-0.1,0.2-0.2l0.2,0.1l-0.8,1.7l-0.1-0.1c0-0.1,0-0.2,0-0.3
				c0-0.1-0.1-0.1-0.2-0.2L80.3,10.9z"/>
			<path class="st50" d="M85.7,19.1l-2.7-1.8l-1,0.5c-0.1,0.1-0.2,0.1-0.3,0.2c-0.1,0.1-0.1,0.3,0.1,0.5l-0.1,0.1l-1.9-1.3l0.1-0.1
				c0.1,0.1,0.2,0.1,0.3,0.1c0.1,0,0.2-0.1,0.4-0.2l5.3-3c0.2-0.1,0.3-0.2,0.3-0.3c0.1-0.1,0.1-0.3-0.1-0.5l0.1-0.1l2.1,1.4
				l-0.1,0.1c-0.2-0.1-0.3,0-0.4,0.1c-0.1,0.1-0.1,0.2-0.1,0.3L87,21.1c0,0.3,0,0.4,0,0.6c0,0.1,0.1,0.2,0.2,0.3L87,22.2l-2.2-1.5
				l0.1-0.1c0.2,0.1,0.4,0.1,0.5-0.1c0-0.1,0.1-0.2,0.1-0.3L85.7,19.1z M85.9,18l0.5-2.7L84,16.7L85.9,18z"/>
			<path class="st50" d="M93.9,20.7l-3.7,3.9c-0.1,0.1-0.1,0.2-0.1,0.2c0,0.1,0,0.2,0.1,0.3l-0.1,0.1l-1.6-1.5l0.1-0.1
				c0.1,0.1,0.2,0.1,0.3,0.1c0.1,0,0.1,0,0.2-0.1l3.7-3.9l-1.6-1.5C91.1,18,91.1,18,91,18c-0.1,0-0.2,0-0.3,0.1l-0.1-0.1l1.3-1.3
				l0.1,0.1c-0.1,0.1-0.1,0.2-0.1,0.3c0,0.1,0,0.1,0.1,0.2l4.3,4.1c0.1,0.1,0.2,0.1,0.2,0.1c0.1,0,0.2,0,0.3-0.1l0.1,0.1l-1.3,1.3
				l-0.1-0.1c0.1-0.1,0.1-0.2,0.1-0.3c0-0.1,0-0.1-0.1-0.2L93.9,20.7z"/>
			<path class="st50" d="M96.7,28l-1.6,1.1l2.7,3.7C97.9,32.9,98,33,98,33c0.1,0,0.2,0,0.3,0l0.1,0.1l-1.5,1.1l-0.1-0.1
				c0.1-0.1,0.1-0.2,0.1-0.3c0-0.1,0-0.2-0.1-0.2l-3.8-5.2l0.1-0.1c0.1,0.1,0.2,0.1,0.3,0.1c0.1,0,0.2,0,0.2-0.1l4.9-3.5
				c0.1-0.1,0.1-0.1,0.2-0.2c0-0.1,0-0.2,0-0.3l0.1-0.1l3.7,5.1c0.1,0.1,0.1,0.1,0.2,0.1c0.1,0,0.2,0,0.3,0l0.1,0.1l-1.5,1.1
				l-0.1-0.1c0.1-0.1,0.1-0.2,0.1-0.3c0-0.1,0-0.2-0.1-0.2L99,26.4l-1.4,1l1.7,2.3c0.1,0.1,0.1,0.1,0.2,0.2c0.1,0,0.2,0,0.3,0
				l0.1,0.1L98.5,31l-0.1-0.1c0.1-0.1,0.1-0.2,0.1-0.3c0-0.1,0-0.2-0.1-0.2L96.7,28z"/>
		</g>
	</g>
	<path class="st51" d="M55.7,15.8c-23.7,0-42.8,19.1-42.8,42.6s19.2,42.6,42.8,42.6S98.5,82,98.5,58.5S79.3,15.8,55.7,15.8z
		 M55.7,18.4c22.2,0,40.2,17.9,40.2,40c0,6.8-1.7,13.2-4.7,18.8l0.1-0.5c0,0-8.5-1.5-20.7-7.4c-19.7-9.6-35-26.8-35-26.8v-5.2
		l-1.5-0.6L33,37.8v1.8L32.5,39l-0.2-3L30.9,36c0.2,1.1-1,1.3-1,1.3s-0.1,1.2-0.5,5.7C25.5,53.1,17.8,62,15.8,64.2
		c-0.3-1.9-0.4-3.8-0.4-5.7C15.4,36.4,33.4,18.4,55.7,18.4z M45.8,85.5c7.1-0.9,39.7-0.3,39.7-0.3l0.3-0.1c-0.4,0.4-0.8,0.9-1.2,1.3
		C78.6,85.5,61.6,85.4,45.8,85.5z M16.3,66.9c0,0,1.1-1.3,1.4-1.9c0.1-0.3-0.9,3.8-0.9,3.6C16.8,68.5,16.4,67.2,16.3,66.9
		C16.3,66.9,16.3,66.9,16.3,66.9z M19.1,62.8c0,0,1.6-2.1,1.9-2.8l-2.4,13.8l-1.1-3.1L19.1,62.8z M19.2,75.4l3-17.2l2.7-4.6
		l-4.3,24.4l-1.3-2.3C19.3,75.7,19.3,75.5,19.2,75.4z M26,82.3l-2.4,0.3l5.8-32.7L29.3,64L26,82.3z M29.1,69.5l0,12.4l-2.2,0.2
		L29.1,69.5z M22.9,81.5c-0.6-0.5-1.6-2.3-1.6-2.3l5.1-28.2l3.1-6.3L22.9,81.5z M29.2,87.4l-0.2,1c-0.3-0.3-0.7-0.6-1-0.9L29.2,87.4
		z M32.4,39.7l0.7,0.6l1.3,40.9l-0.9,0.1L32.4,39.7z M33.9,87.2l0.9-0.1l0.1,5.7c-0.3-0.2-0.7-0.4-1-0.6V87.2z M36.6,68.1l4.1,12.6
		l-3.3,0.2L36.6,68.1z M36.4,64.4l-0.2-8.5l7.7,24.5l-2.3,0.2L36.4,64.4z M36,52.3l-0.2-9.2c0,0,0.4,0.6,0.6,1.1
		c0.2,0.6,11.2,35.6,11.2,35.7c0,0.1-2.7,0.2-2.7,0.2L36,52.3z M74.9,78.6l-2.5-0.1l-2-6.8l2.8,1.6L74.9,78.6z M74.2,74l0.2,0l0,0
		l3.1,1.5l0.8,3.1l-2.4,0L74.4,74L74.2,74z M71.4,78.6c-0.1,0-2.6,0.2-2.6,0.2l-3.1-9.8l3.5,2.3C69.1,71.1,71.5,78.5,71.4,78.6z
		 M67.9,78.8l-2.5,0.1c0,0-4-12.9-4-13l3.2,2.2L67.9,78.8z M64.4,79L62,79.1l-5.3-16.6l3.1,2.1L64.4,79z M61,79l-2.7,0.2l-6.6-20.7
		l3.7,3.1L61,79z M57.6,79.3l-2.3,0.1c0,0-6.5-19.9-8.1-25.1c0.4,0.4,3.4,3,3.4,3L57.6,79.3z M54.2,79.5l-2.4,0.2l-9.6-29.7l3.6,3.2
		L54.2,79.5z M50.7,79.7l-2.4,0.2l-11.1-35l3.6,3.5L50.7,79.7z M78.5,76.1c1.3,0.6,6.4,2.6,6.5,2.6c0.1,0-5.6-0.1-5.8-0.1
		C79.1,78.6,78.5,76.1,78.5,76.1z M38.5,94.7c-0.1-1.6-0.4-5.5-0.6-7.6c14.3-1.2,39.5,0.6,44.9,1.1c-7.1,6.5-16.6,10.4-27.1,10.4
		C49.5,98.5,43.7,97.2,38.5,94.7z"/>
</g>
</svg>
