<?xml version="1.0" encoding="utf-8"?>
<!-- Generator: Adobe Illustrator 23.0.1, SVG Export Plug-In . SVG Version: 6.00 Build 0)  -->
<svg version="1.1" id="Capa_1" xmlns="http://www.w3.org/2000/svg" xmlns:xlink="http://www.w3.org/1999/xlink" x="0px" y="0px"
	 viewBox="0 0 127.4 95.3" style="enable-background:new 0 0 127.4 95.3;" xml:space="preserve">
<style type="text/css">
	.st0{fill:#175384;}
	.st1{fill:#A0A5AA;}
	.st2{fill:#0B040C;}
	.st3{fill:#FFC727;}
	.st4{fill:#F0545B;}
	.st5{fill:#FFFFFF;}
	.st6{fill:#00A855;}
	.st7{fill:#B4C4C9;}
	.st8{fill:#221A21;}
	.st9{fill:#EF3A47;}
	.st10{fill:url(#SVGID_1_);}
	.st11{fill:url(#SVGID_2_);}
	.st12{fill:url(#SVGID_3_);}
	.st13{fill:url(#SVGID_4_);}
	.st14{fill:url(#SVGID_5_);}
	.st15{fill:url(#SVGID_6_);}
	.st16{fill:url(#SVGID_7_);}
	.st17{fill:url(#SVGID_8_);}
	.st18{fill:url(#SVGID_9_);}
	.st19{fill:url(#SVGID_10_);}
	.st20{fill:url(#SVGID_11_);}
	.st21{fill:url(#SVGID_12_);}
	.st22{fill:#313564;}
	.st23{fill:#F04B41;stroke:#FFFFFF;stroke-width:2.1543;stroke-linecap:round;stroke-linejoin:round;stroke-miterlimit:10;}
	.st24{fill:#007FBA;stroke:#FFFFFF;stroke-width:2.1543;stroke-linecap:round;stroke-linejoin:round;stroke-miterlimit:10;}
	.st25{fill:#313564;stroke:#FFFFFF;stroke-width:2.1543;stroke-linecap:round;stroke-linejoin:round;stroke-miterlimit:10;}
	.st26{fill:#FFFFFF;stroke:#FFFFFF;stroke-width:2.1543;stroke-linecap:round;stroke-linejoin:round;stroke-miterlimit:10;}
	.st27{clip-path:url(#SVGID_14_);}
	.st28{fill:#FBAC36;stroke:#FFFFFF;stroke-width:2.1543;stroke-linecap:round;stroke-linejoin:round;stroke-miterlimit:10;}
	.st29{fill:#F04B41;}
	.st30{fill:#007FBA;}
	.st31{clip-path:url(#SVGID_16_);}
	.st32{fill:#FBAC36;}
	.st33{fill:#2C2F61;}
	.st34{fill:#B7B9BA;}
	.st35{fill:#EF3748;}
	.st36{fill:#8999AC;}
	.st37{fill:#2B2F61;}
	.st38{fill:#EE2C45;}
	.st39{fill:#101624;}
	.st40{fill:#59707A;}
	.st41{fill:#4A3285;}
	.st42{fill:#F79230;}
	.st43{fill:#F15733;}
	.st44{fill:#D7303F;}
	.st45{fill:#FAA832;}
	.st46{fill:#1F1721;}
	.st47{fill:#5F3188;}
	.st48{fill:#EE243D;}
	.st49{fill:#1F4BA0;}
	.st50{fill:#244789;}
	.st51{fill:#FBAE2E;}
	.st52{fill:#006991;}
	.st53{fill:#F9A01B;stroke:#FFFFFF;stroke-width:0.4473;stroke-miterlimit:10;}
	.st54{fill:#FAA533;}
	.st55{fill:#0092BC;}
	.st56{fill:#15182C;}
	.st57{fill:#3E419A;}
	.st58{fill:#101721;}
	.st59{fill:#ADA3A5;}
	.st60{fill:#9CA7AC;}
	.st61{clip-path:url(#SVGID_18_);}
	.st62{clip-path:url(#SVGID_20_);}
	.st63{fill:#F3FAF7;}
	.st64{fill:#2D2F63;}
	.st65{fill:#FAA819;}
	.st66{fill:#FEF6FA;}
	.st67{fill:#004F30;}
	.st68{fill:#A2C7D3;}
	.st69{fill:#EE2E55;}
	.st70{fill:#32366E;}
	.st71{fill:#00ADDC;}
	.st72{fill:#FFFFFF;stroke:#00ACD0;stroke-width:0.2915;stroke-miterlimit:10;}
	.st73{fill:#FFFFFF;stroke:#00ACD0;stroke-width:0.2973;stroke-miterlimit:10;}
	.st74{fill:#450000;}
	.st75{fill:#EE224A;}
	.st76{fill:#0064A5;}
	.st77{fill:#F47736;}
	.st78{fill:#B5BCBF;}
	.st79{fill:#F47B35;}
	.st80{fill:#EE2B52;}
	.st81{fill:#0C060E;}
	.st82{fill:#B58D49;}
	.st83{fill:#C9BBCB;}
	.st84{fill:#BA924C;}
	.st85{fill:#006BAF;}
	.st86{fill:#B3C5CB;}
	.st87{fill:#898C89;}
	.st88{fill:#2E2C61;}
	.st89{fill:#C3C5BD;}
	.st90{fill:#C4D2D9;}
	.st91{fill:#EE284D;}
	.st92{fill:#161212;}
	.st93{fill:#EE274E;}
	.st94{fill:#A2A7AA;}
	.st95{fill:#A6AAAC;}
	.st96{fill:#A1A2AB;}
	.st97{fill:#110B13;}
	.st98{fill:#AFC1C6;}
	.st99{fill:#0067AD;}
	.st100{fill:#FBFBFB;}
	.st101{fill:#0065AF;}
	.st102{fill:#121A26;}
	.st103{fill:#008D4C;}
	.st104{fill:#B43A3D;}
	.st105{fill:#111623;}
	.st106{fill:#AB9048;}
	.st107{fill:#F8A174;}
	.st108{fill:#120B19;}
	.st109{fill:#C59751;}
	.st110{fill:#B33638;}
	.st111{fill:#009154;}
	.st112{fill:#1C2026;}
	.st113{fill:#EE2844;}
	.st114{fill:#30385F;}
	.st115{fill:#3A84B1;}
	.st116{fill:#A3C5D7;}
	.st117{fill:#F9A039;}
	.st118{fill:#B0BEC0;}
	.st119{fill:#231D46;}
	.st120{fill:#FDB840;}
	.st121{fill:#CD2C32;}
	.st122{fill:#272049;}
	.st123{fill:#FEC027;}
	.st124{fill:#ADC7C6;}
	.st125{fill:#014429;}
	.st126{fill:#DF2539;}
	.st127{fill:#F57E30;}
	.st128{fill:#ED1942;}
	.st129{fill:#FEF9FB;}
	.st130{fill:#0065AA;}
	.st131{fill:#A6B5B8;}
	.st132{fill:#0B040C;stroke:#0B040C;stroke-width:0.2716;stroke-miterlimit:10;}
	.st133{fill:#F7F9FD;}
	.st134{fill:none;stroke:#EBF2CC;stroke-width:0.2972;stroke-miterlimit:10;}
	.st135{fill:#48484A;}
	.st136{opacity:0.2;}
	.st137{fill:#EE2E3B;}
	.st138{fill:#005BA6;}
	.st139{fill:#737577;}
	.st140{fill:#A1A0A5;}
	.st141{fill:#272360;}
	.st142{fill:#FAFAFB;}
	.st143{fill:#058BA6;}
	.st144{fill:#DEDBE7;}
	.st145{fill:#B2965B;}
	.st146{fill:#1B305B;}
	.st147{fill:#F9F9FA;}
	.st148{fill:#E12039;}
	.st149{fill:#FEF4F4;}
</style>
<g>
	<path class="st5" d="M52,15.3H30.4c0,0-2.6-0.2-4.7,2.4C23.5,20.4,11,34.8,11,34.8s-1.8,2.4,1.2,2.4c3,0,3.4,0,3.4,0
		s-13.9,9.9-12,26.3c1.9,16.4,22.1,24.6,33.3,10.7c3.6-0.1,9.5,0,9.5,0s11.2,15.1,32,15.1c20.9,0,42.3-15.9,42.3-42.2
		c0-26.3-21.7-41.4-42-41.4C61.7,5.7,52,15.3,52,15.3z"/>
	<path class="st48" d="M31.2,19.3h21.6c0,0,8.5-10,27.8-10c19.2,0,34,17.1,35.9,31.1c0,0,3.7,14.8-6.1,29
		C100.5,83.5,85.2,87,71.9,85c-13.3-2-22.9-12.8-24-15c-0.4,0-18.4-0.1-25,0.2c0,0-1.4,0.2-1.7-1c-0.3-1.2,2.3-0.7,2.3-0.7l85.2-0.1
		c0,0,11.5-16,3.9-34.6H19.3c0,0-1.6,0.3-1.1-0.7c0.5-1,2.4-0.7,2.4-0.7l23.1-0.1c0,0,0.9-2.3,1.4-3.1l-23.1,0c0,0-0.5-1.2,1.6-1.3
		c2.1-0.1,22.1,0,22.2,0c0.1,0,2-3,2-3l-22.3-0.1c0,0-0.2-1.4,1.8-1.4c2,0,21.7,0,21.7,0s2.1-2.4,2.6-2.8c-1.4,0-21.7,0-21.7,0
		S29.8,19.3,31.2,19.3z"/>
	<path class="st5" d="M57.4,18.1c0,0,7.8-7.1,22.3-7.1c5.7,2.2,10.1,5.2,7.1,9.7C85,19.9,75,13.7,57.4,18.1z"/>
	<path class="st5" d="M85.9,22c0,0-14.1-7.8-32.2-0.7c-4.3,4-7.7,10.3-7.8,11.2c5-0.1,20.2-0.2,20.2-0.2s8.5-3.3,10.4-4
		C78.6,27.6,84.2,25.1,85.9,22z"/>
	<path class="st5" d="M87.5,22.8c0,0-2.7,3.9-6.5,5.5c-3.8,1.6-10.2,4.1-10.2,4.1h19.8l3.5-5.3C94.1,27.1,89.2,23.4,87.5,22.8z"/>
	<path class="st5" d="M84.5,11.6c0,0,4.4,2.2,4.8,4.9c0.4,2.7-0.8,4.8-0.8,4.8l6.4,4.5l5.1-8.1C100.1,17.7,92.7,12,84.5,11.6z"/>
	<path class="st5" d="M101.5,18.8c0,0,6.1,4.6,9.1,10.8c-2.9-1.7-7,0.3-8.5,2.4c-1.7-1.5-5.6-5.2-5.6-5.2L101.5,18.8z"/>
	<path class="st5" d="M95.5,28.3c-0.2-0.1-2.8,4.1-2.8,4.1h7.3C100,32.4,96.5,28.8,95.5,28.3z"/>
	<path class="st5" d="M104.1,32.3c0,0,0.9-1.9,3.5-1.8c2.6,0.2,4.3,1.9,4.3,1.9L104.1,32.3z"/>
	<g>
		<path class="st49" d="M32.1,69.7c0,0-3.9,5-8.2,5c-3.8,0-10.1-4.4-7.5-17.3c2.6-12.9,9.2-19,15.1-19c6.2,0,7.7,3.7,8.3,6.7
			c0.1,1.1,0.8,1.4,1.3,0.6l2.4-8.3c0,0,0.6-1.8-1.3-1.7c-1.9,0.1-10.2,0.1-11.6,0.1c-2.5,0-12,1-18.1,9.7c-6.1,8.8-7.4,20.5,0.1,28
			c7.6,7.5,17.8,4.8,23-3.5C32.9,69.5,32.1,69.7,32.1,69.7z"/>
		<path class="st49" d="M20.9,61.9c0,0-0.9,1.7-2.2,2.6c3.4,0.3,11.7,0.2,11.7,0.2s1.7-4,1.6-5.4c-1.2,2-3.4,4.5-5.4,4.3
			c-2-0.2-1.7-0.7-1.2-2.4c0.6-1.7,2.8-10.7,2.8-10.7s1.2-2.6,2.5-3c-2-0.2-8.2,0-8.2,0s2.1,0.1,1.4,3.1
			C23.3,53.6,20.9,61.9,20.9,61.9z"/>
		<path class="st49" d="M37.5,61.3c0.6-2.9,2.7-11.2,2.7-11.2s0.8-2.3,1.9-2.7c-2.2-0.3-7-0.3-6.9,0.2c0,0,1.1,0.3,0.6,2.3
			c-0.5,2-3.1,12.5-3.1,12.5S32,64.1,31,64.6c2.1,0.2,7.3-0.1,7.3-0.1S36.9,64.2,37.5,61.3z"/>
		<path class="st49" d="M56.9,51.6c1.2-4.8-5.7-4.2-5.7-4.2l-7.6,0.1c0,0,2.2,0.3,1.3,3.6c-0.9,3.3-2.8,11.1-2.8,11.1
			s-1.2,2-1.9,2.3c1.2,0.1,7.5,0.1,7.5,0.1s-1.8-0.7-1.3-3c0.6-2.3,1.5-5,1.5-5S55.5,57.2,56.9,51.6z M52.6,51
			c-0.2,1.1-0.9,4.3-3.5,4.8c-0.5,0.1-1.4,0.3-1-1.1c0.3-1.4,1.4-5.6,1.4-5.6s0.3-1.2,1.7-1.1C52.6,48,52.8,49.8,52.6,51z"/>
		<path class="st49" d="M70.1,51.6c1.2-4.8-5.7-4.2-5.7-4.2l-7.6,0.1c0,0,2.2,0.3,1.3,3.6c-0.9,3.3-2.8,11.1-2.8,11.1
			s-1.2,2-1.9,2.3c1.2,0.1,7.5,0.1,7.5,0.1s-1.8-0.7-1.3-3c0.6-2.3,1.5-5,1.5-5S68.8,57.2,70.1,51.6z M65.8,51
			c-0.2,1.1-0.9,4.3-3.5,4.8c-0.5,0.1-1.4,0.3-1-1.1c0.3-1.4,1.4-5.6,1.4-5.6s0.3-1.2,1.7-1.1C65.8,48,66,49.8,65.8,51z"/>
		<path class="st49" d="M76.2,63.9c-1.9,0.3-3.3,0.1-3.3,0.1s-0.9-0.2-0.4-2c0.6-1.8,1.5-5.6,1.5-5.6s0.8-1.1,1.8-0.6
			c1,0.6,1.7,3.8,1.7,3.8l2-7.7c0,0-1.8,2.5-3,2.5c-1.2,0.1-1.8,0.3-1.6-1.5c0.2-1.8,1.5-4.6,1.7-4.6c0.2,0,5.4-1.2,4.9,3.7
			c1.1-2.3,1.2-4.6,1.2-4.6l-12.6,0.2c0,0,2,0.3,1.3,3c-0.7,2.7-2.9,11.1-2.9,11.1s-0.6,2-2.2,2.7c0.3,0.4,1.9,0.4,3.1,0.4
			c1.2,0,9.4,0,9.4,0s0.8-0.4,1-1.2c0.2-0.8,1.2-3.9,1.2-3.9S78.1,63.6,76.2,63.9z"/>
		<path class="st49" d="M109,47.6c-4.9-1.1-8.3-0.9-9.6,2.3c-1.3,3.1,1.4,6.3,1.8,6.8c0.4,0.5,3.1,4.1,2.2,6c-0.9,1.9-3,1.7-4.5,0.1
			c-1.5-1.6-1.3-4.5-1.4-4.9c-0.1-0.4-0.3,0.5-0.5,1.6c-0.2,1.5-0.7,4.2-2.1,4.1c-1.4,0-1.1-2.5-1.2-4.4c-0.1-1.8-0.6-2.4-1.1-2.6
			c-0.4-0.3-0.1-0.6-0.1-0.6s4.3-0.8,4.8-4.2c0.8-4.9-3.9-4.5-4-4.6c-0.1-0.1-9.3,0-9.3,0c-0.4,0.1,0.6,1,0.6,1c0.7,0.8,0,4,0,4
			s-1.6,6.2-2.2,9.1c-0.7,2.9-2.1,3.3-2.1,3.3s5.8,0.1,7.7,0c-2.2-1-1-4.5-0.8-5.4c0.3-1,0.8-2.5,1.3-2.4c0.9,0.1,1.3,1.9,1.2,5.2
			c-0.1,3.3,2,3.7,3.1,3.8c1.1,0.1,2.2-0.8,2.2-0.8s1.1,0.2,2.2-0.3c1.1-0.5,1.8-0.3,2.7,0.1c0.9,0.4,2,0.5,2,0.5
			c4.9-0.2,5.7-4.2,5.5-6.6c-0.2-2.3-2.7-5.3-4.1-7.8c-1.5-2.5,0.9-2.7,0.9-2.7c3.8-0.1,3.3,3.8,3.3,3.8S108.1,50.8,109,47.6z
			 M90,55.3c-1.8,0.5-1.6-0.8-1.6-0.8s1.3-5.4,1.4-5.5c0.2-0.9,1.2-0.9,1.2-0.9c1.5,0,2.2,2.2,1.9,3.7C92.7,53.3,91.8,54.8,90,55.3z
			"/>
	</g>
	<path class="st5" d="M50.9,70.1h11.6l-5.3,6.3C57.2,76.4,52.7,72.8,50.9,70.1z"/>
	<path class="st5" d="M58.6,77.3c-0.1-0.1,6-7.2,6-7.2h29.9c0,0-3.1,10.5-11.1,13.2C77.5,84,67.9,83.8,58.6,77.3z"/>
	<path class="st5" d="M96.2,70.2c0,0-2.8,8.9-8.1,12.1c4.6-0.9,13.1-4.5,19.3-12.1C103.4,70,96.2,70.2,96.2,70.2z"/>
	<g>
		<g>
			<path class="st49" d="M46.9,43.5l1.3-6.3h1.3l-1.1,5.2h3.2l-0.2,1H46.9z"/>
			<path class="st49" d="M51.6,41.1c0-0.4,0.1-0.8,0.2-1.2c0.1-0.5,0.4-1,0.7-1.4c0.3-0.4,0.7-0.7,1.1-1c0.5-0.2,1-0.4,1.5-0.4
				c0.8,0,1.4,0.2,1.9,0.7c0.5,0.5,0.7,1.1,0.7,1.9c0,0.7-0.2,1.3-0.5,1.9c-0.3,0.6-0.7,1.1-1.3,1.4c-0.5,0.3-1.1,0.5-1.8,0.5
				c-0.6,0-1.1-0.1-1.5-0.4c-0.4-0.3-0.7-0.6-0.8-1C51.7,41.9,51.6,41.5,51.6,41.1z M52.9,41.1c0,0.4,0.1,0.8,0.4,1.1
				c0.3,0.3,0.6,0.4,1,0.4c0.3,0,0.7-0.1,1-0.3c0.3-0.2,0.6-0.6,0.8-1c0.2-0.5,0.3-0.9,0.3-1.4c0-0.5-0.1-0.9-0.4-1.2
				c-0.3-0.3-0.6-0.4-1-0.4c-0.6,0-1.1,0.3-1.5,0.9C53,39.7,52.9,40.4,52.9,41.1z"/>
			<path class="st49" d="M58.5,41.5l1.2-0.1c0,0.4,0.1,0.7,0.2,0.8c0.2,0.2,0.5,0.3,1,0.3c0.4,0,0.7-0.1,0.9-0.2
				c0.2-0.2,0.3-0.3,0.3-0.5c0-0.2-0.1-0.3-0.2-0.5c-0.1-0.1-0.4-0.2-0.9-0.5c-0.5-0.2-0.8-0.4-1.1-0.5c-0.2-0.1-0.4-0.3-0.5-0.5
				c-0.1-0.2-0.2-0.5-0.2-0.8c0-0.5,0.2-1,0.6-1.3c0.4-0.3,0.9-0.5,1.7-0.5c0.7,0,1.3,0.2,1.7,0.5c0.4,0.3,0.6,0.8,0.7,1.4l-1.2,0.1
				c0-0.3-0.1-0.5-0.3-0.7c-0.2-0.2-0.5-0.2-0.8-0.2c-0.4,0-0.6,0.1-0.8,0.2c-0.2,0.1-0.2,0.3-0.2,0.5c0,0.2,0.1,0.3,0.2,0.4
				c0.1,0.1,0.4,0.3,0.9,0.5c0.7,0.3,1.2,0.6,1.4,0.8c0.3,0.3,0.4,0.7,0.4,1.1c0,0.6-0.2,1-0.7,1.4c-0.4,0.4-1,0.6-1.8,0.6
				c-0.5,0-1-0.1-1.4-0.3c-0.4-0.2-0.7-0.4-0.8-0.8C58.6,42.3,58.5,41.9,58.5,41.5z"/>
			<path class="st49" d="M70.7,42.2h-2.5l-0.8,1.4h-1.3l3.5-6.3h1.4l1,6.3h-1.2L70.7,42.2z M70.6,41.1l-0.4-2.5l-1.5,2.5H70.6z"/>
			<path class="st49" d="M78.5,43.5h-1.2l-1.7-4.2l-0.9,4.2h-1.2l1.3-6.3H76l1.7,4.2l0.9-4.2h1.2L78.5,43.5z"/>
			<path class="st49" d="M83.8,40.2h2.8L86,42.9c-0.3,0.2-0.7,0.4-1.2,0.5c-0.5,0.1-1,0.2-1.5,0.2c-0.8,0-1.4-0.2-1.8-0.5
				C81,42.7,80.7,42,80.7,41c0-0.6,0.1-1.2,0.4-1.8c0.3-0.7,0.7-1.2,1.2-1.6c0.5-0.4,1.2-0.6,1.9-0.6c0.7,0,1.3,0.2,1.7,0.5
				c0.4,0.3,0.7,0.8,0.9,1.5l-1.2,0.1c-0.1-0.4-0.3-0.6-0.5-0.8c-0.2-0.2-0.5-0.3-0.9-0.3c-0.4,0-0.8,0.1-1.1,0.3
				c-0.3,0.2-0.6,0.6-0.8,1C82.1,40,82,40.5,82,41c0,0.5,0.1,0.9,0.4,1.2c0.2,0.3,0.6,0.4,1.1,0.4c0.3,0,0.6,0,0.9-0.1
				c0.3-0.1,0.5-0.2,0.8-0.3l0.2-0.9h-1.6L83.8,40.2z"/>
			<path class="st49" d="M87.5,43.5l1.3-6.3h4.6l-0.2,1h-3.4l-0.3,1.4h3.2l-0.2,1h-3.2l-0.4,1.7h3.6l-0.2,1H87.5z"/>
			<path class="st49" d="M93.5,43.5l1.3-6.3h1.3L95,42.5h3.2l-0.2,1H93.5z"/>
			<path class="st49" d="M98.7,43.5l1.3-6.3h4.6l-0.2,1H101l-0.3,1.4h3.2l-0.2,1h-3.2l-0.4,1.7h3.6l-0.2,1H98.7z"/>
			<path class="st49" d="M104.2,41.5l1.2-0.1c0,0.4,0.1,0.7,0.2,0.8c0.2,0.2,0.5,0.3,1,0.3c0.4,0,0.7-0.1,0.9-0.2
				c0.2-0.2,0.3-0.3,0.3-0.5c0-0.2-0.1-0.3-0.2-0.5c-0.1-0.1-0.4-0.2-0.9-0.5c-0.5-0.2-0.8-0.4-1.1-0.5c-0.2-0.1-0.4-0.3-0.5-0.5
				c-0.1-0.2-0.2-0.5-0.2-0.8c0-0.5,0.2-1,0.6-1.3c0.4-0.3,0.9-0.5,1.7-0.5c0.7,0,1.3,0.2,1.7,0.5c0.4,0.3,0.6,0.8,0.7,1.4l-1.2,0.1
				c0-0.3-0.1-0.5-0.3-0.7c-0.2-0.2-0.5-0.2-0.8-0.2c-0.4,0-0.6,0.1-0.8,0.2c-0.2,0.1-0.2,0.3-0.2,0.5c0,0.2,0.1,0.3,0.2,0.4
				c0.1,0.1,0.4,0.3,0.9,0.5c0.7,0.3,1.2,0.6,1.4,0.8c0.3,0.3,0.4,0.7,0.4,1.1c0,0.6-0.2,1-0.7,1.4c-0.4,0.4-1,0.6-1.8,0.6
				c-0.5,0-1-0.1-1.4-0.3c-0.4-0.2-0.7-0.4-0.8-0.8C104.2,42.3,104.2,41.9,104.2,41.5z"/>
		</g>
	</g>
</g>
</svg>
