<?xml version="1.0" encoding="utf-8"?>
<!-- Generator: Adobe Illustrator 23.0.1, SVG Export Plug-In . SVG Version: 6.00 Build 0)  -->
<svg version="1.1" id="Capa_1" xmlns="http://www.w3.org/2000/svg" xmlns:xlink="http://www.w3.org/1999/xlink" x="0px" y="0px"
	 viewBox="0 0 104 119.4" style="enable-background:new 0 0 104 119.4;" xml:space="preserve">
<style type="text/css">
	.st0{fill:#175384;}
	.st1{fill:#A0A5AA;}
	.st2{fill:#0B040C;}
	.st3{fill:#FFC727;}
	.st4{fill:#F0545B;}
	.st5{fill:#FFFFFF;}
	.st6{fill:#00A855;}
	.st7{fill:#B4C4C9;}
	.st8{fill:#221A21;}
	.st9{fill:#EF3A47;}
	.st10{fill:url(#SVGID_1_);}
	.st11{fill:url(#SVGID_2_);}
	.st12{fill:url(#SVGID_3_);}
	.st13{fill:url(#SVGID_4_);}
	.st14{fill:url(#SVGID_5_);}
	.st15{fill:url(#SVGID_6_);}
	.st16{fill:url(#SVGID_7_);}
	.st17{fill:url(#SVGID_8_);}
	.st18{fill:url(#SVGID_9_);}
	.st19{fill:url(#SVGID_10_);}
	.st20{fill:url(#SVGID_11_);}
	.st21{fill:url(#SVGID_12_);}
	.st22{fill:#313564;}
	.st23{fill:#F04B41;stroke:#FFFFFF;stroke-width:2.1543;stroke-linecap:round;stroke-linejoin:round;stroke-miterlimit:10;}
	.st24{fill:#007FBA;stroke:#FFFFFF;stroke-width:2.1543;stroke-linecap:round;stroke-linejoin:round;stroke-miterlimit:10;}
	.st25{fill:#313564;stroke:#FFFFFF;stroke-width:2.1543;stroke-linecap:round;stroke-linejoin:round;stroke-miterlimit:10;}
	.st26{fill:#FFFFFF;stroke:#FFFFFF;stroke-width:2.1543;stroke-linecap:round;stroke-linejoin:round;stroke-miterlimit:10;}
	.st27{clip-path:url(#SVGID_14_);}
	.st28{fill:#FBAC36;stroke:#FFFFFF;stroke-width:2.1543;stroke-linecap:round;stroke-linejoin:round;stroke-miterlimit:10;}
	.st29{fill:#F04B41;}
	.st30{fill:#007FBA;}
	.st31{clip-path:url(#SVGID_16_);}
	.st32{fill:#FBAC36;}
	.st33{fill:#2C2F61;}
	.st34{fill:#B7B9BA;}
	.st35{fill:#EF3748;}
	.st36{fill:#8999AC;}
	.st37{fill:#2B2F61;}
	.st38{fill:#EE2C45;}
	.st39{fill:#101624;}
	.st40{fill:#59707A;}
	.st41{fill:#4A3285;}
	.st42{fill:#F79230;}
	.st43{fill:#F15733;}
	.st44{fill:#D7303F;}
	.st45{fill:#FAA832;}
	.st46{fill:#1F1721;}
	.st47{fill:#5F3188;}
	.st48{fill:#EE243D;}
	.st49{fill:#1F4BA0;}
	.st50{fill:#244789;}
	.st51{fill:#FBAE2E;}
	.st52{fill:#006991;}
	.st53{fill:#F9A01B;stroke:#FFFFFF;stroke-width:0.4473;stroke-miterlimit:10;}
	.st54{fill:#FAA533;}
	.st55{fill:#0092BC;}
	.st56{fill:#15182C;}
	.st57{fill:#3E419A;}
	.st58{fill:#101721;}
	.st59{fill:#ADA3A5;}
	.st60{fill:#9CA7AC;}
	.st61{clip-path:url(#SVGID_18_);}
	.st62{clip-path:url(#SVGID_20_);}
	.st63{fill:#F3FAF7;}
	.st64{fill:#2D2F63;}
	.st65{fill:#FAA819;}
	.st66{fill:#FEF6FA;}
	.st67{fill:#004F30;}
	.st68{fill:#A2C7D3;}
	.st69{fill:#EE2E55;}
	.st70{fill:#32366E;}
	.st71{fill:#00ADDC;}
	.st72{fill:#FFFFFF;stroke:#00ACD0;stroke-width:0.2915;stroke-miterlimit:10;}
	.st73{fill:#FFFFFF;stroke:#00ACD0;stroke-width:0.2973;stroke-miterlimit:10;}
	.st74{fill:#450000;}
	.st75{fill:#EE224A;}
	.st76{fill:#0064A5;}
	.st77{fill:#F47736;}
	.st78{fill:#B5BCBF;}
	.st79{fill:#F47B35;}
	.st80{fill:#EE2B52;}
	.st81{fill:#0C060E;}
	.st82{fill:#B58D49;}
	.st83{fill:#C9BBCB;}
	.st84{fill:#BA924C;}
	.st85{fill:#006BAF;}
	.st86{fill:#B3C5CB;}
	.st87{fill:#898C89;}
	.st88{fill:#2E2C61;}
	.st89{fill:#C3C5BD;}
	.st90{fill:#C4D2D9;}
	.st91{fill:#EE284D;}
	.st92{fill:#161212;}
	.st93{fill:#EE274E;}
	.st94{fill:#A2A7AA;}
	.st95{fill:#A6AAAC;}
	.st96{fill:#A1A2AB;}
	.st97{fill:#110B13;}
	.st98{fill:#AFC1C6;}
	.st99{fill:#0067AD;}
	.st100{fill:#FBFBFB;}
	.st101{fill:#0065AF;}
	.st102{fill:#121A26;}
	.st103{fill:#008D4C;}
	.st104{fill:#B43A3D;}
	.st105{fill:#111623;}
	.st106{fill:#AB9048;}
	.st107{fill:#F8A174;}
	.st108{fill:#120B19;}
	.st109{fill:#C59751;}
	.st110{fill:#B33638;}
	.st111{fill:#009154;}
	.st112{fill:#1C2026;}
	.st113{fill:#EE2844;}
	.st114{fill:#30385F;}
	.st115{fill:#3A84B1;}
	.st116{fill:#A3C5D7;}
	.st117{fill:#F9A039;}
	.st118{fill:#B0BEC0;}
	.st119{fill:#231D46;}
	.st120{fill:#FDB840;}
	.st121{fill:#CD2C32;}
	.st122{fill:#272049;}
	.st123{fill:#FEC027;}
	.st124{fill:#ADC7C6;}
	.st125{fill:#014429;}
	.st126{fill:#DF2539;}
	.st127{fill:#F57E30;}
	.st128{fill:#ED1942;}
	.st129{fill:#FEF9FB;}
	.st130{fill:#0065AA;}
	.st131{fill:#A6B5B8;}
	.st132{fill:#0B040C;stroke:#0B040C;stroke-width:0.2716;stroke-miterlimit:10;}
	.st133{fill:#F7F9FD;}
	.st134{fill:none;stroke:#EBF2CC;stroke-width:0.2972;stroke-miterlimit:10;}
	.st135{fill:#48484A;}
	.st136{opacity:0.2;}
	.st137{fill:#EE2E3B;}
	.st138{fill:#005BA6;}
	.st139{fill:#737577;}
	.st140{fill:#A1A0A5;}
	.st141{fill:#272360;}
	.st142{fill:#FAFAFB;}
	.st143{fill:#058BA6;}
	.st144{fill:#DEDBE7;}
	.st145{fill:#B2965B;}
	.st146{fill:#1B305B;}
	.st147{fill:#F9F9FA;}
	.st148{fill:#E12039;}
	.st149{fill:#FEF4F4;}
</style>
<g>
	<path class="st114" d="M39.2,6.7c0,0-6.3-8.6-14.3-2.2c-8,6.4-2.3,13.3-2.3,13.3s-10.5,11.6-4.2,26.3c1.1-1.3,1.4-1.1,2.2,0.5
		c0.8,1.6,6.7,12.8,13.5,15.5c-0.3-1.7,0.5-2,1.9-0.8c1.4,1.3,6.9,4.7,10.3,6.6c3.4,1.9,7.8,6.3,8.1,7.1c1.3-2.3,3.1-3.4,6.1-5.2
		c3-1.7,11.8-6,14.1-9.9c0.3,2,0.3,2,0.3,2S86.2,56,87.6,43c0-1.3,1.4-0.2,1.4,1.1c3-4.4,4.5-18.5-2.8-26.5
		c1.4-2.5,3.9-9.4-1.9-13.3C78.5,0.4,71.8,2,70.1,6.7C66.8,5.9,59.3,6,54.3,8.4C49.2,5.9,42.7,6.2,39.2,6.7z"/>
	<path class="st115" d="M59.4,32.1c0.5-0.3,5.4-4.6,8.5-5.5c1.4,2.3-0.3,4.9-4,5.7c1.8,4.3,3.5,17.2-2.3,24.8
		c2.5-5.5,4.3-16.3,0.5-24.6C61.4,32.3,59.4,32.1,59.4,32.1z"/>
	<path class="st116" d="M54.5,54.4c0,0-1-2.2-1.8-3.7c-0.8-1.5-1.4-1.5-2-1c-0.7,0.6-1.6,2.2-2,0.6c-0.3-1.6-1.2-4.7,5.4-5.1
		c0.2,0,0.3,0,0.4,0.1V33.2c0,0-4.2-0.5-5.8-2c-1.7-1.5-6-4.8-8-5.1c0,0,0.6,6.2,6.2,5.5c-2.5,4.8-3.2,19.2,0.6,25.6
		c4-1.1,7.1-0.6,7.1-0.6L54.5,54.4L54.5,54.4z"/>
	<path class="st115" d="M37.9,9.9c0-0.5-6.9-6.2-10.8-3.7C23.3,8.7,26,17.6,26,17.6s-8.8,12.2-5.8,21.7c1.2-1.7,1.5-2.3,1.5-2.3
		s4.6,14.8,10.6,17.5c0-2.5,0.2-3.4,0.2-3.4s4.5,6.9,9.4,9.2c4.9,2.3,10.3,5.1,12.8,7.5c0-4.2-0.3-5.8-0.3-5.8s-2.9,0.3-4.5-0.3
		c-1.5-0.6-3.7-1.4-5.1-5.4c-1.4-4-4.9-13.1-2.8-24.3c-1.8-0.3-3.8-2.2-3.8-4.3c0-2.2-0.9-3.2-5.2-2.9c2.8-0.9,9.5-1.4,14.3,3.1
		c2.8,2.6,6,2.3,6,2.3l1.1-14.3l1.1,14.6c0,0,2.2,1.2,5.1-1.7c2.9-2.9,8.3-6.5,15.5-4.3c-2.2-1.5-8.9-2.9-12.9-1.2
		c0.5-4.8,3.1-6.6,5.4-7.7c2.3-1.1,3.5-2,4.5-4.5c0.9-2.5,5.1-4.8,8.2-4.2c-2.8-1.5-8.3,0.5-9.9,3.5C68.8,9,56,10.7,54.8,11.8
		C51.9,9.3,37.9,9.9,37.9,9.9z"/>
	<path class="st114" d="M27.7,16.3c-0.1,0.5,4.8-4.5,7.9-5.5C32.2,7.9,30,7.9,28.5,9c2.5-0.3,3.4,1.7,3.4,1.7s-4.2-0.9-4.8,1.7
		c0.9-1.1,2.8-0.2,2.8-0.2S27.9,15,27.7,16.3z"/>
	<path class="st117" d="M42.2,27.2c0,0,1.1,5.2,5.1,3.1C46,28.7,42.2,27.2,42.2,27.2z"/>
	<path class="st117" d="M62.2,29.8l4.2-2.6C66.4,27.2,66.7,32.7,62.2,29.8z"/>
	<path class="st116" d="M48.1,59.5c0,0,0.3-1.1,1.4-1.2c1.1-0.1,9.4-0.2,9.7-0.2c0.3,0,1.2,0.5,1.5,1.5c-0.7,0.2-1.5,0.7-6.4,0.8
		C50.2,60.6,48.1,59.5,48.1,59.5z"/>
	<path class="st115" d="M55.7,45.2c0,0,3.5,0.2,4.7,1.1c1.2,0.8,1.1,2.7,0.8,3.2c-0.2,0.5-1.5,1.1-1.1,0.3c0.4-0.7,0.1-1.9-0.2-2.4
		C59.5,46.8,56.3,46,56,46C55.8,45.9,55.7,45.2,55.7,45.2z"/>
	<g>
		<g>
			<path class="st114" d="M20.9,71.7c-5,0-13.3,0-13.3,0s1.8,2,1.8,3.9c0,1.9,0,19.1,0,19.1H13V75.9h2.4v18.9h4V76.1
				c0,0,2.5-0.7,2.5,1.5c0,2.2,0,17.2,0,17.2H26V76C26,76,25.9,71.7,20.9,71.7z"/>
			<path class="st114" d="M28.9,80.7c0,2.3,0,14.2,0,14.2h9.3v-4.2h-6V88h3.6v-4.2h-3.2v-2.6h5.7l0.1-4.4l-11,0.1
				C27.4,76.8,28.9,78.4,28.9,80.7z"/>
			<path class="st114" d="M49.9,76.4H39.4c1.3,0.4,1.4,2.6,1.4,2.6v16.2h3.6c0,0,0-13,0-13.4c0-0.4,0-1.2,0.9-1.2c0.9,0,0.9,1,0.9,1
				v13.8h4.2V81.9c0,0,0-1.2,0.8-1.2c0.8,0,0.9,1.6,0.9,1.6v12.8h4c0,0,0-8.9,0-13.9C56,76.3,49.9,76.4,49.9,76.4z"/>
			<path class="st114" d="M64.1,76.6h-7.5c1.7,0.6,1.6,3,1.6,3v15.7h3.8v-7.7c4.8,0,6.5-1.4,6.6-6.1C68.5,76.8,64.1,76.6,64.1,76.6z
				 M61.7,84.3v-3.9c0.6,0,3.3-0.3,3.3,1.8C65,84.7,61.7,84.3,61.7,84.3z"/>
			<path class="st114" d="M76.3,84.2h-2.6v-7.6h-5.2c1,0.4,1,2.6,1,2.6v16h4.4v-7.4h2.6v7.4h4.1V76.7h-4.1V84.2z"/>
			<path class="st114" d="M82.9,81.1v14.1h4.4V76.7h-5.8C83.2,77.7,82.9,81.1,82.9,81.1z"/>
			<path class="st114" d="M95.8,79h4.8c0,0,0.1-2.6,0-2.7c-0.1-0.1,0.2-4.8-6.3-4.8c-6.5,0-5.5,6.3-5.5,7.9c0,1.7,0.8,4.8,4.1,5.4
				c1.3,0.3,3.4,0.8,3.4,2.3s0,2.8,0,2.8s0,1.2-1,1.2c-0.8,0-1.6,0-1.6-3.7h-4.4v3.1c0,0-0.4,4.8,5.6,4.8c6,0,5.8-5.1,5.8-5.9
				c0-0.8,0-4,0-4s0-3.3-3.1-3.8c-2.1-0.3-2.6-0.4-2.6-0.4s-1.3,0-1.3-1.7c0-1.3,0-2.5,0-2.5s0-1.1,1.2-1.1c1.2,0,1.1,1.2,1.1,1.2
				V79z"/>
		</g>
	</g>
	<g>
		<rect x="84.1" y="76.8" class="st115" width="1.3" height="18.4"/>
		<polygon class="st115" points="77.6,85.3 72.4,85.3 72.4,76.8 71.1,76.8 71.1,95.1 72.4,95.1 72.4,86.1 77.6,86.1 77.6,95.1 
			78.9,95.1 78.9,76.8 77.6,76.8 		"/>
		<path class="st115" d="M62.8,78.1L59.3,78v17.2h1.3v-8.5h1.9c0,0,4.9,0.1,4.9-4.6C67.3,77.9,62.8,78.1,62.8,78.1z M62,85.5h-1.6
			v-6.3c0.9,0,5.7-0.1,5.7,3.1C66.2,85.4,62,85.5,62,85.5z"/>
		<path class="st115" d="M51.4,78h-9.8v17.1h1.6V79.3h4.3v16H49v-16c4.1-0.1,4.1,2.6,4.1,2.6v13.4h1.6c0,0,0-9.8,0-13.4
			C54.7,78,51.4,78,51.4,78z"/>
		<polygon class="st115" points="29.9,78.1 29.9,78.1 29.9,93.5 31.2,93.5 31.2,93.5 38.2,93.5 38.2,91.9 31.2,91.9 31.2,86.8 
			35.8,86.8 35.8,85.2 31.2,85.2 31.2,79.6 38.2,79.6 38.2,78.1 29.9,78.1 		"/>
		<path class="st115" d="M19.7,72.8h-9.2c0,0,0,21.7,0,21.8l1.4,0.1V74.1h4.8v20.7h1.8V74.1c5-0.4,4.7,3.5,4.7,3.5v17.2h1.7
			c0,0,0-14.1,0-18.1C24.8,72.6,19.7,72.8,19.7,72.8z"/>
		<path class="st115" d="M98.7,86.4c0,0,0.1-2.6-2.5-3.4c-2.6-0.8-4.2-1.2-4.2-3.1c0-1.8,0-2.9,0-2.9s0.1-2.8,2.8-2.8
			c2.7,0,2.9,1.9,2.9,2.7c0,0.9,0,1.9,0,1.9l1.3-0.1l0-2.4c0,0-0.3-3.2-4.3-3.2c-4,0-3.8,3.9-3.8,5c0,1.1,0,2.4,0,2.4s0.3,2.2,3,2.8
			c1.9,0.3,3.9,1.3,3.9,3.5c0,2.2,0,2.6,0,2.6s0.1,2.9-2.5,2.9c-2.3,0-3.2-1.2-3.2-5.1h-1c0,0-0.8,6.1,4.1,6.1
			c3.8,0,3.7-3.9,3.7-3.9V86.4z"/>
	</g>
	<g>
		<g>
			<path class="st115" d="M23.3,104c0.6,0.3,0.9,1,0.5,1.7L23,107c-1.1,2-2.5,1.6-3.7,0.9c-1.3-0.7-2.4-1.6-1.3-3.7l2.3-4.3
				c0.8-1.6,2.5-1.6,3.7-1c1.2,0.7,2,2.2,1.1,3.9l-0.2,0.4l-1.7-0.9l0.2-0.4c0.4-0.7,0.1-1.2-0.3-1.4c-0.3-0.2-0.9-0.3-1.2,0.2
				l-2.3,4.3c-0.3,0.5,0.2,0.9,0.5,1.1c0.4,0.2,0.9,0.3,1.2-0.2l0.4-0.8l0.9-1.7L23.3,104z"/>
			<path class="st115" d="M29.3,103.5l-3.1,8l1.7,0.7l1.2-3.2l0.9,0.3c0.4,0.1,0.8,0.7,0.6,1l-1,2.5l1.7,0.7l1-2.5
				c0.2-0.5,0.2-1.2-0.2-1.8c0.6-0.2,1.1-0.8,1.3-1.2l0.5-1.3c0.5-1.3-0.1-2.8-1.5-3.3l-1.6-0.6l-1.2-0.4L29.3,103.5z M32.1,105.9
				l-0.4,1.1c-0.1,0.3-0.6,0.4-0.9,0.3l-0.7-0.3l0.8-2.2l0.9,0.3C32.1,105.3,32.2,105.6,32.1,105.9z"/>
			
				<rect x="32.7" y="109.1" transform="matrix(0.2434 -0.9699 0.9699 0.2434 -78.2265 119.7658)" class="st115" width="9.9" height="1.9"/>
			<polygon class="st115" points="42.4,114.3 46,108.4 43.1,108.1 43.2,106.2 47.3,106.6 49,106.8 48.2,108.3 44.5,114.4 
				47.6,114.6 47.5,116.5 43.3,116.1 41.4,116 			"/>
			<polygon class="st115" points="52,115.6 55.1,109.3 52.2,109.3 52.2,107.5 56.3,107.5 58,107.5 57.3,109.1 54.2,115.4 
				57.3,115.4 57.3,117.3 53.1,117.3 51.2,117.3 			"/>
			<polygon class="st115" points="62.3,115.8 61.9,107.2 63.7,107.1 64.2,115 67.3,114.9 67.4,116.7 63.7,116.9 62.4,117 			"/>
			
				<rect x="70.5" y="105.9" transform="matrix(0.9828 -0.1849 0.1849 0.9828 -19.2652 15.1129)" class="st115" width="1.9" height="9.9"/>
			<polygon class="st115" points="80.2,111.8 82.5,111.3 82.9,113.1 80.6,113.6 78.2,114.2 77.6,111.7 76.2,105.8 75.9,104.6 
				77.2,104.3 80.7,103.5 81.2,105.3 78.2,106 78.6,108 81.5,107.3 81.9,109.1 79.1,109.8 79.4,111.3 79.6,111.9 			"/>
			<path class="st115" d="M89.2,102.5l-0.2-0.4c-0.8-1.8-2.5-2.1-3.7-1.6c-1.3,0.6-2.2,1.9-1.5,3.5l0.3,0.7c0.8,1.8,2.4,1.5,3.4,1.3
				c0.8-0.2,1.1-0.2,1.3,0.2l0.4,0.9c0.2,0.5-0.2,0.9-0.6,1c-0.4,0.2-0.9,0.1-1.3-0.6l-0.2-0.4l-1.7,0.8l0.2,0.4
				c0.3,0.8,0.9,1.4,1.6,1.6c0.7,0.3,1.4,0.2,2.1-0.1c1.3-0.6,2.2-1.9,1.5-3.5l-0.4-0.8c-0.8-1.8-2.5-1.4-3.4-1.3
				c-1,0.2-1.2,0-1.3-0.2l-0.3-0.7c-0.2-0.5,0.2-0.9,0.6-1c0.4-0.2,1-0.1,1.3,0.6l0.2,0.4L89.2,102.5z"/>
		</g>
	</g>
</g>
</svg>
