<?xml version="1.0" encoding="utf-8"?>
<!-- Generator: Adobe Illustrator 23.0.1, SVG Export Plug-In . SVG Version: 6.00 Build 0)  -->
<svg version="1.1" id="Capa_1" xmlns="http://www.w3.org/2000/svg" xmlns:xlink="http://www.w3.org/1999/xlink" x="0px" y="0px"
	 viewBox="0 0 110.6 132.7" style="enable-background:new 0 0 110.6 132.7;" xml:space="preserve">
<style type="text/css">
	.st0{fill:#175384;}
	.st1{fill:#A0A5AA;}
	.st2{fill:#0B040C;}
	.st3{fill:#FFC727;}
	.st4{fill:#F0545B;}
	.st5{fill:#FFFFFF;}
	.st6{fill:#00A855;}
	.st7{fill:#B4C4C9;}
	.st8{fill:#221A21;}
	.st9{fill:#EF3A47;}
	.st10{fill:url(#SVGID_1_);}
	.st11{fill:url(#SVGID_2_);}
	.st12{fill:url(#SVGID_3_);}
	.st13{fill:url(#SVGID_4_);}
	.st14{fill:url(#SVGID_5_);}
	.st15{fill:url(#SVGID_6_);}
	.st16{fill:url(#SVGID_7_);}
	.st17{fill:url(#SVGID_8_);}
	.st18{fill:url(#SVGID_9_);}
	.st19{fill:url(#SVGID_10_);}
	.st20{fill:url(#SVGID_11_);}
	.st21{fill:url(#SVGID_12_);}
	.st22{fill:#313564;}
	.st23{fill:#F04B41;stroke:#FFFFFF;stroke-width:2.1543;stroke-linecap:round;stroke-linejoin:round;stroke-miterlimit:10;}
	.st24{fill:#007FBA;stroke:#FFFFFF;stroke-width:2.1543;stroke-linecap:round;stroke-linejoin:round;stroke-miterlimit:10;}
	.st25{fill:#313564;stroke:#FFFFFF;stroke-width:2.1543;stroke-linecap:round;stroke-linejoin:round;stroke-miterlimit:10;}
	.st26{fill:#FFFFFF;stroke:#FFFFFF;stroke-width:2.1543;stroke-linecap:round;stroke-linejoin:round;stroke-miterlimit:10;}
	.st27{clip-path:url(#SVGID_14_);}
	.st28{fill:#FBAC36;stroke:#FFFFFF;stroke-width:2.1543;stroke-linecap:round;stroke-linejoin:round;stroke-miterlimit:10;}
	.st29{fill:#F04B41;}
	.st30{fill:#007FBA;}
	.st31{clip-path:url(#SVGID_16_);}
	.st32{fill:#FBAC36;}
	.st33{fill:#2C2F61;}
	.st34{fill:#B7B9BA;}
	.st35{fill:#EF3748;}
	.st36{fill:#8999AC;}
	.st37{fill:#2B2F61;}
	.st38{fill:#EE2C45;}
	.st39{fill:#101624;}
	.st40{fill:#59707A;}
	.st41{fill:#4A3285;}
	.st42{fill:#F79230;}
	.st43{fill:#F15733;}
	.st44{fill:#D7303F;}
	.st45{fill:#FAA832;}
	.st46{fill:#1F1721;}
	.st47{fill:#5F3188;}
	.st48{fill:#EE243D;}
	.st49{fill:#1F4BA0;}
	.st50{fill:#244789;}
	.st51{fill:#FBAE2E;}
	.st52{fill:#006991;}
	.st53{fill:#F9A01B;stroke:#FFFFFF;stroke-width:0.4473;stroke-miterlimit:10;}
	.st54{fill:#FAA533;}
	.st55{fill:#0092BC;}
	.st56{fill:#15182C;}
	.st57{fill:#3E419A;}
	.st58{fill:#101721;}
	.st59{fill:#ADA3A5;}
	.st60{fill:#9CA7AC;}
	.st61{clip-path:url(#SVGID_18_);}
	.st62{clip-path:url(#SVGID_20_);}
	.st63{fill:#F3FAF7;}
	.st64{fill:#2D2F63;}
	.st65{fill:#FAA819;}
	.st66{fill:#FEF6FA;}
	.st67{fill:#004F30;}
	.st68{fill:#A2C7D3;}
	.st69{fill:#EE2E55;}
	.st70{fill:#32366E;}
	.st71{fill:#00ADDC;}
	.st72{fill:#FFFFFF;stroke:#00ACD0;stroke-width:0.2915;stroke-miterlimit:10;}
	.st73{fill:#FFFFFF;stroke:#00ACD0;stroke-width:0.2973;stroke-miterlimit:10;}
	.st74{fill:#450000;}
	.st75{fill:#EE224A;}
	.st76{fill:#0064A5;}
	.st77{fill:#F47736;}
	.st78{fill:#B5BCBF;}
	.st79{fill:#F47B35;}
	.st80{fill:#EE2B52;}
	.st81{fill:#0C060E;}
	.st82{fill:#B58D49;}
	.st83{fill:#C9BBCB;}
	.st84{fill:#BA924C;}
	.st85{fill:#006BAF;}
	.st86{fill:#B3C5CB;}
	.st87{fill:#898C89;}
	.st88{fill:#2E2C61;}
	.st89{fill:#C3C5BD;}
	.st90{fill:#C4D2D9;}
	.st91{fill:#EE284D;}
	.st92{fill:#161212;}
	.st93{fill:#EE274E;}
	.st94{fill:#A2A7AA;}
	.st95{fill:#A6AAAC;}
	.st96{fill:#A1A2AB;}
	.st97{fill:#110B13;}
	.st98{fill:#AFC1C6;}
	.st99{fill:#0067AD;}
	.st100{fill:#FBFBFB;}
	.st101{fill:#0065AF;}
	.st102{fill:#121A26;}
	.st103{fill:#008D4C;}
	.st104{fill:#B43A3D;}
	.st105{fill:#111623;}
	.st106{fill:#AB9048;}
	.st107{fill:#F8A174;}
	.st108{fill:#120B19;}
	.st109{fill:#C59751;}
	.st110{fill:#B33638;}
	.st111{fill:#009154;}
	.st112{fill:#1C2026;}
	.st113{fill:#EE2844;}
	.st114{fill:#30385F;}
	.st115{fill:#3A84B1;}
	.st116{fill:#A3C5D7;}
	.st117{fill:#F9A039;}
	.st118{fill:#B0BEC0;}
	.st119{fill:#231D46;}
	.st120{fill:#FDB840;}
	.st121{fill:#CD2C32;}
	.st122{fill:#272049;}
	.st123{fill:#FEC027;}
	.st124{fill:#ADC7C6;}
	.st125{fill:#014429;}
	.st126{fill:#DF2539;}
	.st127{fill:#F57E30;}
	.st128{fill:#ED1942;}
	.st129{fill:#FEF9FB;}
	.st130{fill:#0065AA;}
	.st131{fill:#A6B5B8;}
	.st132{fill:#0B040C;stroke:#0B040C;stroke-width:0.2716;stroke-miterlimit:10;}
	.st133{fill:#F7F9FD;}
	.st134{fill:none;stroke:#EBF2CC;stroke-width:0.2972;stroke-miterlimit:10;}
	.st135{fill:#48484A;}
	.st136{opacity:0.2;}
	.st137{fill:#EE2E3B;}
	.st138{fill:#005BA6;}
	.st139{fill:#737577;}
	.st140{fill:#A1A0A5;}
	.st141{fill:#272360;}
	.st142{fill:#FAFAFB;}
	.st143{fill:#058BA6;}
	.st144{fill:#DEDBE7;}
	.st145{fill:#B2965B;}
	.st146{fill:#1B305B;}
	.st147{fill:#F9F9FA;}
	.st148{fill:#E12039;}
	.st149{fill:#FEF4F4;}
</style>
<g>
	<path d="M104.7,38.4c-0.2-4.1-4.8-7.9-13.1-10.8c-2.9-1-6-1.8-9.1-2.4c0-0.2,0-0.3,0-0.5c0,0,0.1-0.7,2.5-2.4
		c1.9-1.3,2.5-2.8,2.6-3.9c0.2-2.1-0.8-4-1.9-5.2c-0.4-0.4-1-0.5-1.5-0.3c-0.5,0.2-0.9,0.7-0.9,1.3c0,0.1,0,0.3,0,0.4
		c0,1.4,0,2.2-2.2,3.4c-0.2,0.1-0.4,0.2-0.6,0.4c0-1.1-0.1-2.2-0.3-3.5c-0.1-0.6-0.6-1.1-1.1-1.1c-0.6-0.1-1.2,0.2-1.4,0.7
		c0,0-0.2,0.4-0.7,1.1c0.1-0.9,0.1-2-0.1-3.2l0-0.2c-0.8-4.4-0.9-5.8,0.5-7.1c0.4-0.4,0.6-1,0.3-1.5c-0.2-0.4-0.6-0.9-1.3-0.9
		c-0.7,0-3,0.6-4.3,2.2c-0.9,1-1.2,2.3-1,3.6c0,0,0,0.1,0,0.1c0.1,0.5,0.3,1,0.5,1.5c0.3,1,0.7,2.1,0.5,2.6
		c-0.1,0.3-0.6,0.5-1.2,0.7c-7.3,1.9-11.2,5.2-11.5,9.6c0,0,0,0-0.1,0c-1.2,0-1.9,0-1.9,0c-1,0-23.7,0.3-34.7,6.6
		c-4.9,2.9-7.4,5.9-7.2,9.2c0.2,4.6,5.6,7.6,7.9,8.6c3.3,1.5,7.8,3.1,10.2,3.8c-4.5,2.8-7.4,5.9-8.6,9.4c-0.2,0.7-0.4,1.4-0.6,2.1
		c-0.6-0.1-1.2,0.2-1.5,0.7c-0.1,0.2-2.6,5.3-1,12.6c0.5,2.2,1.5,4.1,2.7,5.6c-0.5,0.3-0.8,0.8-0.7,1.4c0.3,3.3,6.9,10.2,10.4,11.5
		c0.2,0.1,0.3,0.1,0.5,0.1c0.2,0,0.4-0.1,0.5-0.1c0.1,0.3,0.2,0.5,0.5,0.7c2,1.6,6.5,2.2,10,2.2c2.4,0,4.4-0.3,5.6-0.7
		c0.5-0.2,0.8-0.6,0.9-1.1c1.2,0.2,2.2,0.3,2.6,0.3c0,0,0.1,0,0.1,0c0.1,0,0.2,0,0.3,0c1.6-0.4,7-2.9,10.2-7.6
		c0.4-0.5,0.3-1.2-0.1-1.7c1.4-1.2,2.7-2.8,3.7-4.9c3.3-7,3.4-15,3.4-19.4c0-1,0-1.9,0.1-2.4c0.4-4,1.9-6.1,5.1-7.2
		c0.4-0.1,0.7-0.4,0.8-0.8c0.5,0.2,0.9,0.4,0.9,0.4c0.2,0.1,0.4,0.2,0.7,0.2c0,0,0.1,0,0.1,0c0.3,0,7.7-0.7,16.3-4.8
		C103.5,44.4,104.8,40.8,104.7,38.4z M52.5,34.5c-0.3,0-0.6,0-0.9,0.2c-0.3,0.2-2,1.5-2,5.4c0,1.3-0.4,4.6-5.8,6.5
		c-0.2,0.1-0.3,0.1-0.5,0.2c-0.2-0.2-0.5-0.3-0.7-0.3c-11.4-1.2-17.1-5.4-17.3-6.6c0-2.9,5.5-5.5,15-7.2c4.4-0.7,9-1.1,13.9-1.3
		C53.4,32.1,52.8,33.1,52.5,34.5z M70,52.1c0-0.1,0-0.1,0-0.2c0.1,0,0.1,0,0.2,0C70.1,52,70.1,52.1,70,52.1z M91.6,43.2
		c-3.9,2-10.4,3.5-16.6,3.8c0.1-0.1,0.2-0.1,0.4-0.2c2.8-0.9,5-4,5.1-6.9c0.1-1.8,0.7-2.7,1.3-3c0.6-0.3,0.9-0.9,0.8-1.5
		c-0.1-0.5-0.5-0.9-0.9-1l0.1-0.9c2.2,0.4,4.2,0.9,5.8,1.4c6.9,2,7.6,4,7.7,4.6C95.2,40.6,93.9,42,91.6,43.2z"/>
	<g>
		<path class="st127" d="M76.3,4.1c0.3-0.3-4.6,0.8-4,4.2c0.7,2.5,2.6,5.5-1.2,6.5c-3.9,1-10.2,3.3-10.5,8.4
			c2.1,0.1,8.2,0.1,8.4,0.1c0.2,0,2.7-2.6,3.9-3.5c1.1-1,3.4-2.7,2.6-7.2C74.7,8.2,74.3,6,76.3,4.1z"/>
		<path class="st127" d="M78.9,15.1c0,0-2.4,4.8-8.6,8.6c2.8,0.2,7.6,0.7,7.6,0.7S79.8,20.7,78.9,15.1z"/>
		<path class="st127" d="M79.7,24.7c0-0.4-0.1-4.3,2-5.5c3.1-1.8,2.9-3.3,2.9-5.1c1.3,1.4,3,4.8-0.4,7c-3.2,2.3-3.2,3.3-3,3.9
			C80.4,24.9,79.7,24.7,79.7,24.7z"/>
		<path class="st128" d="M52.3,35.8c0,0-1.4,0.9-1.4,4.2c0.1,2.4-1.2,5.9-6.7,7.8c-5.5,1.9-15.7,6.2-18.2,13.4
			c-2.4,7.1,0.4,13.2,2.2,15.5c1.7,2.3,5,7.7,6,10.2c2,0.3,3.9,0.2,3.9,0.2s-4.7-5.7-5.5-16c0,0-0.4-6.5,2.4-12.3s7.8-8.9,12-10.5
			c4.2-1.6,6.7-4.1,5.8-8.5C52.4,38,52.3,35.8,52.3,35.8z"/>
		<path class="st128" d="M57,31.4c0,0-4.1,0.9-3.2,6s1.7,8.8-5.6,11.5c-3.7,1.4-12.6,5.6-13.9,18c-0.5,9.8,3.4,17.8,5.8,20.3
			c2.5,0.2,4.2-0.4,4.2-0.4s-4.8-5.2-2-12.4c2.4-6.2,10-10.8,12.7-13.1c4.4-3.8,9.6-10.7,9.3-19.8c0.1-7.6,0.8-9.9,0.8-9.9H62
			c0,0,1,3.7-2.4,4C56.1,35.8,57,31.4,57,31.4z"/>
		<path class="st128" d="M66.6,31.7c0,0,5,0,5.9,0.4c-1.7,2-4.5,7.6-3.9,20.2C68.2,65.5,64.2,75.3,56,81.2c-5.5,4.3-10,5.1-10,5.1
			s-6.5-8,1.3-16.2c3.4-3.3,7.9-6.3,10.3-8.5c2.4-2.2,8.3-8.5,8.5-18.8C66.5,36,66.6,31.7,66.6,31.7z"/>
		<path class="st128" d="M74.2,32.5c0,0-5.2,7.7-3.8,18.1c-0.2-1.1,2.2-4.3,4.5-5.1c2.3-0.8,4.1-3.4,4.2-5.7c0.1-2.3,1-3.7,2.1-4.2
			c-1.6-0.1-2.2,1.5-2.7,2.3c-0.5,0.8-2.6,1.9-3.3,0.1c-0.7-1.8,1.4-4.7,4-5.2C77,32.8,74.2,32.5,74.2,32.5z"/>
		<path class="st128" d="M77,51.6c0,0-7-2.2-7.7,6.5c-0.6,6.2-1,20.8-21.5,29.5c3.8,2.4,15.3,3.3,19.8-6.3c4-8.4,3-18.6,3.3-21.3
			C71.4,55.7,72.9,52.9,77,51.6z"/>
		<path class="st128" d="M45.8,88.5c0,0,8.9,6.3,18.3-0.8c-2.9,4.2-8,6.7-9.4,7c-2.1-0.1-10.2-1.1-13.3-5.9
			C43.3,88.8,45.8,88.5,45.8,88.5z"/>
		<path class="st128" d="M39.5,89.1c0,0,4.1,5.2,11.1,6.5c-2.7,1.1-11.5,0.9-14.2-1.3c-0.1-2.4,0-4.4-0.9-5.5
			C38,88.8,39.5,89.1,39.5,89.1z"/>
		<path class="st128" d="M34.6,93.4c0,0,0.2-4-1.4-5.4c-2.5-0.6-6.3-2.4-8-5C25.4,85.8,31.6,92.3,34.6,93.4z"/>
		<path class="st128" d="M32.1,85.9c0,0-7.5-2.9-9-9.9C21.6,69,24,64.3,24,64.3s-1.2,7.1,2.2,12.1C29.2,80.6,31.6,84.1,32.1,85.9z"
			/>
		<path class="st129" d="M57.3,24.5c0,0,19.8-0.6,33.8,4.4c14.1,5,16.4,12.1,4.6,17.7c-8.5,4-15.9,4.7-15.9,4.7s-5.5-3-8.7-0.4
			c0.6-1.2,1.5-2.5,1.7-2.5c7.2-0.1,14.9-1.8,19.3-4.1c6.1-3.2,6.6-7.7-4.4-10.8c-9.4-2.7-28.9-5.2-47.7-2.2
			C25.8,33.8,24,37.6,24,39.9c0,2.2,6.9,6.8,18.5,8c-1.5,0.5-7,2.8-7,2.8s-7.2-2.2-11.7-4.3c-5.6-2.6-12.3-8.5-0.5-15.4
			C34.1,24.7,57.3,24.5,57.3,24.5z"/>
	</g>
	<polygon points="13.6,113.6 16.7,101.5 22.4,101.5 23.2,107.6 27.2,101.3 32.7,101.3 30,113.9 25.9,113.9 27.3,107.2 23.2,113.7 
		20.4,113.7 19.7,107.2 17.8,113.6 	"/>
	<polygon points="55.6,113.6 58.6,101.5 64.3,101.5 65.1,107.6 69.1,101.3 74.7,101.3 71.9,113.9 67.8,113.9 69.2,107.2 65.1,113.7 
		62.4,113.7 61.6,107.2 59.7,113.6 	"/>
	<polygon points="35.7,101.3 40.4,101.3 37.3,113.8 32.5,113.8 	"/>
	<polygon points="77.8,101.3 82.5,101.3 79.3,113.8 74.6,113.8 	"/>
	<polygon points="45.5,101.3 39.3,113.9 44,113.9 48.6,104.1 49.1,109.6 46.9,109.8 49.3,113.7 53.7,113.7 52.7,101.3 	"/>
	<polygon points="61.6,117.4 55.3,130 60.1,130 64.7,120.3 65.1,125.7 62.9,125.9 65.4,129.8 69.7,129.8 68.8,117.5 	"/>
	<polygon points="31.1,117.6 35.1,117.6 33.8,122.5 38,122.5 39.4,117.5 43.6,117.5 40.4,129.8 36.1,129.8 37.1,125.6 33.1,125.6 
		31.9,129.9 27.5,129.9 	"/>
	<polygon points="46.2,117.7 56.5,117.7 55.8,120.6 49.7,120.6 49,122.9 55,122.9 54.4,125.2 48.6,125.2 47.9,127.5 54.3,127.5 
		53.5,129.8 43.1,129.8 	"/>
	<path d="M70.9,121.1l1-3.3h10.6c0,0,1.2-0.1,1.5-2.1c0.3-2,0.3-2,0.3-2s3,0.5,3.7-2.1c1,2-1,3.4-2.1,3.7c-1,0.3-1.6,2.1-1.7,2.7
		c-0.1,0.6-0.9,3-2.3,3c-1.4,0-3,0-3,0l-1.8,8.9h-4.8l2.1-8.9L70.9,121.1z"/>
</g>
<g class="st136">
	
		<image style="overflow:visible;" width="3674" height="1293" xlink:href="1FD3DCD.png"  transform="matrix(0.24 0 0 0.24 -418.6651 132.0782)">
	</image>
</g>
</svg>
