<?xml version="1.0" encoding="utf-8"?>
<!-- Generator: Adobe Illustrator 23.0.1, SVG Export Plug-In . SVG Version: 6.00 Build 0)  -->
<svg version="1.1" id="Capa_1" xmlns="http://www.w3.org/2000/svg" xmlns:xlink="http://www.w3.org/1999/xlink" x="0px" y="0px"
	 viewBox="0 0 103.7 131.7" style="enable-background:new 0 0 103.7 131.7;" xml:space="preserve">
<style type="text/css">
	.st0{fill:#175384;}
	.st1{fill:#A0A5AA;}
	.st2{fill:#0B040C;}
	.st3{fill:#FFC727;}
	.st4{fill:#F0545B;}
	.st5{fill:#FFFFFF;}
	.st6{fill:#00A855;}
	.st7{fill:#B4C4C9;}
	.st8{fill:#221A21;}
	.st9{fill:#EF3A47;}
	.st10{fill:url(#SVGID_1_);}
	.st11{fill:url(#SVGID_2_);}
	.st12{fill:url(#SVGID_3_);}
	.st13{fill:url(#SVGID_4_);}
	.st14{fill:url(#SVGID_5_);}
	.st15{fill:url(#SVGID_6_);}
	.st16{fill:url(#SVGID_7_);}
	.st17{fill:url(#SVGID_8_);}
	.st18{fill:url(#SVGID_9_);}
	.st19{fill:url(#SVGID_10_);}
	.st20{fill:url(#SVGID_11_);}
	.st21{fill:url(#SVGID_12_);}
	.st22{fill:#313564;}
	.st23{fill:#F04B41;stroke:#FFFFFF;stroke-width:2.1543;stroke-linecap:round;stroke-linejoin:round;stroke-miterlimit:10;}
	.st24{fill:#007FBA;stroke:#FFFFFF;stroke-width:2.1543;stroke-linecap:round;stroke-linejoin:round;stroke-miterlimit:10;}
	.st25{fill:#313564;stroke:#FFFFFF;stroke-width:2.1543;stroke-linecap:round;stroke-linejoin:round;stroke-miterlimit:10;}
	.st26{fill:#FFFFFF;stroke:#FFFFFF;stroke-width:2.1543;stroke-linecap:round;stroke-linejoin:round;stroke-miterlimit:10;}
	.st27{clip-path:url(#SVGID_14_);}
	.st28{fill:#FBAC36;stroke:#FFFFFF;stroke-width:2.1543;stroke-linecap:round;stroke-linejoin:round;stroke-miterlimit:10;}
	.st29{fill:#F04B41;}
	.st30{fill:#007FBA;}
	.st31{clip-path:url(#SVGID_16_);}
	.st32{fill:#FBAC36;}
	.st33{fill:#2C2F61;}
	.st34{fill:#B7B9BA;}
	.st35{fill:#EF3748;}
	.st36{fill:#8999AC;}
	.st37{fill:#2B2F61;}
	.st38{fill:#EE2C45;}
	.st39{fill:#101624;}
	.st40{fill:#59707A;}
	.st41{fill:#4A3285;}
	.st42{fill:#F79230;}
	.st43{fill:#F15733;}
	.st44{fill:#D7303F;}
	.st45{fill:#FAA832;}
	.st46{fill:#1F1721;}
	.st47{fill:#5F3188;}
	.st48{fill:#EE243D;}
	.st49{fill:#1F4BA0;}
	.st50{fill:#244789;}
	.st51{fill:#FBAE2E;}
	.st52{fill:#006991;}
	.st53{fill:#F9A01B;stroke:#FFFFFF;stroke-width:0.4473;stroke-miterlimit:10;}
	.st54{fill:#FAA533;}
	.st55{fill:#0092BC;}
	.st56{fill:#15182C;}
	.st57{fill:#3E419A;}
	.st58{fill:#101721;}
	.st59{fill:#ADA3A5;}
	.st60{fill:#9CA7AC;}
	.st61{clip-path:url(#SVGID_18_);}
	.st62{clip-path:url(#SVGID_20_);}
	.st63{fill:#F3FAF7;}
	.st64{fill:#2D2F63;}
	.st65{fill:#FAA819;}
	.st66{fill:#FEF6FA;}
	.st67{fill:#004F30;}
	.st68{fill:#A2C7D3;}
	.st69{fill:#EE2E55;}
	.st70{fill:#32366E;}
	.st71{fill:#00ADDC;}
	.st72{fill:#FFFFFF;stroke:#00ACD0;stroke-width:0.2915;stroke-miterlimit:10;}
	.st73{fill:#FFFFFF;stroke:#00ACD0;stroke-width:0.2973;stroke-miterlimit:10;}
	.st74{fill:#450000;}
	.st75{fill:#EE224A;}
	.st76{fill:#0064A5;}
	.st77{fill:#F47736;}
	.st78{fill:#B5BCBF;}
	.st79{fill:#F47B35;}
	.st80{fill:#EE2B52;}
	.st81{fill:#0C060E;}
	.st82{fill:#B58D49;}
	.st83{fill:#C9BBCB;}
	.st84{fill:#BA924C;}
	.st85{fill:#006BAF;}
	.st86{fill:#B3C5CB;}
	.st87{fill:#898C89;}
	.st88{fill:#2E2C61;}
	.st89{fill:#C3C5BD;}
	.st90{fill:#C4D2D9;}
	.st91{fill:#EE284D;}
	.st92{fill:#161212;}
	.st93{fill:#EE274E;}
	.st94{fill:#A2A7AA;}
	.st95{fill:#A6AAAC;}
	.st96{fill:#A1A2AB;}
	.st97{fill:#110B13;}
	.st98{fill:#AFC1C6;}
	.st99{fill:#0067AD;}
	.st100{fill:#FBFBFB;}
	.st101{fill:#0065AF;}
	.st102{fill:#121A26;}
	.st103{fill:#008D4C;}
	.st104{fill:#B43A3D;}
	.st105{fill:#111623;}
	.st106{fill:#AB9048;}
	.st107{fill:#F8A174;}
	.st108{fill:#120B19;}
	.st109{fill:#C59751;}
	.st110{fill:#B33638;}
	.st111{fill:#009154;}
	.st112{fill:#1C2026;}
	.st113{fill:#EE2844;}
	.st114{fill:#30385F;}
	.st115{fill:#3A84B1;}
	.st116{fill:#A3C5D7;}
	.st117{fill:#F9A039;}
	.st118{fill:#B0BEC0;}
	.st119{fill:#231D46;}
	.st120{fill:#FDB840;}
	.st121{fill:#CD2C32;}
	.st122{fill:#272049;}
	.st123{fill:#FEC027;}
	.st124{fill:#ADC7C6;}
	.st125{fill:#014429;}
	.st126{fill:#DF2539;}
	.st127{fill:#F57E30;}
	.st128{fill:#ED1942;}
	.st129{fill:#FEF9FB;}
	.st130{fill:#0065AA;}
	.st131{fill:#A6B5B8;}
	.st132{fill:#0B040C;stroke:#0B040C;stroke-width:0.2716;stroke-miterlimit:10;}
	.st133{fill:#F7F9FD;}
	.st134{fill:none;stroke:#EBF2CC;stroke-width:0.2972;stroke-miterlimit:10;}
	.st135{fill:#48484A;}
	.st136{opacity:0.2;}
	.st137{fill:#EE2E3B;}
	.st138{fill:#005BA6;}
	.st139{fill:#737577;}
	.st140{fill:#A1A0A5;}
	.st141{fill:#272360;}
	.st142{fill:#FAFAFB;}
	.st143{fill:#058BA6;}
	.st144{fill:#DEDBE7;}
	.st145{fill:#B2965B;}
	.st146{fill:#1B305B;}
	.st147{fill:#F9F9FA;}
	.st148{fill:#E12039;}
	.st149{fill:#FEF4F4;}
</style>
<g>
	<path class="st124" d="M34.3,5.5c0,0-8.7,3.6-11.7,13.5c-2.9,9.1,1.7,13.8,5,16.5c3.3,2.7,6.4,4.8,6.4,4.8s-4.9-1.2-6-1.3
		c-1.1-0.1-2.6,0-1.5,2.6c1.1,2.7,2.4,4.1,2.4,4.1H15.3l13.8,32.1H11.1l-5.4,8v28.8l5.6,7.5h36.8l3.7,8.4l3.6-8.4h36.8l5.5-7.9V85.7
		l-5.3-7.6h-18l13.9-32.3H75.3c0,0,1.8-2.8,2.2-4.4c0.4-1.5,0.2-2.7-2.3-2.3c-2.5,0.4-5,1.1-5,1.1S81.8,33.4,82,25.7
		c0.1-7.6-4.8-17-12.7-20.3c1.6,2.1,5.7,8.9,6.7,12.1c-0.8-0.7-2-1.2-2-1.2S69.4,5.6,61.3,5c2.5,1.8,6.7,6.9,7.7,9.5
		c-2.7-0.8-6.7-1.3-9.1-1.1c2.4,1,10.4,4.6,10.9,5.2c0.4,2.2,3.4,13.6-6.5,19.2c0.2-3.1-1.1-12.3-9.7-14c2.2,2.5,7.5,9.6,4,15.9
		c-2.5-0.7-9.2-1.4-13.7-0.1c-0.8-2.7-3-7.1,4.3-15.9c-3.8,0.6-10.1,4.3-10,13.9c-2.3-1.4-9.5-6.5-6.4-19.1c4.6-2.5,10.1-5,10.9-5.2
		c-2.1-0.5-8.5,0.9-9.4,1.2c0.5-1.4,4.8-7.1,7.9-9.7c-2.7,0.3-8.6,2.6-12.5,11.5c-0.8,0.3-2.3,1-2.3,1S30.5,10.1,34.3,5.5z"/>
	<path class="st125" d="M91.6,79.4c0,0-16.3-0.2-20,0c-0.9-1.2-3.5-4.8-5-5.4c-0.1-2.4-2.5-5.7-3.7-5.9c0.3-1.4,0.2-4.8-0.5-6.7
		c-1.2,0.5-3,3.1-3.5,5.2c-0.8-2,1.5-5.2,2.4-5.9c0.9-0.6,1.5-1.6,1.5-2.6c0-1-0.5-2-0.3-2.3c0.5-0.6,1.4-2.9,1.1-4.2
		c7.2,1.1,11.4-7.2,12.5-9.7c1-2.5,0.4-2-2-1.7c-4.1,0.5-7.7,2.3-8.7,3.2c-1,0.9-1.9,2-2.6,1.2c-0.7-0.8,0.4-1.8,1-2
		c0.5-0.3,5.4-2.4,11.2-7.3c8-6.9,6.1-12.7,4.8-16.8c-1.3-4.1-4.6-8.2-7.7-10.2c3.3,3.9,5.4,11.2,5.4,11.2s-2.3-1.6-4.3-2.6
		c-0.4-1.8-4.7-8.2-8.6-10.4c2.5,1.9,5.7,8,5.9,9.5c-2-0.9-6.2-1.5-6.2-1.5s4.4,2,7.4,3.5c3.2,14.3-4.5,19.3-8.6,21.2
		c1-7.7-2.5-11.6-5.7-13.8c4.8,6.6,3.6,12.1,2,15.5c-6.5-2.6-13.8-0.8-14.9,0C41,34.7,44,28.3,46.6,25.6c-6.3,2.5-6.5,11.8-6.3,13.9
		c-11.4-6.1-9.1-18.1-8.3-21.4c1.7-1.6,6.7-3.5,6.7-3.5s-3.7,0.7-5.8,1.5c0.6-2.2,3.5-7.2,6.3-9.5c-6,3.1-8.9,10.6-8.9,10.6
		s-2.8,1.1-4.2,2.3c0.4-4.8,5.3-11.2,5.3-11.2s-2.7,1.6-5.8,6.1c-3.5,5-3.6,10.1-2.6,13.1c2,7.2,12.8,13.4,15,14.3
		c2.4,1,3.5,1.8,3.2,2.6c-0.3,0.8-1.5,0.8-3.1-1c-1.9-2-7.1-2.6-9.7-3.4c-2.1-0.6-1.2,1.3-1.2,1.3s1.3,3.2,3.7,6.6
		c3.4,4.7,9.3,4.2,9.3,4.2s-0.3,2.2,1.1,4c-0.8,3.8-0.1,3.8,0.5,4.3c4,3.1,3.1,5.9,2.6,6.1c-0.2-1.4-1.7-3.5-3.3-5.2
		c-0.7,1.2-0.7,4.8-0.3,6.7c-1.2,0.6-3.7,3.1-3.7,5.7c-2,1.4-4.8,5.9-4.8,5.9H12L7.1,86v28.1l5,6.7h79.5l4.8-6.9V86.1L91.6,79.4z
		 M74.5,20.2c0,0,3,2.4,2.9,5.2c0,1.8-1.1,4.5-3,6C75.5,26.9,74.5,20.2,74.5,20.2z M26.3,25.4c0-2.8,3.1-5.2,3.1-5.2
		s-1.1,6.7,0.1,11.2C27.5,29.9,26.3,27.2,26.3,25.4z"/>
	<path class="st126" d="M17.5,47.4h11.2c0,0,3.4,5.7,10.2,5.9c0.5,1.9,1,2.6,1,2.6s-1.2,2.5-0.3,4.4c-0.4,1.8-0.7,5.4-0.4,6.8
		c-1.4,0.7-3.5,3.8-3.4,5.5c-2.9,2.6-4.3,5.1-4.3,5.1h-0.6L17.5,47.4z"/>
	<g>
		<g>
			<g>
				<g>
					<path class="st126" d="M15,83.1l-4.7,6l3.5,0.1v21.8l-1.8,0l-0.3,0.6c-0.3,0.6,0,1.1,0.5,1.8c0.3,0.4,0.6,0.9,1,1.4
						c0.7,1,1.4,1.9,1.4,1.9l0.3,0.4h10l2.7-4.1v-10.7l-0.3-0.3c-0.5-0.5-1-1.1-1.4-1.5c0.4-0.6,1-1.6,1.5-2.4l0.2-0.3V87.5L24,83.1
						H15z M21.7,110.7h-2.2v-6.9h2.2V110.7z M21.7,98h-2.2v-8.7h2.2V98z"/>
				</g>
			</g>
			<g>
				<path class="st126" d="M37.8,94.8l0.6,0v16h-2.3V94.9h0.8V89h-8.4l1.4,5.9h0.5c0,1.7,0,5,0,8.3c0,2.3,0,4.7,0,6.4
					c0,3.4,0,3.4,0.4,3.7c0.2,0.3,1.2,1.9,2.1,3.3l0.3,0.5h8.4l2.7-4.1V95h0.3l1.2-5.9h-8.1L37.8,94.8z"/>
			</g>
			<g>
				<path class="st126" d="M54.3,110.9h-2.3V95h2.3v5.5l6-4.5l0-0.6c0-0.6,0-1.3,0-1.6c0.1-0.6-0.1-0.9-1.7-2.8
					c-0.7-0.9-1.5-1.8-1.5-1.8L56.8,89h-7.2l-3.1,4.7v19.1l2.5,4.2h8.6l2.6-4v-3.9l-5.8-4.5V110.9z"/>
			</g>
			<g>
				<path class="st126" d="M72.1,101.8l3.5-6.8h1.1v-6H70v5.9l-1.9,3.5v-3.5h0.9v-6l-1.1,0c0,0-2.6,0-4.3,0c-0.9,0-1.2,0-1.4,0
					l-1.7-0.1l1.5,5.9h0.4v15.9h-0.6l-0.2,0.9c-0.3,1.5-0.7,3.2-0.9,3.8l-0.3,0.3l0.3,0.7c0.3,0.7,0.7,0.7,2.6,0.7
					c1.9,0,4.8-0.1,4.8-0.1l1.1,0v-6.2h-1v-1.5l0.8-1.4l1.3,3.2v5.9h7.5v-6.2h-1.4L72.1,101.8z"/>
			</g>
			<g>
				<path class="st126" d="M91.9,101.4c-2.6-2.1-6.3-5.1-7.5-6.1c0-0.2,0-0.5,0-0.8c0-0.8,0-1.8,0-2.8c0-1.1,0-2.1,0-2.9h2.1V97
					l5.7-4.8v-4.9L89.1,83h-7.3l-3,4.7V98l7.8,6.4v6.4h-2.1v-6.7l-5.7,4.6l0,4.4l2.6,3.9h8.4l2.6-4v-11.2L91.9,101.4z"/>
			</g>
		</g>
	</g>
	<path class="st5" d="M30,42.6c0,0,4.5-0.5,7.8,5.4c0,0,1-0.6,2.4-0.3c0,0-0.2,2.2-0.1,2.6C40,50.3,32.8,51.4,30,42.6z"/>
	<path class="st5" d="M73.7,42.6c0,0-4.5-0.5-7.8,5.4c0,0-1-0.6-2.4-0.3c0,0,0.2,2.2,0.1,2.6C63.7,50.3,70.9,51.4,73.7,42.6z"/>
	<path class="st5" d="M43.7,45.3c0,0,1.7-1.1,1.9-2.2c0,0,0.1-0.3,0.6,0.1c0.5,0.5,0.5,0.9,0.1,1.2C45.9,44.8,44.5,46,43.7,45.3z"/>
	<path class="st5" d="M59.9,45.3c0,0-1.7-1.1-1.9-2.2c0,0-0.1-0.3-0.6,0.1c-0.5,0.5-0.5,0.9-0.1,1.2C57.7,44.8,59.1,46,59.9,45.3z"
		/>
	<g>
		<path class="st5" d="M61.8,51c-0.3-0.9-0.7-1.6-1.4-1.3c0,0-1.1,1.1-3,1c-0.1,1-0.7,3.3-1.2,4c0.7,0.5,1.5,2.2,1.5,2.2
			c0-0.1,0-1.5,0-1.5s1.7,0,2.2-0.2C60.4,54.8,62.4,53.6,61.8,51z M60.7,53c-0.8,1.6-2.8,1.4-3.7,1.3c0.5-0.7,1-2.2,1-3.2
			c1.3,0.3,2.5-0.6,2.6-0.5C60.8,50.9,61.1,52.1,60.7,53z"/>
		<path class="st5" d="M43.5,49.6c-0.7-0.3-1.1,0.4-1.4,1.3c-0.7,2.6,1.4,3.8,2,4c0.5,0.2,2.2,0.2,2.2,0.2s0,1.5,0,1.5
			c0,0.1,0.7-1.6,1.5-2.2c-0.6-0.7-1.2-3-1.2-4C44.6,50.7,43.5,49.6,43.5,49.6z M43.1,53c-0.4-0.9,0-2.1,0.1-2.5
			c0-0.1,1.2,0.8,2.6,0.5c0,0.9,0.5,2.5,1,3.2C46,54.4,44,54.6,43.1,53z"/>
	</g>
	<path class="st5" d="M56.9,59.8c-0.5-1.2-0.9-1.2-1.9-1.6c-1-0.5-1.6-2-1.6-2l-1.5,0l-1.5,0c0,0-0.6,1.6-1.6,2
		c-1,0.5-1.5,0.5-1.9,1.6c-0.5,1.2-0.9,3.3,1.1,6.1c0.9-0.6,1.4-1.2,2.1-1.2C50,64.3,50,64.3,50,64.3s-1.1,0-1.8,0.4
		c-0.4-0.8-1-1.9-0.6-3.5c0.4-1.6,0.5-1.8,1.1-2c0.6-0.2,1.8-0.8,1.9-1.7c0.3,0,0.9,0,1.3,0c0.4,0,0.9,0,1.3,0
		c0.1,0.9,1.3,1.5,1.9,1.7c0.6,0.2,0.7,0.4,1.1,2c0.4,1.6-0.2,2.6-0.6,3.5c-0.6-0.4-1.8-0.4-1.8-0.4s0,0-0.1,0.4
		c0.7,0,1.3,0.5,2.1,1.2C57.8,63.1,57.4,61,56.9,59.8z"/>
	<path class="st5" d="M49.2,60.8c0,0,0.6,0.5,0.8,0.7c0.2,0.2,0.2,0.3,0.2,0.7c-0.1,0.4-0.2,0.7-0.4,0.8c-0.2,0.1-0.7-0.6-0.9-1.8
		C48.9,60.8,49,60.6,49.2,60.8z"/>
	<path class="st5" d="M54.5,60.8c0,0-0.7,0.5-0.8,0.7c-0.2,0.2-0.2,0.3-0.2,0.7c0.1,0.4,0.2,0.7,0.4,0.8c0.2,0.1,0.7-0.6,0.9-1.8
		C54.8,60.8,54.7,60.6,54.5,60.8z"/>
	<path class="st5" d="M49.2,67.1c0,0,1.2-0.7,2.5-0.7c1.3,0,2.7,0.8,2.7,0.8v0.7c0,0-1.6-0.8-2.7-0.8c-1.1,0-2.4,0.8-2.4,0.8
		L49.2,67.1z"/>
	<path class="st5" d="M46.2,67.8c0,0.1,2.1,2.7,3.9,3.5c1.4,0.6,3.2,0.2,3.5,0.1c0.3-0.1,3.2-1.9,4-3.6c1,0.9,1.1,1.5,1.1,1.5
		s-2.8,4.2-0.7,9.2c-3.9,0.9-4.1,0.9-4,1c0,0-5.7-0.3-5.7-0.3s0.9-1.2,1.7-1.7c-0.8-0.9-0.8-0.9-0.8-0.9s-1.3,0.7-1.6,1
		c0-0.8,0-0.8,0-0.8l0.9-0.7l-1-0.9c0,0-0.1-4-2.3-5.9C45.6,68.4,46.2,67.8,46.2,67.8z"/>
	<path class="st5" d="M41,72.2c0,0,0,3,1.5,4.9c0.5,0.7,0,1-0.5,0.5s-2.1-2.9-2.5-4.6C40.3,72.5,41,72.2,41,72.2z"/>
	<path class="st5" d="M62.8,72.1c0,0-0.2,3.3-2,5.1c0,0.3-0.1,1,0.5,0.5c0.6-0.5,1.2-1.3,1.2-1.3l0.5-0.1c0,0-0.1,1.3-1.4,2.7
		c0,0.3,0.1,0.3,0.5,0c0.4-0.3,2.7-2.1,2.6-5.6C64.1,73.1,62.8,72.1,62.8,72.1z"/>
	<path class="st125" d="M28,22.9c0,0-0.4,3.6,0,5.2C27.1,27.4,26.8,25,28,22.9z"/>
	<path class="st125" d="M75.8,22.9c0,0,0.3,3.6,0,5.2C76.6,27.4,76.9,25,75.8,22.9z"/>
	<path class="st126" d="M86.3,47.4H75.1c0,0-3.4,5.7-10.2,5.9c-0.5,1.9-1,2.6-1,2.6s1.2,2.5,0.3,4.4c0.4,1.8,0.7,5.4,0.4,6.8
		c1.4,0.7,3.5,3.8,3.4,5.5c2.9,2.6,4.3,5.1,4.3,5.1h0.6L86.3,47.4z"/>
	<path class="st126" d="M50,122.2h3.8c0,0-1.9,4.6-2,4.6C51.8,126.7,50,122.2,50,122.2z"/>
	<path class="st5" d="M26.5,87.9l-3-3.7h-8l-3,3.8l2.3,0v24c0,0-2.1,0-2.2,0c-0.1,0,2.8,3.9,2.8,3.9h8.9l2.2-3.4v-9.9
		c0,0-1.9-2-1.9-2.2c0-0.1,1.9-3.1,1.9-3.1V87.9z M18.4,88.1h4.4V99h-4.5L18.4,88.1z M22.8,112h-4.5v-9.3h4.5V112z"/>
	<path class="st5" d="M29.9,90.1h5.9v3.8h-0.8v18.1h4.5V93.8c0,0-0.9,0-0.7,0c0.2,0,0-3.7,0-3.7h5.6l-0.8,3.7h-0.5v18.8L41,116h-7.2
		c0,0-2.1-3.5-2.2-3.5c-0.1,0,0-18.8,0-18.8h-0.8L29.9,90.1z"/>
	<path class="st5" d="M47.5,94l2.6-3.9h6.1c0,0,3,3.5,3,3.6c0,0.1,0,1.8,0,1.8l-3.8,2.8v-4.5H51V112h4.4v-5.1l3.6,2.8v3.1l-2.1,3.2
		h-7.4l-2-3.4V94z"/>
	<path class="st5" d="M61.9,90.1c0.1,0,5.9,0,5.9,0v3.8H67v8.9l4.8-8.8h-0.7v-3.9h4.5v3.8H75l-4,7.9l4.6,10.1h1v4h-5.3v-4h0.4
		l-2.6-6.4l-2.1,3.5v2.9h1v4c0,0-6.5,0.1-6.4,0c0.1-0.1,1-4.2,1-4.2h0.8V93.7h-0.6L61.9,90.1z"/>
	<polygon class="st124" points="12.4,88 16.4,86 14.8,88.1 	"/>
	<polygon class="st124" points="16.7,86.1 23.1,86.1 23.9,87.2 22.8,88.1 18.4,88.1 18.3,99 16.6,100.6 	"/>
	<path class="st124" d="M24.6,87.8h1.9v9.6l-1.9,3.1c0,0-1.7,0-1.7,0c0.1,0,1.7-2.6,1.7-2.6V87.8z"/>
	<path class="st124" d="M16.6,100.7h6.2l1.2,1.4l-1.2,0.5c0,0-4.5,0-4.5,0c0,0,0,9.3,0,9.3l-1.7,1.8L16.6,100.7z"/>
	<path class="st124" d="M24.6,102.8h1.8c0,0,0,9.8,0,9.8c0,0-2.3,3.4-2.3,3.4h-8.8l1.3-2.1h6.8l1.2-1.5L24.6,102.8z"/>
	<polygon class="st124" points="31,93.6 32.1,91.9 33.4,91.9 31.6,93.8 	"/>
	<polygon class="st124" points="33.4,91.9 35,91.9 35.8,90.1 35.8,93.9 35.1,93.9 35.1,111.9 34.1,112.8 33.2,111.6 	"/>
	<polygon class="st124" points="38.8,93.8 39.7,91.7 41.2,91.7 39.5,93.8 	"/>
	<polygon class="st124" points="41.2,91.7 42.6,91.7 44.6,90.1 43.7,93.9 43.2,93.9 43.2,112.7 41,116 33.8,116 34.8,113.9 
		40,113.9 41.3,112.3 	"/>
	<polygon class="st124" points="57.3,93.9 57.3,95.1 55.4,98.4 59.2,95.6 59.2,93.9 	"/>
	<path class="st124" d="M55.4,93.9l1.2-1.1l-0.9-1h-4.9l-1.5,2.3c0,0-0.1,17.8,0,17.8s0.8,0.9,0.8,0.9L51,112V93.9H55.4z"/>
	<polygon class="st124" points="57.2,110.2 59,109.6 59,112.7 56.9,115.9 49.5,115.9 50.4,114 56.2,114 57.2,112.7 	"/>
	<polygon class="st124" points="62.7,93.7 64,91.7 65.1,91.7 63.3,93.8 	"/>
	<polygon class="st124" points="65.1,91.7 66.4,91.7 67.8,90.1 67.8,93.8 67,93.8 67,102.8 65.2,106.3 	"/>
	<polyline class="st124" points="71.1,93.9 72.2,91.6 73.4,91.6 71.7,93.9 70.9,93.9 	"/>
	<polygon class="st124" points="73.4,91.6 74.5,91.6 75.6,90.1 75.6,93.9 75,93.9 70.9,101.9 75.6,111.9 74.3,114 70,103.7 
		66.9,109 66.9,111.9 65.1,113.9 65.1,108.7 73.6,93.7 	"/>
	<polygon class="st124" points="71.2,115.9 72.2,114.3 75.4,114.3 76.6,111.9 76.6,115.9 	"/>
	<polygon class="st124" points="67.9,111.9 66.5,114 63.6,114 61.6,116 67.9,116 	"/>
	<path class="st5" d="M79.8,109.3l3.6-2.9v5.5h4.3v-8l-7.8-6.4V88l2.5-3.9h6.2l2.6,3.6v4l-3.6,3v-6.9h-4.3c0,0,0,8,0,8
		c0,0,7.9,6.4,7.9,6.4v10.4l-2.1,3.2h-7.2l-2.1-3.1L79.8,109.3z"/>
	<polygon class="st124" points="83.4,106.4 81.6,109.7 81.6,111.9 82.2,112.9 83.4,111.9 	"/>
	<polygon class="st124" points="81.8,115.9 82.6,114 88.5,114 89.6,112.3 89.6,103.2 91.2,102.3 91.2,112.7 89.1,115.9 	"/>
	<polygon class="st124" points="89.2,103.1 87.6,103.9 79.9,97.5 81.7,96.6 	"/>
	<polygon class="st124" points="81.7,96.6 83.4,95.8 83.4,87.8 87.7,87.8 88.9,86.8 88.2,85.9 83,85.9 81.7,87.9 	"/>
	<polygon class="st124" points="87.7,94.7 89.7,91.3 89.7,87.9 91.3,87.9 91.3,91.7 	"/>
	<g>
		<g>
			<polygon class="st5" points="32.8,84.5 32.8,84.5 31.8,81.2 29.6,81.2 29.6,86.4 31,86.4 30.8,82.4 30.9,82.4 32.2,86.4 
				33.4,86.4 34.7,82.4 34.7,82.4 34.6,86.4 36,86.4 36,81.2 33.8,81.2 			"/>
			<rect x="37.1" y="81.2" class="st5" width="1.4" height="5.2"/>
			<polygon class="st5" points="41,81.2 39.6,81.2 39.6,86.4 43.1,86.4 43.1,85.2 41,85.2 			"/>
			<polygon class="st5" points="49.3,81.2 48.5,85.2 48.5,85.2 47.5,81.2 46.1,81.2 45.1,85.2 45.1,85.2 44.3,81.2 42.9,81.2 
				44.1,86.4 46,86.4 46.8,83.2 46.8,83.2 47.5,86.4 49.5,86.4 50.7,81.2 			"/>
			<path class="st5" d="M51.9,81.2l-1.6,5.2h1.4l0.2-0.9h1.9l0.3,0.9h1.4L54,81.2H51.9z M52.3,84.5l0.6-2.2l0.7,2.2H52.3z"/>
			<polygon class="st5" points="66.3,81.2 64.6,81.2 63.3,83.2 62.8,83.2 62.8,81.2 61.4,81.2 61.4,86.4 62.8,86.4 62.8,84.4 
				63.3,84.4 64.7,86.4 66.4,86.4 64.4,83.8 			"/>
			<polygon class="st5" points="68.5,84.3 70.8,84.3 70.8,83.3 68.5,83.3 68.5,82.4 71,82.4 71,81.2 67.1,81.2 67.1,86.4 71,86.4 
				71,85.3 68.5,85.3 			"/>
			<polygon class="st5" points="73.4,85.3 73.4,84.3 75.8,84.3 75.8,83.3 73.4,83.3 73.4,82.4 75.9,82.4 75.9,81.2 71.9,81.2 
				71.9,86.4 76,86.4 76,85.3 			"/>
			<path class="st5" d="M59.1,84.6c0,0.4-0.1,0.6-0.2,0.6c-0.1,0.1-0.4,0.1-0.7,0.1c-0.3,0-0.5,0-0.6-0.1c-0.1-0.1-0.2-0.3-0.2-0.6
				v-3.4H56v3.5c0,0.9,0.2,1.4,0.6,1.6c0.4,0.2,1,0.3,1.7,0.3h0.2c0.4,0,0.9-0.1,1.2-0.2c0.4-0.1,0.6-0.5,0.7-1c0,0,0-0.1,0-0.1
				c0,0,0-0.1,0-0.1c0,0,0,0,0-0.1c0,0,0,0,0-0.1c0-0.1,0-0.1,0-0.2c0-0.1,0-0.1,0-0.2v-3.3h-1.4V84.6z"/>
		</g>
	</g>
</g>
</svg>
