<?xml version="1.0" encoding="utf-8"?>
<!-- Generator: Adobe Illustrator 23.0.1, SVG Export Plug-In . SVG Version: 6.00 Build 0)  -->
<svg version="1.1" id="Capa_1" xmlns="http://www.w3.org/2000/svg" xmlns:xlink="http://www.w3.org/1999/xlink" x="0px" y="0px"
	 viewBox="0 0 128.4 90.2" style="enable-background:new 0 0 128.4 90.2;" xml:space="preserve">
<style type="text/css">
	.st0{fill:#175384;}
	.st1{fill:#A0A5AA;}
	.st2{fill:#0B040C;}
	.st3{fill:#FFC727;}
	.st4{fill:#F0545B;}
	.st5{fill:#FFFFFF;}
	.st6{fill:#00A855;}
	.st7{fill:#B4C4C9;}
	.st8{fill:#221A21;}
	.st9{fill:#EF3A47;}
	.st10{fill:url(#SVGID_1_);}
	.st11{fill:url(#SVGID_2_);}
	.st12{fill:url(#SVGID_3_);}
	.st13{fill:url(#SVGID_4_);}
	.st14{fill:url(#SVGID_5_);}
	.st15{fill:url(#SVGID_6_);}
	.st16{fill:url(#SVGID_7_);}
	.st17{fill:url(#SVGID_8_);}
	.st18{fill:url(#SVGID_9_);}
	.st19{fill:url(#SVGID_10_);}
	.st20{fill:url(#SVGID_11_);}
	.st21{fill:url(#SVGID_12_);}
	.st22{fill:#313564;}
	.st23{fill:#F04B41;stroke:#FFFFFF;stroke-width:2.1543;stroke-linecap:round;stroke-linejoin:round;stroke-miterlimit:10;}
	.st24{fill:#007FBA;stroke:#FFFFFF;stroke-width:2.1543;stroke-linecap:round;stroke-linejoin:round;stroke-miterlimit:10;}
	.st25{fill:#313564;stroke:#FFFFFF;stroke-width:2.1543;stroke-linecap:round;stroke-linejoin:round;stroke-miterlimit:10;}
	.st26{fill:#FFFFFF;stroke:#FFFFFF;stroke-width:2.1543;stroke-linecap:round;stroke-linejoin:round;stroke-miterlimit:10;}
	.st27{clip-path:url(#SVGID_14_);}
	.st28{fill:#FBAC36;stroke:#FFFFFF;stroke-width:2.1543;stroke-linecap:round;stroke-linejoin:round;stroke-miterlimit:10;}
	.st29{fill:#F04B41;}
	.st30{fill:#007FBA;}
	.st31{clip-path:url(#SVGID_16_);}
	.st32{fill:#FBAC36;}
	.st33{fill:#2C2F61;}
	.st34{fill:#B7B9BA;}
	.st35{fill:#EF3748;}
	.st36{fill:#8999AC;}
	.st37{fill:#2B2F61;}
	.st38{fill:#EE2C45;}
	.st39{fill:#101624;}
	.st40{fill:#59707A;}
	.st41{fill:#4A3285;}
	.st42{fill:#F79230;}
	.st43{fill:#F15733;}
	.st44{fill:#D7303F;}
	.st45{fill:#FAA832;}
	.st46{fill:#1F1721;}
	.st47{fill:#5F3188;}
	.st48{fill:#EE243D;}
	.st49{fill:#1F4BA0;}
	.st50{fill:#244789;}
	.st51{fill:#FBAE2E;}
	.st52{fill:#006991;}
	.st53{fill:#F9A01B;stroke:#FFFFFF;stroke-width:0.4473;stroke-miterlimit:10;}
	.st54{fill:#FAA533;}
	.st55{fill:#0092BC;}
	.st56{fill:#15182C;}
	.st57{fill:#3E419A;}
	.st58{fill:#101721;}
	.st59{fill:#ADA3A5;}
	.st60{fill:#9CA7AC;}
	.st61{clip-path:url(#SVGID_18_);}
	.st62{clip-path:url(#SVGID_20_);}
	.st63{fill:#F3FAF7;}
	.st64{fill:#2D2F63;}
	.st65{fill:#FAA819;}
	.st66{fill:#FEF6FA;}
	.st67{fill:#004F30;}
	.st68{fill:#A2C7D3;}
	.st69{fill:#EE2E55;}
	.st70{fill:#32366E;}
	.st71{fill:#00ADDC;}
	.st72{fill:#FFFFFF;stroke:#00ACD0;stroke-width:0.2915;stroke-miterlimit:10;}
	.st73{fill:#FFFFFF;stroke:#00ACD0;stroke-width:0.2973;stroke-miterlimit:10;}
	.st74{fill:#450000;}
	.st75{fill:#EE224A;}
	.st76{fill:#0064A5;}
	.st77{fill:#F47736;}
	.st78{fill:#B5BCBF;}
	.st79{fill:#F47B35;}
	.st80{fill:#EE2B52;}
	.st81{fill:#0C060E;}
	.st82{fill:#B58D49;}
	.st83{fill:#C9BBCB;}
	.st84{fill:#BA924C;}
	.st85{fill:#006BAF;}
	.st86{fill:#B3C5CB;}
	.st87{fill:#898C89;}
	.st88{fill:#2E2C61;}
	.st89{fill:#C3C5BD;}
	.st90{fill:#C4D2D9;}
	.st91{fill:#EE284D;}
	.st92{fill:#161212;}
	.st93{fill:#EE274E;}
	.st94{fill:#A2A7AA;}
	.st95{fill:#A6AAAC;}
	.st96{fill:#A1A2AB;}
	.st97{fill:#110B13;}
	.st98{fill:#AFC1C6;}
	.st99{fill:#0067AD;}
	.st100{fill:#FBFBFB;}
	.st101{fill:#0065AF;}
	.st102{fill:#121A26;}
	.st103{fill:#008D4C;}
	.st104{fill:#B43A3D;}
	.st105{fill:#111623;}
	.st106{fill:#AB9048;}
	.st107{fill:#F8A174;}
	.st108{fill:#120B19;}
	.st109{fill:#C59751;}
	.st110{fill:#B33638;}
	.st111{fill:#009154;}
	.st112{fill:#1C2026;}
	.st113{fill:#EE2844;}
	.st114{fill:#30385F;}
	.st115{fill:#3A84B1;}
	.st116{fill:#A3C5D7;}
	.st117{fill:#F9A039;}
	.st118{fill:#B0BEC0;}
	.st119{fill:#231D46;}
	.st120{fill:#FDB840;}
	.st121{fill:#CD2C32;}
	.st122{fill:#272049;}
	.st123{fill:#FEC027;}
	.st124{fill:#ADC7C6;}
	.st125{fill:#014429;}
	.st126{fill:#DF2539;}
	.st127{fill:#F57E30;}
	.st128{fill:#ED1942;}
	.st129{fill:#FEF9FB;}
	.st130{fill:#0065AA;}
	.st131{fill:#A6B5B8;}
	.st132{fill:#0B040C;stroke:#0B040C;stroke-width:0.2716;stroke-miterlimit:10;}
	.st133{fill:#F7F9FD;}
	.st134{fill:none;stroke:#EBF2CC;stroke-width:0.2972;stroke-miterlimit:10;}
	.st135{fill:#48484A;}
	.st136{opacity:0.2;}
	.st137{fill:#EE2E3B;}
	.st138{fill:#005BA6;}
	.st139{fill:#737577;}
	.st140{fill:#A1A0A5;}
	.st141{fill:#272360;}
	.st142{fill:#FAFAFB;}
	.st143{fill:#058BA6;}
	.st144{fill:#DEDBE7;}
	.st145{fill:#B2965B;}
	.st146{fill:#1B305B;}
	.st147{fill:#F9F9FA;}
	.st148{fill:#E12039;}
	.st149{fill:#FEF4F4;}
</style>
<g>
	<path class="st0" d="M124.4,45.2c0-24-27-43.5-60.2-43.5C30.9,1.7,3.9,21.2,3.9,45.2c0,24,27,43.5,60.2,43.5
		C97.4,88.7,124.4,69.2,124.4,45.2z"/>
	<path class="st1" d="M43.5,17.1c0.1-0.1-2.3-6.2-2.8-10.3c-0.5-4,1.7-5.4,4.7-3.2c2.5,1.9,8.7,5.2,8.7,5.2l-1.2-3.4
		c0,0,4.1,1,6,2.2c-0.3-1.6-0.1-2.2-0.2-2.2c-0.1,0,3.9,2.4,4.6,3c-0.4-2-1-3.7-1-3.7s4,3,5.4,4.6c0.9-2.3,4.2-3.3,4.2-3.3
		s0.1,3.6,0.4,4.2c1.2-0.4,6.8-3.7,9.4-5.6c2.6-1.9,4.7-3.2,5.8-2.1c1.1,1.2,1.8,4.5-2,14.9c3.2,1.4,5.2,7.2,5.2,7.2l-2.5-1
		c0,0,2.4,3.9,2.3,7.1c-1.2-0.7-2.9-1.5-2.9-1.5s2.7,4.1,2.6,5.3c1-2.3,1-2.3,1-2.3l4.5,8.7l5.8-10.7l9.9,18.1l-1.3,1l4.4,7.6
		c0,0-1.1,0.8-1.8,0.9c0.9,1.7,0.9,2.2,1.1,2.1c0.2-0.1,4.8,0.8,6.7,4.6c-1.8,4-2.6,5.9-2.6,5.9s3.9,4.2,2.3,10.4
		c-1.6,6.3-8.5,6.6-11.7,4.7c-2.4-0.2-85.1-0.2-85.1-0.2l0.4,1.1L8.8,86.3c0,0,2-6.5,2.2-6.6c0.2-0.1-0.1-6.6-0.1-6.6l-2.3,1.1
		l-2-14.5h6.9l1-1.9c0,0-1.5-0.6-1.8-1.1c1.7-2.7,4.4-7.7,4.4-7.7l-1.3-0.6L26,30.7l5.6,10.3l4.5-8.3l1,1.5c0,0,0.8-3.1,2.2-4.9
		c-1.9,0.3-3.8,1.2-3.8,1.2s1.7-4.5,3.9-6.5c-2.1,0.2-2.1,0.2-2.1,0.2S39.2,20.4,43.5,17.1z"/>
	<path class="st2" d="M44.5,17.6c0,0-2.1-5.5-2.8-10c-0.3-2.8,0-3.7,0.7-4.1C43.1,3,44.7,4,46.2,5.1c1.5,1.1,6.1,4,9,5.2
		c0.2-1.2-0.9-3.6-0.9-3.6s3.4,0.9,5.6,2.5c-0.2-1.8-0.3-2-0.3-2s2.9,1.7,4.5,2.9c0.2-1.8-0.3-3.4-0.3-3.4s2.8,2.2,3.9,4.1
		c0.8-1.1,2.3-3,3.2-3.2c0,1.8,0.7,3.6,0.7,3.6s3.2-0.7,7.8-4c3.5-2.4,5.4-3.7,6.1-4.1c0.7-0.4,1.3-0.4,1.6,0c0.3,0.5,1.4,2.6,0,7.1
		c-1.4,4.5-2.5,7.4-2.5,7.4s2.8,1.8,4.3,5.3c-0.9-0.3-3.2-0.7-3.2-0.7s3.6,2.8,3.8,7c-1.2-0.8-3.9-1.3-3.9-1.3s4.5,5,4.2,8.9
		c0.8-1.4,1.5-2.7,1.5-2.7l4.6,8.3l5.8-10.3c0,0,8.4,15.8,8.5,15.8c0.1,0.1-0.8,0.4-1.3,0.6c0.9,1.6,4.6,7.7,4.6,7.7
		s-0.3,0.4-1.9,0.7c0.5,1.5,1.5,3.4,1.5,3.4s4.2,0.3,6.5,4.1c-1.7,3.6-2.8,6.1-2.8,6.1s3.7,3.3,2.6,8.6c-1,5.4-5,7.4-11,5.3
		c-4.8,0-86.2,0-86.2,0l0.3,1l-12.4-0.1l2-5.9l-0.1-8.1l-2.3,1.3L7.7,60.6h6.4l1.8-3.2c0,0-1.3-0.3-1.8-0.8c1.1-2.1,4.5-7.8,4.5-7.8
		s-1.1-0.1-1.4-0.5c1.3-2.5,8.7-15.8,8.7-15.8l5.6,10.3l4.5-8.3l1.6,2.6c0,0,0.3-5.7,3.8-8.9c-1.1-0.1-3.9,0.6-4.3,0.8
		c0.8-1.8,2.9-4.3,4.9-6c-1.8,0-2.5,0-2.9,0.1C39.6,22,41.2,19.7,44.5,17.6z"/>
	<g>
		<path class="st0" d="M71,13.8c0,0,3.2-0.9,4.9-1.9c1.7-1,7.2-4.6,8.4-5.6c1.1-0.9,1.7-0.7,1.2,1c-0.5,1.7-2.6,8.7-4,10.4
			c0,0,2.4,1.1,3.7,3l-3.7,0.3c0,0,4.2,3.4,5.3,5.4c0,0-3.9-0.3-5.4-0.1c0,0,7.3,5.8,6.5,12.5c0,0-0.5-7.7-9.1-13.2
			c0,0,3.3-0.8,5.7-0.5c0,0-3.8-3.9-5.7-4.5c0,0,2.6-0.7,4.5-0.6c0,0-2.2-1.7-3-1.8c0,0,3.9-6.9,4.4-11c0,0-4.7,3.6-5.6,5l0.8,1.4
			c0,0-3.5,0.8-5,0.9l1.9,2.2C76.6,16.6,73.3,14.6,71,13.8z"/>
		<path class="st1" d="M61.7,10.8c0,0,2.3,1.5,2.4,2.5c0.1,1,0,4.3-0.3,5.6c-0.3,1.3-3.3,2.5-4.6,2c0.4,0.9,1.7,1.9,2.4,2
			c-1.3,0.7-5,0.2-5,0.2c1.3,1.5,3.6,2.7,4.6,2.9c1,0.2,2.4,2.7,0.5,3.1c1.6,1.3,1.7,3.7,1.7,3.7s-2.1-2-4-0.1
			c3.8,0.6,4,3.1,4.1,5.4c-0.6-0.3-2.4-0.9-3.2,0.4c-0.4,0.6-1-3-1-3s1.4-0.1,2.2,0.4c-0.7-1.6-2.6-2.8-4.3-0.2
			c-1.7,2.5-0.5,4.7,0.3,6.7c0.8,2.1,2.5,4.7,2.4,8.3c0,2.9,0.5,3.9,3.6,4.2c2.3-0.1,3.7-1.3,3.7-2.7c0-1.3-0.1-6.4,1.9-8.6
			c0,0-0.9,1-0.8,5c-0.1,4.3-1,7.8-4.7,7.7c-2.6-0.1-4.1-1-4.5-4.9c-0.4-3.8-1.9-7-2.7-7.9c-0.4,1.1,0.2,2.2,0.6,3.2
			c0.3,1,0.5,2,0.5,3.1c-0.7-0.7-1.4-0.8-1.3-0.8c0.1,0,1,5.4,1.7,6.5c-2.1,0-5.4,0-5.4,0s-2.1-3.8-2.1-3.7c0,0.1,0.8-0.1,1.2-0.4
			c-0.6-1.1-2.9-5.1-2.8-5.1c0.1,0,0.4,0,0.8-0.2c-1-1.7-5.4-9.7-5.4-9.7s-3.7,6.8-3.6,6.7c0.1-0.1-1.6-2.8-1.5-2.8
			c0.1-0.1,0.5-9.2,6.5-14.2c-1-0.4-4.2-0.4-4.1-0.3c0.1,0,2.6-3.4,5.5-4.2c-1.6-0.5-3.8-0.3-3.8-0.3s1.2-2.9,6.8-3.8
			C50,17.3,49.3,17,49.1,17c-0.2,0-1-0.3,0.1-0.7c1.1-0.3,2.7-0.8,3.2-1c0.5-0.2,1-0.2-0.1-0.7c-1.1-0.5-2.7-1-3.1-1.1
			c-0.4-0.1-1-0.2-0.2-0.8c0.8-0.6,0.9-0.6,0.1-1.1c-0.8-0.5-1.9-1.3-2.2-1.5c-0.2-0.2-0.6-0.6-0.6,0.6c-0.1,1.2,0.3,5.7,0.4,6.4
			c-0.7,0.2-0.7,0.2-0.7,0.2s-2.5-6.6-2.8-10.6c-0.1-0.8,0.3-1.1,0.8-0.7c0.5,0.4,7.6,5.8,13,6.9c-0.1-2-0.1-3-0.1-3
			s2.4,0.9,3.9,3.7C61.5,12.2,61.7,10.8,61.7,10.8z"/>
		<path class="st1" d="M66.8,27.6c0,0,1.1-4,2.2-5.2c0.3,0.9,0.4,1.2,0.4,1.2s1.3-1.2,2.3-1.5c-0.3,0.9-0.4,1-0.4,1s1.1-0.2,1.6,0.2
			C71.5,23.9,67.9,25.3,66.8,27.6z"/>
		<path class="st3" d="M69.5,28.5L70,28c0,0,0.7,0.5,1.3,0.1c0.5-0.4,0.3-0.8,0.3-0.8s0.7-0.3,0.7-0.4c0.1-0.1,0.2,1.5-0.8,2.1
			C70.6,29.5,69.8,28.8,69.5,28.5z"/>
		<path class="st4" d="M63.5,47.8c0,0-0.2-2.3-1.6-2.1c-1.4,0.1-0.7,3.3-0.1,4.2c0.7,0.9,2.6,1.7,3.6-0.2c0.9-1.8,0.7-4.1-0.4-4.1
			C63.8,45.6,63.5,47.8,63.5,47.8z"/>
		<g>
			<path class="st5" d="M60.1,42.3c0,0-1,1.6,0.1,3.1c0-0.1,0.2-0.3,0.2-0.6c0-0.3,0-1.5,0.9-1.8C61.2,42.4,60.5,42.2,60.1,42.3z"/>
			<path class="st5" d="M61.4,43c0,0,0,0.9,0.3,1.2c0.4-0.4,0.5-0.6,0.5-0.6l0.6,0.8l0.5-0.6l0.6,0.6l0.6-0.7l0.5,0.5
				c0,0,0.4-0.5,0.4-0.9c0-0.4-0.6-0.4-1,0c-0.3-0.3-1-0.1-1,0c-0.3-0.3-1,0-1,0S62,42.9,61.4,43z"/>
			<path class="st5" d="M65.8,43c0,0,0.2-0.7,0.7-0.8c0.5,0.2,1.2,2.1,0.1,3.3c0-0.7-0.1-1.6-0.2-1.9C66.2,43.3,65.8,43,65.8,43z"/>
			<path class="st5" d="M60.8,50.7c0,0,0.1,1,0.5,1.3c0.4,0.2,0.6,0.7,0.3,1.1c-0.2,0.4-0.8,0.6-1.1-0.2
				C60.4,52.1,60.6,51.1,60.8,50.7z"/>
			<path class="st5" d="M66.2,50.7c0,0-0.1,1-0.5,1.3c-0.4,0.2-0.5,0.7-0.3,1.1c0.2,0.4,0.7,0.6,1-0.2
				C66.6,52.1,66.4,51.1,66.2,50.7z"/>
			<path class="st5" d="M62.1,52.6c0-0.1-0.2,1.8,0.8,1.4c0,0,0.3,0.3,0.6,0c0.2,0.2,0.6,0.2,0.7-0.1c0.2,0.2,0.6,0.2,0.7-0.2
				c0.2-0.4,0.1-0.8,0-1.1c-0.1,0.4-0.4,0.8-0.6,0.9c-0.2-0.3-0.3-0.7-0.3-0.7l-0.4,0.7l-0.3-0.7l-0.4,0.6
				C62.8,53.5,62.2,53.4,62.1,52.6z"/>
		</g>
		<g>
			<path class="st6" d="M25.7,36.8L20.2,47l1.8,0.3l-5,8.6h1.6L16,60.7h6.6l1.5-4.9H30l-2.7-8.4c0,0,1-0.2,1.6-0.2
				C28.2,44.6,25.7,36.8,25.7,36.8z"/>
			<path class="st6" d="M32.3,44.6l3.7-6.7l2.3,7.8c0,0-0.8-0.1-1.2,0.2c0.8,2.5,2.3,6.5,2.3,6.5h-1.8l0.8,3.3c0,0-1.6,0.2-1.5,0
				c0.2-0.2-3.9-7-3.9-7s0.7-0.2,1.1-0.6C33.4,46.3,32.3,44.6,32.3,44.6z"/>
			<path class="st6" d="M41.7,44.5l2.5-5.2l2,6.3c0,0-1.1,0.2-1,0.2c0.1,0,1.9,5.3,1.9,5.3l-1.3,0l0.8,4.5h-2c0,0-1.4-2.2-1.2-2.2
				c0.2,0,1,0,1.5-0.5c-0.9-1.9-3.3-6-3.3-6s0.7-0.1,0.8-0.3C42.5,46.3,41.7,44.5,41.7,44.5z"/>
		</g>
		<g>
			<polygon class="st6" points="82.8,39.2 79.5,45.4 80.5,45.5 77.5,50.9 78.9,51 76.4,55.7 81.6,55.7 82.2,50.9 83.5,50.5 
				82.9,45.4 83.8,45.4 			"/>
			<path class="st6" d="M91.3,37.9c0,0.1-4.2,7.6-4.2,7.6l1.2,0.1l-3.6,6.2c0,0,0.8,0.2,1.4,0.3c-1.2,2.4-1.9,3.4-1.7,3.4
				c0.2,0,6,0,6,0l0.5-3.3c0,0,0.8,0.2,1.6-0.2c-0.3-2.8-1-6.5-1-6.5l1.3-0.2L91.3,37.9z"/>
			<path class="st6" d="M101.5,37c0,0-5.6,9.8-5.4,9.8c0.1,0,1.6,0.3,1.6,0.3l-4.6,8.5h8l2.8,7.2l2.2-0.1c0,0,1.1-1.6,2.1-2
				c-1.5-3.3-2.3-5.1-2.3-5.1l1.3-0.4l-3.4-7.8l1.3-0.3L101.5,37z"/>
		</g>
		<path class="st5" d="M52,23.9c0,0-2.7,4.5,0.8,7c-2.6,1.2-5.4,4.3-4.2,8.6c0.7-1.1,2.2-1.8,2.2-1.8s-0.7,3.1,0,5
			c0.8-0.8,1-0.9,1-0.9s0.8,2.7,1.5,3.7c0.7,1,1.4,5.1,1.6,6.5c0.2,1.4,0.5,2.9,1.1,3.7c1.1,0,1.9-0.1,1.9-0.1s-1.1-4.3-1.6-6.5
			c0.8,0.4,1.1,0.6,1.1,0.6s0.2-1.4-0.5-3.2c-0.7-1.8-0.5-3-0.5-3s2.1,3.3,2.6,8.1c0.3,3.9,2.4,4.6,4.5,4.8c0.8-0.6,0.5-1.5-0.3-1.6
			c-0.9-0.1-3.2,0-3.2-3.4c0-3.4-1-6-2.1-8.4c-0.6-1.7-1.4-3.5-1.3-5.3c0.2-1.8,1.5-3.3,2.8-3.3c1.2,0,2,0.8,2.1,1.5
			c0.2-1-0.3-2.9-1.9-3.3c0.3-0.4,0.9-0.9,1.8-0.7c-0.3-0.9-0.8-1.5-0.8-1.5l-5.1-3.4L52,23.9z"/>
		<path class="st5" d="M59.3,35.4c0,0,1.4-0.1,2.2,2.3c-1.1,0.3-2.2,1.6-0.4,3.7c0.2,0.2,0,0.3-0.2,0.3c-0.2-0.1-2.5-1-2.5-4.2
			C58.4,35.7,59,35.5,59.3,35.4z"/>
		<g>
			<g>
				<path class="st1" d="M33.1,60.8l-1.4-2.9c0,0-1.1,5-1.1,5.1l1.1,0l0.3-2.3L33,63l1.2-2.1l0.3,2.2h1l-1.1-5.1L33.1,60.8z"/>
				<rect x="39.8" y="57.9" class="st1" width="1" height="5.1"/>
				<path class="st1" d="M48.4,60.6c-0.2-0.2-2.8-2.7-2.8-2.7V63c0,0,1.1,0,1.1,0v-2.7l2.8,2.8v-5.2h-1.1
					C48.4,57.8,48.3,60.4,48.4,60.6z"/>
				<path class="st1" d="M56.9,60.6c-0.2-0.2-2.8-2.7-2.8-2.7V63c0,0,1.1,0,1.1,0v-2.7l2.8,2.8v-5.2h-1.1
					C56.9,57.8,56.8,60.4,56.9,60.6z"/>
				<path class="st1" d="M63.6,60.9c0,0,1.3,0,1.3,0v-1h-1.2v-1h1.6l-0.2-1h-2.3l0,5h2.4l0.3-1h-1.8C63.6,62,63.6,60.9,63.6,60.9z"
					/>
				<path class="st1" d="M71.9,60.1c-0.4-0.2-0.8-0.3-0.8-0.3s-0.5-0.2-0.3-0.6c0.2-0.4,0.5-0.2,0.7-0.2c0.1,0.1,0.4,0.2,0.4,0.2
					l0.6-0.8c0,0-0.7-0.6-1.8-0.5c0,0-0.9,0.2-1.1,1.2c-0.2,0.9,0.2,1.4,0.6,1.6c0.4,0.2,0.9,0.4,0.9,0.4s0.5,0.3,0.3,0.6
					c-0.2,0.4-0.6,0.3-1.3-0.1c-0.4,0.6-0.6,0.9-0.6,0.9s0.5,0.6,1.5,0.6c1,0,1.6-0.8,1.6-1.6C72.8,60.7,72.3,60.2,71.9,60.1z"/>
				<path class="st1" d="M79.4,57.8c-1.2,0-2.2,1.2-2.2,2.6c0,1.5,1,2.6,2.2,2.6c1.2,0,2.2-1.2,2.2-2.6C81.6,59,80.6,57.8,79.4,57.8
					z M79.4,62c-0.7,0-1.3-0.7-1.3-1.5c0-0.9,0.6-1.5,1.3-1.5c0.7,0,1.3,0.7,1.3,1.5C80.7,61.3,80.1,62,79.4,62z"/>
				<path class="st1" d="M85.6,59L85.6,59C85.6,59,85.6,59,85.6,59z"/>
				<path class="st1" d="M85.6,59c0,0,1.2,0,1.2,0V63h1v-4h1v-1H86L85.6,59z"/>
				<path class="st1" d="M94.9,57.9L92.6,63h1.1l0.4-1h1.6l0.5,0.9h1L94.9,57.9z M94.4,61.1l0.5-1.2l0.5,1.1L94.4,61.1z"/>
			</g>
		</g>
		<g>
			<path class="st0" d="M62.8,74.3c0.1-0.1,0.1-0.1,0.2-0.2c0.6-0.6,1.6-2,1.5-4.4c-0.1-2.7-1.8-4.2-4.7-4.2c-1.7,0-4.1,0-4.1,0
				c-0.2,0-0.3,0.1-0.4,0.2c-0.1-0.1-0.3-0.2-0.5-0.2H47c-0.2,0-0.5,0.1-0.6,0.3c-0.1,0.2-0.1,0.5,0,0.7l0.8,1.7c0,0.2,0,0.8,0,1.4
				c-0.3-1.9-1.8-4.1-5-4.3c0,0,0,0,0,0c-0.5,0-1,0-1.5,0c-1.7,0-2.4,0.1-2.4,0.1c-0.2,0-0.4,0.2-0.5,0.3c-0.1,0.2-0.1,0.4,0,0.6
				l0.7,1.7l0.3,12.4l-0.1-0.1l-1.9-12.9l0.6-1.1c0.1-0.2,0.1-0.5,0-0.7c-0.1-0.2-0.4-0.3-0.6-0.3h-3.3c-0.3,0-0.6,0.2-0.7,0.6
				l-0.8,4.4L31.2,66c-0.1-0.3-0.3-0.6-0.7-0.6H27c-0.3,0-0.5,0.1-0.6,0.4c-0.1,0.2-0.1,0.5,0.1,0.7l0.8,1l-1.9,12.8l0,0L25,79.8
				l0-12.4l0.5-1c0.1-0.2,0.1-0.5,0-0.7c-0.1-0.2-0.4-0.3-0.6-0.3h-3.8c0,0,0,0-0.1,0l0.2-1.4c0-0.2,0-0.4-0.2-0.6
				c-0.1-0.2-0.3-0.2-0.5-0.2h-9.1c-0.2,0-0.4,0.1-0.5,0.2c-0.1,0.1-0.2,0.3-0.2,0.5l0.4,3.5c0,0.3,0.2,0.5,0.4,0.6
				c0.2,0.1,0.5,0,0.7-0.1l1.5-1.3l0.1,0l0.1,13.5l-0.9,2.4c-0.1,0.2,0,0.4,0.1,0.6c0.1,0.2,0.3,0.3,0.6,0.3H18c0,0,0,0,0,0
				c0.4,0,0.7-0.3,0.7-0.7c0-0.1,0-0.2-0.1-0.3L18,80.4l0.1-13.6l1.6,1.3c0.2,0.2,0.5,0.2,0.7,0.1c0.2-0.1,0.4-0.3,0.4-0.5l0.1-0.6
				l0.3,0.5l0,12l-0.7,2.1c-0.1,0.2,0,0.4,0.1,0.6c0.1,0.2,0.3,0.3,0.6,0.3h7.2c0.4,0,0.7-0.3,0.7-0.6l0.5-5.1l1.6,6
				c0.1,0.3,0.4,0.5,0.7,0.5c0,0,0,0,0,0c0.3,0,0.6-0.2,0.7-0.5l1.7-6.3c0.3,2.4,0.5,4.7,0.5,5.1c0,0.2,0,0.4,0.2,0.6c0,0,0,0,0,0h0
				v0c0,0,0,0,0,0c0.1,0.1,0.3,0.2,0.5,0.2l0,0c0.1,0,0.1,0,0.2,0c0.1,0,0.3,0,0.7,0c1,0,2.6,0,2.6,0c0.1,0,0.2,0,0.3,0
				c0.1,0,0.2,0,0.2,0c0.1,0,1.3,0,2.1,0c0.2,0,0.4,0,0.5,0c0,0,0.1,0,0.1,0c3.3-0.1,4.6-2.1,5-3.9c0,0.5,0,0.9,0,1.1
				c-0.1,0.2-0.4,1.1-0.6,1.9c-0.1,0.2,0,0.5,0.1,0.6c0.1,0.2,0.3,0.3,0.6,0.3c0,0,0,0,0,0l7.8-0.1c0.2,0,0.4-0.1,0.5-0.2
				c0.1,0.2,0.3,0.3,0.5,0.3h3.9c0,0,0,0,0,0c0.4,0,0.7-0.3,0.7-0.7c0-0.2-0.1-0.3-0.2-0.4c-0.2-0.2-0.3-0.5-0.4-0.7
				c0-0.2,0-0.5,0-0.9c0-0.5,0-1.1,0-1.9c0,0,0-0.1,0-0.1c0.4,0.8,0.9,1.8,1.4,2.8l-0.4,1c-0.1,0.2,0,0.4,0.1,0.6
				c0.1,0.2,0.3,0.3,0.6,0.3h3.8c0.2,0,0.5-0.1,0.6-0.3c0.1-0.2,0.1-0.5,0-0.7C65,79.1,63.3,75.5,62.8,74.3z M60,71.8l0.1-2.8
				c0.2,0,0.4,0.1,0.5,0.2c0.2,0.2,0.3,0.6,0.3,1.2C60.9,71.2,60.4,71.6,60,71.8z M42.6,75.5c0.9,0.2,1.3,0.8,1.3,1.9
				c0,0.7-0.2,1.1-0.7,1.4c-0.2,0.1-0.3,0.1-0.5,0.2V75.5z M42.6,71.7c0-1,0-2.1,0-2.8c0.8,0.2,0.8,1.1,0.8,1.4
				c0,0.7-0.2,1.1-0.6,1.4C42.8,71.6,42.7,71.7,42.6,71.7z M45.8,73.7c0.7-0.8,1.3-1.9,1.4-3c0,1.6,0,3.6,0,5.3
				C46.9,74.8,46.3,74.1,45.8,73.7z M55.7,80.9l0.1-2.6c0-0.3-0.1-0.5-0.4-0.6c-0.2-0.1-0.5-0.1-0.7,0L52.5,79h-1.4l0-4.1l1.5,0.6
				c0.3,0.1,0.7,0,0.9-0.3l1.3-2.5c0.1-0.2,0.1-0.5,0-0.7c-0.1-0.2-0.4-0.3-0.6-0.3l-2.9,0.1v-3H53l0.9,0.8c0.2,0.2,0.5,0.2,0.7,0.1
				c0.2-0.1,0.4-0.3,0.4-0.5l0.3-2.2l0.6,1.1l0.2,12.1L55.7,80.9z"/>
			<path class="st0" d="M115.2,73.7c-1.1-1.2-2-2.2-2.8-2.9c-0.5-0.5-1.1-1.1-1.2-1.3c-0.2-0.3-0.5-1.5-0.2-2.2
				c0.1-0.2,0.2-0.4,0.4-0.4c0.2-0.1,0.3-0.1,0.5-0.1c0.5,0,0.7,0.5,0.7,0.5c0.1,0.2,0.5,1.7,0.5,1.8c0.1,0.3,0.3,0.4,0.6,0.5
				c0.3,0,0.5-0.1,0.7-0.3c0,0,0.1-0.1,1.7-3.5c0.1-0.3,0.1-0.5-0.1-0.8c-0.1-0.1-1.7-1.9-4.1-1.9c-0.5,0-1,0.1-1.4,0.2
				c-1.4,0.5-2.5,1.6-3,3.1c-0.6,1.6-0.3,3.5,0.7,4.9c0.8,1.2,1.8,2.3,2.6,3.3c0.8,0.9,1.5,1.8,1.7,2.3c0.4,0.9,0.7,2.2-0.3,2.6
				c0,0-0.3,0.1-0.6,0.1c-0.2,0-0.4-0.1-0.6-0.2c-0.5-1.5-0.8-2-0.8-2.1c-0.1-0.2-0.4-0.4-0.6-0.4h0c-0.3,0-0.5,0.2-0.6,0.4
				l-1.3,2.8l0-1.9c0-0.3-0.1-0.5-0.4-0.6c-0.2-0.1-0.5-0.1-0.7,0l-2.2,1.4H103l0-4.1l1.5,0.6c0.3,0.1,0.7,0,0.9-0.3l1.3-2.5
				c0.1-0.2,0.1-0.5,0-0.7c-0.1-0.2-0.4-0.3-0.6-0.3l-2.9,0.1v-3h1.8l0.9,0.8c0.2,0.2,0.5,0.2,0.7,0.1c0.2-0.1,0.4-0.3,0.4-0.5
				l0.4-3c0-0.2,0-0.4-0.2-0.6c-0.1-0.2-0.3-0.2-0.5-0.2h-6.8c-0.1,0-0.1,0-0.2,0h-3.6c-0.3,0-0.6,0.2-0.7,0.6l-0.8,4.9l-0.9-5
				c-0.1-0.3-0.3-0.6-0.7-0.6h-3.6c-0.2,0-0.4,0.1-0.6,0.3c-0.1-0.2-0.3-0.3-0.6-0.3h-4c-0.3,0-0.5,0.2-0.6,0.4
				c-0.1,0.2-0.1,0.5,0.1,0.7l0.9,1.1v6c-0.2-2.6-0.9-4.6-0.9-4.6c-0.1-0.3-1.4-3.4-4-3.5l0,0c-1.9,0-3.3,2.4-3.4,2.7c0,0,0,0,0,0
				c-0.1,0.2-0.2,0.4-0.2,0.5l0.3-1.2l0.7-0.9c0.2-0.2,0.2-0.5,0.1-0.7c-0.1-0.2-0.4-0.4-0.6-0.4c0,0,0,0,0,0l-3.4,0
				c-0.3,0-0.6,0.3-0.7,0.6l-0.6,5.4l-0.8-2.6c-0.1-0.3-0.4-0.5-0.7-0.5c-0.3,0-0.6,0.2-0.7,0.5l-0.7,2.6l-0.7-5.4
				c0-0.3-0.3-0.6-0.7-0.6l-3.4,0c0,0,0,0,0,0c-0.3,0-0.5,0.2-0.6,0.4c-0.1,0.2-0.1,0.5,0.1,0.7l0.8,0.9l3.1,15.2
				c0.1,0.3,0.3,0.5,0.6,0.6c0.3,0,0.6-0.2,0.7-0.5l1.6-4.3l1.5,4.4c0.1,0.3,0.4,0.5,0.7,0.5c0,0,0,0,0,0c0.3,0,0.6-0.2,0.6-0.5
				l1.8-8.9c-0.1,2.9,0.7,5.5,1.5,6.7c0.8,1.2,2.2,1.9,3.6,1.9l0,0c0.9,0,2.1-0.3,3.2-1.7c0,0,0,0,0,0c0.9-1.4,1.4-3.1,1.5-4.7v3.6
				l-0.7,1.8c-0.1,0.2-0.1,0.5,0.1,0.6c0.1,0.2,0.3,0.3,0.6,0.3h6.7c0.4,0,0.7-0.3,0.7-0.7v-3.7c0-0.3-0.1-0.5-0.4-0.6
				c-0.2-0.1-0.5-0.1-0.7,0l-2.1,1.5h-0.3V67.5l0.5-1.1l0.8,1.2l4,15.2c0.1,0.3,0.4,0.5,0.7,0.5c0,0,0,0,0,0c0.3,0,0.6-0.2,0.7-0.5
				l4-14.8l0,0.1c0,1.3,0,10.6,0,11.5c-0.1,0.2-0.4,1.1-0.6,1.9c-0.1,0.2,0,0.5,0.1,0.6c0.1,0.2,0.3,0.3,0.6,0.3c0,0,0,0,0,0
				l7.8-0.1c0.4,0,0.7-0.3,0.7-0.7l0-0.1c0.4,0.4,1.9,1.8,4,1.8l0,0c0.7,0,1.3-0.1,2-0.4c1.5-0.6,2.5-1.9,2.9-3.6
				C117,77.4,116.5,75.1,115.2,73.7z M80.4,78c-0.2,0.3-0.4,0.5-0.6,0.5c-0.2,0-0.5-0.2-0.7-0.7c-0.4-0.9-1-4.5,0-7.3
				c0.2-0.5,0.5-1,0.7-1.1c0.3,0.1,0.7,0.8,0.9,1.5C80.7,71,81.6,75.3,80.4,78z"/>
		</g>
		<g>
			<polygon class="st5" points="11.9,67.5 13.6,66 14.7,66 14.8,80.3 13.9,82.8 18,82.8 17.3,80.5 17.4,66 18.3,66 20.1,67.5 
				20.6,64 11.4,64 			"/>
			<path class="st5" d="M35.4,81.8C35.4,81.8,35.4,81.8,35.4,81.8C35.4,81.8,35.4,81.8,35.4,81.8z"/>
			<path class="st5" d="M36,67.4l0.7-1.3h-3.3l-1.5,8.4l-1.4-8.3H27l1,1.3l-2,13.3L25,81.5L24.3,80l0-12.7l0.6-1.1h-3.8l0.7,1.2
				l0,12.3l-0.7,2.2h7.2l0.9-9l2.5,9.8l2.7-9.9c0,0,0.9,8.6,0.9,8.9c0.2-0.1,3.5,0,3.5,0L38,80.6L36,67.4z"/>
			<path class="st5" d="M44.7,73.7c1.1-0.7,1.9-2.6,1.8-3.8c-0.1-1.2-1-3.7-4.4-4c-2.7-0.1-3.8,0.1-3.8,0.1l0.8,1.9l0.3,13.9
				c0,0,2,0.1,2.6,0c0.6,0,4,0.1,4.6-3.9C46.9,75.2,45.2,74.1,44.7,73.7z M42,68.1c0,0,2.2-0.3,2.2,2.1c0,2.4-2.2,2.3-2.2,2.3
				S42,68.2,42,68.1z M41.9,79.7v-5c0,0,2.6-0.2,2.6,2.6C44.6,79.8,41.9,79.7,41.9,79.7z"/>
			<path class="st5" d="M50.4,79.7l0-5.8l2.4,0.9l1.3-2.5l-3.6,0.1v-4.4h2.8l1.1,0.9l0.4-3H47l0.9,1.9c0,0,0,11.7,0,11.8
				c0,0.1-0.7,2-0.7,2l7.8-0.1l0.1-3.5l-2.3,1.5H50.4z"/>
			<path class="st5" d="M102.3,79.7l0-5.8l2.4,0.9l1.3-2.5l-3.6,0.1v-4.4h2.8l1.1,0.9l0.4-3h-7l-0.4,0.2l-0.2,0.2l0.7,1.5
				c0,0,0,11.7,0,11.8c0,0.1-0.7,2-0.7,2l7.8-0.1l0.1-3.5l-2.3,1.5H102.3z"/>
			<path class="st5" d="M62,74c0.1,0,2-1.3,1.9-4.3c-0.1-3-2.3-3.6-4-3.6c-1.7,0-4.1,0-4.1,0l0.9,1.8l0.2,12.4L56,81.7h3.9
				c0,0-0.7-1-0.6-1.1c0.1-0.1,0-5.5,0-5.5c0.3,0,2.9,5.4,2.9,5.4l-0.4,1.3h3.8C65.5,81.7,61.8,74,62,74z M61.6,70.5
				c-0.1,2.1-2.3,2.2-2.3,2.2l0.1-4.4C60.6,68.2,61.7,68.4,61.6,70.5z"/>
			<polygon class="st5" points="76.4,66.1 73,66.1 72,74.6 70.2,69 68.6,74.9 67.4,66.1 63.9,66.1 64.9,67.2 68,82.6 70.2,76.5 
				72.4,82.7 75.6,67.1 			"/>
			<path class="st5" d="M79.7,66.1c-1.5,0-2.9,2.3-2.9,2.3c-2.2,4.4-1.1,10.1,0.1,11.8c1.2,1.7,3.8,2.5,5.6,0.2
				c2.8-4.3,0.7-11.1,0.6-11.4C82.9,68.5,81.8,66.1,79.7,66.1z M81.1,78.3c-0.8,1.5-2,1-2.6-0.2c-0.5-1.1-1-4.9,0-7.8
				c0,0,0.6-1.6,1.3-1.5c0.9,0,1.4,1.6,1.5,2C81.4,70.9,82.4,75.4,81.1,78.3z"/>
			<polygon class="st5" points="87.7,79.7 87.7,67.3 88.3,66 84.3,66 85.3,67.3 85.3,79.9 84.6,81.8 91.2,81.8 91.2,78.1 88.9,79.7 
							"/>
			<path class="st5" d="M99.7,66.1L99.7,66.1l-3.6,0l-1.5,8.8L93,66c0,0-3.4,0-3.6,0l0.9,1.3l4,15.3l4.2-15.4l0.5-0.7l-0.2-0.4H99.7
				z"/>
			<path class="st5" d="M114.7,74.2c-2-2.4-3.7-3.7-4-4.3c-0.3-0.6-1-3,0.5-3.6c1.5-0.6,2,0.6,2.1,0.9c0.1,0.2,0.5,1.8,0.5,1.8
				c0.1-0.1,1.6-3.4,1.6-3.4s-2.1-2.4-4.8-1.5c-2.7,0.9-3.7,4.4-2,6.9c1.7,2.5,4,4.6,4.4,5.7c0.5,1.1,0.8,2.8-0.7,3.5
				c0,0-1.2,0.5-2.1-0.3c-0.6-1.7-0.8-2.2-0.8-2.2L108,81c0,0,2.3,2.6,5.3,1.3C116.4,81,116.7,76.5,114.7,74.2z"/>
		</g>
		<path class="st2" d="M52,23.8c0,0,1.9,1.6,4.2,2.8c2.3,1.1,4.1,3.1,4.4,4c-1.2-0.5-1.3-0.6-1.6-0.7c-0.3-0.1-0.5-0.4-1.4,0.1
			c-0.9,0.5-2.6,0-3.5-0.7c-0.9-0.8-0.6-2.9-0.6-2.9S52.1,24.9,52,23.8z"/>
		<path class="st3" d="M54.4,26.8c0,0-0.3,1.4,0.8,2.2c0.8,0.4,1.7,0.1,2-0.5C57,28.2,56.7,28,56.7,28s-0.7,0.6-1.2,0.1
			c-0.5-0.4-0.3-0.9-0.3-0.9L54.4,26.8z"/>
	</g>
</g>
</svg>
