<?xml version="1.0" encoding="utf-8"?>
<!-- Generator: Adobe Illustrator 23.0.1, SVG Export Plug-In . SVG Version: 6.00 Build 0)  -->
<svg version="1.1" id="Capa_1" xmlns="http://www.w3.org/2000/svg" xmlns:xlink="http://www.w3.org/1999/xlink" x="0px" y="0px"
	 viewBox="0 0 143.7 121.2" style="enable-background:new 0 0 143.7 121.2;" xml:space="preserve">
<style type="text/css">
	.st0{fill:#175384;}
	.st1{fill:#A0A5AA;}
	.st2{fill:#0B040C;}
	.st3{fill:#FFC727;}
	.st4{fill:#F0545B;}
	.st5{fill:#FFFFFF;}
	.st6{fill:#00A855;}
	.st7{fill:#B4C4C9;}
	.st8{fill:#221A21;}
	.st9{fill:#EF3A47;}
	.st10{fill:url(#SVGID_1_);}
	.st11{fill:url(#SVGID_2_);}
	.st12{fill:url(#SVGID_3_);}
	.st13{fill:url(#SVGID_4_);}
	.st14{fill:url(#SVGID_5_);}
	.st15{fill:url(#SVGID_6_);}
	.st16{fill:url(#SVGID_7_);}
	.st17{fill:url(#SVGID_8_);}
	.st18{fill:url(#SVGID_9_);}
	.st19{fill:url(#SVGID_10_);}
	.st20{fill:url(#SVGID_11_);}
	.st21{fill:url(#SVGID_12_);}
	.st22{fill:#313564;}
	.st23{fill:#F04B41;stroke:#FFFFFF;stroke-width:2.1543;stroke-linecap:round;stroke-linejoin:round;stroke-miterlimit:10;}
	.st24{fill:#007FBA;stroke:#FFFFFF;stroke-width:2.1543;stroke-linecap:round;stroke-linejoin:round;stroke-miterlimit:10;}
	.st25{fill:#313564;stroke:#FFFFFF;stroke-width:2.1543;stroke-linecap:round;stroke-linejoin:round;stroke-miterlimit:10;}
	.st26{fill:#FFFFFF;stroke:#FFFFFF;stroke-width:2.1543;stroke-linecap:round;stroke-linejoin:round;stroke-miterlimit:10;}
	.st27{clip-path:url(#SVGID_14_);}
	.st28{fill:#FBAC36;stroke:#FFFFFF;stroke-width:2.1543;stroke-linecap:round;stroke-linejoin:round;stroke-miterlimit:10;}
	.st29{fill:#F04B41;}
	.st30{fill:#007FBA;}
	.st31{clip-path:url(#SVGID_16_);}
	.st32{fill:#FBAC36;}
	.st33{fill:#2C2F61;}
	.st34{fill:#B7B9BA;}
	.st35{fill:#EF3748;}
	.st36{fill:#8999AC;}
	.st37{fill:#2B2F61;}
	.st38{fill:#EE2C45;}
	.st39{fill:#101624;}
	.st40{fill:#59707A;}
	.st41{fill:#4A3285;}
	.st42{fill:#F79230;}
	.st43{fill:#F15733;}
	.st44{fill:#D7303F;}
	.st45{fill:#FAA832;}
	.st46{fill:#1F1721;}
	.st47{fill:#5F3188;}
	.st48{fill:#EE243D;}
	.st49{fill:#1F4BA0;}
	.st50{fill:#244789;}
	.st51{fill:#FBAE2E;}
	.st52{fill:#006991;}
	.st53{fill:#F9A01B;stroke:#FFFFFF;stroke-width:0.4473;stroke-miterlimit:10;}
	.st54{fill:#FAA533;}
	.st55{fill:#0092BC;}
	.st56{fill:#15182C;}
	.st57{fill:#3E419A;}
	.st58{fill:#101721;}
	.st59{fill:#ADA3A5;}
	.st60{fill:#9CA7AC;}
	.st61{clip-path:url(#SVGID_18_);}
	.st62{clip-path:url(#SVGID_20_);}
	.st63{fill:#F3FAF7;}
	.st64{fill:#2D2F63;}
	.st65{fill:#FAA819;}
	.st66{fill:#FEF6FA;}
	.st67{fill:#004F30;}
	.st68{fill:#A2C7D3;}
	.st69{fill:#EE2E55;}
	.st70{fill:#32366E;}
	.st71{fill:#00ADDC;}
	.st72{fill:#FFFFFF;stroke:#00ACD0;stroke-width:0.2915;stroke-miterlimit:10;}
	.st73{fill:#FFFFFF;stroke:#00ACD0;stroke-width:0.2973;stroke-miterlimit:10;}
	.st74{fill:#450000;}
	.st75{fill:#EE224A;}
	.st76{fill:#0064A5;}
	.st77{fill:#F47736;}
	.st78{fill:#B5BCBF;}
	.st79{fill:#F47B35;}
	.st80{fill:#EE2B52;}
	.st81{fill:#0C060E;}
	.st82{fill:#B58D49;}
	.st83{fill:#C9BBCB;}
	.st84{fill:#BA924C;}
	.st85{fill:#006BAF;}
	.st86{fill:#B3C5CB;}
	.st87{fill:#898C89;}
	.st88{fill:#2E2C61;}
	.st89{fill:#C3C5BD;}
	.st90{fill:#C4D2D9;}
	.st91{fill:#EE284D;}
	.st92{fill:#161212;}
	.st93{fill:#EE274E;}
	.st94{fill:#A2A7AA;}
	.st95{fill:#A6AAAC;}
	.st96{fill:#A1A2AB;}
	.st97{fill:#110B13;}
	.st98{fill:#AFC1C6;}
	.st99{fill:#0067AD;}
	.st100{fill:#FBFBFB;}
	.st101{fill:#0065AF;}
	.st102{fill:#121A26;}
	.st103{fill:#008D4C;}
	.st104{fill:#B43A3D;}
	.st105{fill:#111623;}
	.st106{fill:#AB9048;}
	.st107{fill:#F8A174;}
	.st108{fill:#120B19;}
	.st109{fill:#C59751;}
	.st110{fill:#B33638;}
	.st111{fill:#009154;}
	.st112{fill:#1C2026;}
	.st113{fill:#EE2844;}
	.st114{fill:#30385F;}
	.st115{fill:#3A84B1;}
	.st116{fill:#A3C5D7;}
	.st117{fill:#F9A039;}
	.st118{fill:#B0BEC0;}
	.st119{fill:#231D46;}
	.st120{fill:#FDB840;}
	.st121{fill:#CD2C32;}
	.st122{fill:#272049;}
	.st123{fill:#FEC027;}
	.st124{fill:#ADC7C6;}
	.st125{fill:#014429;}
	.st126{fill:#DF2539;}
	.st127{fill:#F57E30;}
	.st128{fill:#ED1942;}
	.st129{fill:#FEF9FB;}
	.st130{fill:#0065AA;}
	.st131{fill:#A6B5B8;}
	.st132{fill:#0B040C;stroke:#0B040C;stroke-width:0.2716;stroke-miterlimit:10;}
	.st133{fill:#F7F9FD;}
	.st134{fill:none;stroke:#EBF2CC;stroke-width:0.2972;stroke-miterlimit:10;}
	.st135{fill:#48484A;}
	.st136{opacity:0.2;}
	.st137{fill:#EE2E3B;}
	.st138{fill:#005BA6;}
	.st139{fill:#737577;}
	.st140{fill:#A1A0A5;}
	.st141{fill:#272360;}
	.st142{fill:#FAFAFB;}
	.st143{fill:#058BA6;}
	.st144{fill:#DEDBE7;}
	.st145{fill:#B2965B;}
	.st146{fill:#1B305B;}
	.st147{fill:#F9F9FA;}
	.st148{fill:#E12039;}
	.st149{fill:#FEF4F4;}
</style>
<g>
	<path class="st76" d="M0,27.4l17.4,0.2L22,17.3l11.6-4.6l0.8-1.6l8.2,3.3L42.4,17c0,0,18.2-3.8,26.1-3.9c0,3.5,0,3.5,0,3.5l4.1-3.3
		c0,0,18.7,2.2,24.2,3.6c-0.2-1.4-0.5-1.9-0.5-1.9l5.2-3.5l16,5.7l3.9,10.7l18.5-0.5l-11.2,15.4l6.9,16.8l-15.2,15.9
		c0,0-11.5-6-12.7-6.6l-7.2,9.4c0,0-1.1,24.3-23.1,29.5c-5.8,8.2-8.2,10.5-8.2,10.5l-7.9-10.7c0,0-20.4-5.7-22.1-29.2
		c-4.7-5.7-7.4-9.7-7.4-9.7s-9.3,4.6-12.6,6.8C16.8,73.1,3,59.3,3,59.3l7.9-17.4L0,27.4z"/>
	<g>
		<path class="st77" d="M23.9,18.3L5.7,58.7l3,3l5.2-3.3l5.5-13.8l5.7-4.9l0.9,1.4L21,55.2l8.2-3l3.6-11.6L30,34.8l6.8-6.6l3.3-12.6
			c0,0-5.2-1.9-4.7-1.9c0.5,0-3.9,11.8-3.9,11.8l-6.8,5l5.7-14.4L23.9,18.3z"/>
		<path class="st77" d="M42.2,18.6c-0.2,0.6-8.5,31.9-8.5,31.9L41,48l5-20.1l2.4,9.7L46.6,47l6.6-1.1l3.9-30L52,17l-1.9,9l-2.2-8.3
			L42.2,18.6z"/>
		<polygon class="st77" points="60.5,15.5 66.3,15 65.3,44.8 58.6,45.5 		"/>
		<path class="st77" d="M80.3,16.1l-6.9-0.8l-3.9,3.1l0.2,22.8l3.3,4.1c0,0,9.1,0.6,10.2,0.3l-0.2-5.5l-6.4-0.8l-0.8-18.5h4.9
			L80.3,16.1z"/>
		<path class="st77" d="M82.3,16.2l5.2,0.5L90,30.2l3.8-4.7c0,0-2.2-8.5-2-8c0.2,0.5,5.5,1.1,5.5,1.1l1.9,8.3l-2.7,3.8l4.9,4.1
			L106,51l-7.2-2.5l-2.5-10.2l-2.7-2.5l-2.2,1.9l1.4,9.7l-6.8-1.6C86.1,45.8,82.8,15.9,82.3,16.2z"/>
		<path class="st77" d="M99.6,16.1l2.7-2.2l12.9,4.7l3.8,9.1l-6-1.7l-1.9-4.9l-4.7-1.4l1.9,7.7l15.5,9.9l9.6,21.4l-2.8,3
			c0,0-14.6-7.5-19.5-9.1c-1.7-5-4.1-12.6-4.1-12.6l6.9,2c0,0,1.3,5.5,1.7,5.7c0.5,0.2,6.1,2,6.1,2l-3.6-8.5l-14.6-10.5L99.6,16.1z"
			/>
	</g>
	<path class="st78" d="M121.6,32.9c0.6-0.6,2-2.7,2-2.7l10.8-0.2l-6.8,9.3l-1.4-3.8L121.6,32.9z"/>
	<polygon class="st78" points="5.7,29.9 16.3,30.1 12.3,38.7 	"/>
	<polygon class="st78" points="10,62.9 14.3,60.4 22.9,70.3 19.2,72.7 	"/>
	<polygon class="st78" points="21.7,57.1 29.5,54 35.5,64.7 29.2,67.6 	"/>
	<polygon class="st78" points="34.3,52.5 41.5,50 45.4,60.7 39.2,63.3 	"/>
	<path class="st78" d="M46.8,48.8l2.4,7.6c0,0,2.9-3.1,5.2-4.1c-0.4-2.6-0.8-4.9-0.8-4.9L46.8,48.8z"/>
	<path class="st78" d="M58.4,47l6.9-0.5l-0.1,2.3c0,0-4.6,0.6-6.6,1.7C58.4,48,58.4,47,58.4,47z"/>
	<path class="st78" d="M69.2,43.7c0.2,1,0.1,4.7,0.1,4.7l2.7,0.3l-0.3-2C71.7,46.7,69.1,43.3,69.2,43.7z"/>
	<path class="st78" d="M73.3,46.9l0.2,2.1c0,0,6.1,1,9.5,2.4c0.3-2.9,0.2-3.5,0.2-3.5S76.4,47,73.3,46.9z"/>
	<path class="st78" d="M86,48.1l6.9,1.5l-2,7c0,0-2.8-3.7-5.3-4.1C85.7,50.2,86,48.1,86,48.1z"/>
	<polygon class="st78" points="94.4,60.1 98.3,50.8 105.7,53.2 100.3,63.1 95.5,62.2 	"/>
	<path class="st78" d="M97.4,65.7c-0.5-0.1,2.3,5.5,2.4,8.9c2.6-3.1,5.3-6.9,5.3-6.9S98.2,65.7,97.4,65.7z"/>
	<path class="st78" d="M104.2,64.6l6-10.1c0,0,13.9,5.8,18.7,8.7c-3.4,3.7-8.9,9.5-8.9,9.5S108.6,67.2,104.2,64.6z"/>
	<path class="st78" d="M42.9,64.5c0,0-2.5,7.2-3.1,10.3c-2.8-3.3-5.2-6.9-5.2-6.9L42.9,64.5z"/>
	<path class="st78" d="M66,109l3.5,4.7l3.5-4.6C73,109.2,65.8,109,66,109z"/>
	<g>
		<path class="st79" d="M53.1,64.9c0,0-8.2-1.4-11.1,8.5c-2.4,7.3,2.6,21.1,8.7,25.3C47.9,93.6,44,76.7,53.1,64.9z"/>
		<path class="st79" d="M54.4,63.3l3.6-4.5c0,0-5.1-1.1-7.7-0.2c-3.1,2.8-6.1,7.8-6.1,7.8S48.8,62.5,54.4,63.3z"/>
		<path class="st79" d="M56,64c0,0,4.6,1.4,6.8,11.6c2.2,10.3,7.7,25.6,13.5,30c5.5-0.5,13.5-6.1,15.7-10.4
			c-1.7-7.1-10.9-29.5-32.7-35.8C57.5,61.4,56,64,56,64z"/>
		<path class="st79" d="M60.7,58l4.3-3.1c0,0,2.2,1.4,7.2,2c5,0.6,17.3,2.8,22.3,10.2c5,7.3,4.2,19.8-1.1,26.8
			c-1.2-5-7.6-20.2-17.5-27.6C70.2,61.7,60.7,58,60.7,58z"/>
		<path class="st79" d="M54.8,65.4c0,0,5.1,2.4,6.8,11.9c1.7,9.5,6.4,23.2,12.3,28.6c-3.1,0.5-13.5,1.6-20.2-5.2
			C50.2,93.3,45.5,78.7,54.8,65.4z"/>
		<path class="st79" d="M52.9,56.5c0,0,4.5-3.3,7.2-4c2.2,1.4,3.5,1.9,3.5,1.9l-5,3.1C58.6,57.5,55.4,56.6,52.9,56.5z"/>
		<path class="st79" d="M62.2,51.3c0,0,1,1.7,3,2.1c3.6-1.7,5.6-2.7,5.6-2.7S65.8,50.2,62.2,51.3z"/>
		<path class="st79" d="M67.3,54.2c0,0,4.3-2.2,5.6-2.6c1.2-0.4,11.1-0.4,19.6,10.8c-3.3-3.2-8.9-5.1-13-5.9
			C75.3,55.5,69.1,55.4,67.3,54.2z"/>
	</g>
	<g>
		<g>
			<path class="st76" d="M50.2,4.8c-0.4,0.1,0,0-0.9,2c-0.3-1-2.1-1.8-2.1-1.8l-3,9.8c0.3-0.1,1.6-0.4,1.6-0.4s1.3-3.4,1.9-5.2
				c0.8,0.2,0.1,4.7,0.1,4.7l1.9-0.3l2.1-9.1C51.8,4.6,50.6,4.7,50.2,4.8z"/>
			<path class="st76" d="M44.1,15.1L44.1,15.1C44,15.1,44,15.1,44.1,15.1z"/>
			<polygon class="st76" points="51.6,13.3 55.8,12.5 56,11.2 53.7,11.7 54.5,8.9 56.3,8.6 56.6,7.3 54.7,7.6 55.3,5 57,4.7 
				57.2,3.7 53.6,4.3 			"/>
			<path class="st76" d="M64.7,2.5l-0.5,6.2c0,0,0.1,1.5-1,1.7c-0.7,0.1-0.4-2.7-0.4-2.7l0.5-5.1l-1.6,0.2l-0.5,5.5
				c0,0-0.1,2.2-1.2,2.4c-0.6,0.1-0.1-2.6-0.1-2.6l0.5-5l-1.3,0.2c-0.1,0.2-0.9,7.1-0.9,7.1s-0.4,2,1,2c1.4,0,2.8-1.1,2.8-1.1
				s0.6,1.2,1.9,0.7c1.5-0.6,2.6-0.3,2.5-9.6C65.5,2.3,64.7,2.5,64.7,2.5z"/>
			<path class="st76" d="M72.5,2.2c0.1,0,0.1,5.1,0.1,5.1s0,0.7-0.7,0.7c-0.5,0-0.8-0.4-0.8-0.9s0-4.9,0-4.9h-1.3
				c0,0-0.1,2.2-0.1,4.3c0,1.7,0.4,2.9,1.7,3c0,2.4,0,2.7,0,2.7l1.4-0.1l-0.1-2.7c0,0,1.5-0.4,1.4-2.4c0-2-0.2-4.8-0.2-4.8
				S72.3,2.2,72.5,2.2z"/>
			<path class="st76" d="M80,4.5c0,0-0.3-2.1-2.6-2.3c-1.8-0.2-1.8,1.4-1.8,2c0,0,0.1,4.5,0.3,5.8c0.2,1.3,0.8,2.5,2.5,2.5
				c1.6,0,2.1-1.2,2-3.5C80.3,6.6,80,4.5,80,4.5z M78.3,10.7c-0.6-0.1-0.8-1-0.8-1l-0.3-4.9c0-0.5,0.1-1,0.6-1
				c0.8,0,0.8,1.1,0.8,1.1S79,8.5,79,9.2C79,9.9,79.1,10.8,78.3,10.7z"/>
			<path class="st76" d="M86.5,8.9C87.8,8.1,88,3.3,82,3.4c-0.2,0,0.8,7.5,1,9.4c1.3,0.1,1.6,0.1,1.6,0.1L84.3,10
				c0,0,0.8-0.7,1.7,0.6c0.8,1.2,0.7,2.5,0.7,2.5l1.7,0.3C88.5,13.5,88.4,10,86.5,8.9z M84.1,8.3c0,0-0.4-3.1-0.4-3.3
				c0,0,1.9,0.1,2.1,1.9C85.9,8.3,84.1,8.3,84.1,8.3z"/>
			<path class="st76" d="M92.9,10.6c1.4-1.4,1.1-4,0.6-4.8l-1.9-0.3c0,0,1.5,3.9-0.4,3.9c-0.5-2.5-0.9-4.2-0.9-4.2l-1.6-0.4
				c0,0,1.4,7.5,1.5,9.2c1.6,0.2,1.8,0.3,1.8,0.3l-0.4-2.4c0,0,2,0.4,2.4,2.8c1.3,0.2,1.3,0.2,1.3,0.2S95.7,11.8,92.9,10.6z"/>
		</g>
	</g>
</g>
</svg>
