<?xml version="1.0" encoding="utf-8"?>
<!-- Generator: Adobe Illustrator 23.0.1, SVG Export Plug-In . SVG Version: 6.00 Build 0)  -->
<svg version="1.1" id="Capa_1" xmlns="http://www.w3.org/2000/svg" xmlns:xlink="http://www.w3.org/1999/xlink" x="0px" y="0px"
	 viewBox="0 0 121.3 121.8" style="enable-background:new 0 0 121.3 121.8;" xml:space="preserve">
<style type="text/css">
	.st0{fill:#175384;}
	.st1{fill:#A0A5AA;}
	.st2{fill:#0B040C;}
	.st3{fill:#FFC727;}
	.st4{fill:#F0545B;}
	.st5{fill:#FFFFFF;}
	.st6{fill:#00A855;}
	.st7{fill:#B4C4C9;}
	.st8{fill:#221A21;}
	.st9{fill:#EF3A47;}
	.st10{fill:url(#SVGID_1_);}
	.st11{fill:url(#SVGID_2_);}
	.st12{fill:url(#SVGID_3_);}
	.st13{fill:url(#SVGID_4_);}
	.st14{fill:url(#SVGID_5_);}
	.st15{fill:url(#SVGID_6_);}
	.st16{fill:url(#SVGID_7_);}
	.st17{fill:url(#SVGID_8_);}
	.st18{fill:url(#SVGID_9_);}
	.st19{fill:url(#SVGID_10_);}
	.st20{fill:url(#SVGID_11_);}
	.st21{fill:url(#SVGID_12_);}
	.st22{fill:#313564;}
	.st23{fill:#F04B41;stroke:#FFFFFF;stroke-width:2.1543;stroke-linecap:round;stroke-linejoin:round;stroke-miterlimit:10;}
	.st24{fill:#007FBA;stroke:#FFFFFF;stroke-width:2.1543;stroke-linecap:round;stroke-linejoin:round;stroke-miterlimit:10;}
	.st25{fill:#313564;stroke:#FFFFFF;stroke-width:2.1543;stroke-linecap:round;stroke-linejoin:round;stroke-miterlimit:10;}
	.st26{fill:#FFFFFF;stroke:#FFFFFF;stroke-width:2.1543;stroke-linecap:round;stroke-linejoin:round;stroke-miterlimit:10;}
	.st27{clip-path:url(#SVGID_14_);}
	.st28{fill:#FBAC36;stroke:#FFFFFF;stroke-width:2.1543;stroke-linecap:round;stroke-linejoin:round;stroke-miterlimit:10;}
	.st29{fill:#F04B41;}
	.st30{fill:#007FBA;}
	.st31{clip-path:url(#SVGID_16_);}
	.st32{fill:#FBAC36;}
	.st33{fill:#2C2F61;}
	.st34{fill:#B7B9BA;}
	.st35{fill:#EF3748;}
	.st36{fill:#8999AC;}
	.st37{fill:#2B2F61;}
	.st38{fill:#EE2C45;}
	.st39{fill:#101624;}
	.st40{fill:#59707A;}
	.st41{fill:#4A3285;}
	.st42{fill:#F79230;}
	.st43{fill:#F15733;}
	.st44{fill:#D7303F;}
	.st45{fill:#FAA832;}
	.st46{fill:#1F1721;}
	.st47{fill:#5F3188;}
	.st48{fill:#EE243D;}
	.st49{fill:#1F4BA0;}
	.st50{fill:#244789;}
	.st51{fill:#FBAE2E;}
	.st52{fill:#006991;}
	.st53{fill:#F9A01B;stroke:#FFFFFF;stroke-width:0.4473;stroke-miterlimit:10;}
	.st54{fill:#FAA533;}
	.st55{fill:#0092BC;}
	.st56{fill:#15182C;}
	.st57{fill:#3E419A;}
	.st58{fill:#101721;}
	.st59{fill:#ADA3A5;}
	.st60{fill:#9CA7AC;}
	.st61{clip-path:url(#SVGID_18_);}
	.st62{clip-path:url(#SVGID_20_);}
	.st63{fill:#F3FAF7;}
	.st64{fill:#2D2F63;}
	.st65{fill:#FAA819;}
	.st66{fill:#FEF6FA;}
	.st67{fill:#004F30;}
	.st68{fill:#A2C7D3;}
	.st69{fill:#EE2E55;}
	.st70{fill:#32366E;}
	.st71{fill:#00ADDC;}
	.st72{fill:#FFFFFF;stroke:#00ACD0;stroke-width:0.2915;stroke-miterlimit:10;}
	.st73{fill:#FFFFFF;stroke:#00ACD0;stroke-width:0.2973;stroke-miterlimit:10;}
	.st74{fill:#450000;}
	.st75{fill:#EE224A;}
	.st76{fill:#0064A5;}
	.st77{fill:#F47736;}
	.st78{fill:#B5BCBF;}
	.st79{fill:#F47B35;}
	.st80{fill:#898C89;}
	.st81{fill:#2E2C61;}
	.st82{fill:#EE2B52;}
	.st83{fill:#C3C5BD;}
	.st84{fill:#C4D2D9;}
	.st85{fill:#EE284D;}
	.st86{fill:#161212;}
	.st87{fill:#EE274E;}
	.st88{fill:#A2A7AA;}
	.st89{fill:#A6AAAC;}
	.st90{fill:#A1A2AB;}
	.st91{fill:#110B13;}
	.st92{fill:#AFC1C6;}
	.st93{fill:#0067AD;}
	.st94{fill:#FBFBFB;}
	.st95{fill:#0065AF;}
	.st96{fill:#121A26;}
	.st97{fill:#008D4C;}
	.st98{fill:#B43A3D;}
	.st99{fill:#111623;}
	.st100{fill:#AB9048;}
	.st101{fill:#F8A174;}
	.st102{fill:#120B19;}
	.st103{fill:#C59751;}
	.st104{fill:#B33638;}
	.st105{fill:#009154;}
	.st106{fill:#1C2026;}
	.st107{fill:#EE2844;}
	.st108{fill:#30385F;}
	.st109{fill:#3A84B1;}
	.st110{fill:#A3C5D7;}
	.st111{fill:#F9A039;}
	.st112{fill:#B0BEC0;}
	.st113{fill:#231D46;}
	.st114{fill:#FDB840;}
	.st115{fill:#CD2C32;}
	.st116{fill:#272049;}
	.st117{fill:#FEC027;}
	.st118{fill:#ADC7C6;}
	.st119{fill:#014429;}
	.st120{fill:#DF2539;}
	.st121{fill:#F57E30;}
	.st122{fill:#ED1942;}
	.st123{fill:#FEF9FB;}
	.st124{fill:#0065AA;}
	.st125{fill:#A6B5B8;}
	.st126{fill:#0B040C;stroke:#0B040C;stroke-width:0.2716;stroke-miterlimit:10;}
	.st127{fill:#F7F9FD;}
	.st128{fill:none;stroke:#EBF2CC;stroke-width:0.2972;stroke-miterlimit:10;}
	.st129{fill:#48484A;}
	.st130{opacity:0.2;}
	.st131{fill:#EE2E3B;}
	.st132{fill:#005BA6;}
	.st133{fill:#737577;}
	.st134{fill:#A1A0A5;}
	.st135{fill:#272360;}
	.st136{fill:#FAFAFB;}
	.st137{fill:#058BA6;}
	.st138{fill:#DEDBE7;}
	.st139{fill:#B2965B;}
	.st140{fill:#1B305B;}
	.st141{fill:#F9F9FA;}
	.st142{fill:#E12039;}
	.st143{fill:#FEF4F4;}
	.st144{fill:#1D479E;}
	.st145{fill:#FCFCFE;}
	.st146{fill:#DD2135;}
</style>
<g>
	<path class="st144" d="M5.2,62.3c1-22.1,10.3-39.4,29.9-50.4c9.1-5.2,19.1-7.2,29.6-6.6c24.1,1.4,46.2,19.7,51.1,45.1
		c3.5,18-0.4,34.3-11.7,48.7c-8.1,10.3-18.8,16.7-31.7,19.4c-31.3,6.6-59.9-14.7-65.9-44C5.7,70.6,5.3,66.5,5.2,62.3z M84.5,70.8
		c0.6-2.7,1.3-5.3,1.8-7.9c1.3-6.4,3.8-12.1,8.2-16.9c0.4-0.4,0.2-0.7,0-1c-2-2.7-4.1-5.3-6.4-7.7c-0.5-0.5-0.7-0.5-1.2-0.1
		c-5.5,4.9-11,9.9-16.5,15c-1.3,1.2-1.3,1.2-2.2-0.3c-0.3-0.5-0.4-0.7,0.1-1.1c2-1.8,3.9-3.6,5.9-5.4c3.7-3.3,7.3-6.6,11-9.9
		c0.3-0.3,0.7-0.5,0.2-1c-2.4-2.3-4.9-4.5-7.6-6.6c-0.3-0.2-0.5-0.3-0.8,0c-3.8,2.7-8,4.2-12.5,5.5c-5.2,1.4-10.6,2.4-15.9,3.2
		c-0.7,0.1-1.4,0.5-1.9,0.3c-0.6-0.2-0.4-1.2-0.7-1.7c-0.2-0.4-0.1-0.6,0.4-0.6c0.3,0,0.5-0.1,0.8-0.2c5.6-1,11.3-1.9,16.8-3.4
		c4-1.1,7.9-2.5,11.4-4.9c-0.2-0.2-0.4-0.3-0.6-0.5c-3.3-2.4-6.7-4.5-10.4-6.3c-8.6-4.1-17.4-5.7-26.8-3.2c-2.3,0.6-4.8,1.1-6.7,2.6
		C20,26.8,13.1,37.6,10,50.8c-0.2,0.7-0.3,1.4-0.4,2.1c-0.1,0.7-0.4,1.4-0.2,2.3c1.8-2.9,3.8-5.3,6.6-7.6c-0.3,0.7-0.3,1.1-0.3,1.5
		c0,0.4,0,0.9,0,1.3c0,0.5-0.1,0.8-0.4,1.1c-3.1,3-4.9,6.7-6.4,10.7c-0.1,0.3-0.1,0.7-0.1,1c0,2.8,0.3,5.5,0.8,8.3
		c1.6,9.6,5.5,18.2,11.7,25.7c0.4,0.5,0.6,0.4,1,0c1.9-2.1,3.8-4.1,5.7-6.2c1.2-1.3,1.2-1.3,2.8-0.7c0.6,0.2,0.8,0.4,0.3,1
		c-2.4,2.5-4.6,5-7,7.5c-0.5,0.6-0.6,0.9,0,1.5c7.8,7.9,17.1,12.9,28,15c1.8,0.4,3.6,0.6,5.5-0.2c5.8-2.4,10.5-6.1,14.1-11.2
		c3-4.2,5.2-8.8,7-13.6c0.1-0.3,0.1-0.9,0.6-0.9c0.9-0.2,1.6-0.6,2.6-0.9c-1.3,3.7-2.8,7.2-4.5,10.5c-3.6,7.1-8.5,13.1-15.7,16.9
		c-0.1,0.1-0.2,0.1-0.2,0.3c2.9,0,5.9-0.3,8.8-0.8c12.3-2.3,22.5-8.3,30.6-17.8c1.5-1.8,2.6-3.6,2.9-5.9c0.1-0.6,0.2-1.1,0.3-1.7
		c0.1-0.3,0-0.6,0.4-0.8c0.8-0.3,1.5-0.8,2.3-1.4c0,0.2,0,0.3,0,0.4c0,0.1-0.1,0.3,0.1,0.3c0.1-0.1,0.1-0.2,0.2-0.3
		c4.7-8.9,6.8-18.4,6.3-28.4c-0.1-1.6,0.1-3.3-0.6-4.7c-1.7-3.5-3.7-6.7-6.7-9.3c-2.4-2.1-5.2-1.6-7.4-0.4c-0.6,0.4-0.7,0.7-0.3,1.4
		c3.4,5.5,5.9,11.5,7.4,17.9c0.5,2,0.9,4,1.1,6.2c-0.4-0.3-0.7-0.5-1-0.6c-0.3-0.2-0.7-0.3-1-0.4c-0.5-0.1-0.7-0.4-0.8-1
		c-1.3-7.3-3.8-14.2-7.5-20.6c-0.4-0.7-0.6-0.6-1-0.1c-2.2,2.6-3.9,5.5-5.2,8.7c-1.4,3.5-1.9,7.2-2.8,10.8
		C87.1,70.2,87.2,70.2,84.5,70.8z M41.7,12.7c0.1,0.2,0.2,0.3,0.5,0.3c5.4-0.9,10.7-0.2,16,1.3c6.7,2,12.7,5.4,18.3,9.5
		c0.7,0.5,1,0.5,1.6-0.1c4-4.3,2-9.2-1.4-12.4c-0.2-0.1-0.4-0.2-0.6-0.3c-4.3-1.3-8.7-2-13.2-2.2C55.4,8.6,48.4,10,41.7,12.7z
		 M111.4,47.7c0-0.3,0-0.4,0-0.6c-2.2-7.6-5.9-14.3-11.1-20.3c-0.4-0.4-0.6-0.4-1-0.1c-3.3,2.5-6.4,5.2-9.6,7.9
		c-0.4,0.3-0.4,0.5,0,0.8c2.5,2.5,4.7,5.2,6.7,8c0.3,0.4,0.5,0.4,0.9,0.1c3.6-2.3,6.9-2.3,10.3,0.2C109,44.8,110.3,46.1,111.4,47.7z
		 M80.9,12.8c2.9,4.9,1.7,9.8-1.4,12.7c-0.5,0.5,0,0.7,0.2,0.9c2.5,2,4.9,4.1,7.2,6.4c0.5,0.5,0.7,0.4,1.2,0
		c3.1-2.6,6.1-5.2,9.4-7.7c0.6-0.4,0.6-0.7,0.1-1.2c-2.8-2.7-5.9-5.2-9.2-7.2C86.1,15.2,83.7,14,80.9,12.8z"/>
	<path class="st145" d="M84.5,70.8c2.6-0.6,2.6-0.6,3.2-3c0.9-3.6,1.4-7.3,2.8-10.8c1.3-3.2,3-6,5.2-8.7c0.4-0.5,0.6-0.6,1,0.1
		c3.7,6.4,6.3,13.2,7.5,20.6c0.1,0.5,0.2,0.8,0.8,1c0.3,0.1,0.7,0.2,1,0.4c0.3,0.2,0.6,0.4,1,0.6c-0.2-2.2-0.6-4.2-1.1-6.2
		c-1.5-6.4-3.9-12.3-7.4-17.9c-0.4-0.7-0.3-1,0.3-1.4c2.2-1.3,5-1.7,7.4,0.4c3,2.6,5.1,5.8,6.7,9.3c0.7,1.4,0.5,3.1,0.6,4.7
		c0.5,10-1.6,19.5-6.3,28.4c-0.1,0.1-0.1,0.2-0.2,0.3c-0.2,0-0.1-0.2-0.1-0.3c0-0.1,0-0.2,0-0.4c-0.8,0.5-1.4,1.1-2.3,1.4
		c-0.4,0.1-0.3,0.5-0.4,0.8c-0.1,0.5-0.2,1.1-0.3,1.7c-0.3,2.3-1.4,4.2-2.9,5.9c-8.1,9.5-18.3,15.5-30.6,17.8
		c-2.9,0.6-5.8,0.8-8.8,0.8c-0.1-0.2,0.1-0.3,0.2-0.3c7.2-3.8,12.1-9.7,15.7-16.9c1.7-3.4,3.1-6.8,4.5-10.5c-1,0.3-1.7,0.8-2.6,0.9
		c-0.5,0.1-0.5,0.6-0.6,0.9c-1.9,4.8-4,9.4-7,13.6c-3.6,5.1-8.3,8.8-14.1,11.2c-1.9,0.8-3.7,0.6-5.5,0.2c-10.9-2.1-20.2-7.1-28-15
		c-0.6-0.6-0.5-0.9,0-1.5c2.4-2.5,4.6-5,7-7.5c0.6-0.6,0.4-0.8-0.3-1c-1.6-0.6-1.6-0.6-2.8,0.7c-1.9,2.1-3.8,4.1-5.7,6.2
		c-0.4,0.4-0.6,0.5-1,0c-6.2-7.5-10.1-16.1-11.7-25.7c-0.5-2.7-0.7-5.5-0.8-8.3c0-0.3,0-0.6,0.1-1c1.5-4,3.3-7.7,6.4-10.7
		c0.3-0.3,0.5-0.7,0.4-1.1c0-0.4,0-0.9,0-1.3c0-0.4,0-0.9,0.3-1.5c-2.7,2.3-4.8,4.7-6.6,7.6c-0.2-0.9,0.1-1.6,0.2-2.3
		c0.1-0.7,0.2-1.4,0.4-2.1c3.1-13.2,10-24,20.7-32.2c1.9-1.5,4.4-2,6.7-2.6c9.3-2.5,18.2-0.9,26.8,3.2c3.7,1.8,7.1,3.9,10.4,6.3
		c0.2,0.1,0.3,0.3,0.6,0.5c-3.5,2.4-7.4,3.8-11.4,4.9c-5.5,1.5-11.2,2.4-16.8,3.4c-0.3,0-0.5,0.1-0.8,0.2c-0.5,0-0.6,0.2-0.4,0.6
		c0.3,0.6,0,1.5,0.7,1.7c0.6,0.2,1.3-0.2,1.9-0.3c5.4-0.9,10.7-1.8,15.9-3.2c4.4-1.2,8.7-2.7,12.5-5.5c0.3-0.2,0.5-0.2,0.8,0
		c2.6,2.1,5.1,4.3,7.6,6.6c0.5,0.5,0.2,0.7-0.2,1c-3.7,3.3-7.3,6.6-11,9.9c-2,1.8-3.9,3.6-5.9,5.4c-0.5,0.4-0.4,0.7-0.1,1.1
		c1,1.5,0.9,1.5,2.2,0.3c5.4-5.1,10.9-10.1,16.5-15c0.5-0.5,0.8-0.4,1.2,0.1c2.3,2.4,4.5,5,6.4,7.7c0.2,0.3,0.4,0.6,0,1
		c-4.4,4.9-6.9,10.6-8.2,16.9C85.8,65.5,85.2,68.1,84.5,70.8z M52.2,66.9c0.2-2.7,0.3-5.5,0.8-8.2c0.3-1.7,0.7-3.4,1.9-4.7
		c0.6-0.7,1.4-1.2,2.5-0.9c1,0.3,1,1.1,1.1,1.9c0.1,1.7,0.4,3.3,1.3,4.7c1,1.7,2.7,2.5,4.8,2.1c1.9-0.3,3.2-1.4,3.6-3.3
		c0.6-2.7-0.3-5-2.1-7c-2.1-2.3-4.7-2.8-7.7-2.6c-6.6,0.3-11.5,3.2-14.3,9.3c-3,6.7-3.2,13.8-1.5,20.8c1.8,7.4,6.6,11.1,13.7,11.2
		c5.2,0,9.2-2.3,11.6-7c2.2-4.3,1.8-8.9,0.1-13.2c-2.7-7-10.1-8.4-15.5-3.2C52.4,66.9,52.3,66.9,52.2,66.9z M43.3,53.6
		c0.1,0.5-0.1,0.7-0.2,0.9c-2.3,3.5-5,6.6-8.3,9.2c-2.9,2.2-5.5,4.6-7.9,7.4c-3.5,4.2-6.6,8.7-8.1,14.1c-0.5,1.6-0.7,3.3-0.6,5
		c4.7-2.6,8.8-3,13-1.4c1.5,0.6,1.5,0.6,1.3-1.1c-0.6-5.9,0.4-11.6,2.7-17.1c1.2-2.9,3.2-5.4,4.8-8.1c2.4-4,4.7-8.1,5.8-12.8
		c0.1-0.5,0.3-1,0.1-1.5c-0.6,0.3-1,0.8-1.5,1.3c-4.7,4-10,5.6-16.1,4.5c-3.9-0.7-7.3-2.6-10.1-5.4c-0.2-0.2-0.4-0.5-0.7-0.4
		c-0.4,0.1-0.2,0.4-0.2,0.7c0,4.8,0,9.7,0,14.5c0,0.6,0.2,0.7,0.8,0.8c2.3,0.2,4.7,0.4,7,0.2c6.6-0.5,12-3.2,16.2-8.3
		C41.9,55.4,42.6,54.6,43.3,53.6z M96.4,74.6c0-0.3,0-0.5,0-0.7c-0.1-1.7-0.8-2.6-2-2.8c-1.1-0.2-2.1,0.4-2.8,1.8
		c-0.4,0.8-0.6,1.6-1,2.5c-0.2-1.4-0.4-2.7-0.8-3.9c-0.1-0.3-0.2-0.5-0.7-0.4c-1.7,0.5-3.3,1-5,1.5c-0.7,0.2-0.5,0.7-0.5,1.1
		c0,0.3-0.3,0.9,0.3,1c1.1,0.2,1.4,1,1.5,1.9c0.3,2.7,0.1,5.4,0.1,8c0,0.3-0.2,0.5-0.5,0.5c-1.2-0.1-1.1,0.7-1.1,1.5
		c0,0.7,0.3,0.8,0.9,0.8c2.2,0,4.3-0.1,6.5,0c1,0,1.4-0.2,1.2-1.2c-0.1-0.4,0.3-1-0.4-1c-1.3,0-1.2-0.8-1.2-1.6c0-0.8,0-1.5,0-2.3
		c0.1-1.4,0.2-2.7,0.6-4c0.2-0.5,0.3-1,1.1-0.7c1.1,0.4,2.2,0.8,3.2-0.5c-0.1,3,1.2,4.7,3.6,5.8c0.7,0.3,1.3,0.6,2,0.9
		c0.4,0.2,0.9,0.5,1.2,0.9c0.3,0.4,0.5,0.9,0.2,1.4c-0.4,0.7-1.1,0.7-1.8,0.7c-0.6,0-0.7-0.4-0.8-0.9c-0.2-0.7-0.4-1.3-0.8-1.9
		C99,82.4,98,82.1,97,82.4c-0.9,0.3-1.5,1-1.5,2.1c0,1.8,0.8,2.9,2.7,3.3c1.4,0.4,2.9,0.3,4.3,0.2c2.8-0.3,4.7-2.1,5-4.6
		c0.4-3.5-0.6-5.3-3.7-6.4c-0.8-0.3-1.6-0.6-2.4-0.9c-0.8-0.4-1-1.3-0.6-2c0.1-0.2,0.3-0.4,0.6-0.4c0.4,0,0.3,0.3,0.4,0.5
		c0.3,0.9,0.8,1.5,1.7,1.9c0.9,0.4,1.7,0.4,2.5-0.2c0.8-0.6,0.9-1.5,0.7-2.4c-0.2-0.9-0.8-1.5-1.6-1.8c-0.9-0.3-1.9-0.4-2.8-0.3
		C99.8,71.5,97.9,72.5,96.4,74.6z M82.5,82.3c-0.2,0.3-0.4,0.6-0.6,0.8c-0.9,0.9-1.9,1.5-3.2,1.2c-1.3-0.3-2.1-1.2-2.6-2.5
		c-0.2-0.7,0-1,0.7-1.2c2.2-0.6,4.4-1.2,6.6-1.8c0.5-0.1,0.7-0.3,0.7-0.9c-0.2-2.7-1.4-4.8-3.8-6.1c-2.4-1.3-4.8-1.1-7,0.4
		c-3.2,2.1-4,6.8-3.3,10.3c0.6,2.7,2.4,4.5,5.2,5.2c2.9,0.7,5.5,0,7.7-2.1c1.4-1.4,1.4-1.4,0.2-2.8C82.8,82.7,82.7,82.5,82.5,82.3z
		 M34,87.8c0.3,0,0.3,0,0.4-0.1c2.2-2.3,4.4-4.5,6.6-6.8c0.2-0.2,0.3-0.5,0.2-0.8c-0.2-0.7-0.4-1.4-0.6-2.3
		c-2.1,2.2-4.2,4.4-6.3,6.5C34.1,84.6,34,84.7,34,85C34,85.9,34,86.8,34,87.8z M39.4,28.1c-1.2,0.2-1.8-0.3-1.9-1.5
		c-0.2,1.2-0.7,1.7-2,1.5c1.5,0.5,1.1,1.4,0.8,2.3c0.8-0.8,1.5-0.9,2.3,0C38.2,29.4,38.3,28.6,39.4,28.1z M22.2,30.6
		c-0.2,1.1-0.8,1.7-2,1.5c1.3,0.5,1.3,1.4,0.8,2.4c0.8-0.9,1.5-1,2.4-0.1c-0.7-1.1-0.1-1.8,0.7-2.4C22.8,32.2,22.4,31.7,22.2,30.6z
		 M35.6,53.3c0.1-0.7-0.4-1.1-0.2-1.5c0.2-0.4,0.8-0.5,0.9-0.9c-1.3,0-1.3,0-1.9-1.5c-0.1,1.3-0.6,1.8-1.9,1.6
		c1.1,0.5,1.3,1.3,0.8,2.4C34.2,52.4,34.9,52.3,35.6,53.3z M28.8,49.2c-0.2,1.1-0.7,1.7-2,1.4c1.1,0.6,1.3,1.3,0.7,2.5
		c0.6-0.4,0.9-0.8,1.3-0.8c0.4,0,0.7,0.4,1.1,0.6c-0.6-1.1,0-1.7,0.9-2.3C29.5,50.9,28.9,50.4,28.8,49.2z M44.4,43.7
		c-1.3,0.3-1.8-0.3-2-1.5c-0.1,1.2-0.7,1.7-2,1.5c1.1,0.5,1.3,1.3,0.8,2.4c0.8-1.2,1.5-0.7,2.4-0.1C43.1,44.9,43.5,44.3,44.4,43.7z
		 M41.3,48.3c-0.5,0-0.9,0.1-1.3-0.1c-0.4-0.2-0.2-0.8-0.8-1.3c0.3,1.5-0.8,1.3-1.8,1.5c1.3,0.4,1.2,1.2,0.9,2.3
		c0.8-1,1.5-0.7,2.3,0C40.3,49.4,40.3,49.4,41.3,48.3z M30.8,29.1c0.8-0.8,1.5-0.8,2.4,0c-0.8-1.2-0.1-1.8,0.7-2.4
		c-1.3,0.3-1.8-0.3-2-1.5c0,1.4-0.8,1.6-1.9,1.5C31,27.3,31.4,28,30.8,29.1z M25.8,47.7c-1.2,0.2-1.8-0.2-1.9-1.4
		c-0.1,1.3-0.8,1.6-2,1.4c1.1,0.5,1.4,1.3,0.8,2.4c0.8-1.1,1.6-0.8,2.4-0.1C24.4,48.9,24.9,48.3,25.8,47.7z M45.1,37.9
		c-1.1,0.2-1.7-0.3-2-1.4c0,1.4-0.9,1.4-1.9,1.4c0.8,0.5,1.5,1,0.8,2.1c0.9-0.7,1.6-0.6,2.4,0.1C43.7,39.2,44.2,38.5,45.1,37.9z
		 M40.5,34.8c0.4-0.2,0.7-0.6,1.1-0.6c0.4,0,0.7,0.4,1.1,0.6c-0.7-1.1,0-1.7,0.9-2.3c-1.3,0.5-1.7-0.3-2-1.3c0,1.3-0.8,1.5-1.9,1.4
		C40.8,33.1,41,33.8,40.5,34.8z M20.8,41.5c-0.1,1.2-0.7,1.7-2,1.6c1.4,0.5,1.1,1.3,0.8,2.3c0.8-0.8,1.5-0.9,2.4,0
		c-0.8-1.1-0.2-1.7,0.7-2.4C21.4,43.3,20.9,42.7,20.8,41.5z M19.1,39.6c0.7-0.7,1.4-0.9,2.2-0.1c0-1.4,0-1.4,0.9-2.2
		c-0.5-0.1-1,0-1.3-0.2c-0.3-0.2-0.2-0.9-0.7-1.2c0,1.2-0.6,1.6-1.8,1.4C19.4,37.8,19.7,38.5,19.1,39.6z M26.2,26.6
		c-0.1,1.1-0.6,1.7-1.9,1.6c1.1,0.5,1.1,1.2,0.8,2.2c0.8-1,1.5-0.7,2.3,0c-0.6-1-0.2-1.7,0.8-2.3C26.7,28.4,26.4,27.6,26.2,26.6z"/>
	<path class="st145" d="M41.7,12.7c6.8-2.7,13.8-4.1,21.1-3.8C67.2,9,71.6,9.7,75.9,11c0.2,0.1,0.5,0.1,0.6,0.3
		c3.4,3.2,5.4,8.1,1.4,12.4c-0.6,0.6-0.9,0.6-1.6,0.1c-5.6-4.1-11.6-7.5-18.3-9.5c-5.2-1.5-10.5-2.2-16-1.3
		C41.9,13,41.8,12.9,41.7,12.7z"/>
	<path class="st145" d="M111.4,47.7c-1.1-1.6-2.4-2.8-3.8-3.9c-3.5-2.5-6.7-2.5-10.3-0.2c-0.4,0.2-0.6,0.3-0.9-0.1
		c-2-2.8-4.2-5.5-6.7-8c-0.3-0.3-0.3-0.5,0-0.8c3.2-2.7,6.3-5.3,9.6-7.9c0.4-0.3,0.6-0.3,1,0.1c5.2,6,8.8,12.7,11.1,20.3
		C111.4,47.2,111.4,47.4,111.4,47.7z"/>
	<path class="st145" d="M80.9,12.8c2.7,1.1,5.1,2.4,7.5,3.9c3.3,2.1,6.4,4.5,9.2,7.2c0.5,0.5,0.5,0.7-0.1,1.2
		c-3.2,2.4-6.3,5-9.4,7.7c-0.5,0.4-0.7,0.4-1.2,0c-2.3-2.3-4.7-4.4-7.2-6.4c-0.3-0.2-0.8-0.3-0.2-0.9C82.6,22.6,83.9,17.7,80.9,12.8
		z"/>
	<path class="st144" d="M52.2,66.9c0.1,0,0.2,0,0.2-0.1c5.4-5.3,12.7-3.8,15.5,3.2c1.7,4.3,2.1,8.9-0.1,13.2c-2.4,4.7-6.3,7-11.6,7
		c-7.1,0-11.9-3.8-13.7-11.2C40.8,72,40.9,65,44,58.3c2.8-6.1,7.7-9,14.3-9.3c2.9-0.2,5.6,0.4,7.7,2.6c1.8,2,2.7,4.3,2.1,7
		c-0.4,1.8-1.7,3-3.6,3.3c-2.2,0.4-3.8-0.4-4.8-2.1c-0.9-1.5-1.1-3.1-1.3-4.7c-0.1-0.8-0.1-1.7-1.1-1.9c-1-0.3-1.8,0.2-2.5,0.9
		c-1.2,1.4-1.6,3-1.9,4.7C52.5,61.5,52.4,64.2,52.2,66.9z M58.7,76.2c-0.1-0.9-0.1-1.9-0.2-3c-0.1-1-0.3-2-0.9-2.9
		c-0.5-0.8-1.3-1.2-2.2-1.2c-0.9,0-1.5,0.6-1.9,1.4c-0.3,0.5-0.4,1.1-0.5,1.7c-0.6,3.4-0.5,6.9-0.3,10.3c0.1,0.9,0.2,1.7,0.6,2.5
		c0.9,1.6,2.9,1.7,3.9,0.2c0.4-0.6,0.7-1.2,0.8-1.9C58.6,81,58.7,78.7,58.7,76.2z"/>
	<path class="st146" d="M43.3,53.6c-0.7,0.9-1.3,1.8-2,2.6c-4.2,5.1-9.6,7.9-16.2,8.3c-2.4,0.2-4.7,0-7-0.2
		c-0.5-0.1-0.8-0.2-0.8-0.8c0-4.8,0-9.7,0-14.5c0-0.2-0.1-0.6,0.2-0.7c0.3-0.1,0.5,0.2,0.7,0.4c2.8,2.8,6.1,4.7,10.1,5.4
		c6.1,1.1,11.5-0.5,16.1-4.5c0.5-0.4,0.8-0.9,1.5-1.3c0.2,0.5,0,1.1-0.1,1.5c-1.1,4.6-3.3,8.7-5.8,12.8c-1.6,2.7-3.5,5.2-4.8,8.1
		c-2.3,5.5-3.3,11.1-2.7,17.1c0.2,1.6,0.1,1.6-1.3,1.1c-4.3-1.6-8.4-1.2-13,1.4c-0.1-1.7,0.1-3.4,0.6-5c1.5-5.4,4.6-9.9,8.1-14.1
		c2.3-2.8,5-5.2,7.9-7.4c3.3-2.5,6-5.7,8.3-9.2C43.2,54.4,43.4,54.2,43.3,53.6z"/>
	<path class="st144" d="M96.4,74.6c1.4-2.1,3.4-3.1,5.7-3.4c1-0.1,1.9,0,2.8,0.3c0.9,0.3,1.5,0.9,1.6,1.8c0.2,0.9,0.1,1.8-0.7,2.4
		c-0.8,0.6-1.7,0.6-2.5,0.2c-0.8-0.4-1.4-1-1.7-1.9c-0.1-0.2,0-0.5-0.4-0.5c-0.3,0-0.5,0.2-0.6,0.4c-0.4,0.7-0.2,1.7,0.6,2
		c0.8,0.4,1.6,0.6,2.4,0.9c3,1.1,4.1,2.9,3.7,6.4c-0.3,2.5-2.2,4.3-5,4.6c-1.5,0.2-2.9,0.2-4.3-0.2c-1.8-0.4-2.7-1.6-2.7-3.3
		c0-1,0.6-1.8,1.5-2.1c1-0.3,2,0,2.5,0.9c0.4,0.6,0.6,1.2,0.8,1.9c0.1,0.4,0.2,0.9,0.8,0.9c0.7,0,1.4,0,1.8-0.7
		c0.3-0.5,0.1-1-0.2-1.4c-0.3-0.4-0.7-0.7-1.2-0.9c-0.7-0.3-1.3-0.6-2-0.9c-2.4-1.1-3.8-2.8-3.6-5.8c-1,1.2-2.2,0.9-3.2,0.5
		c-0.8-0.3-1,0.2-1.1,0.7c-0.4,1.3-0.6,2.7-0.6,4c-0.1,0.8,0,1.5,0,2.3c0,0.9-0.1,1.6,1.2,1.6c0.7,0,0.3,0.7,0.4,1
		c0.2,1-0.2,1.2-1.2,1.2c-2.2-0.1-4.3,0-6.5,0c-0.6,0-0.9-0.1-0.9-0.8c0-0.8-0.1-1.6,1.1-1.5c0.3,0,0.5-0.1,0.5-0.5
		c-0.1-2.7,0.2-5.4-0.1-8c-0.1-0.9-0.4-1.7-1.5-1.9c-0.6-0.1-0.3-0.6-0.3-1c0-0.4-0.2-0.9,0.5-1.1c1.7-0.5,3.4-1,5-1.5
		c0.5-0.2,0.6,0,0.7,0.4c0.5,1.2,0.7,2.4,0.8,3.9c0.4-1,0.7-1.8,1-2.5c0.7-1.4,1.7-2,2.8-1.8c1.2,0.2,1.9,1.1,2,2.8
		C96.4,74.1,96.4,74.3,96.4,74.6z"/>
	<path class="st144" d="M82.5,82.3c0.2,0.2,0.4,0.4,0.5,0.6c1.2,1.5,1.2,1.5-0.2,2.8c-2.2,2.1-4.8,2.8-7.7,2.1
		c-2.7-0.7-4.6-2.5-5.2-5.2c-0.8-3.5,0.1-8.2,3.3-10.3c2.3-1.5,4.6-1.7,7-0.4c2.4,1.3,3.6,3.4,3.8,6.1c0,0.6-0.2,0.7-0.7,0.9
		c-2.2,0.6-4.4,1.2-6.6,1.8c-0.7,0.2-0.9,0.4-0.7,1.2c0.4,1.3,1.3,2.2,2.6,2.5c1.3,0.3,2.3-0.3,3.2-1.2
		C82.1,82.9,82.3,82.6,82.5,82.3z M75.7,76.8c0,0.4,0,0.8,0,1.2c0,0.2,0,0.4,0.2,0.5c0.9,0.2,2.5-0.8,2.6-1.7c0.1-0.9,0-1.8-0.5-2.7
		c-0.2-0.4-0.6-0.8-1.1-0.7c-0.6,0-0.9,0.4-1,0.9C75.7,75,75.7,75.9,75.7,76.8z"/>
	<path class="st144" d="M34,87.8c0-1,0-1.9,0-2.9c0-0.2,0.1-0.4,0.2-0.5c2.1-2.1,4.1-4.3,6.3-6.5c0.2,0.8,0.4,1.6,0.6,2.3
		c0.1,0.3,0,0.6-0.2,0.8c-2.2,2.3-4.4,4.5-6.6,6.8C34.4,87.8,34.3,87.8,34,87.8z"/>
	<path class="st144" d="M39.4,28.1c-1.1,0.5-1.2,1.3-0.8,2.3c-0.8-0.9-1.6-0.8-2.3,0c0.3-1,0.6-1.8-0.8-2.3c1.3,0.2,1.8-0.3,2-1.5
		C37.6,27.8,38.2,28.3,39.4,28.1z"/>
	<path class="st144" d="M22.2,30.6c0.2,1.1,0.7,1.7,1.9,1.4c-0.8,0.6-1.5,1.3-0.7,2.4c-0.9-0.9-1.6-0.8-2.4,0.1
		c0.5-1,0.4-1.9-0.8-2.4C21.4,32.2,22,31.7,22.2,30.6z"/>
	<path class="st144" d="M35.6,53.3c-0.8-1-1.5-0.9-2.3-0.1c0.5-1,0.3-1.8-0.8-2.4c1.3,0.2,1.8-0.3,1.9-1.6c0.6,1.5,0.6,1.5,1.9,1.5
		c-0.2,0.5-0.7,0.6-0.9,0.9C35.2,52.2,35.7,52.6,35.6,53.3z"/>
	<path class="st144" d="M28.8,49.2c0.2,1.2,0.7,1.7,2,1.4c-0.9,0.6-1.5,1.2-0.9,2.3c-0.4-0.2-0.7-0.6-1.1-0.6
		c-0.4,0-0.7,0.4-1.3,0.8c0.6-1.1,0.4-1.9-0.7-2.5C28.1,50.9,28.6,50.3,28.8,49.2z"/>
	<path class="st144" d="M44.4,43.7c-0.9,0.6-1.4,1.3-0.7,2.3c-0.8-0.6-1.6-1-2.4,0.1c0.5-1.1,0.3-1.9-0.8-2.4c1.2,0.2,1.9-0.2,2-1.5
		C42.7,43.3,43.2,44,44.4,43.7z"/>
	<path class="st144" d="M41.3,48.3c-1,1.1-1,1.1-0.7,2.4c-0.8-0.8-1.5-1-2.3,0c0.3-1,0.5-1.9-0.9-2.3c1-0.2,2,0,1.8-1.5
		c0.6,0.5,0.4,1.1,0.8,1.3C40.4,48.3,40.8,48.2,41.3,48.3z"/>
	<path class="st144" d="M30.8,29.1c0.6-1.1,0.2-1.8-0.8-2.3c1.1,0.1,1.9-0.1,1.9-1.5c0.2,1.2,0.7,1.8,2,1.5
		c-0.8,0.6-1.6,1.2-0.7,2.4C32.3,28.3,31.6,28.2,30.8,29.1z"/>
	<path class="st144" d="M25.8,47.7c-0.9,0.6-1.4,1.2-0.7,2.3c-0.9-0.7-1.6-1.1-2.4,0.1c0.6-1.1,0.3-1.9-0.8-2.4
		c1.1,0.1,1.8-0.2,2-1.4C24,47.5,24.7,47.9,25.8,47.7z"/>
	<path class="st144" d="M45.1,37.9c-0.9,0.6-1.4,1.2-0.7,2.3c-0.8-0.7-1.5-0.8-2.4-0.1c0.7-1.1,0.1-1.6-0.8-2.1c1,0,1.9,0,1.9-1.4
		C43.4,37.7,44,38.2,45.1,37.9z"/>
	<path class="st144" d="M40.5,34.8c0.5-1,0.2-1.7-0.9-2.2c1.1,0.1,1.8-0.1,1.9-1.4c0.3,1,0.7,1.8,2,1.3c-0.9,0.6-1.5,1.2-0.9,2.3
		c-0.4-0.2-0.7-0.6-1.1-0.6C41.3,34.2,40.9,34.6,40.5,34.8z"/>
	<path class="st144" d="M20.8,41.5c0.1,1.2,0.6,1.8,1.9,1.5c-0.8,0.6-1.4,1.2-0.7,2.4c-0.9-0.9-1.6-0.8-2.4,0
		c0.3-0.9,0.6-1.8-0.8-2.3C20.1,43.2,20.7,42.7,20.8,41.5z"/>
	<path class="st144" d="M19.1,39.6c0.5-1,0.3-1.8-0.7-2.3c1.1,0.2,1.7-0.2,1.8-1.4c0.5,0.4,0.3,1,0.7,1.2c0.3,0.2,0.9,0.1,1.3,0.2
		c-0.9,0.8-0.9,0.8-0.9,2.2C20.5,38.6,19.8,38.9,19.1,39.6z"/>
	<path class="st144" d="M26.2,26.6c0.3,1,0.6,1.8,2,1.5c-1,0.6-1.3,1.3-0.8,2.3c-0.8-0.7-1.5-1-2.3,0c0.4-1,0.3-1.7-0.8-2.2
		C25.5,28.3,26.1,27.7,26.2,26.6z"/>
	<path class="st145" d="M58.7,76.2c0,2.5,0,4.8-0.6,7.1c-0.2,0.7-0.4,1.3-0.8,1.9c-1.1,1.5-3.1,1.3-3.9-0.2
		c-0.4-0.8-0.6-1.6-0.6-2.5c-0.2-3.4-0.3-6.9,0.3-10.3c0.1-0.6,0.3-1.2,0.5-1.7c0.4-0.8,1-1.4,1.9-1.4c1,0,1.7,0.4,2.2,1.2
		c0.6,0.9,0.7,1.9,0.9,2.9C58.6,74.3,58.6,75.3,58.7,76.2z"/>
	<path class="st145" d="M75.7,76.8c0-0.9,0-1.7,0.3-2.5c0.2-0.5,0.4-0.9,1-0.9c0.5,0,0.9,0.3,1.1,0.7c0.4,0.8,0.6,1.8,0.5,2.7
		c-0.1,0.9-1.7,1.9-2.6,1.7c-0.3-0.1-0.2-0.3-0.2-0.5C75.6,77.6,75.7,77.2,75.7,76.8z"/>
</g>
</svg>
