<?xml version="1.0" encoding="utf-8"?>
<!-- Generator: Adobe Illustrator 23.0.1, SVG Export Plug-In . SVG Version: 6.00 Build 0)  -->
<svg version="1.1" id="Capa_1" xmlns="http://www.w3.org/2000/svg" xmlns:xlink="http://www.w3.org/1999/xlink" x="0px" y="0px"
	 viewBox="0 0 126.2 128.3" style="enable-background:new 0 0 126.2 128.3;" xml:space="preserve">
<style type="text/css">
	.st0{fill:#175384;}
	.st1{fill:#A0A5AA;}
	.st2{fill:#0B040C;}
	.st3{fill:#FFC727;}
	.st4{fill:#F0545B;}
	.st5{fill:#FFFFFF;}
	.st6{fill:#00A855;}
	.st7{fill:#B4C4C9;}
	.st8{fill:#221A21;}
	.st9{fill:#EF3A47;}
	.st10{fill:url(#SVGID_1_);}
	.st11{fill:url(#SVGID_2_);}
	.st12{fill:url(#SVGID_3_);}
	.st13{fill:url(#SVGID_4_);}
	.st14{fill:url(#SVGID_5_);}
	.st15{fill:url(#SVGID_6_);}
	.st16{fill:url(#SVGID_7_);}
	.st17{fill:url(#SVGID_8_);}
	.st18{fill:url(#SVGID_9_);}
	.st19{fill:url(#SVGID_10_);}
	.st20{fill:url(#SVGID_11_);}
	.st21{fill:url(#SVGID_12_);}
	.st22{fill:#313564;}
	.st23{fill:#F04B41;stroke:#FFFFFF;stroke-width:2.1543;stroke-linecap:round;stroke-linejoin:round;stroke-miterlimit:10;}
	.st24{fill:#007FBA;stroke:#FFFFFF;stroke-width:2.1543;stroke-linecap:round;stroke-linejoin:round;stroke-miterlimit:10;}
	.st25{fill:#313564;stroke:#FFFFFF;stroke-width:2.1543;stroke-linecap:round;stroke-linejoin:round;stroke-miterlimit:10;}
	.st26{fill:#FFFFFF;stroke:#FFFFFF;stroke-width:2.1543;stroke-linecap:round;stroke-linejoin:round;stroke-miterlimit:10;}
	.st27{clip-path:url(#SVGID_14_);}
	.st28{fill:#FBAC36;stroke:#FFFFFF;stroke-width:2.1543;stroke-linecap:round;stroke-linejoin:round;stroke-miterlimit:10;}
	.st29{fill:#F04B41;}
	.st30{fill:#007FBA;}
	.st31{clip-path:url(#SVGID_16_);}
	.st32{fill:#FBAC36;}
	.st33{fill:#2C2F61;}
	.st34{fill:#B7B9BA;}
	.st35{fill:#EF3748;}
	.st36{fill:#8999AC;}
	.st37{fill:#2B2F61;}
	.st38{fill:#EE2C45;}
	.st39{fill:#101624;}
	.st40{fill:#59707A;}
	.st41{fill:#4A3285;}
	.st42{fill:#F79230;}
	.st43{fill:#F15733;}
	.st44{fill:#D7303F;}
	.st45{fill:#FAA832;}
	.st46{fill:#1F1721;}
	.st47{fill:#5F3188;}
	.st48{fill:#EE243D;}
	.st49{fill:#1F4BA0;}
	.st50{fill:#244789;}
	.st51{fill:#FBAE2E;}
	.st52{fill:#006991;}
	.st53{fill:#F9A01B;stroke:#FFFFFF;stroke-width:0.4473;stroke-miterlimit:10;}
	.st54{fill:#FAA533;}
	.st55{fill:#0092BC;}
	.st56{fill:#15182C;}
	.st57{fill:#3E419A;}
	.st58{fill:#101721;}
	.st59{fill:#ADA3A5;}
	.st60{fill:#9CA7AC;}
	.st61{clip-path:url(#SVGID_18_);}
	.st62{clip-path:url(#SVGID_20_);}
	.st63{fill:#F3FAF7;}
	.st64{fill:#2D2F63;}
	.st65{fill:#FAA819;}
	.st66{fill:#FEF6FA;}
	.st67{fill:#004F30;}
	.st68{fill:#A2C7D3;}
	.st69{fill:#EE2E55;}
	.st70{fill:#32366E;}
	.st71{fill:#00ADDC;}
	.st72{fill:#FFFFFF;stroke:#00ACD0;stroke-width:0.2915;stroke-miterlimit:10;}
	.st73{fill:#FFFFFF;stroke:#00ACD0;stroke-width:0.2973;stroke-miterlimit:10;}
	.st74{fill:#450000;}
	.st75{fill:#EE224A;}
	.st76{fill:#0064A5;}
	.st77{fill:#F47736;}
	.st78{fill:#B5BCBF;}
	.st79{fill:#F47B35;}
	.st80{fill:#EE2B52;}
	.st81{fill:#0C060E;}
	.st82{fill:#B58D49;}
	.st83{fill:#C9BBCB;}
	.st84{fill:#BA924C;}
	.st85{fill:#006BAF;}
	.st86{fill:#B3C5CB;}
	.st87{fill:#898C89;}
	.st88{fill:#2E2C61;}
	.st89{fill:#C3C5BD;}
	.st90{fill:#C4D2D9;}
	.st91{fill:#EE284D;}
	.st92{fill:#161212;}
	.st93{fill:#EE274E;}
	.st94{fill:#A2A7AA;}
	.st95{fill:#A6AAAC;}
	.st96{fill:#A1A2AB;}
	.st97{fill:#110B13;}
	.st98{fill:#AFC1C6;}
	.st99{fill:#0067AD;}
	.st100{fill:#FBFBFB;}
	.st101{fill:#0065AF;}
	.st102{fill:#121A26;}
	.st103{fill:#008D4C;}
	.st104{fill:#B43A3D;}
	.st105{fill:#111623;}
	.st106{fill:#AB9048;}
	.st107{fill:#F8A174;}
	.st108{fill:#120B19;}
	.st109{fill:#C59751;}
	.st110{fill:#B33638;}
	.st111{fill:#009154;}
	.st112{fill:#1C2026;}
	.st113{fill:#EE2844;}
	.st114{fill:#30385F;}
	.st115{fill:#3A84B1;}
	.st116{fill:#A3C5D7;}
	.st117{fill:#F9A039;}
	.st118{fill:#B0BEC0;}
	.st119{fill:#231D46;}
	.st120{fill:#FDB840;}
	.st121{fill:#CD2C32;}
	.st122{fill:#272049;}
	.st123{fill:#FEC027;}
	.st124{fill:#ADC7C6;}
	.st125{fill:#014429;}
	.st126{fill:#DF2539;}
	.st127{fill:#F57E30;}
	.st128{fill:#ED1942;}
	.st129{fill:#FEF9FB;}
	.st130{fill:#0065AA;}
	.st131{fill:#A6B5B8;}
	.st132{fill:#0B040C;stroke:#0B040C;stroke-width:0.2716;stroke-miterlimit:10;}
	.st133{fill:#F7F9FD;}
	.st134{fill:none;stroke:#EBF2CC;stroke-width:0.2972;stroke-miterlimit:10;}
	.st135{fill:#48484A;}
	.st136{opacity:0.2;}
	.st137{fill:#EE2E3B;}
	.st138{fill:#005BA6;}
	.st139{fill:#737577;}
	.st140{fill:#A1A0A5;}
	.st141{fill:#272360;}
	.st142{fill:#FAFAFB;}
	.st143{fill:#058BA6;}
	.st144{fill:#DEDBE7;}
	.st145{fill:#B2965B;}
	.st146{fill:#1B305B;}
	.st147{fill:#F9F9FA;}
	.st148{fill:#E12039;}
	.st149{fill:#FEF4F4;}
</style>
<g>
	<path class="st39" d="M118,6.7L44.4,4.8c0,0-9.9-0.7-13.1,11.1C28.6,25.7,4.8,122.8,4.8,122.8h79.9c0,0,8,0.5,10.1-7.5
		C96.9,107.1,118,6.7,118,6.7z"/>
	<path class="st40" d="M120.6,4.6H46.9c0,0-10.7-0.6-13.1,9.2C31.4,23.7,7.4,120.7,7.4,120.7h79.9c0,0,6.1,0.5,8.2-7.6
		C97.6,105.1,120.6,4.6,120.6,4.6z"/>
	<path class="st41" d="M20.4,84.3l68.1-0.1c0,0,8.7,0.9,11-8.1c2.4-9,16.1-68.4,16.1-68.4L50.3,7.4c0,0-10.5-1.1-13.3,9.7
		C34.2,28,20.4,84.3,20.4,84.3z"/>
	<path class="st39" d="M63.6,12.8c0,0.3-1,3.2-1,3.2l0.7,10.3l-11.1-1.9l1.4,5.3l3.7,5.3c0,0-6.8,0.1-6.6,0.5
		c0.2,0.4,1.8,3.2,1.8,3.2l3.1,0.8L25.1,63.1l5.9-2.1l19.1-12.9v0L25.7,69.4l-2.4,2.8l26.8-17.4l0,1.1L24,80l-3.2,3.9l20.4-15.1
		l12.9-5.9L37.5,79c0,0-3.8,5.1-3.6,5C34,84,56.8,67.4,56.8,67.4l4.8-1L47.1,78.8L43,84.1L69.5,66l9.9-4.2l4.1,6.7l4.9,2.8l4.3-15.1
		l1.8-1.4l7.3,0l3-1.9l-4.2-8.8l1.3-3.3l5.4-3.6c0,0,1.2-2.2,1.3-2.4c0.1-0.1-8.1-3.4-8.2-3.4S98,26,98,26s1.3-3,1.4-3.1
		c0-0.2,3.8-6,3.8-6l-1.4-0.1l-10.4,3.6l-3.8-1.7l-3.1-8.9L83,10.5l-4.5,7.1L75.4,18L63.6,12.8z"/>
	<path class="st39" d="M34.7,96.5l-1.3,5H23.2l-0.8,2.7h7.2c0,0,3.2-0.3,2,4.4c-1.2,4.6-1.5,5.5-1.5,5.5s-0.2,2.1-3.4,2.1
		c-3.2,0-14.3-0.1-14.3-0.1l1.3-5H24l0.8-2.8h-7.1c0,0-3.3,0.5-2.1-4.3c1.3-4.7,1.4-5.1,1.4-5.1s0-2.4,3.2-2.5
		C23.4,96.4,34.7,96.5,34.7,96.5z"/>
	<path class="st5" d="M37.9,96.5H44L40,110.9h4.2l3.9-14.4h6.1L49,115.9H36.9c0,0-4.2,0.5-2.9-5.1C35.3,105,37.9,96.5,37.9,96.5z"/>
	<path class="st5" d="M68.8,115.9h-6.1l4.1-14.4h-4.2l-3.9,14.4h-6.1l5.2-19.3h12.1c0,0,4.2-0.5,2.9,5.1
		C71.4,107.3,68.8,115.9,68.8,115.9z"/>
	<path class="st5" d="M94.4,96.5l-1.3,5H82.9l-0.8,2.7h7.2c0,0,3.2-0.3,2,4.4c-1.2,4.6-1.5,5.5-1.5,5.5s-0.2,2.1-3.4,2.1
		c-3.2,0-14.3-0.1-14.3-0.1l1.3-5h10.3l0.8-2.8h-7.1c0,0-3.3,0.5-2.1-4.3c1.3-4.7,1.4-5.1,1.4-5.1s0-2.4,3.2-2.5
		C83.1,96.4,94.4,96.5,94.4,96.5z"/>
	<path class="st39" d="M91.3,102.2h-7.8l-0.3,1.4c0,0,7,0,7.7,0.1L91.3,102.2z"/>
	<path class="st39" d="M76,98.4c0,0-1.4,0.2-2,2.5c-0.6,2.2-1.4,5.6-1.4,5.6s-0.7,1.9,0.2,2.9c0.8,1,2.4,0.9,2.4,0.9h8l0.4-1.3h-6.3
		c0,0-1.8,0.1-2.6-1.3c-0.6-1.1-0.3-2.9,0.1-4.4C75.1,101.7,76,98.4,76,98.4z"/>
	<path class="st39" d="M71,112.8h1.2l-1.1,4.2c0,0,16.1,0,16.2,0c0.1,0-0.7,1.5-2.4,1.5c-1.8,0-15.4,0-15.4,0L71,112.8z"/>
	<path class="st5" d="M34.8,96.5l-1.3,5H23.3l-0.8,2.7h7.2c0,0,3.2-0.3,2,4.4c-1.2,4.6-1.5,5.5-1.5,5.5s-0.2,2.1-3.4,2.1
		c-3.2,0-14.3-0.1-14.3-0.1l1.3-5h10.3l0.8-2.8h-7.1c0,0-3.3,0.5-2.1-4.3c1.3-4.7,1.4-5.1,1.4-5.1s0-2.4,3.2-2.5
		C23.5,96.4,34.8,96.5,34.8,96.5z"/>
	<path class="st39" d="M31.5,102.2h-7.8l-0.3,1.4c0,0,7,0,7.7,0.1L31.5,102.2z"/>
	<path class="st39" d="M16.2,98.4c0,0-1.4,0.2-2,2.5c-0.6,2.2-1.4,5.6-1.4,5.6s-0.7,1.9,0.2,2.9c0.8,1,2.4,0.9,2.4,0.9h8l0.4-1.3
		h-6.3c0,0-1.8,0.1-2.6-1.3c-0.6-1.1-0.3-2.9,0.1-4.4C15.3,101.7,16.2,98.4,16.2,98.4z"/>
	<path class="st39" d="M11.2,112.8h1.2l-1.1,4.2c0,0,16.1,0,16.2,0c0.1,0-0.7,1.5-2.4,1.5c-1.8,0-15.4,0-15.4,0L11.2,112.8z"/>
	<polygon class="st39" points="68,116.7 67.5,118.4 60.2,118.4 64.2,103.9 62.8,103.9 63.3,102.1 65.7,102.1 61.8,116.7 	"/>
	<path class="st39" d="M57.8,116.7l-0.5,1.8c0,0-7.3,0-7.3,0c0.1,0,5.6-20.6,5.6-20.6l1.1,0l-5.1,18.9L57.8,116.7z"/>
	<path class="st39" d="M48.1,116.7c0,0.1-0.5,1.8-0.5,1.8l-11.4,0c0,0-3.2,0.2-4.1-2.5c-1-2.6-0.1-5,0.7-7.8
		c0.8-2.9,2.9-10.4,2.9-10.4l1,0l-3.4,12.7c0,0-0.7,2.7,0.1,4.4c0.8,1.7,1.6,1.8,3.8,1.8C39.5,116.7,48.1,116.7,48.1,116.7z"/>
	<polygon class="st39" points="45.8,97.8 46.9,97.8 43.5,110.2 42.4,110.2 	"/>
	<path class="st5" d="M26.8,87.2l-6.4,0l-1.8,6.6h2.3l0.6-1.6c0,0,2.4,0,3.2,0c0.7,0,1.9-0.1,2.3-0.5c0.4-0.4,0.9-1.4,1.1-3
		C28.3,87.2,26.8,87.2,26.8,87.2z M25.2,90.8l-3.3,0l0.6-2.2h3.2L25.2,90.8z"/>
	<path class="st39" d="M21.9,92.8c-0.1,0-0.1,0.6-0.1,0.6H24c0,0,2,0,2.5-0.7C25.7,92.9,23.5,92.8,21.9,92.8z"/>
	<polygon class="st39" points="19.6,87.5 17.7,94.4 20.6,94.4 20.4,95 17.1,95 19.3,87.6 	"/>
	<polygon class="st39" points="32,87.5 30.1,94.4 33,94.4 32.9,95 29.5,95 31.7,87.6 	"/>
	<path class="st39" d="M22.9,89.2c0.1,0,2.1,0,2.1,0l-0.3,0.9l-0.5,0l0.1-0.3l-1.6,0L22.9,89.2z"/>
	<polygon class="st39" points="36.8,87.5 37.1,87.5 36.7,89 36.3,89 	"/>
	<polygon class="st5" points="35.3,87.2 34.6,89.7 37.1,89.7 37.9,87.2 40.3,87.2 38.4,93.8 36,93.8 36.6,91.4 34.2,91.4 33.4,93.8 
		30.9,93.8 32.9,87.2 	"/>
	<polygon class="st39" points="34.6,92 35.8,92 35.1,94.4 38.1,94.4 37.9,95 34.5,95 35.3,92.5 34.4,92.6 	"/>
	<path class="st5" d="M51.3,87.2c0,0-3,0-4.7,0c-1.7,0-2,1.3-2,1.3s-0.4,1.4-1,3.5c-0.5,2.1,1.1,1.9,1.1,1.9s3.3,0,4.8,0
		c1.5,0,1.7-1.3,1.7-1.3s0.5-1.6,1-3.5C52.7,87.2,51.3,87.2,51.3,87.2z M48.8,92.5h-2.7l1.1-3.9h2.7L48.8,92.5z"/>
	<path class="st39" d="M44.1,88.1L43,92.2c0,0-0.2,1,0.3,1.6c0.5,0.6,1.2,0.6,1.8,0.6c0.6,0,5.3,0,5.3,0s-0.4,0.7-1.7,0.7
		c-1.3,0-5,0-5,0s-1.1,0-1.4-0.8c-0.3-0.8,0-1.4,0.2-2.3c0.2-0.9,0.8-2.9,0.8-2.9S43.7,88.3,44.1,88.1z"/>
	<polygon class="st39" points="47.6,89.2 47.4,89.8 48.5,89.8 47.9,91.8 48.3,91.8 49,89.2 	"/>
	<polygon class="st39" points="56.3,87.5 56.8,87.5 54.8,94.4 62.3,94.4 62.1,95 54.1,95 	"/>
	<polygon class="st5" points="57.5,87.2 64.5,87.2 64,88.6 59.6,88.6 59.2,90 63.6,90 63.3,91 58.9,91.1 58.5,92.4 63,92.5 
		62.5,93.8 55.6,93.9 	"/>
	<polygon class="st39" points="60.1,89.2 60.1,89.4 63.7,89.4 63.8,89.2 	"/>
	<polygon class="st39" points="59.4,91.7 63.1,91.7 63,91.8 59.4,91.8 	"/>
	<path class="st39" d="M67.7,87.5c0,0,0.5,0,0.5,0l-2,6.9l3,0L69.1,95c0,0-3.6,0-3.5,0C65.6,95,67.7,87.5,67.7,87.5z"/>
	<path class="st5" d="M68.8,87.2L67,93.8h2.5l1.6-5.2l2.1,0l-1.5,5.2l2.5,0l1.4-4.9c0,0,0.6-1.8-1-1.7
		C72.9,87.2,68.8,87.2,68.8,87.2z"/>
	<path class="st39" d="M71.5,89.3c0,0-0.2,0.6-0.2,0.6l0.4,0L70.2,95c0,0,3.4,0,3.4,0c0,0,0.2-0.6,0.2-0.6s-2.7,0-2.8,0
		c0,0-0.3,0.1-0.2-0.3c0.1-0.4,1.4-4.9,1.4-4.9L71.5,89.3z"/>
	<polygon class="st5" points="81.2,87.2 83.7,87.2 81.8,93.8 79.3,93.8 	"/>
	<polygon class="st39" points="80.5,87.5 78.5,94.4 81.5,94.4 81.3,95 78,95 80.1,87.5 	"/>
	<polygon class="st39" points="86.9,87.5 87.8,87.5 88.9,90.2 84.9,94.5 89.2,94.5 88.7,95 84.1,95 88.2,90.7 	"/>
	<polygon class="st5" points="88.4,87.2 91,87.2 91.8,89.5 93.8,87.3 96.8,87.3 93.4,90.6 94.7,93.8 92.1,93.8 91.4,91.5 89.3,93.8 
		86.3,93.8 89.6,90.4 	"/>
	<polygon class="st39" points="90.5,93.5 91,95 94.7,95 94.4,94.5 91.6,94.5 91.1,92.7 	"/>
	<polygon class="st39" points="92,88.3 92.7,87.5 92.4,87.5 91.9,88 	"/>
	<path class="st42" d="M63.6,11.6c0.2,0.3,1.1,13.9,1.1,13.9l-12.5-1l6.4,8.6l-7.9,2.5l5.3,2.4L25.5,63.1l33-21.5L23.1,72.4
		l32.1-19.7L20.4,84.3l39.5-24.9c0,0-26.5,25.2-26.2,25c0.3-0.2,38.4-24.8,38.4-24.8L43,84.1l38.4-23.6l7.4,11.6
		c0,0,5.6-17.5,5.7-17.7c0.1-0.3,1.3-1.4,1.3-1.4h9.2l-4-9.1l1.1-4.5l7.3-5.3l-8.8-3.2L99,27.4l5.1-10.9l-11.4,4.3l-4.3-2.2
		l-3.6-9.4l-5.1,8.1l-3.9,0.7L63.6,11.6z"/>
	<path class="st43" d="M68.2,26.2c0,0,3-1,5.5-1.2c2.5-0.3,6.6,0,9.4-1.9c2.7,1.8,3.3,2.4,3.3,2.4S73,29.9,66.8,39.9
		c0,0-1.3-4.1-0.7-8.1C66.7,27.8,68.2,26.2,68.2,26.2z"/>
	<path class="st43" d="M77.7,18.7c0,0,3.3,1,4.9,1.7c0.8-0.7,0.8-0.9,0.8-0.9s-3.7-1-5.3-1.1C78.4,18.5,77.7,18.7,77.7,18.7z"/>
	<path class="st43" d="M79.4,18.2c0.1,0,3.7,0,4.6,0.2c0.3-0.4,0.4-0.8,0.4-0.8s-1.7-0.3-3.7-0.3C78.8,17.4,79.4,18.2,79.4,18.2z"/>
	<path class="st43" d="M86.4,18l-0.2,0.7c0,0,5.6,1.7,9.2,5.3c0.9,0.2,1,0,1,0s-1.6-2.4-5.5-4.4C89.1,18.7,86.4,18,86.4,18z"/>
	<path class="st43" d="M84.8,21.6c0,0,0.7-0.7,0.9-1.4c1.3,0.6,5.2,2.6,6.6,3.9c-2.1,0.4-3.3,0.6-3.3,0.6S86.2,22.5,84.8,21.6z"/>
	<path class="st43" d="M90.4,26.4c0,0,2.8-0.6,3.6-0.6c0.8,1,2.7,2.9,3.9,6.5c-1.2-0.3-4.4-1-4.4-1S91.7,27.8,90.4,26.4z"/>
	<path class="st43" d="M88.2,27c0,0-7.1,1.8-12.3,7.1c-5.2,5.2-7.6,10.9-7.6,10.9s1.3,3.4,1.2,3.4c-0.1,0,5.2,4.7,6.2,4.8
		c1.1,0.1,2.3-0.3,2.3-0.3s5.4-13.8,5.4-13.9c0-0.1,3.8-4.6,3.8-4.6l3.9-2.6l-0.8-2.6l-1.4-1.8L88.2,27z"/>
	<path class="st43" d="M91.8,33.8c0,0-3.1,0.5-4.9,3c-1.9,2.5-2.2,4.7-3.1,8.4c-0.9,3.7-2.3,8.6-2.5,9.6c-0.3,1,1.7,1.5,1.7,1.5
		l7.4-2.4l1.8-5.7l0.6-7.5l-0.4-6.1L91.8,33.8z"/>
	<path class="st43" d="M94.4,33.6c0,0,2.6,0.3,4.3,1.9c0.4,3.8,1,9.2-0.7,13.9c-2.3,2.5-2.7,2.4-2.7,2.4s0.8-4.4,0.6-7.6
		C95.8,40.9,95.2,35.7,94.4,33.6z"/>
	<path class="st43" d="M96.8,25.7c0,0,3.2,3.8,3.7,8.9c0.9,1,1.3,1,1.3,1s-1.2-6.9-4-9.9C97.4,25.7,96.8,25.7,96.8,25.7z"/>
	<path class="st43" d="M101,37.6l0.9,1.1v0.8l0.2-0.1c0,0-0.6,5.3-2.1,7.9C98.5,49,98.5,49,98.5,49v-0.4
		C98.5,48.5,101.1,43.4,101,37.6z"/>
	<path class="st44" d="M83,17.5c0,0-2.9,0.3-5,1.2c-1.1-0.3-2.7-0.5-2.7-0.5S77.7,16.9,83,17.5z"/>
	<path class="st44" d="M72.2,19.4c0,0-2.9,1.5-5.4,3.6c3.1-0.5,5.7-0.8,5.7-0.8s1.7-1.6,2.7-2.1C74,19.6,72.2,19.4,72.2,19.4z"/>
	<path class="st44" d="M69.3,26c0,0-2.9,3.9-3,9.1c-0.2,4.1,0.5,4.9,0.5,4.9l-4.3,7.6c0,0-2.5-4.6-2.2-10.4c0.3-5.8,2.1-8.1,2.1-8.1
		S66.5,26.6,69.3,26z"/>
	<path class="st44" d="M68.4,44.7c0,0-2.4,5.6-2.7,7.5c1.5,2.2,5.4,4.4,6.8,5c1.4,0.6,2.5,0,2.5,0l2.4-4.2
		C77.4,53,72,51.1,68.4,44.7z"/>
	<path class="st44" d="M81.5,54.3c0.1,0,4.7,1,8.4-0.3c-0.3,1.6-0.4,2.3-0.4,2.3L88,57.8c0,0-4.5,1.8-8.6,1.1
		C80.5,57.5,81.5,54.3,81.5,54.3z"/>
	<path class="st39" d="M63.2,27.4c0,0,2.6-3.5,3.6-4.3c2.6-0.6,6.1-1.1,8.1-0.9c1.9,0.1,4.4,0.3,6-0.3c-2.3-1.3-8.7-2.4-8.7-2.4
		l1.8-0.8c0,0,4.7,0.6,8.3,2.1c1.4-1.3,2-2.5,2.2-3.1c1.2,0.2,1.4,0.3,1.4,0.3s-0.3,2.3-2,3.9c1.9,1.1,4.3,3.1,4.3,3.1
		s4.7-1.1,8.2-1c1,1.3,1,1.3,1,1.3s-5.3-0.2-8,1c1.6,1.8,3.2,4.5,3.3,5.1c1.7-0.2,6.1,0.3,9.2,4.2c0,2.3,0,2.5,0,2.5
		s-3.9-5.3-8.4-4.8c1.2,4.2,3.2,13.4-0.4,22.3c-1.7,1.2-5.2,2.5-5.2,2.5s3.9-6.4,4.4-14.5s-1.1-10.3-1.1-10.3s-5.1,1.4-6.8,6.7
		c-1.7,5.3-3.2,12.5-3.6,13.6c-0.3,1.1-1.8,4.7-3,5.4c-2.4-0.2-5.3-1.7-5.3-1.7s3.8-0.8,5.5-5.5c1.7-4.7,3.9-11.9,5.3-14.5
		c1.4-2.5,5-5.1,7.5-5.6c0,0-1.9-4.2-3.3-5c-3.5,1.1-13.9,4.5-20.4,18.3c0,0-2.1,4.9-2.3,6.3c-1.1-1-2.4-3.7-2.4-3.7
		s3.6-9,10.9-14.8c7.3-5.8,13-7.3,13-7.3l-3.7-2.8c0,0-1.7,1-3.1,1.1c-1.4,0.1-6.4,0.1-9.7,1C66.5,25.7,63.4,27.1,63.2,27.4z"/>
	<path class="st44" d="M95.3,51.4c0,0-0.6,2.4-0.8,3c1.7-1.4,5.2-5.8,5.8-7.9C99.3,48,96.3,50.8,95.3,51.4z"/>
</g>
</svg>
