<?xml version="1.0" encoding="utf-8"?>
<!-- Generator: Adobe Illustrator 23.0.1, SVG Export Plug-In . SVG Version: 6.00 Build 0)  -->
<svg version="1.1" id="Capa_1" xmlns="http://www.w3.org/2000/svg" xmlns:xlink="http://www.w3.org/1999/xlink" x="0px" y="0px"
	 viewBox="0 0 113.2 126.8" style="enable-background:new 0 0 113.2 126.8;" xml:space="preserve">
<style type="text/css">
	.st0{fill:#175384;}
	.st1{fill:#A0A5AA;}
	.st2{fill:#0B040C;}
	.st3{fill:#FFC727;}
	.st4{fill:#F0545B;}
	.st5{fill:#FFFFFF;}
	.st6{fill:#00A855;}
	.st7{fill:#B4C4C9;}
	.st8{fill:#221A21;}
	.st9{fill:#EF3A47;}
	.st10{fill:url(#SVGID_1_);}
	.st11{fill:url(#SVGID_2_);}
	.st12{fill:url(#SVGID_3_);}
	.st13{fill:url(#SVGID_4_);}
	.st14{fill:url(#SVGID_5_);}
	.st15{fill:url(#SVGID_6_);}
	.st16{fill:url(#SVGID_7_);}
	.st17{fill:url(#SVGID_8_);}
	.st18{fill:url(#SVGID_9_);}
	.st19{fill:url(#SVGID_10_);}
	.st20{fill:url(#SVGID_11_);}
	.st21{fill:url(#SVGID_12_);}
	.st22{fill:#313564;}
	.st23{fill:#F04B41;stroke:#FFFFFF;stroke-width:2.1543;stroke-linecap:round;stroke-linejoin:round;stroke-miterlimit:10;}
	.st24{fill:#007FBA;stroke:#FFFFFF;stroke-width:2.1543;stroke-linecap:round;stroke-linejoin:round;stroke-miterlimit:10;}
	.st25{fill:#313564;stroke:#FFFFFF;stroke-width:2.1543;stroke-linecap:round;stroke-linejoin:round;stroke-miterlimit:10;}
	.st26{fill:#FFFFFF;stroke:#FFFFFF;stroke-width:2.1543;stroke-linecap:round;stroke-linejoin:round;stroke-miterlimit:10;}
	.st27{clip-path:url(#SVGID_14_);}
	.st28{fill:#FBAC36;stroke:#FFFFFF;stroke-width:2.1543;stroke-linecap:round;stroke-linejoin:round;stroke-miterlimit:10;}
	.st29{fill:#F04B41;}
	.st30{fill:#007FBA;}
	.st31{clip-path:url(#SVGID_16_);}
	.st32{fill:#FBAC36;}
	.st33{fill:#2C2F61;}
	.st34{fill:#B7B9BA;}
	.st35{fill:#EF3748;}
	.st36{fill:#8999AC;}
	.st37{fill:#2B2F61;}
	.st38{fill:#EE2C45;}
	.st39{fill:#101624;}
	.st40{fill:#59707A;}
	.st41{fill:#4A3285;}
	.st42{fill:#F79230;}
	.st43{fill:#F15733;}
	.st44{fill:#D7303F;}
	.st45{fill:#FAA832;}
	.st46{fill:#1F1721;}
	.st47{fill:#5F3188;}
	.st48{fill:#EE243D;}
	.st49{fill:#1F4BA0;}
	.st50{fill:#244789;}
	.st51{fill:#FBAE2E;}
	.st52{fill:#006991;}
	.st53{fill:#F9A01B;stroke:#FFFFFF;stroke-width:0.4473;stroke-miterlimit:10;}
	.st54{fill:#FAA533;}
	.st55{fill:#0092BC;}
	.st56{fill:#15182C;}
	.st57{fill:#3E419A;}
	.st58{fill:#101721;}
	.st59{fill:#ADA3A5;}
	.st60{fill:#9CA7AC;}
	.st61{clip-path:url(#SVGID_18_);}
	.st62{clip-path:url(#SVGID_20_);}
	.st63{fill:#F3FAF7;}
	.st64{fill:#2D2F63;}
	.st65{fill:#FAA819;}
	.st66{fill:#FEF6FA;}
	.st67{fill:#004F30;}
	.st68{fill:#A2C7D3;}
	.st69{fill:#EE2E55;}
	.st70{fill:#32366E;}
	.st71{fill:#00ADDC;}
	.st72{fill:#FFFFFF;stroke:#00ACD0;stroke-width:0.2915;stroke-miterlimit:10;}
	.st73{fill:#FFFFFF;stroke:#00ACD0;stroke-width:0.2973;stroke-miterlimit:10;}
	.st74{fill:#450000;}
	.st75{fill:#EE224A;}
	.st76{fill:#0064A5;}
	.st77{fill:#F47736;}
	.st78{fill:#B5BCBF;}
	.st79{fill:#F47B35;}
	.st80{fill:#EE2B52;}
	.st81{fill:#0C060E;}
	.st82{fill:#B58D49;}
	.st83{fill:#C9BBCB;}
	.st84{fill:#BA924C;}
	.st85{fill:#006BAF;}
	.st86{fill:#B3C5CB;}
	.st87{fill:#898C89;}
	.st88{fill:#2E2C61;}
	.st89{fill:#C3C5BD;}
	.st90{fill:#C4D2D9;}
	.st91{fill:#EE284D;}
	.st92{fill:#161212;}
	.st93{fill:#EE274E;}
	.st94{fill:#A2A7AA;}
	.st95{fill:#A6AAAC;}
	.st96{fill:#A1A2AB;}
	.st97{fill:#110B13;}
	.st98{fill:#AFC1C6;}
	.st99{fill:#0067AD;}
	.st100{fill:#FBFBFB;}
	.st101{fill:#0065AF;}
	.st102{fill:#121A26;}
	.st103{fill:#008D4C;}
	.st104{fill:#B43A3D;}
	.st105{fill:#111623;}
	.st106{fill:#AB9048;}
	.st107{fill:#F8A174;}
	.st108{fill:#120B19;}
	.st109{fill:#C59751;}
	.st110{fill:#B33638;}
	.st111{fill:#009154;}
	.st112{fill:#1C2026;}
	.st113{fill:#EE2844;}
	.st114{fill:#30385F;}
	.st115{fill:#3A84B1;}
	.st116{fill:#A3C5D7;}
	.st117{fill:#F9A039;}
	.st118{fill:#B0BEC0;}
	.st119{fill:#231D46;}
	.st120{fill:#FDB840;}
	.st121{fill:#CD2C32;}
	.st122{fill:#272049;}
	.st123{fill:#FEC027;}
	.st124{fill:#ADC7C6;}
	.st125{fill:#014429;}
	.st126{fill:#DF2539;}
	.st127{fill:#F57E30;}
	.st128{fill:#ED1942;}
	.st129{fill:#FEF9FB;}
	.st130{fill:#0065AA;}
	.st131{fill:#A6B5B8;}
	.st132{fill:#0B040C;stroke:#0B040C;stroke-width:0.2716;stroke-miterlimit:10;}
	.st133{fill:#F7F9FD;}
	.st134{fill:none;stroke:#EBF2CC;stroke-width:0.2972;stroke-miterlimit:10;}
	.st135{fill:#48484A;}
	.st136{opacity:0.2;}
	.st137{fill:#EE2E3B;}
	.st138{fill:#005BA6;}
	.st139{fill:#737577;}
	.st140{fill:#A1A0A5;}
	.st141{fill:#272360;}
	.st142{fill:#FAFAFB;}
	.st143{fill:#058BA6;}
	.st144{fill:#DEDBE7;}
	.st145{fill:#B2965B;}
	.st146{fill:#1B305B;}
	.st147{fill:#F9F9FA;}
	.st148{fill:#E12039;}
	.st149{fill:#FEF4F4;}
</style>
<g>
	<polygon class="st7" points="38.8,3.6 104.2,3.6 72.3,123.6 6.4,123.6 	"/>
	<polygon class="st8" points="40.7,6.1 101.2,6.1 70.1,121.6 9.5,121.6 	"/>
	<g>
		<path class="st5" d="M46.3,9.6h-3.4l0.8,1.6l-3.4,11.5h1.8c0,0,1.1-3.9,1.5-5c3.2,0.1,3.7-2.5,3.7-2.5s0.2-0.9,1-3.4
			C49,9.6,46.3,9.6,46.3,9.6z M46.4,12c0,0-0.6,2.2-1,3.4c-0.3,1.2-1.3,0.8-1.3,0.8l1.4-4.9C46.8,11.2,46.4,12,46.4,12z"/>
		<path class="st5" d="M53.9,9.4c-1-0.1-1.8,0.3-1.8,0.3h-2.3l0.8,1.4c0,0-1.8,6.2-2.7,9.2c-0.9,2.8,1.6,2.7,1.6,2.7
			c2.5,0,3.1-2.2,3.1-2.2s1.8-5.8,2.6-8.4C55.9,9.8,54.8,9.5,53.9,9.4z M53.4,11.5l-2.6,9c0,0-0.3,1-0.8,1c-0.7,0-0.3-1-0.3-1
			l2.6-8.8c0,0,0.1-0.7,0.7-0.7C53.7,10.9,53.4,11.5,53.4,11.5z"/>
		<path class="st5" d="M60.8,9.7h-4.1l0.8,1.5L54,22.8h1.9l1.9-6.3c1.2,0.1,0.8,1.1,0.8,1.1L57,22.8l1.9,0c0,0,1.2-3.8,1.3-4.7
			c0.2-0.9,0.6-1.7,0-2.3c0.6-0.1,1-0.9,1-0.9s0.3-1,0.9-3.2C62.6,9.5,60.8,9.7,60.8,9.7z M60.2,11.9c0,0-0.5,1.6-0.8,2.6
			c-0.4,1-1.3,0.7-1.3,0.7s1.1-4,1.2-4C60.6,11.1,60.2,11.9,60.2,11.9z"/>
		<polygon class="st5" points="63.2,9.7 68.9,9.7 68.4,11.4 66.8,11.4 63.4,22.8 61.5,22.8 64.9,11.4 63.9,11.4 		"/>
		<path class="st5" d="M69.9,9.7h3.1l-3.4,11.4c0,0,2.4,0,2.4,0c0,0-0.5,1.7-0.5,1.7h-4.2l3.4-11.6C70.7,11.2,69.9,9.7,69.9,9.7z"/>
		<path class="st5" d="M76.7,9.7l0.9,1.6L73,22.8h1.7l1.5-3.6h1.3c0,0-0.6,3.6-0.7,3.6c0.1,0,1.9,0,1.9,0l2.5-13.2
			C81.1,9.7,76.8,9.7,76.7,9.7z M77.8,17.6h-1.1c0,0,2.1-5.5,2.2-5.6L77.8,17.6z"/>
		<polygon class="st5" points="83,9.7 87,9.7 85.2,20.8 88.5,9.7 90,9.7 86.1,22.8 83.4,22.8 85.2,11.6 81.9,22.7 80.3,22.7 
			83.8,11.2 		"/>
		<path class="st5" d="M94.7,9.7h-3.8l0.8,1.5l-3.4,11.6c0,0,0.4,0,2.7,0c2.2,0,3-2.3,3-2.3s1.4-4.7,2.3-7.9
			C97.2,9.3,94.7,9.7,94.7,9.7z M94.5,11.9c0,0-2.2,7.7-2.5,8.5c-0.3,0.9-0.8,0.7-0.8,0.7l-0.4,0l2.9-10
			C94.8,11.1,94.5,11.9,94.5,11.9z"/>
	</g>
	<g>
		<g>
			<path class="st7" d="M56.7,26.7l-1.1-0.1c0,0-11,8.7-14,11.1c-3,2.4-8.5,8.6-8.3,18.6c0.2,10,6.4,16.7,9.4,18.4
				c1.1-1.2,2.1-2.2,2.1-2.2s-8.3-5.6-8.3-16c-0.1-6.8,1.8-11.4,6.4-15.8C47.4,36.3,56.7,26.7,56.7,26.7z"/>
			<path class="st7" d="M61.7,26.8L43.8,41.7c0,0-6.3,5-6.1,14.6c0.3,7.7,4.7,12.8,8,15.3c1.4-1.4,2.1-2.1,2.1-2.1S40.3,64,40.4,56
				c0.1-8,4.7-11.6,7.6-14.5c2.9-2.9,14.7-14.6,14.7-14.6H61.7z"/>
			<path class="st7" d="M67.5,26.9L49.4,42.4c0,0-7.2,5-7.2,12.7c-0.1,7.6,3.9,11.7,6.8,13.1c1.7-1.6,1.7-1.6,1.7-1.6
				s-6.2-4.2-5.8-11.4c0.2-4.1,2.6-7.2,5.4-9.9c2.8-2.8,18.4-18.4,18.4-18.4L67.5,26.9z"/>
			<path class="st7" d="M73.4,26.9L50.9,46.8c-0.4,0.4-5,4.1-4.6,9.9c0,0,0,5.2,5.6,8.6c1.3-1.4,2.1-2.1,2.1-2.1s-4.8-2.6-4.8-7.1
				c0-4.6,3.2-6.7,7-10.5C59.9,41.9,74.7,27,74.7,27L73.4,26.9z"/>
			<path class="st7" d="M79.5,26.9L53.1,50.6c0,0-2.9,2-2.5,6.1c0.3,4.1,4.5,5.4,4.5,5.4l2-1.9c0,0-3.6-1.3-3.6-4
				c0-2.3,1.2-3.2,4.4-6.4c3.2-3.2,23.2-23,23.2-23L79.5,26.9z"/>
		</g>
	</g>
	<g>
		<g>
			<path class="st9" d="M58.1,85.2l1.1,0.1c0,0,11-8.7,14-11.1c3-2.4,8.5-8.6,8.3-18.6c-0.2-10-6.4-16.7-9.4-18.4
				c-1.1,1.2-2.1,2.2-2.1,2.2s8.3,5.6,8.3,16c0.1,6.8-1.8,11.4-6.4,15.8C67.4,75.7,58.1,85.2,58.1,85.2z"/>
			<path class="st9" d="M53.2,85.1l17.9-14.9c0,0,6.3-5,6.1-14.6c-0.3-7.7-4.7-12.8-8-15.3c-1.4,1.4-2.1,2.1-2.1,2.1
				s7.4,5.4,7.3,13.4c-0.1,8-4.7,11.6-7.6,14.5c-2.9,2.9-14.7,14.6-14.7,14.6H53.2z"/>
			<path class="st9" d="M47.3,85l18.2-15.5c0,0,7.2-5,7.2-12.7c0.1-7.6-3.9-11.7-6.8-13.1c-1.7,1.6-1.7,1.6-1.7,1.6
				s6.2,4.2,5.8,11.4c-0.2,4.1-2.6,7.2-5.4,9.9c-2.8,2.8-18.4,18.4-18.4,18.4L47.3,85z"/>
			<path class="st9" d="M41.4,85L64,65.2c0.4-0.4,5-4.1,4.6-9.9c0,0,0-5.2-5.6-8.6C61.7,48,61,48.7,61,48.7s4.8,2.6,4.8,7.1
				c0,4.6-3.2,6.7-7,10.5C55,70,40.1,85,40.1,85L41.4,85z"/>
			<path class="st9" d="M35.4,85l26.3-23.7c0,0,2.9-2,2.5-6.1c-0.3-4.1-4.5-5.4-4.5-5.4l-2,1.9c0,0,3.6,1.3,3.6,4
				c0,2.3-1.2,3.2-4.4,6.4c-3.2,3.2-23.2,23-23.2,23L35.4,85z"/>
		</g>
	</g>
	<g>
		<path class="st9" d="M40,89.2l-3.7,0l0.6,1l-3.3,12.1h1.7l1.7-6.4c1.2,0,0.8,0.9,0.8,0.9l-1.5,5.5l1.7,0c0,0,1.1-3.8,1.2-4.7
			c0.2-0.9,0.6-1.7-0.1-2.2c0.7,0,1-0.9,1-0.9s0.2-1.1,0.9-3.2C41.7,89.1,40,89.2,40,89.2z M39.5,91c0,0-0.5,2-0.8,3
			c-0.3,0.8-1.3,0.7-1.3,0.7s1.2-4.5,1.3-4.5C39.9,90.1,39.5,91,39.5,91z"/>
		<path class="st9" d="M60.9,104.5l-3.7,0l0.6,1l-3.3,12.1h1.7l1.7-6.4c1.1,0,0.8,0.9,0.8,0.9l-1.5,5.5l1.7,0c0,0,1.1-3.8,1.2-4.7
			c0.2-0.9,0.6-1.7-0.1-2.2c0.7,0,1-0.9,1-0.9s0.2-1.1,0.9-3.2C62.6,104.4,60.9,104.5,60.9,104.5z M60.4,106.3c0,0-0.5,2-0.8,3
			c-0.3,0.9-1.3,0.7-1.3,0.7s1.2-4.5,1.3-4.5C60.8,105.4,60.4,106.3,60.4,106.3z"/>
		<polygon class="st9" points="28.1,89.1 33,89.1 32.4,90.3 31.2,90.3 28,102.3 26.3,102.3 29.5,90.3 28.8,90.3 		"/>
		<path class="st9" d="M62,89.2l2.6-0.1l-3.2,12c0,0,1.7,0.1,1.7,0.1c-0.1,0.2-0.3,1.1-0.3,1.1h-3.4l3.2-12
			C62.6,90.3,61.9,89.2,62,89.2z"/>
		<path class="st9" d="M26,104.5l2.6,0l-3.2,11.9c0,0,1.7,0.1,1.7,0.1c-0.1,0.2-0.3,1.1-0.3,1.1h-3.4l3.2-12
			C26.6,105.6,26,104.5,26,104.5z"/>
		<path class="st9" d="M46.2,89.2l0.5,1l-4.5,12.2h1.5L45,99l1.3,0c0,0-0.7,3.3-0.8,3.3c0.1,0,1.8,0,1.8,0l2.4-13.2
			C49.7,89.2,46.2,89.2,46.2,89.2z M46.5,97.8h-1c0,0,2.2-6.2,2.3-6.3L46.5,97.8z"/>
		<path class="st9" d="M34.3,104.5l0.5,1l-4.5,12.2h1.5l1.2-3.3l1.3,0c0,0-0.7,3.3-0.8,3.3c0.1,0,1.8,0,1.8,0l2.4-13.2
			C37.8,104.5,34.4,104.5,34.3,104.5z M34.6,113.1h-1c0,0,2.2-6.2,2.3-6.3L34.6,113.1z"/>
		<polygon class="st9" points="54.8,89.2 57.2,89.2 53.8,102.3 52.1,102.3 55.3,90.3 		"/>
		<path class="st9" d="M20.2,104.5h-3.1l0.5,1.1l-3.2,12c0,0,0.8,0,2.6,0.1c1.7,0,2.2-1.2,2.2-1.2s0.7-2.9,1.1-3.9
			c0.4-1,0.3-1.4-0.3-1.9c0.5-0.1,1-0.9,1-0.9s0.6-1.9,1-3.7C22.4,104.3,20.2,104.5,20.2,104.5z M18.7,111.7c0,0-0.9,3.9-1.1,4.4
			c-0.2,0.5-0.5,0.5-0.5,0.5l-0.8,0l1.5-5.4c0,0,0,0,0,0l0,0c0,0,0.3-0.1,0.6,0C18.7,111.3,18.7,111.7,18.7,111.7z M20.2,106.1
			c0,0-0.5,2.1-0.8,3.1c-0.3,1-1.3,0.8-1.3,0.8l1.3-4.5l0.6,0C20.4,105.6,20.2,106.1,20.2,106.1z"/>
		<polygon class="st9" points="41.7,104.4 46.3,104.4 40.7,116.4 43.2,116.5 42.8,117.6 38.4,117.6 44,105.6 42.3,105.6 		"/>
		<polygon class="st9" points="49.7,104.5 54.1,104.5 53.8,105.6 51.9,105.6 50.8,110 52.5,110 52.1,111.2 50.4,111.2 49,116.4 
			50.9,116.4 50.6,117.6 47,117.6 50.2,105.5 		"/>
		<path class="st9" d="M65.7,104.5h3.3c0,0,1.8-0.1,1.4,1.7c-0.5,1.9-0.6,2.2-0.6,2.2H68l0.7-2.5c0,0,0.2-0.6-0.5-0.6
			c-0.6,0-0.6,0.5-0.7,0.7c0,0.2-0.4,1.5-0.4,1.5s-0.2,0.7,0.4,2c0.6,1.4,0.7,2,0.7,2s0.3,1,0.1,1.9c-0.2,0.9-0.7,2.7-0.7,2.7
			s-0.5,1.5-2.2,1.7c-1.7,0.1-2.5-0.3-2.2-1.9c0.4-1.6,0.8-2.9,0.8-2.9h1.7l-0.9,3c0,0-0.3,0.8,0.4,0.8c0.6,0,0.8-0.8,0.8-0.8
			l0.7-2.7c0,0,0.2-0.7-0.4-1.9c-0.5-1-0.7-1.7-0.7-1.7s-0.6-1.5,0.4-4.2C65.9,104.8,65.7,104.5,65.7,104.5z"/>
	</g>
	<g>
		<linearGradient id="SVGID_1_" gradientUnits="userSpaceOnUse" x1="38.063" y1="88.8151" x2="38.063" y2="105.3758">
			<stop  offset="0" style="stop-color:#FFFFFF"/>
			<stop  offset="1" style="stop-color:#8C8C8C"/>
		</linearGradient>
		<path class="st10" d="M40.6,89.2l-3.7,0l0.6,1l-3.3,12.1H36l1.7-6.4c1.1,0,0.8,0.9,0.8,0.9l-1.5,5.5l1.7,0c0,0,1.1-3.8,1.2-4.7
			c0.2-0.9,0.6-1.7-0.1-2.2c0.7,0,1-0.9,1-0.9s0.2-1.1,0.9-3.2C42.3,89.1,40.6,89.2,40.6,89.2z M40.1,91c0,0-0.5,2-0.9,3
			C39,94.9,38,94.7,38,94.7s1.2-4.5,1.3-4.5C40.5,90.1,40.1,91,40.1,91z"/>
		<linearGradient id="SVGID_2_" gradientUnits="userSpaceOnUse" x1="30.2929" y1="88.8146" x2="30.2929" y2="105.3757">
			<stop  offset="0" style="stop-color:#FFFFFF"/>
			<stop  offset="1" style="stop-color:#8C8C8C"/>
		</linearGradient>
		<polygon class="st11" points="28.7,89.1 33.6,89.1 33,90.3 31.8,90.3 28.7,102.3 26.9,102.3 30.1,90.3 29.4,90.3 		"/>
		<linearGradient id="SVGID_3_" gradientUnits="userSpaceOnUse" x1="62.5624" y1="88.8157" x2="62.5624" y2="105.3756">
			<stop  offset="0" style="stop-color:#FFFFFF"/>
			<stop  offset="1" style="stop-color:#8C8C8C"/>
		</linearGradient>
		<path class="st12" d="M62.6,89.2l2.6-0.1l-3.2,12c0,0,1.7,0.1,1.7,0.1c-0.1,0.2-0.3,1.1-0.3,1.1h-3.4l3.2-12
			C63.2,90.3,62.6,89.2,62.6,89.2z"/>
		<linearGradient id="SVGID_4_" gradientUnits="userSpaceOnUse" x1="46.5903" y1="88.8156" x2="46.5903" y2="105.3759">
			<stop  offset="0" style="stop-color:#FFFFFF"/>
			<stop  offset="1" style="stop-color:#8C8C8C"/>
		</linearGradient>
		<path class="st13" d="M46.8,89.2l0.5,1l-4.5,12.2h1.5l1.2-3.3l1.3,0c0,0-0.7,3.3-0.8,3.3c0.1,0,1.8,0,1.8,0l2.4-13.2
			C50.3,89.2,46.9,89.2,46.8,89.2z M47.1,97.8h-1c0,0,2.2-6.2,2.3-6.3L47.1,97.8z"/>
		<linearGradient id="SVGID_5_" gradientUnits="userSpaceOnUse" x1="55.2431" y1="88.8159" x2="55.2431" y2="105.3757">
			<stop  offset="0" style="stop-color:#FFFFFF"/>
			<stop  offset="1" style="stop-color:#8C8C8C"/>
		</linearGradient>
		<polygon class="st14" points="55.4,89.2 57.8,89.2 54.4,102.3 52.7,102.3 55.9,90.3 		"/>
	</g>
	<g>
		<linearGradient id="SVGID_6_" gradientUnits="userSpaceOnUse" x1="58.974" y1="104.2719" x2="58.974" y2="123.2377">
			<stop  offset="0" style="stop-color:#FFFFFF"/>
			<stop  offset="1" style="stop-color:#8C8C8C"/>
		</linearGradient>
		<path class="st15" d="M61.5,104.5l-3.7,0l0.6,1l-3.3,12.1h1.7l1.7-6.4c1.1,0,0.8,0.9,0.8,0.9l-1.5,5.5l1.7,0c0,0,1.1-3.8,1.2-4.7
			c0.2-0.9,0.6-1.7-0.1-2.2c0.7,0,1-0.9,1-0.9s0.2-1.1,0.9-3.2C63.2,104.4,61.5,104.5,61.5,104.5z M61,106.3c0,0-0.5,2-0.9,3
			c-0.3,0.9-1.3,0.7-1.3,0.7s1.2-4.5,1.3-4.5C61.4,105.4,61,106.3,61,106.3z"/>
		<linearGradient id="SVGID_7_" gradientUnits="userSpaceOnUse" x1="26.5889" y1="104.2724" x2="26.5889" y2="123.2361">
			<stop  offset="0" style="stop-color:#FFFFFF"/>
			<stop  offset="1" style="stop-color:#8C8C8C"/>
		</linearGradient>
		<path class="st16" d="M26.6,104.5l2.6,0L26,116.4c0,0,1.7,0.1,1.7,0.1c-0.1,0.2-0.3,1.1-0.3,1.1H24l3.2-12
			C27.2,105.6,26.6,104.5,26.6,104.5z"/>
		<linearGradient id="SVGID_8_" gradientUnits="userSpaceOnUse" x1="34.7177" y1="104.2718" x2="34.7177" y2="123.2373">
			<stop  offset="0" style="stop-color:#FFFFFF"/>
			<stop  offset="1" style="stop-color:#8C8C8C"/>
		</linearGradient>
		<path class="st17" d="M34.9,104.5l0.5,1L31,117.6h1.5l1.2-3.3l1.3,0c0,0-0.7,3.3-0.8,3.3c0.1,0,1.8,0,1.8,0l2.4-13.2
			C38.4,104.5,35,104.5,34.9,104.5z M35.2,113.1h-1c0,0,2.2-6.2,2.3-6.3L35.2,113.1z"/>
		<linearGradient id="SVGID_9_" gradientUnits="userSpaceOnUse" x1="18.8573" y1="104.2718" x2="18.8573" y2="123.237">
			<stop  offset="0" style="stop-color:#FFFFFF"/>
			<stop  offset="1" style="stop-color:#8C8C8C"/>
		</linearGradient>
		<path class="st18" d="M20.8,104.5h-3.1l0.5,1.1l-3.2,12c0,0,0.8,0,2.6,0.1s2.2-1.2,2.2-1.2s0.7-2.9,1.1-3.9c0.4-1,0.2-1.4-0.3-1.9
			c0.5-0.1,1-0.9,1-0.9s0.6-1.9,1-3.7C23,104.3,20.8,104.5,20.8,104.5z M19.3,111.7c0,0-0.9,3.9-1.1,4.4c-0.2,0.5-0.5,0.5-0.5,0.5
			l-0.8,0l1.5-5.4c0,0,0,0,0,0l0,0c0,0,0.3-0.1,0.6,0C19.3,111.3,19.3,111.7,19.3,111.7z M20.8,106.1c0,0-0.5,2.1-0.8,3.1
			c-0.3,1-1.3,0.8-1.3,0.8l1.3-4.5l0.6,0C21,105.6,20.8,106.1,20.8,106.1z"/>
		<linearGradient id="SVGID_10_" gradientUnits="userSpaceOnUse" x1="43.0205" y1="104.273" x2="43.0205" y2="123.2347">
			<stop  offset="0" style="stop-color:#FFFFFF"/>
			<stop  offset="1" style="stop-color:#8C8C8C"/>
		</linearGradient>
		<polygon class="st19" points="42.3,104.4 47,104.4 41.4,116.4 43.8,116.5 43.5,117.6 39.1,117.6 44.6,105.6 42.9,105.6 		"/>
		<linearGradient id="SVGID_11_" gradientUnits="userSpaceOnUse" x1="51.143" y1="104.2725" x2="51.143" y2="123.2352">
			<stop  offset="0" style="stop-color:#FFFFFF"/>
			<stop  offset="1" style="stop-color:#8C8C8C"/>
		</linearGradient>
		<polygon class="st20" points="50.3,104.5 54.7,104.5 54.4,105.6 52.5,105.6 51.4,110 53.1,110 52.8,111.2 51,111.2 49.6,116.4 
			51.5,116.4 51.2,117.6 47.6,117.6 50.9,105.5 		"/>
		<linearGradient id="SVGID_12_" gradientUnits="userSpaceOnUse" x1="67.4649" y1="104.2725" x2="67.4649" y2="123.2377">
			<stop  offset="0" style="stop-color:#FFFFFF"/>
			<stop  offset="1" style="stop-color:#8C8C8C"/>
		</linearGradient>
		<path class="st21" d="M66.3,104.5h3.3c0,0,1.8-0.1,1.4,1.7c-0.5,1.9-0.6,2.2-0.6,2.2h-1.7l0.7-2.5c0,0,0.2-0.6-0.5-0.6
			c-0.6,0-0.6,0.5-0.7,0.7c0,0.2-0.4,1.5-0.4,1.5s-0.2,0.7,0.4,2c0.6,1.4,0.7,2,0.7,2s0.3,1,0.1,1.9c-0.2,0.9-0.7,2.7-0.7,2.7
			s-0.5,1.5-2.2,1.7c-1.7,0.1-2.5-0.3-2.2-1.9c0.4-1.6,0.8-2.9,0.8-2.9h1.7l-0.9,3c0,0-0.3,0.8,0.4,0.8c0.6,0,0.8-0.8,0.8-0.8
			l0.7-2.7c0,0,0.2-0.7-0.4-1.9c-0.5-1-0.7-1.7-0.7-1.7s-0.6-1.5,0.4-4.2C66.5,104.8,66.3,104.5,66.3,104.5z"/>
	</g>
</g>
</svg>
