<?xml version="1.0" encoding="utf-8"?>
<!-- Generator: Adobe Illustrator 23.0.1, SVG Export Plug-In . SVG Version: 6.00 Build 0)  -->
<svg version="1.1" id="Capa_1" xmlns="http://www.w3.org/2000/svg" xmlns:xlink="http://www.w3.org/1999/xlink" x="0px" y="0px"
	 viewBox="0 0 109.1 121.9" style="enable-background:new 0 0 109.1 121.9;" xml:space="preserve">
<style type="text/css">
	.st0{fill:#175384;}
	.st1{fill:#A0A5AA;}
	.st2{fill:#0B040C;}
	.st3{fill:#FFC727;}
	.st4{fill:#F0545B;}
	.st5{fill:#FFFFFF;}
	.st6{fill:#00A855;}
	.st7{fill:#B4C4C9;}
	.st8{fill:#221A21;}
	.st9{fill:#EF3A47;}
	.st10{fill:url(#SVGID_1_);}
	.st11{fill:url(#SVGID_2_);}
	.st12{fill:url(#SVGID_3_);}
	.st13{fill:url(#SVGID_4_);}
	.st14{fill:url(#SVGID_5_);}
	.st15{fill:url(#SVGID_6_);}
	.st16{fill:url(#SVGID_7_);}
	.st17{fill:url(#SVGID_8_);}
	.st18{fill:url(#SVGID_9_);}
	.st19{fill:url(#SVGID_10_);}
	.st20{fill:url(#SVGID_11_);}
	.st21{fill:url(#SVGID_12_);}
	.st22{fill:#313564;}
	.st23{fill:#F04B41;stroke:#FFFFFF;stroke-width:2.1543;stroke-linecap:round;stroke-linejoin:round;stroke-miterlimit:10;}
	.st24{fill:#007FBA;stroke:#FFFFFF;stroke-width:2.1543;stroke-linecap:round;stroke-linejoin:round;stroke-miterlimit:10;}
	.st25{fill:#313564;stroke:#FFFFFF;stroke-width:2.1543;stroke-linecap:round;stroke-linejoin:round;stroke-miterlimit:10;}
	.st26{fill:#FFFFFF;stroke:#FFFFFF;stroke-width:2.1543;stroke-linecap:round;stroke-linejoin:round;stroke-miterlimit:10;}
	.st27{clip-path:url(#SVGID_14_);}
	.st28{fill:#FBAC36;stroke:#FFFFFF;stroke-width:2.1543;stroke-linecap:round;stroke-linejoin:round;stroke-miterlimit:10;}
	.st29{fill:#F04B41;}
	.st30{fill:#007FBA;}
	.st31{clip-path:url(#SVGID_16_);}
	.st32{fill:#FBAC36;}
	.st33{fill:#2C2F61;}
	.st34{fill:#B7B9BA;}
	.st35{fill:#EF3748;}
	.st36{fill:#8999AC;}
	.st37{fill:#2B2F61;}
	.st38{fill:#EE2C45;}
	.st39{fill:#101624;}
	.st40{fill:#59707A;}
	.st41{fill:#4A3285;}
	.st42{fill:#F79230;}
	.st43{fill:#F15733;}
	.st44{fill:#D7303F;}
	.st45{fill:#FAA832;}
	.st46{fill:#1F1721;}
	.st47{fill:#5F3188;}
	.st48{fill:#EE243D;}
	.st49{fill:#1F4BA0;}
	.st50{fill:#244789;}
	.st51{fill:#FBAE2E;}
	.st52{fill:#006991;}
	.st53{fill:#F9A01B;stroke:#FFFFFF;stroke-width:0.4473;stroke-miterlimit:10;}
	.st54{fill:#FAA533;}
	.st55{fill:#0092BC;}
	.st56{fill:#15182C;}
	.st57{fill:#3E419A;}
	.st58{fill:#101721;}
	.st59{fill:#ADA3A5;}
	.st60{fill:#9CA7AC;}
	.st61{clip-path:url(#SVGID_18_);}
	.st62{clip-path:url(#SVGID_20_);}
	.st63{fill:#F3FAF7;}
	.st64{fill:#2D2F63;}
	.st65{fill:#FAA819;}
	.st66{fill:#FEF6FA;}
	.st67{fill:#004F30;}
	.st68{fill:#A2C7D3;}
	.st69{fill:#EE2E55;}
	.st70{fill:#32366E;}
	.st71{fill:#00ADDC;}
	.st72{fill:#FFFFFF;stroke:#00ACD0;stroke-width:0.2915;stroke-miterlimit:10;}
	.st73{fill:#FFFFFF;stroke:#00ACD0;stroke-width:0.2973;stroke-miterlimit:10;}
	.st74{fill:#450000;}
	.st75{fill:#EE224A;}
	.st76{fill:#0064A5;}
	.st77{fill:#F47736;}
	.st78{fill:#B5BCBF;}
	.st79{fill:#F47B35;}
	.st80{fill:#EE2B52;}
	.st81{fill:#0C060E;}
	.st82{fill:#B58D49;}
	.st83{fill:#C9BBCB;}
	.st84{fill:#BA924C;}
	.st85{fill:#006BAF;}
	.st86{fill:#B3C5CB;}
	.st87{fill:#898C89;}
	.st88{fill:#2E2C61;}
	.st89{fill:#C3C5BD;}
	.st90{fill:#C4D2D9;}
	.st91{fill:#EE284D;}
	.st92{fill:#161212;}
	.st93{fill:#EE274E;}
	.st94{fill:#A2A7AA;}
	.st95{fill:#A6AAAC;}
	.st96{fill:#A1A2AB;}
	.st97{fill:#110B13;}
	.st98{fill:#AFC1C6;}
	.st99{fill:#0067AD;}
	.st100{fill:#FBFBFB;}
	.st101{fill:#0065AF;}
	.st102{fill:#121A26;}
	.st103{fill:#008D4C;}
	.st104{fill:#B43A3D;}
	.st105{fill:#111623;}
	.st106{fill:#AB9048;}
	.st107{fill:#F8A174;}
	.st108{fill:#120B19;}
	.st109{fill:#C59751;}
	.st110{fill:#B33638;}
	.st111{fill:#009154;}
	.st112{fill:#1C2026;}
	.st113{fill:#EE2844;}
	.st114{fill:#30385F;}
	.st115{fill:#3A84B1;}
	.st116{fill:#A3C5D7;}
	.st117{fill:#F9A039;}
	.st118{fill:#B0BEC0;}
	.st119{fill:#231D46;}
	.st120{fill:#FDB840;}
	.st121{fill:#CD2C32;}
	.st122{fill:#272049;}
	.st123{fill:#FEC027;}
	.st124{fill:#ADC7C6;}
	.st125{fill:#014429;}
	.st126{fill:#DF2539;}
	.st127{fill:#F57E30;}
	.st128{fill:#ED1942;}
	.st129{fill:#FEF9FB;}
	.st130{fill:#0065AA;}
	.st131{fill:#A6B5B8;}
	.st132{fill:#0B040C;stroke:#0B040C;stroke-width:0.2716;stroke-miterlimit:10;}
	.st133{fill:#F7F9FD;}
	.st134{fill:none;stroke:#EBF2CC;stroke-width:0.2972;stroke-miterlimit:10;}
	.st135{fill:#48484A;}
	.st136{opacity:0.2;}
	.st137{fill:#EE2E3B;}
	.st138{fill:#005BA6;}
	.st139{fill:#737577;}
	.st140{fill:#A1A0A5;}
	.st141{fill:#272360;}
	.st142{fill:#FAFAFB;}
	.st143{fill:#058BA6;}
	.st144{fill:#DEDBE7;}
	.st145{fill:#B2965B;}
	.st146{fill:#1B305B;}
	.st147{fill:#F9F9FA;}
	.st148{fill:#E12039;}
	.st149{fill:#FEF4F4;}
</style>
<g>
	<path class="st56" d="M19.2,44.2H9.1c0,0-0.9,18.1,0.7,32.4c1.6,14.4,6.6,22.8,9.1,26.1c1.7-2.3,9.3-10,9.3-10l3.8,3.4l-16,17.4
		c0,0-1.9,2.7,0.2,4.7c2.1,1.9,3.9,0,5.1-1.1c1.3-1.1,15-16.8,15-16.8l8.4,7.4c0,0-0.6-5.9,0.6-8.1c2.1,3,6,5.5,10.6,5.5
		c4.6,0,9.3-3.4,10.9-6.3c0.4,1.8,1,7.1,0.2,8.5l8.4-7l16.2,18.4c0,0,2.1,1.5,4.4-0.2c2.2-1.7,0.1-4.5,0.1-4.5L80,96.4l3.7-3.6
		c0,0,7.4,7.3,9.3,10.4c3.3-4.7,8.7-15.4,9.6-33.4c0.9-18-0.1-25.5-0.1-25.5h-9.8c0,0,0.5-1.1,1.2-1.8c0.7-0.7,2.9-2.9-1-6.4
		c3.4-4.9,9.8-14.3,10-14.7c0.2-0.4,0.9-3.2-1.7-1.2c-2.6,2-13.4,12.2-13.4,12.2s-3.7-1.2-6.8-0.1c1.9-4.3,4.6-10.9,4.6-10.9
		l-11.5,5.7l1.5-20.5l-13.5,17l-6-21l-6.2,20.6L36.5,7.1L38,27.4l-11.2-6l4.4,10.7c0,0-3.8-0.7-6.6,0.6C21,29.7,10.3,19.5,10.3,19.5
		s-2.6-1.3-1.5,1.4c1.2,2.6,10.4,15.3,10.4,15.3s-3.1,4.1-1.7,5.4C18.8,43,19.6,43.8,19.2,44.2z"/>
	<path class="st57" d="M11.6,46.4c0.2,0.1,11.5,0,11.5,0l12.2-3l22.6-4.6l29.7,7.5h13.2c0,0,0,19.8-0.7,27.3
		c-0.7,7.5-3.3,18.6-7.2,25.6c-3.6-4.2-7.9-8.4-7.9-8.4l2.3-1.4c0,0-2.4,0.3-5.1-1.2C79.7,86.9,67.3,80.1,56,80
		c-11.3-0.1-15.3,3.6-18.4,4.8c-3.1,1.2-8.4,3.8-12.4,4.4C27,91,27,91,27,91s-6.1,4.8-8.4,8.2c-2.3-3.5-7.1-14.3-7.4-31.3
		C10.9,50.9,11.6,46.4,11.6,46.4z"/>
	<polygon class="st56" points="23.1,46.4 27.4,50.4 34.5,50.4 34.5,47.3 25.1,46 	"/>
	<path class="st56" d="M77,48.5l0.2,1.8l8.4-0.4l3.9-3.8l-0.2-0.8l-8.2-1.3C81.1,44.1,77.1,47,77,48.5z"/>
	<polygon class="st58" points="37.4,47.2 37.4,50.6 74.5,50.6 74.5,47.4 74.4,45.3 56.6,41.6 39.7,45 	"/>
	<polygon class="st59" points="25.2,40.5 13.5,25.4 26.3,37 25.3,37.9 26.5,40.2 	"/>
	<path class="st57" d="M20.4,37c0,0-3.3,2.7-1,3.8c2.8-0.3,3.6-0.3,3.6-0.3L20.4,37z"/>
	<path class="st57" d="M25.6,34c0,0,1.8,2.3,1.9,2.4c0.2,0.1,2.8-1.3,2.2-2.6C29,32.7,26.4,33.8,25.6,34z"/>
	<path class="st57" d="M30.9,33.8c0.1,0.2,0.1,2.8-3.5,4.8c0.5,1.1,0.5,1.1,0.5,1.1s4.2-0.8,5.7-1.8C32,35.3,30.9,33.8,30.9,33.8z"
		/>
	<path class="st59" d="M35.8,36.8l-3.9-9.6l8.8,4.4l-0.9-16.4L51,28.6L56.2,12L61,28.8l11.2-13.5l-1.1,16.5l9.2-4.6l-4.1,9.7
		c0,0-8.2-3.8-20.2-3.8C43.9,33.2,35.8,36.8,35.8,36.8z"/>
	<path class="st59" d="M85.8,37.3l12.6-11.7L87.2,40.4l-1.7-0.3l1.5-2.2C87,37.9,86.2,37.7,85.8,37.3z"/>
	<path class="st57" d="M84.6,36.8L87,34c0,0-3.3-1.4-5.1-0.4C82.2,34.8,82.6,36.5,84.6,36.8z"/>
	<path class="st57" d="M81,34.4c0,0,0.7,2.8,3.6,4c0.3,0.4-0.2,1.6-0.7,1.5c-0.5-0.1-5-1.6-5.6-2.1C79.3,36.2,81,34.4,81,34.4z"/>
	<path class="st57" d="M89.1,40.6l2.7-3.3c0,0,2.1,1.8,1.8,2.6C93.2,40.7,91,41,89.1,40.6z"/>
	<path class="st57" d="M92.4,42.1c-0.2,0-6.2,0.7-11.8-1.8c-5.6-2.5-14.8-6.8-27-6.1C41.4,34.8,37,37.4,33.4,39
		c-3.6,1.6-9.2,3.5-13.2,3.1c3.4,3.2,7.5,7.2,7.5,7.2s3.6,0.3,9.3-2.2c5.7-2.5,10.7-4.2,18.9-4.2c8.2,0,15,2.6,18.7,4.2
		c3.7,1.7,7.4,2.4,10,2.5C87.3,46.9,92.4,42.1,92.4,42.1z"/>
	<path class="st60" d="M39.9,47.5c0,0,6.5-3.7,15.4-3.7c8.9,0,16.7,3.3,16.7,3.3V49l-32.2-0.1V47.5z"/>
	<path class="st58" d="M43.5,47.5c0,0,1.2-1.1,1.7-1.2c0.5-0.1,21.8,0,21.8,0s1.4,0.5,1.6,1.2H43.5z"/>
	<g>
		<g>
			<path class="st56" d="M31.1,66.3l3.7-2.6V49h-8.2v11.8l-3.6,2.7V49h-8.1l-0.3,0.8c-0.3,0.8-0.5,5.4-0.3,15.5
				c0.2,13.6,4.2,26.4,4.3,27l0.6,1.8l1.4-1.4c0,0,2.4-2.4,5.2-4.5l0.6-0.5L26.3,87c-1.5-5.5-2-12.3-2.2-15.7l3.6,2.2
				c0.2,1.9,1,8.3,1.2,10.8l0.1,2.2l1.7-1.4c1.7-1.3,5.5-3,5.6-3.1l0.8-0.3l-1.6-13.1L31.1,66.3z"/>
			<path class="st56" d="M43.7,53.4l0-1.1h-6.3l-0.1,1.1c-0.8,8.3,1.4,25.6,1.5,26.3l0.2,1.3l1.3-0.3c0,0,1.5-0.4,4-1.1l1-0.3
				L45,78.2C44.2,73.4,43.7,53.6,43.7,53.4z"/>
			<path class="st56" d="M60.2,52.7l-1-0.1c-0.5,0-1,0-1.6,0c-1,0-1.9,0-1.9,0l-1,0.1l-0.2,3.9L51.8,55l-0.2-2.5h-5.7v1.2
				c0,0.8,0,18.5,1,24.3L47,79l1.1-0.1c2.1-0.2,2.8-0.2,2.8-0.2h1.2L52,63.1l2.7,1.9l-0.3,13.6h5.3l0.1-1.1c0-0.8,1.1-19.8,0.6-23.8
				L60.2,52.7z"/>
			<path class="st56" d="M75.2,64.6h-6.5l-0.2,4.7h0.8c-0.1,1.3-0.4,3.1-0.5,4.4c-0.3-0.1-0.8-0.1-1.4-0.2
				c0.5-4.3,0.8-12.5,0.9-15.5l1.9,0V60l4.8,2.7V52.5H62.7l-0.1,1.1c0,0.4-0.1,1.4-0.1,2.9c-0.3,6-0.9,18.4-1.1,21.2l-0.1,1l1,0.2
				c0.4,0.1,0.9,0.2,1.6,0.3c2.2,0.4,5.5,1,8,1.5l1.2,0.3l0.2-1.2c0.8-3.8,1.7-13.5,1.8-13.9L75.2,64.6z"/>
			<path class="st56" d="M97.6,65.5l0.1-16.7L77,49L76.9,50c-0.7,8.9,1.3,12,2.3,13.6c0.6,0.9,2,2.3,3.6,4c1.6,1.6,3.4,3.5,4.6,5
				c1.3,1.6,0.6,4.5-0.2,6.3l-3.3-2.2l0.3-3.4l-7.8-5.9l-0.2,2.1c0,0.1-0.6,8.1-1.2,11.3l-0.2,0.9l0.8,0.4
				c6.8,3.1,15.4,10.3,15.5,10.4l1,0.8l0.7-1.1c0.1-0.2,1.2-1.9,2-6.5c3.2-9.9,1.5-14.1-0.4-16.6c-1.1-1.4-3.7-4.5-5.9-7
				c-1.3-1.5-2.4-2.8-2.8-3.3c-0.4-0.5-0.4-1.9-0.4-3.2h3.5v3.6L97.6,65.5z"/>
		</g>
	</g>
	<g>
		<path class="st5" d="M15.8,50.1h6.1v15.6l5.9-4.5V50.1h5.8v13l-4.8,3.3l5.4,2.9L35.8,81c0,0-4,1.7-5.8,3.2
			c-0.2-3-1.3-11.5-1.3-11.5l-5.9-3.6c0,0,0.2,10.3,2.3,18.2c-2.9,2.1-5.3,4.6-5.3,4.6s-4.1-13-4.3-26.6
			C15.3,51.7,15.8,50.1,15.8,50.1z"/>
		<path class="st5" d="M38.4,53.4h4.1c0,0,0.5,20,1.4,25c-2.5,0.7-4,1.1-4,1.1S37.7,61.7,38.4,53.4z"/>
		<path class="st5" d="M47,53.6c0,0,0,18.4,1,24.1c2.2-0.2,2.9-0.2,2.9-0.2l-0.1-16.6l5.1,3.5l-0.3,13h3c0,0,1.1-19.6,0.6-23.6
			c-1.6-0.1-3.4,0-3.4,0l-0.3,4.9l-4.8-3l-0.2-2H47z"/>
		<path class="st5" d="M63.8,53.6h9.9v7.1l-2.4-1.4v-2.6l-4.2,0.1c0,0-0.4,13.1-1.1,17.6c3,0.6,3.7,0.6,3.7,0.6s0.8-5.3,0.8-6.9
			c-0.8,0-0.8,0-0.8,0l0.1-2.3h4.1c0,0-1,10-1.7,13.8c-3.2-0.8-8.1-1.6-9.6-1.8C62.8,74.2,63.7,55.5,63.8,53.6z"/>
		<path class="st5" d="M78.1,50.1l18.5-0.2l-0.1,13.3l-6.2-4.4v-4.2h-5.7c0,0-0.6,3.7,0.5,5.1c1.1,1.4,7,8.1,8.6,10.3
			c1.7,2.2,3.3,6,0.2,15.6C93,90.3,92,91.8,92,91.8s-8.7-7.4-15.7-10.6c0.6-3.3,1.2-11.5,1.2-11.5l5.5,4.2l-0.3,3.5l5.1,3.3
			c0,0,3-5.6,0.6-8.7c-2.4-3.1-7-7.3-8.1-8.9C79.1,61.4,77.4,58.6,78.1,50.1z"/>
	</g>
	<path class="st1" d="M28.5,90.1c0,0,5.1-0.4,8.8-3c3.8-2.6,9.3-5.2,12-5.2c-0.3,0.7-0.3,0.7-0.3,0.7s-6.8,4.1-5.7,10.6
		c0.5,3.7-0.1,5.3-0.3,6.5c-0.2,1.2-0.1,3.6-0.1,3.6L28.5,90.1z"/>
	<path class="st1" d="M83.4,90.1c0,0-5.1-0.4-8.8-3c-3.8-2.6-9.3-5.2-12-5.2c0.3,0.7,0.3,0.7,0.3,0.7s6.8,4.1,5.7,10.6
		c-0.5,3.7,0.1,5.3,0.3,6.5c0.2,1.2,0.1,3.6,0.1,3.6L83.4,90.1z"/>
	<g>
		<defs>
			<path id="SVGID_17_" d="M17.6,114.3c0,0,13.9-15.3,14-15.6c0.1-0.3,1.4-1.1,2.5,0.1c1.2,1.2-0.9,3.3-0.9,3.3l-13.6,15.2
				c0,0-1.4,1.5-2.5,0.2C15.9,116.2,17.6,114.3,17.6,114.3z"/>
		</defs>
		<use xlink:href="#SVGID_17_"  style="overflow:visible;fill:#3E419A;"/>
		<clipPath id="SVGID_1_">
			<use xlink:href="#SVGID_17_"  style="overflow:visible;"/>
		</clipPath>
		<g style="clip-path:url(#SVGID_1_);">
			<g>
				<rect x="20.3" y="106.9" class="st1" width="1.3" height="11.9"/>
				<rect x="25" y="103.1" class="st1" width="1.3" height="11.9"/>
				<rect x="29.9" y="96.8" class="st1" width="1.3" height="11.9"/>
			</g>
		</g>
	</g>
	<g>
		<defs>
			<path id="SVGID_19_" d="M94.3,114.3c0,0-13.9-15.3-14-15.6c-0.1-0.3-1.4-1.1-2.5,0.1s0.9,3.3,0.9,3.3l13.6,15.2
				c0,0,1.4,1.5,2.5,0.2C96,116.2,94.3,114.3,94.3,114.3z"/>
		</defs>
		<use xlink:href="#SVGID_19_"  style="overflow:visible;fill:#3E419A;"/>
		<clipPath id="SVGID_2_">
			<use xlink:href="#SVGID_19_"  style="overflow:visible;"/>
		</clipPath>
		<g style="clip-path:url(#SVGID_2_);">
			<g>
				<g>
					<rect x="90.4" y="106.9" class="st1" width="1.3" height="11.9"/>
				</g>
				<g>
					<rect x="85.6" y="103.1" class="st1" width="1.3" height="11.9"/>
				</g>
				<g>
					<rect x="80.7" y="96.8" class="st1" width="1.3" height="11.9"/>
				</g>
			</g>
		</g>
	</g>
	<g>
		<g>
			<path class="st63" d="M31.6,42c0,0-0.2,0.6-1.7,0.6c-1.4-0.1-2.9,0.9-2.8,2.1c0.2,1.2,1.3,1,3.3,0.4c0.8-0.2,1.3,0.1,0.4,0.5
				c-0.9,0.4-2.4,0.7-3,0.5c0.2,0.5,0.2,0.8,0.2,0.8S31,47,32,46.1c0.9-0.9,0.9-2,0-2.1c0,0-1.1-0.1-2.3,0.4
				c-1.1,0.5-0.9-0.4-0.5-0.6c0.5-0.2,1.6-0.2,1.9-0.3C31.5,43.3,31.8,42.3,31.6,42z"/>
			<path class="st63" d="M36,41.7c0,0-0.8-0.5-0.3-1l-2.5,0.8l-0.1,0.8c0,0,0.8-0.4,0.8,0c0,0.4-0.3,3-0.6,3.3l1.4-0.6l0.1-1.2
				l1.4-0.5l1.3,0.8l1.2-0.5L36,41.7z M34.7,43.2c0,0,0.1-0.7,0.1-1l0.8,0.7L34.7,43.2z"/>
			<path class="st63" d="M53.2,37.5c0,0-0.6-0.7-0.1-1l-2.7,0.2l-0.3,0.8c0,0,0.9-0.2,0.8,0.2c-0.1,0.4-1.1,2.8-1.4,3l1.5-0.2
				l0.4-1.2l1.5-0.1l1,1.1l1.3-0.1L53.2,37.5z M51.6,38.7c0,0,0.3-0.7,0.4-1l0.6,0.8L51.6,38.7z"/>
			<path class="st63" d="M42.4,39.9l-0.8-1c0,0-2.3-0.3-3.2,0.9c-0.9,1.2-0.7,3,1.3,3.4c1.1,0.1,3.1-0.4,3.1-2
				c-0.7,0.3-1.1,0.4-1.1,0.4s-0.2,0.5-1,0.7c-0.5,0.1-1.6,0.1-1.6-0.9C39.1,39.8,41.1,39.4,42.4,39.9z"/>
			<path class="st63" d="M47.8,39.3c0,0,0.6-0.3,0.3-1.2c-0.3-0.9-1.2-0.9-2.5-0.6c-1.3,0.3-2.7,1-2.7,1s0.6,0.2,0.8,1
				c0.1,0.8,0.9,2,0.2,2.5c1.7-0.4,2.3-0.5,2.3-0.5s-0.4-0.1-0.7-1.3c1-0.3,1.3-0.3,1.3-0.3l0.5,1.4l2.1-0.5
				C49.4,40.7,48.1,40.2,47.8,39.3z M46.3,39.2l-1.2,0.4l-0.4-1.1c1.5-0.4,1.8-0.3,1.9,0C46.8,38.8,46.3,39.2,46.3,39.2z"/>
			<path class="st63" d="M55.4,36.6h2.4l0.8,1.8l1.1-1.7l2.6,0c0,0-0.7,0.5-0.7,0.9s0,2.2,0,2.2s0,0.3,0.3,0.4
				c0.3,0.1,0.2,0.5,0.2,0.5l-2.8-0.2v-0.4c0,0,0.5,0.1,0.6-0.5c0-0.5,0.1-1,0.1-1l-1.5,1.5l-1.3-1.8L57,39.5c0,0-0.1,0.1,0.1,0.2
				c0.2,0.1,0.3,0.4,0.3,0.4v0.3l-2.2-0.2l0-0.8c0,0,0.2,0.2,0.3-0.5C55.7,38.3,55.7,37,55.4,36.6z"/>
			<path class="st63" d="M63.3,36.9l4.8,1l-0.4,1.1l-0.5,0.1c0,0,0-0.7-1-0.8c-1-0.1-1.5-0.1-1.5-0.1l-0.1,0.7c0,0,0.7,0.3,1,0.2
				c0.3-0.1,0.5-0.2,0.5-0.2c0.2,0.2-0.1,0.8-0.1,0.8l-1.5-0.3l-0.1,0.9c0,0,1.9,0.7,2.5,0.2c0.5,0.1,0.5,0.1,0.5,0.1l-0.3,1.1
				l-4.4-1l0.1-0.5c0,0,0.5-0.2,0.6-0.7c0.1-0.5,0.2-1.6,0.2-1.6s-0.3-0.6-0.4-0.7C63,37.3,63.3,36.9,63.3,36.9z"/>
			<path class="st63" d="M69,38.3l2.3,0.8l0.8,2.4l0.8-1.9l1.3,0.5l-0.1,0.3c0,0-0.1-0.1-0.5,0.4c-0.3,0.5-1.1,2.6-1.1,2.6l-0.2,0.2
				l-0.9-0.5L70.1,40l-0.5,1.5c0,0,0.1,0.2,0.3,0.5c0.2,0.3-0.2,0.7-0.2,0.7L67.5,42c0,0-0.1-0.4,0.2-0.7c0.2-0.2,0.7-0.1,0.8-0.4
				c0.3-0.8,0.7-1.7,0.7-1.7S69.2,38.4,69,38.3z"/>
			<path class="st63" d="M74.3,41.5l0.7-1.2l4.1,1.7l-0.7,1.1L78,43c0,0-0.1-0.8-0.6-1l-1,2.1c0,0,0.1,0.2,0.3,0.4
				c0.1,0.2-0.4,0.7-0.3,0.6c0.1-0.1-2.3-1.1-2.3-1.1l0.4-0.4c0,0,0.6,0,0.7-0.2c0.1-0.2,0.9-2,0.9-2s-0.6-0.4-1.1-0.1
				c-0.5,0.3-0.3,0.1-0.3,0.1L74.3,41.5z"/>
			<path class="st63" d="M81.9,42.7c-1.5,0-2.7,0.9-2.7,2.1s1.2,2.1,2.7,2.1c1.5,0,2.7-0.9,2.7-2.1S83.4,42.7,81.9,42.7z M81.9,46
				c-0.5,0-1-0.5-1-1.2c0-0.7,0.4-1.2,1-1.2c0.5,0,1,0.5,1,1.2C82.9,45.4,82.5,46,81.9,46z"/>
		</g>
	</g>
	<g>
		<circle class="st57" cx="55.7" cy="93.1" r="10.8"/>
		<path class="st1" d="M67,93c0-6-4.8-10.9-10.8-11.1v0h-0.6v0c-6,0.2-10.8,5.1-10.8,11.1c0,6.1,5,11.1,11.1,11.1
			c5.1,0,9.3-3.4,10.6-8.1h0c0,0,0-0.1,0-0.1c0,0,0,0,0,0C66.8,95,67,94,67,93z M64.3,99.3c-0.1-1.3-0.4-3.9-1.9-6.6
			c-0.3-0.6-0.6-1.1-1-1.7c-1.2-2-2.2-3.7-1.6-5.8c0.9,0.4,1.8,0.9,2.9,1.6c3.1,2.2,3.4,6.5,3.3,8.9C65.7,97.1,65.1,98.3,64.3,99.3z
			 M66.4,92.1C66,90,65,87.8,63,86.4c-1.1-0.8-2.1-1.3-3-1.7c0.1-0.3,0.3-0.7,0.6-1.1C63.8,85.2,66,88.4,66.4,92.1z M60.1,83.4
			c-0.2,0.4-0.4,0.8-0.6,1.1c-1.7-0.6-2.9-0.6-3.3-0.6v-1.3C57.6,82.6,58.9,82.9,60.1,83.4z M55.6,83.9c-0.6,0-1.8,0-3.2,0.4
			c-0.1-0.3-0.3-0.6-0.5-1c1.2-0.5,2.4-0.8,3.7-0.8V83.9z M51.4,83.6c0.2,0.3,0.4,0.6,0.5,0.9c-1,0.4-2.1,1-3.2,1.9
			c-2.3,2-3.1,4.7-3.3,6.7c0,0,0-0.1,0-0.1C45.4,88.9,47.8,85.3,51.4,83.6z M50.5,91c-0.3,0.6-0.7,1.1-1,1.7
			c-1.5,2.7-1.9,5.3-1.9,6.6c-0.9-1.2-1.6-2.6-1.9-4.1c0.1-2,0.7-5.8,3.5-8.3c1-0.9,2-1.4,3-1.8C52.8,87.2,51.7,88.9,50.5,91z
			 M48,100c0.1-1.2,0.3-4.2,1.9-7c0.3-0.6,0.7-1.2,1-1.7c1.3-2.1,2.5-4,1.7-6.4c1.3-0.4,2.4-0.4,3-0.4v19.1
			C52.6,103.4,49.9,102.1,48,100z M56.2,103.5v-19c0.3,0,1.4,0,3.1,0.6c-0.7,2.3,0.4,4.2,1.6,6.2c0.3,0.5,0.6,1.1,0.9,1.7
			c1.5,2.9,1.8,5.9,1.8,7.1C61.8,102.1,59.2,103.4,56.2,103.5z"/>
	</g>
</g>
</svg>
