<?xml version="1.0" encoding="utf-8"?>
<!-- Generator: Adobe Illustrator 23.0.1, SVG Export Plug-In . SVG Version: 6.00 Build 0)  -->
<svg version="1.1" id="Capa_1" xmlns="http://www.w3.org/2000/svg" xmlns:xlink="http://www.w3.org/1999/xlink" x="0px" y="0px"
	 viewBox="0 0 134.6 118.1" style="enable-background:new 0 0 134.6 118.1;" xml:space="preserve">
<style type="text/css">
	.st0{fill:#175384;}
	.st1{fill:#A0A5AA;}
	.st2{fill:#0B040C;}
	.st3{fill:#FFC727;}
	.st4{fill:#F0545B;}
	.st5{fill:#FFFFFF;}
	.st6{fill:#00A855;}
	.st7{fill:#B4C4C9;}
	.st8{fill:#221A21;}
	.st9{fill:#EF3A47;}
	.st10{fill:url(#SVGID_1_);}
	.st11{fill:url(#SVGID_2_);}
	.st12{fill:url(#SVGID_3_);}
	.st13{fill:url(#SVGID_4_);}
	.st14{fill:url(#SVGID_5_);}
	.st15{fill:url(#SVGID_6_);}
	.st16{fill:url(#SVGID_7_);}
	.st17{fill:url(#SVGID_8_);}
	.st18{fill:url(#SVGID_9_);}
	.st19{fill:url(#SVGID_10_);}
	.st20{fill:url(#SVGID_11_);}
	.st21{fill:url(#SVGID_12_);}
	.st22{fill:#313564;}
	.st23{fill:#F04B41;stroke:#FFFFFF;stroke-width:2.1543;stroke-linecap:round;stroke-linejoin:round;stroke-miterlimit:10;}
	.st24{fill:#007FBA;stroke:#FFFFFF;stroke-width:2.1543;stroke-linecap:round;stroke-linejoin:round;stroke-miterlimit:10;}
	.st25{fill:#313564;stroke:#FFFFFF;stroke-width:2.1543;stroke-linecap:round;stroke-linejoin:round;stroke-miterlimit:10;}
	.st26{fill:#FFFFFF;stroke:#FFFFFF;stroke-width:2.1543;stroke-linecap:round;stroke-linejoin:round;stroke-miterlimit:10;}
	.st27{clip-path:url(#SVGID_14_);}
	.st28{fill:#FBAC36;stroke:#FFFFFF;stroke-width:2.1543;stroke-linecap:round;stroke-linejoin:round;stroke-miterlimit:10;}
	.st29{fill:#F04B41;}
	.st30{fill:#007FBA;}
	.st31{clip-path:url(#SVGID_16_);}
	.st32{fill:#FBAC36;}
	.st33{fill:#2C2F61;}
	.st34{fill:#B7B9BA;}
	.st35{fill:#EF3748;}
	.st36{fill:#8999AC;}
	.st37{fill:#2B2F61;}
	.st38{fill:#EE2C45;}
	.st39{fill:#101624;}
	.st40{fill:#59707A;}
	.st41{fill:#4A3285;}
	.st42{fill:#F79230;}
	.st43{fill:#F15733;}
	.st44{fill:#D7303F;}
	.st45{fill:#FAA832;}
	.st46{fill:#1F1721;}
	.st47{fill:#5F3188;}
	.st48{fill:#EE243D;}
	.st49{fill:#1F4BA0;}
	.st50{fill:#244789;}
	.st51{fill:#FBAE2E;}
	.st52{fill:#006991;}
	.st53{fill:#F9A01B;stroke:#FFFFFF;stroke-width:0.4473;stroke-miterlimit:10;}
	.st54{fill:#FAA533;}
	.st55{fill:#0092BC;}
	.st56{fill:#15182C;}
	.st57{fill:#3E419A;}
	.st58{fill:#101721;}
	.st59{fill:#ADA3A5;}
	.st60{fill:#9CA7AC;}
	.st61{clip-path:url(#SVGID_18_);}
	.st62{clip-path:url(#SVGID_20_);}
	.st63{fill:#F3FAF7;}
	.st64{fill:#2D2F63;}
	.st65{fill:#FAA819;}
	.st66{fill:#FEF6FA;}
	.st67{fill:#004F30;}
	.st68{fill:#A2C7D3;}
	.st69{fill:#EE2E55;}
	.st70{fill:#32366E;}
	.st71{fill:#00ADDC;}
	.st72{fill:#FFFFFF;stroke:#00ACD0;stroke-width:0.2915;stroke-miterlimit:10;}
	.st73{fill:#FFFFFF;stroke:#00ACD0;stroke-width:0.2973;stroke-miterlimit:10;}
	.st74{fill:#450000;}
	.st75{fill:#EE224A;}
	.st76{fill:#0064A5;}
	.st77{fill:#F47736;}
	.st78{fill:#B5BCBF;}
	.st79{fill:#F47B35;}
	.st80{fill:#EE2B52;}
	.st81{fill:#0C060E;}
	.st82{fill:#B58D49;}
	.st83{fill:#C9BBCB;}
	.st84{fill:#BA924C;}
	.st85{fill:#006BAF;}
	.st86{fill:#B3C5CB;}
	.st87{fill:#898C89;}
	.st88{fill:#2E2C61;}
	.st89{fill:#C3C5BD;}
	.st90{fill:#C4D2D9;}
	.st91{fill:#EE284D;}
	.st92{fill:#161212;}
	.st93{fill:#EE274E;}
	.st94{fill:#A2A7AA;}
	.st95{fill:#A6AAAC;}
	.st96{fill:#A1A2AB;}
	.st97{fill:#110B13;}
	.st98{fill:#AFC1C6;}
	.st99{fill:#0067AD;}
	.st100{fill:#FBFBFB;}
	.st101{fill:#0065AF;}
	.st102{fill:#121A26;}
	.st103{fill:#008D4C;}
	.st104{fill:#B43A3D;}
	.st105{fill:#111623;}
	.st106{fill:#AB9048;}
	.st107{fill:#F8A174;}
	.st108{fill:#120B19;}
	.st109{fill:#C59751;}
	.st110{fill:#B33638;}
	.st111{fill:#009154;}
	.st112{fill:#1C2026;}
	.st113{fill:#EE2844;}
	.st114{fill:#30385F;}
	.st115{fill:#3A84B1;}
	.st116{fill:#A3C5D7;}
	.st117{fill:#F9A039;}
	.st118{fill:#B0BEC0;}
	.st119{fill:#231D46;}
	.st120{fill:#FDB840;}
	.st121{fill:#CD2C32;}
	.st122{fill:#272049;}
	.st123{fill:#FEC027;}
	.st124{fill:#ADC7C6;}
	.st125{fill:#014429;}
	.st126{fill:#DF2539;}
	.st127{fill:#F57E30;}
	.st128{fill:#ED1942;}
	.st129{fill:#FEF9FB;}
	.st130{fill:#0065AA;}
	.st131{fill:#A6B5B8;}
	.st132{fill:#0B040C;stroke:#0B040C;stroke-width:0.2716;stroke-miterlimit:10;}
	.st133{fill:#F7F9FD;}
	.st134{fill:none;stroke:#EBF2CC;stroke-width:0.2972;stroke-miterlimit:10;}
	.st135{fill:#48484A;}
	.st136{opacity:0.2;}
	.st137{fill:#EE2E3B;}
	.st138{fill:#005BA6;}
	.st139{fill:#737577;}
	.st140{fill:#A1A0A5;}
	.st141{fill:#272360;}
	.st142{fill:#FAFAFB;}
	.st143{fill:#058BA6;}
	.st144{fill:#DEDBE7;}
	.st145{fill:#B2965B;}
	.st146{fill:#1B305B;}
	.st147{fill:#F9F9FA;}
	.st148{fill:#E12039;}
	.st149{fill:#FEF4F4;}
</style>
<g>
	<g>
		<path class="st37" d="M42.1,104h-3.7c0,0-0.4,0.1-0.6,0.7c-0.2,0.6-3.6,7.1-3.6,7.1l-0.6-6.9c0,0,0.1-0.8,0.7-0.9h-2.9
			c0,0-0.5-0.1-1.3,1.1c-0.7,1.2-3.8,6.8-3.8,6.8l-0.1-6.8c0,0,0-0.9,0.8-1.2h-3.2c0,0-1,0.1-0.9,1.3c0.2,1.2,0.8,9.5,0.8,9.5h3.9
			l3.5-6.2l0.3,6.2h4.2l5.1-9.4C41,105.2,41.4,104.2,42.1,104z"/>
		<path class="st37" d="M43.4,113.3c0.2-0.9,1.7-8.1,1.7-8.1s0.2-1,0.8-1.3l-2.8-0.1c0,0-0.7,0.4-0.9,1.4c-0.2,0.9-1.9,9.3-1.9,9.3
			h3.2C43.5,114.6,43.2,114.2,43.4,113.3z"/>
		<path class="st37" d="M53.7,112.1c0,0-4.2,0-4.3,0c-0.1,0,7-6.1,7-6.1l0.5-2.1c0,0-8.3-0.1-9.2-0.1c-1,0-1.3,0.9-1.4,1.2
			c-0.1,0.3-0.5,1.9-0.4,1.8c0.5-0.6,1.7-0.5,1.7-0.5l4.5,0.1l-7.5,6.6l-0.4,1.6c0,0,8.8,0,9.5,0s1-0.6,1-0.6l0.5-2.5
			C54.6,112.3,53.7,112.1,53.7,112.1z"/>
		<path class="st37" d="M61.4,103.9c-0.4,0-0.8,0.7-0.8,0.7s-3.6,7.4-4.2,8.5c-0.6,1.1-1.3,1.5-1.3,1.5c-0.1,0,3,0.1,3.4,0.1
			c0.5,0,1.2-1.9,1.2-1.9h4.2c0,0,0.2,0.6,0.3,1.1c0.1,0.5-0.6,0.7-0.6,0.7h4.2l-2.6-10.7C65.2,103.9,61.8,103.9,61.4,103.9z
			 M61,110.2l1.7-3.4l0.7,3.4H61z"/>
		<path class="st37" d="M68.3,114.6L68.3,114.6C68.3,114.6,68.3,114.6,68.3,114.6z"/>
		<path class="st37" d="M79.9,109.6c0,0,0.6-2.1,0.9-3.9c0.3-1.9-1.5-1.7-1.5-1.7h-9.6c0.9,0.2,0.5,1.4,0.5,1.4l-1.9,9.3
			c0.1,0,1.8,0,2.3,0c0.5,0,0.8-0.6,0.8-0.6l0.6-2.9l2.8,0l1.1,3.4h3.8c-0.5-0.1-0.5-0.4-0.7-0.8c-0.2-0.4-1.1-2.8-1.1-2.8
			C79.4,111,79.9,109.6,79.9,109.6z M77.6,107.4c-0.3,1.1-0.7,1.2-1.2,1.2c-0.5,0-3.1,0-3.1,0l-1,0.7l0.6-2.8h4
			C77,106.4,77.9,106.3,77.6,107.4z"/>
		<path class="st37" d="M91.7,103.9h-9.3c0.8,0.2,0.5,1.4,0.5,1.4s-1.3,6.4-1.6,7.7c-0.3,1.3-0.9,1.7-1.1,1.7c0.1,0,7.4,0,9.3,0
			c2,0,2.5-1.9,2.5-2c0-0.1,0.9-3.6,1.3-6.4C93.8,103.4,91.7,103.9,91.7,103.9z M90.2,107.4c-0.2,1.1-0.9,4.2-0.9,4.2
			s-0.3,0.5-0.7,0.5s-4.3,0-4.3,0l1.3-5.6h3.8C89.5,106.5,90.3,106.3,90.2,107.4z"/>
		<path class="st37" d="M105.1,103.8c-1.2,0-7.8,0-7.8,0s-2.3,0.1-2.9,2.1c-0.5,2.1-0.5,2.4-0.5,2.4s-0.2,2.2,2.5,2.2c2.7,0,5,0,5,0
			s0.9,0,0.8,0.8c-0.2,0.8-1.3,0.8-1.6,0.8c-0.2,0-6.2,0-6.2,0s-1.3-0.2-1.2-1.1l-0.5,2.8c0,0-0.2,0.9,1.3,0.9c1.5,0,7.3,0,7.3,0
			s3,0,3.4-1.8c0.4-1.7,0.6-2.8,0.6-2.8s0.3-2.2-2.4-2.2c-2.7,0-4.7,0.1-4.7,0.1s-1.3,0-1.2-0.8c0.2-0.9,1.3-0.8,1.6-0.8
			c0.4,0,5.6,0,5.6,0s1.1-0.1,1.6,0.9l0.5-2.7C106.3,104.7,106.3,103.8,105.1,103.8z"/>
	</g>
	<path class="st37" d="M51.1,15.4c0,0-15.6,8.7-19.2,26.4c-3.4,4-6.7,5.2-6.7,5.2s1.7-13.7,9.3-23.1C38.9,19.8,49.4,15.4,51.1,15.4z
		"/>
	<path class="st37" d="M29.8,28.7c0,0-5.4,9.3-6.2,19.2c-1.6,1.3-3.5-0.1-3.6-0.9C20.3,44,24.7,33.6,29.8,28.7z"/>
	<path class="st37" d="M25,49c0-0.2,4.4-1.5,6.4-4.4c-1.9,5.1,1,16.6,1,16.6l-5.5,3.9C26.9,65.1,24.2,59.4,25,49z"/>
	<path class="st37" d="M23.1,49.8c0,0-0.3,11.5,2.5,16.1c-4,3.5-4,3.5-4,3.5s-4.1-7.7-2-20.6C20.1,50.3,22.4,49.8,23.1,49.8z"/>
	<path class="st38" d="M44.7,23c0,0-9.2,9.4-11.2,21.2C32.1,52.3,34,56.6,34,56.6s11.4-7.3,19.3-9.5c-1.4-4.6-2.7-7.7-2.7-7.7
		l-7.2,3.3c0,0,2.7-6.9,5.2-9.1C47,28.5,44.7,23,44.7,23z"/>
	<path class="st37" d="M47.8,24.9l-1.3-3.7c0,0,4.6-4.6,8.3-5.6c-0.2,1.2-0.7,1.5-0.7,1.5s-1.8,1.6-1.9,2c-0.1,0.4,0.5,3.8,0.5,3.8
		l-4.4,1.4L47.8,24.9z"/>
	<path class="st38" d="M50.9,10.2l5.5,3.1l-2.2,2.6l0,1.2l3.1-0.7l-0.1,6l3.2-6.2l3.8,4.2l-2.1-5.7l9.2-5.4l-8.5,2.2L65.7,6
		c0,0-5.4,4.1-5.3,4.1c0.1,0,1.4-7.9,1.4-7.9l-3,6.7l-2.7-4l1.4,6.3L50.9,10.2z"/>
	<path class="st37" d="M52.6,38.8c0.2,0,9.5-4.3,15.6-6c-2.3,4-7.2,15.2-5.8,23.9c1.4-5.6,5.8-14.1,7-15.6c-2,6.1,0,13.7,0.2,14.6
		c0.7-6.7,4.3-19,8.7-25.9c2.6-0.6,8.2-2,8.2-2S73.5,49,70.4,62c-2.2,0.3-3.1,0.5-3.1,0.5s-1.2-4.4-1-6.9c-1.8,2.5-2.2,7.8-2.2,7.8
		l-2.5,0.6L52.6,38.8z"/>
	<g>
		<path class="st37" d="M78.1,26.2l-7.3,1.9l-0.2,1.2c0,0-0.5,0.1-0.4-0.8c-0.3,0.1-0.5,0-0.5,0s-0.2,1.6,0.5,2.2
			c0.1,0.8,0.1,1.2,0.1,1.2s2-0.6,2.7-1.4c1.4-0.1,2.8-0.4,3.1-0.5c0.3-0.1,0.3-0.7,0.6-0.8c0.2-0.1,1.6-0.4,1.6-0.4L78.1,26.2z
			 M75.8,28.5c-0.2,0.1-2.4-0.2-2.4-0.2c0.2,0,2.6-0.7,2.6-0.7S76,28.4,75.8,28.5z"/>
		<path class="st37" d="M72.6,31.6c0,0-0.2,0.4,0.1,0.9c0.7-0.8,2.9-1.6,2.7-1.7C75.3,30.8,72.6,31.6,72.6,31.6z"/>
	</g>
	<path class="st38" d="M69.8,27.1c0,0,5.4-8.9,16.5-14l3.2,6.3c0,0-3.2-2.4-4.1-2.7c-2.3,2.3-5.9,6.5-6.8,8.7
		C75.4,26,69.8,27.1,69.8,27.1z"/>
	<path class="st37" d="M75,22.5c0.2,0,1.3,0.7,1.3,0.7l-0.3,1.4l1.3-0.9l1.3,0.6L78,23l1-1l-1.6,0.1c0,0-0.6-1.4-0.6-1.3
		c0,0.1-0.4,1.4-0.4,1.4L75,22.5z"/>
	<path class="st38" d="M81.5,41.1c-0.3,0.1,5.9-11.6,7.8-13.9c2.3-0.6,21-4.5,22.5-4.5l-11.2,14.8C100.7,37.6,86.2,40,81.5,41.1z"/>
	<path class="st38" d="M77.9,47.8l17.5-3.7L68.9,78.8C68.9,78.8,68.8,65.7,77.9,47.8z"/>
	<path class="st38" d="M55.2,52.2l4.3,12.3c0,0-20.6,5.9-29.4,11.8C21.4,82.2,6.3,95,6.3,95s6.1-15,19.8-26.5
		C39.7,57.1,55.2,52.2,55.2,52.2z"/>
	<path class="st37" d="M32.3,77.7l6.7-3.4c0,0,3.6,4,6.5,4.7c-6.3-0.3-10.9,1.9-10.9,1.9L32.3,77.7z"/>
	<path class="st37" d="M30.8,78.8l-3.3,2.3l4.5,4.3c0,0-0.3-3,1.1-3.7C31.8,80,30.8,78.8,30.8,78.8z"/>
	<path class="st37" d="M34.2,82.9c0,0-1.4,1.7-0.3,3.8c2.4,2,9.1,4.7,11.6,5.2C41.7,89.9,37,86.4,34.2,82.9z"/>
	<path class="st37" d="M35.7,82.1c0,0,5.9-2.9,16.1,0c5.8,1.9,8.7,3.2,17.9,3.2c0,0,9.9-0.1,16-3.4c-2.5,2.7-8.2,6.6-17.3,9.5
		c-9.1,2.9-14,2-19.1,0.3C44.2,90.1,38,85,35.7,82.1z"/>
	<path class="st37" d="M110.2,28.1l3.7-4.7c0,0,1,0.3,1.1-0.5c0.1-0.8,2.1-2.8,2.1-2.8s2.2,1.3,3.2,0.4c1-0.9,3.2-2.9,3.2-2.9
		s-0.6,4.6-3.5,6.6C117,26,111.1,27.9,110.2,28.1z"/>
	<path class="st38" d="M121.6,5.3l0.3,3.1c0,0-3.1,0.1-3.4-1.3C118.6,6.8,120.1,5.5,121.6,5.3z"/>
	<path class="st38" d="M122,5.1c-0.1,0,0.4,3.3,0.5,3.3c0.1,0,1.1-0.1,2-0.7c0.9-0.7,1.5-1.1,1.5-1.1S124.6,5,122,5.1z"/>
	<path class="st38" d="M118.1,7.6c0,0-1.1,1.2-1,3.3c0,0.3,0.4,0.5,1.2,0.4c0.8-0.1,3.9-0.5,3.9-0.5L122.1,9
		C122.1,9,118.4,9.1,118.1,7.6"/>
	<path class="st38" d="M122.7,8.9c0.1,0,1.8,0.1,3.6-2c1.2,1,1.6,2.1,1.7,3.1c-0.4-0.1-0.6-0.1-1-0.1c-0.5,0.1-4,0.7-4,0.7
		L122.7,8.9z"/>
	<path class="st38" d="M122.4,12.8c0,0-1.8,0-3.3,1.8c-0.5,0.1-0.8-0.1-1.2-0.7c-0.4-0.6-0.9-1.6-0.9-2.1c0.3,0.3,0.8,0.2,1.2,0.1
		c0.4-0.1,4-0.5,4-0.5L122.4,12.8z"/>
	<path class="st38" d="M123,11.1l0.2,1.5c0,0,3.2,0.2,3.8,1.4c0.8-0.8,1.1-2.7,1.1-3c0-0.3-0.3-0.7-0.8-0.6
		C126.7,10.6,123,11.1,123,11.1z"/>
	<path class="st38" d="M119.1,15.1c-0.1-0.1,0.5,0,0.7-0.3c0.3-0.3,1.7-1.6,3-1.5c0.3,2,0.4,3.1,0.4,3.1S120.6,16.7,119.1,15.1z"/>
	<path class="st38" d="M123.4,13.2c0,0,0.4,3.1,0.4,3.1c0,0.1,1.6-0.4,2.1-0.9c0.6-0.5,0.9-1.2,0.3-1.5
		C125.5,13.5,124.2,13.1,123.4,13.2z"/>
</g>
</svg>
