<?xml version="1.0" encoding="utf-8"?>
<!-- Generator: Adobe Illustrator 23.0.1, SVG Export Plug-In . SVG Version: 6.00 Build 0)  -->
<svg version="1.1" id="Capa_1" xmlns="http://www.w3.org/2000/svg" xmlns:xlink="http://www.w3.org/1999/xlink" x="0px" y="0px"
	 viewBox="0 0 112.9 114" style="enable-background:new 0 0 112.9 114;" xml:space="preserve">
<style type="text/css">
	.st0{fill:#175384;}
	.st1{fill:#A0A5AA;}
	.st2{fill:#0B040C;}
	.st3{fill:#FFC727;}
	.st4{fill:#F0545B;}
	.st5{fill:#FFFFFF;}
	.st6{fill:#00A855;}
	.st7{fill:#B4C4C9;}
	.st8{fill:#221A21;}
	.st9{fill:#EF3A47;}
	.st10{fill:url(#SVGID_1_);}
	.st11{fill:url(#SVGID_2_);}
	.st12{fill:url(#SVGID_3_);}
	.st13{fill:url(#SVGID_4_);}
	.st14{fill:url(#SVGID_5_);}
	.st15{fill:url(#SVGID_6_);}
	.st16{fill:url(#SVGID_7_);}
	.st17{fill:url(#SVGID_8_);}
	.st18{fill:url(#SVGID_9_);}
	.st19{fill:url(#SVGID_10_);}
	.st20{fill:url(#SVGID_11_);}
	.st21{fill:url(#SVGID_12_);}
	.st22{fill:#313564;}
	.st23{fill:#F04B41;stroke:#FFFFFF;stroke-width:2.1543;stroke-linecap:round;stroke-linejoin:round;stroke-miterlimit:10;}
	.st24{fill:#007FBA;stroke:#FFFFFF;stroke-width:2.1543;stroke-linecap:round;stroke-linejoin:round;stroke-miterlimit:10;}
	.st25{fill:#313564;stroke:#FFFFFF;stroke-width:2.1543;stroke-linecap:round;stroke-linejoin:round;stroke-miterlimit:10;}
	.st26{fill:#FFFFFF;stroke:#FFFFFF;stroke-width:2.1543;stroke-linecap:round;stroke-linejoin:round;stroke-miterlimit:10;}
	.st27{clip-path:url(#SVGID_14_);}
	.st28{fill:#FBAC36;stroke:#FFFFFF;stroke-width:2.1543;stroke-linecap:round;stroke-linejoin:round;stroke-miterlimit:10;}
	.st29{fill:#F04B41;}
	.st30{fill:#007FBA;}
	.st31{clip-path:url(#SVGID_16_);}
	.st32{fill:#FBAC36;}
	.st33{fill:#2C2F61;}
	.st34{fill:#B7B9BA;}
	.st35{fill:#EF3748;}
	.st36{fill:#8999AC;}
	.st37{fill:#2B2F61;}
	.st38{fill:#EE2C45;}
	.st39{fill:#101624;}
	.st40{fill:#59707A;}
	.st41{fill:#4A3285;}
	.st42{fill:#F79230;}
	.st43{fill:#F15733;}
	.st44{fill:#D7303F;}
	.st45{fill:#FAA832;}
	.st46{fill:#1F1721;}
	.st47{fill:#5F3188;}
	.st48{fill:#EE243D;}
	.st49{fill:#1F4BA0;}
	.st50{fill:#244789;}
	.st51{fill:#FBAE2E;}
	.st52{fill:#006991;}
	.st53{fill:#F9A01B;stroke:#FFFFFF;stroke-width:0.4473;stroke-miterlimit:10;}
	.st54{fill:#FAA533;}
	.st55{fill:#0092BC;}
	.st56{fill:#15182C;}
	.st57{fill:#3E419A;}
	.st58{fill:#101721;}
	.st59{fill:#ADA3A5;}
	.st60{fill:#9CA7AC;}
	.st61{clip-path:url(#SVGID_18_);}
	.st62{clip-path:url(#SVGID_20_);}
	.st63{fill:#F3FAF7;}
	.st64{fill:#2D2F63;}
	.st65{fill:#FAA819;}
	.st66{fill:#FEF6FA;}
	.st67{fill:#004F30;}
	.st68{fill:#A2C7D3;}
	.st69{fill:#EE2E55;}
	.st70{fill:#32366E;}
	.st71{fill:#00ADDC;}
	.st72{fill:#FFFFFF;stroke:#00ACD0;stroke-width:0.2915;stroke-miterlimit:10;}
	.st73{fill:#FFFFFF;stroke:#00ACD0;stroke-width:0.2973;stroke-miterlimit:10;}
	.st74{fill:#450000;}
	.st75{fill:#EE224A;}
	.st76{fill:#0064A5;}
	.st77{fill:#F47736;}
	.st78{fill:#B5BCBF;}
	.st79{fill:#F47B35;}
	.st80{fill:#EE2B52;}
	.st81{fill:#0C060E;}
	.st82{fill:#B58D49;}
	.st83{fill:#C9BBCB;}
	.st84{fill:#BA924C;}
	.st85{fill:#006BAF;}
	.st86{fill:#B3C5CB;}
	.st87{fill:#898C89;}
	.st88{fill:#2E2C61;}
	.st89{fill:#C3C5BD;}
	.st90{fill:#C4D2D9;}
	.st91{fill:#EE284D;}
	.st92{fill:#161212;}
	.st93{fill:#EE274E;}
	.st94{fill:#A2A7AA;}
	.st95{fill:#A6AAAC;}
	.st96{fill:#A1A2AB;}
	.st97{fill:#110B13;}
	.st98{fill:#AFC1C6;}
	.st99{fill:#0067AD;}
	.st100{fill:#FBFBFB;}
	.st101{fill:#0065AF;}
	.st102{fill:#121A26;}
	.st103{fill:#008D4C;}
	.st104{fill:#B43A3D;}
	.st105{fill:#111623;}
	.st106{fill:#AB9048;}
	.st107{fill:#F8A174;}
	.st108{fill:#120B19;}
	.st109{fill:#C59751;}
	.st110{fill:#B33638;}
	.st111{fill:#009154;}
	.st112{fill:#1C2026;}
	.st113{fill:#EE2844;}
	.st114{fill:#30385F;}
	.st115{fill:#3A84B1;}
	.st116{fill:#A3C5D7;}
	.st117{fill:#F9A039;}
	.st118{fill:#B0BEC0;}
	.st119{fill:#231D46;}
	.st120{fill:#FDB840;}
	.st121{fill:#CD2C32;}
	.st122{fill:#272049;}
	.st123{fill:#FEC027;}
	.st124{fill:#ADC7C6;}
	.st125{fill:#014429;}
	.st126{fill:#DF2539;}
	.st127{fill:#F57E30;}
	.st128{fill:#ED1942;}
	.st129{fill:#FEF9FB;}
	.st130{fill:#0065AA;}
	.st131{fill:#A6B5B8;}
	.st132{fill:#0B040C;stroke:#0B040C;stroke-width:0.2716;stroke-miterlimit:10;}
	.st133{fill:#F7F9FD;}
	.st134{fill:none;stroke:#EBF2CC;stroke-width:0.2972;stroke-miterlimit:10;}
	.st135{fill:#48484A;}
	.st136{opacity:0.2;}
	.st137{fill:#EE2E3B;}
	.st138{fill:#005BA6;}
	.st139{fill:#737577;}
	.st140{fill:#A1A0A5;}
	.st141{fill:#272360;}
	.st142{fill:#FAFAFB;}
	.st143{fill:#058BA6;}
	.st144{fill:#DEDBE7;}
	.st145{fill:#B2965B;}
	.st146{fill:#1B305B;}
	.st147{fill:#F9F9FA;}
	.st148{fill:#E12039;}
	.st149{fill:#FEF4F4;}
</style>
<g>
	<path class="st87" d="M96.4,74.2c1.7-2.5,6.3-18.5,5.5-36.4C69.3,12.1,21.1,2.6,21.1,2.6c-2.5,0-6,3.8-8.3,6
		c-2.2,36.4,9.8,64.8,9.8,64.8S8.1,73.9,8.8,80.2c0.7,6.8,13.8,8.8,20.3,9.1c7.5,14,20.3,23.1,25.6,24.9
		c19.3-1.5,33.6-20.5,35.1-24.1c4.3-0.2,20.9-3.1,21.4-7.5C111.7,78.4,102,75.1,96.4,74.2z M17.7,82.1c-2.2-1,0-2.4,6.3-2.7
		c1.3,2.2,1.8,4.7,1.8,4.7S19,82.7,17.7,82.1z M92.1,85.7c1.2-2,3-5.7,3-5.7c6,0.3,8.8,2.3,8.8,3.2C103.9,84.1,96.9,85.2,92.1,85.7z
		"/>
	<path class="st88" d="M99.7,38.5c0,0-36.4-24.7-76.5-31.8c0,14.7-0.2,83.4,40.4,102.6c10.1-4.2,27.2-18,32.7-43
		C99.5,53.1,99.7,38.5,99.7,38.5z"/>
	<g>
		<g>
			<path class="st80" d="M49.1,17.8c0-0.6-0.4-1.1-1-1.3L42.7,15c-0.4-0.1-0.9,0-1.2,0.2c-0.4,0.3-0.6,0.7-0.6,1.1
				c0,0.1,0,5.5,0.1,14.3c-1.9-5.5-3.9-12.8-4.8-16.2c-0.1-0.4-0.4-0.7-0.7-0.9c-0.2-0.1-1.2-0.5-5.3-1.5c-0.4-0.1-0.8,0-1.1,0.2
				c-0.3,0.2-0.5,0.6-0.6,1c-3.3,25.5,7.2,54.3,7.3,54.6c0.2,0.4,0.5,0.8,1,0.9c0.1,0,0.2,0,0.3,0c0.4,0,0.7-0.1,1-0.4
				c0.5-0.5,3.1-3,5.2-6c0.3-0.4,0.3-0.9,0.2-1.3c-1.1-2.9-2.4-9.4-3.2-13.6c1.6,3.8,3.4,8,4.8,11.4c0.2,0.4,0.5,0.7,0.9,0.8
				c0.4,0.1,0.8,0.1,1.2-0.1l4-2.5c0.5-0.3,0.8-0.9,0.6-1.5C49.9,46.6,49.1,18.1,49.1,17.8z"/>
			<path class="st80" d="M96,39c-0.3-0.2-6.2-5-9.8-5.8c-0.1,0-0.3,0-0.4,0c-1,0-2.2,0.7-3.2,1.8c-0.2,0.2-0.4,0.5-0.6,0.8l0.4-3.5
				c0.1-0.6-0.2-1.2-0.8-1.5L67,24c-0.4-0.2-0.8-0.2-1.2,0c-0.2,0.1-0.4,0.3-0.6,0.5l-0.6-1.5c-0.1-0.4-0.4-0.6-0.8-0.8
				c0,0-4.5-1.8-11-3.7c-0.4-0.1-0.8-0.1-1.2,0.2c-0.3,0.2-0.6,0.6-0.6,1c-1.5,10.5,2,33.7,2.1,34.7c0.1,0.4,0.3,0.8,0.6,1
				c0.3,0.2,0.8,0.3,1.2,0.1c3.4-1.1,10.8-1.1,10.9-1.1c0.8,0,1.4-0.6,1.4-1.4v-5.4c0-0.8-0.6-1.4-1.4-1.4h-5.1v-4.4h2.8
				c0.8,0,1.4-0.6,1.4-1.4l0.2-4.8c0-0.7-0.5-1.3-1.2-1.5L60,33.7c0-1,0-2.5,0.1-4.5c2.9,1.2,7.3,3.3,9.3,4.2l0.2,20.3
				c0,0.6,0.3,1.1,0.9,1.3l5,2.1c0.2,0.1,0.4,0.1,0.6,0.1c0.3,0,0.5-0.1,0.8-0.2c0.4-0.2,0.6-0.7,0.7-1.1l0.9-19l1.7,0.9
				c0.2,0.1,0.4,0.2,0.7,0.2c0.2,0,0.5-0.1,0.7-0.2c0,0,0,0,0,0c-0.2,0.8-0.3,1.8-0.1,3c0.4,3.2,1.6,11,3.1,13.1
				c0.2,0.3,0.5,0.9,0.9,1.5c-1.8-1.6-3.3-3-3.7-3.4c-0.4-0.4-1.1-0.5-1.6-0.2C79.3,51.9,79,52.4,79,53l0.4,5.2
				c0,0.3,0.1,0.6,0.3,0.8c0.1,0.1,7.8,9.1,9.4,12.3c0.2,0.5,0.7,0.8,1.3,0.8h0c0,0,0,0,0,0c0.5,0,1-0.3,1.3-0.8
				c2-4.2,2.6-16.3-0.2-21.9c-1.8-3.6-2.3-5.9-2.5-6.9c0.1,0,0.2,0.1,0.3,0.2c2.4,1.5,4.5,4.2,4.6,4.3c0.3,0.3,0.7,0.5,1.1,0.5
				c0.1,0,0.3,0,0.4-0.1c0.6-0.2,0.9-0.7,1-1.3l0.2-5.9C96.6,39.7,96.4,39.2,96,39z"/>
		</g>
	</g>
	<g>
		<path class="st5" d="M37.2,67.4c0,0-10.5-28.7-7.3-54c4.2,1,5,1.3,5,1.3s4.8,18.8,7.7,22.8c-0.2-13-0.2-21.2-0.2-21.2l5.4,1.5
			c0,0,0.8,28.7,2.7,38.1c-4,2.5-4,2.5-4,2.5s-8.6-20.7-9.4-22c1,6.9,3.4,20.7,5.2,25.3C40,64.7,37.2,67.4,37.2,67.4z"/>
		<path class="st5" d="M54.6,54.2c0,0-3.6-23.9-2.1-34.2c6.5,1.9,10.9,3.6,10.9,3.6l2.1,5.2l1-3.4L81.2,32l-0.6,4.4L77,34.5l-1,21.2
			l-5-2.1l-0.2-21.2c0,0-9.2-4.2-12.1-5.4c-0.2,5.2-0.2,7.8-0.2,7.8l5.2,0.8l-0.2,4.8h-4.2v7.3h6.5v5.4
			C65.9,53.1,58.2,53.1,54.6,54.2z"/>
		<path class="st5" d="M86,34.5c-0.6-0.1-4,1.5-3.4,5.9c0.6,4.4,1.7,10.9,2.9,12.4c1.1,1.5,3.8,7.8,0.8,5.2
			c-3.1-2.7-5.7-5.2-5.7-5.2l0.4,5.2c0,0,7.8,9.2,9.6,12.6c1.7-3.6,2.5-15.3-0.2-20.7c-2.7-5.4-2.7-8-2.7-8s-0.2-2.3,2.5-0.6
			c2.7,1.7,5,4.6,5,4.6l0.2-5.9C95.1,40.1,89.2,35.3,86,34.5z"/>
	</g>
	<path class="st88" d="M32.6,79.5C19,54,19.9,4.4,19.9,4.4s-3.7,2.3-5.3,4.2c-1.6,17.1,3,40.4,4.2,47.1c1.2,6.7,6.3,19.9,6.3,19.9
		L23.3,76c0,0-5.1,0-11.1,2.6c-6,2.6-0.4,4.9,3,6c3.4,1.1,9.2,1.8,14.8,2.6c9.5,18.3,23.1,24.5,23.1,24.5l6.9-1.4
		C53.3,107.6,43.7,100.7,32.6,79.5z M16.9,83.6c-4.2-1.2-4.6-5.8,8.5-5.8l3.7,7.8C29.1,85.5,21.1,84.8,16.9,83.6z"/>
	<g>
		<path class="st89" d="M43.5,72.5c0,0,2-9.9,10.2-13.2c4.9,0.2,7.4,1.7,10.3,3.9c2.8,2.2,17.7,12,21.1,5.3c1.7,3.4,3,10,2.4,12.6
			c-1.3-1.5-3.2-2.1-3.2-2.1l-0.9-7.5c0,0-2.1-0.6-1.7,0.6c0.4,1.1,4.1,18.8-9.8,26.4c-6.4,3.8-19.2,2.8-23.3-6
			c7.5,0,18.1-0.8,21.8-4.9c3.8-4.1,8.3-7.3,10.7-6.8c-2.8-1.1-7.2,0.6-9.8,3.4c-2.6,2.8-11.9,7.7-24.7,6.4
			C44,86.5,41.1,82,43.5,72.5z"/>
		<path class="st89" d="M57.1,57.4c0,0,4.5,0.8,6.8,3.2c2.3,2.4,12.4,8.3,16.9,8.7C78.2,64.9,70.3,55.9,57.1,57.4z"/>
		<path class="st89" d="M75,60.4c0,0,6.4,5.3,7.7,8.5C83.9,66.8,81.6,64,75,60.4z"/>
		<path class="st89" d="M84.2,80.9c0,0-1.1,9.6-4.9,13.6C85,89.9,88.2,83.9,84.2,80.9z"/>
	</g>
	<path class="st80" d="M58.5,102.5c0,0,8.8,0.8,15.1-1.9c-6,4.3-9.4,5.8-9.4,5.8S60.3,105.4,58.5,102.5z"/>
	<path class="st87" d="M79.9,76.9c-10.7-0.6-28.8,1.5-31.4,2.8c-2.6,1.3-3.2-0.9-6-3.2c-1.1,7.2,4.1,13.9,4.1,13.9s4,0.4,9-0.2
		c-1.7-0.4-5.8-5.1-7.2-6.8c-1.3-1.7,10.9-3.2,18.8-4c7.9-0.8,13.4,0.2,13.4,0.2s0-2.6,0-3.2"/>
	<path class="st87" d="M77.8,89.2c-0.8,0.4-3.6,5.5-10.9,4.9c-7.3-0.6-13,0-16.6,0.9c3.4,2.8,9.6,7.9,20.1,3.4
		C76.2,95.6,77.8,89.2,77.8,89.2z"/>
	<path class="st87" d="M83.7,82.4c0-0.6,2.6,1.9,1.9,4.3c-0.8,2.4-3.8,6.2-5.5,6.8C82.7,89,83.7,84.7,83.7,82.4z"/>
	<path class="st87" d="M84.4,76.8c0.9,0,2.8,0.4,2.8,0.4l0.2,4c0,0-2.3-1.9-3.2-2.1C84.2,77.5,84.4,76.8,84.4,76.8z"/>
	<path class="st80" d="M9.4,80.8c0,0-3.4-5,11.1-7.5c7.7-0.8,20.1-1.5,38.1-1.3c18,0.2,35.5,1.2,42.7,3.4c8.8,2.7,11.1,6.8,7.9,8.6
		c0.2-1.5,1.3-4.3-14.1-6.7c-22.9-3.6-54.5-2-67.1-1.4C15.8,76.4,10.2,78.5,9.4,80.8z"/>
	<path class="st88" d="M9.8,80.5c0,0,1.8-4.2,17.2-5.2c15.4-1,39.4-0.9,48.4-0.6c9,0.3,34.1,1.3,34.5,8.4
		c-0.6,2.9-14.4,5.3-19.3,5.3c0.5-0.9,0.6-1.2,0.6-1.2s17.3-2,16.6-4.8c0,0,0-2.4-7.3-4c-7.4-1.7-28.6-3.3-52-2.7
		C25.3,76.4,15.2,75.3,9.8,80.5z"/>
	<path class="st90" d="M23,6.1l-1.9-2.9c0,0,49.8,10,80.4,34.5c-0.4,0.4-1.7,0.4-1.7,0.4S68.1,14.8,23,6.1z"/>
	<path class="st5" d="M64.9,100.2c0,0,16.6-1.7,16-23.7l1.4,0.1c0,0,1.1,14-7.4,19.8C71.4,99.6,66.5,100.5,64.9,100.2z"/>
	<path class="st5" d="M49.2,93.5c0,0,8.2,0,13.8-1.3c5.7-1.3,8.4-4.7,9.7-6.1c1.3-1.5,4.8-4.4,7.2-5c-0.7-0.5-6,2.3-9,5.6
		c-2.7,2.8-8.8,6-18.5,5.7c-3.3-0.2-4,0.3-3.9,0C48.6,92.1,49.2,93.5,49.2,93.5z"/>
	<path class="st5" d="M53.7,59.3c0,0,4.8-0.5,10.3,3.9c5.5,4.3,18.3,10.4,21.1,5.3c-0.8,2.4-4.6,4-14.5,0.1
		c-6.1-2.3-7.8-4.6-9.7-5.8c-1.2-0.7-6-3.2-9.7-2C52.7,60,53.7,59.3,53.7,59.3z"/>
	<path class="st5" d="M80.6,69c0,0-6.4-11.1-18.6-11.7c5.3,1.6,13.4,4.5,16.7,11C79.6,68.7,80.6,69,80.6,69z"/>
</g>
</svg>
