<?xml version="1.0" encoding="utf-8"?>
<!-- Generator: Adobe Illustrator 23.0.1, SVG Export Plug-In . SVG Version: 6.00 Build 0)  -->
<svg version="1.1" id="Capa_1" xmlns="http://www.w3.org/2000/svg" xmlns:xlink="http://www.w3.org/1999/xlink" x="0px" y="0px"
	 viewBox="0 0 150.7 145.8" style="enable-background:new 0 0 150.7 145.8;" xml:space="preserve">
<style type="text/css">
	.st0{fill:#175384;}
	.st1{fill:#A0A5AA;}
	.st2{fill:#0B040C;}
	.st3{fill:#FFC727;}
	.st4{fill:#F0545B;}
	.st5{fill:#FFFFFF;}
	.st6{fill:#00A855;}
	.st7{fill:#B4C4C9;}
	.st8{fill:#221A21;}
	.st9{fill:#EF3A47;}
	.st10{fill:url(#SVGID_1_);}
	.st11{fill:url(#SVGID_2_);}
	.st12{fill:url(#SVGID_3_);}
	.st13{fill:url(#SVGID_4_);}
	.st14{fill:url(#SVGID_5_);}
	.st15{fill:url(#SVGID_6_);}
	.st16{fill:url(#SVGID_7_);}
	.st17{fill:url(#SVGID_8_);}
	.st18{fill:url(#SVGID_9_);}
	.st19{fill:url(#SVGID_10_);}
	.st20{fill:url(#SVGID_11_);}
	.st21{fill:url(#SVGID_12_);}
	.st22{fill:#313564;}
	.st23{fill:#F04B41;stroke:#FFFFFF;stroke-width:2.1543;stroke-linecap:round;stroke-linejoin:round;stroke-miterlimit:10;}
	.st24{fill:#007FBA;stroke:#FFFFFF;stroke-width:2.1543;stroke-linecap:round;stroke-linejoin:round;stroke-miterlimit:10;}
	.st25{fill:#313564;stroke:#FFFFFF;stroke-width:2.1543;stroke-linecap:round;stroke-linejoin:round;stroke-miterlimit:10;}
	.st26{fill:#FFFFFF;stroke:#FFFFFF;stroke-width:2.1543;stroke-linecap:round;stroke-linejoin:round;stroke-miterlimit:10;}
	.st27{clip-path:url(#SVGID_14_);}
	.st28{fill:#FBAC36;stroke:#FFFFFF;stroke-width:2.1543;stroke-linecap:round;stroke-linejoin:round;stroke-miterlimit:10;}
	.st29{fill:#F04B41;}
	.st30{fill:#007FBA;}
	.st31{clip-path:url(#SVGID_16_);}
	.st32{fill:#FBAC36;}
	.st33{fill:#2C2F61;}
	.st34{fill:#B7B9BA;}
	.st35{fill:#EF3748;}
	.st36{fill:#8999AC;}
	.st37{fill:#2B2F61;}
	.st38{fill:#EE2C45;}
	.st39{fill:#101624;}
	.st40{fill:#59707A;}
	.st41{fill:#4A3285;}
	.st42{fill:#F79230;}
	.st43{fill:#F15733;}
	.st44{fill:#D7303F;}
	.st45{fill:#FAA832;}
	.st46{fill:#1F1721;}
	.st47{fill:#5F3188;}
	.st48{fill:#EE243D;}
	.st49{fill:#1F4BA0;}
	.st50{fill:#244789;}
	.st51{fill:#FBAE2E;}
	.st52{fill:#006991;}
	.st53{fill:#F9A01B;stroke:#FFFFFF;stroke-width:0.4473;stroke-miterlimit:10;}
	.st54{fill:#FAA533;}
	.st55{fill:#0092BC;}
	.st56{fill:#15182C;}
	.st57{fill:#3E419A;}
	.st58{fill:#101721;}
	.st59{fill:#ADA3A5;}
	.st60{fill:#9CA7AC;}
	.st61{clip-path:url(#SVGID_18_);}
	.st62{clip-path:url(#SVGID_20_);}
	.st63{fill:#F3FAF7;}
	.st64{fill:#2D2F63;}
	.st65{fill:#FAA819;}
	.st66{fill:#FEF6FA;}
	.st67{fill:#004F30;}
	.st68{fill:#A2C7D3;}
	.st69{fill:#EE2E55;}
	.st70{fill:#32366E;}
	.st71{fill:#00ADDC;}
	.st72{fill:#FFFFFF;stroke:#00ACD0;stroke-width:0.2915;stroke-miterlimit:10;}
	.st73{fill:#FFFFFF;stroke:#00ACD0;stroke-width:0.2973;stroke-miterlimit:10;}
	.st74{fill:#450000;}
	.st75{fill:#EE224A;}
	.st76{fill:#0064A5;}
	.st77{fill:#F47736;}
	.st78{fill:#B5BCBF;}
	.st79{fill:#F47B35;}
	.st80{fill:#EE2B52;}
	.st81{fill:#0C060E;}
	.st82{fill:#B58D49;}
	.st83{fill:#C9BBCB;}
	.st84{fill:#BA924C;}
	.st85{fill:#006BAF;}
	.st86{fill:#B3C5CB;}
	.st87{fill:#898C89;}
	.st88{fill:#2E2C61;}
	.st89{fill:#C3C5BD;}
	.st90{fill:#C4D2D9;}
	.st91{fill:#EE284D;}
	.st92{fill:#161212;}
	.st93{fill:#EE274E;}
	.st94{fill:#A2A7AA;}
	.st95{fill:#A6AAAC;}
	.st96{fill:#A1A2AB;}
	.st97{fill:#110B13;}
	.st98{fill:#AFC1C6;}
	.st99{fill:#0067AD;}
	.st100{fill:#FBFBFB;}
	.st101{fill:#0065AF;}
	.st102{fill:#121A26;}
	.st103{fill:#008D4C;}
	.st104{fill:#B43A3D;}
	.st105{fill:#111623;}
	.st106{fill:#AB9048;}
	.st107{fill:#F8A174;}
	.st108{fill:#120B19;}
	.st109{fill:#C59751;}
	.st110{fill:#B33638;}
	.st111{fill:#009154;}
	.st112{fill:#1C2026;}
	.st113{fill:#EE2844;}
	.st114{fill:#30385F;}
	.st115{fill:#3A84B1;}
	.st116{fill:#A3C5D7;}
	.st117{fill:#F9A039;}
	.st118{fill:#B0BEC0;}
	.st119{fill:#231D46;}
	.st120{fill:#FDB840;}
	.st121{fill:#CD2C32;}
	.st122{fill:#272049;}
	.st123{fill:#FEC027;}
	.st124{fill:#ADC7C6;}
	.st125{fill:#014429;}
	.st126{fill:#DF2539;}
	.st127{fill:#F57E30;}
	.st128{fill:#ED1942;}
	.st129{fill:#FEF9FB;}
	.st130{fill:#0065AA;}
	.st131{fill:#A6B5B8;}
	.st132{fill:#0B040C;stroke:#0B040C;stroke-width:0.2716;stroke-miterlimit:10;}
	.st133{fill:#F7F9FD;}
	.st134{fill:none;stroke:#EBF2CC;stroke-width:0.2972;stroke-miterlimit:10;}
	.st135{fill:#48484A;}
	.st136{opacity:0.2;}
	.st137{fill:#EE2E3B;}
	.st138{fill:#005BA6;}
	.st139{fill:#737577;}
	.st140{fill:#A1A0A5;}
	.st141{fill:#272360;}
	.st142{fill:#FAFAFB;}
	.st143{fill:#058BA6;}
	.st144{fill:#DEDBE7;}
	.st145{fill:#B2965B;}
	.st146{fill:#1B305B;}
	.st147{fill:#F9F9FA;}
	.st148{fill:#E12039;}
	.st149{fill:#FEF4F4;}
</style>
<g>
	<path class="st140" d="M141.5,23.4c2-0.6,3.7-1.8,5.6-2.5c0,0.2,0,0.4,0,0.6c-1.2,2.5-1.9,5.1-2.9,7.7c-2.7,6.9-5.6,13.7-9.1,20.2
		c-2.6,4.9-6.8,8.2-11.7,10.3c-2.3,1-3.9,2.1-4.8,4.5c-0.5,1.4-1.4,2.7-2.3,4.3c2.3,0,4.5,0.1,6.6,0c1.3-0.1,1.6,0.4,1.5,1.6
		c-0.1,2.9,0,5.8,0,8.7c0,0.8,0.2,1.2,1,1.6c2.2,1,4.4,2.1,6.8,3.3c-2.1,1.1-3.9,2.2-5.8,3c-1.6,0.7-2.3,1.5-2.1,3.3
		c0.2,2,0,4,0.1,6c0,0.9-0.3,1.4-1.1,1.9c-1.5,0.9-3.1,1.7-4.5,2.8c-1.5,1.1-3,1.2-4.7,0.9c-1.9-0.3-3.8-0.5-5.7-0.8
		c-0.6-0.1-1.1,0.2-1.6,0.4c-7.5,4.3-15,8.7-22.5,13c-0.6,0.4-1,0.8-1.2,1.6c-1.9,8.7-3.8,17.4-5.6,26.2c0,0.1-0.1,0.2-0.3,0.7
		c-0.6-2.7-1.1-5.1-1.6-7.5c-1.4-6.4-2.8-12.8-4.1-19.2c-0.2-0.8-0.6-1.3-1.3-1.7c-7.5-4.3-15-8.6-22.5-13c-1.4-0.8-2.8,0-4.2,0
		c-1.7,0.1-3.4,0.4-5.1,0.6c-0.5,0.1-0.8-0.2-1.2-0.4c-2-1.2-4-2.5-6.1-3.7c-0.7-0.4-0.9-0.9-0.9-1.7c0-2.4,0-4.8,0-7.1
		c0-0.9-0.3-1.4-1.1-1.8c-2.1-1-4.2-2.1-6.3-3.2c-0.1-0.5,0.4-0.6,0.6-0.7c1.8-0.9,3.7-1.8,5.6-2.6c0.9-0.4,1.3-0.9,1.3-2
		c-0.1-2.9,0-5.9,0-8.8c0-0.9,0.2-1.2,1.2-1.2c2.2,0.1,4.5,0,6.9,0c-0.4-1.2-1.3-2-1.7-3.1c-1.1-3-3-4.8-6-6.1c-5.1-2.1-9-6-11.6-11
		C14.7,39.7,11,30.9,8,21.8c-0.1-0.2-0.1-0.4-0.2-0.9c2,0.9,3.8,1.7,5.5,2.5c0,0,0,0.1,0,0.1c0,0,0,0,0.1,0c0,0-0.1-0.1-0.1-0.1
		c-0.3-2.4-1.3-4.6-1.8-7c-0.6-2.5-1.2-5-1.9-7.9c3.1,2,5.9,3.9,8.6,5.7c11.1,7.6,22.2,15.3,32.9,23.4c3.5,2.6,6.9,5.3,10.3,7.9
		c0.4,0.3,0.7,0.8,1.2,0.7c0.6-0.2,0.3-0.8,0.3-1.2c0-1.2,0.6-2.1,1.4-2.8c0.7-0.5,0.6-0.9-0.1-1.3c-1-0.6-1.9-1.4-2.8-2
		c-3-2.2-3.7-4.1-2.8-7.9c1.8,1.4,3.6,2.7,5.4,4c1.8,1.4,3.7,2.7,5.5,4.1c0.6,0.4,1.1,0.6,1.8,0.4c4.1-1,8.2-1,12.3,0
		c0.8,0.2,1.4,0.1,2-0.4c3.2-2.4,6.4-4.8,9.6-7.2c0.4-0.3,0.8-0.5,1.2-0.8c0.9,3.6,0.2,5.6-2.7,7.7c-1,0.7-2,1.5-3.1,2.2
		c-0.5,0.4-0.7,0.7-0.1,1.2c1.1,0.9,1.7,2,1.5,3.4c0,0.3-0.1,0.6,0.3,0.7c0.3,0.1,0.6-0.2,0.9-0.4c1.7-1.3,3.4-2.6,5.1-4
		C107,35,116,28.5,125.2,22.1c6.3-4.4,12.7-8.7,19.1-13c0.2-0.1,0.5-0.3,0.9-0.5c-1,4.5-2.2,8.8-3.4,13.1
		C141.6,22.3,141.3,22.8,141.5,23.4c0,0-0.1,0.1-0.1,0.1C141.4,23.5,141.4,23.5,141.5,23.4C141.5,23.4,141.5,23.4,141.5,23.4z
		 M26,83.5c1.7,0.9,3.2,1.7,4.7,2.4c0.8,0.4,1.2,0.9,1.1,1.8c-0.1,2.4,0,4.8,0,7.1c0,0.8,0.2,1.4,1,1.8c1.5,0.8,3,1.8,4.5,2.8
		c0.9,0.6,1.8,0.6,2.8,0.5c2-0.3,3.9-0.6,5.9-0.7c0.7-0.1,1.4-0.2,2.2,0.2c8,4.6,16,9.2,24,13.8c0.5,0.3,0.7,0.7,0.9,1.3
		c1,4.6,2,9.2,3,13.8c0.4,1.9,0.8,3.8,1.3,5.7c1.7-6.5,3.2-12.9,4.5-19.3c0.2-0.8,0.5-1.2,1.2-1.6c7.6-4.4,15.2-8.7,22.8-13.2
		c1.1-0.6,2.1-0.9,3.3-0.8c1.2,0.1,2.4,0.5,3.6,0.4c1.5,0,3,0.9,4.5,0c1.7-1,3.4-2.1,5.1-3.1c0.6-0.4,0.8-0.8,0.8-1.5
		c0-2.4,0-4.9,0-7.3c0-1,0.3-1.5,1.2-1.9c1.5-0.7,2.9-1.5,4.6-2.4c-1.7-0.8-3.2-1.6-4.7-2.3c-0.8-0.4-1.2-0.8-1.1-1.8
		c0.1-2.6-0.1-5.2,0.1-7.8c0.1-1.4-0.4-1.8-1.8-1.8c-2.6,0.1-5.3,0-8.2,0c2.6-3,4.3-6.2,5.7-9.5c0.3-0.7,0.9-0.8,1.4-1
		c6.5-2.3,11.5-6.2,14.6-12.6c2.2-4.5,4.3-9,6.2-13.7c1.3-3.1,2.5-6.2,3.6-9.6c-1.9,0.9-3.7,1.8-5.8,2.8c1.5-5,2.9-9.7,4.1-14.5
		c-0.3,0.1-0.5,0.2-0.7,0.3c-16.6,11.2-32.9,22.7-48.6,35.1c-0.5,0.4-0.8,1.1-1.6,0.6c-0.8-0.5-1.6-0.9-1.4-2.1
		c0.2-1.2-0.3-2.2-1.3-2.9c-0.7-0.4-1.4-0.7-2.3-1.2c2.2-1.6,4.2-3.1,6.3-4.6c1.2-0.9,1.9-2,2.2-3.8c-3.4,2.5-6.5,4.8-9.6,7.2
		c-0.6,0.5-1.2,0.6-2,0.4c-3.2-0.9-6.5-1.5-9.6-0.6c-3.4,1-5.9,0-8.4-2.3c-1.9-1.7-4-3-6.1-4.6c1,4.5,5.6,5.3,8.1,8.3
		c-2.3,0.7-3.9,1.8-3.6,4.5c0.1,1-0.9,1-1.5,1.4c-0.7,0.5-1-0.2-1.4-0.5c-12.4-9.8-25.3-19-38.3-28c-3.7-2.5-7.4-5-11.2-7.6
		c1.1,5,2.6,9.7,4.1,14.6c-2.1-1-3.8-1.8-5.8-2.8c2.9,8.3,6.2,16.1,10.1,23.7c3.1,6.1,8.1,9.8,14.3,12.1c0.8,0.3,1.3,0.7,1.6,1.5
		c1.2,2.9,2.7,5.6,4.7,8c0.2,0.3,0.6,0.4,0.5,1c-2.8,0-5.6,0-8.4,0c-1,0-1.3,0.3-1.2,1.3c0.1,2.8,0,5.6,0,8.4c0,0.9-0.3,1.3-1.1,1.7
		C29.2,81.9,27.7,82.7,26,83.5z"/>
	<path class="st141" d="M26,83.5c1.8-0.8,3.2-1.6,4.8-2.3c0.8-0.3,1.1-0.8,1.1-1.7c-0.1-2.8,0-5.6,0-8.4c0-1,0.2-1.3,1.2-1.3
		c2.8,0.1,5.6,0,8.4,0c0.2-0.5-0.3-0.7-0.5-1c-2-2.4-3.5-5.1-4.7-8c-0.3-0.8-0.8-1.2-1.6-1.5c-6.3-2.2-11.2-6-14.3-12.1
		c-3.9-7.6-7.1-15.4-10.1-23.7c2,0.9,3.7,1.8,5.8,2.8c-1.4-5-2.9-9.6-4.1-14.6c3.9,2.6,7.5,5.1,11.2,7.6c13,9,25.9,18.2,38.3,28
		c0.4,0.3,0.7,1,1.4,0.5c0.6-0.4,1.6-0.5,1.5-1.4c-0.4-2.7,1.3-3.9,3.6-4.5c-2.5-3-7.1-3.8-8.1-8.3c2,1.5,4.2,2.9,6.1,4.6
		c2.5,2.2,5,3.3,8.4,2.3c3.2-0.9,6.5-0.3,9.6,0.6c0.8,0.2,1.4,0.1,2-0.4c3.1-2.3,6.2-4.6,9.6-7.2c-0.3,1.8-1,2.9-2.2,3.8
		c-2.1,1.5-4.1,3-6.3,4.6c0.9,0.4,1.6,0.8,2.3,1.2c1,0.7,1.5,1.6,1.3,2.9c-0.2,1.2,0.6,1.6,1.4,2.1c0.8,0.5,1.2-0.2,1.6-0.6
		c15.7-12.4,32.1-23.9,48.6-35.1c0.2-0.1,0.4-0.2,0.7-0.3c-1.1,4.8-2.6,9.5-4.1,14.5c2.1-1,3.8-1.8,5.8-2.8
		c-1.1,3.3-2.3,6.4-3.6,9.6c-1.9,4.6-4,9.2-6.2,13.7c-3.1,6.3-8.1,10.2-14.6,12.6c-0.5,0.2-1.1,0.3-1.4,1c-1.4,3.3-3.1,6.5-5.7,9.5
		c2.9,0,5.6,0.1,8.2,0c1.4-0.1,1.8,0.3,1.8,1.8c-0.1,2.6,0,5.2-0.1,7.8c0,1,0.3,1.4,1.1,1.8c1.5,0.7,3,1.5,4.7,2.3
		c-1.7,0.9-3.1,1.7-4.6,2.4c-0.9,0.4-1.2,0.9-1.2,1.9c0.1,2.4,0,4.8,0,7.3c0,0.7-0.2,1.1-0.8,1.5c-1.7,1-3.4,2.1-5.1,3.1
		c-1.5,0.9-3-0.1-4.5,0c-1.2,0-2.4-0.3-3.6-0.4c-1.2-0.1-2.2,0.2-3.3,0.8c-7.6,4.4-15.2,8.8-22.8,13.2c-0.6,0.4-1,0.8-1.2,1.6
		c-1.4,6.4-2.8,12.9-4.5,19.3c-0.4-1.9-0.9-3.8-1.3-5.7c-1-4.6-2-9.2-3-13.8c-0.1-0.6-0.3-1-0.9-1.3c-8-4.6-16-9.2-24-13.8
		c-0.7-0.4-1.5-0.3-2.2-0.2c-2,0.2-4,0.5-5.9,0.7c-1,0.1-1.9,0.1-2.8-0.5c-1.5-1-3-1.9-4.5-2.8c-0.8-0.4-1-1-1-1.8
		c0-2.4,0-4.8,0-7.1c0-0.9-0.3-1.4-1.1-1.8C29.2,85.3,27.7,84.4,26,83.5z M90,99.5c-2.3,1-4.3,2.5-7,2.8c1.6,2,2.7,2.1,4.3,0.5
		C88.4,101.8,89.4,100.8,90,99.5c0-0.1,0.1-0.2,0.2-0.3c0,0-0.1,0-0.1,0C90,99.3,90,99.4,90,99.5z M114.6,60.9
		c-6.2,1.5-12.4,2.6-18.7,3.5c3,0.3,6,0.5,9,0.7c1.6,0.1,3.6,1.2,4.6-1.4c0.1,2.2-0.9,3.9-1.4,5.8c0,0.1,0,0.2-0.1,0.3
		c0.1,0,0.2-0.1,0.3-0.1c2.1-1.5,3.6-3.6,5-5.7C113.8,62.9,114.6,62.1,114.6,60.9c0.1,0,0.1-0.1,0.2-0.1
		C114.7,60.8,114.7,60.8,114.6,60.9z M40.2,60.8c-0.1,0-0.1-0.1-0.2-0.1C40,60.8,40.1,60.9,40.2,60.8c1.2,3.6,3.5,6.4,6.3,8.8
		c0.1,0,0.2,0.1,0.3,0.1c0-0.1,0-0.2-0.1-0.3c-0.6-1.8-1.5-3.6-1.5-5.7c1.5,1.6,1.5,1.6,3.8,1.3c0.3,0,0.7,0,1,0
		c3-0.2,5.9-0.4,9.3-0.7c-2.7-0.4-5.1-0.8-7.4-1.2C48,62.6,44.1,61.7,40.2,60.8z M19.4,24.8L19.4,24.8c-0.2,0.6,0.3,1,0.5,1.5
		c1,2.3,2,4.6,3.1,7.2c-2.4-1.2-4.6-2.3-6.9-3.5c1.8,4.6,3.7,8.8,5.5,13.1c2.7,6.3,7.6,9.9,13.8,12.1c3.5,1.2,7.1,1.4,10.7,1.8
		c3.9,0.4,7.8,0.8,11.7,1.2c0-0.1,0.1-0.2,0.1-0.3c-9.1-6.5-18.1-13.1-27.2-19.6c0.1-0.1,0.1-0.2,0.2-0.4
		c11.9,6.5,23.8,13,35.8,19.5c-0.3-1.1-0.7-2.1-1.2-3c0.1-0.6-0.4-0.9-0.8-1.2C51.5,42.6,37.7,32.5,23.2,23.4
		c-1.8-1.2-3.7-2.3-5.5-3.4c0.2,1.7,0.7,3.2,1.5,4.5C19.2,24.6,19.1,24.9,19.4,24.8z M135.3,24.8c0.3,0.1,0.2-0.2,0.3-0.3
		c0.8-1.3,1.2-2.8,1.7-4.4c-0.7-0.1-1,0.3-1.4,0.5c-16.1,9.9-31.4,20.9-46.1,32.7c-0.4,0.3-0.8,0.6-0.7,1.1
		c-0.4,0.9-0.8,1.7-1.2,2.6c0.1,0.1,0.2,0.2,0.2,0.3c12-6.5,24-13.1,36-19.6c0.1,0.1,0.1,0.2,0.2,0.3c-9.2,6.6-18.3,13.3-27.5,19.9
		c3.7-0.1,7.3-0.4,10.8-0.8c3.6-0.4,7.3-0.5,10.9-1.6c6.6-2.1,11.9-5.8,14.7-12.5c1.7-3.9,3.4-7.7,4.9-11.7c0.1-0.3,0.4-0.7,0.1-1.1
		c-2.1,1-4.1,2.1-6.5,3.2c0.3-0.7,0.5-1.1,0.6-1.5C133.3,29.6,134.7,27.3,135.3,24.8L135.3,24.8z M69.2,56c1.5,3.2,3.8,5.6,6.9,7.3
		c1.2,0.6,1.8,0.4,2.3-0.8c0.8-1.8,0.8-3.7,0.7-5.6c0-0.5-0.2-1,0.3-1.4c1.5-1,2-2.7,2.3-4.3c0.5-2.8,1.7-5.2,4.2-6.8
		c-3.2-0.7-3.9,2-5.2,4c-0.1-1.6,0.2-3,0.9-4.3c0.3-0.6,0.2-0.9-0.5-1.1c-2.5-0.4-5-0.4-7.5,0c-0.7,0.1-0.8,0.4-0.5,1
		c0.6,1.3,1.1,2.7,0.9,4.3c-2-3.9-3.4-4.9-5.2-3.8c2.5,1.5,3.7,3.8,4.2,6.6c0.3,1.5,0.7,3.1,2,4c1,0.8,0.4,1.1-0.2,1.4
		C72.8,57.7,71,57,69.2,56z M72.4,107.9c0.4,0.7,0.7,1.2,0.9,1.7c0.3,0.5,0.6,0.8,1.2,0.5c1.9-0.8,3.9-0.8,5.8,0
		c0.4,0.1,0.7,0.2,1-0.2c0.3-0.6,0.9-1.1,0.9-1.9c-0.7,0-1.4-0.1-2.1-0.1c1.3-0.8,2.7-1.4,3.9-2.3c-1.7-0.9-3.2-1.9-3-4
		c0.1-1.2,0.7-2.2,1.5-3c1.1-1.1,2.3-2.2,3.6-3.4c-2.5-0.7-4.9-0.9-7.2-0.9c-0.7,0-0.6,0.5-0.7,1c-0.1,1.6-0.1,3.3-0.3,4.9
		c-0.2,1.2,0,2.4-0.6,3.6c-0.3-2.8-0.5-5.5-0.7-8.2c0-0.5,0.2-1.2-0.6-1.2c-2.4,0-4.8,0.1-7.3,0.9c1.2,1.1,2.2,2.1,3.2,3
		c2.3,2,3,5.5-0.9,7.3c-0.1,0-0.1,0.1-0.1,0.2c1.1,1,2.6,1.4,4.1,2.3C74,107.9,73.3,107.9,72.4,107.9z M32.1,83.7
		c0.3,0.2,0.7,0.4,1,0.5c1.3,0.4,1.6,1.2,1.5,2.5c-0.1,1.4,0,2.8,0,4.2c0,2,0,1.9,2,1.7c1.2-0.1,1.4-0.6,1.4-1.7
		c-0.1-1.7,0-3.4,0-5.2c0-0.4-0.1-0.9,0.5-1.1c1.1-0.4,2.1-0.9,3.3-1.4c0,2.5,0.1,4.8,0,7c-0.1,1.4,0.5,1.6,1.6,1.3
		c0.7-0.2,1.8,0.3,1.8-1.3c-0.1-5.6,0-11.2,0-16.8c0-0.8-0.3-1-1-1c-2.3,0-2.3-0.1-2.3,2.2c0,0.6,0,1.1,0,1.7c0,3,0,2.9-2.8,4.1
		c-1,0.4-1,0-1-0.7c0-1.7,0-3.4,0-5c0-2.3,0-2.2-2.3-2.2c-0.9,0-1.1,0.3-1.1,1.1c0.1,2-0.1,3.9,0.1,5.9c0.2,1.9-0.2,3.3-2.3,3.8
		C32.3,83.4,32.2,83.6,32.1,83.7z M108.2,72.6c1.5,1,1.4,2.2,1.4,3.3c0,0.5,0,0.9,0,1.4c0,1.5-0.5,3.3,0.2,4.4
		c0.7,1,2.6,1.3,3.9,1.9c2.7,1.2,2.7,1.2,2.7,4.2c0,1.1-0.2,1.5-1.4,1.2c-0.7-0.2-2,0-2-0.5c0-1.8-1.4-1.2-2.3-1.5
		c-0.4-0.1-1.4-0.5-1.2,0.5c0.2,1.3-0.9,2.8,0.6,3.9c0.1,0,0.2,0,0.3,0c2.8,0.4,5.7,0.8,8.5,1.3c0.6,0.1,0.8-0.1,0.8-0.7
		c0-1.3,0.1-2.6,0-3.9c-0.3-2.3,0.3-3.9,2.7-4.4c0.1,0,0.1-0.2,0.2-0.4c-3-1.2-5.9-2.5-8.8-3.7c-0.4-0.2-0.9-0.2-0.9-0.8
		c0-0.9,0-1.8,0-2.7c0-0.3,0-0.6,0.4-0.6c0.9,0,1.8-0.1,2.7,0c0.7,0,0.4,0.7,0.5,1.1c0.1,0.3,0.4,0.2,0.6,0.2
		c2.6,0.3,2.7,0.2,2.7-2.4c0-0.3,0-0.7,0-1c0.1-0.7-0.2-1-0.9-1C115.5,72.6,112.1,72.6,108.2,72.6z M46.2,75.4c1.3,1,1.3,2,1.3,3.1
		c0,3.2,0,6.4,0,9.7c0,1.8,0.9,2.7,2.6,2.6c2.4-0.2,4.8-0.4,7.2-0.5c0.7,0,0.7-0.3,0.7-0.9c0-3.9,0-7.8,0-11.8c0-1-1.2-2.2-2.1-2.2
		C52.8,75.4,49.7,75.4,46.2,75.4z M59.6,75.4c-0.1,0.1-0.2,0.2-0.3,0.2c1.5,0.9,1.2,2.3,1.2,3.7c0,2.8,0,5.7,0,8.5
		c0,2.2,0,2.2,2.2,2.1c0.8,0,1.2-0.2,1.1-1.1c-0.1-0.9-0.1-1.8,0-2.7c0-0.5-0.4-1.4,0.7-1.5c0.9,0,1.9-0.3,2.1,1.1
		c0.1,0.4,0.3,0.8,0.4,1.2c1.1,2.9,1.1,2.9,4.3,2.6c-0.4-1.2-0.9-2.3-1.3-3.5c-0.1-0.5-1.1-1.4,0.5-1.5c0.4,0,0.3-0.5,0.3-0.8
		c0-2.1,0-4.1,0-6.2c0-1-1.2-2.1-2.1-2.2C65.7,75.4,62.7,75.4,59.6,75.4z M85.7,75.4c-0.1,0.1-0.2,0.1-0.3,0.2
		c1.5,1,1.2,2.4,1.2,3.8c0,3,0,6.1,0,9.1c0,0.9,0.2,1.2,1.1,1.2c2.4,0,4.9,0.1,7.3,0.3c1.4,0.2,1.8-0.2,1.6-1.5c0-0.2,0-0.5,0-0.7
		c0.1-0.8-0.2-1-1-1c-1.5,0-3-0.2-4.5-0.2c-1.2,0-0.9-0.7-1-1.4c-0.1-0.9,0.3-1,1.1-1c1.3,0.1,2.7,0,4,0.1c1.2,0.1,1.5-0.3,1.3-1.4
		c0-0.3,0-0.6,0-0.8c0.1-0.9-0.2-1.2-1.1-1.1c-1.3,0-2.7-0.2-4-0.1c-1.2,0.1-1.4-0.4-1.4-1.4c0-1.1,0.4-1.2,1.3-1.2
		c1.1,0.1,2.1,0,3.2,0c2.1,0,2,0,2-2.1c0-0.7-0.2-1-1-0.9C92.3,75.5,89,75.4,85.7,75.4z M72.5,75.4c-0.1,0.1-0.2,0.2-0.2,0.3
		c1.4,0.8,1.2,2.1,1.2,3.4c0,2.8,0,5.5,0,8.3c0,2.4,0,2.3,2.4,2.3c0.9,0,1-0.4,1-1.2c0-2.4,0-4.8,0-7.3c0-2.8,0-2.7,2.8-2.7
		c0.9,0,1.1,0.3,1.1,1.1c0,2.5,0,5,0,7.6c0,2.6,0,2.6,2.7,2.5c0.7,0,0.8-0.3,0.8-0.9c0-3.7,0-7.5,0-11.2c0-0.9-1.2-2.1-2.2-2.1
		C78.8,75.4,75.6,75.4,72.5,75.4z M101.3,84.4c0,1.2,0,2.4,0,3.6c0,2.5,0,2.4,2.4,2.7c1,0.1,1.2-0.2,1.2-1.2c-0.1-3.3,0-6.7,0-10.1
		c0-0.7,0.1-1.1,1-1.1c2.1,0,2-0.1,2-2.1c0-0.8-0.3-0.9-1-0.9c-2.5,0-5,0-7.5,0c-0.3,0-0.8-0.2-0.9,0.2c-0.1,0.9-0.2,1.8,0,2.6
		c0.1,0.5,0.9,0.2,1.4,0.2c1.2-0.2,1.5,0.4,1.4,1.5C101.2,81.4,101.3,82.9,101.3,84.4z M77.3,123.2c0.1,0,0.2,0,0.3,0
		c0.7-2.9,1.4-5.7,2.1-8.6c0.3-1.1-0.3-1.5-1.1-1.6c-1.5-0.3-3.4,0.1-3.6,0.8c0,0.1,0,0.3,0,0.4C75.7,117.2,76.5,120.2,77.3,123.2z
		 M107.1,94.1c-1-0.4-1.9-0.7-2.8-0.1c-3.4,2-6.9,4.1-10.4,6c-1.3,0.7-2,1.8-2.5,3.2C96.6,100.1,101.8,97.1,107.1,94.1z M63.4,103.1
		c-0.6-1.2-1-2.4-2.2-3c-3.5-2-7-4-10.5-6c-1-0.6-1.9-0.5-3.3-0.2C53,97.1,58.2,100.1,63.4,103.1z M83.1,100.6
		c3-0.7,5.4-1.7,6.7-2.8c0.2-0.2,0.7-0.3,0.6-0.8c-0.2-0.6-2.8-1.7-3.2-1.3C85.7,97.2,84,98.4,83.1,100.6z M71.7,100.5
		c-1.1-2.1-2.6-3.4-4-4.7c-0.4-0.4-3.1,0.7-3.3,1.3c-0.1,0.3,0.2,0.4,0.3,0.5C66.6,99.1,68.9,100,71.7,100.5z M67.3,70.4
		c0-0.6,0-1.1,0-1.7c0-0.5-0.3-0.9-0.8-1c-0.9-0.1-1.8,0-2.6,0c-0.5,0-0.5,0.4-0.5,0.7c0,1.2,0,2.3,0,3.5c0,0.4,0.1,0.7,0.6,0.7
		c0.5,0,0.7-0.1,0.7-0.6c0-0.5-0.2-1.1,0.7-1c0.8,0,0.5,0.6,0.5,1c0,0.5,0.3,0.6,0.7,0.6c0.5,0,0.6-0.2,0.6-0.7
		C67.3,71.4,67.3,70.9,67.3,70.4z M60.9,70.2c0-0.6,0-1.2,0-1.8c0-0.4-0.1-0.7-0.6-0.7c-0.5,0-0.8,0.2-0.7,0.8c0,0.2,0,0.5,0,0.7
		c0,0.4,0,0.7-0.6,0.7c-0.6,0-0.7-0.3-0.7-0.8c0-0.2,0-0.4,0-0.6c0-0.5-0.1-0.8-0.7-0.8c-0.6,0-0.7,0.3-0.7,0.8c0,1.1,0,2.2,0,3.4
		c0,0.4,0,0.7,0.6,0.8c0.5,0,0.8-0.1,0.8-0.7c0-0.4-0.2-1,0.6-0.9c0.8,0,0.6,0.6,0.6,1c0,0.5,0.2,0.7,0.7,0.7c0.6,0,0.6-0.4,0.6-0.8
		C60.9,71.3,60.9,70.8,60.9,70.2z M100.6,70.1c0,2.7,0,2.7,2.7,2.5c0,0,0.1,0,0.1,0c0.4,0,0.7-0.1,0.7-0.6c0-0.6-0.4-0.5-0.8-0.5
		c-0.5-0.1-1.5,0.4-1.5-0.4c0-0.8,1-0.3,1.5-0.4c0.4-0.1,0.7,0,0.7-0.6c0-0.5-0.3-0.5-0.7-0.6c-0.5-0.1-1.5,0.4-1.5-0.3
		c0-0.7,1-0.3,1.5-0.4c0.3-0.1,0.6,0,0.7-0.5c0-0.5-0.2-0.6-0.7-0.6C100.7,67.3,100.6,67.5,100.6,70.1z M74,72.4
		c-0.8-1.1-0.1-2.3-0.2-3.5c-0.1-0.6-0.1-1.1-0.8-1.2c-2.3-0.5-2.8-0.1-2.8,2.2c0,0.6,0,1.2,0,1.8c0,0.4-0.1,0.8,0.6,0.8
		c0.6,0,0.5-0.4,0.5-0.8c0-0.3-0.2-0.8,0.3-0.9c0.6-0.1,0.8,0.4,0.9,0.8C72.7,72.3,73,72.8,74,72.4z M82.2,69.8c0,2.7,0,2.7,1.7,2.8
		c2,0,2,0,2-2c0-0.6,0-1.2,0-1.8c0-0.5-0.2-1-0.7-1c-0.9,0-2-0.2-2.7,0.1C81.8,68.2,82.3,69.2,82.2,69.8z M50.8,69.9
		c0,0.3,0,0.6,0,0.8c0,1.8,0.1,1.9,1.9,1.9c0.3,0,0.6,0,0.8,0c0.3,0,0.7,0.1,0.8-0.4c0.1-0.4,0.2-0.8-0.1-1.1c-0.3-0.3-0.7-0.3-1,0
		c-0.3,0.3-0.8,0.5-0.9,0.3c-0.4-0.7-0.3-1.6-0.1-2.3c0.2-0.7,0.7-0.1,1.1,0.1c0.3,0.1,0.7,0.2,0.9-0.1c0.3-0.3,0.2-0.7,0.1-1.1
		c-0.1-0.4-0.5-0.3-0.8-0.4C50.8,67.5,50.8,67.5,50.8,69.9z M64.9,99.3c0.1,0.8,0.4,1.1,0.7,1.5c0.6,0.7,1.3,1.5,2,2.2
		c1.6,1.5,2.7,1.3,4.1-0.6C69.3,101.8,67.1,100.8,64.9,99.3z M90.4,67.7C90.4,67.7,90.4,67.7,90.4,67.7c-0.4,0-0.8,0-1.3,0
		c-0.6,0.1-0.6,0.8-0.4,0.9c1.4,0.3,0.8,1.4,1,2.2c0.2,0.6-0.6,1.7,0.6,1.8c1.4,0.1,0.5-1.2,0.7-1.8c0.2-0.7-0.5-1.8,0.9-2.1
		c0.3-0.1,0.3-0.9-0.4-0.9C91.1,67.7,90.8,67.7,90.4,67.7z M96.3,67.7C96.3,67.7,96.3,67.7,96.3,67.7c-0.4,0-0.7,0-1.1,0
		c-0.3,0-0.7,0-0.7,0.5c0,0.4,0.1,0.6,0.5,0.7c0.8,0,0.6,0.6,0.6,1c0,0.7,0,1.5,0,2.2c0,0.3,0,0.6,0.4,0.6c0.3,0,0.6,0.1,0.8-0.2
		c0.1-0.2,0.1-0.4,0.1-0.7c0.3-1.1-0.7-2.5,0.9-3.2c0.2-0.1,0.2-0.7-0.4-0.8C97.1,67.7,96.7,67.7,96.3,67.7z M76.8,70.1
		c0,0.4,0,0.8,0,1.1c-0.2,1.1,0.2,1.6,1.3,1.4c0.3,0,0.6,0,0.8,0c0.4,0,0.9,0.1,0.9-0.6c0-0.6-0.5-0.5-0.8-0.5
		c-0.9,0.1-1.1-0.3-1.1-1.1c0.1-0.7,0-1.4,0-2.1c0-0.4-0.2-0.6-0.6-0.6c-0.4,0-0.6,0.2-0.6,0.6C76.8,68.9,76.8,69.5,76.8,70.1z
		 M83.6,52.1c-0.5,1.5-1,2.9-2.4,4C84.2,56.1,84.9,54.8,83.6,52.1z M71.4,52.2c-0.7,1-1,2-0.4,3c0.5,0.9,1.4,1,2.6,0.9
		C72.4,54.9,71.7,53.7,71.4,52.2z"/>
	<path class="st5" d="M141.5,23.4C141.5,23.4,141.5,23.4,141.5,23.4c-0.1,0.1-0.1,0.1-0.1,0.1C141.4,23.4,141.5,23.4,141.5,23.4
		C141.5,23.4,141.5,23.4,141.5,23.4z"/>
	<path class="st5" d="M13.3,23.4c0,0,0.1,0.1,0.1,0.1C13.4,23.5,13.4,23.5,13.3,23.4C13.3,23.4,13.3,23.4,13.3,23.4
		C13.3,23.4,13.3,23.4,13.3,23.4z"/>
	<path class="st142" d="M65.6,54.5c0.5,0.9,1,1.8,1.2,3c-12-6.6-23.9-13-35.8-19.5c-0.1,0.1-0.1,0.2-0.2,0.4
		c9.1,6.5,18.1,13.1,27.2,19.6c0,0.1-0.1,0.2-0.1,0.3c-3.9-0.4-7.8-0.8-11.7-1.2c-3.6-0.3-7.2-0.5-10.7-1.8
		c-6.2-2.2-11.1-5.8-13.8-12.1c-1.8-4.3-3.7-8.6-5.5-13.1c2.4,1.2,4.5,2.3,6.9,3.5c-1.1-2.6-2.1-4.9-3.1-7.2
		c-0.2-0.5-0.6-0.9-0.5-1.5c0.7-0.2,1,0.4,1.5,0.7c9.4,6.1,18.8,12.2,28.2,18.4C54.6,47.4,60.1,50.9,65.6,54.5z"/>
	<path class="st142" d="M135.4,24.8c-0.7,2.5-2,4.8-3,7.3c-0.1,0.4-0.3,0.8-0.6,1.5c2.3-1.2,4.4-2.2,6.5-3.2
		c0.3,0.4,0.1,0.8-0.1,1.1c-1.5,3.9-3.3,7.8-4.9,11.7c-2.8,6.7-8.1,10.3-14.7,12.5c-3.5,1.1-7.2,1.2-10.9,1.6
		c-3.5,0.4-7.1,0.7-10.8,0.8c9.2-6.6,18.3-13.3,27.5-19.9c-0.1-0.1-0.1-0.2-0.2-0.3c-12,6.5-24,13.1-36,19.6
		c-0.1-0.1-0.2-0.2-0.2-0.3c0.4-0.9,0.8-1.7,1.2-2.6c0.4-0.2,0.7-0.4,1.1-0.6c14.5-9.5,29.1-19,43.6-28.4
		C134.4,25.2,134.7,24.7,135.4,24.8z"/>
	<path class="st143" d="M69.2,56c1.8,1,3.6,1.7,5.5,0.6c0.6-0.4,1.3-0.6,0.2-1.4c-1.3-1-1.7-2.5-2-4c-0.5-2.8-1.7-5.1-4.2-6.6
		c1.9-1,3.2-0.1,5.2,3.8c0.2-1.6-0.2-3-0.9-4.3c-0.3-0.7-0.2-0.9,0.5-1c2.5-0.4,5-0.4,7.5,0c0.7,0.1,0.8,0.4,0.5,1.1
		c-0.6,1.3-1,2.7-0.9,4.3c1.3-2,2-4.7,5.2-4c-2.4,1.7-3.6,4-4.2,6.8c-0.3,1.6-0.9,3.3-2.3,4.3c-0.6,0.4-0.4,0.9-0.3,1.4
		c0,1.9,0.1,3.8-0.7,5.6c-0.5,1.1-1.1,1.4-2.3,0.8C73,61.6,70.7,59.2,69.2,56z"/>
	<path class="st143" d="M72.4,107.9c0.9,0,1.6,0,2.7,0c-1.5-1-3-1.3-4.1-2.3c0.1-0.1,0.1-0.2,0.1-0.2c3.9-1.8,3.2-5.3,0.9-7.3
		c-1-0.9-2-1.9-3.2-3c2.5-0.8,4.9-1,7.3-0.9c0.8,0,0.6,0.7,0.6,1.2c0.2,2.7,0.4,5.5,0.7,8.2c0.6-1.1,0.4-2.4,0.6-3.6
		c0.2-1.6,0.2-3.2,0.3-4.9c0-0.5-0.1-1,0.7-1c2.4,0,4.7,0.2,7.2,0.9c-1.3,1.2-2.5,2.3-3.6,3.4c-0.9,0.8-1.4,1.8-1.5,3
		c-0.2,2.2,1.3,3.2,3,4c-1.2,1-2.6,1.5-3.9,2.3c0.7,0,1.4,0.1,2.1,0.1c-0.1,0.8-0.7,1.2-0.9,1.9c-0.2,0.5-0.6,0.4-1,0.2
		c-1.9-0.8-3.9-0.8-5.8,0c-0.6,0.2-1,0-1.2-0.5C73,109,72.8,108.6,72.4,107.9z"/>
	<path class="st142" d="M32.1,83.7c0.1-0.1,0.2-0.3,0.3-0.3c2.1-0.5,2.4-1.9,2.3-3.8c-0.2-1.9,0-3.9-0.1-5.9c0-0.8,0.1-1.1,1.1-1.1
		c2.3,0,2.3,0,2.3,2.2c0,1.7,0,3.4,0,5c0,0.7,0,1.1,1,0.7c2.8-1.1,2.8-1.1,2.8-4.1c0-0.6,0-1.1,0-1.7c0-2.3,0-2.2,2.3-2.2
		c0.8,0,1,0.2,1,1c0,5.6-0.1,11.2,0,16.8c0,1.5-1.1,1.1-1.8,1.3c-1.1,0.3-1.7,0.1-1.6-1.3c0.1-2.3,0-4.6,0-7c-1.2,0.5-2.2,1-3.3,1.4
		c-0.6,0.2-0.5,0.7-0.5,1.1c0,1.7-0.1,3.5,0,5.2c0.1,1.1-0.2,1.5-1.4,1.7c-2,0.2-2,0.3-2-1.7c0-1.4-0.1-2.8,0-4.2
		c0.1-1.3-0.3-2.1-1.5-2.5C32.7,84.1,32.4,83.9,32.1,83.7z"/>
	<path class="st142" d="M108.2,72.6c3.9,0,7.3,0,10.7,0c0.7,0,1,0.2,0.9,1c0,0.3,0,0.7,0,1c0,2.6-0.2,2.7-2.7,2.4
		c-0.2,0-0.5,0-0.6-0.2c-0.2-0.4,0.2-1.1-0.5-1.1c-0.9-0.1-1.8,0-2.7,0c-0.4,0-0.4,0.3-0.4,0.6c0,0.9,0,1.8,0,2.7
		c0,0.7,0.5,0.7,0.9,0.8c2.9,1.2,5.9,2.5,8.8,3.7c-0.1,0.2-0.1,0.3-0.2,0.4c-2.4,0.5-3,2.1-2.7,4.4c0.2,1.3,0,2.6,0,3.9
		c0,0.6-0.2,0.8-0.8,0.7c-2.8-0.5-5.7-0.9-8.5-1.3c-0.1,0-0.2,0-0.3,0c-1.4-1.1-0.4-2.6-0.6-3.9c-0.2-1,0.8-0.6,1.2-0.5
		c0.9,0.2,2.2-0.3,2.3,1.5c0,0.5,1.3,0.2,2,0.5c1.2,0.4,1.4-0.1,1.4-1.2c0-3,0-3-2.7-4.2c-1.4-0.6-3.2-0.9-3.9-1.9
		c-0.7-1-0.2-2.9-0.2-4.4c0-0.5,0-0.9,0-1.4C109.7,74.7,109.7,73.6,108.2,72.6z"/>
	<path class="st143" d="M135.4,24.8c-0.6-0.1-1,0.4-1.5,0.7c-14.6,9.5-29.1,19-43.6,28.4c-0.3,0.2-0.7,0.4-1.1,0.6
		c-0.1-0.6,0.3-0.8,0.7-1.1c14.7-11.8,30-22.9,46.1-32.7c0.4-0.2,0.7-0.6,1.4-0.5c-0.5,1.5-0.9,3-1.7,4.4
		C135.4,24.5,135.3,24.6,135.4,24.8L135.4,24.8z"/>
	<path class="st143" d="M65.6,54.5c-5.5-3.6-11-7.1-16.5-10.7c-9.4-6.1-18.8-12.2-28.2-18.4c-0.4-0.3-0.8-0.8-1.5-0.7c0,0,0,0,0,0
		c0.1-0.2-0.1-0.3-0.3-0.3c-0.8-1.4-1.2-2.8-1.5-4.5c1.8,1.1,3.7,2.2,5.5,3.4c14.4,9.2,28.2,19.2,41.6,29.9
		C65.2,53.6,65.7,53.9,65.6,54.5z"/>
	<path class="st142" d="M46.2,75.4c3.5,0,6.7,0,9.8,0c0.9,0,2.1,1.2,2.1,2.2c0,3.9,0,7.8,0,11.8c0,0.5-0.1,0.8-0.7,0.9
		c-2.4,0.1-4.8,0.4-7.2,0.5c-1.7,0.1-2.6-0.8-2.6-2.6c0-3.2,0-6.4,0-9.7C47.5,77.5,47.5,76.5,46.2,75.4z M50.9,82.8
		c0,0.6,0,1.1,0,1.7c0,2.8,0,2.8,2.8,2.7c0.8,0,1-0.2,1-1c0-2.2,0-4.5,0-6.7c0-0.7-0.1-1-0.9-1c-3-0.1-3-0.1-3,2.8
		C50.9,81.8,50.9,82.3,50.9,82.8z"/>
	<path class="st142" d="M59.6,75.4c3.1,0,6.1,0,9.2,0c1,0,2.1,1.2,2.1,2.2c0,2.1,0,4.1,0,6.2c0,0.3,0.2,0.8-0.3,0.8
		c-1.6,0-0.6,1-0.5,1.5c0.4,1.2,0.8,2.3,1.3,3.5c-3.2,0.3-3.2,0.3-4.3-2.6c-0.1-0.4-0.3-0.8-0.4-1.2c-0.2-1.4-1.2-1.1-2.1-1.1
		c-1.1,0-0.7,0.9-0.7,1.5c-0.1,0.9-0.1,1.8,0,2.7c0.1,0.9-0.3,1.1-1.1,1.1c-2.2,0.1-2.2,0.1-2.2-2.1c0-2.8,0-5.7,0-8.5
		c0-1.3,0.3-2.7-1.2-3.7C59.4,75.6,59.5,75.5,59.6,75.4z M65.6,81.6c0.7-0.4,2.1,0.7,2-1.2c-0.1-1.9,0-1.9-1.9-1.9
		c-0.4,0-0.8,0-1.3,0c-0.2,0-0.5,0-0.5,0.3c0,0.8-0.2,1.7,0.1,2.5C64.2,81.9,65,81.4,65.6,81.6z"/>
	<path class="st142" d="M85.7,75.4c3.3,0,6.6,0,9.9,0c0.7,0,0.9,0.2,1,0.9c0.1,2.1,0.1,2.1-2,2.1c-1.1,0-2.1,0-3.2,0
		c-0.9-0.1-1.3,0.1-1.3,1.2c0,1,0.2,1.5,1.4,1.4c1.3-0.1,2.7,0.1,4,0.1c0.9,0,1.2,0.3,1.1,1.1c0,0.3,0,0.6,0,0.8
		c0.1,1-0.2,1.5-1.3,1.4c-1.3-0.2-2.7-0.1-4-0.1c-0.7,0-1.2,0.1-1.1,1c0.1,0.7-0.2,1.4,1,1.4c1.5,0,3,0.2,4.5,0.2c0.8,0,1.1,0.2,1,1
		c0,0.2,0,0.5,0,0.7c0.2,1.3-0.2,1.7-1.6,1.5c-2.4-0.3-4.8-0.3-7.3-0.3c-1,0-1.1-0.3-1.1-1.2c0-3,0-6.1,0-9.1c0-1.4,0.3-2.8-1.2-3.8
		C85.5,75.6,85.6,75.5,85.7,75.4z"/>
	<path class="st142" d="M72.5,75.4c3.2,0,6.3,0,9.5,0c0.9,0,2.1,1.2,2.2,2.1c0,3.7,0,7.5,0,11.2c0,0.6-0.1,0.9-0.8,0.9
		c-2.7,0.1-2.7,0.1-2.7-2.5c0-2.5,0-5,0-7.6c0-0.8-0.1-1.1-1.1-1.1c-2.8,0-2.8,0-2.8,2.7c0,2.4,0,4.8,0,7.3c0,0.8-0.1,1.2-1,1.2
		c-2.4,0-2.4,0-2.4-2.3c0-2.8,0-5.5,0-8.3c0-1.3,0.1-2.5-1.2-3.4C72.3,75.6,72.4,75.5,72.5,75.4z"/>
	<path class="st142" d="M101.3,84.4c0-1.5-0.1-3,0-4.5c0.1-1.1-0.2-1.6-1.4-1.5c-0.5,0.1-1.3,0.3-1.4-0.2c-0.2-0.8-0.1-1.8,0-2.6
		c0-0.4,0.6-0.2,0.9-0.2c2.5,0,5,0,7.5,0c0.7,0,1,0.2,1,0.9c0.1,2.1,0.1,2.1-2,2.1c-0.8,0-1,0.3-1,1.1c0,3.4,0,6.7,0,10.1
		c0,1-0.2,1.3-1.2,1.2c-2.4-0.3-2.4-0.3-2.4-2.7C101.3,86.8,101.3,85.6,101.3,84.4z"/>
	<path class="st143" d="M46.5,69.6c-2.9-2.4-5.1-5.2-6.4-8.7l0.1-0.1c3.9,0.9,7.8,1.8,11.7,2.4c2.3,0.4,4.7,0.7,7.4,1.2
		c-3.4,0.2-6.3,0.4-9.3,0.7c-0.3,0-0.7,0-1,0c-2.3,0.2-2.3,0.3-3.8-1.3c0,2.1,1,3.8,1.5,5.7C46.7,69.5,46.6,69.5,46.5,69.6z"/>
	<path class="st143" d="M114.6,60.9c-0.1,1.2-0.8,2.1-1.4,3c-1.4,2.1-2.9,4.2-5,5.7c-0.1-0.1-0.1-0.1-0.2-0.2
		c0.5-1.8,1.5-3.6,1.4-5.8c-1,2.6-2.9,1.5-4.6,1.4c-3-0.1-6-0.4-9-0.7C102.2,63.4,108.4,62.3,114.6,60.9L114.6,60.9z"/>
	<path class="st142" d="M77.3,123.2c-0.8-3-1.6-6-2.3-9.1c0-0.1-0.1-0.3,0-0.4c0.2-0.7,2-1.1,3.6-0.8c0.9,0.2,1.4,0.6,1.1,1.6
		c-0.7,2.9-1.4,5.7-2.1,8.6C77.4,123.2,77.3,123.2,77.3,123.2z"/>
	<path class="st143" d="M107.1,94.1c-5.2,3-10.5,6.1-15.7,9.1c0.5-1.4,1.2-2.5,2.5-3.2c3.5-1.9,7-4,10.4-6
		C105.2,93.4,106.1,93.6,107.1,94.1z"/>
	<path class="st143" d="M63.4,103.1c-5.2-3-10.5-6.1-16-9.3c1.4-0.3,2.3-0.4,3.3,0.2c3.5,2.1,7,4.1,10.5,6
		C62.4,100.8,62.9,102,63.4,103.1z"/>
	<path class="st143" d="M83.1,100.6c1-2.1,2.7-3.4,4.1-4.9c0.4-0.4,3,0.7,3.2,1.3c0.2,0.5-0.3,0.6-0.6,0.8
		C88.5,98.9,86.1,99.9,83.1,100.6z"/>
	<path class="st143" d="M71.7,100.5c-2.8-0.4-5-1.4-7-2.9c-0.2-0.1-0.4-0.3-0.3-0.5c0.1-0.6,2.8-1.7,3.3-1.3
		C69,97.1,70.6,98.3,71.7,100.5z"/>
	<path class="st144" d="M67.3,70.4c0,0.5,0,1,0,1.5c0,0.4-0.1,0.7-0.6,0.7c-0.4,0-0.7-0.1-0.7-0.6c0-0.4,0.3-1-0.5-1
		c-0.9,0-0.7,0.6-0.7,1c0,0.5-0.3,0.6-0.7,0.6c-0.5,0-0.6-0.3-0.6-0.7c0-1.2,0-2.3,0-3.5c0-0.3,0-0.7,0.5-0.7c0.9,0,1.8,0,2.6,0
		c0.5,0,0.8,0.4,0.8,1C67.3,69.3,67.3,69.8,67.3,70.4z M66,69.3c0-0.5-0.3-0.5-0.7-0.5c-0.4,0-0.6,0.2-0.6,0.6
		c0,0.5,0.3,0.4,0.7,0.5C65.8,69.9,66,69.7,66,69.3z"/>
	<path class="st144" d="M60.9,70.2c0,0.5,0,1,0,1.5c0,0.5,0,0.8-0.6,0.8c-0.5,0-0.7-0.2-0.7-0.7c0-0.4,0.2-1-0.6-1
		c-0.8,0-0.6,0.5-0.6,0.9c0,0.6-0.3,0.7-0.8,0.7c-0.5,0-0.6-0.4-0.6-0.8c0-1.1,0-2.2,0-3.4c0-0.5,0.1-0.8,0.7-0.8
		c0.6,0,0.7,0.4,0.7,0.8c0,0.2,0,0.4,0,0.6c0,0.5,0,0.8,0.7,0.8c0.5,0,0.6-0.3,0.6-0.7c0-0.2,0-0.5,0-0.7c0-0.5,0.2-0.8,0.7-0.8
		c0.5,0,0.6,0.3,0.6,0.7C60.9,69,60.9,69.6,60.9,70.2z"/>
	<path class="st144" d="M100.6,70.1c0-2.6,0.2-2.7,2.8-2.4c0.4,0.1,0.7,0.2,0.7,0.6c0,0.5-0.3,0.4-0.7,0.5c-0.5,0.1-1.5-0.4-1.5,0.4
		c0,0.8,1,0.3,1.5,0.3c0.4,0.1,0.7,0.1,0.7,0.6c0,0.6-0.4,0.5-0.7,0.6c-0.5,0.1-1.5-0.4-1.5,0.4c0,0.8,1,0.3,1.5,0.4
		c0.4,0.1,0.8,0,0.8,0.5c0,0.5-0.3,0.6-0.7,0.6c0,0-0.1,0-0.1,0C100.6,72.8,100.6,72.8,100.6,70.1z"/>
	<path class="st142" d="M74,72.4c-1,0.4-1.3-0.1-1.5-0.7c-0.1-0.4-0.3-0.9-0.9-0.8c-0.6,0.1-0.3,0.6-0.3,0.9
		c-0.1,0.4,0.1,0.7-0.5,0.8c-0.7,0-0.6-0.4-0.6-0.8c0-0.6,0-1.2,0-1.8c0-2.3,0.5-2.7,2.8-2.2c0.7,0.2,0.8,0.6,0.8,1.2
		C73.9,70.1,73.2,71.3,74,72.4z M72.6,69.3c0-0.5-0.3-0.5-0.7-0.5c-0.3,0-0.7,0-0.7,0.4c0,0.6,0.3,0.6,0.7,0.6
		C72.3,69.8,72.6,69.7,72.6,69.3z"/>
	<path class="st142" d="M82.2,69.8c0.1-0.6-0.4-1.7,0.2-2c0.8-0.4,1.8-0.2,2.7-0.1c0.6,0,0.8,0.5,0.7,1c0,0.6,0,1.2,0,1.8
		c0,2.1,0,2.1-2,2C82.2,72.6,82.2,72.6,82.2,69.8z M84.7,70.2c-0.3-0.5,0.5-1.4-0.7-1.4c-1,0-0.7,0.8-0.6,1.3c0,0.5-0.5,1.4,0.7,1.4
		C85.2,71.5,84.5,70.6,84.7,70.2z"/>
	<path class="st144" d="M50.8,69.9c0-2.4,0-2.4,2.7-2.2c0.3,0,0.7-0.1,0.8,0.4c0.1,0.3,0.2,0.8-0.1,1.1c-0.3,0.3-0.6,0.2-0.9,0.1
		c-0.4-0.1-0.9-0.8-1.1-0.1c-0.2,0.7-0.3,1.6,0.1,2.3c0.2,0.3,0.6,0,0.9-0.3c0.3-0.2,0.7-0.3,1,0c0.3,0.3,0.2,0.7,0.1,1.1
		c-0.1,0.5-0.5,0.3-0.8,0.4c-0.3,0-0.6,0-0.8,0c-1.8,0-1.9-0.1-1.9-1.9C50.8,70.5,50.8,70.2,50.8,69.9z"/>
	<path class="st143" d="M64.9,99.3c2.2,1.5,4.4,2.5,6.8,3c-1.4,1.9-2.6,2.1-4.1,0.6c-0.7-0.7-1.3-1.4-2-2.2
		C65.3,100.4,65,100.1,64.9,99.3z"/>
	<path class="st143" d="M90,99.5c-0.6,1.4-1.6,2.4-2.6,3.4c-1.6,1.6-2.7,1.5-4.3-0.5C85.7,102,87.7,100.5,90,99.5L90,99.5z"/>
	<path class="st144" d="M90.4,67.7c0.4,0,0.7,0,1.1,0c0.7,0.1,0.7,0.9,0.4,0.9c-1.4,0.3-0.6,1.4-0.9,2.1c-0.2,0.6,0.7,1.9-0.7,1.8
		c-1.2-0.1-0.4-1.2-0.6-1.8c-0.2-0.8,0.4-1.8-1-2.2c-0.3-0.1-0.2-0.8,0.4-0.9C89.5,67.6,90,67.7,90.4,67.7
		C90.4,67.7,90.4,67.7,90.4,67.7z"/>
	<path class="st144" d="M96.3,67.7c0.4,0,0.7,0,1.1,0c0.5,0.1,0.5,0.7,0.4,0.8c-1.6,0.7-0.7,2.1-0.9,3.2c-0.1,0.2,0,0.5-0.1,0.7
		c-0.2,0.3-0.5,0.2-0.8,0.2c-0.4,0-0.4-0.3-0.4-0.6c0-0.7,0-1.5,0-2.2c0-0.4,0.2-1-0.6-1c-0.4,0-0.5-0.3-0.5-0.7
		c0-0.5,0.4-0.5,0.7-0.5C95.6,67.7,96,67.7,96.3,67.7C96.3,67.7,96.3,67.7,96.3,67.7z"/>
	<path class="st142" d="M76.8,70.1c0-0.6,0-1.2,0-1.8c0-0.4,0.2-0.6,0.6-0.6c0.4,0,0.6,0.2,0.6,0.6c0,0.7,0,1.4,0,2.1
		c-0.1,0.8,0.1,1.2,1.1,1.1c0.3,0,0.8-0.1,0.8,0.5c0,0.7-0.4,0.6-0.9,0.6c-0.3,0-0.6,0-0.8,0c-1.1,0.2-1.5-0.3-1.3-1.4
		C76.9,70.8,76.8,70.5,76.8,70.1z"/>
	<path class="st144" d="M83.6,52.1c1.2,2.7,0.6,4-2.4,4C82.6,55,83.2,53.6,83.6,52.1z"/>
	<path class="st142" d="M71.4,52.2c0.3,1.6,1,2.8,2.1,3.9c-1.1,0.1-2.1,0-2.6-0.9C70.4,54.1,70.7,53.2,71.4,52.2z"/>
	<path class="st143" d="M90,99.5c0-0.1,0-0.2,0-0.4c0,0,0.1,0,0.1,0C90.1,99.3,90,99.4,90,99.5C90,99.5,90,99.5,90,99.5z"/>
	<path class="st143" d="M108.2,69.6c-0.1,0-0.2,0.1-0.3,0.1c0-0.1,0-0.2,0.1-0.3C108.1,69.5,108.2,69.5,108.2,69.6z"/>
	<path class="st143" d="M114.6,60.9c0.1,0,0.1-0.1,0.2-0.1C114.7,60.8,114.7,60.8,114.6,60.9C114.6,60.9,114.6,60.9,114.6,60.9z"/>
	<path class="st143" d="M40.1,60.9c0-0.1-0.1-0.1-0.1-0.2C40.1,60.8,40.1,60.8,40.1,60.9C40.2,60.8,40.1,60.9,40.1,60.9z"/>
	<path class="st142" d="M19.2,24.5c0.2,0,0.3,0.1,0.3,0.3C19.1,24.9,19.2,24.6,19.2,24.5z"/>
	<path class="st142" d="M135.3,24.8c0-0.2,0.1-0.3,0.3-0.3C135.6,24.6,135.7,24.9,135.3,24.8z"/>
	<path class="st143" d="M46.7,69.4c0,0.1,0,0.2,0.1,0.3c-0.1,0-0.2-0.1-0.3-0.1C46.6,69.5,46.7,69.5,46.7,69.4z"/>
	<path class="st141" d="M50.9,82.8c0-0.5,0-1,0-1.5c0-2.9,0-2.9,3-2.8c0.8,0,0.9,0.3,0.9,1c0,2.2,0,4.5,0,6.7c0,0.8-0.2,1-1,1
		c-2.8,0.1-2.8,0.1-2.8-2.7C50.9,84,50.9,83.4,50.9,82.8z"/>
	<path class="st141" d="M65.6,81.6c-0.6-0.2-1.4,0.3-1.7-0.3c-0.2-0.8-0.1-1.6-0.1-2.5c0-0.3,0.3-0.3,0.5-0.3c0.4,0,0.8,0,1.3,0
		c1.9,0,1.8,0,1.9,1.9C67.7,82.3,66.3,81.2,65.6,81.6z"/>
	<path class="st141" d="M66,69.3c0.1,0.4-0.2,0.5-0.6,0.5c-0.3,0-0.7,0-0.7-0.5c0-0.4,0.2-0.6,0.6-0.6C65.7,68.8,65.9,68.8,66,69.3z
		"/>
	<path class="st141" d="M72.6,69.3c0,0.5-0.3,0.5-0.6,0.5c-0.4,0-0.8,0-0.7-0.6c0-0.5,0.4-0.4,0.7-0.4
		C72.3,68.8,72.6,68.8,72.6,69.3z"/>
	<path class="st141" d="M84.7,70.2c-0.3,0.4,0.4,1.3-0.7,1.3c-1.2,0-0.7-0.9-0.7-1.4c0-0.5-0.4-1.3,0.6-1.3
		C85.2,68.7,84.5,69.7,84.7,70.2z"/>
</g>
</svg>
