<?xml version="1.0" encoding="utf-8"?>
<!-- Generator: Adobe Illustrator 23.0.1, SVG Export Plug-In . SVG Version: 6.00 Build 0)  -->
<svg version="1.1" id="Capa_1" xmlns="http://www.w3.org/2000/svg" xmlns:xlink="http://www.w3.org/1999/xlink" x="0px" y="0px"
	 viewBox="0 0 105.8 112.7" style="enable-background:new 0 0 105.8 112.7;" xml:space="preserve">
<style type="text/css">
	.st0{fill:#175384;}
	.st1{fill:#A0A5AA;}
	.st2{fill:#0B040C;}
	.st3{fill:#FFC727;}
	.st4{fill:#F0545B;}
	.st5{fill:#FFFFFF;}
	.st6{fill:#00A855;}
	.st7{fill:#B4C4C9;}
	.st8{fill:#221A21;}
	.st9{fill:#EF3A47;}
	.st10{fill:url(#SVGID_1_);}
	.st11{fill:url(#SVGID_2_);}
	.st12{fill:url(#SVGID_3_);}
	.st13{fill:url(#SVGID_4_);}
	.st14{fill:url(#SVGID_5_);}
	.st15{fill:url(#SVGID_6_);}
	.st16{fill:url(#SVGID_7_);}
	.st17{fill:url(#SVGID_8_);}
	.st18{fill:url(#SVGID_9_);}
	.st19{fill:url(#SVGID_10_);}
	.st20{fill:url(#SVGID_11_);}
	.st21{fill:url(#SVGID_12_);}
	.st22{fill:#313564;}
	.st23{fill:#F04B41;stroke:#FFFFFF;stroke-width:2.1543;stroke-linecap:round;stroke-linejoin:round;stroke-miterlimit:10;}
	.st24{fill:#007FBA;stroke:#FFFFFF;stroke-width:2.1543;stroke-linecap:round;stroke-linejoin:round;stroke-miterlimit:10;}
	.st25{fill:#313564;stroke:#FFFFFF;stroke-width:2.1543;stroke-linecap:round;stroke-linejoin:round;stroke-miterlimit:10;}
	.st26{fill:#FFFFFF;stroke:#FFFFFF;stroke-width:2.1543;stroke-linecap:round;stroke-linejoin:round;stroke-miterlimit:10;}
	.st27{clip-path:url(#SVGID_14_);}
	.st28{fill:#FBAC36;stroke:#FFFFFF;stroke-width:2.1543;stroke-linecap:round;stroke-linejoin:round;stroke-miterlimit:10;}
	.st29{fill:#F04B41;}
	.st30{fill:#007FBA;}
	.st31{clip-path:url(#SVGID_16_);}
	.st32{fill:#FBAC36;}
	.st33{fill:#2C2F61;}
	.st34{fill:#B7B9BA;}
	.st35{fill:#EF3748;}
	.st36{fill:#8999AC;}
	.st37{fill:#2B2F61;}
	.st38{fill:#EE2C45;}
	.st39{fill:#101624;}
	.st40{fill:#59707A;}
	.st41{fill:#4A3285;}
	.st42{fill:#F79230;}
	.st43{fill:#F15733;}
	.st44{fill:#D7303F;}
	.st45{fill:#FAA832;}
	.st46{fill:#1F1721;}
	.st47{fill:#5F3188;}
	.st48{fill:#EE243D;}
	.st49{fill:#1F4BA0;}
	.st50{fill:#244789;}
	.st51{fill:#FBAE2E;}
	.st52{fill:#006991;}
	.st53{fill:#F9A01B;stroke:#FFFFFF;stroke-width:0.4473;stroke-miterlimit:10;}
	.st54{fill:#FAA533;}
	.st55{fill:#0092BC;}
	.st56{fill:#15182C;}
	.st57{fill:#3E419A;}
	.st58{fill:#101721;}
	.st59{fill:#ADA3A5;}
	.st60{fill:#9CA7AC;}
	.st61{clip-path:url(#SVGID_18_);}
	.st62{clip-path:url(#SVGID_20_);}
	.st63{fill:#F3FAF7;}
	.st64{fill:#2D2F63;}
	.st65{fill:#FAA819;}
	.st66{fill:#FEF6FA;}
	.st67{fill:#004F30;}
	.st68{fill:#A2C7D3;}
	.st69{fill:#EE2E55;}
	.st70{fill:#32366E;}
	.st71{fill:#00ADDC;}
	.st72{fill:#FFFFFF;stroke:#00ACD0;stroke-width:0.2915;stroke-miterlimit:10;}
	.st73{fill:#FFFFFF;stroke:#00ACD0;stroke-width:0.2973;stroke-miterlimit:10;}
	.st74{fill:#450000;}
	.st75{fill:#EE224A;}
	.st76{fill:#0064A5;}
	.st77{fill:#F47736;}
	.st78{fill:#B5BCBF;}
	.st79{fill:#F47B35;}
	.st80{fill:#EE2B52;}
	.st81{fill:#0C060E;}
	.st82{fill:#B58D49;}
	.st83{fill:#C9BBCB;}
	.st84{fill:#BA924C;}
	.st85{fill:#006BAF;}
	.st86{fill:#B3C5CB;}
	.st87{fill:#898C89;}
	.st88{fill:#2E2C61;}
	.st89{fill:#C3C5BD;}
	.st90{fill:#C4D2D9;}
	.st91{fill:#EE284D;}
	.st92{fill:#161212;}
	.st93{fill:#EE274E;}
	.st94{fill:#A2A7AA;}
	.st95{fill:#A6AAAC;}
	.st96{fill:#A1A2AB;}
	.st97{fill:#110B13;}
	.st98{fill:#AFC1C6;}
	.st99{fill:#0067AD;}
	.st100{fill:#FBFBFB;}
	.st101{fill:#0065AF;}
	.st102{fill:#121A26;}
	.st103{fill:#008D4C;}
	.st104{fill:#B43A3D;}
	.st105{fill:#111623;}
	.st106{fill:#AB9048;}
	.st107{fill:#F8A174;}
	.st108{fill:#120B19;}
	.st109{fill:#C59751;}
	.st110{fill:#B33638;}
	.st111{fill:#009154;}
	.st112{fill:#1C2026;}
	.st113{fill:#EE2844;}
	.st114{fill:#30385F;}
	.st115{fill:#3A84B1;}
	.st116{fill:#A3C5D7;}
	.st117{fill:#F9A039;}
	.st118{fill:#B0BEC0;}
	.st119{fill:#231D46;}
	.st120{fill:#FDB840;}
	.st121{fill:#CD2C32;}
	.st122{fill:#272049;}
	.st123{fill:#FEC027;}
	.st124{fill:#ADC7C6;}
	.st125{fill:#014429;}
	.st126{fill:#DF2539;}
	.st127{fill:#F57E30;}
	.st128{fill:#ED1942;}
	.st129{fill:#FEF9FB;}
	.st130{fill:#0065AA;}
	.st131{fill:#A6B5B8;}
	.st132{fill:#0B040C;stroke:#0B040C;stroke-width:0.2716;stroke-miterlimit:10;}
	.st133{fill:#F7F9FD;}
	.st134{fill:none;stroke:#EBF2CC;stroke-width:0.2972;stroke-miterlimit:10;}
	.st135{fill:#48484A;}
	.st136{opacity:0.2;}
	.st137{fill:#EE2E3B;}
	.st138{fill:#005BA6;}
	.st139{fill:#737577;}
	.st140{fill:#A1A0A5;}
	.st141{fill:#272360;}
	.st142{fill:#FAFAFB;}
	.st143{fill:#058BA6;}
	.st144{fill:#DEDBE7;}
	.st145{fill:#B2965B;}
	.st146{fill:#1B305B;}
	.st147{fill:#F9F9FA;}
	.st148{fill:#E12039;}
	.st149{fill:#FEF4F4;}
</style>
<g>
	<path class="st112" d="M15.8,29.8c0,0-0.8,8.7,0.6,12.3c1.4,3.6,4.2,7.9,12.9,7.3C38,48.9,61,47.7,76,48.8c7.7,0.3,15.5,0,17.2-6.6
		c0.9-3.5,1.5-10.9,0.6-13.5c2.8,4.8,6.5,10.9,5.8,19.4c-0.7,8.5-10.6,13-18,13.6c6.5,0.9,13.1,3.6,13.1,3.6s-4.4,8.5-15.9,3.6
		c-2.6,6.6-10,21-10.7,22.2c-0.7,1.2-0.3,2.4,0.5,3.4c0.8,0.9,0.9,1.7,0.6,2.6c-0.3,0.8-1.5,5.8-3,7.7c0,0-1.1,3.8-10.7,3.4
		c-7.8,0-10.8-1.8-11.8-3.5c-1-1.7-2.3-5.4-2.6-8.2c0-1.5,1.2-2.8,1.8-3.1c-0.1-1.1-1.5-3.4-1.8-4c-0.3-0.6-7.9-14.5-9.2-20
		c-2.6,1-12.9,3.2-16.4-2.8c0.1-0.8,0.1-0.8,0.1-0.8s8.4-3.2,13.8-3.8c-4.6-0.4-20.5-1-18.7-17.8C11.5,36.8,15.4,30.6,15.8,29.8z"/>
	<path class="st113" d="M14.9,32.4c0,0-3.2,7.2-3.5,9.9c1-1.2,2.1-2.2,2.1-2.2l1.8,1.8C15.3,41.9,14.5,36.6,14.9,32.4z"/>
	<path class="st5" d="M11.5,43.3c0,0-1.3,6.5,1.5,10.7c2.9,4.2,9.5,7.6,19.8,7c0.1-2.3,1.8-10.1,2.4-11.2c-3.3,0.3-8.5,1.2-13.2-0.6
		c-4.1-1.6-6-6.3-6-6.3l-2.4-1.6L11.5,43.3z"/>
	<path class="st113" d="M36.4,49.9c0,0-2.4,7.6-2.6,12c-3.5,0.2-12.4,1.8-17.5,4.3c1,1.7,5.7,5.4,15.8,2.3c1.1,3.4,2.1,7.3,4.9,7.7
		c1.7,0.1,3-1.4,3-1.4s-5.9-0.2-6.2-6c-0.9-0.9-1.8-1.1-1.8-1.1s-0.9-2.4,2.1-3c2.9-0.6,5.5,2.2,6.5,3.7c1,1.5,3.7,4.5,7.3,4.3
		c3.7-0.1,6.8-3.5,6.5-5.9c-1.8,0-9-0.4-10.6-1c0.1-0.6,0.1-0.6,0.1-0.6s6.8,1.1,10.4,0.7c-0.1-1.1-0.1-2.4-0.1-2.4
		s-7.3-0.1-10.2-0.9C44.1,62,44.1,62,44.1,62s8.7,0.8,10.3,0.7c0.1-1.9-0.1-2.9-0.1-2.9s-7.7-0.1-10.1-0.8c-0.1-0.7-0.1-0.7-0.1-0.7
		s9.1,0.9,10.1,0.7c0.1-1,0-2.5,0-2.5l1.1-0.1l0.2,2.5c0,0,6.2-0.1,10.4-1.2c-0.2,0.9-0.2,0.9-0.2,0.9s-6.8,1-9.9,1.3
		c-0.1,1.6,0,2.9,0,2.9s6.2,0.1,10.1-1c-0.1,1-0.1,1-0.1,1s-6.8,1.2-10,1.1c0,1.1,0,2.2,0,2.2s6.5-0.1,10.6-1
		c-0.1,0.8-0.1,0.8-0.1,0.8S58.7,66.9,56,67c0.2,2,1.1,5.4,5.3,5.5c4.2,0.1,7.1-3.5,8.3-4.7c1.2-1.2,4.3-3.4,6.4-3.2
		c2.1,0.1,2.9,3.2,0.6,3.9c-0.3,1.8-1.7,6.7-6.5,6.6c-0.3,0.4,5.6,3.3,8.4-6.6c0.6-0.1,1.7,0.4,2.1,0.4c0.4,0.1,9.5,1.7,12.6-3
		c-2.7-1.4-10.6-4.2-17.2-3.7c-0.4-3.2-1.7-11.4-2.7-12.5C70.9,49.4,45.4,48.3,36.4,49.9z"/>
	<path class="st5" d="M74.4,49.5c0.3,0.1,2.4,9,2.6,11.5c4.8-0.1,12.9-1.7,16.2-4.3c3.2-2.6,7.1-7.3,5.3-14c-0.9-0.9-2-1.5-2-1.5
		l-2.2,1.4c0,0-2.1,6.9-10.1,7C79.1,49.7,74.4,49.5,74.4,49.5z"/>
	<path class="st113" d="M94.4,41.3c0,0,2.2-1.7,2.1-1.5c-0.1,0.2,1.8,1.8,1.8,1.8s-1.8-7.3-3.1-9C95.3,35.4,95,40.1,94.4,41.3z"/>
	<path class="st5" d="M74.2,68.8c0,0.2,0.1,4.1-3.9,4.6c-0.6,0.4-0.3,0.6,0.3,0.6c0.6,0,4.8-0.5,4.5-5.2
		C74.9,68.5,74.2,68.8,74.2,68.8z"/>
	<path class="st5" d="M35.7,68.8c0,0.2-0.1,3.7,4,4.2c0.6,0.4,0.2,1-0.4,1c-0.6,0-4.8-0.5-4.5-5.2C35,68.5,35.7,68.8,35.7,68.8z"/>
	<path class="st113" d="M35.3,76.7c0,0,3.4,1.1,5.5-0.8C41,77,38.3,82.1,35.3,76.7z"/>
	<path class="st113" d="M36.8,79.7c0,0,4,1.3,4.8-2.4c1.7,2.5,3.2,10.6,1.8,14.5C41.8,88.8,36.8,79.7,36.8,79.7z"/>
	<g>
		<path class="st113" d="M74.6,76.7c0,0-3.4,1.1-5.5-0.8C68.9,77,71.8,82,74.6,76.7z"/>
		<path class="st113" d="M73.3,79.7c0,0-4,1.3-4.8-2.4c-1.6,2.5-2.9,10.6-1.5,14.4C68.5,88.8,73.3,79.7,73.3,79.7z"/>
	</g>
	<path class="st113" d="M43.3,75.6c0,0,3.5,11.2,0.6,17.2c3-1.8,13.9-4.6,22.5,0.6c-0.6-1.7-1.5-11.8,0.2-17.9
		c-2.4,1.3-8.7,2.2-11.1-1.9c-0.7,0.1-0.7,0.1-0.7,0.1S51.4,78.3,43.3,75.6z"/>
	<path class="st113" d="M43.1,94.2c0,0,5.2-3.1,11.8-3c6.6,0.1,12,3.5,12.9,4.1c1,0.7,0.4,2.3,0.1,3.2c-0.3,1-2.5,7.6-5.7,8.2
		c-3.2,0.6-11.9,1.2-16-0.7c-1.9-1.3-3.2-3.8-3.7-5.6C42.2,98.6,41.2,95.5,43.1,94.2z"/>
	<path class="st112" d="M52.1,100.4c0,0,1.5-5.8-4.3-5.2c-3.1,0.3-3,3.6-1.5,4.6c1.5,1,3.2,0.7,3.9-0.1C51,98.9,52,99,52.1,100.4z"
		/>
	<path class="st112" d="M57.7,100.4c0,0-1.5-5.8,4.3-5.2c3.1,0.3,3,3.6,1.5,4.6c-1.5,1-3.2,0.7-3.9-0.1
		C58.8,98.9,57.8,99,57.7,100.4z"/>
	<path class="st112" d="M45.9,104.7c0,0,2.6-1.7,9-1.8c6.4-0.1,9.4,2.1,9.4,2.1s-0.4,0.1-1,0c-0.6-0.1-3.2-1.4-8.6-1.4
		c-5.1,0-7.7,1.5-7.7,1.5S45.7,105.1,45.9,104.7z"/>
	<path class="st112" d="M46.2,77.6c0.1,0.2,1.1,9.5,8.7,9.4c7.6-0.1,9.6-9.3,9.6-9.3l0.7-0.1c0,0-1.5,10.2-10.3,10.1
		c-8.7-0.1-9.5-10.1-9.5-10.1L46.2,77.6z"/>
	<g>
		<g>
			<path class="st112" d="M18.2,16.5c0,0-0.8,2.6-2.4,2.6c-1.3,0-1.9-1.2-2-3.8c-0.1-2.4,0.2-5.2,2-5.3l0.1,0c1.9,0,2.7,2.8,2.7,2.9
				l0.1,0.2h2V6.6h-2l-0.1,0.2c-0.3,0.8-0.6,0.8-0.8,0.8c-0.2,0-0.6-0.1-0.9-0.4c-0.9-0.7-2.3-0.7-2.4-0.7l0,0h-0.1
				c-2.9,0-4.9,2.8-5.2,7.1c-0.1,1.8,0,5,1.9,7.1c1,1.1,2.4,1.7,4.1,1.8c0.1,0,0.1,0,0.2,0c4.7,0,5.5-5.9,5.5-6l0-0.3l-2.6,0
				L18.2,16.5z"/>
			<path class="st112" d="M57.5,16.6l0-0.3l-2.6,0l-0.1,0.2c0,0-0.8,2.6-2.4,2.6c-1.3,0-1.9-1.2-2-3.8c-0.1-2.4,0.2-5.2,2-5.3l0.1,0
				c1.9,0,2.7,2.8,2.7,2.9l0.1,0.2h2V6.6h-2l-0.1,0.2c-0.3,0.8-0.6,0.8-0.8,0.8c-0.2,0-0.6-0.1-0.9-0.4c-0.9-0.7-2.3-0.7-2.4-0.7
				l0,0h-0.1c-2.9,0-4.9,2.8-5.2,7.1c-0.1,1.8,0,5,1.9,7.1c1,1.1,2.4,1.7,4.1,1.8c0.1,0,0.1,0,0.2,0C56.8,22.5,57.5,16.6,57.5,16.6z
				"/>
			<path class="st112" d="M78.5,22.5c6,0,5.9-5.9,5.9-5.9c0.1-1,0-1.9,0-1.9l0-0.2l-5,0v2.4h1.8c0,0.4-0.1,1.2-0.6,1.8
				c-0.3,0.4-0.8,0.5-1.4,0.5c-1.3,0-1.9-1.2-2-3.8c-0.1-2.4,0.2-5.2,2.1-5.3l0.1,0c1.9,0,2.7,2.8,2.7,2.9L82,13h2V6.6h-2L82,6.8
				c-0.3,0.8-0.6,0.8-0.8,0.8c-0.2,0-0.6-0.1-0.9-0.4c-0.9-0.7-2.4-0.7-2.5-0.7h0h-0.1c-2.9,0-4.9,2.8-5.2,7.1
				c-0.2,3.1,0.5,5.7,1.9,7.3C75.5,22,76.8,22.5,78.5,22.5z"/>
			<polygon class="st112" points="44.8,19.5 43.8,19.5 43.8,9.6 44.8,9.6 44.8,6.6 38.3,6.6 38.3,9.6 39.3,9.6 39.3,19.5 38.3,19.5 
				38.3,22.5 44.8,22.5 			"/>
			<polygon class="st112" points="28.2,19.5 27.2,19.5 27.2,15.6 30.8,15.6 30.8,19.5 29.8,19.5 29.8,22.5 36.3,22.5 36.3,19.5 
				35.3,19.5 35.3,9.6 36.3,9.6 36.3,6.6 29.8,6.6 29.8,9.6 30.8,9.6 30.8,13.2 27.2,13.2 27.2,9.6 28.2,9.6 28.2,6.6 21.7,6.6 
				21.7,9.6 22.7,9.6 22.7,19.5 21.7,19.5 21.7,22.5 28.2,22.5 			"/>
			<path class="st112" d="M62.2,22.4l-0.1-2.5l-0.2,0c-0.7,0-0.9-0.2-0.9-0.3c-0.1-0.1,0-0.3,0.1-0.4l0.7-1.6h4.5
				c0.1,0.3,0.2,0.9,0.4,1.6c0.1,0.2,0,0.3,0,0.4C66.4,19.9,66,20,65.9,20l-0.3,0l0.1,2.3h7l-0.1-2.3h-0.3c-0.9,0-1.4-0.9-1.4-0.9
				c0-0.1-2.3-6.6-3-8.5c-0.2-0.5-0.2-0.9-0.1-1.1c0.1-0.1,0.2-0.2,0.4-0.2c0.2,0,0.3,0,0.3,0L69,9.6V6.8l-8.5,0l0,0.2
				c0,0.1-0.2,1.4-0.1,2.3l0,0.2h0.2c0.5,0,0.9,0.1,1,0.3c0.2,0.3,0.1,0.7,0,0.7c0,0.1-2.3,7-3,8.4c-0.5,1-0.9,1.1-1,1.1l-0.4-0.2
				l0.1,2.5H62.2z M65.5,15.3h-3.1c0.4-1,1.2-2.7,1.6-3.7L65.5,15.3z"/>
			<path class="st112" d="M96.3,8.8C95.1,7.6,93.7,7,92.2,7c-2.1,0-3.7,1.3-3.8,1.3c-4.3,4.1-2.9,9.8-0.4,12.5
				c1.1,1.1,2.6,1.8,4.2,1.8c0,0,0,0,0,0c1.7,0,3.4-0.7,4.4-2C98.9,17.6,99.5,12.2,96.3,8.8z M93.4,18.8c-0.3,0.6-0.8,1-1.3,1
				c-0.7,0-1.3-0.5-1.5-1.2c-1.3-4.2-0.2-7.5-0.2-7.6c0-0.1,0.4-1.3,1.4-1.3c1.1,0,1.7,1.4,1.7,1.5C93.6,11.3,94.8,14.4,93.4,18.8z"
				/>
		</g>
		<g>
			<polygon class="st112" points="60.3,37.3 57.4,37.3 57.4,27.3 58.3,27.3 58.3,24.3 51.9,24.3 51.9,27.3 52.9,27.3 52.9,37.3 
				51.9,37.3 51.9,40.2 62.5,40.2 62.5,34.5 60.3,34.5 			"/>
			<polygon class="st112" points="72.4,37.3 69.6,37.3 69.6,27.3 70.5,27.3 70.5,24.3 64,24.3 64,27.3 65,27.3 65,37.3 64,37.3 
				64,40.2 74.7,40.2 74.7,34.5 72.4,34.5 			"/>
			<path class="st112" d="M34.5,31.6c0.6-0.4,1.6-1.5,1.6-3.4c0-2.9-3.2-3.6-4.9-3.6h-7.1v3.1h1.2v9.7H24v2.6H32h0
				c0,0,4-0.3,4.3-3.8C36.7,33.2,35.3,32,34.5,31.6z M29.5,33.3c2.3,0,3.2,0.5,3.2,1.7c0,1.7-1.3,1.8-1.4,1.8h-1.8
				C29.5,35.4,29.5,33.8,29.5,33.3z M32,29.8c-0.4,0.5-1.1,0.5-1.2,0.5l-1.2,0v-2.9c1,0,2.3,0.2,2.5,1C32.2,29,32.2,29.5,32,29.8z"
				/>
			<path class="st112" d="M45,27.2h1.3v7.5c0,0.4-0.1,2.6-2,2.6c-2.1,0-2.3-2.3-2.3-2.4v-7.8h1.3v-2.6h-6.8l0,2.7h1.6v7
				c0,1,0.3,6.2,5.7,6.2c1.5,0,2.6-0.4,3.5-1.3c1.4-1.4,1.5-3.5,1.5-3.9v-7.9h1.6v-2.8H45V27.2z"/>
			<path class="st112" d="M84.9,32.4c-0.6-0.5-2.3-1.6-3.6-2.4c-0.8-0.5-1.4-1.5-1.2-2.1c0.1-0.4,0.5-0.6,1.1-0.7
				c2-0.1,2.8,2.2,2.8,2.2l0.1,0.2h1.7v-5.5h-1.9v0.3c0,0.3,0,0.6-0.1,0.7c0,0.1-0.1,0.1-0.1,0.1c-0.3,0-0.9-0.4-1.3-0.7
				c-1.9-1.2-6-0.3-6.5,3.4c-0.4,2.9,1.9,4.6,4,5.8c1.4,0.8,2.2,1.7,2.1,2.5c0,0.4-0.3,0.7-0.8,0.9c-0.2,0.1-0.4,0.1-0.6,0.1
				c-1.6,0-2.8-2.6-2.8-2.6l-0.1-0.2h-1.8V40h1.5l0-0.3c0-0.5,0.2-0.6,0.6-0.6c0.3,0,0.8,0.1,1.4,0.4c0.5,0.2,1.3,0.4,2,0.4
				c0.7,0,2-0.1,3-0.9c1.1-1.1,1.7-2.4,1.6-3.7C86.1,33.8,85.3,32.7,84.9,32.4z"/>
		</g>
	</g>
</g>
</svg>
