<?xml version="1.0" encoding="utf-8"?>
<!-- Generator: Adobe Illustrator 23.0.1, SVG Export Plug-In . SVG Version: 6.00 Build 0)  -->
<svg version="1.1" id="Capa_1" xmlns="http://www.w3.org/2000/svg" xmlns:xlink="http://www.w3.org/1999/xlink" x="0px" y="0px"
	 viewBox="0 0 122 101.6" style="enable-background:new 0 0 122 101.6;" xml:space="preserve">
<style type="text/css">
	.st0{fill:#175384;}
	.st1{fill:#A0A5AA;}
	.st2{fill:#0B040C;}
	.st3{fill:#FFC727;}
	.st4{fill:#F0545B;}
	.st5{fill:#FFFFFF;}
	.st6{fill:#00A855;}
	.st7{fill:#B4C4C9;}
	.st8{fill:#221A21;}
	.st9{fill:#EF3A47;}
	.st10{fill:url(#SVGID_1_);}
	.st11{fill:url(#SVGID_2_);}
	.st12{fill:url(#SVGID_3_);}
	.st13{fill:url(#SVGID_4_);}
	.st14{fill:url(#SVGID_5_);}
	.st15{fill:url(#SVGID_6_);}
	.st16{fill:url(#SVGID_7_);}
	.st17{fill:url(#SVGID_8_);}
	.st18{fill:url(#SVGID_9_);}
	.st19{fill:url(#SVGID_10_);}
	.st20{fill:url(#SVGID_11_);}
	.st21{fill:url(#SVGID_12_);}
	.st22{fill:#313564;}
	.st23{fill:#F04B41;stroke:#FFFFFF;stroke-width:2.1543;stroke-linecap:round;stroke-linejoin:round;stroke-miterlimit:10;}
	.st24{fill:#007FBA;stroke:#FFFFFF;stroke-width:2.1543;stroke-linecap:round;stroke-linejoin:round;stroke-miterlimit:10;}
	.st25{fill:#313564;stroke:#FFFFFF;stroke-width:2.1543;stroke-linecap:round;stroke-linejoin:round;stroke-miterlimit:10;}
	.st26{fill:#FFFFFF;stroke:#FFFFFF;stroke-width:2.1543;stroke-linecap:round;stroke-linejoin:round;stroke-miterlimit:10;}
	.st27{clip-path:url(#SVGID_14_);}
	.st28{fill:#FBAC36;stroke:#FFFFFF;stroke-width:2.1543;stroke-linecap:round;stroke-linejoin:round;stroke-miterlimit:10;}
	.st29{fill:#F04B41;}
	.st30{fill:#007FBA;}
	.st31{clip-path:url(#SVGID_16_);}
	.st32{fill:#FBAC36;}
	.st33{fill:#2C2F61;}
	.st34{fill:#B7B9BA;}
	.st35{fill:#EF3748;}
	.st36{fill:#8999AC;}
	.st37{fill:#2B2F61;}
	.st38{fill:#EE2C45;}
	.st39{fill:#101624;}
	.st40{fill:#59707A;}
	.st41{fill:#4A3285;}
	.st42{fill:#F79230;}
	.st43{fill:#F15733;}
	.st44{fill:#D7303F;}
	.st45{fill:#FAA832;}
	.st46{fill:#1F1721;}
	.st47{fill:#5F3188;}
	.st48{fill:#EE243D;}
	.st49{fill:#1F4BA0;}
	.st50{fill:#244789;}
	.st51{fill:#FBAE2E;}
	.st52{fill:#006991;}
	.st53{fill:#F9A01B;stroke:#FFFFFF;stroke-width:0.4473;stroke-miterlimit:10;}
	.st54{fill:#FAA533;}
	.st55{fill:#0092BC;}
	.st56{fill:#15182C;}
	.st57{fill:#3E419A;}
	.st58{fill:#101721;}
	.st59{fill:#ADA3A5;}
	.st60{fill:#9CA7AC;}
	.st61{clip-path:url(#SVGID_18_);}
	.st62{clip-path:url(#SVGID_20_);}
	.st63{fill:#F3FAF7;}
	.st64{fill:#2D2F63;}
	.st65{fill:#FAA819;}
	.st66{fill:#FEF6FA;}
	.st67{fill:#004F30;}
	.st68{fill:#A2C7D3;}
	.st69{fill:#EE2E55;}
	.st70{fill:#32366E;}
	.st71{fill:#00ADDC;}
	.st72{fill:#FFFFFF;stroke:#00ACD0;stroke-width:0.2915;stroke-miterlimit:10;}
	.st73{fill:#FFFFFF;stroke:#00ACD0;stroke-width:0.2973;stroke-miterlimit:10;}
	.st74{fill:#450000;}
	.st75{fill:#EE224A;}
	.st76{fill:#0064A5;}
	.st77{fill:#F47736;}
	.st78{fill:#B5BCBF;}
	.st79{fill:#F47B35;}
	.st80{fill:#EE2B52;}
	.st81{fill:#0C060E;}
	.st82{fill:#B58D49;}
	.st83{fill:#C9BBCB;}
	.st84{fill:#BA924C;}
	.st85{fill:#006BAF;}
	.st86{fill:#B3C5CB;}
	.st87{fill:#898C89;}
	.st88{fill:#2E2C61;}
	.st89{fill:#C3C5BD;}
	.st90{fill:#C4D2D9;}
	.st91{fill:#EE284D;}
	.st92{fill:#161212;}
	.st93{fill:#EE274E;}
	.st94{fill:#A2A7AA;}
	.st95{fill:#A6AAAC;}
	.st96{fill:#A1A2AB;}
	.st97{fill:#110B13;}
	.st98{fill:#AFC1C6;}
	.st99{fill:#0067AD;}
	.st100{fill:#FBFBFB;}
	.st101{fill:#0065AF;}
	.st102{fill:#121A26;}
	.st103{fill:#008D4C;}
	.st104{fill:#B43A3D;}
	.st105{fill:#111623;}
	.st106{fill:#AB9048;}
	.st107{fill:#F8A174;}
	.st108{fill:#120B19;}
	.st109{fill:#C59751;}
	.st110{fill:#B33638;}
	.st111{fill:#009154;}
	.st112{fill:#1C2026;}
	.st113{fill:#EE2844;}
	.st114{fill:#30385F;}
	.st115{fill:#3A84B1;}
	.st116{fill:#A3C5D7;}
	.st117{fill:#F9A039;}
	.st118{fill:#B0BEC0;}
	.st119{fill:#231D46;}
	.st120{fill:#FDB840;}
	.st121{fill:#CD2C32;}
	.st122{fill:#272049;}
	.st123{fill:#FEC027;}
	.st124{fill:#ADC7C6;}
	.st125{fill:#014429;}
	.st126{fill:#DF2539;}
	.st127{fill:#F57E30;}
	.st128{fill:#ED1942;}
	.st129{fill:#FEF9FB;}
	.st130{fill:#0065AA;}
	.st131{fill:#A6B5B8;}
	.st132{fill:#0B040C;stroke:#0B040C;stroke-width:0.2716;stroke-miterlimit:10;}
	.st133{fill:#F7F9FD;}
	.st134{fill:none;stroke:#EBF2CC;stroke-width:0.2972;stroke-miterlimit:10;}
	.st135{fill:#48484A;}
	.st136{opacity:0.2;}
	.st137{fill:#EE2E3B;}
	.st138{fill:#005BA6;}
	.st139{fill:#737577;}
	.st140{fill:#A1A0A5;}
	.st141{fill:#272360;}
	.st142{fill:#FAFAFB;}
	.st143{fill:#058BA6;}
	.st144{fill:#DEDBE7;}
	.st145{fill:#B2965B;}
	.st146{fill:#1B305B;}
	.st147{fill:#F9F9FA;}
	.st148{fill:#E12039;}
	.st149{fill:#FEF4F4;}
</style>
<g>
	<g>
		<path class="st69" d="M28.9,23.5c0,0-13.6,16.8-7.6,34.3C24,61.5,31.7,72,58.1,74.6c0-4.2-4.3-12.9-9.1-17.4
			C44.2,52.8,29.9,34.6,28.9,23.5z"/>
		<path class="st69" d="M30.9,20.9c0,0,2.8,15.3,10.4,21.8c7.6,6.6,18.8,22.8,18.5,31.8c5.3-0.3,9,0.1,9,0.1s2-15.7-0.1-36.6
			c-2.1-20.9-8.3-30-8.3-30S41.8,8.5,30.9,20.9z"/>
		<path class="st69" d="M63.1,8.4c0,0,6.7,11.6,8,34.2c1.4,16.5,0.6,28.1,0,31.5c3.6,0,8.3-1.1,8.3-1.1s2.8-9.7,5.7-17.1
			c2.9-7.4,13-15.7,6.2-34C87.2,17.4,77,8.8,63.1,8.4z"/>
		<path class="st69" d="M94.6,26c0,0,2.9,8-0.7,18.5c-5.2,11.2-7.1,15-7.1,15s-4.2,9.4-4.8,12.7c4.5-1,12.3-4.1,15-8
			c2.7-3.9,4.3-22,4.3-22S99.1,30.4,94.6,26z"/>
		<path class="st69" d="M99.1,65.2c0,0-7,7.4-17.5,9.8c-0.7,3.8-0.3,8.4,4.8,6.7C90.4,78.3,95.6,74.2,99.1,65.2z"/>
		<path class="st69" d="M83.6,84.3c0,0-9.4,5.5-16,6c1.8-3.1,3.2-14.3,3.2-14.3l8.1-0.7C78.9,75.3,78,83.7,83.6,84.3z"/>
		<path class="st69" d="M68.6,76.3c0,0-0.1,10.9-4.3,14.3C58.6,90.7,49,90,45,87.7c6.7,0.3,14.3-3.6,15.1-11.2
			C64,76.5,68.6,76.3,68.6,76.3z"/>
		<path class="st69" d="M57.4,76.3c0,0-2.4,12.7-16.5,9.1C34,80.9,26.1,74.8,21.7,61.6C26.1,68.9,37.8,74.5,57.4,76.3z"/>
		<path class="st70" d="M60.9,1.4C34.4,1.4,13,23,13,49.6c0,26.6,21.4,48.2,47.9,48.2c26.4,0,47.9-21.6,47.9-48.2
			C108.7,23,87.3,1.4,60.9,1.4z M60.9,94.2c-24.5,0-44.4-20-44.4-44.7c0-24.7,19.9-44.7,44.4-44.7s44.4,20,44.4,44.7
			C105.3,74.2,85.4,94.2,60.9,94.2z"/>
	</g>
	<path class="st70" d="M115.3,51.2c1.4-0.1,2.4-2.2,2.3-3.7c-0.1-1.5-0.6-1.3-0.6-1.3l-10.6-3.6c0,0-3.3-0.5-4.3,2
		c-0.7,3.1-1.1,7.1-0.5,7.9c0.6,0.8,3.6,3.3,4.7,3.8c1.1,0.5,0.8,3.4,0.8,3.4v1.8l-2.2-0.4l-3.1,0.1l-5.1-20.8l-3.8-0.2l0.2,2.1
		l-6.7-3.5l-2.5,0.3l-0.1,2.5l-11.7-3l-1.1-0.3c0,0-1.4-0.5-4,2.4c-1.7-1.4-13.5-3.1-13.5-3.1l-3,0.5l-11.2,0.8c0,0-1.6,0.8-3.5,3.3
		c-1.5-1.6-7-1.7-7-1.7s-2.2,0.7-2.7,0.9c-0.5,0.2-0.6,1.5-0.6,1.7c0,0.2-18.4,2.6-18.4,2.6L5.1,47c0,0-0.8,4.3,3.3,4.6
		c-0.1,5,0.4,18.1,0.4,18.1s8.5-2.2,8.9-2.5c0.4-0.2,0.4-1.4,0.2-1.9c-0.1-0.5,0.4-7,0.4-7s5.4,0,8.3-4c0,3.4,0,11,0,11l8.8-1.1
		l0.1-2.1l0.4-1.2l0.5,3.3c0,0,6-0.6,8-0.9s5.3-1.1,5.8-4.9c0.5-3.8-2.4-12.2-2.7-12.4c-0.3-0.2-2.7-1.3-2.7-1.3s4.4,0.4,5.6-1.2
		c0,1.2,0,1.2,0,1.2h3.6l0.4,18.1l9.5,0.1v-2.4l-0.1-16.2c0,0,1.2-0.1,2.2-0.9c-0.3,4,0,14.8,0,14.8s-0.1,5,7.1,5.3
		c7.2,0.3,9.2-0.4,10.8-2.3c0,1.7,0,2.4,0,2.4s6.2,0.7,8.6,1.2c2.4,0.5,7.7,1.7,10.1,2.1c2.4,0.4,6.4,1.4,7.2,1.5
		c0.8,0.2,6.1,1.2,6.5-2.7c0.4-3.9-0.6-11.1-0.6-11.1l-4-4C111.5,50.7,113.8,51.3,115.3,51.2z M40.8,57.2l-2.4,0.3l-3,0.5l0.2-8.9
		c0,0.2,1.4,3.2,5.3,3.3C40.9,54.6,40.8,57.2,40.8,57.2z"/>
	<g>
		<path class="st71" d="M26.9,45.6C26.9,45.6,26.9,45.5,26.9,45.6c-0.2-2.7-2.2-4.2-5-3.8C19.7,42.1,8.3,45,7.8,45.1
			c-0.5,0.1-0.8,0.5-0.9,1c-0.1,1.1,0.1,1.9,0.6,2.5c0.5,0.6,1.2,0.7,1.4,0.7l1.3,0.1v17.1c0,0.4,0.2,0.7,0.5,0.9
			c0.2,0.2,0.5,0.2,0.7,0.2c0.1,0,0.2,0,0.3,0l5.4-1.5c0.5-0.1,0.9-0.6,0.9-1.1c0-0.1,0.1-5.4,0.3-8.1c4.3-0.8,7.1-2.2,8.2-4.1
			c0.6-1,0.5-1.8,0.4-2.3V45.6z M19,47.7v3.5c0,0.2,0,0.3,0,0.4c-0.1,0.1-0.1,0.1-0.2,0.2c-0.1,0.1-0.5,0.2-0.9,0.3v-4.2
			C18.3,47.8,18.7,47.7,19,47.7L19,47.7C19,47.7,19,47.7,19,47.7z"/>
		<path class="st71" d="M34.5,39.3l-5.3,1c-0.6,0.1-0.9,0.6-1,1.1l-0.1,21.3c0,0.3,0.2,0.7,0.4,0.9c0.2,0.2,0.5,0.3,0.8,0.3
			c0.1,0,0.1,0,0.2,0l5.4-0.9c0.6-0.1,1-0.6,1-1.2V40.5c0-0.3-0.2-0.7-0.4-0.9C35.2,39.3,34.8,39.2,34.5,39.3z"/>
		<path class="st71" d="M50.4,37.8c-0.3,0-6.2,0.2-9,0.5c-2.7,0.2-4.2,1.8-4.2,4.4v3.6c0,0.2,0.1,3.6,4.9,4.6c0,1.9,0,4.6,0,6.1
			l-3.2,0.4c-0.6,0.1-1,0.6-1,1.2v2.8c0,0.3,0.1,0.7,0.4,0.9c0.2,0.2,0.5,0.3,0.8,0.3c0.1,0,0.1,0,0.2,0l6.7-1
			c1.6-0.1,4.4-1.2,4.6-4.4c0.1-3,0-7.6,0-8.1c0-0.9-0.5-2.6-2.6-3.4c-1.3-0.5-2.4-0.9-3.1-1.1c0-0.3-0.1-0.6-0.1-0.9
			c0-0.1,0-0.1,0-0.2c3.1-0.2,3.4-0.3,3.5-0.3c0.1,0,0.2-0.1,0.4-0.1c1.2-0.3,3.3-0.7,3.1-4.1C51.6,38.3,51.1,37.8,50.4,37.8z"/>
		<path class="st71" d="M67.6,37.9c-0.2-0.3-0.6-0.4-0.9-0.4H53.8c-0.3,0-0.6,0.1-0.8,0.3c-0.2,0.2-0.3,0.5-0.3,0.8l0.1,3.3
			c0,0.6,0.5,1.1,1.2,1.1h2.2v17c0,0.6,0.5,1.1,1.1,1.2l5.7,0.3c0,0,0,0,0.1,0c0.3,0,0.6-0.1,0.8-0.3c0.2-0.2,0.4-0.5,0.4-0.8V43.1
			c2.3-0.6,3.5-2.9,3.7-4.2C67.9,38.5,67.8,38.2,67.6,37.9z"/>
		<path class="st71" d="M78.8,37.9c0,0-0.1,0-0.1,0h-6c-3.6,0-5,3.6-5.2,5.5c0,0,0,0.1,0,0.1c0,0.3-0.4,7.2-0.2,11.7
			c0.1,4.7,3.8,6.2,5.7,6.4c0,0,0,0,0.1,0c0,0,2.9,0.1,6.2,0.1c3.4,0,4.8-2.8,5-4.2c0-0.1,0-0.1,0-0.2c0-0.1,0-10.7-0.1-14.1
			C84.1,39.5,80.6,38.1,78.8,37.9z M76.4,44.2V55c-0.6-0.2-0.8-0.6-0.9-0.7c-0.1-4.2-0.1-8.9-0.1-10.9
			C76.1,43.5,76.4,43.8,76.4,44.2C76.4,44.1,76.4,44.1,76.4,44.2z"/>
		<path class="st71" d="M101.5,41.7l-4.9-1.4c-0.3-0.1-0.7,0-1,0.2s-0.5,0.5-0.5,0.9l-0.2,3.4c-1.5-2.9-4-5.8-8.3-5.9
			c-0.3,0-0.6,0.1-0.8,0.3c-0.2,0.2-0.3,0.5-0.3,0.8v21.4c0,0.6,0.4,1.1,1,1.2l5.3,0.9c0.3,0.1,0.7,0,0.9-0.2
			c0.3-0.2,0.4-0.5,0.4-0.9l0.1-3.7l1.9,4.6c0.1,0.3,0.4,0.6,0.8,0.7l4.7,1.1c0.1,0,0.2,0,0.3,0c0.3,0,0.5-0.1,0.7-0.2
			c0.3-0.2,0.4-0.5,0.5-0.9l0.3-21.1C102.3,42.3,102,41.8,101.5,41.7z"/>
		<path class="st71" d="M113.3,49.7c0.1,0,0.3,0,0.4,0.1c0.4,0.1,0.8,0.1,1.2,0.1c0.8,0,1.4-0.3,1.9-0.8c0.6-0.6,0.8-1.6,0.7-3
			c0-0.5-0.4-0.9-0.9-1l-9.4-2.5c-0.1,0-0.3-0.1-0.7-0.1c-1.2,0-2.6,0.7-2.8,2.7c-0.2,2.1-0.2,4.3-0.2,4.4c0,0.2,0,2.3,1.4,3.3
			c0.7,0.5,2.7,2,3.6,2.6v5.9l-2.9-0.6c-0.3-0.1-0.7,0-1,0.3c-0.3,0.2-0.4,0.6-0.4,0.9l0.1,2.7c0,0.5,0.3,0.9,0.8,1.1
			c0.2,0.1,4.5,1.5,6.3,1.7c0.5,0.1,1,0.1,1.6,0.1c1.2,0,2.1-0.3,2.7-0.9c0.6-0.6,0.8-1.4,0.8-2.4c-0.1-2.3-0.1-8.9-0.1-9
			c0-0.2-0.1-0.4-0.1-0.6c-0.1-0.2-1-1.8-2.2-2.6c-0.7-0.5-2.3-1.9-3.2-2.6l0-0.8l0,0C111.6,49.2,112,49.5,113.3,49.7z"/>
	</g>
	<g>
		<path class="st5" d="M25.7,45.6c-0.1-1.9-1.5-3-3.6-2.6c-2.2,0.3-14,3.3-14,3.3c-0.2,1.9,0.8,1.9,0.8,1.9l2.4,0.1v18.2l5.4-1.5
			c0,0,0.1-6.9,0.4-9c9.8-1.7,8.5-5.2,8.5-5.2V45.6z M20.2,51.2c0,1.1-0.1,0.9-0.5,1.4c-0.5,0.5-2.9,0.9-2.9,0.9v-6.4
			c0,0,1.2-0.5,2-0.6c0.8-0.1,1.4,0.7,1.4,0.7S20.2,50.1,20.2,51.2z"/>
		<polygon class="st5" points="29.3,62.8 34.7,61.8 34.7,40.5 29.4,41.4 		"/>
		<path class="st5" d="M41.5,39.5c-2.3,0.2-3.1,1.4-3.1,3.3c0,1.9,0,3.6,0,3.6s0,3,4.9,3.6c0.1,2.4,0,8.1,0,8.1L39,58.6v2.8l6.8-1
			c0,0,3.4-0.2,3.6-3.3c0.2-3.1,0-8,0-8s0.1-1.6-1.9-2.4c-2-0.8-3.8-1.4-3.8-1.4s-0.2-1-0.2-1.7c0-0.8,0.1-1.3,0.1-1.3
			s4-0.2,4.3-0.3c1.4-0.3,2.7-0.3,2.6-3C50.5,39,44.3,39.2,41.5,39.5z"/>
		<path class="st5" d="M53.9,41.9h3.4v18.2l5.7,0.3V42.1c3,0,3.8-3.5,3.8-3.5H53.8L53.9,41.9z"/>
		<path class="st5" d="M78.7,39c0,0-2.5,0-6,0c-3.5,0-4,4.5-4,4.5s-0.4,7.1-0.2,11.6c0.2,4.9,4.6,5.2,4.6,5.2s2.8,0.1,6.1,0.1
			c3.3,0,3.9-3.3,3.9-3.3s0-10.6-0.1-14.1C82.9,39.5,78.7,39,78.7,39z M77.5,44.2v12.2c-2.7-0.2-3.2-1.9-3.2-1.9S74.1,42,74.4,42
			C77.7,42.1,77.5,44.2,77.5,44.2z"/>
		<path class="st5" d="M95.7,51c0,0-1.5-10.8-9.1-11v21.4l5.3,0.9l0.3-9.1l3.9,9.6l4.7,1.1l0.3-21.1l-4.9-1.4L95.7,51z"/>
		<path class="st5" d="M111,47.6c1,0.5,1.3,0.8,2.5,0.9c1.2,0.2,3.1,0.9,2.8-2.3l-9.3-2.5c0,0-1.9-0.5-2.1,1.6
			c-0.2,2-0.2,4.2-0.2,4.2s0,1.7,0.9,2.4c0.9,0.7,4.1,3,4.1,3v7.9l-4.2-0.8l0.1,2.7c0,0,4.4,1.4,6.1,1.7c1.7,0.2,3.8,0.4,3.7-2
			c-0.1-2.4-0.1-9-0.1-9s-0.8-1.5-1.8-2.2c-1-0.7-3.7-3-3.7-3l-0.2-2.5C109.5,47.6,110,47.1,111,47.6z"/>
	</g>
	<g>
		<g>
			<g>
				<path class="st70" d="M44.1,25.7c-1.8-0.1-4.9,0-6.5,0.4c-0.4,0.1-1.7,0.9-1.7,0.9l0.2,0.9l1.4,0.3l-0.3,7.9
					c0,0,1.7-0.1,3.5-0.4c3.6-0.7,5-3,5-3S44.3,28.4,44.1,25.7z M40.2,34.1v-6.3c1.1-0.2,1.7,0.4,1.7,0.4s0.1,2.9,0.1,4.6
					C41.9,34.4,40.2,34.1,40.2,34.1z"/>
				<polygon class="st70" points="45.7,25.4 45.7,34.9 51.5,34.3 53.3,33.5 48.8,32.8 48.8,31.3 52.4,29.4 50.6,28.8 48.8,28.8 
					48.8,26.9 53,25.5 51.3,25.4 47.9,24.5 				"/>
				<polygon class="st70" points="53,26 54.9,26 55,34 57.6,34 59.3,33.2 58.9,25.8 54.7,23.8 53,24.8 				"/>
				<polygon class="st70" points="81.4,26.6 81.4,27.8 83.4,27.9 83,35.3 86,35.8 87.8,35 87.5,28.1 89.2,27.4 83.1,25.7 				"/>
				<path class="st70" d="M66.7,29.8c0.8-0.2,1-1.8,1-2.5c0-0.7-2.4-3.6-5.5-3.5l-1.7,0.9V34h2.9l1.7-0.8c0,0-0.5-3.7-0.1-2.5
					c0.4,1.2,0.8,3.2,0.8,3.2l2.1,0.1c0,0,1.7-0.5,1.7-0.8C69.5,32.3,67.5,30.4,66.7,29.8z M63.3,28.8V26c0,0,1.4-0.1,1.4,1.4
					C64.7,28.8,63.3,28.8,63.3,28.8z"/>
				<path class="st70" d="M72.5,24.5c0,0-3.4,0.5-3.4,2.6s0,5.5,0,5.5s-0.4,2.1,3.5,2.1c0,0,4.8,0.1,4.8-2.3c0-2.4-1.6-5.4-1.6-5.4
					S76.3,24.5,72.5,24.5z M73.2,31.9c0,0.5-0.2,1-0.8,1c-0.6,0-0.9-0.9-0.9-0.9v-4.8c0,0,0.1-0.8,1-0.7c0.7,0,0.7,0.8,0.7,0.8
					S73.2,31.3,73.2,31.9z"/>
				<polygon class="st70" points="77.6,34.9 79.8,34.9 81.5,34.3 79.3,24.9 77.6,25.9 				"/>
			</g>
		</g>
		<path class="st72" d="M45.8,24.9c-2.3-0.1-8.2,1.3-8.2,1.3l0.2,0.9l1.4,0.3l-0.3,7.9c0,0,1.7-0.1,3.5-0.4c3.6-0.7,3.3-3,3.3-3
			S46,27.6,45.8,24.9z M41.8,33.2V27c1.1-0.2,1.7,0.4,1.7,0.4s0.1,2.9,0.1,4.6S41.8,33.2,41.8,33.2z"/>
		<polygon class="st73" points="47.7,24.6 47.7,33.8 53.2,33.4 53.1,31.6 50.5,31.8 50.4,29.4 52.3,29.3 52.2,27.6 50.5,27.7 
			50.4,25.4 52.8,25.3 52.7,24.4 48,24.6 		"/>
		<polygon class="st72" points="54.7,25.1 56.6,25.1 56.7,33.2 59.3,33.2 59.3,25 60.6,25 60.6,23.9 54.7,23.9 		"/>
		<polygon class="st72" points="83.2,25.7 83.2,26.9 85.4,27 85,34.8 87.5,35 87.8,27.2 89.1,27.3 89.1,26.3 		"/>
		<path class="st72" d="M68.3,28.9c0.8-0.2,1-1.8,1-2.5c0-0.7-0.1-2.8-3.2-2.8l-4,0.1v9.3H65v-4c0,0,1.2-0.5,1.6,0.7
			c0.4,1.2,0.8,3.2,0.8,3.2l2.1,0.1C69.5,33.3,69.4,29.8,68.3,28.9z M65,28v-2.8c0,0,1.4-0.1,1.4,1.4C66.4,28,65,28,65,28z"/>
		<path class="st72" d="M73.8,24.1c0,0-3,0-3,2.1s0,5.5,0,5.5s-0.4,2.1,3.5,2.1c0,0,3.1,0.3,3.1-2.1c0-2.4,0-5.6,0-5.6
			S77.6,24.1,73.8,24.1z M74.9,31.1c0,0.5-0.2,1-0.8,1c-0.6,0-0.9-0.9-0.9-0.9v-4.8c0,0,0.1-0.8,1-0.7c0.7,0,0.7,0.8,0.7,0.8
			S74.9,30.5,74.9,31.1z"/>
		
			<rect x="75.8" y="28.4" transform="matrix(2.145976e-02 -0.9998 0.9998 2.145976e-02 49.0612 109.2799)" class="st72" width="9.1" height="2.3"/>
	</g>
</g>
</svg>
