<?xml version="1.0" encoding="utf-8"?>
<!-- Generator: Adobe Illustrator 23.0.1, SVG Export Plug-In . SVG Version: 6.00 Build 0)  -->
<svg version="1.1" id="Capa_1" xmlns="http://www.w3.org/2000/svg" xmlns:xlink="http://www.w3.org/1999/xlink" x="0px" y="0px"
	 viewBox="0 0 156.3 85.1" style="enable-background:new 0 0 156.3 85.1;" xml:space="preserve">
<style type="text/css">
	.st0{fill:#175384;}
	.st1{fill:#A0A5AA;}
	.st2{fill:#0B040C;}
	.st3{fill:#FFC727;}
	.st4{fill:#F0545B;}
	.st5{fill:#FFFFFF;}
	.st6{fill:#00A855;}
	.st7{fill:#B4C4C9;}
	.st8{fill:#221A21;}
	.st9{fill:#EF3A47;}
	.st10{fill:url(#SVGID_1_);}
	.st11{fill:url(#SVGID_2_);}
	.st12{fill:url(#SVGID_3_);}
	.st13{fill:url(#SVGID_4_);}
	.st14{fill:url(#SVGID_5_);}
	.st15{fill:url(#SVGID_6_);}
	.st16{fill:url(#SVGID_7_);}
	.st17{fill:url(#SVGID_8_);}
	.st18{fill:url(#SVGID_9_);}
	.st19{fill:url(#SVGID_10_);}
	.st20{fill:url(#SVGID_11_);}
	.st21{fill:url(#SVGID_12_);}
	.st22{fill:#313564;}
	.st23{fill:#F04B41;stroke:#FFFFFF;stroke-width:2.1543;stroke-linecap:round;stroke-linejoin:round;stroke-miterlimit:10;}
	.st24{fill:#007FBA;stroke:#FFFFFF;stroke-width:2.1543;stroke-linecap:round;stroke-linejoin:round;stroke-miterlimit:10;}
	.st25{fill:#313564;stroke:#FFFFFF;stroke-width:2.1543;stroke-linecap:round;stroke-linejoin:round;stroke-miterlimit:10;}
	.st26{fill:#FFFFFF;stroke:#FFFFFF;stroke-width:2.1543;stroke-linecap:round;stroke-linejoin:round;stroke-miterlimit:10;}
	.st27{clip-path:url(#SVGID_14_);}
	.st28{fill:#FBAC36;stroke:#FFFFFF;stroke-width:2.1543;stroke-linecap:round;stroke-linejoin:round;stroke-miterlimit:10;}
	.st29{fill:#F04B41;}
	.st30{fill:#007FBA;}
	.st31{clip-path:url(#SVGID_16_);}
	.st32{fill:#FBAC36;}
	.st33{fill:#2C2F61;}
	.st34{fill:#B7B9BA;}
	.st35{fill:#EF3748;}
	.st36{fill:#8999AC;}
	.st37{fill:#2B2F61;}
	.st38{fill:#EE2C45;}
	.st39{fill:#101624;}
	.st40{fill:#59707A;}
	.st41{fill:#4A3285;}
	.st42{fill:#F79230;}
	.st43{fill:#F15733;}
	.st44{fill:#D7303F;}
	.st45{fill:#FAA832;}
	.st46{fill:#1F1721;}
	.st47{fill:#5F3188;}
	.st48{fill:#EE243D;}
	.st49{fill:#1F4BA0;}
	.st50{fill:#244789;}
	.st51{fill:#FBAE2E;}
	.st52{fill:#006991;}
	.st53{fill:#F9A01B;stroke:#FFFFFF;stroke-width:0.4473;stroke-miterlimit:10;}
	.st54{fill:#FAA533;}
	.st55{fill:#0092BC;}
	.st56{fill:#15182C;}
	.st57{fill:#3E419A;}
	.st58{fill:#101721;}
	.st59{fill:#ADA3A5;}
	.st60{fill:#9CA7AC;}
	.st61{clip-path:url(#SVGID_18_);}
	.st62{clip-path:url(#SVGID_20_);}
	.st63{fill:#F3FAF7;}
	.st64{fill:#2D2F63;}
	.st65{fill:#FAA819;}
	.st66{fill:#FEF6FA;}
	.st67{fill:#004F30;}
	.st68{fill:#A2C7D3;}
	.st69{fill:#EE2E55;}
	.st70{fill:#32366E;}
	.st71{fill:#00ADDC;}
	.st72{fill:#FFFFFF;stroke:#00ACD0;stroke-width:0.2915;stroke-miterlimit:10;}
	.st73{fill:#FFFFFF;stroke:#00ACD0;stroke-width:0.2973;stroke-miterlimit:10;}
	.st74{fill:#450000;}
	.st75{fill:#EE224A;}
	.st76{fill:#0064A5;}
	.st77{fill:#F47736;}
	.st78{fill:#B5BCBF;}
	.st79{fill:#F47B35;}
	.st80{fill:#EE2B52;}
	.st81{fill:#0C060E;}
	.st82{fill:#B58D49;}
	.st83{fill:#C9BBCB;}
	.st84{fill:#BA924C;}
	.st85{fill:#006BAF;}
	.st86{fill:#B3C5CB;}
	.st87{fill:#898C89;}
	.st88{fill:#2E2C61;}
	.st89{fill:#C3C5BD;}
	.st90{fill:#C4D2D9;}
	.st91{fill:#EE284D;}
	.st92{fill:#161212;}
	.st93{fill:#EE274E;}
	.st94{fill:#A2A7AA;}
	.st95{fill:#A6AAAC;}
	.st96{fill:#A1A2AB;}
	.st97{fill:#110B13;}
	.st98{fill:#AFC1C6;}
	.st99{fill:#0067AD;}
	.st100{fill:#FBFBFB;}
	.st101{fill:#0065AF;}
	.st102{fill:#121A26;}
	.st103{fill:#008D4C;}
	.st104{fill:#B43A3D;}
	.st105{fill:#111623;}
	.st106{fill:#AB9048;}
	.st107{fill:#F8A174;}
	.st108{fill:#120B19;}
	.st109{fill:#C59751;}
	.st110{fill:#B33638;}
	.st111{fill:#009154;}
	.st112{fill:#1C2026;}
	.st113{fill:#EE2844;}
	.st114{fill:#30385F;}
	.st115{fill:#3A84B1;}
	.st116{fill:#A3C5D7;}
	.st117{fill:#F9A039;}
	.st118{fill:#B0BEC0;}
	.st119{fill:#231D46;}
	.st120{fill:#FDB840;}
	.st121{fill:#CD2C32;}
	.st122{fill:#272049;}
	.st123{fill:#FEC027;}
	.st124{fill:#ADC7C6;}
	.st125{fill:#014429;}
	.st126{fill:#DF2539;}
	.st127{fill:#F57E30;}
	.st128{fill:#ED1942;}
	.st129{fill:#FEF9FB;}
	.st130{fill:#0065AA;}
	.st131{fill:#A6B5B8;}
	.st132{fill:#0B040C;stroke:#0B040C;stroke-width:0.2716;stroke-miterlimit:10;}
	.st133{fill:#F7F9FD;}
	.st134{fill:none;stroke:#EBF2CC;stroke-width:0.2972;stroke-miterlimit:10;}
	.st135{fill:#48484A;}
	.st136{opacity:0.2;}
	.st137{fill:#EE2E3B;}
	.st138{fill:#005BA6;}
	.st139{fill:#737577;}
	.st140{fill:#A1A0A5;}
	.st141{fill:#272360;}
	.st142{fill:#FAFAFB;}
	.st143{fill:#058BA6;}
	.st144{fill:#DEDBE7;}
	.st145{fill:#B2965B;}
	.st146{fill:#1B305B;}
	.st147{fill:#F9F9FA;}
	.st148{fill:#E12039;}
	.st149{fill:#FEF4F4;}
</style>
<g>
	<g>
		<path class="st74" d="M87.3,42.6c0.1-4.1,0-7.1,0-7.1s0.4-4.2-6.1-4.1c6-2.2,7.9-5.9,7.9-9.7c0-3.8-4.6-6.9-17.5-6.3
			c-0.2-2.9-1.3-9.1-2-10.4c0,0-2.2,8.4-2.4,11.4c-5.6,0.7-10.8,2.2-10.8,2.2l10.4-0.4v33.3c0,0-7.4-1-9.9-2
			c-2.5-1.1-9.7-4.6,8.3-6.5c-9.3,0.1-18.3,1.4-18.2,5C47,51.6,67,53.7,67,53.7v14.3l0.8-9.5c0,0,0.7-2.3,0.8,0.6
			c0.1,2.9,1,14.4,1,14.4l0.2-12c0,0,0.6-2.2,1,0.5c0.4,2.6,0.8,13.3,0.8,13.3l0.6-20.9l9.2-0.2l0.2,22.2l0.8-11.6
			c0,0,0.5-2.9,0.8,0.5c0.4,3.4,0.6,16.3,0.6,15.9c0-0.4,0.7-14.5,0.7-14.5s0.8-2.3,1,0.7c0.1,3,0.8,14.3,0.8,14.3l0.7-27.7
			c0,0,5.9,0.1,12.5-1.8c6.6-1.9,7.5-3.1,7.7-4.7C107.5,45.9,100.8,42.4,87.3,42.6z M72.7,18.8C85,19.3,83.6,26.3,81,29.1
			c-2.5,2.8-8.4,2.8-8.4,2.8V18.8z M72.5,51.9l0.1-18.5c9.6-0.4,8.5,5,8.5,5l0.1,13.3L72.5,51.9z M96.6,50c-5,1.1-9.5,1.2-9.5,1.2
			v-7.5c0,0,6.7-0.2,10.9,1.2C102.3,46.2,101.7,48.9,96.6,50z"/>
		<g>
			<g>
				<path class="st74" d="M4.8,26.4v11.7H6v-5h3.7v5.1h1.5c0,0,0.2-10.1-1.1-12.2c0,2-0.1,6.1-0.1,6.1H6v-5.7L4.8,26.4z"/>
				<path class="st74" d="M19.7,29.2c0,0-0.2-2.1-3.1-2.1c0,0-2.7-0.1-2.7,2.6c0,2.7,0,6.6,0,6.6s-0.1,2.2,2.8,2
					c2.8-0.2,3-1.5,3-2.7C19.8,34.5,19.7,29.2,19.7,29.2z M18.5,35.4c0,1.2-0.3,2.1-1.8,2.1c-1.5,0-1.4-1.9-1.4-1.9V29
					c0,0,0.1-1.2,1.5-1.2c1.7,0,1.7,1.9,1.7,1.9S18.5,34.2,18.5,35.4z"/>
				<path class="st74" d="M53.4,29.2c0,0-0.2-2.1-3.1-2.1c0,0-2.7-0.1-2.7,2.6c0,2.7,0,6.6,0,6.6s-0.1,2.2,2.8,2
					c2.8-0.2,3-1.5,3-2.7C53.5,34.5,53.4,29.2,53.4,29.2z M52.2,35.4c0,1.2-0.4,2.1-1.8,2.1s-1.4-1.9-1.4-1.9V29
					c0,0,0.1-1.2,1.5-1.2c1.7,0,1.7,1.9,1.7,1.9S52.2,34.2,52.2,35.4z"/>
				<path class="st74" d="M106.8,29.2c0,0-0.2-2.1-3.1-2.1c0,0-2.7-0.1-2.7,2.6c0,2.7,0,6.6,0,6.6s-0.1,2.2,2.8,2
					c2.8-0.2,3-1.5,3-2.7C106.8,34.5,106.8,29.2,106.8,29.2z M105.5,35.4c0,1.2-0.3,2.1-1.8,2.1c-1.5,0-1.4-1.9-1.4-1.9V29
					c0,0,0.1-1.2,1.5-1.2c1.7,0,1.7,1.9,1.7,1.9S105.5,34.2,105.5,35.4z"/>
				<path class="st74" d="M22.2,27.1c0,0,0.3,6.3,0.2,7.5c0,1.2-0.1,3.6,2.8,3.5c3-0.1,3.1-1.7,3.1-2.6c0-0.9,0.1-8.3,0.1-8.3
					s-1.4,0-1.5,2.8c-0.1,2.7-0.1,6.8-0.1,6.8s-0.4,0.9-1.6,0.8c-1.2-0.1-1.7-0.4-1.7-1.6c0-1.2,0.1-6.4,0.1-6.4
					S23.8,27.8,22.2,27.1z"/>
				<path class="st74" d="M36.4,29.6c0,0-0.7-2-2.3-2c-1.6,0-1.9,0.7-1.9,2.4c0,1.6,0.8,1.6,1.6,1.6c0.8,0,3.3,0,3.5,2
					c0.2,1.8,0,4.5-2.3,4.5c-2.3,0-2.1,0-2.1,0S31,38.5,31,35.1h1.3c0,0-0.4,2.5,1.6,2.5h1.1c0,0,0.6,0.1,0.6-0.9c0-1,0-2.9,0-2.9
					s0.1-1.3-1.8-1.3c-1.5,0-3,0.1-3.1-1.9c-0.2-2,0.3-3.6,3.1-3.6c2.8,0,3.3,1.1,3.3,1.1L36.4,29.6z"/>
				<path class="st74" d="M148.7,29.6c0,0-0.7-2-2.3-2c-1.6,0-1.9,0.7-1.9,2.4c0,1.6,0.8,1.6,1.6,1.6c0.8,0,3.3,0,3.5,2
					c0.2,1.8,0,4.5-2.3,4.5c-2.3,0-2.1,0-2.1,0s-1.9,0.3-1.9-3.1h1.3c0,0-0.4,2.5,1.6,2.5h1.1c0,0,0.6,0.1,0.6-0.9c0-1,0-2.9,0-2.9
					s0.1-1.3-1.8-1.3c-1.5,0-3,0.1-3.1-1.9c-0.2-2,0.3-3.6,3.1-3.6c2.8,0,3.3,1.1,3.3,1.1L148.7,29.6z"/>
				<path class="st74" d="M38.4,27.7H46c0,0-1.3,1.2-3.1,1.4c0,1.9,0,9.1,0,9.1h-1.2c0,0-0.8,0.3-0.8-2.9c0-3.3,0-6.3,0-6.3h-2.7
					L38.4,27.7z"/>
				<path class="st74" d="M134.5,27.7h7.7c0,0-1.3,1.2-3.1,1.4c0,1.9,0,9.1,0,9.1h-1.2c0,0-0.8,0.3-0.8-2.9c0-3.3,0-6.3,0-6.3h-2.7
					L134.5,27.7z"/>
				<path class="st74" d="M56.2,38.5v-11l4.9,5.7l0.4-7.1c0,0,1,1.3,0.9,4.6s-0.1,7.8-0.1,7.8l-4.8-6.2l-0.3,3.7
					C57.3,35.9,57.1,37.9,56.2,38.5z"/>
				<path class="st74" d="M90.7,27.8c0.3,0.1,1.4,0,1.4,0v10.7c0,0,1.4-0.3,1.4-1.4c0-2,0-9.1,0-9.1s2.7-0.3,3.1,1.7
					c0.1,1-0.6,2.4-1.8,2.6c1.1,0.4,1.7,0.2,1.7,1.8c0,1.6-0.2,4.3,1.4,4.4c-0.1-1.5,0-3,0-5.3c0,0,0.2-1-1-1.3
					c1-0.6,1.8-1.7,1.3-3.2c-0.5-1.8-5-1.7-5-1.7v-1.9c0,0-1.1,1-1.2,1.8C91.6,27.1,90.7,27.8,90.7,27.8z"/>
				<path class="st74" d="M114.5,30c0,0,0-1.8-1.6-1.8s-1.8,1.4-1.8,2.2s0,5.3,0,5.3s0,1.9,1.7,1.9c1.8,0,1.6-1.9,1.6-1.9h1.8
					c0,0-0.4,2.5-3.5,2.5c-3.1,0-3.1-2.3-3.1-4.2c0-1.9,0-4.4,0-4.4s-0.2-2.3,3.2-2.3c3.3,0,3.5,2.1,3.5,2.1S115,29.5,114.5,30z"/>
				<path class="st74" d="M118.4,26.1c-0.1,0,0.2,12.2,0.2,12.2s1.5-0.5,1.4-4.8c2,2.5,3.8,4.6,3.8,4.6h1.6l-3.9-5.4
					c0,0,0-0.8,0.9-2.1c0.8-1.1,2.5-3.4,2.5-3.4h-1l-4,4.7l0-3.3C119.8,28.6,119.3,26.4,118.4,26.1z"/>
				<path class="st74" d="M133.1,28.1c0,0-0.4-0.9-1.8-0.9c-1.4,0-1.9,0-1.9,0s-2.1,0-2.1,2.9c0,2.9,0,6.2,0,6.2s-0.1,2.1,2.1,1.9
					h2.4c0,0,0.9-0.2,1.6-1.2c-0.5,0-3.3,0-3.6,0c-0.3,0-1.1-0.4-1.1-1.3c0-0.9,0-3,0-3h3.9c0,0-0.9-1-2-1c-1.1,0-2.1,0.1-2,0
					c0.1-0.1,0.1-3.5,0.1-3.5L133.1,28.1z"/>
			</g>
		</g>
	</g>
	<g>
		<path class="st75" d="M87.3,42c0.1-4.1,0-7.1,0-7.1s0.4-4.2-6.1-4.1c6-2.2,7.9-5.9,7.9-9.7c0-3.8-4.6-6.9-17.5-6.3
			c-0.2-2.9-1.3-9.1-2-10.4c0,0-2.2,8.4-2.4,11.4c-5.6,0.7-10.8,2.2-10.8,2.2l10.4-0.4v33.3c0,0-7.4-1-9.9-2
			c-2.5-1.1-9.7-4.6,8.3-6.5c-9.3,0.1-18.3,1.4-18.2,5C47,51,67,53,67,53v14.3l0.8-9.5c0,0,0.7-2.3,0.8,0.6c0.1,2.9,1,14.4,1,14.4
			l0.2-12c0,0,0.6-2.2,1,0.5c0.4,2.6,0.8,13.3,0.8,13.3l0.6-20.9l9.2-0.2l0.2,22.2L82.6,64c0,0,0.5-2.9,0.8,0.5
			c0.4,3.4,0.6,16.3,0.6,15.9c0-0.4,0.7-14.5,0.7-14.5s0.8-2.3,1,0.7c0.1,3,0.8,14.3,0.8,14.3l0.7-27.7c0,0,5.9,0.1,12.5-1.8
			c6.6-1.9,7.5-3.1,7.7-4.7C107.5,45.2,100.8,41.7,87.3,42z M72.7,18.1C85,18.6,83.6,25.7,81,28.4c-2.5,2.8-8.4,2.8-8.4,2.8V18.1z
			 M72.5,51.2l0.1-18.5c9.6-0.4,8.5,5,8.5,5l0.1,13.3L72.5,51.2z M96.6,49.3c-5,1.1-9.5,1.2-9.5,1.2v-7.6c0,0,6.7-0.2,10.9,1.2
			C102.3,45.6,101.7,48.2,96.6,49.3z"/>
		<g>
			<g>
				<path class="st75" d="M4.8,25.8v11.7H6v-5h3.7v5.1h1.5c0,0,0.2-10.1-1.1-12.2c0,2-0.1,6.1-0.1,6.1H6v-5.7L4.8,25.8z"/>
				<path class="st75" d="M19.7,28.5c0,0-0.2-2.1-3.1-2.1c0,0-2.7-0.1-2.7,2.6s0,6.6,0,6.6s-0.1,2.2,2.8,2c2.8-0.2,3-1.5,3-2.7
					C19.8,33.8,19.7,28.5,19.7,28.5z M18.5,34.7c0,1.2-0.3,2.1-1.8,2.1c-1.5,0-1.4-1.9-1.4-1.9v-6.6c0,0,0.1-1.2,1.5-1.2
					c1.7,0,1.7,1.9,1.7,1.9S18.5,33.5,18.5,34.7z"/>
				<path class="st75" d="M53.4,28.5c0,0-0.2-2.1-3.1-2.1c0,0-2.7-0.1-2.7,2.6s0,6.6,0,6.6s-0.1,2.2,2.8,2c2.8-0.2,3-1.5,3-2.7
					C53.5,33.8,53.4,28.5,53.4,28.5z M52.2,34.7c0,1.2-0.4,2.1-1.8,2.1s-1.4-1.9-1.4-1.9v-6.6c0,0,0.1-1.2,1.5-1.2
					c1.7,0,1.7,1.9,1.7,1.9S52.2,33.5,52.2,34.7z"/>
				<path class="st75" d="M106.8,28.5c0,0-0.2-2.1-3.1-2.1c0,0-2.7-0.1-2.7,2.6s0,6.6,0,6.6s-0.1,2.2,2.8,2c2.8-0.2,3-1.5,3-2.7
					C106.8,33.8,106.8,28.5,106.8,28.5z M105.5,34.7c0,1.2-0.3,2.1-1.8,2.1c-1.5,0-1.4-1.9-1.4-1.9v-6.6c0,0,0.1-1.2,1.5-1.2
					c1.7,0,1.7,1.9,1.7,1.9S105.5,33.5,105.5,34.7z"/>
				<path class="st75" d="M22.2,26.4c0,0,0.3,6.3,0.2,7.5c0,1.2-0.1,3.6,2.8,3.5c3-0.1,3.1-1.7,3.1-2.6c0-0.9,0.1-8.3,0.1-8.3
					s-1.4,0-1.5,2.8c-0.1,2.7-0.1,6.7-0.1,6.7s-0.4,0.9-1.6,0.8c-1.2-0.1-1.7-0.4-1.7-1.6c0-1.2,0.1-6.4,0.1-6.4
					S23.8,27.2,22.2,26.4z"/>
				<path class="st75" d="M36.4,29c0,0-0.7-2-2.3-2c-1.6,0-1.9,0.7-1.9,2.4c0,1.6,0.8,1.6,1.6,1.6c0.8,0,3.3,0,3.5,2
					c0.2,1.8,0,4.5-2.3,4.5c-2.3,0-2.1,0-2.1,0S31,37.8,31,34.4h1.3c0,0-0.4,2.5,1.6,2.5h1.1c0,0,0.6,0.1,0.6-0.9c0-1,0-2.9,0-2.9
					s0.1-1.3-1.8-1.3c-1.5,0-3,0.1-3.1-1.9c-0.2-2,0.3-3.6,3.1-3.6c2.8,0,3.3,1.1,3.3,1.1L36.4,29z"/>
				<path class="st75" d="M148.7,29c0,0-0.7-2-2.3-2c-1.6,0-1.9,0.7-1.9,2.4c0,1.6,0.8,1.6,1.6,1.6c0.8,0,3.3,0,3.5,2
					c0.2,1.8,0,4.5-2.3,4.5c-2.3,0-2.1,0-2.1,0s-1.9,0.3-1.9-3.1h1.3c0,0-0.4,2.5,1.6,2.5h1.1c0,0,0.6,0.1,0.6-0.9c0-1,0-2.9,0-2.9
					s0.1-1.3-1.8-1.3c-1.5,0-3,0.1-3.1-1.9c-0.2-2,0.3-3.6,3.1-3.6c2.8,0,3.3,1.1,3.3,1.1L148.7,29z"/>
				<path class="st75" d="M38.4,27.1H46c0,0-1.3,1.2-3.1,1.4c0,1.9,0,9.1,0,9.1h-1.2c0,0-0.8,0.4-0.8-2.9c0-3.3,0-6.3,0-6.3h-2.7
					L38.4,27.1z"/>
				<path class="st75" d="M134.5,27.1h7.7c0,0-1.3,1.2-3.1,1.4c0,1.9,0,9.1,0,9.1h-1.2c0,0-0.8,0.4-0.8-2.9c0-3.3,0-6.3,0-6.3h-2.7
					L134.5,27.1z"/>
				<path class="st75" d="M56.2,37.8v-11l4.9,5.7l0.4-7.1c0,0,1,1.3,0.9,4.6s-0.1,7.8-0.1,7.8l-4.8-6.2l-0.3,3.7
					C57.3,35.2,57.1,37.3,56.2,37.8z"/>
				<path class="st75" d="M90.7,27.2c0.3,0.1,1.4,0,1.4,0v10.7c0,0,1.4-0.3,1.4-1.4c0-2,0-9.1,0-9.1s2.7-0.3,3.1,1.7
					c0.1,1-0.6,2.4-1.8,2.6c1.1,0.4,1.7,0.2,1.7,1.8c0,1.6-0.2,4.3,1.4,4.4c-0.1-1.5,0-3,0-5.3c0,0,0.2-1-1-1.3
					c1-0.6,1.8-1.7,1.3-3.2c-0.5-1.8-5-1.7-5-1.7v-1.9c0,0-1.1,1-1.2,1.8C91.6,26.5,90.7,27.2,90.7,27.2z"/>
				<path class="st75" d="M114.5,29.3c0,0,0-1.8-1.6-1.8s-1.8,1.4-1.8,2.2c0,0.7,0,5.3,0,5.3s0,1.9,1.7,1.9c1.8,0,1.6-1.9,1.6-1.9
					h1.8c0,0-0.4,2.5-3.5,2.5c-3.1,0-3.1-2.3-3.1-4.2c0-1.9,0-4.4,0-4.4s-0.2-2.3,3.2-2.3c3.3,0,3.5,2.1,3.5,2.1
					S115,28.8,114.5,29.3z"/>
				<path class="st75" d="M118.4,25.4c-0.1,0,0.2,12.2,0.2,12.2s1.5-0.5,1.4-4.8c2,2.5,3.8,4.6,3.8,4.6h1.6l-3.9-5.4
					c0,0,0-0.8,0.9-2.1c0.8-1.1,2.5-3.4,2.5-3.4h-1l-4,4.7l0-3.3C119.8,27.9,119.3,25.8,118.4,25.4z"/>
				<path class="st75" d="M133.1,27.5c0,0-0.4-0.9-1.8-0.9c-1.4,0-1.9,0-1.9,0s-2.1,0-2.1,2.9c0,2.9,0,6.2,0,6.2s-0.1,2.1,2.1,1.9
					h2.4c0,0,0.9-0.2,1.6-1.1c-0.5,0-3.3,0-3.6,0c-0.3,0-1.1-0.4-1.1-1.3c0-0.9,0-3,0-3h3.9c0,0-0.9-1-2-1c-1.1,0-2.1,0.1-2,0
					c0.1-0.1,0.1-3.5,0.1-3.5L133.1,27.5z"/>
			</g>
		</g>
	</g>
</g>
</svg>
