<?xml version="1.0" encoding="utf-8"?>
<!-- Generator: Adobe Illustrator 23.0.1, SVG Export Plug-In . SVG Version: 6.00 Build 0)  -->
<svg version="1.1" id="Capa_1" xmlns="http://www.w3.org/2000/svg" xmlns:xlink="http://www.w3.org/1999/xlink" x="0px" y="0px"
	 viewBox="0 0 106.9 90.5" style="enable-background:new 0 0 106.9 90.5;" xml:space="preserve">
<style type="text/css">
	.st0{fill:#175384;}
	.st1{fill:#A0A5AA;}
	.st2{fill:#0B040C;}
	.st3{fill:#FFC727;}
	.st4{fill:#F0545B;}
	.st5{fill:#FFFFFF;}
	.st6{fill:#00A855;}
	.st7{fill:#B4C4C9;}
	.st8{fill:#221A21;}
	.st9{fill:#EF3A47;}
	.st10{fill:url(#SVGID_1_);}
	.st11{fill:url(#SVGID_2_);}
	.st12{fill:url(#SVGID_3_);}
	.st13{fill:url(#SVGID_4_);}
	.st14{fill:url(#SVGID_5_);}
	.st15{fill:url(#SVGID_6_);}
	.st16{fill:url(#SVGID_7_);}
	.st17{fill:url(#SVGID_8_);}
	.st18{fill:url(#SVGID_9_);}
	.st19{fill:url(#SVGID_10_);}
	.st20{fill:url(#SVGID_11_);}
	.st21{fill:url(#SVGID_12_);}
	.st22{fill:#313564;}
	.st23{fill:#F04B41;stroke:#FFFFFF;stroke-width:2.1543;stroke-linecap:round;stroke-linejoin:round;stroke-miterlimit:10;}
	.st24{fill:#007FBA;stroke:#FFFFFF;stroke-width:2.1543;stroke-linecap:round;stroke-linejoin:round;stroke-miterlimit:10;}
	.st25{fill:#313564;stroke:#FFFFFF;stroke-width:2.1543;stroke-linecap:round;stroke-linejoin:round;stroke-miterlimit:10;}
	.st26{fill:#FFFFFF;stroke:#FFFFFF;stroke-width:2.1543;stroke-linecap:round;stroke-linejoin:round;stroke-miterlimit:10;}
	.st27{clip-path:url(#SVGID_14_);}
	.st28{fill:#FBAC36;stroke:#FFFFFF;stroke-width:2.1543;stroke-linecap:round;stroke-linejoin:round;stroke-miterlimit:10;}
	.st29{fill:#F04B41;}
	.st30{fill:#007FBA;}
	.st31{clip-path:url(#SVGID_16_);}
	.st32{fill:#FBAC36;}
	.st33{fill:#2C2F61;}
	.st34{fill:#B7B9BA;}
	.st35{fill:#EF3748;}
	.st36{fill:#8999AC;}
	.st37{fill:#2B2F61;}
	.st38{fill:#EE2C45;}
	.st39{fill:#101624;}
	.st40{fill:#59707A;}
	.st41{fill:#4A3285;}
	.st42{fill:#F79230;}
	.st43{fill:#F15733;}
	.st44{fill:#D7303F;}
	.st45{fill:#FAA832;}
	.st46{fill:#1F1721;}
	.st47{fill:#5F3188;}
	.st48{fill:#EE243D;}
	.st49{fill:#1F4BA0;}
	.st50{fill:#244789;}
	.st51{fill:#FBAE2E;}
	.st52{fill:#006991;}
	.st53{fill:#F9A01B;stroke:#FFFFFF;stroke-width:0.4473;stroke-miterlimit:10;}
	.st54{fill:#FAA533;}
	.st55{fill:#0092BC;}
	.st56{fill:#15182C;}
	.st57{fill:#3E419A;}
	.st58{fill:#101721;}
	.st59{fill:#ADA3A5;}
	.st60{fill:#9CA7AC;}
	.st61{clip-path:url(#SVGID_18_);}
	.st62{clip-path:url(#SVGID_20_);}
	.st63{fill:#F3FAF7;}
	.st64{fill:#2D2F63;}
	.st65{fill:#FAA819;}
	.st66{fill:#FEF6FA;}
	.st67{fill:#004F30;}
	.st68{fill:#A2C7D3;}
	.st69{fill:#EE2E55;}
	.st70{fill:#32366E;}
	.st71{fill:#00ADDC;}
	.st72{fill:#FFFFFF;stroke:#00ACD0;stroke-width:0.2915;stroke-miterlimit:10;}
	.st73{fill:#FFFFFF;stroke:#00ACD0;stroke-width:0.2973;stroke-miterlimit:10;}
	.st74{fill:#450000;}
	.st75{fill:#EE224A;}
	.st76{fill:#0064A5;}
	.st77{fill:#F47736;}
	.st78{fill:#B5BCBF;}
	.st79{fill:#F47B35;}
	.st80{fill:#EE2B52;}
	.st81{fill:#0C060E;}
	.st82{fill:#B58D49;}
	.st83{fill:#C9BBCB;}
	.st84{fill:#BA924C;}
	.st85{fill:#006BAF;}
	.st86{fill:#B3C5CB;}
	.st87{fill:#898C89;}
	.st88{fill:#2E2C61;}
	.st89{fill:#C3C5BD;}
	.st90{fill:#C4D2D9;}
	.st91{fill:#EE284D;}
	.st92{fill:#161212;}
	.st93{fill:#EE274E;}
	.st94{fill:#A2A7AA;}
	.st95{fill:#A6AAAC;}
	.st96{fill:#A1A2AB;}
	.st97{fill:#110B13;}
	.st98{fill:#AFC1C6;}
	.st99{fill:#0067AD;}
	.st100{fill:#FBFBFB;}
	.st101{fill:#0065AF;}
	.st102{fill:#121A26;}
	.st103{fill:#008D4C;}
	.st104{fill:#B43A3D;}
	.st105{fill:#111623;}
	.st106{fill:#AB9048;}
	.st107{fill:#F8A174;}
	.st108{fill:#120B19;}
	.st109{fill:#C59751;}
	.st110{fill:#B33638;}
	.st111{fill:#009154;}
	.st112{fill:#1C2026;}
	.st113{fill:#EE2844;}
	.st114{fill:#30385F;}
	.st115{fill:#3A84B1;}
	.st116{fill:#A3C5D7;}
	.st117{fill:#F9A039;}
	.st118{fill:#B0BEC0;}
	.st119{fill:#231D46;}
	.st120{fill:#FDB840;}
	.st121{fill:#CD2C32;}
	.st122{fill:#272049;}
	.st123{fill:#FEC027;}
	.st124{fill:#ADC7C6;}
	.st125{fill:#014429;}
	.st126{fill:#DF2539;}
	.st127{fill:#F57E30;}
	.st128{fill:#ED1942;}
	.st129{fill:#FEF9FB;}
	.st130{fill:#0065AA;}
	.st131{fill:#A6B5B8;}
	.st132{fill:#0B040C;stroke:#0B040C;stroke-width:0.2716;stroke-miterlimit:10;}
	.st133{fill:#F7F9FD;}
	.st134{fill:none;stroke:#EBF2CC;stroke-width:0.2972;stroke-miterlimit:10;}
	.st135{fill:#48484A;}
	.st136{opacity:0.2;}
	.st137{fill:#EE2E3B;}
	.st138{fill:#005BA6;}
	.st139{fill:#737577;}
	.st140{fill:#A1A0A5;}
	.st141{fill:#272360;}
	.st142{fill:#FAFAFB;}
	.st143{fill:#058BA6;}
	.st144{fill:#DEDBE7;}
	.st145{fill:#B2965B;}
	.st146{fill:#1B305B;}
	.st147{fill:#F9F9FA;}
	.st148{fill:#E12039;}
	.st149{fill:#FEF4F4;}
</style>
<g>
	<path class="st122" d="M2.4,82.9L19.5,4.1h40.6c0,0,29.8,1,28.5,32c-1.3,31-35.7,28.7-35.7,28.7H36.5l-4,18.4L2.4,82.9z"/>
	<g>
		<path class="st123" d="M16,20.2h25.5c0,0,10.1-0.4,15.2,2.5c5.2,2.9,9.3,7.1,14.9,7c0.1,3.4,0.1,3.4,0.1,3.4H38
			c0,0-4.8,1.2-3.2-3.9c1.2-4,1.4-7.2-4.6-7.2c-6.1,0-14.4,0-14.4,0S15.7,20.5,16,20.2z"/>
		<path class="st123" d="M12.7,35.4h59.2c0,0,0.1,3.2-0.2,3.9c-1.5-0.3-4.4-0.3-7.6,2.5c-3.1,2.8-13.2,6.9-20.4,6.7
			c-2.6,0.1-7.2-1.8-8-5.4c-0.8-3.6-1.7-5.9-6.5-5.9c-4.8,0-16.8,0-16.8,0L12.7,35.4z"/>
		<path class="st123" d="M9.6,50.2h30.9c0,0,10.5,0.8,18.8-3.5c4.9-2.9,7.9-6.5,11.8-5.8c-0.4,3.8-6.8,16-14.9,17.2
			c-8.1,1.2-14.4-5.6-14.4-5.6H9.3L9.6,50.2z"/>
		<path class="st123" d="M60.7,58.3c0,0,9.6-7.2,12.1-15c0.4-1.2,1.1-1.7,1.9-1.1c0.9,0.6,4.2,4.9,1.7,8.2
			C74,53.8,66.6,58.1,60.7,58.3z"/>
		<path class="st123" d="M74.1,29.3c0,0,4.1-2.5,5.5-5.8c1.6,2.5,2.9,7.7,2.6,10.1c-3.9,0-8.2,0-8.2,0L74.1,29.3z"/>
		<path class="st123" d="M74,35.1l8.4,0.1c0,0-0.4,7.4-2.6,10.2c-1.5-2.2-3.6-4.6-4.8-5c-1.2-0.4-1.2-1.3-1.2-1.7
			C73.9,38.3,73.9,34.8,74,35.1z"/>
		<path class="st123" d="M73.6,27.2c0,0,4.5-2.3,4.3-6.7c-1.7-2.7-8.3-9.6-16.9-9.8C64.6,13.2,71.2,18.8,73.6,27.2z"/>
		<path class="st123" d="M71.7,27.9c0,0-3.6-13-13.8-16.7c-2.7-0.7-6.3-0.9-11.3,2.1c-4.2,2.6-5.6,5-5.6,5s6.8-0.6,12,0.7
			c5.2,1.3,8.9,4.5,10.4,5.6C65,25.7,67.6,28.1,71.7,27.9z"/>
	</g>
	<g>
		<path class="st122" d="M48.7,70h-6.8l-3,13.6l0.3-0.1l3.9-0.1l1.1-4.5c0,0,1.2,0,2.5,0s4-1.2,4.9-4.8C52.4,70.4,48.7,70,48.7,70z
			 M47.5,74.4c-0.3,1.3-1.5,1.7-1.5,1.7h-1.2l0.7-3.6C47.5,72.4,47.8,73.1,47.5,74.4z"/>
		<path class="st122" d="M56.8,71.8c-3.7,0.5-4.3,3.3-4.3,3.3s2.2,0,2.9,0c0.1-0.9,1-1.3,1.6-1.4c0.6-0.1,1.1,0.1,0.9,1.1
			c-0.2,1-0.9,1.3-1,1.3c-1.7,0.6-4.8,1-5.9,2.8c-1.4,2.3-0.6,4.4,1.7,4.4c2.2,0,3.5-1,3.5-1v1c0,0,1.7,0,3.6,0
			c-0.4-2.6,1-6.7,1.6-9C61.8,72,59.3,71.4,56.8,71.8z M55,81c-1.4-0.1-1.8-2,1.8-3.1C57,77.8,56.4,81.2,55,81z"/>
		<path class="st122" d="M67.7,71.3c-4.2,0.1-5.2,3.2-5.6,5.9c-0.5,2.7-0.4,6.4,3.7,6.4c4.3,0,5.3-3.5,5.5-5h-3.5
			c0,0-0.4,2.9-1.6,2.9c-1.8,0-0.3-4.7,0-6.1c0.4-1.4,0.8-2,1.5-2c0.6,0.1,1.2,1,0.7,2.6c0,0.1,3,0,3.1,0c0.1,0,0.5-2,0.4-2.4
			C72,73.2,72,71.2,67.7,71.3z"/>
		<path class="st122" d="M78.1,79.5C78.1,79.5,78.1,79.5,78.1,79.5C78.1,79.5,78.1,79.5,78.1,79.5z"/>
		<path class="st122" d="M81.9,78.1c0,0,0.9-2.2,0.9-3.7c0-1.5-2-3.1-4.6-2.9c-2.6,0.2-4.5,1.2-5.6,6.1c-1.1,4.9,1.5,6,4.1,5.9
			c2.5-0.1,4-1.1,5.1-4.1c-2.4,0.1-3.4,0-3.5,0c0.1,0,0,2.1-1.2,2.2c-1.2,0-1.1-2.2-0.5-3.5H81.9z M77.3,74.5
			c0.4-0.5,2.3-1.3,1.5,1.5c-0.8,0.1-2,0-2,0S76.9,74.9,77.3,74.5z"/>
		<path class="st122" d="M91.4,71.7c0,0-1.8-0.2-3.1,1c-0.4,0.3-0.6,0.8-0.6,0.8l0.3-1.6l-3.3,0.1c-0.1,0-2.9,11.4-2.8,11.5
			c0.1,0.1,3.6,0,3.6,0l1.5-6.8c0,0,1.2-2.1,3.5-1.6C91.1,73.2,91.4,71.7,91.4,71.7z"/>
		<path class="st122" d="M95.8,75.5c0,0-0.6-0.3-0.6-0.9c0-0.6,0.3-1,1.1-1c0.8,0.1,1.3,0.4,1.2,1.5h3.2c0,0-0.2-3.4-4.3-3.6
			c-4.1-0.2-6.7,4.7-4,6.1c0,0,2.8,1.5,3.1,1.8c0.4,0.3,0.7,0.5,0.7,1c0,0.5-0.4,1.1-1.2,1.1c-0.7,0-1.2-0.3-1.3-1.6
			c-3.1,0.1-3.4,0-3.4,0s0,3.6,4.3,3.6c4.3,0,6.2-3.5,4.8-5.1C98,76.8,95.8,75.5,95.8,75.5z"/>
	</g>
</g>
</svg>
