<?xml version="1.0" encoding="utf-8"?>
<!-- Generator: Adobe Illustrator 23.0.1, SVG Export Plug-In . SVG Version: 6.00 Build 0)  -->
<svg version="1.1" id="Capa_1" xmlns="http://www.w3.org/2000/svg" xmlns:xlink="http://www.w3.org/1999/xlink" x="0px" y="0px"
	 viewBox="0 0 160.5 106.1" style="enable-background:new 0 0 160.5 106.1;" xml:space="preserve">
<style type="text/css">
	.st0{fill:#175384;}
	.st1{fill:#A0A5AA;}
	.st2{fill:#0B040C;}
	.st3{fill:#FFC727;}
	.st4{fill:#F0545B;}
	.st5{fill:#FFFFFF;}
	.st6{fill:#00A855;}
	.st7{fill:#B4C4C9;}
	.st8{fill:#221A21;}
	.st9{fill:#EF3A47;}
	.st10{fill:url(#SVGID_1_);}
	.st11{fill:url(#SVGID_2_);}
	.st12{fill:url(#SVGID_3_);}
	.st13{fill:url(#SVGID_4_);}
	.st14{fill:url(#SVGID_5_);}
	.st15{fill:url(#SVGID_6_);}
	.st16{fill:url(#SVGID_7_);}
	.st17{fill:url(#SVGID_8_);}
	.st18{fill:url(#SVGID_9_);}
	.st19{fill:url(#SVGID_10_);}
	.st20{fill:url(#SVGID_11_);}
	.st21{fill:url(#SVGID_12_);}
	.st22{fill:#313564;}
	.st23{fill:#F04B41;stroke:#FFFFFF;stroke-width:2.1543;stroke-linecap:round;stroke-linejoin:round;stroke-miterlimit:10;}
	.st24{fill:#007FBA;stroke:#FFFFFF;stroke-width:2.1543;stroke-linecap:round;stroke-linejoin:round;stroke-miterlimit:10;}
	.st25{fill:#313564;stroke:#FFFFFF;stroke-width:2.1543;stroke-linecap:round;stroke-linejoin:round;stroke-miterlimit:10;}
	.st26{fill:#FFFFFF;stroke:#FFFFFF;stroke-width:2.1543;stroke-linecap:round;stroke-linejoin:round;stroke-miterlimit:10;}
	.st27{clip-path:url(#SVGID_14_);}
	.st28{fill:#FBAC36;stroke:#FFFFFF;stroke-width:2.1543;stroke-linecap:round;stroke-linejoin:round;stroke-miterlimit:10;}
	.st29{fill:#F04B41;}
	.st30{fill:#007FBA;}
	.st31{clip-path:url(#SVGID_16_);}
	.st32{fill:#FBAC36;}
	.st33{fill:#2C2F61;}
	.st34{fill:#B7B9BA;}
	.st35{fill:#EF3748;}
	.st36{fill:#8999AC;}
	.st37{fill:#2B2F61;}
	.st38{fill:#EE2C45;}
	.st39{fill:#101624;}
	.st40{fill:#59707A;}
	.st41{fill:#4A3285;}
	.st42{fill:#F79230;}
	.st43{fill:#F15733;}
	.st44{fill:#D7303F;}
	.st45{fill:#FAA832;}
	.st46{fill:#1F1721;}
	.st47{fill:#5F3188;}
	.st48{fill:#EE243D;}
	.st49{fill:#1F4BA0;}
	.st50{fill:#244789;}
	.st51{fill:#FBAE2E;}
	.st52{fill:#006991;}
	.st53{fill:#F9A01B;stroke:#FFFFFF;stroke-width:0.4473;stroke-miterlimit:10;}
	.st54{fill:#FAA533;}
	.st55{fill:#0092BC;}
	.st56{fill:#15182C;}
	.st57{fill:#3E419A;}
	.st58{fill:#101721;}
	.st59{fill:#ADA3A5;}
	.st60{fill:#9CA7AC;}
	.st61{clip-path:url(#SVGID_18_);}
	.st62{clip-path:url(#SVGID_20_);}
	.st63{fill:#F3FAF7;}
	.st64{fill:#2D2F63;}
	.st65{fill:#FAA819;}
	.st66{fill:#FEF6FA;}
	.st67{fill:#004F30;}
	.st68{fill:#A2C7D3;}
	.st69{fill:#EE2E55;}
	.st70{fill:#32366E;}
	.st71{fill:#00ADDC;}
	.st72{fill:#FFFFFF;stroke:#00ACD0;stroke-width:0.2915;stroke-miterlimit:10;}
	.st73{fill:#FFFFFF;stroke:#00ACD0;stroke-width:0.2973;stroke-miterlimit:10;}
	.st74{fill:#450000;}
	.st75{fill:#EE224A;}
	.st76{fill:#0064A5;}
	.st77{fill:#F47736;}
	.st78{fill:#B5BCBF;}
	.st79{fill:#F47B35;}
	.st80{fill:#EE2B52;}
	.st81{fill:#0C060E;}
	.st82{fill:#B58D49;}
	.st83{fill:#C9BBCB;}
	.st84{fill:#BA924C;}
	.st85{fill:#006BAF;}
	.st86{fill:#B3C5CB;}
	.st87{fill:#898C89;}
	.st88{fill:#2E2C61;}
	.st89{fill:#C3C5BD;}
	.st90{fill:#C4D2D9;}
	.st91{fill:#EE284D;}
	.st92{fill:#161212;}
	.st93{fill:#EE274E;}
	.st94{fill:#A2A7AA;}
	.st95{fill:#A6AAAC;}
	.st96{fill:#A1A2AB;}
	.st97{fill:#110B13;}
	.st98{fill:#AFC1C6;}
	.st99{fill:#0067AD;}
	.st100{fill:#FBFBFB;}
	.st101{fill:#0065AF;}
	.st102{fill:#121A26;}
	.st103{fill:#008D4C;}
	.st104{fill:#B43A3D;}
	.st105{fill:#111623;}
	.st106{fill:#AB9048;}
	.st107{fill:#F8A174;}
	.st108{fill:#120B19;}
	.st109{fill:#C59751;}
	.st110{fill:#B33638;}
	.st111{fill:#009154;}
	.st112{fill:#1C2026;}
	.st113{fill:#EE2844;}
	.st114{fill:#30385F;}
	.st115{fill:#3A84B1;}
	.st116{fill:#A3C5D7;}
	.st117{fill:#F9A039;}
	.st118{fill:#B0BEC0;}
	.st119{fill:#231D46;}
	.st120{fill:#FDB840;}
	.st121{fill:#CD2C32;}
	.st122{fill:#272049;}
	.st123{fill:#FEC027;}
	.st124{fill:#ADC7C6;}
	.st125{fill:#014429;}
	.st126{fill:#DF2539;}
	.st127{fill:#F57E30;}
	.st128{fill:#ED1942;}
	.st129{fill:#FEF9FB;}
	.st130{fill:#0065AA;}
	.st131{fill:#A6B5B8;}
	.st132{fill:#0B040C;stroke:#0B040C;stroke-width:0.2716;stroke-miterlimit:10;}
	.st133{fill:#F7F9FD;}
	.st134{fill:none;stroke:#EBF2CC;stroke-width:0.2972;stroke-miterlimit:10;}
	.st135{fill:#48484A;}
	.st136{opacity:0.2;}
	.st137{fill:#EE2E3B;}
	.st138{fill:#005BA6;}
	.st139{fill:#737577;}
	.st140{fill:#A1A0A5;}
	.st141{fill:#272360;}
	.st142{fill:#FAFAFB;}
	.st143{fill:#058BA6;}
	.st144{fill:#DEDBE7;}
	.st145{fill:#B2965B;}
	.st146{fill:#1B305B;}
	.st147{fill:#F9F9FA;}
	.st148{fill:#E12039;}
	.st149{fill:#FEF4F4;}
</style>
<g>
	<g>
		<path class="st45" d="M123.5,53.1c0-27.2-21.5-49.3-48-49.3c-26.5,0-48,22.1-48,49.3c0,27.2,21.5,49.3,48,49.3
			C102,102.5,123.5,80.4,123.5,53.1z"/>
		<path class="st46" d="M113.1,21.2c-1-1.8-15.4-18-37.5-18C53.6,3.1,41.2,17.6,39.9,18.9c-1.2,1.3-2.9,3.8-2.9,3.8
			s-0.6,1.1-0.2,1.3c0.5,0.2,1-0.2,1.2-0.5c0,0,5.1-7.6,11.4-10.7c2,0.5,3.6,2.5,3.6,3.1c-3.3,1.9-8.5,5.7-9.5,6.7
			c-0.8,0.8-0.8,2,0.6,1.1c1.4-0.9,8.1-6.2,9.6-6.7c1.3,1.3,1.5,4.7,0.5,5.9c-0.7,0.8,0.1,1.6,0.9,0.5c0.9-1.1,1.6-5.3,0.2-7.1
			c1.9-1.2,7.8-3.2,9-3.6c1.1,3,3.9,11.2,3.9,11.2s0.5,1.2,1.1,1c0.6-0.2-0.2-1.3-0.2-1.8c0-0.5-3.3-10.7-3.3-10.7s4.9-1.3,6.9-1.4
			c-0.6,2.2,1.2,4.9,3.6,6.1c2.4,1.2,13.4,7.8,13.4,7.8s1.2,0-0.5-1.2c-1.8-1.2-12.1-7.5-12.1-7.5s-4.1-2.5-3-5.3
			c4.6-0.5,17.9-0.7,30.7,6.6c5.3,3,8.1,5.9,8.6,5.9C114.1,23.3,114.2,23,113.1,21.2z M54.5,15.1c-0.8-1.6-2.9-2.9-3.7-3.3
			c0,0,6.5-4.1,11.4-5.4c1.4,3.3,2,4.9,2,4.9S57.7,13.1,54.5,15.1z M72.9,9.6c-1.8,0.1-7.6,1.2-7.6,1.2l-1.5-4.7
			c6-2,12.1-1.3,12.1-1.3S73.5,7.5,72.9,9.6z M74.7,9.3c0,0,1.6-3.3,3.4-4.7c3,0.3,19.3,2.1,28.1,12.1C100.7,13.5,91.3,8.5,74.7,9.3
			z"/>
		<path class="st46" d="M34.5,80.3c0,0,9.9,18.3,34.8,22.6c19.9,2.9,33.7-8.4,37.1-10.8c3.4-2.4,9.8-10.4,11.1-13.3
			c0.6-1,0.2-2.4-0.6-1.2c-0.8,1.2-7.5,15-23.6,20.6C90.7,90.1,84,69.9,84,69.9s-0.8-0.9-0.6,0.2c0.3,1,8.8,28.6,8.8,28.6
			s-10.4,4.7-24.5,2.3C62.5,95.5,53.3,83.6,50,70.1c0,0-0.3-1.1-0.7-1c-0.4,0.1-0.4,0.9-0.3,1.4c0.2,0.6,5.6,18,16.3,30.1
			c-2.8-0.6-17.7-3.9-30.4-21.4c0,0-0.6-1-0.8-0.3C33.8,79.6,34.5,80.3,34.5,80.3z"/>
	</g>
	<g>
		<path class="st47" d="M61,65.3c-0.6-0.1-1.1-0.5-1.2-1.5c-0.1-1.4,0.5-2,0.5-2s10.6-19.2,10.9-19.7c0.3-0.5,0.8-0.7,1.1-0.7
			c0.8-0.1,0.9-0.5,0.9-0.5c0.1-0.7-1.1-0.7-1.1-0.7s-7.7,0-8.7,0c-1,0-1.5,0.3-1.6,0.6c-0.1,0.3,0.2,0.6,0.9,0.6
			c1.6,0.1,1,1.3,1,1.3s-1.1,2.1-1.9,3.5c-0.8,1.4-1.6,1.3-1.6,1.3s-1.5,0-2.4,0c-0.9,0-0.3,0.6-0.3,0.6s0.8,0,2,0
			c1.3,0,0.6,1.1,0.6,1.1L53,62.2c0,0-0.9,2.1-2,2.1c-1.1,0-0.7-1.3-0.7-1.3s2.6-19.8,2.9-21.5c0.3-1.7-0.7-1.4-0.7-1.4
			s-3.6,0-4.3,0c-0.7,0-1,0.5-1,0.5l-1.9,2.2c0,0-3.5,0-4.5,0c-1,0,0,0.5,0,0.5s1.7,0,3,0c1.2,0,0.7,0.7,0.7,0.7l-4.3,5.3
			c0,0-0.7,0-1.6,0c-0.9,0-0.2,0.5-0.2,0.5h1.3l-4.1,5.4c0,0-3,0-4.1,0c-1.1,0-0.3,0.7-0.3,0.7s2,0,2.9,0c0.9,0,0.4,0.6,0.4,0.6
			s-2.2,2.8-3.9,5c-1.7,2.2-2.8,2.8-4.4,3.2c-1.6,0.4-4.6,0.7-4.6,0.7s18.4-34.2,19.1-35.7c0.7-1.5,2.2-1.3,2.2-1.3s3.2,0,3.7,0
			c0.5,0,1.4-0.2,1.4-0.6s-1.4-0.5-1.4-0.5H26.3c-0.5,0-1.2-0.1-1.3,0.4c-0.1,0.7,1,0.7,1,0.7s2.1,0,4.1,0c2,0,1.4,1.1,1.4,1.1
			s0,0-0.4,0.8c-0.4,0.8-1.2,0.8-1.2,0.8s-5.7,0-6.6,0c-1,0-0.2,0.4-0.2,0.4s4.5,0,6.1,0c1.5,0,1,0.7,1,0.7s-0.4,0.6-0.9,1.5
			c-0.5,0.9-1.2,0.7-1.2,0.7s-1.6,0-2.7,0c-1.1,0-0.2,0.5-0.2,0.5s1.6,0,2.6,0c0.9,0,0.5,0.9,0.5,0.9s-1.4,2.4-1.9,3.3
			c-0.4,0.9-1.2,1-1.2,1s-0.3,0-1.2,0c-1,0-0.4,0.5-0.4,0.5s0,0,1,0c1,0,0.6,0.9,0.6,0.9s-0.9,1.7-1.4,2.8c-0.5,1.1-1.8,0.9-1.8,0.9
			s-5.5,0-6.6,0c-1.1,0-0.2,0.6-0.2,0.6s4.6,0,6.3,0c1.7,0,0.7,1.3,0.7,1.3s-2.2,4.2-2.9,5.4c-0.6,1.2-1.5,1-1.5,1s-5.5,0-6.7,0
			c-1.3,0-0.3,0.5-0.3,0.5s4.4,0,6.2,0c1.9,0,1.2,0.9,1.2,0.9s-1,1.7-1.6,2.9c-0.6,1.1-1.7,1-1.7,1s-1.1,0-2.2,0
			c-1.1,0-0.2,0.5-0.2,0.5s0.7,0,2.1,0c1.4,0,0.6,1,0.6,1s-1.5,2.6-2.1,3.9c-0.7,1.4-1.6,1.1-1.7,1.1c-0.1,0-9.6,0-10.7,0
			c-1.1,0-0.1,0.6-0.1,0.6s8.4,0,10.2,0c1.8,0,0.8,0.9,0.8,0.9s-0.6,1-1.1,2.2C9.8,70.3,9.2,70,9.2,70s-1.6,0-2.6,0
			c-1,0-0.3,0.5-0.3,0.5s0.5,0,2,0c1.5,0,0.9,0.7,0.9,0.7S9,71.6,8.3,72.8c-1,1.5-1.8,1.2-1.8,1.2s-4.1,0-5,0
			c-0.8,0-1.4-0.1-1.4,0.5c0,0.6,0.7,0.6,0.7,0.6s30.4,0,31.8,0c0.4-0.1,5-8.5,5-8.5s21.2,0,22.2,0s2-0.2,2-0.6
			C61.9,65.6,61.6,65.4,61,65.3z M43.3,62.5c0,0-0.9,3.4-5.1,3.5c1.3-2.3,1.3-2.3,1.3-2.3s0.4-1.8-0.9-0.4c-1.3,1.4-5.3,6.8-8.7,8.6
			c-3.3,1.7-8.7,1.9-10.7,1.9s-1.4-1.5-1-2.2c0.4-0.7,2.9-5,2.9-5h12.2c0,0,1.2,0.2,1.1-0.7c-0.1-0.6-1.2-0.5-1.5-0.6
			c-0.2-0.1-2.5-1.3-0.7-3.6c1.8-2.3,4.3-5.5,4.3-5.5l7.7,0.1C44.1,56.4,43.3,62.5,43.3,62.5z M44.8,55.1h-7.6l9.4-12.5L44.8,55.1z"
			/>
		<path class="st47" d="M98.9,57.6c-0.7-0.1-1.3,0.7-1.3,0.7s-1.5,2-4.4,4.6c-2.8,2.6-6.6,3-8.2,2.7c-1.6-0.2-0.9-1.2-0.9-1.2
			s5.4-10.7,5.2-10.7c-0.1,0,0.3,0,2.2,0c2.3,0,1.6,3.3,1.3,4.2c-0.2,0.9,0.3,0.7,0.3,0.7s4.3-7.6,5.1-9.1c0.9-1.5-0.6-0.4-0.6-0.4
			s-0.1,0.4-2,1.9c-1.8,1.5-5.5,1.3-5.5,1.3s4.5-8.2,5.9-11c3.5-0.1,4.3,0.5,5.3,2.1c1,1.6,0.5,6.5,0.5,6.5h1.2c0,0,2.8-5.5,3.9-7.7
			c1.1-2.2-1.4-2.1-1.4-2.1s-28.3,0-28.4,0c-0.5,0-1.2,0-1.4,0.5c-0.1,0.5,0.3,0.7,0.9,0.7c0.6,0,1.2,0.1,1.4,1.1
			c0.1,1-0.7,1.8-0.7,1.8l-12.4,9.7c0,0,1.7,8.9,2.3,11.1c0.6,2.1,2.1,1.9,2.1,1.9s21,0,23,0c2,0,2.5-1.3,2.5-1.3s3.1-5.4,3.6-6.3
			C99.1,58.3,99.5,57.7,98.9,57.6z M81.8,52.9c-1,0.1-2.9,0-3,0c-0.1,0-0.8,0.5,0,0.6c0.8,0.1,2.7,0,2.7,0s0.8,0.1,0.3,1
			c-0.6,0.9-5,9.4-5,9.4s-0.6,1.3-1.7,1.3c-1.1,0-1.2-1.8-1.2-1.8l-2.4-13.1l11.5-9c0,0,0.8-0.6,2.4-0.6c1.6,0,1.4,0,1.6,0
			c0.2,0,1.8,0.2,1.4,1.1c-0.4,0.9-0.4,1.3-1.8,1.3c-1.4,0-1.8,0-1.8,0s-0.8,0.7,0.2,0.7s1.8,0,1.8,0s0.6-0.2,0,1.1
			c-0.7,1.4-3.6,6.9-3.6,6.9S82.8,52.8,81.8,52.9z"/>
		<path class="st47" d="M159.6,59.3c-0.4,0.5-0.7,0.5-0.7,0.5s-0.4,0-1.4,0c-1,0-0.2,0.5-0.2,0.5s0.4,0,1.2,0c0.8,0,0.5,0.6,0.5,0.6
			c-1,2.1-3.5,5.1-3.5,5.1s-0.8,0-1.6,0c-0.9,0,0,0.4,0,0.4h1.4c-1.1,1.9-5.7,6-5.7,6s-1.3,0-2.6,0c-1.3,0-0.6,0.5-0.3,0.5
			c1.3,0,2.3,0.1,1.4,0.7c-7.2,4.4-11,3.8-14.8,2c-4-1.9-5.2-7.6-5.8-9.6c0.8-1.7,3.4-0.8,4.6-0.2c1.2,0.6,5.8,2.8,11.2,0.3
			c5.4-2.5,4.6-7.5,3.8-10c-0.8-2.5-4.5-5.9-6-8.2c-1.4-2.3-1.2-6.2,1.9-6.9c3.1-0.7,5.2,1.5,5.9,2.9c0.6,1.4,0,2-0.1,2
			c-0.1,0-0.2,0-0.9,0c-0.6,0-0.4,0.5-0.4,0.5s0.1,0,0.9,0c1,0.1,0.6,1.4,0.5,2.1c-0.2,0.7-0.1,1.2,0.3,1.4c0.4,0.2,0.6-0.5,0.6-0.5
			s3.3-6.2,4-7.4c0.7-1.2-0.4-0.9-1.6-0.5c-2.3,0.6-3.4-0.1-4-0.6c-0.6-0.5-2.7-1.8-7.2-1.2c-4.4,0.6-5.9,4.4-5.9,4.4s-0.1,0-1,0
			c-0.9,0-0.5,0.5-0.5,0.5s0.3,0,1.2,0c-1.5,3.3,0.1,6.6,0.1,6.6s-0.7,0-1.5,0c-0.8,0-0.2,0.6-0.2,0.6h2c0,0,1,1.3,1.8,2.3
			c0.8,1,0,1,0,1s-4.6,0-5.5,0c-0.9,0-0.3,0.7-0.3,0.7s3.6,0,7,0c3,2.5,3,5.9,3,5.9s-0.6,0-1.5,0c-0.9,0,0,0.7,0,0.7h1.2
			c0,0,0.3,1.7-1.7,3.1c-2,1.4-5.6,0.7-7-0.8c-1.4-1.5-0.6-5.8-0.3-6.8c0.3-1-0.3-0.3-0.3-0.3s-1.9,3.1-2.4,3.9
			c-0.5,0.7-0.8,0.9-0.8,0.9s-0.2,0-0.7,0c-0.5,0-0.3,0.4,0,0.3c0.7,0,0.2,1-0.8,2.1c-0.9-2.4-4.2-8.6-5.9-10.4
			c1.6,0,9.2-2.4,10.2-7.1c1.6-7.3-7.1-7.2-7.1-7.2h-12.4c-0.5,0-0.8,0.1-1.1,0.7c-0.3,0.6,1.1,0.6,1.1,0.6c1.9,0,1.4,1.5,1.4,1.5
			s-2.1,3.8-2.6,4.7c-0.5,0.9-1,0.7-1,0.7s-1.3,0-2.2,0c-1,0-0.4,0.5-0.4,0.5s0.7,0,1.7,0c1,0,0.8,0.6,0.8,0.6l-3.5,6.1
			c0,0-1.5,0-2.6,0c-1.1,0-0.3,0.6-0.3,0.6s0.4,0,1.6,0c1.2,0,0.6,0.8,0.6,0.8s-3.2,5.7-4,7.1c-0.7,1.4-1.8,1.3-2.4,1.3
			c-0.6,0-1-0.1-1.3,0.6c-0.3,0.6,0.9,0.6,0.9,0.6s9.6,0,10.5,0c0.9,0,1.7-0.1,1.7-0.6c0-0.5-0.7-0.6-0.7-0.6
			c-1.6-0.2-0.7-1.9-0.6-2c0.1-0.1,3.7-7.3,5.4-10.1c1.4-0.4,2.5,1.3,3,2.4c0.4,1.1,0.9,6.3,0.9,6.3s-3.4,0-4.6,0
			c-1.2,0-0.2,0.7-0.2,0.7h5c0,0,0.5,4.1,0.6,4.8c0.1,0.7-0.2,1-0.2,1s-3.9,0-5.1,0c-1.2,0-0.2,0.6-0.2,0.6h5.7c0,0,0.6,2.4,2.2,4.1
			c3.2,4,9.9,8.3,17.5,6.1c7.6-2.1,11.6-6.1,15.8-11c4.2-4.9,5-8.1,5.4-9.2C160.7,58,160,58.8,159.6,59.3z M117.8,52.3
			c-0.6-0.7-1.9-1.4-2.1-1.5l4.7-8.9c0,0,0.3-0.7,1.2-0.7c1,0,2.6,0.9,1.9,3.9C122.8,48.1,120,51.7,117.8,52.3z"/>
		<path class="st47" d="M58.5,34.4l1.6-2.6c0,0,0,0-0.3,0c-1.5,2.1-4.5,1.9-4.5,1.9s2.4-4.9,2.7-5.4c0.3-0.5,0.8-0.3,0.9-0.6
			c0.2-0.3-0.4-0.4-0.5-0.4c-0.1,0-3.8,0-3.9,0c-0.7,0.1-0.5,0.6-0.3,0.6c0.6,0,0.3,0.8,0.3,0.9c0,0.1-1.4,2.9-1.9,3.7
			c-0.5,0.8-0.8,1.2-1.2,1.3C51,34,51,34.4,51,34.4H58.5z"/>
		<path class="st47" d="M127,32.6c-0.5,0.8-0.8,1.2-1.2,1.3c-0.5,0.1-0.4,0.6-0.4,0.6h7.5l1.6-2.6c0,0,0,0-0.3,0
			c-1.5,2.1-4.5,1.9-4.5,1.9s2.4-4.9,2.7-5.4c0.3-0.5,0.8-0.3,0.9-0.6c0.2-0.3-0.4-0.4-0.5-0.4c-0.1,0-3.8,0-3.9,0
			c-0.7,0.1-0.5,0.6-0.3,0.6c0.6,0,0.3,0.8,0.3,0.9C128.8,28.9,127.4,31.8,127,32.6z"/>
		<path class="st47" d="M68.5,33.9c1.1-1,3.1-3.6,1-5.8c-1.3-1.1-3.6-1.7-6.1-0.3c0,0-2.9,1.5-1.6,5.1C63,35.7,67.3,34.8,68.5,33.9z
			 M65.6,28.6c1.2-0.8,2.2-0.7,2.3,0.5c0.1,1.1-0.5,2.9-1.5,3.9c-1,1-2.3,0.8-2.3-0.7C64.1,29.9,65.5,28.6,65.6,28.6z"/>
		<path class="st47" d="M71.3,33.9c0.4-0.3,0.8-0.5,1.5,0c0.7,0.5,3.5,1.5,5.2-0.4c1.8-2,0.1-3.2-0.8-3.7c-0.5-0.3-1.3-0.9-1.1-1.6
			c0.2-0.7,1.7-1.1,2.9,0.7c0.2,0.4,0.3,0.4,0.6-0.1c0.3-0.5,0.4-0.9,0.4-1c0-0.1,0.1-0.3-0.4-0.3c-0.5,0-0.8,0.1-1.4-0.3
			c-0.6-0.4-3-1.1-4.4,0.4c-1.4,1.5-0.6,3.1,0.5,3.6c1.1,0.5,2,1.3,1.3,1.8c-0.7,0.5-2.5,0.5-3-0.6c-0.2-0.4-0.2-0.6-0.2-0.7
			c0-0.1-0.2-0.5-0.5,0c0,0.1-0.9,1.8-0.9,1.8S70.9,34.3,71.3,33.9z"/>
		<path class="st47" d="M146.9,31.8c0,0.1-0.9,1.8-0.9,1.8s0,0.7,0.4,0.4c0.4-0.3,0.8-0.5,1.5,0c0.7,0.5,3.5,1.5,5.2-0.4
			c1.8-2,0.1-3.2-0.8-3.7c-0.5-0.3-1.3-0.9-1.1-1.6c0.2-0.7,1.7-1.1,2.9,0.7c0.2,0.4,0.3,0.4,0.6-0.1c0.3-0.5,0.4-0.9,0.4-1
			c0-0.1,0.1-0.3-0.4-0.3c-0.5,0-0.8,0.1-1.4-0.3c-0.6-0.4-3-1.1-4.4,0.4c-1.4,1.5-0.6,3.1,0.5,3.6c1.1,0.5,2,1.3,1.3,1.8
			c-0.7,0.5-2.5,0.5-3-0.6c-0.2-0.4-0.2-0.6-0.2-0.7C147.4,31.7,147.2,31.3,146.9,31.8z"/>
		<path class="st47" d="M82.3,34.5c0.5,0,2.9,0,3,0c0.1,0,0.5,0,0.6-0.4c0.2-0.4,0-0.4-0.3-0.4c-0.3,0-1-0.3-0.4-1
			c0.6-0.7,1.1-1.1,1.1-1.1h2.2c0,0,1.6,0.1,1.5,1.2c-0.1,0.8-0.3,1-0.6,1c-0.3,0-0.5,0.4-0.5,0.5s0.1,0.2,0.5,0.2
			c0.3,0,6.6,0,6.6,0s0.4-0.5-0.1-0.6c-0.5-0.1-0.7-0.5-0.3-1.1c0.4-0.6,1.8-3.3,1.8-3.3l2.8,5h1.4l3.5-6.1c0,0,0.4-0.5,1.1-0.5
			c0,0,0.4-0.5-0.2-0.5c-0.6,0-3.1,0-3,0s-0.2,0.1-0.2,0.3c0,0.2,0.1,0.2,0.4,0.3c0.3,0,1.3,0.3,0.7,1.3c-0.6,1-1.3,2.2-1.3,2.2
			l-2.5-3.5c0,0-0.3-0.5-0.9-0.5c-0.6,0-2.7,0-2.7,0c-0.1,0-0.6,0-0.6,0.2c0,0.2,0.1,0.3,0.4,0.3c0.3,0,0.3,0.3,0.1,0.8
			c-0.2,0.5-2,4-2,4s-0.2,0.4-0.6,0.4c-0.3,0-0.5-0.4-0.6-0.9c-0.1-0.5-1.5-4.8-1.5-4.8l-1.1,0l-4.3,3.5H84c0,0-0.4,0-0.5,0.3
			c0,0.3,0.2,0.4,0.5,0.4c0.4,0,1.3,0,1.3,0s-2,1.9-2.5,2.1c-0.5,0.1-0.8,0.1-0.9,0.1s-0.5,0.2-0.5,0.5
			C81.5,34.3,81.8,34.5,82.3,34.5z M90,28.7l0,2.1l-2.4-0.1L90,28.7z"/>
		<path class="st47" d="M107.6,34.5c1.1,0.4,2.1-0.1,2.7-0.6c0.6-0.5,0.9-0.4,1.1-0.1c0.2,0.3,0.6,0.5,1,0.6
			c0.4,0.1,0.5-0.3,0.5-0.3s0.9-2.1,1.2-2.9c0.4-0.8-0.3-0.6-0.3-0.6s-2.7,0-3.2,0c-0.6,0-0.4,0.4,0,0.5c0.6,0.1,0.6,1.4,0,1.9
			c-0.6,0.5-1.8,0.6-2.1-0.1c-0.4-1.2-0.1-3.5,2.3-4.5c2.4-1,3.1,0.7,3.1,0.7c0.2,0.4,0.4,0.2,0.4,0.2s0.4-0.8,0.7-1.3
			c0.3-0.4-0.2-0.4-0.4-0.3c-0.3,0-0.4,0.1-0.9-0.2c-0.7-0.4-5.3-1.6-7.4,1.4C104,32.2,106.5,34.2,107.6,34.5z"/>
		<path class="st47" d="M114.3,34.5c0,0,8.5,0,8.4,0c-0.1,0,1.1-1.5,1.3-1.8c0.1-0.3-0.2-0.1-1,0.5c-0.9,0.6-2.1,0.7-2.1,0.7h-2.1
			l1.1-2.3c0,0,0.6,0,1,0c0.5,0,0.6,0.2,0.8,0.4c0.2,0.3,0.6,0.1,0.6,0.1s0.5-1.1,0.8-1.7c0.3-0.7-0.3-0.3-0.3-0.3
			c-0.5,0.5-1.3,0.6-1.3,0.6h-1.4l1.3-2.7c0,0,0.2,0,1.5,0c1.3,0,1.7,1,2.1,1.3c0.3,0.3,0.6,0.2,0.6,0.2s0.2-0.2,0.6-1.1
			c0.4-0.9-0.8-0.9-0.9-0.9c-0.1,0-7.6,0-7.6,0c-0.5,0.1-0.7,0.6,0,0.6c0.7,0,0.3,0.9,0.3,0.9s-1.8,3.3-2.4,4.1
			c-0.6,0.8-0.8,1-1.3,1C114,34,114.3,34.5,114.3,34.5z"/>
		<path class="st47" d="M143.7,34.5c-0.1,0,1.1-1.5,1.3-1.8c0.1-0.3-0.2-0.1-1,0.5c-0.9,0.6-2.1,0.7-2.1,0.7h-2.1l1.1-2.3
			c0,0,0.6,0,1,0c0.5,0,0.6,0.2,0.8,0.4c0.2,0.3,0.6,0.1,0.6,0.1s0.5-1.1,0.8-1.7c0.3-0.7-0.3-0.3-0.3-0.3c-0.5,0.5-1.3,0.6-1.3,0.6
			h-1.4l1.3-2.7c0,0,0.2,0,1.5,0c1.3,0,1.7,1,2.1,1.3c0.3,0.3,0.6,0.2,0.6,0.2s0.2-0.2,0.6-1.1c0.4-0.9-0.8-0.9-0.9-0.9
			c-0.1,0-7.6,0-7.6,0c-0.5,0.1-0.7,0.6,0,0.6c0.7,0,0.3,0.9,0.3,0.9s-1.8,3.3-2.4,4.1c-0.6,0.8-0.8,1-1.3,1c-0.5,0-0.1,0.4-0.1,0.4
			S143.7,34.4,143.7,34.5z"/>
	</g>
</g>
</svg>
