<?xml version="1.0" encoding="utf-8"?>
<!-- Generator: Adobe Illustrator 23.0.1, SVG Export Plug-In . SVG Version: 6.00 Build 0)  -->
<svg version="1.1" id="Capa_1" xmlns="http://www.w3.org/2000/svg" xmlns:xlink="http://www.w3.org/1999/xlink" x="0px" y="0px"
	 viewBox="0 0 156.1 137.9" style="enable-background:new 0 0 156.1 137.9;" xml:space="preserve">
<style type="text/css">
	.st0{fill:#175384;}
	.st1{fill:#A0A5AA;}
	.st2{fill:#0B040C;}
	.st3{fill:#FFC727;}
	.st4{fill:#F0545B;}
	.st5{fill:#FFFFFF;}
	.st6{fill:#00A855;}
	.st7{fill:#B4C4C9;}
	.st8{fill:#221A21;}
	.st9{fill:#EF3A47;}
	.st10{fill:url(#SVGID_1_);}
	.st11{fill:url(#SVGID_2_);}
	.st12{fill:url(#SVGID_3_);}
	.st13{fill:url(#SVGID_4_);}
	.st14{fill:url(#SVGID_5_);}
	.st15{fill:url(#SVGID_6_);}
	.st16{fill:url(#SVGID_7_);}
	.st17{fill:url(#SVGID_8_);}
	.st18{fill:url(#SVGID_9_);}
	.st19{fill:url(#SVGID_10_);}
	.st20{fill:url(#SVGID_11_);}
	.st21{fill:url(#SVGID_12_);}
	.st22{fill:#313564;}
	.st23{fill:#F04B41;stroke:#FFFFFF;stroke-width:2.1543;stroke-linecap:round;stroke-linejoin:round;stroke-miterlimit:10;}
	.st24{fill:#007FBA;stroke:#FFFFFF;stroke-width:2.1543;stroke-linecap:round;stroke-linejoin:round;stroke-miterlimit:10;}
	.st25{fill:#313564;stroke:#FFFFFF;stroke-width:2.1543;stroke-linecap:round;stroke-linejoin:round;stroke-miterlimit:10;}
	.st26{fill:#FFFFFF;stroke:#FFFFFF;stroke-width:2.1543;stroke-linecap:round;stroke-linejoin:round;stroke-miterlimit:10;}
	.st27{clip-path:url(#SVGID_14_);}
	.st28{fill:#FBAC36;stroke:#FFFFFF;stroke-width:2.1543;stroke-linecap:round;stroke-linejoin:round;stroke-miterlimit:10;}
	.st29{fill:#F04B41;}
	.st30{fill:#007FBA;}
	.st31{clip-path:url(#SVGID_16_);}
	.st32{fill:#FBAC36;}
	.st33{fill:#2C2F61;}
	.st34{fill:#B7B9BA;}
	.st35{fill:#EF3748;}
	.st36{fill:#8999AC;}
	.st37{fill:#2B2F61;}
	.st38{fill:#EE2C45;}
	.st39{fill:#101624;}
	.st40{fill:#59707A;}
	.st41{fill:#4A3285;}
	.st42{fill:#F79230;}
	.st43{fill:#F15733;}
	.st44{fill:#D7303F;}
	.st45{fill:#FAA832;}
	.st46{fill:#1F1721;}
	.st47{fill:#5F3188;}
	.st48{fill:#EE243D;}
	.st49{fill:#1F4BA0;}
	.st50{fill:#244789;}
	.st51{fill:#FBAE2E;}
	.st52{fill:#006991;}
	.st53{fill:#F9A01B;stroke:#FFFFFF;stroke-width:0.4473;stroke-miterlimit:10;}
	.st54{fill:#FAA533;}
	.st55{fill:#0092BC;}
	.st56{fill:#15182C;}
	.st57{fill:#3E419A;}
	.st58{fill:#101721;}
	.st59{fill:#ADA3A5;}
	.st60{fill:#9CA7AC;}
	.st61{clip-path:url(#SVGID_18_);}
	.st62{clip-path:url(#SVGID_20_);}
	.st63{fill:#F3FAF7;}
	.st64{fill:#2D2F63;}
	.st65{fill:#FAA819;}
	.st66{fill:#FEF6FA;}
	.st67{fill:#004F30;}
	.st68{fill:#A2C7D3;}
	.st69{fill:#EE2E55;}
	.st70{fill:#32366E;}
	.st71{fill:#00ADDC;}
	.st72{fill:#FFFFFF;stroke:#00ACD0;stroke-width:0.2915;stroke-miterlimit:10;}
	.st73{fill:#FFFFFF;stroke:#00ACD0;stroke-width:0.2973;stroke-miterlimit:10;}
	.st74{fill:#450000;}
	.st75{fill:#EE224A;}
	.st76{fill:#0064A5;}
	.st77{fill:#F47736;}
	.st78{fill:#B5BCBF;}
	.st79{fill:#F47B35;}
	.st80{fill:#EE2B52;}
	.st81{fill:#0C060E;}
	.st82{fill:#B58D49;}
	.st83{fill:#C9BBCB;}
	.st84{fill:#BA924C;}
	.st85{fill:#006BAF;}
	.st86{fill:#B3C5CB;}
	.st87{fill:#898C89;}
	.st88{fill:#2E2C61;}
	.st89{fill:#C3C5BD;}
	.st90{fill:#C4D2D9;}
	.st91{fill:#EE284D;}
	.st92{fill:#161212;}
	.st93{fill:#EE274E;}
	.st94{fill:#A2A7AA;}
	.st95{fill:#A6AAAC;}
	.st96{fill:#A1A2AB;}
	.st97{fill:#110B13;}
	.st98{fill:#AFC1C6;}
	.st99{fill:#0067AD;}
	.st100{fill:#FBFBFB;}
	.st101{fill:#0065AF;}
	.st102{fill:#121A26;}
	.st103{fill:#008D4C;}
	.st104{fill:#B43A3D;}
	.st105{fill:#111623;}
	.st106{fill:#AB9048;}
	.st107{fill:#F8A174;}
	.st108{fill:#120B19;}
	.st109{fill:#C59751;}
	.st110{fill:#B33638;}
	.st111{fill:#009154;}
	.st112{fill:#1C2026;}
	.st113{fill:#EE2844;}
	.st114{fill:#30385F;}
	.st115{fill:#3A84B1;}
	.st116{fill:#A3C5D7;}
	.st117{fill:#F9A039;}
	.st118{fill:#B0BEC0;}
	.st119{fill:#231D46;}
	.st120{fill:#FDB840;}
	.st121{fill:#CD2C32;}
	.st122{fill:#272049;}
	.st123{fill:#FEC027;}
	.st124{fill:#ADC7C6;}
	.st125{fill:#014429;}
	.st126{fill:#DF2539;}
	.st127{fill:#F57E30;}
	.st128{fill:#ED1942;}
	.st129{fill:#FEF9FB;}
	.st130{fill:#0065AA;}
	.st131{fill:#A6B5B8;}
	.st132{fill:#0B040C;stroke:#0B040C;stroke-width:0.2716;stroke-miterlimit:10;}
	.st133{fill:#F7F9FD;}
	.st134{fill:none;stroke:#EBF2CC;stroke-width:0.2972;stroke-miterlimit:10;}
	.st135{fill:#48484A;}
	.st136{opacity:0.2;}
	.st137{fill:#EE2E3B;}
	.st138{fill:#005BA6;}
	.st139{fill:#737577;}
	.st140{fill:#A1A0A5;}
	.st141{fill:#272360;}
	.st142{fill:#FAFAFB;}
	.st143{fill:#058BA6;}
	.st144{fill:#DEDBE7;}
	.st145{fill:#B2965B;}
	.st146{fill:#1B305B;}
	.st147{fill:#F9F9FA;}
	.st148{fill:#E12039;}
	.st149{fill:#FEF4F4;}
</style>
<g>
	<g>
		<g>
			<polygon class="st22" points="22.4,23.1 20.6,19.2 8.9,25.2 10.6,28.9 14.6,27.1 31.2,61 34.8,59.1 18.4,25.4 			"/>
			<polygon class="st22" points="35.2,14 41,31.7 36.8,33.2 30.8,15.3 26.8,16.8 40,56.7 43.8,55.5 38.2,37.4 42.3,36.1 48.4,54 
				52.3,52.6 39.3,12.6 			"/>
			<path class="st22" d="M61.6,8.4l-3.8,0.7l5.6,37.1l-4.4,1L53,9.9L49,10.4v0.3c0,0,5.1,31.4,5.4,34c0.3,2.6,1.9,7.9,7.9,6.6
				c6-1.2,5-8,5-8L61.6,8.4z"/>
			<polygon class="st22" points="80.6,34.3 75.7,7.9 72,7.8 70.9,49.8 75,49.7 75.3,23.4 80.3,49.8 83.9,49.9 84.8,8.1 80.7,8 			
				"/>
			<path class="st22" d="M102.2,9.8c-4.7-0.8-8-1.2-8-1.2l-6.6,41.3l7.3,1.2c0,0,5.1,1.5,6.2-4.7c1-5.7,5-31.4,5-31.4
				S106.9,10.6,102.2,9.8z M96.7,47.3l-4.2-0.9l5-33.1l4.6,0.9L96.7,47.3z"/>
			<path class="st22" d="M108.4,49.8c0.1-0.3,4.5-13.5,4.5-13.5l5.9,1.9l1.5-3.8l-6.4-2.1l4.9-14l8,2.7l1.5-4.1c0,0-2.9-1.1-8.1-2.6
				c-5.2-1.5-5.9,3.3-5.9,3.3l-9.5,29c-2.6,6.4,2.4,7.8,2.4,7.8l8.1,2.2l1.2-3.9C116.3,52.7,108.2,50.1,108.4,49.8z"/>
			<path class="st22" d="M143.3,23.5c-4-2-7.3-3.6-7.3-3.6l-18.7,37.7l3.7,1.9l8.3-16.7l1.2,0.4l-4.5,18.9l3.6,1.8l4.9-18.6
				c0,0,3,1.1,4.4-2.2c1.4-3.3,6.5-13.5,6.5-13.5S147.3,25.5,143.3,23.5z M135.3,40.6l-3.9-2l6.2-12.8l4.2,1.8L135.3,40.6z"/>
		</g>
	</g>
	<g>
		<path class="st23" d="M9.7,106.7c0,0,13.3-8.9,31.4-16.4c1.9,2.1,0.4,5.9,0.4,5.9l-1.7,0.4C39.8,96.5,12.9,104.9,9.7,106.7z"/>
		<path class="st24" d="M16.5,134.8c0,0,15.9-13.1,28.7-21.2c11.4-7.1,10.1-5,10.1-5l2.6,5.5C57.9,114.1,23.2,130,16.5,134.8z"/>
		<path class="st24" d="M114.9,90.4c0,0,23.8-8.6,31.6-10.9c-5.5,0.4-24.1,3-29,5C115.2,88.4,114.9,90.4,114.9,90.4z"/>
		<path class="st23" d="M122,72.1c0,0,16.7-0.8,24.8,0.2c-6.8,0.8-26.2,4.5-26.5,4.5C120,76.8,122,72.1,122,72.1z"/>
		<path class="st25" d="M32.7,68c0,0,21.1-12.7,46.8-12.3c25.7,0.4,44.2,12.3,44.2,12.3s-5.9,39.3-45.3,61.9c0,0-15.1-8.6-24.7-19.7
			c-8.7,4-13.8,6.7-13.8,6.7s-4.9,2.5-7,0.9c-2.1-1.6,0.2-6.3,1.9-10.1c1.7-3.8,7.1-15,7.1-15S36.2,83.5,32.7,68z"/>
		<path class="st26" d="M36,69.4c0,0,18.5-10.8,43.4-10.8c23.4,0,41,10.8,41,10.8s-5.5,20.4-14.8,32.7
			c-9.3,12.3-23.6,22.4-27.1,24.7c0,0-20.3-11.3-30.6-29.3C41.7,87.6,37.1,75.5,36,69.4z"/>
		<path class="st24" d="M105.2,66.7c0,0,9.2,3,11.8,4.6c-2.8,8.5-9.2,24.6-20.5,35.7c-7,7.5-14.1,13.1-16.2,14.3
			c-4.9-2.8-8.6-6.6-8.6-6.6s9.9-0.2,18.6-6.7c8.7-6.5,15.8-16.5,16.3-28.2C107,70.8,105.2,66.7,105.2,66.7z"/>
		<path class="st23" d="M103.9,66.2c0,0-5.2-2-13.2-2.8c-8-0.7-18-0.1-29,2.6c-11,2.7-16,6.6-16,6.6s7.2,19.7,9.9,23.7
			c2.7,4,15.2,17.1,15.2,17.1s9.4,0,19.3-7.1c10-7.2,14.8-18.6,15.2-28.8C105.3,77.6,105.1,69.4,103.9,66.2z"/>
		<g>
			<defs>
				<path id="SVGID_13_" d="M103.9,66.2c0,0-5.2-2-13.2-2.8c-8-0.7-18-0.1-29,2.6c-11,2.7-16,6.6-16,6.6s7.2,19.7,9.9,23.7
					c2.7,4,15.2,17.1,15.2,17.1s9.4,0,19.3-7.1c10-7.2,14.8-18.6,15.2-28.8C105.3,77.6,105.1,69.4,103.9,66.2z"/>
			</defs>
			<clipPath id="SVGID_1_">
				<use xlink:href="#SVGID_13_"  style="overflow:visible;"/>
			</clipPath>
			<g style="clip-path:url(#SVGID_1_);">
				<path class="st25" d="M50.1,71.3c0,0,3.6,6.3,4.6,7.8c1.1,1.6,1.1,1.6,1.1,1.6l1.4-1.6c0,0-4.3-6.3-5.3-9
					C51.2,70.5,50.1,71.3,50.1,71.3z"/>
				<path class="st25" d="M75.2,74.8c2-0.7,2-0.7,2-0.7s-0.9-8.3-1.6-9.9c-0.7,0.1-2.3,0.2-2.1,0.3C73.5,64.5,75.1,71.5,75.2,74.8z"
					/>
				<path class="st25" d="M100,64.4c-1.1,0-2.1,0.1-2.1,0.1s-0.2,4-1.3,5.7c2.7-0.2,2.7-0.2,2.7-0.2S100.1,66.1,100,64.4z"/>
				<path class="st25" d="M95.1,95.1c-1.7,1.2-3.8,2.2-6.1,3.2c0.5-2.6,1.1-4.9,1.4-5.7c0.4-1-2.3,1.1-2.3,1.1s-0.8,2.6-1.2,5.5
					c-2.2,0.8-4.5,1.5-7,2.1c0-2.4-0.1-4.1-0.1-4.1l-2,1.1c0,0,0.1,1.5,0.1,3.4c-2.6,0.5-5.3,0.9-8.2,1.2c0.1-1-0.1-1.3-0.1-1.3
					l-2.4,0.5l-3.6,2.5c0,0,1,0,4.2,0.1c0.2,2.3-1.6,3.8-1.6,3.8s0,0,1.2,1.2C70,109.1,70,105,70,105c2.4-0.2,4.9-0.4,7.9-1
					c0,1.4-0.1,2.7-0.3,3.6c-0.5,2.7-1.7,5.1-2.9,5.8c2.5-0.4,2.9-0.4,2.9-0.4s2.3-1.9,2.3-9.4c1-0.2,2-0.5,3.1-0.8
					c1.4-0.4,2.6-0.8,3.8-1.2c0,0.3,0,0.6,0,0.9c0.2,3.8,3.7,4.7,3.8,4.5c0.1-0.2,2.2-1.8,2-1.8c-0.2,0-3.8,0.9-3.9-4.3
					c7.1-2.7,11.3-6.2,14.3-10.4c1.6-4.6,2-5.8,2-5.8S100.8,91.4,95.1,95.1z"/>
			</g>
			
				<use xlink:href="#SVGID_13_"  style="overflow:visible;fill:none;stroke:#FFFFFF;stroke-width:2.1543;stroke-linecap:round;stroke-linejoin:round;stroke-miterlimit:10;"/>
		</g>
		<path class="st28" d="M42.4,71.4c-0.1-0.3,25.5-13.2,53.5-7.3c-12.8-0.9-32,0.3-48.6,8.6c1.8,6.6,12.8,34.8,33.2,48.4
			c-1.6,1.1-1.6,1.1-1.6,1.1S49.2,103.6,42.4,71.4z"/>
		<path class="st25" d="M103.9,68.3c-0.2,0.1-1.9,7.5-1.9,7.5l-2.7,3.3l2.4-0.9l-2.3,9.5L95.8,91c0,0-6.1,3-8.7,3.9
			c-1,0.5-2.7,0.2-2.7,0.2s0,0.7-1.1,1.1c-1.1,0.4-6.6,2.8-6.6,2.8l-1.5-2.2l-0.6,1.9l-3.9,3.1c0,0-6.9,3.4-8.6,4.1
			c-1.7,0.7-6.4,3.1-6.4,3.1l-3.7-4.3l-4.6-0.8L42.6,90c0,0,4.2-4.9,7.6-8.2c2.2-2,5.3-3.3,8.1-4c2.8-0.8,8.9-2.2,8.9-2.2
			s1.8-0.6,4,0.5c2-1.9,2.4-2.2,2.4-2.2l10.5-2.2l-0.7,2.2l2.5-2.6l6.9-1.3l-0.1,1.4c0,0,0.7-1.4,4-2
			C99.9,68.8,103.9,68.3,103.9,68.3z"/>
		<g>
			<path class="st26" d="M67.1,76.8c0,0-6.4,1.5-10.9,3c-4.5,1.4-7.2,4.3-9.3,8.2c-2.1,3.9-9.7,20.8-9.7,20.8s-1.6,3.2-0.5,4.5
				c1.1,1.3,4.9-0.6,4.9-0.6s9.9-4.9,14.2-7.5c6.8-4.5,7.7-8.9,7.7-8.9s4.3-9.6,6.6-15.4C72.3,75,67.1,76.8,67.1,76.8z M54.2,100.7
				c0,0-5.6,2.3-5.8,2.4c0,0,0,0,0,0c0,0,0,0,0,0C48.7,103,57,84.2,57,84.2c0.2,0,5.2-1.6,5.2-1.6L54.2,100.7z"/>
			<polygon class="st26" points="74.2,75 72.2,79.9 73.6,79.5 65.3,101.3 73.5,97.3 76.9,87.4 80.4,94.2 85.8,91.7 82.5,84.5 
				88.2,75.7 90,75.3 91.4,71.5 86.4,72.3 78.7,82.6 82.5,73.2 			"/>
			<path class="st26" d="M101.2,74.9l1.2-5.3c0,0-3.4,0.4-5.8,1c-2.5,0.6-4,1.3-5.3,5.4c-1.3,4-3.4,10.7-3.4,10.7s-1.9,4.6,2.8,3.3
				c3.4-1.3,7.7-3.1,7.7-3.1l1.6-6.9L96.2,81l-0.8,3.2l-2.5,0.7l3.1-10.8l2.3-0.5L98,75.4L101.2,74.9z"/>
		</g>
	</g>
	<g>
		<path class="st29" d="M9.7,106.7c0,0,13.3-8.9,31.4-16.4c1.9,2.1,0.4,5.9,0.4,5.9l-1.7,0.4C39.8,96.5,12.9,104.9,9.7,106.7z"/>
		<path class="st30" d="M16.5,134.8c0,0,15.9-13.1,28.7-21.2c11.4-7.1,10.1-5,10.1-5l2.6,5.5C57.9,114.1,23.2,130,16.5,134.8z"/>
		<path class="st30" d="M114.9,90.4c0,0,23.8-8.6,31.6-10.9c-5.5,0.4-24.1,3-29,5C115.2,88.4,114.9,90.4,114.9,90.4z"/>
		<path class="st29" d="M122,72.1c0,0,16.7-0.8,24.8,0.2c-6.8,0.8-26.2,4.5-26.5,4.5C120,76.8,122,72.1,122,72.1z"/>
		<path class="st22" d="M32.7,68c0,0,21.1-12.7,46.8-12.3c25.7,0.4,44.2,12.3,44.2,12.3s-5.9,39.3-45.3,61.9c0,0-15.1-8.6-24.7-19.7
			c-8.7,4-13.8,6.7-13.8,6.7s-4.9,2.5-7,0.9c-2.1-1.6,0.2-6.3,1.9-10.1c1.7-3.8,7.1-15,7.1-15S36.2,83.5,32.7,68z"/>
		<path class="st5" d="M36,69.4c0,0,18.5-10.8,43.4-10.8c23.4,0,41,10.8,41,10.8s-5.5,20.4-14.8,32.7c-9.3,12.3-23.6,22.4-27.1,24.7
			c0,0-20.3-11.3-30.6-29.3C41.7,87.6,37.1,75.5,36,69.4z"/>
		<path class="st30" d="M105.2,66.7c0,0,9.2,3,11.8,4.6c-2.8,8.5-9.2,24.6-20.5,35.7c-7,7.5-14.1,13.1-16.2,14.3
			c-4.9-2.8-8.6-6.6-8.6-6.6s9.9-0.2,18.6-6.7c8.7-6.5,15.8-16.5,16.3-28.2C107,70.8,105.2,66.7,105.2,66.7z"/>
		<path class="st29" d="M103.9,66.2c0,0-5.2-2-13.2-2.8c-8-0.7-18-0.1-29,2.6c-11,2.7-16,6.6-16,6.6s7.2,19.7,9.9,23.7
			c2.7,4,15.2,17.1,15.2,17.1s9.4,0,19.3-7.1c10-7.2,14.8-18.6,15.2-28.8C105.3,77.6,105.1,69.4,103.9,66.2z"/>
		<g>
			<defs>
				<path id="SVGID_15_" d="M103.9,66.2c0,0-5.2-2-13.2-2.8c-8-0.7-18-0.1-29,2.6c-11,2.7-16,6.6-16,6.6s7.2,19.7,9.9,23.7
					c2.7,4,15.2,17.1,15.2,17.1s9.4,0,19.3-7.1c10-7.2,14.8-18.6,15.2-28.8C105.3,77.6,105.1,69.4,103.9,66.2z"/>
			</defs>
			<clipPath id="SVGID_2_">
				<use xlink:href="#SVGID_15_"  style="overflow:visible;"/>
			</clipPath>
			<g style="clip-path:url(#SVGID_2_);">
				<path class="st22" d="M50.1,71.3c0,0,3.6,6.3,4.6,7.8c1.1,1.6,1.1,1.6,1.1,1.6l1.4-1.6c0,0-4.3-6.3-5.3-9
					C51.2,70.5,50.1,71.3,50.1,71.3z"/>
				<path class="st22" d="M75.2,74.8c2-0.7,2-0.7,2-0.7s-0.9-8.3-1.6-9.9c-0.7,0.1-2.3,0.2-2.1,0.3C73.5,64.5,75.1,71.5,75.2,74.8z"
					/>
				<path class="st22" d="M100,64.4c-1.1,0-2.1,0.1-2.1,0.1s-0.2,4-1.3,5.7c2.7-0.2,2.7-0.2,2.7-0.2S100.1,66.1,100,64.4z"/>
				<path class="st22" d="M95.1,95.1c-1.7,1.2-3.8,2.2-6.1,3.2c0.5-2.6,1.1-4.9,1.4-5.7c0.4-1-2.3,1.1-2.3,1.1s-0.8,2.6-1.2,5.5
					c-2.2,0.8-4.5,1.5-7,2.1c0-2.4-0.1-4.1-0.1-4.1l-2,1.1c0,0,0.1,1.5,0.1,3.4c-2.6,0.5-5.3,0.9-8.2,1.2c0.1-1-0.1-1.3-0.1-1.3
					l-2.4,0.5l-3.6,2.5c0,0,1,0,4.2,0.1c0.2,2.3-1.6,3.8-1.6,3.8s0,0,1.2,1.2C70,109.1,70,105,70,105c2.4-0.2,4.9-0.4,7.9-1
					c0,1.4-0.1,2.7-0.3,3.6c-0.5,2.7-1.7,5.1-2.9,5.8c2.5-0.4,2.9-0.4,2.9-0.4s2.3-1.9,2.3-9.4c1-0.2,2-0.5,3.1-0.8
					c1.4-0.4,2.6-0.8,3.8-1.2c0,0.3,0,0.6,0,0.9c0.2,3.8,3.7,4.7,3.8,4.5c0.1-0.2,2.2-1.8,2-1.8c-0.2,0-3.8,0.9-3.9-4.3
					c7.1-2.7,11.3-6.2,14.3-10.4c1.6-4.6,2-5.8,2-5.8S100.8,91.4,95.1,95.1z"/>
			</g>
		</g>
		<path class="st32" d="M42.4,71.4c-0.1-0.3,25.5-13.2,53.5-7.3c-12.8-0.9-32,0.3-48.6,8.6c1.8,6.6,12.8,34.8,33.2,48.4
			c-1.6,1.1-1.6,1.1-1.6,1.1S49.2,103.6,42.4,71.4z"/>
		<path class="st22" d="M103.9,68.3c-0.2,0.1-1.9,7.5-1.9,7.5l-2.7,3.3l2.4-0.9l-2.3,9.5L95.8,91c0,0-6.1,3-8.7,3.9
			c-1,0.5-2.7,0.2-2.7,0.2s0,0.7-1.1,1.1c-1.1,0.4-6.6,2.8-6.6,2.8l-1.5-2.2l-0.6,1.9l-3.9,3.1c0,0-6.9,3.4-8.6,4.1
			c-1.7,0.7-6.4,3.1-6.4,3.1l-3.7-4.3l-4.6-0.8L42.6,90c0,0,4.2-4.9,7.6-8.2c2.2-2,5.3-3.3,8.1-4c2.8-0.8,8.9-2.2,8.9-2.2
			s1.8-0.6,4,0.5c2-1.9,2.4-2.2,2.4-2.2l10.5-2.2l-0.7,2.2l2.5-2.6l6.9-1.3l-0.1,1.4c0,0,0.7-1.4,4-2
			C99.9,68.8,103.9,68.3,103.9,68.3z"/>
		<g>
			<path class="st5" d="M67.1,76.8c0,0-6.4,1.5-10.9,3c-4.5,1.4-7.2,4.3-9.3,8.2c-2.1,3.9-9.7,20.8-9.7,20.8s-1.6,3.2-0.5,4.5
				c1.1,1.3,4.9-0.6,4.9-0.6s9.9-4.9,14.2-7.5c6.8-4.5,7.7-8.9,7.7-8.9s4.3-9.6,6.6-15.4C72.3,75,67.1,76.8,67.1,76.8z M54.2,100.7
				c0,0-5.6,2.3-5.8,2.4c0,0,0,0,0,0c0,0,0,0,0,0C48.7,103,57,84.2,57,84.2c0.2,0,5.2-1.6,5.2-1.6L54.2,100.7z"/>
			<polygon class="st5" points="74.2,75 72.2,79.9 73.6,79.5 65.3,101.3 73.5,97.3 76.9,87.4 80.4,94.2 85.8,91.7 82.5,84.5 
				88.2,75.7 90,75.3 91.4,71.5 86.4,72.3 78.7,82.6 82.5,73.2 			"/>
			<path class="st5" d="M101.2,74.9l1.2-5.3c0,0-3.4,0.4-5.8,1c-2.5,0.6-4,1.3-5.3,5.4c-1.3,4-3.4,10.7-3.4,10.7s-1.9,4.6,2.8,3.3
				c3.4-1.3,7.7-3.1,7.7-3.1l1.6-6.9L96.2,81l-0.8,3.2l-2.5,0.7l3.1-10.8l2.3-0.5L98,75.4L101.2,74.9z"/>
		</g>
	</g>
</g>
</svg>
