<?xml version="1.0" encoding="utf-8"?>
<!-- Generator: Adobe Illustrator 23.0.1, SVG Export Plug-In . SVG Version: 6.00 Build 0)  -->
<svg version="1.1" id="Capa_1" xmlns="http://www.w3.org/2000/svg" xmlns:xlink="http://www.w3.org/1999/xlink" x="0px" y="0px"
	 viewBox="0 0 140.6 138.6" style="enable-background:new 0 0 140.6 138.6;" xml:space="preserve">
<style type="text/css">
	.st0{fill:#175384;}
	.st1{fill:#A0A5AA;}
	.st2{fill:#0B040C;}
	.st3{fill:#FFC727;}
	.st4{fill:#F0545B;}
	.st5{fill:#FFFFFF;}
	.st6{fill:#00A855;}
	.st7{fill:#B4C4C9;}
	.st8{fill:#221A21;}
	.st9{fill:#EF3A47;}
	.st10{fill:url(#SVGID_1_);}
	.st11{fill:url(#SVGID_2_);}
	.st12{fill:url(#SVGID_3_);}
	.st13{fill:url(#SVGID_4_);}
	.st14{fill:url(#SVGID_5_);}
	.st15{fill:url(#SVGID_6_);}
	.st16{fill:url(#SVGID_7_);}
	.st17{fill:url(#SVGID_8_);}
	.st18{fill:url(#SVGID_9_);}
	.st19{fill:url(#SVGID_10_);}
	.st20{fill:url(#SVGID_11_);}
	.st21{fill:url(#SVGID_12_);}
	.st22{fill:#313564;}
	.st23{fill:#F04B41;stroke:#FFFFFF;stroke-width:2.1543;stroke-linecap:round;stroke-linejoin:round;stroke-miterlimit:10;}
	.st24{fill:#007FBA;stroke:#FFFFFF;stroke-width:2.1543;stroke-linecap:round;stroke-linejoin:round;stroke-miterlimit:10;}
	.st25{fill:#313564;stroke:#FFFFFF;stroke-width:2.1543;stroke-linecap:round;stroke-linejoin:round;stroke-miterlimit:10;}
	.st26{fill:#FFFFFF;stroke:#FFFFFF;stroke-width:2.1543;stroke-linecap:round;stroke-linejoin:round;stroke-miterlimit:10;}
	.st27{clip-path:url(#SVGID_14_);}
	.st28{fill:#FBAC36;stroke:#FFFFFF;stroke-width:2.1543;stroke-linecap:round;stroke-linejoin:round;stroke-miterlimit:10;}
	.st29{fill:#F04B41;}
	.st30{fill:#007FBA;}
	.st31{clip-path:url(#SVGID_16_);}
	.st32{fill:#FBAC36;}
	.st33{fill:#2C2F61;}
	.st34{fill:#B7B9BA;}
	.st35{fill:#EF3748;}
	.st36{fill:#8999AC;}
	.st37{fill:#2B2F61;}
	.st38{fill:#EE2C45;}
	.st39{fill:#101624;}
	.st40{fill:#59707A;}
	.st41{fill:#4A3285;}
	.st42{fill:#F79230;}
	.st43{fill:#F15733;}
	.st44{fill:#D7303F;}
	.st45{fill:#FAA832;}
	.st46{fill:#1F1721;}
	.st47{fill:#5F3188;}
	.st48{fill:#EE243D;}
	.st49{fill:#1F4BA0;}
	.st50{fill:#244789;}
	.st51{fill:#FBAE2E;}
	.st52{fill:#006991;}
	.st53{fill:#F9A01B;stroke:#FFFFFF;stroke-width:0.4473;stroke-miterlimit:10;}
	.st54{fill:#FAA533;}
	.st55{fill:#0092BC;}
	.st56{fill:#15182C;}
	.st57{fill:#3E419A;}
	.st58{fill:#101721;}
	.st59{fill:#ADA3A5;}
	.st60{fill:#9CA7AC;}
	.st61{clip-path:url(#SVGID_18_);}
	.st62{clip-path:url(#SVGID_20_);}
	.st63{fill:#F3FAF7;}
	.st64{fill:#2D2F63;}
	.st65{fill:#FAA819;}
	.st66{fill:#FEF6FA;}
	.st67{fill:#004F30;}
	.st68{fill:#A2C7D3;}
	.st69{fill:#EE2E55;}
	.st70{fill:#32366E;}
	.st71{fill:#00ADDC;}
	.st72{fill:#FFFFFF;stroke:#00ACD0;stroke-width:0.2915;stroke-miterlimit:10;}
	.st73{fill:#FFFFFF;stroke:#00ACD0;stroke-width:0.2973;stroke-miterlimit:10;}
	.st74{fill:#450000;}
	.st75{fill:#EE224A;}
	.st76{fill:#0064A5;}
	.st77{fill:#F47736;}
	.st78{fill:#B5BCBF;}
	.st79{fill:#F47B35;}
	.st80{fill:#EE2B52;}
	.st81{fill:#0C060E;}
	.st82{fill:#B58D49;}
	.st83{fill:#C9BBCB;}
	.st84{fill:#BA924C;}
	.st85{fill:#006BAF;}
	.st86{fill:#B3C5CB;}
	.st87{fill:#898C89;}
	.st88{fill:#2E2C61;}
	.st89{fill:#C3C5BD;}
	.st90{fill:#C4D2D9;}
	.st91{fill:#EE284D;}
	.st92{fill:#161212;}
	.st93{fill:#EE274E;}
	.st94{fill:#A2A7AA;}
	.st95{fill:#A6AAAC;}
	.st96{fill:#A1A2AB;}
	.st97{fill:#110B13;}
	.st98{fill:#AFC1C6;}
	.st99{fill:#0067AD;}
	.st100{fill:#FBFBFB;}
	.st101{fill:#0065AF;}
	.st102{fill:#121A26;}
	.st103{fill:#008D4C;}
	.st104{fill:#B43A3D;}
	.st105{fill:#111623;}
	.st106{fill:#AB9048;}
	.st107{fill:#F8A174;}
	.st108{fill:#120B19;}
	.st109{fill:#C59751;}
	.st110{fill:#B33638;}
	.st111{fill:#009154;}
	.st112{fill:#1C2026;}
	.st113{fill:#EE2844;}
	.st114{fill:#30385F;}
	.st115{fill:#3A84B1;}
	.st116{fill:#A3C5D7;}
	.st117{fill:#F9A039;}
	.st118{fill:#B0BEC0;}
	.st119{fill:#231D46;}
	.st120{fill:#FDB840;}
	.st121{fill:#CD2C32;}
	.st122{fill:#272049;}
	.st123{fill:#FEC027;}
	.st124{fill:#ADC7C6;}
	.st125{fill:#014429;}
	.st126{fill:#DF2539;}
	.st127{fill:#F57E30;}
	.st128{fill:#ED1942;}
	.st129{fill:#FEF9FB;}
	.st130{fill:#0065AA;}
	.st131{fill:#A6B5B8;}
	.st132{fill:#0B040C;stroke:#0B040C;stroke-width:0.2716;stroke-miterlimit:10;}
	.st133{fill:#F7F9FD;}
	.st134{fill:none;stroke:#EBF2CC;stroke-width:0.2972;stroke-miterlimit:10;}
	.st135{fill:#48484A;}
	.st136{opacity:0.2;}
	.st137{fill:#EE2E3B;}
	.st138{fill:#005BA6;}
	.st139{fill:#737577;}
	.st140{fill:#A1A0A5;}
	.st141{fill:#272360;}
	.st142{fill:#FAFAFB;}
	.st143{fill:#058BA6;}
	.st144{fill:#DEDBE7;}
	.st145{fill:#B2965B;}
	.st146{fill:#1B305B;}
	.st147{fill:#F9F9FA;}
	.st148{fill:#E12039;}
	.st149{fill:#FEF4F4;}
</style>
<g>
	<path class="st5" d="M39.8,26.9l-0.2-1.7l5.1,1.2c0,0,5.1-3,4.9-3c-0.1,0,7,4.6,7,4.6l-1-3.7l3.7,0.9c0,0,6.2-0.1,6.3-0.1
		c0.1,0,2.5-0.3,4-1.3c2.5,0.7,4.1,1.1,4.1,1.1l-0.1-0.7c0,0,8.1,1.8,8.8-3.9c0.6-5.7-6.1-7.2-8.7-6.1c0-1.8,0-2.1,0-2.1l-6.8-1.7
		l0.1,3.2c0,0-0.7,0-1.2,0.5c-1.6-0.5-5-1.1-5-1.1l-1.9,0.9L54.9,13l-0.5,0.9l-1.5,0l-3.1-7.5l-3.4,7.9l-0.3,0l0-1l-6.9-1.4
		c0,0-0.1,3.2-0.2,3.9C38,16.5,38,16.5,38,16.5l-4.3-1.6l-0.3,0.9c0,0-5.5-3-10,1.9c-4.1,4.5-1.3,8.8,1.6,9.9c2.9,1.1,5,1,7-0.2"/>
	<path class="st5" d="M13.3,28.1L9.9,65.2L0,61.9l6.9,32.8l16.3,6.2c0,0-12,14.2-13.5,27.6c4.7-4.7,18-20.6,31.7-26
		c-2.1,6.3-3.1,8.3-2.7,8.2c0.4-0.1,10.1-5.9,13-6.4c4.2,0.7,22.1,5.7,24.3,7.5c0.4,7.2,8.1,23.5,26.7,23.5
		c18.6,0,26.7-19,25.2-31.2c-0.9-9-4.5-12-4.5-12s5.4,0.7,8.2,0.7c0.6-4.6,3.3-17.3,3.3-17.3l-1.1-7.7l-1.8-0.1c0,0-5.6,1.9-6.3-0.4
		c-0.7-2.3,4.2-3.3,8.7-3.5l-0.4-7.3L128,42.9c0,0-3.1-0.4-5.8,0c-0.6-2.7-0.9-3.1-0.9-3.1l11-5.7l1.3-7.5L117.4,24l-6.7-21.4
		L100,21.1l-17.9-1.7L82,27.1l6.1,5.6c0,0-7.8,2.6-11,6.7c-4.9,0.4-4.9,0.4-4.9,0.4L61.6,15.5l-8,25.6l-0.7-8.9l-20.2-8.8l-2.8,11.5
		L13.3,28.1z"/>
	<path class="st130" d="M25.3,99.8c0,0,2.1,0.8,2.5,0.7C28.3,100.4,70.1,87,70.1,87s9.8-5.6,9.5-5.6c-0.3,0-0.8-8.3-0.8-8.3
		l-17.1-5.6L40.9,76c0,0-5.7,2.7-5.5,3c0.2,0.3-10.4,3.6-10.5,4c-0.1,0.3-1.4,13.4-1.4,13.7C23.4,97,25.3,99.8,25.3,99.8z"/>
	<path class="st131" d="M14.8,30.4l-3.6,37l-9.1-2.8l6.4,29.1l17.1,6.6L27.8,87l10.3,2.6h0.8l2.6-9.7l2.2,0.5l1.2,4.2l19.3-14.1
		L75.6,77v3.7l43.2,8.4c0,0,8,2.5,11.6,1.9c0.7-4.9,2.6-15.3,2.6-15.3l-0.5-6.2c0,0-5.8,2.2-8.3-1.2c-1.5-2.2,0.6-5.8,8.3-6
		c0-3.9-0.1-5.4-0.1-5.4l-5.7-12.7c0,0-5.1,0.3-5.7,0.4c-0.8-2.6-1.5-5.5-1.5-5.5l11.4-6.2l0.8-4.8L116,25.6l-6-19.2l-9.3,16.5
		l-16.8-1.2l-0.2,4.8l8.1,7.6c0,0-5.8,0-13.6,7c-4.5,0.4-7,0.5-7,0.5l-9-21.4L54.9,42l-2.6,0.4l-1.7-9.3l-17.1-7.2l-2.7,10.9
		L14.8,30.4z"/>
	<path class="st2" d="M16.3,33.1l15.9,6.3L34.9,28L49,34.1l1.9,10l0.5,2.4l27.2-3c0,0,3.9-5.9,11.8-7.9c5.4,2.7,6.5,3.5,6.5,3.5
		l1.6,3.7l11.3-1l9.6,4.9l6.1-0.9c0,0,5.3,10.7,5.3,11c0,0.3,0.4,4,0.4,4s-9.1,0.8-8.8,6c0.3,5.2,6.3,4.8,8.3,4.5
		c0.7,2.6,0.7,4.4,0.7,4.4L129,89.3c0,0-13.6-0.1-17.5-8.9c-0.2,2.1-0.4,3-0.4,3s-14.9-6.3-33.6-4.2c-0.1-3-0.1-3-0.1-3
		S63.8,68,63.9,68.5c0.1,0.4-18.2,13.2-18.2,13.2l-0.9-2.9l-4.6-0.9l-2.9,10.1l-10.9-3.4l-2,13.5L9.9,92.2L4.3,66.9l8.4,2.9
		l3.8-36.4"/>
	<path class="st131" d="M13.1,122.7c0,0,6.9-25.8,35-38.4c-0.4,2.5-0.7,3-0.5,2.9c0.2-0.1,12.2-6.2,30.3-7.9
		c18.1-1.7,35.1,1.6,43.4,12.2c6.5,7.7,6.7,23.9-1.3,33.3c-7.9,9.4-24.6,14.5-37.7-0.8c0,0-4.3-5.7-4.8-13.4
		c-2.5-1.3-13.7-5.9-23.2-7.2c4.6-1.3,14.1-3.1,24.7-0.5c0.4-1,0.6-1.8,0.6-1.8s-20.2-5.1-37.8,6c0.6-3.2,2.1-7.5,2.1-7.5
		S29.4,104.6,13.1,122.7z"/>
	<path class="st2" d="M16.3,117.5c0,0,9.7-23,30.4-30.8c-0.6,2.7-0.6,2.7-0.6,2.7s15.4-8,37.2-8.9c0,0,8.5,0,11.3,0.2
		c-2-2-2.4-2.2-2.4-2.2l2.1-1.5l11.3,4.5l-2.2,1c0,0,13,2.1,18.7,14.1c5.7,11.9,1.4,33-19,35.4c0,0-21.6,1.2-23.8-21.9
		c0,0-8.1-5-19.9-6.9c4.4-0.6,13.1-0.8,20.3,1.7c0.8-2.1,1.9-4.5,1.9-4.5s-18.7-5.7-37.5,3.8c1.3-4.1,2.1-6.9,2.1-6.9
		S27.1,104.5,16.3,117.5z"/>
	<g>
		<path class="st131" d="M57.3,94c0,0,28.2-4.7,39.6,5.3c-2.1-1.1-8.1-2.4-10.1-1.8c-2.4,3-2.9,3.7-2.9,3.7s10.7,3.5,18.3,1.4
			c3.7-1.3,4.4-2.7,4.4-2.7s-9.7-9.7-28-9.8C69,89.9,57.3,94,57.3,94z"/>
		<path class="st131" d="M94.9,91.5c0,0,8.6,3.1,13.2,7.1c2.6-2.4,4.1-5.5,4.1-5.5s-6.9-7.3-27-6.2c8.5,0.5,15.7,3.7,16.6,4.6
			C97.2,90,95,91.4,94.9,91.5z"/>
		<path class="st131" d="M114.8,112.4c0.2-0.2,1.9,7.2,0.8,10.9c-4.3,3.6-8.8,5.4-10.1,5.4C106.3,124,108.8,116.4,114.8,112.4z"/>
		<path class="st131" d="M113.2,94c0,0-1.9,4.3-4.2,5.9c2.1,2.4,3.8,4.9,3.8,4.9s2.6-1.7,5.3-5.8C116.6,96.2,114.1,94.3,113.2,94z"
			/>
		<path class="st131" d="M119.1,100.8c0,0-3.5,4.4-5.3,5.6c0.8,1.5,1.6,3.6,1.6,3.6s4.5-1.5,5.7-1.6
			C121.2,106.3,119.8,101.7,119.1,100.8z"/>
		<path class="st131" d="M107.6,101c0,0-3.5,4-11.9,3.8c-7.1-0.2-12.3-2.2-12.3-2.2s-2.6,7.8-0.2,13.4c4.9-0.1,12.4-1.4,21.2-5.7
			c5.6-2.8,7.3-4.4,7.3-4.4S108.8,101.6,107.6,101z"/>
		<path class="st131" d="M112.6,107.3l1.4,3.5c0,0-5.3,3.2-8.1,10.6c-2.2,6-2.6,7.5-2.6,7.5s-7.8,1.3-13.9-4.1
			c-4.4-4-5.4-7.1-5.4-7.1s9.4-1,15.9-3.7C106.4,111.4,112.6,107.3,112.6,107.3z"/>
	</g>
	<g>
		<g>
			<path class="st131" d="M18.7,41c-0.2,0.9-0.3,2.3-0.6,4.1c-0.4,3-0.9,7.2-1.6,12.4c-0.8,6.5-1.6,13.1-1.9,16.2L8,71.1l3.6,15.7
				l10.7,3.8l2.8-22.8l3.1,10.9l7.7,2.6L39.1,65l0.8,7.2l7.3,2.7l5.5-17.6l-4.9-13.1l-1.3-8.8l-9.8-4l-4.7,21.2l-3.4-11.3L28,41.1
				l-8.9-3.9C19.1,37.2,18.7,40.8,18.7,41z"/>
			<path class="st131" d="M97.2,46.9l0-0.2l-2.4-6l-4.4-3.1l-0.6,0.2c-0.5,0.1-12,3.7-14.3,17.4c-0.7,4.4,0.1,7.9,2.2,10.5
				c2.1,2.6,5.1,3.6,7.2,3.7l1.2,0.1c-0.8,1.8-2.3,3.6-4.9,4.2l-2.6,0.7l2,1.7c3,2.5,5.3,4.1,5.4,4.1l0.3,0.2l2.6,0.2l0.4-0.3
				c0.4-0.3,8.8-6.8,8.4-15.7C97.4,56.3,97.2,47,97.2,46.9z M85.9,60c0,0-2.1-0.6-2.4-3c-0.2-1.8,1.9-4.5,3.7-6.2
				c0,4.5,0,12.6,0,12.7l0,0.1c0,0.2,0.2,2.8-0.8,5.3v-1c0-3.5,0.5-6.4,0.5-6.4l0.2-1.2L85.9,60z"/>
			<path class="st131" d="M107.5,42.1c-0.3-0.3-0.9-0.7-1.9-0.7c-0.4,0-0.7,0.1-1.1,0.2c-2.3,0.6-4.9,2.7-5,2.8l-0.5,0.4l0.9,26.2
				l9.2,5.7l-0.8-32.7C108.2,43.6,108.1,42.8,107.5,42.1z"/>
			<path class="st131" d="M119.3,64.6L119.3,64.6c0.1-5.7,7-7.2,7.3-7.3l1.6-0.3l-4.1-9.2l-1,0.1c-0.2,0-6.1,0.5-10.1,5.4
				c-2.9,3.5-3.9,8.3-3.2,14.2c1.3,12.3,10.6,15.5,15.8,15.5l1.3,0l0.8-7.9l0.1-1.2l-1.2-0.3C126.4,73.4,118.8,71.7,119.3,64.6z"/>
		</g>
	</g>
	<g>
		<path class="st130" d="M9.9,73.3l5.8,2.3c0,0,4.2-35.9,4.6-36c0.4-0.1,7.2,2.7,7.2,2.7L32.3,58l5.4-24.7l7.6,3.1l1.2,8.1l4.8,12.8
			l-4.9,15.8l-5.2-1.9l-1.7-15l-4.6,23.4l-5.6-1.9L24.5,61l-3.4,27.8l-8.4-3L9.9,73.3z"/>
		<path class="st130" d="M90.1,39c0,0-11.1,3.3-13.3,16.3C75.3,65.2,82,67.8,85,67.9c0-3.7,0.5-6.7,0.5-6.7s-3-0.8-3.4-4.2
			c-0.4-3.3,4.1-7.9,6.4-8.9c0.1,2.8,0,15.2,0,15.2s0.7,9.5-7,11.5c3,2.5,5.3,4.1,5.3,4.1l1.7,0.2c0,0,8.2-6.3,7.9-14.5
			c-0.3-8.3-0.6-17.6-0.6-17.6l-2.2-5.4L90.1,39z"/>
		<path class="st130" d="M100.3,45.4l0.8,24.8l6.4,4l-0.7-30.2c0,0,0.1-1.6-1.9-1.1C102.8,43.4,100.3,45.4,100.3,45.4z"/>
		<path class="st130" d="M123.3,49.1c0,0-14.1,1.1-12,18.1c1.5,14.6,14.5,14.3,14.5,14.3l0.6-6.7c0,0-9.1-1.9-8.5-10.3
			c0.2-6.8,8.4-8.5,8.4-8.5L123.3,49.1z"/>
	</g>
	<path class="st132" d="M85.6,23.3c-0.1,0.2-0.3,2.9-0.3,2.9l11.2,10.6l-6,11.2c0,0-0.3,3,0,2.9c0.2-0.2,14.7-7.1,14.7-7.1l15,11.1
		l1.1-3l-3.4-13.8l11.4-6.4l0.7-2.4l-15-2.3l-5.1-16.5l-8.2,14.3L85.6,23.3z"/>
	<g>
		<path class="st2" d="M61.9,24.7c0.2,0.1,8.1,18.4,8.1,18.4l16.6-1l-0.7,3.3l-10.3,9.4L74,57.4l5.7,13.7l-3.4,0.7l-14.6-4.9
			L45,77.5l6.3-20.2l-12.1-8.7l-0.2-3.2l17.3-1.7L61.9,24.7z"/>
		<g>
			<path class="st133" d="M53.9,56.2c-0.4,1.3-1.2,3.7-2,6.1l-3.1,10.8c0,0,14.6-10.7,14.5-10.7c-0.1,0,14.4,7.6,14.4,7.6
				c0,0-6.2-15.4-6.2-15.4l10.7-9.9l-14.2,0.9l-5.6-14.3L57.7,46c0,0-15.4,1.4-15.3,1.4L53.9,56.2z"/>
			<path class="st131" d="M62.5,35l-3.5,12.1c0,0-13.5,1-13.6,1.2c-0.1,0.2,10.2,7,10.2,7S51,69.5,51.2,69.5c0.2,0,12.4-9,12.4-9
				s12.2,6.8,12,6.8c-0.2,0-5.6-13.2-5.6-13.2l9.3-8l-11.9,0.6L62.5,35z"/>
		</g>
	</g>
	<g>
		<polygon class="st133" points="109.2,15.9 102.9,26.9 89.1,25.5 99.3,34.9 94,46.2 106.9,40.1 118,49.3 114.5,36.4 125.1,30.4 
			112.7,28.5 		"/>
		<path class="st131" d="M108.9,19.2l-4.9,9l-11.4-1.3l8.7,7.7l-4.5,8.8l10.2-4.5l9,7l-2.7-10.2l8.1-4.7l-9.7-1.2
			C111.7,29.8,108.7,19.1,108.9,19.2z"/>
	</g>
	<path class="st131" d="M65.3,72.9L64,75.8l-3.1,0l2.4,2c0,0-1,3.1-0.9,3c0.1,0,2.3-1.8,2.4-1.9c0.1,0,2.6,1.8,2.6,1.8L67,77.6
		c0,0,2.5-1.5,2.4-1.5s-3.2-0.4-3.2-0.4L65.3,72.9z"/>
	<path class="st131" d="M99.8,75.6l-1.5,3.5L95,78.5l2.5,3c0,0-1.4,3.2-1.2,3.2c0.1,0,2.6-1.5,2.8-1.6c0.1,0,2.9,2.8,2.9,2.8
		l-0.5-3.8c0,0,3.2-1.6,3-1.6c-0.1,0-3.8-0.9-3.8-0.9L99.8,75.6z"/>
	<path class="st131" d="M30.6,89.7c0,0.1-1,1.4-1,1.4L28,90.8l1.2,1.2c0,0-1,1.6-0.9,1.6c0.1,0,1.6-0.7,1.6-0.7l1.2,1.1l0.1-1.7
		c0,0,1.2-0.7,1.1-0.8c-0.1,0-1.6-0.4-1.6-0.4L30.6,89.7z"/>
	<path class="st131" d="M37.8,95.4c-0.2,0,1.5,0,1.5,0l0.4-1.5l0.7,1.6h1.6l-1.3,1l0.5,1.4l-1.4-0.9l-1.2,0.7l0.5-1.4
		C38.9,96.2,37.9,95.4,37.8,95.4z"/>
	<path class="st5" d="M50.3,94.9c-0.2,0,1.6,0,1.6,0l0.4-1.6l0.7,1.8h1.7l-1.4,1.1l0.5,1.5l-1.6-0.9l-1.2,0.8l0.5-1.6
		C51.6,95.9,50.4,94.9,50.3,94.9z"/>
	<path class="st5" d="M76.7,85.4c-0.4,0,2.5-0.1,2.5-0.1l0.7-2.6l1.1,2.8h2.7l-2.3,1.7l0.8,2.3L79.8,88l-2,1.3l0.8-2.5
		C78.6,86.8,76.8,85.4,76.7,85.4z"/>
	<g>
		<path class="st5" d="M100.7,89.2c-0.6,0,7.1,2.6,9,5.2c0.5-0.8,0.8-1.3,0.8-1.3S104.6,89.2,100.7,89.2z"/>
		<path class="st5" d="M114.3,95.8l-1.1,1.5l2.4,3.5l1.1-1.9C116.7,99,114.5,95.6,114.3,95.8z"/>
		<path class="st5" d="M117.4,104.6l1.7-1.7c0,0,0.7,3.4,0.7,4.3c-1.5,0.2-1.5,0.2-1.5,0.2L117.4,104.6z"/>
	</g>
	<path class="st134" d="M118.6,111.5c0,0,0.3,3.4-0.2,4.7c1.4-3.5,1.6-5.1,1.6-5.1L118.6,111.5z"/>
	<path class="st131" d="M116.3,111.6c0,0,1.5,5.9,1.1,9.1c3.2-3.2,3.8-9.1,4.2-10.9C120.5,109.8,117,111.2,116.3,111.6z"/>
	<g>
		<g>
			<path class="st130" d="M113.2,115.8c0.3,0.1,1,6.3,0.1,7.2c-1.7,1.1-5.9,4-5.9,4s0.5-6.3,4.4-10.7c-0.5,2.6-0.5,3-0.5,3
				L113.2,115.8z"/>
			<path class="st130" d="M105.3,107.7c0,0-11,6.5-20.4,6.5c-1.6-2.4-1.3-7.1-0.1-8.6c2.4,0.9,9.6,2.1,15.1,1.3c-2.6,1-8,3.3-8,3.3
				S100.3,109.4,105.3,107.7z"/>
			<path class="st130" d="M107,112.3c0.1-0.1-9.3,6.9-19.9,7.5c2.7,4,8,7.6,14.3,6.9c1.5-3.7,5.3-11.3,6.2-12.5
				c-1.8,1.6-7,7.2-12.7,8.2C97.9,120.6,105.5,114.6,107,112.3z"/>
		</g>
	</g>
	<g>
		<path class="st131" d="M77.6,15.7c-3.2-0.8-4.8,0.5-5.6,1.8v-0.1l0.1-3.8l-3.8-1.1l0.4,2.8c0,0-1.8,0.1-2,0.2
			c-0.2,0-3.2,2.4-3.7,3.7c0.4-2.5,0.7-3.7,0.9-3.7c0.1,0-3.1-0.6-3.1-0.6l-1.7,1L55.7,15l-0.3,0.6c0,0-3.5,0-3.7,0
			c-0.2,0-1.9-4.5-1.9-4.5l-1.9,4.5c0,0-3.7,0.6-3.6,0.6c0.1,0,0.2-1.5,0.2-1.5s-3.8-0.8-3.6-0.6c0.2,0.1-0.4,3.8-0.4,3.8l-1.2-0.3
			l-1.6,0.6L35,17l-0.5,2.3c0,0-1.6-4.3-7.4-2.4c-5.8,1.9-4.8,8.1-2.1,9.1c2.7,1,5.8,1.4,8.7-2.2c0,0.4,0,0.4,0,0.4l4.1,1.2
			c0,0-1-4.4,2.3-5.5c-0.1,2.5-0.1,3.7-0.1,3.7l3.5,0.9l0.6-6.4l1.6,1.4l-1.4,5.3l5-3.4l4.6,3.1l-1-5.2l2.1-1.6l-0.9,4.6l3.8,0.9
			c0,0,0.7-3,1.4-3.5c0,1.9,0.1,2.1,0.1,2.1l3.6,0.8l0.1-0.5c0,0,2.2,2.5,6.1-0.1c1.9,0.3,2.8,0.5,2.8,0.5s0.1-1.3,0.1-1.6
			c0.1,0.4,1.8,2.8,5.9,1.8C82.3,21.7,81.6,16.8,77.6,15.7z M30.4,21.6c-0.2,0.7-1.4,2.5-2.7,2c-1.2-0.5-0.4-2.1,0.4-3.3
			c0,0,0.8-1.4,1.9-1C31,19.7,30.5,21.2,30.4,21.6z M66.6,20.1c0,0-0.5-0.8,1.2-1.8l0.1,0.1L66.6,20.1z M76.3,20.2
			c-0.5,0-0.9-0.4-0.9-1c0-0.6,0.4-1,0.9-1c0.5,0,0.9,0.5,0.9,1C77.2,19.7,76.8,20.2,76.3,20.2z"/>
		<path class="st2" d="M30.6,17.3c-3.1-0.6-5.1,1.4-5.1,1.4c-3.1,3-1.6,6.2,0.3,7.1s5.7,0.5,7.5-2.4C35.2,20.6,33.4,17.9,30.6,17.3z
			 M31.5,20.7c-0.1,1.7-1.3,3.4-2.7,3.9c-1.4,0.5-3.6,0.1-2.4-3.3c0,0,0.7-2.3,2.6-2.7C30.6,18.2,31.6,19,31.5,20.7z"/>
		<path class="st2" d="M35.5,18.1l-0.9,5.5l2.4,0.9c0,0-1.3-4.5,3.8-5.6c-1.4-0.4-1.6-0.5-1.6-0.5s-1.5,0.4-1.7,0.6
			c-0.1-0.6-0.1-0.6-0.1-0.6L35.5,18.1z"/>
		<path class="st2" d="M41.5,14.6l2.4,0.5l-1,8.4L40.9,23l0.1-2.4c0,0,0-1.2,1.6-1.4c-0.5-0.4-1.4-0.6-1.4-0.6L41.5,14.6z"/>
		<polygon class="st2" points="44,17.2 46.6,19.2 45.5,23 49.4,20.5 53.1,22.7 52.1,18.9 55.9,16.1 51.1,16.4 49.9,12.8 48,16.4 		
			"/>
		<polygon class="st5" points="45.9,17.4 48.5,17.2 49.9,14.6 50.7,17.1 53.5,17.1 51.4,18.6 51.9,21.1 49.6,19.6 46.8,21.6 
			47.6,18.9 		"/>
		<path class="st2" d="M56.4,15.8l-1.4,6l2.8,0.5c0,0-0.2-3.1,2.2-4.6c0,1.7,0.2,3.3,0.2,3.3l2.2,0.6c0,0-0.1-4.1,0.6-5.8
			c-0.8-0.3-1.9-0.6-2.3-0.5c-1.6,1.3-2.4,1.4-2.4,1.4l0-0.6L56.4,15.8z"/>
		<path class="st2" d="M69.4,13.3c0,1.2-0.2,2.8-0.2,2.8s-2.4-0.4-2.3-0.3c0.1,0-3.8,2.9-3.2,5.4c0.5,1.8,3.2,1.9,5.4,0.2
			c1.1,0.2,2.2,0.2,2.2,0.2v-7.7C71.4,13.9,69.9,13.8,69.4,13.3z M68,19.8c-0.9,1-1.9,1.4-2.2,0.9c-0.2-0.5,0.5-2.6,3.4-3.9
			C69.3,16.9,68.9,18.9,68,19.8z"/>
		<path class="st2" d="M76.7,16c-2.5-0.4-3.5,1.4-3.5,1.4c-1.4,2.2,0,4.8,2.7,5c2.7,0.2,4.1-1.4,4.3-2.8
			C80.3,18.2,79.2,16.4,76.7,16z M76.4,21.1c0,0-1.8-0.1-1.9-1.9c-0.1-1,0.5-1.5,0.7-1.7c0,0,1.4-0.8,2.5,0.4
			C78.4,18.7,78.4,21.2,76.4,21.1z"/>
	</g>
</g>
<g class="st136">
	
		<image style="overflow:visible;" width="3674" height="1293" xlink:href="A5CD8491.png"  transform="matrix(0.24 0 0 0.24 -243.9278 134.7148)">
	</image>
</g>
</svg>
