<?xml version="1.0" encoding="utf-8"?>
<!-- Generator: Adobe Illustrator 23.0.1, SVG Export Plug-In . SVG Version: 6.00 Build 0)  -->
<svg version="1.1" id="Capa_1" xmlns="http://www.w3.org/2000/svg" xmlns:xlink="http://www.w3.org/1999/xlink" x="0px" y="0px"
	 viewBox="0 0 149.2 86.6" style="enable-background:new 0 0 149.2 86.6;" xml:space="preserve">
<style type="text/css">
	.st0{fill:#175384;}
	.st1{fill:#A0A5AA;}
	.st2{fill:#0B040C;}
	.st3{fill:#FFC727;}
	.st4{fill:#F0545B;}
	.st5{fill:#FFFFFF;}
	.st6{fill:#00A855;}
	.st7{fill:#B4C4C9;}
	.st8{fill:#221A21;}
	.st9{fill:#EF3A47;}
	.st10{fill:url(#SVGID_1_);}
	.st11{fill:url(#SVGID_2_);}
	.st12{fill:url(#SVGID_3_);}
	.st13{fill:url(#SVGID_4_);}
	.st14{fill:url(#SVGID_5_);}
	.st15{fill:url(#SVGID_6_);}
	.st16{fill:url(#SVGID_7_);}
	.st17{fill:url(#SVGID_8_);}
	.st18{fill:url(#SVGID_9_);}
	.st19{fill:url(#SVGID_10_);}
	.st20{fill:url(#SVGID_11_);}
	.st21{fill:url(#SVGID_12_);}
	.st22{fill:#313564;}
	.st23{fill:#F04B41;stroke:#FFFFFF;stroke-width:2.1543;stroke-linecap:round;stroke-linejoin:round;stroke-miterlimit:10;}
	.st24{fill:#007FBA;stroke:#FFFFFF;stroke-width:2.1543;stroke-linecap:round;stroke-linejoin:round;stroke-miterlimit:10;}
	.st25{fill:#313564;stroke:#FFFFFF;stroke-width:2.1543;stroke-linecap:round;stroke-linejoin:round;stroke-miterlimit:10;}
	.st26{fill:#FFFFFF;stroke:#FFFFFF;stroke-width:2.1543;stroke-linecap:round;stroke-linejoin:round;stroke-miterlimit:10;}
	.st27{clip-path:url(#SVGID_14_);}
	.st28{fill:#FBAC36;stroke:#FFFFFF;stroke-width:2.1543;stroke-linecap:round;stroke-linejoin:round;stroke-miterlimit:10;}
	.st29{fill:#F04B41;}
	.st30{fill:#007FBA;}
	.st31{clip-path:url(#SVGID_16_);}
	.st32{fill:#FBAC36;}
	.st33{fill:#2C2F61;}
	.st34{fill:#B7B9BA;}
	.st35{fill:#EF3748;}
	.st36{fill:#8999AC;}
	.st37{fill:#2B2F61;}
	.st38{fill:#EE2C45;}
	.st39{fill:#101624;}
	.st40{fill:#59707A;}
	.st41{fill:#4A3285;}
	.st42{fill:#F79230;}
	.st43{fill:#F15733;}
	.st44{fill:#D7303F;}
	.st45{fill:#FAA832;}
	.st46{fill:#1F1721;}
	.st47{fill:#5F3188;}
	.st48{fill:#EE243D;}
	.st49{fill:#1F4BA0;}
	.st50{fill:#244789;}
	.st51{fill:#FBAE2E;}
	.st52{fill:#006991;}
	.st53{fill:#F9A01B;stroke:#FFFFFF;stroke-width:0.4473;stroke-miterlimit:10;}
	.st54{fill:#FAA533;}
	.st55{fill:#0092BC;}
	.st56{fill:#15182C;}
	.st57{fill:#3E419A;}
	.st58{fill:#101721;}
	.st59{fill:#ADA3A5;}
	.st60{fill:#9CA7AC;}
	.st61{clip-path:url(#SVGID_18_);}
	.st62{clip-path:url(#SVGID_20_);}
	.st63{fill:#F3FAF7;}
	.st64{fill:#2D2F63;}
	.st65{fill:#FAA819;}
	.st66{fill:#FEF6FA;}
	.st67{fill:#004F30;}
	.st68{fill:#A2C7D3;}
	.st69{fill:#EE2E55;}
	.st70{fill:#32366E;}
	.st71{fill:#00ADDC;}
	.st72{fill:#FFFFFF;stroke:#00ACD0;stroke-width:0.2915;stroke-miterlimit:10;}
	.st73{fill:#FFFFFF;stroke:#00ACD0;stroke-width:0.2973;stroke-miterlimit:10;}
	.st74{fill:#450000;}
	.st75{fill:#EE224A;}
	.st76{fill:#0064A5;}
	.st77{fill:#F47736;}
	.st78{fill:#B5BCBF;}
	.st79{fill:#F47B35;}
	.st80{fill:#EE2B52;}
	.st81{fill:#0C060E;}
	.st82{fill:#B58D49;}
	.st83{fill:#C9BBCB;}
	.st84{fill:#BA924C;}
	.st85{fill:#006BAF;}
	.st86{fill:#B3C5CB;}
	.st87{fill:#898C89;}
	.st88{fill:#2E2C61;}
	.st89{fill:#C3C5BD;}
	.st90{fill:#C4D2D9;}
	.st91{fill:#EE284D;}
	.st92{fill:#161212;}
	.st93{fill:#EE274E;}
	.st94{fill:#A2A7AA;}
	.st95{fill:#A6AAAC;}
	.st96{fill:#A1A2AB;}
	.st97{fill:#110B13;}
	.st98{fill:#AFC1C6;}
	.st99{fill:#0067AD;}
	.st100{fill:#FBFBFB;}
	.st101{fill:#0065AF;}
	.st102{fill:#121A26;}
	.st103{fill:#008D4C;}
	.st104{fill:#B43A3D;}
	.st105{fill:#111623;}
	.st106{fill:#AB9048;}
	.st107{fill:#F8A174;}
	.st108{fill:#120B19;}
	.st109{fill:#C59751;}
	.st110{fill:#B33638;}
	.st111{fill:#009154;}
	.st112{fill:#1C2026;}
	.st113{fill:#EE2844;}
	.st114{fill:#30385F;}
	.st115{fill:#3A84B1;}
	.st116{fill:#A3C5D7;}
	.st117{fill:#F9A039;}
	.st118{fill:#B0BEC0;}
	.st119{fill:#231D46;}
	.st120{fill:#FDB840;}
	.st121{fill:#CD2C32;}
	.st122{fill:#272049;}
	.st123{fill:#FEC027;}
	.st124{fill:#ADC7C6;}
	.st125{fill:#014429;}
	.st126{fill:#DF2539;}
	.st127{fill:#F57E30;}
	.st128{fill:#ED1942;}
	.st129{fill:#FEF9FB;}
	.st130{fill:#0065AA;}
	.st131{fill:#A6B5B8;}
	.st132{fill:#0B040C;stroke:#0B040C;stroke-width:0.2716;stroke-miterlimit:10;}
	.st133{fill:#F7F9FD;}
	.st134{fill:none;stroke:#EBF2CC;stroke-width:0.2972;stroke-miterlimit:10;}
	.st135{fill:#48484A;}
	.st136{opacity:0.2;}
	.st137{fill:#EE2E3B;}
	.st138{fill:#005BA6;}
	.st139{fill:#737577;}
	.st140{fill:#A1A0A5;}
	.st141{fill:#272360;}
	.st142{fill:#FAFAFB;}
	.st143{fill:#058BA6;}
	.st144{fill:#DEDBE7;}
	.st145{fill:#B2965B;}
	.st146{fill:#1B305B;}
	.st147{fill:#F9F9FA;}
	.st148{fill:#E12039;}
	.st149{fill:#FEF4F4;}
</style>
<g>
	<path class="st118" d="M147.6,32l-3.2-1.4l0.6-3.3c0.1-0.7-0.3-1.4-0.9-1.6l-4.9-1.8l0.3-1.3c0.2-0.7-0.2-1.5-0.9-1.7l-3.5-1.2
		l0.6-3.1c0.1-0.7-0.2-1.3-0.9-1.6c-0.2-0.1-24.5-10.4-59.4-10.5l-0.6,0C40.3,4.5,14.4,14.9,14.2,15c-0.7,0.3-1.1,1.1-0.8,1.8
		l0.7,2.5l-3.8,1.5c-0.7,0.3-1.1,1.1-0.9,1.8l0.5,1.4L5,25.8c-0.7,0.3-1.1,1-0.9,1.7l0.7,3.1l-3.3,1.3c-0.7,0.3-1.1,1.1-0.8,1.8
		l11.7,35.4c0.1,0.4,0.4,0.7,0.8,0.9c0.4,0.2,0.8,0.2,1.2,0l3.3-1.3l1.2,2.9c0.1,0.4,0.4,0.7,0.8,0.8c0.4,0.1,0.8,0.1,1.1,0l5.7-2.4
		c0.1,0.3,0.3,0.5,0.4,0.9c0.3,0.7,1.2,1,1.9,0.7c4.6-2.1,9.5-3.9,12.7-4.9l-3.3,5c-0.3,0.5-0.3,1.2,0,1.7c0.4,0.5,1,0.7,1.6,0.5
		l16.3-4.9l6.8,15.2c0.2,0.5,0.8,0.9,1.3,0.9c0,0,0.1,0,0.1,0c0.6,0,1.1-0.4,1.3-1l4.9-16l18.1,4.7c0.6,0.1,1.2-0.1,1.5-0.5
		c0.4-0.5,0.4-1.1,0.1-1.6c-0.1-0.1-1.3-2.3-6.4-8.2c19.3,1.1,36.5,9.2,36.7,9.3c0.7,0.3,1.5,0.1,1.9-0.6l0.5-0.9l5.6,2.3
		c0.7,0.3,1.6-0.1,1.9-0.8l1.2-2.8l3.4,1.2c0.4,0.1,0.8,0.1,1.1-0.1c0.3-0.2,0.6-0.5,0.7-0.9l11.5-35.2
		C148.7,33.1,148.3,32.3,147.6,32z"/>
	<path class="st5" d="M2.1,33.3l4.4-1.8l-1-4.3l6.1-2.4L10.8,22l5.1-1.9l-1.1-3.8c0,0,25.7-10.5,60.8-10.4
		c35,0.1,58.8,10.4,58.8,10.4l-0.8,4.3l4.7,1.6l-0.7,2.6l6.1,2.3l-0.8,4.4l4.2,1.8l-11.5,35.2l-4.7-1.6l-1.7,4.1l-6.8-2.7l-1.1,2
		c0,0-19.5-9.3-40.6-9.6c6.9,7.7,8.4,10.5,8.4,10.5l-19.5-5l-5.3,17.3L57,67.2l-17.5,5.2L45,64c0,0-8.6,2.5-16.8,6.3
		c-0.8-1.7-1-2.2-1-2.2l-6.9,3l-1.7-4.2l-4.7,1.8L2.1,33.3z"/>
	<path class="st2" d="M5.4,35c0,0.4,4.7-1.8,4.7-1.8l-1.3-4.4c0,0,5.6-2.2,5.9-2.4c0.3-0.2-0.8-2.6-0.8-2.6l5.2-2l-1.5-3.9
		c0,0,22.9-9.2,56.7-9.3c33.8-0.1,57.1,9.6,57.1,9.6l-1,4l5,1.7l-1,3l6.3,2.4l-1,4.1l4.4,1.5l-10.2,30.7l-4.4-1.6l-1.5,4.2
		c0,0-6.1-2.7-6.9-2.7c-0.8,1.8-0.8,1.8-0.8,1.8s-18.3-9.1-44.4-8.5c3.2,3.6,8.1,9.4,8.1,9.4l-16.2-4.6l-4.1,14.3l-5.6-13.4l-14,4.7
		l5.7-8.4c0,0-10.5,2.2-20.5,6.5c-0.8-1.8-0.8-1.8-0.8-1.8s-4.2,1.5-6.6,2.5C20.4,64,20.4,64,20.4,64s-3.6,1-5,1.7
		C14.5,62.3,5.4,34.9,5.4,35z"/>
	<path class="st5" d="M9.4,36.8l8,24.9l4.7-1.8l1.4,4c0,0,17.7-7.7,31.1-9.3c1.9,1.6,1.9,1.6,1.9,1.6s-3.2,4-4.9,7.5
		c3-1.1,8.2-3,8.2-3l3.3,8.1l3-8.6l9.4,2.5l-5.6-7.2l2.4-2.5c0,0,26.7-2,53.8,10.5c1-3,1.5-3.9,1.5-3.9l4.3,1.6l8.2-24.5l-4.4-1.5
		l1.3-4.6c0,0-29.2-12.4-64.9-11.6c-35.6,0.8-59.2,11.7-59.2,11.7l1.1,4.7L9.4,36.8z"/>
	<path class="st118" d="M11.9,38.3l6.8,19.9l4.1-1.6l1.7,4.1c0,0,17.2-6.6,27.1-7.8c-1.8-1.9-1.8-1.9-1.8-1.9l8.1-0.3l0.1-7.2
		l1.7-3.9l-9.4,2.2l1.1,7.1l-7.9,1.8L43,49c0,0-1,2.2-3.1,2.6c-2,0.5-12.2,4-12.2,4s-3.9,1.5-5.2-2.2c-1.4-3.6-4.7-14.2-4.7-14.2
		s-1.5-3.6,2.8-5.2c4.3-1.6,12.3-4,12.3-4s4.1-1.6,5.3,2.5c1.3,4.1,3.8,11.6,3.8,11.6l-3-15.8l18.5-3.9c0,0,3.3-0.9,4.1,4.1
		c1,4.9,1,5.9,1,5.9l1.9-5.8l2.6-4.3h7.4l-0.1,9.3l-2.7,4.8h0.9l3.5-5.2v-3.6l3.5-5.3h6.6l0.6,4.6l0.7-4.6l18.3,2.6
		c0,0,4.2,0.7,3.2,5.5c-1,4.8-2.6,13.7-2.6,13.7l4.2-13.3c0,0,0.6-4.1,6.1-2.6c5.6,1.5,12.7,4,12.7,4s3,1,1.5,6.1
		c-1.5,5.1-3.9,13-3.9,13s-0.7,4.3-7.6,2c-6.9-2.3-19.1-5.7-19.1-5.7S97.2,49,98,44.9c0.7-3,0.6-3.6,0.6-3.6l-4.8-0.8l-1.4,7.5
		l-8-1.4l1-9.4l-6.3,11l-7.2,0.3l-0.7,1l4.4,0.1l-1.5,1.3c0,0,14.5-0.8,33.5,4.2c11,2.8,17.2,5.7,17.2,5.7l1.4-3.6l4.2,1.6l6.7-20.8
		l-4-1.4l1.3-4.4c0,0-25.3-11.2-59.5-11.3C40.8,20.8,15.2,32,15.2,32l1.3,4.3L11.9,38.3z"/>
	<path class="st2" d="M66.8,55.2l3.7-3.3h-3.9l4.6-5.6H78l6.9-12.3v-8.4c0,0-4.2,0-4,0S78.6,30,78.6,30v3.5l-4.4,7.2h-6.1l4.6-6.8
		v-8.2h-4l-2.4,3.9v3.6l-6.5,10.4l1.4,2.2h3.4L63.2,51l-3.2-3.3v4.8h-5l3.8,3.1l-2.5,4.4l4.3-1.6l2.5,4.8l1.6-5.2l5.1,1.5L66.8,55.2
		z"/>
	<path class="st2" d="M23.1,49.2l4.1-1.7c0,0,0,2.3,2.7,1.5c2.7-0.8,5.4-1.9,5.4-1.9s1.1-0.3,0.6-1.7S35.3,44,35.3,44s-0.2-1-2-0.3
		c-1.8,0.7-8.6,2.9-8.6,2.9s-2.1,0.7-2.7-0.9c-0.6-1.6-2.6-7.4-2.6-7.4s-0.4-1.8,1.9-2.6c2.4-0.8,11.9-4,11.9-4s2-1.1,2.8,0.7
		c0.8,1.8,1.3,4.1,1.3,4.1l-4,1.3l-0.6-1.1c0,0-0.2-0.9-1.5-0.4c-1.2,0.5-6.1,2.3-6.1,2.3s-0.8,0.3-0.4,1.3c0.3,1,0.6,2,0.6,2
		s0.1,0.5,1.1,0.1c1-0.3,9.4-3.1,9.4-3.1s1.9-1,2.7,1.4c0.8,2.5,2.5,6.9,2.5,6.9s0.9,1.6-1.7,2.5c-2.6,0.9-11.9,4-11.9,4
		s-2,0.8-2.8-0.9C23.9,51.3,23.1,49.2,23.1,49.2z"/>
	<path class="st2" d="M109.5,43.7l4.3,1.1c0,0-1.3,1.8,1.3,2.8c2.6,0.9,5.4,1.7,5.4,1.7s1.1,0.4,1.5-1c0.4-1.5,0.4-1.5,0.4-1.5
		s0.4-1-1.4-1.4c-1.8-0.5-8.7-2.7-8.7-2.7s-2.1-0.7-1.7-2.3c0.4-1.7,2.3-7.5,2.3-7.5s0.7-1.7,3.1-1c2.4,0.7,12,3.8,12,3.8
		s2.2,0.3,1.8,2.2c-0.4,1.9-1.4,4.1-1.4,4.1l-4-1.3l0.2-1.3c0,0,0.3-0.9-1-1.2c-1.3-0.3-6.2-1.7-6.2-1.7s-0.8-0.2-1.1,0.8
		c-0.3,1-0.7,1.9-0.7,1.9s-0.2,0.5,0.8,0.8c1,0.3,9.4,3,9.4,3s2.1,0.3,1.3,2.7c-0.8,2.5-2.1,7.1-2.1,7.1s-0.2,1.8-2.9,1
		c-2.6-0.8-12-3.8-12-3.8s-2.1-0.5-1.7-2.4C108.9,45.9,109.5,43.7,109.5,43.7z"/>
	<path class="st2" d="M61,35.4c0,0-1-5.5-1.2-7.4c-0.2-2-2.7-1.3-2.7-1.3l-15.4,2.9L45,48l4.2-0.8l-1.3-7.4c0,0,8.9-1.5,11.3-2
		C61.6,37.3,61,35.4,61,35.4z M55.3,34.9c-1.5,0.3-8.1,1.5-8.1,1.5l-0.7-4l7.5-1.5c0,0,1.6-0.4,1.9,0.8c0.2,1.2,0.3,1.9,0.3,1.9
		S56.8,34.6,55.3,34.9z"/>
	<path class="st2" d="M105,28.6l-15.5-2.3l-2.9,18.4l4.2,0.6L92,38c6.1,1.1,6,1,7.6,1.3c1.6,0.3,1.6,1.6,1,4.1
		c-0.5,2.1-0.3,3.6-0.3,3.6s2.1,0.3,4.3,0.7c-0.2-1,0.6-4.7,0.8-6.1c0.2-1.5,0.3-2-0.4-2.8c1.2-0.1,1.3-1.9,1.3-1.9s0.5-4.1,0.9-6
		C107.6,28.8,105,28.6,105,28.6z M102.2,33c-0.2,1.2-0.3,1.9-0.3,1.9s0.2,1.1-1.3,0.9c-1.5-0.2-8.1-1.3-8.1-1.3l0.6-4l7.6,1.1
		C100.7,31.6,102.4,31.7,102.2,33z"/>
	<polygon class="st118" points="69,27 67.7,29.4 69.9,29.4 71.3,26.9 	"/>
	<rect x="67.6" y="30.5" class="st118" width="1.9" height="2.2"/>
	<polygon class="st118" points="81.4,27 80,29.4 82.3,29.4 83.6,26.9 	"/>
	<rect x="79.9" y="30.5" class="st118" width="1.9" height="2.2"/>
	<path class="st118" d="M67.1,33.9h2.1l-4.7,7.6H75l4.4-7.5h2.3l-5.3,9.3l-6.2,0l-6.3,9.9h2.9l-2,2l1.7,1.9h-3l-0.6,2.1l-0.8-2.1
		h-2.7l1.4-1.9l-2-1.5h2.8L61.1,51l2.2,1.7l4-9.3c0,0-6,0-5.8-0.1C61.7,43.1,67.1,33.9,67.1,33.9z"/>
	<polygon class="st2" points="62.4,54.4 62.2,54.8 61.6,54.9 62.2,55.2 62.5,56 62.8,55.2 63.4,55 62.7,54.8 	"/>
	<g>
		<g>
			<path class="st5" d="M30.3,18.6l-1.6,0.5c-0.1-0.2-0.2-0.4-0.3-0.4c-0.1,0-0.4,0-0.7,0.1l-0.2,0.1c0,0,0,0,0,0c0,0,0,0,0,0
				C27.2,19,27,19,26.9,19.1c-0.2,0.1-0.2,0.2-0.2,0.4c0,0.1,0.1,0.2,0.2,0.3c0.1,0,0.2,0,0.4,0c0.1,0,0.2,0,0.3-0.1
				c0.1,0,0.2,0,0.3-0.1c0,0,0,0,0,0c0,0,0,0,0,0c0.6-0.2,1.3-0.3,1.8-0.3c0.6,0,0.9,0.3,1.1,0.9c0,0.1,0,0.1,0.1,0.2
				c0,0.1,0,0.1,0,0.2c0,0.1,0,0.3,0,0.5c0,0.2-0.1,0.3-0.2,0.4c-0.2,0.2-0.4,0.3-0.6,0.5c-0.2,0.1-0.5,0.2-0.8,0.3
				c-0.1,0-0.1,0.1-0.2,0.1c-0.1,0-0.1,0-0.2,0.1l-0.4,0.1C27.7,22.9,27,23,26.6,23c-0.5,0-0.8-0.4-1.1-1.1l1.6-0.5
				c0.1,0.2,0.1,0.3,0.2,0.4c0.1,0.1,0.3,0.1,0.6,0l0.7-0.2c0.2-0.1,0.4-0.1,0.5-0.2c0.1-0.1,0.2-0.2,0.1-0.5
				c-0.1-0.2-0.2-0.3-0.3-0.3c-0.1,0-0.3,0-0.6,0.1c0,0,0,0,0,0c0,0,0,0,0,0c-0.1,0-0.2,0.1-0.3,0.1c-0.1,0-0.2,0-0.3,0.1
				C27,21,26.4,21.1,26,21c-0.5,0-0.8-0.4-1-1.1c-0.1-0.4-0.1-0.8,0.1-1c0.2-0.3,0.5-0.5,1.1-0.7c0.2-0.1,0.4-0.1,0.6-0.2
				c0.2-0.1,0.4-0.1,0.6-0.2c0.7-0.2,1.4-0.3,1.9-0.3c0.5,0,0.9,0.3,1.1,1c0,0,0,0,0,0C30.3,18.5,30.3,18.6,30.3,18.6
				C30.3,18.6,30.3,18.6,30.3,18.6C30.3,18.6,30.3,18.6,30.3,18.6L30.3,18.6z"/>
			<path class="st5" d="M37.2,19.6L37,20.4l-1.8,0.4l0.9-5.1l2.6-0.6l3,4.3L40,19.8l-0.5-0.7L37.2,19.6z M37.7,16.4l-0.4,2.2
				l1.6-0.3L37.7,16.4z"/>
			<path class="st5" d="M52.4,17.8l-3,0.4l-2.4-3.4l-0.1,0l0.6,3.7l-1.7,0.2l-0.7-4.8l3-0.4l2.4,3.4l0.1,0L50,13.2l1.7-0.3
				L52.4,17.8z"/>
			<path class="st5" d="M62.4,16l-0.3,0.8L60.3,17L62,12l2.7-0.2l2.3,4.7l-1.8,0.1l-0.4-0.8L62.4,16z M63.4,12.9L62.7,15l1.6-0.1
				L63.4,12.9z"/>
			<path class="st5" d="M77.8,16.5l-3,0l-1.9-3.7h-0.1l0.1,3.7l-1.7,0l0-4.8l3,0l1.9,3.7h0.1L76,11.6l1.8,0L77.8,16.5z"/>
			<path class="st5" d="M85.5,16.9l-1.8-0.1L84,13l-1.7-0.1l0.1-1.1l5.2,0.3l-0.1,1.1l-1.8-0.1L85.5,16.9z"/>
			<path class="st5" d="M91.7,14.7c0-0.1,0-0.2,0-0.3c0-0.1,0-0.2,0.1-0.3c0-0.1,0.1-0.2,0.1-0.3c0.2-0.5,0.6-0.8,1.1-0.9
				c0.6-0.1,1.2-0.1,1.8,0c0,0,0.1,0,0.1,0c0,0,0.1,0,0.1,0c1.1,0.1,1.9,0.4,2.3,0.7c0.4,0.3,0.6,0.9,0.5,1.8
				c-0.1,0.9-0.3,1.5-0.6,2c-0.3,0.4-1.2,0.6-2.7,0.4c-0.1,0-0.2,0-0.3,0c-0.1,0-0.2,0-0.3-0.1c-0.5-0.1-1-0.2-1.4-0.4
				c-0.4-0.2-0.7-0.5-0.8-0.9c0-0.2-0.1-0.3-0.1-0.5c0-0.2,0-0.3,0-0.5l0-0.4C91.7,14.9,91.7,14.8,91.7,14.7z M93.5,15.2l0,0.3
				c0,0.3,0,0.6,0.1,0.8c0.1,0.2,0.4,0.3,0.9,0.4c0.6,0.1,1,0,1.2-0.1c0.2-0.1,0.3-0.4,0.3-0.8c0-0.1,0-0.1,0-0.2c0-0.1,0-0.1,0-0.2
				c0-0.1,0-0.1,0-0.2c0-0.1,0-0.1,0-0.2c0-0.3,0-0.6-0.1-0.7c-0.1-0.2-0.4-0.3-0.9-0.3c-0.7-0.1-1.1-0.1-1.2,0.1
				C93.7,14.2,93.6,14.5,93.5,15.2C93.5,15.1,93.5,15.1,93.5,15.2C93.5,15.2,93.5,15.2,93.5,15.2L93.5,15.2z"/>
			<path class="st5" d="M108.6,19.8l-3-0.5l-1.2-4l-0.1,0l-0.5,3.7l-1.7-0.3l0.8-4.8l2.9,0.5l1.2,3.9l0.1,0l0.6-3.6l1.7,0.3
				L108.6,19.8z"/>
			<path class="st5" d="M114.4,21l-1.7-0.4l1-4.7l1.7,0.4L114.4,21z"/>
			<path class="st5" d="M119,19.3c0-0.1,0.1-0.2,0.1-0.3c0-0.1,0.1-0.2,0.1-0.3c0-0.1,0.1-0.2,0.1-0.3c0.3-0.5,0.7-0.8,1.2-0.8
				c0.6,0,1.2,0,1.8,0.2c0,0,0.1,0,0.1,0c0,0,0.1,0,0.1,0c1.1,0.3,1.9,0.6,2.2,1c0.4,0.4,0.5,1,0.2,1.8c-0.2,0.9-0.5,1.5-0.9,1.9
				c-0.4,0.4-1.3,0.4-2.7,0c-0.1,0-0.2-0.1-0.3-0.1c-0.1,0-0.2-0.1-0.3-0.1c-0.5-0.1-0.9-0.3-1.3-0.6c-0.4-0.2-0.6-0.6-0.7-1
				c0-0.2,0-0.3,0-0.5c0-0.2,0.1-0.3,0.1-0.5l0.1-0.4C118.9,19.5,119,19.4,119,19.3z M120.7,20l-0.1,0.3c-0.1,0.3-0.1,0.6,0,0.8
				c0.1,0.2,0.3,0.4,0.9,0.5c0.6,0.1,1,0.2,1.2,0.1c0.2-0.1,0.3-0.3,0.4-0.7c0-0.1,0-0.1,0-0.2c0-0.1,0-0.1,0.1-0.2
				c0-0.1,0-0.1,0-0.2c0-0.1,0-0.1,0-0.2c0.1-0.3,0.1-0.6,0-0.7s-0.4-0.3-0.8-0.4c-0.7-0.2-1.1-0.2-1.2-0.1
				C121,19,120.8,19.4,120.7,20C120.7,20,120.7,20,120.7,20C120.7,20,120.7,20,120.7,20L120.7,20z"/>
		</g>
	</g>
</g>
</svg>
