<?xml version="1.0" encoding="utf-8"?>
<!-- Generator: Adobe Illustrator 23.0.1, SVG Export Plug-In . SVG Version: 6.00 Build 0)  -->
<svg version="1.1" id="Capa_1" xmlns="http://www.w3.org/2000/svg" xmlns:xlink="http://www.w3.org/1999/xlink" x="0px" y="0px"
	 viewBox="0 0 137.9 121.7" style="enable-background:new 0 0 137.9 121.7;" xml:space="preserve">
<style type="text/css">
	.st0{fill:#175384;}
	.st1{fill:#A0A5AA;}
	.st2{fill:#0B040C;}
	.st3{fill:#FFC727;}
	.st4{fill:#F0545B;}
	.st5{fill:#FFFFFF;}
	.st6{fill:#00A855;}
	.st7{fill:#B4C4C9;}
	.st8{fill:#221A21;}
	.st9{fill:#EF3A47;}
	.st10{fill:url(#SVGID_1_);}
	.st11{fill:url(#SVGID_2_);}
	.st12{fill:url(#SVGID_3_);}
	.st13{fill:url(#SVGID_4_);}
	.st14{fill:url(#SVGID_5_);}
	.st15{fill:url(#SVGID_6_);}
	.st16{fill:url(#SVGID_7_);}
	.st17{fill:url(#SVGID_8_);}
	.st18{fill:url(#SVGID_9_);}
	.st19{fill:url(#SVGID_10_);}
	.st20{fill:url(#SVGID_11_);}
	.st21{fill:url(#SVGID_12_);}
	.st22{fill:#313564;}
	.st23{fill:#F04B41;stroke:#FFFFFF;stroke-width:2.1543;stroke-linecap:round;stroke-linejoin:round;stroke-miterlimit:10;}
	.st24{fill:#007FBA;stroke:#FFFFFF;stroke-width:2.1543;stroke-linecap:round;stroke-linejoin:round;stroke-miterlimit:10;}
	.st25{fill:#313564;stroke:#FFFFFF;stroke-width:2.1543;stroke-linecap:round;stroke-linejoin:round;stroke-miterlimit:10;}
	.st26{fill:#FFFFFF;stroke:#FFFFFF;stroke-width:2.1543;stroke-linecap:round;stroke-linejoin:round;stroke-miterlimit:10;}
	.st27{clip-path:url(#SVGID_14_);}
	.st28{fill:#FBAC36;stroke:#FFFFFF;stroke-width:2.1543;stroke-linecap:round;stroke-linejoin:round;stroke-miterlimit:10;}
	.st29{fill:#F04B41;}
	.st30{fill:#007FBA;}
	.st31{clip-path:url(#SVGID_16_);}
	.st32{fill:#FBAC36;}
	.st33{fill:#2C2F61;}
	.st34{fill:#B7B9BA;}
	.st35{fill:#EF3748;}
	.st36{fill:#8999AC;}
	.st37{fill:#2B2F61;}
	.st38{fill:#EE2C45;}
	.st39{fill:#101624;}
	.st40{fill:#59707A;}
	.st41{fill:#4A3285;}
	.st42{fill:#F79230;}
	.st43{fill:#F15733;}
	.st44{fill:#D7303F;}
	.st45{fill:#FAA832;}
	.st46{fill:#1F1721;}
	.st47{fill:#5F3188;}
	.st48{fill:#EE243D;}
	.st49{fill:#1F4BA0;}
	.st50{fill:#244789;}
	.st51{fill:#FBAE2E;}
	.st52{fill:#006991;}
	.st53{fill:#F9A01B;stroke:#FFFFFF;stroke-width:0.4473;stroke-miterlimit:10;}
	.st54{fill:#FAA533;}
	.st55{fill:#0092BC;}
	.st56{fill:#15182C;}
	.st57{fill:#3E419A;}
	.st58{fill:#101721;}
	.st59{fill:#ADA3A5;}
	.st60{fill:#9CA7AC;}
	.st61{clip-path:url(#SVGID_18_);}
	.st62{clip-path:url(#SVGID_20_);}
	.st63{fill:#F3FAF7;}
	.st64{fill:#2D2F63;}
	.st65{fill:#FAA819;}
	.st66{fill:#FEF6FA;}
	.st67{fill:#004F30;}
	.st68{fill:#A2C7D3;}
	.st69{fill:#EE2E55;}
	.st70{fill:#32366E;}
	.st71{fill:#00ADDC;}
	.st72{fill:#FFFFFF;stroke:#00ACD0;stroke-width:0.2915;stroke-miterlimit:10;}
	.st73{fill:#FFFFFF;stroke:#00ACD0;stroke-width:0.2973;stroke-miterlimit:10;}
	.st74{fill:#450000;}
	.st75{fill:#EE224A;}
	.st76{fill:#0064A5;}
	.st77{fill:#F47736;}
	.st78{fill:#B5BCBF;}
	.st79{fill:#F47B35;}
	.st80{fill:#EE2B52;}
	.st81{fill:#0C060E;}
	.st82{fill:#B58D49;}
	.st83{fill:#C9BBCB;}
	.st84{fill:#BA924C;}
	.st85{fill:#006BAF;}
	.st86{fill:#B3C5CB;}
	.st87{fill:#898C89;}
	.st88{fill:#2E2C61;}
	.st89{fill:#C3C5BD;}
	.st90{fill:#C4D2D9;}
	.st91{fill:#EE284D;}
	.st92{fill:#161212;}
	.st93{fill:#EE274E;}
	.st94{fill:#A2A7AA;}
	.st95{fill:#A6AAAC;}
	.st96{fill:#A1A2AB;}
	.st97{fill:#110B13;}
	.st98{fill:#AFC1C6;}
	.st99{fill:#0067AD;}
	.st100{fill:#FBFBFB;}
	.st101{fill:#0065AF;}
	.st102{fill:#121A26;}
	.st103{fill:#008D4C;}
	.st104{fill:#B43A3D;}
	.st105{fill:#111623;}
	.st106{fill:#AB9048;}
	.st107{fill:#F8A174;}
	.st108{fill:#120B19;}
	.st109{fill:#C59751;}
	.st110{fill:#B33638;}
	.st111{fill:#009154;}
	.st112{fill:#1C2026;}
	.st113{fill:#EE2844;}
	.st114{fill:#30385F;}
	.st115{fill:#3A84B1;}
	.st116{fill:#A3C5D7;}
	.st117{fill:#F9A039;}
	.st118{fill:#B0BEC0;}
	.st119{fill:#231D46;}
	.st120{fill:#FDB840;}
	.st121{fill:#CD2C32;}
	.st122{fill:#272049;}
	.st123{fill:#FEC027;}
	.st124{fill:#ADC7C6;}
	.st125{fill:#014429;}
	.st126{fill:#DF2539;}
	.st127{fill:#F57E30;}
	.st128{fill:#ED1942;}
	.st129{fill:#FEF9FB;}
	.st130{fill:#0065AA;}
	.st131{fill:#A6B5B8;}
	.st132{fill:#0B040C;stroke:#0B040C;stroke-width:0.2716;stroke-miterlimit:10;}
	.st133{fill:#F7F9FD;}
	.st134{fill:none;stroke:#EBF2CC;stroke-width:0.2972;stroke-miterlimit:10;}
	.st135{fill:#48484A;}
	.st136{opacity:0.2;}
	.st137{fill:#EE2E3B;}
	.st138{fill:#005BA6;}
	.st139{fill:#737577;}
	.st140{fill:#A1A0A5;}
	.st141{fill:#272360;}
	.st142{fill:#FAFAFB;}
	.st143{fill:#058BA6;}
	.st144{fill:#DEDBE7;}
	.st145{fill:#B2965B;}
	.st146{fill:#1B305B;}
	.st147{fill:#F9F9FA;}
	.st148{fill:#E12039;}
	.st149{fill:#FEF4F4;}
</style>
<g>
	<path class="st91" d="M106.8,66.1c0-27-21.8-48.8-48.2-48.8s-48,22-48,49c0,27,21.7,48.8,48,48.8S106.8,93.1,106.8,66.1z"/>
	<path class="st92" d="M15.1,71.1l-2.2,1.1c0,0-2.4-0.3-5.1,1.9c-2.7,2.3-1.4,3.5-1.4,3.5s-2,2.4-0.8,6.4c-1,0.5-2,8.4,1.2,12.7
		c3.1,4.3,12.8,7.4,20.1-0.3c2,3,6.2,5.7,6.2,5.7s-7.5,6.2-3.6,13.1c1.1-1.3,1.7-1.3,1.7-1.3s3.3,1.9,4.2,4c0.9-1,1.6-1.7,1.6-1.7
		s0.6,1.4,3.2,1.5c2.6,0.1,6.4-2.4,9.3-2.7c3-0.3,7.5,0.4,7.5-3.5c6,0.1,17.5-1.6,27.2-8.5c0.3,2.1,0.3,2.1,0.3,2.1s2-1.2,3.5-1.3
		c-1.6,1.3-2.4,5.2-1.8,7.8c0.3,1.2,2.4,0.3,2.4,0.3s2.5,0.3,2.7,1.2c0.3,0.9,0.5,1.3,0.5,1.3s1.3-1,2.8-1.2
		c1.5-0.3,6.2,0.8,8.8-3.5c2.6-4.3,2-7.2,2.8-10c0.8-2.8,3.6-9.9-4.6-11c-2.7-0.7-4.1-1.6-4.1-1.6l1.8-4c0,0,11-4.2,18.4-9.5
		c7.4-5.3,13.9-11.7,15.3-17.4c-3.6,3.1-13.8,12.8-30.2,15.6c0-3.5,0-8.8,0-8.8s8.1-2,9.4-1.9c-0.3-6.5-9.2-50.7-54.6-50.5
		c-46.1,0.2-52.1,50-52.1,50l10.2,2.8C15.7,63.1,14.7,67.2,15.1,71.1z"/>
	<path class="st93" d="M49.2,38.2c0,0-3.1-1.2-7.4,2.6C37.5,44.7,36.3,51.8,40,57c3.1,3.9,3.1,7.4,3.3,8.7c0.3,1.2,3.1,8.4,6.9,8.9
		c2.2-1.7,2.1-2.7,2.1-2.7s-2.4,0.2-3.4-1.4c2.2-0.7,3.6-2.8,3.6-2.8s-5.2,1.1-6.4-1.4c2.6,0.4,5.4-0.6,6.4-1.7
		c-3.9,0.3-6.6-0.6-7.4-3.9c2,1.7,6.4,1.7,6.4,1.7s-0.4-2.4-3.2-2.8c-2.8-0.4-7.6-4.1-4.9-8.9c-0.4,1.8,0.2,6.3,3.1,6.6
		c3,0.3,5.9,1,7.4,3c1.5,2,6.6,8.1,12.4,3.1c-0.1-0.6,0.1-0.6-1.1-0.7c-1.2-0.1-5.6,1.1-7.1-1c-1.5-2.2-3.8-5.2-4.7-5.5
		c-0.8-0.3-4.1-0.5-4.1-0.5s0.3-4.3,3-7.1c2.6-2.8,4.2-2,5-1.7c0.8,0.3,3.7,0.3,4.9-0.2c1.2-0.5,3.2-0.2,4.3,0.4
		c1.1,0.6,6.4,0.8,7.1,0.3c0-1.4,0-1.4,0-1.4s-1.9-0.5-0.6-1.8c-0.1-1.7,0.3-3.1-2.7-3.3c-3-0.3-7.9-1.8-8.1-2.3
		c-0.2-0.4-0.5-2.9-4.4-2.3c1.4,1.2,1.1,2.6,1.1,2.6s-2.4-3-6-2.7C51.2,36.2,49.6,36.8,49.2,38.2z"/>
	<path class="st92" d="M49.9,41.2c0,0,4.5-2,3.1-2.2c-1.4-0.2-1.4-0.6-1.4-0.6s3.7-0.5,4-0.1c0.3,0.4,1.3,3,4.3,2.9
		c0.3,0.3-1.9,1.2-2.2,1.2c-0.3,0-4.7-0.3-4.7-0.3L49.9,41.2z"/>
	<path class="st92" d="M47,41.6c0,0-3.6,2.2,0.5,3c-3.4,0.5-7,3.6-6.7,7.7C39.7,49.1,40.5,42.5,47,41.6z"/>
	<path class="st92" d="M51.1,46.9c0,0-4.7,4.6-4.6,5.9c0.1,1.2,0.3,0.9,0.3,0.9l0.8,0.2C47.5,53.8,48.9,48.7,51.1,46.9z"/>
	<path class="st94" d="M53.1,42.1c0,0-0.8-1.2,0.1-1.7C54,40,54,40,54,40s0,1.6,0.8,1.7c0.8,0.1,0.8-1.5,0.8-1.5l1.4,0.3l0.9,2
		c0,0-1.1,0.5-2.2,0.4C54.5,42.8,53.1,42.1,53.1,42.1z"/>
	<g>
		<g>
			<path class="st5" d="M55.4,47.6l0.9,2.4l1-1.9C57.4,48,55.5,47.9,55.4,47.6z"/>
			<path class="st5" d="M58.5,48.5c0,0,0.6,2.3,0.7,2c0.1-0.3,1.1-2.1,1.1-2.1L58.5,48.5z"/>
			<polygon class="st5" points="61.4,48.2 62.4,50.1 63.1,47.9 			"/>
			<path class="st5" d="M64.2,47.7l0.4,2.1l1.2-1.9C65.9,47.9,64.7,47.6,64.2,47.7z"/>
			<polygon class="st5" points="67,48.7 67,50.5 68.7,48.9 			"/>
			<path class="st5" d="M69.9,49.5l0.6,1.5l1.5-1.6C72.1,49.4,70.3,49.6,69.9,49.5z"/>
		</g>
	</g>
	<polygon class="st5" points="52.3,54.1 53.9,52.8 54.2,54.2 	"/>
	<polygon class="st5" points="55.2,55.8 56.5,54.8 56.3,56.9 	"/>
	<path class="st5" d="M57.4,58.2l1.3-0.8l-0.1,2.4C58.6,59.8,57.5,58.5,57.4,58.2z"/>
	<path class="st5" d="M59.8,60.9l1.6-1.7l0.2,2C61.6,61.1,60.4,61,59.8,60.9z"/>
	<polygon class="st5" points="62.8,61.8 64.3,60.3 64.8,61.8 	"/>
	<path class="st94" d="M51.4,53c0,0,1.2-3.2,3.1-2.2c2,0,4.7,2.2,5.9,4.5c1.4,2.4,3.7,4.1,3.7,4.1l-1.6,0.9l-0.3-2l-2.5,0.9l0.1-3.1
		l-2.3,0.6l-0.2-3.2l-2.1,0.9l-0.7-2.7L51.4,53z"/>
	<path class="st93" d="M61.5,67c-0.1-0.4,4.2-1,5.5-2.6c1.3-1.7,0.5-2.5,0.3-2.7c-0.3-0.2-0.2-1.1-0.2-1.1s3.5,1,5.3,3.1
		c1-0.6-0.1-2.3-0.1-2.3s6.3-0.1,7.9,0.2c1.6,0.3,5.9,3.9,6.1,9.7c1.8-0.2,4.3,1.6,5.1,2.9c0.8,1.3,2.5,0.5,1.4-1.7
		c2.5,0.1,2.6,3.2,2.3,4.5c-0.3,1.2-2.1,2.3-5,0.5c0.8,2-0.3,3-1.2,3.2C88,80.9,86,79,86,79s0.3,2.4-0.8,2.2c-1.1-0.2-2,0.8-3.1-2.1
		c-1.1-2.9-0.9-5.9-0.9-5.9s-3.2-1.3-3.7-2.9c-1.2,0.9-5.5,0.3-5.5,0.3s-0.8,1.7-3.1,1.9C66.5,72.8,62.9,70.7,61.5,67z"/>
	<path class="st5" d="M55.9,64.8c0,0-0.3,8.2,5.3,11.2c5.6,3,12.5,3,16.8-2.4c1.6,1.2,2.2,1.5,1.7,6.4c-3,3.9-8.7,7-15.6,7.1
		c2.4-1,3.3-2.2,3.3-2.2s-7,1.8-10.9,0.7c-3.9-1.1-9.8-5.7-11.7-7.7c-2-2-5-6.6-3.9-12.5c0.3-0.3,0.3-0.3,0.3-0.3s1.7,10.7,9.5,11.5
		c3.3-2,4.3-8,4-11.7C55.2,64.9,55.9,64.8,55.9,64.8z"/>
	<path class="st5" d="M55.8,87c0,0,4.7,2,9.9,1.7c5.3-0.3,8.6-1.2,11.4-3.3c2.6,3,4.6,6.6,4.6,6.6s-4.4,2.3-6.2,2.4
		c-2.5-1.1-5.9-4.9-13-3.6c-1.9,0.4-3.4,1-3.4,1S57,88.1,55.8,87z"/>
	<path class="st93" d="M58.1,92.3c0,0-5.9-10.4-14.9-11.3c-1.5,2-2,2.5-2,2.5s8-0.3,13.9,9.7C56.4,93.1,58.1,92.3,58.1,92.3z"/>
	<path class="st93" d="M52.7,93.2c0,0-3.4-8.8-12.1-8.4c-1.4,2.8-1.1,5.4,0.3,7.2c1.4,1.8,2.8,7,2.8,7s4.3,1.7,7.6,0.5
		c0.8-2.4,0.9-6.5-2.1-8C50.3,91.6,52.1,92.3,52.7,93.2z"/>
	<path class="st93" d="M38,86.5c0,0,1.3-4.5,2.8-5.8c1.5-1.3,1.5-1.9,0.8-3.1c-0.8-1.1-3.7-6-3.1-9.7c-1.8,1.3-2.5,5.9-1.4,7.8
		c1.2,1.8,0.6,2.8,0.6,2.8s-1.4-2.3-5.5-2.7s-7.1-0.9-9-2.2c-1.9-1.3-8.7-2.3-11.1,2.2c1.5-0.3,2.9,2.4,2.9,2.4s2-3.1,4.1-2.7
		c2,0.4,5.3,3.8,5.3,8.6c2.1-0.3,3.7-3.6,3.2-5.4c1.9,0.7,1.3,1.6,1.2,2.3c-0.1,0.7,0.8,2.7,2.4,3.1C32.8,84.3,38,86.5,38,86.5z"/>
	<path class="st93" d="M10.4,77.7c0,0,0-2.4,1.2-3.9c-1.9,0.6-3.6,2.5-3.6,2.5S9.9,76.4,10.4,77.7z"/>
	<path class="st92" d="M68.9,82.4c-0.8,0.2-2.9-0.7-3.4-1.4c-0.5-0.7-2.1-1.5-4-1.2c-0.4-4.1-5.3-3.1-6.4-2.8
		c-1.1,0.3-2.3,1-6.9,1.4c3.7,0.8,8.1,5.9,8.1,5.9s2.5-0.2,5.3-0.2c-1.2-0.4-2.2-2.3-1.9-2.7c1.8-0.7,4.1,2.4,3.8,2.4
		C63.3,83.9,69.7,82.2,68.9,82.4z M56.6,80.7l-1.2-1.5c0,0,2.5-0.7,3.2,0C59.3,79.9,58.1,80.6,56.6,80.7z"/>
	<path class="st93" d="M78.2,84.1c0,0,5.1,5.9,6.1,8c-1.9,1.4-6.4,3.6-8.1,3.8c2.3,1.7,2.7,1.7,2.7,1.7s6.2-1.8,10.3-6
		c2.9-3.1,2.9-5.3,2.9-5.3l-2.3-0.8c0,0-1.2,3.1-2.5,3.8c-2-2.4-5.9-7.2-5.9-7.2L78.2,84.1z"/>
	<path class="st5" d="M84.7,82.7c0,0,2.4,4.2,2.6,4.3c0.3,0.1,1.1-2.4,0.8-3.4C86.3,82.6,84.7,82.7,84.7,82.7z"/>
	<path class="st93" d="M89.9,82.5c0,0,7.9-3.6,7.4-8.5c6-0.8,19.8-3.4,31.6-12.9c-1.9,3.7-13.3,13.7-24.3,18.2
		C95,83.2,90.5,83.9,89.9,82.5z"/>
	<g>
		<g>
			<path class="st92" d="M95.3,81c-0.3,0,2.3-2.4,2.9-3.6c2.5,1.9,2.5,1.9,2.5,1.9S97,81.1,95.3,81z"/>
			<path class="st92" d="M101.6,79l1.8-3.1l2,1.6C105.4,77.5,102.7,78.7,101.6,79z"/>
			<path class="st92" d="M106.1,77l1.6-2.4c0,0,0.8,1,1.8,0.9C107.8,76.3,106.1,77,106.1,77z"/>
			<polygon class="st92" points="110.4,74.7 111.1,73.1 113,73.4 			"/>
			<polygon class="st92" points="113.7,73.1 114.5,71.6 115.6,72.1 			"/>
			<polygon class="st92" points="116,71.9 116.6,70.7 117.4,70.7 			"/>
		</g>
	</g>
	<path class="st5" d="M93.8,89.6c0,0,3.6,0,3.5,3.5c-0.2,3.5-4.2,7.3-4.2,7.3s3.9-0.6,4.7,1.1c-2.2-0.1-8.1,0.6-8.4,2.7
		c2,0.9,2.3,2,2.3,2s0.8-1.2,2.7-1.2s3,2.4,3,2.4s3.4-0.7,3.7-4.1c0.3-3.4,1.8-8.7,1.9-9.4c0.1-0.8,0.7-4.5-3.7-4.5
		C97.9,88.5,95,88.4,93.8,89.6z"/>
	<path class="st5" d="M103.9,90.9c0,0,0.8,5.9,0,7.5c-0.8,1.6-1.1,3.8-1.4,5.1c-0.3,1.2-1.3,5.7-5.7,5.5c-1.7,1.6-1.9,2.1-1.9,2.1
		s4.5,1.9,7.5-3c1.8-3,1.7-6.3,2-7.3c0.3-1.1,1.5-5.2,1.4-6.6C105.7,92.8,105.6,90.9,103.9,90.9z"/>
	<path class="st93" d="M91.4,90.6c0,0,5,0.2,4.3,3.1c-0.7,3-3.9,7.3-12.6,4.3c0.3-0.9,2.5-1.5,3.2-1.8C87,95.8,91,93.6,91.4,90.6z"
		/>
	<path class="st94" d="M91.6,100.5c0,0-0.9,1.2-3,1.6c-2,0.3-2.8,1.1-2.8,1.1s-0.1-2.5,1.8-2.6C89.4,100.5,91.6,100.5,91.6,100.5z"
		/>
	<path class="st94" d="M88.8,105.3c-0.3,0-2.3,4.2-1.4,5.1c1.5-1.2,2.9-2.9,2.9-3.4C90.2,106.4,89.5,105.4,88.8,105.3z"/>
	<path class="st94" d="M92.1,108.2l0.1,3.9c0,0,1.6-2.2,2.3-3c0.7-0.8,1.5-2.3,0.3-2.7C93.6,106,92.1,106.8,92.1,108.2z"/>
	<path class="st5" d="M42.6,100.5c0,0-0.4,1.3,0.5,2.6c0.9,1.3,1.1,3.8,1.1,3.8s-2.1-4.5-10.1-3c0.5,1.1,1.4,3.6,1.4,3.6l2.1-1.6
		c0,0,2.1,1.8,3,5.2c0.8,0.2,2.4,0.7,4.4-0.2c2-0.9,4.8-1,6.6-1.1c1.8-0.1,3.6-0.1,3.6-0.1s0.1-2.6-0.7-4.5c-0.8-1.8,0-4.2,0-4.2
		s-4,0.7-6.6,0.5C45.2,101.5,42.6,100.5,42.6,100.5z"/>
	<path class="st5" d="M55.5,110.9c0,0-2.5,1-4.8,0.7c-2.4-0.3-5.2,1.1-6.3,1.4c-1.1,0.3-4.2,0.3-5.3-0.2c-1.4,1.4-1.6,1.9-1.6,1.9
		s3.6,1.7,7,0.2c3.4-1.6,6.1-1.1,7.5-1.3C53.4,113.4,55.4,113.4,55.5,110.9z"/>
	<path class="st94" d="M39,111.4c0,0-3.1,2-3.6,3.8c-1.2-1.4,0.5-5.9,2.1-7.3C38.9,108.7,39,111.4,39,111.4z"/>
	<path class="st94" d="M34.1,108.8c0,0-3.2,1.5-4.1,3.8c-0.9-2,0.9-5.8,1.7-6.4C32.5,105.5,33.6,106.8,34.1,108.8z"/>
	<path class="st5" d="M33.3,111.1c0,0-1.4,1.6-1.2,1.7c0.3,0.1,1.4,0.4,1.4,0.4L33.3,111.1z"/>
	<polygon class="st5" points="90.4,109 89.4,110.3 90.6,110.4 	"/>
	<path class="st92" d="M46.6,106.9c0,0,1.5,0.4,1.7-1.4c0.2-1.7-1.1-2.9-1.1-2.9s3.7,0,5.3,2.2c0,0,0.5,1.3,0.5,1.9
		c0,0.6-0.1,1.8,0.6,2c-1.4,0.2-1.8,0.9-3.1,0.6c-1.4-0.3-2.5-1.9-3.6-2.1"/>
	<path class="st94" d="M49.2,103.6c0,0,0.8,2.2,0,3.3c1.5,1.5,2.5,1.1,2.5,0C51.6,105.9,50.2,104,49.2,103.6z"/>
	<path class="st95" d="M11.7,77.6c0,0-1.4,3.3-0.4,5.2c0.9-1.7,2.6-3.8,2.6-3.8S12.9,77.4,11.7,77.6z"/>
	<path class="st95" d="M12.7,83.5c0,0,4.5-8.1,7.8-4.6c-1.3,1-2,2.9-2.3,4c-0.3,1.1-3.1,5.4-6,6.1C11.7,87.5,12.3,84.6,12.7,83.5z"
		/>
	<path class="st95" d="M24.9,85.1c0,0,0.8,2.2-0.8,4c2-1,3.3-3.9,3.3-4.7C26.7,84.8,24.9,85.1,24.9,85.1z"/>
	<path class="st95" d="M27.4,88.2c0,0-2.6,2.9-5.6,3c0.6-1.7,0.7-2,0.7-2s-3.6,4.1-9.7,4.5c0.3,0.8,0.6,1.4,0.6,1.4
		s8.5,1.3,12.8-1.9C27.6,91.8,27.8,89.3,27.4,88.2z"/>
	<path class="st95" d="M25.3,95.9c0,0-2.9,3-5.2,3.5c-2.3,0.5-4.7-1-6.1-3C16.2,96.9,21.9,96.7,25.3,95.9z"/>
	<path class="st95" d="M12.5,96.8c0,0,1.4,2.4,3.1,3.1c-2.4,0-4.2-1.1-4.2-1.1S12.3,97.8,12.5,96.8z"/>
	<path class="st95" d="M9.9,97.8c0,0,2.4-1.8,1.9-3.6c-1.7,0.2-3.6,0.1-5.1-0.7C7.1,95.3,10,97.8,9.9,97.8z"/>
	<path class="st95" d="M5.9,88.1c0,0-0.1,2.4,0.2,3.2c1.1,0.7,3.6,1.6,4.9,1.4c-0.3-1-0.5-1.8-0.5-1.8S7.3,90.6,5.9,88.1z"/>
	<path class="st95" d="M10.6,89.3c0,0-3-0.6-3.3-2.4c-0.3-1.8,2.2-5.2,2.2-5.2s0.3,2.4,1.1,2.9C10.8,86.9,10.6,89.3,10.6,89.3z"/>
	<path class="st95" d="M12,90.6c0.3,0,5-1.6,6-4.6c1-3.1,3.2-5.7,4-5.8c0.8,1.4,1.4,5.9,0.8,7.2c-1.2,1.5-6.1,5.3-10.4,4.9
		C12.1,91.5,12,90.6,12,90.6z"/>
	<path class="st95" d="M6.9,83.3c0,0,1.4-2.4,2.5-3.2c-0.1-1.7-0.3-2-0.3-2s-1.8-0.2-2.3,1.7C6.5,81.1,6.9,83.3,6.9,83.3z"/>
	<path class="st91" d="M16.1,40.1l-2.4-16.3l12.7,1.8l-0.2-12.9L38.1,18l4.1-13.5l9.7,9.4l7-11.9l7.1,11.4L76,4l3.9,13.8l11.7-5.4
		l0.2,13.1l13.4-1.6l-3.1,16.1c0,0-13.9-25.4-43.3-24.8C29.5,15.7,16.1,40.1,16.1,40.1z"/>
	<g>
		<g>
			<path class="st94" d="M24.3,52.1l5.1,2.3c0,0,1.5-3.8,2.3-5.5c-1.6,0.8-5-1-6.6-1.7c-1.6-0.7-2.7,0.1-3.5,1
				c-0.1-0.8-0.2-2.4-0.5-2.7c-0.3-0.3-1.6-1-4.4-1.4c-2.8-0.4-3.8,1.2-4.6,3.2c-0.8,2-2.6,9-2.6,9c1.4-0.5,2.6-0.5,2.9-0.5
				c0.3,0,8.5,3.3,10.1,3.8c1.6,0.5,3.8,1.6,4.8,3.1c-0.1-2.3,0.8-6.7,0.8-6.7s-2.6-1-3.9-1.3c-1.3-0.3-1.5-1.4-1.4-2
				C22.9,52.1,24.3,52.1,24.3,52.1z M19.3,52.9l-4.9-1.5l0.3-1.5c0,0,0.1-0.7,1.5-0.5c1.4,0.3,2.6,0.5,3,1.4
				C19.5,51.7,19.3,52.9,19.3,52.9z"/>
			<path class="st94" d="M38.7,36.5c-0.5-0.8-5.2-5.8-5.2-5.8s-3-2.7-6.5,1.1c-3.1,3.6-5.2,5.9-5.4,6.6c0,0.2,1.8-0.7,3.7,1.2
				c1.9,1.9,5.9,6.1,5.9,6.1s1.4,1.5,0.6,3.2c1.5-2.4,3.5-4.7,3.7-4.9c0.2-0.2,0.3-0.8,0.3-0.8l-2.2-1.8c0,0-0.2-0.8,0.1-1.1
				c0.3-0.3,0.7-0.8,0.7-0.8s0.3-0.3,0.9,0.3c0.6,0.6,2.1,2.1,2.1,2.1s2.3-2.7,4.1-3.6C40.3,38.2,39.2,37.3,38.7,36.5z M30.9,38.3
				c0,0-2.8-2.4-3-2.5c-0.6-0.3,0.5-1.1,1.1-1.5c0.6-0.4,1,0.1,1,0.1l2.5,2.5L30.9,38.3z"/>
			<path class="st94" d="M51.5,24.7c-0.9-2.7-3.1-5.6-6.6-4.2c-3.5,1.4-8.2,4.2-8.2,4.2s1.9,0.3,2.8,2.4c0.9,2.1,2.7,7.4,2.7,7.4
				s0.9,2-0.7,3.4c2.1-1.4,5.9-2.6,7.2-3c-1.3-0.5-2.1-2.4-2.3-3.1c-0.2-0.6-0.2-0.6-0.2-0.6s3.1-0.7,4.1-1.4
				C51.3,29.2,52.4,27.4,51.5,24.7z M45,29.1c-0.2-0.6-1.7-4.5-1.7-4.5c2.6-1.3,3,0.1,3.4,1.4C47.2,27.2,46.9,28.3,45,29.1z"/>
			<path class="st94" d="M53,19c-0.2,0-0.1,4.7-0.1,4.7s2.2-2.1,3.8-2.1v8.6c0,0,0.1,2.3-1.9,2.8l-0.1,0.4h8.1v-0.6
				c0,0-1.5-0.3-1.5-2.5c0-2.3,0-8.7,0-8.7s3.1,0.4,4,2.1c0-1.6,0-4.6,0-4.6S61.7,18.4,53,19z"/>
			<path class="st94" d="M79.2,23.8c-1.7-1.3-4.7-2.7-6.9-2.7c-1.3,0-2.5,0.1-2.8,0.8l-3.7,8.2c0,0-0.8,2.1,0.6,3.1
				c1.3,1,5.8,3.3,8.2,3.4c1.1,0.1,2.1-1.2,2.5-1.8c0.3-0.5,3.3-7.8,3.3-7.8S80.9,25.1,79.2,23.8z M75.7,26c0,0-2.1,5-2.6,6
				c-0.4,1-1.3,1.4-2.2,1c-0.9-0.5-0.6-1.5-0.6-1.5l2.7-6.4c0.3-0.4,0.7-1.1,1.7-0.6C75.8,24.9,75.7,26,75.7,26z"/>
			<path class="st94" d="M94.2,35.7c-2-2.4-6.5-7.1-7.8-7.2c0,0,0.6,1.4-1.2,3.1c-1.8,1.7-6.1,5.8-6.1,5.8s-0.8,1-2.7,0.8
				c2.2,1.5,4.3,4,4.3,4l2.1-2c0,0,1.9-0.4,3.4,1c-2.2,1.8-3.4,3.4-3.4,3.4s3,2.8,3.5,4.6c0.3-1.3,0.8-2.3,1.8-3.1s1.5-4.5,1.5-4.5
				s1.9,0.7,3.2-0.3C94.2,40.2,96.1,38.1,94.2,35.7z M89.9,37.3c-0.8,0.8-2,1.4-2,1.4l-2.5-0.9l3.3-3.1
				C88.7,34.6,90.7,36.5,89.9,37.3z"/>
			<path class="st94" d="M86.8,49.8l5.9-2.8c0,0,1.3,3.4,1.3,4.2c0,0.8-2.4,1.6-2.4,1.6l0.7,3.1c0,0,1.9-0.8,2.4-1
				c0.5-0.3,1.2-1.5,1.4-3.8c0.3-2.3,0.4-5.3,2.7-6.1c2.3-0.8,4-1.3,4.3-2.4c1.1-0.3,1.1-0.3,1.1-0.3s3.9,10.4,4.1,12.5
				c-3.3,1.1-6.5,3.1-6.5,3.1s-0.7-2.7-0.7-3.4c0-0.7-0.2-1.4,0.8-1.7c0.9-0.3,1.9-0.8,1.9-0.8s-0.3-2.1-0.7-2.5
				c-0.3-0.4-0.9-0.4-1.5-0.1c-0.6,0.3-1.4,1.1-1.5,2.5c-0.1,1.4-1.1,5.2-1.1,5.7s-1.1,1.2-2.7,1.7c-1.6,0.5-5.9,1.8-5.9,1.8
				S88.8,53.3,86.8,49.8z"/>
		</g>
	</g>
	<path class="st94" d="M88.9,70.1c0.1,0,0.8-2.4,0.8-2.4s1.2,2.3,1,3.2C89.8,70.5,88.9,70.1,88.9,70.1z"/>
	<path class="st94" d="M93.1,70.3c0,0,0.3-2.7,0.3-3.2c1.1,1,1.3,3.5,1.2,4.1C93.9,70.6,93.1,70.3,93.1,70.3z"/>
	<g>
		<g>
			<path class="st96" d="M21.2,31.6l-2.8-2.3l-0.9,1.2l-0.6-0.5l2.4-3.3l0.6,0.5L19,28.5l2.8,2.3L21.2,31.6z"/>
			<path class="st96" d="M97.4,27.9c0.3-0.3,0.6-0.5,0.9-0.6c0.2-0.1,0.5-0.1,0.8-0.1c0.3,0,0.5,0.1,0.7,0.2
				c0.3,0.1,0.6,0.4,0.9,0.7c0.5,0.5,0.8,1.1,0.8,1.7c0,0.6-0.2,1.2-0.7,1.7c-0.5,0.5-1,0.7-1.6,0.7c-0.6,0-1.1-0.3-1.7-0.9
				c-0.5-0.5-0.8-1.1-0.8-1.7C96.7,29,96.9,28.4,97.4,27.9z M98.2,28.7c-0.3,0.4-0.5,0.7-0.5,1.1c0,0.4,0.2,0.7,0.4,1
				c0.3,0.3,0.6,0.4,1,0.5c0.4,0,0.7-0.2,1.1-0.5c0.4-0.4,0.5-0.7,0.5-1.1c0-0.4-0.2-0.7-0.5-1c-0.3-0.3-0.6-0.5-1-0.5
				C98.9,28.1,98.5,28.3,98.2,28.7z"/>
			<path class="st96" d="M42.9,15.6L42,11.2l2.1-0.5c0.5-0.1,0.9-0.2,1.2-0.1c0.3,0,0.5,0.1,0.7,0.3c0.2,0.2,0.3,0.4,0.4,0.6
				c0.1,0.3,0,0.6-0.2,0.9c-0.2,0.3-0.5,0.5-0.9,0.6c0.2,0.1,0.4,0.1,0.6,0.3c0.2,0.1,0.4,0.3,0.7,0.6l0.8,0.7l-1.2,0.3l-0.9-0.8
				c-0.3-0.3-0.5-0.5-0.7-0.5c-0.1-0.1-0.2-0.1-0.3-0.1c-0.1,0-0.3,0-0.5,0.1l-0.2,0l0.4,1.8L42.9,15.6z M43.4,12.8l0.7-0.2
				c0.5-0.1,0.8-0.2,0.9-0.2c0.1-0.1,0.2-0.1,0.2-0.2c0-0.1,0.1-0.2,0-0.3c0-0.1-0.1-0.3-0.2-0.3c-0.1-0.1-0.2-0.1-0.4-0.1
				c-0.1,0-0.3,0.1-0.7,0.1l-0.8,0.2L43.4,12.8z"/>
			<path class="st96" d="M28.6,21c-0.2-0.4-0.3-0.8-0.4-1.1c0-0.3,0-0.5,0.1-0.8c0.1-0.3,0.2-0.5,0.4-0.7c0.2-0.3,0.5-0.5,0.8-0.7
				c0.6-0.4,1.2-0.5,1.8-0.4c0.6,0.1,1.1,0.5,1.4,1.1c0.4,0.6,0.4,1.2,0.3,1.8c-0.2,0.6-0.6,1.1-1.2,1.5C31.2,22,30.5,22.2,30,22
				C29.4,21.9,28.9,21.6,28.6,21z M29.5,20.4c0.3,0.4,0.6,0.7,0.9,0.8c0.4,0.1,0.7,0,1.1-0.2c0.3-0.2,0.6-0.5,0.7-0.9
				c0.1-0.4,0-0.8-0.2-1.2c-0.3-0.4-0.6-0.7-0.9-0.8c-0.3-0.1-0.7,0-1.1,0.2c-0.4,0.2-0.6,0.5-0.7,0.9
				C29.1,19.5,29.2,19.9,29.5,20.4z"/>
			<path class="st96" d="M71.1,14.2l1.2-4.3l0.9,0.3l1.2,3.5l0.8-2.9l0.9,0.3l-1.2,4.3l-1-0.3l-1.1-3.4L72,14.4L71.1,14.2z"/>
			<path class="st96" d="M85.7,20.7l2-3.1l-1.3-0.8l0.4-0.6l3.3,2.2L89.7,19l-1.2-0.8l-2,3.1L85.7,20.7z"/>
			<path class="st96" d="M56.3,11.1c0-0.5,0.1-0.8,0.2-1.1c0.1-0.2,0.3-0.4,0.5-0.6c0.2-0.2,0.4-0.3,0.7-0.4
				c0.3-0.1,0.7-0.2,1.1-0.2c0.7,0,1.3,0.2,1.8,0.6c0.4,0.4,0.7,1,0.7,1.7c0,0.7-0.2,1.3-0.7,1.7c-0.4,0.4-1,0.6-1.8,0.6
				c-0.7,0-1.3-0.2-1.8-0.6C56.6,12.3,56.3,11.8,56.3,11.1z M57.4,11c0,0.5,0.1,0.9,0.4,1.1c0.3,0.3,0.6,0.4,1,0.4
				c0.4,0,0.7-0.1,1-0.4c0.3-0.3,0.4-0.6,0.4-1.2c0-0.5-0.1-0.9-0.4-1.1c-0.3-0.3-0.6-0.4-1-0.4c-0.4,0-0.8,0.1-1,0.4
				C57.5,10.1,57.4,10.5,57.4,11z"/>
		</g>
	</g>
	<path class="st92" d="M69.4,45.3c0,0-0.7-2.3-1.4-1.9c-0.7,0.4-0.3,1,0.1,1.3C68.5,45.1,69.4,45.3,69.4,45.3z"/>
</g>
</svg>
