<?xml version="1.0" encoding="utf-8"?>
<!-- Generator: Adobe Illustrator 23.0.1, SVG Export Plug-In . SVG Version: 6.00 Build 0)  -->
<svg version="1.1" id="Capa_1" xmlns="http://www.w3.org/2000/svg" xmlns:xlink="http://www.w3.org/1999/xlink" x="0px" y="0px"
	 viewBox="0 0 136.4 99.7" style="enable-background:new 0 0 136.4 99.7;" xml:space="preserve">
<style type="text/css">
	.st0{fill:#175384;}
	.st1{fill:#A0A5AA;}
	.st2{fill:#0B040C;}
	.st3{fill:#FFC727;}
	.st4{fill:#F0545B;}
	.st5{fill:#FFFFFF;}
	.st6{fill:#00A855;}
	.st7{fill:#B4C4C9;}
	.st8{fill:#221A21;}
	.st9{fill:#EF3A47;}
	.st10{fill:url(#SVGID_1_);}
	.st11{fill:url(#SVGID_2_);}
	.st12{fill:url(#SVGID_3_);}
	.st13{fill:url(#SVGID_4_);}
	.st14{fill:url(#SVGID_5_);}
	.st15{fill:url(#SVGID_6_);}
	.st16{fill:url(#SVGID_7_);}
	.st17{fill:url(#SVGID_8_);}
	.st18{fill:url(#SVGID_9_);}
	.st19{fill:url(#SVGID_10_);}
	.st20{fill:url(#SVGID_11_);}
	.st21{fill:url(#SVGID_12_);}
	.st22{fill:#313564;}
	.st23{fill:#F04B41;stroke:#FFFFFF;stroke-width:2.1543;stroke-linecap:round;stroke-linejoin:round;stroke-miterlimit:10;}
	.st24{fill:#007FBA;stroke:#FFFFFF;stroke-width:2.1543;stroke-linecap:round;stroke-linejoin:round;stroke-miterlimit:10;}
	.st25{fill:#313564;stroke:#FFFFFF;stroke-width:2.1543;stroke-linecap:round;stroke-linejoin:round;stroke-miterlimit:10;}
	.st26{fill:#FFFFFF;stroke:#FFFFFF;stroke-width:2.1543;stroke-linecap:round;stroke-linejoin:round;stroke-miterlimit:10;}
	.st27{clip-path:url(#SVGID_14_);}
	.st28{fill:#FBAC36;stroke:#FFFFFF;stroke-width:2.1543;stroke-linecap:round;stroke-linejoin:round;stroke-miterlimit:10;}
	.st29{fill:#F04B41;}
	.st30{fill:#007FBA;}
	.st31{clip-path:url(#SVGID_16_);}
	.st32{fill:#FBAC36;}
	.st33{fill:#2C2F61;}
	.st34{fill:#B7B9BA;}
	.st35{fill:#EF3748;}
	.st36{fill:#8999AC;}
	.st37{fill:#2B2F61;}
	.st38{fill:#EE2C45;}
	.st39{fill:#101624;}
	.st40{fill:#59707A;}
	.st41{fill:#4A3285;}
	.st42{fill:#F79230;}
	.st43{fill:#F15733;}
	.st44{fill:#D7303F;}
	.st45{fill:#FAA832;}
	.st46{fill:#1F1721;}
	.st47{fill:#5F3188;}
	.st48{fill:#EE243D;}
	.st49{fill:#1F4BA0;}
	.st50{fill:#244789;}
	.st51{fill:#FBAE2E;}
	.st52{fill:#006991;}
	.st53{fill:#F9A01B;stroke:#FFFFFF;stroke-width:0.4473;stroke-miterlimit:10;}
	.st54{fill:#FAA533;}
	.st55{fill:#0092BC;}
	.st56{fill:#15182C;}
	.st57{fill:#3E419A;}
	.st58{fill:#101721;}
	.st59{fill:#ADA3A5;}
	.st60{fill:#9CA7AC;}
	.st61{clip-path:url(#SVGID_18_);}
	.st62{clip-path:url(#SVGID_20_);}
	.st63{fill:#F3FAF7;}
	.st64{fill:#2D2F63;}
	.st65{fill:#FAA819;}
	.st66{fill:#FEF6FA;}
	.st67{fill:#004F30;}
	.st68{fill:#A2C7D3;}
	.st69{fill:#EE2E55;}
	.st70{fill:#32366E;}
	.st71{fill:#00ADDC;}
	.st72{fill:#FFFFFF;stroke:#00ACD0;stroke-width:0.2915;stroke-miterlimit:10;}
	.st73{fill:#FFFFFF;stroke:#00ACD0;stroke-width:0.2973;stroke-miterlimit:10;}
	.st74{fill:#450000;}
	.st75{fill:#EE224A;}
	.st76{fill:#0064A5;}
	.st77{fill:#F47736;}
	.st78{fill:#B5BCBF;}
	.st79{fill:#F47B35;}
	.st80{fill:#EE2B52;}
	.st81{fill:#0C060E;}
	.st82{fill:#B58D49;}
	.st83{fill:#C9BBCB;}
	.st84{fill:#BA924C;}
	.st85{fill:#006BAF;}
	.st86{fill:#B3C5CB;}
	.st87{fill:#898C89;}
	.st88{fill:#2E2C61;}
	.st89{fill:#C3C5BD;}
	.st90{fill:#C4D2D9;}
	.st91{fill:#EE284D;}
	.st92{fill:#161212;}
	.st93{fill:#EE274E;}
	.st94{fill:#A2A7AA;}
	.st95{fill:#A6AAAC;}
	.st96{fill:#A1A2AB;}
	.st97{fill:#110B13;}
	.st98{fill:#AFC1C6;}
	.st99{fill:#0067AD;}
	.st100{fill:#FBFBFB;}
	.st101{fill:#0065AF;}
	.st102{fill:#121A26;}
	.st103{fill:#008D4C;}
	.st104{fill:#B43A3D;}
	.st105{fill:#111623;}
	.st106{fill:#AB9048;}
	.st107{fill:#F8A174;}
	.st108{fill:#120B19;}
	.st109{fill:#C59751;}
	.st110{fill:#B33638;}
	.st111{fill:#009154;}
	.st112{fill:#1C2026;}
	.st113{fill:#EE2844;}
	.st114{fill:#30385F;}
	.st115{fill:#3A84B1;}
	.st116{fill:#A3C5D7;}
	.st117{fill:#F9A039;}
	.st118{fill:#B0BEC0;}
	.st119{fill:#231D46;}
	.st120{fill:#FDB840;}
	.st121{fill:#CD2C32;}
	.st122{fill:#272049;}
	.st123{fill:#FEC027;}
	.st124{fill:#ADC7C6;}
	.st125{fill:#014429;}
	.st126{fill:#DF2539;}
	.st127{fill:#F57E30;}
	.st128{fill:#ED1942;}
	.st129{fill:#FEF9FB;}
	.st130{fill:#0065AA;}
	.st131{fill:#A6B5B8;}
	.st132{fill:#0B040C;stroke:#0B040C;stroke-width:0.2716;stroke-miterlimit:10;}
	.st133{fill:#F7F9FD;}
	.st134{fill:none;stroke:#EBF2CC;stroke-width:0.2972;stroke-miterlimit:10;}
	.st135{fill:#48484A;}
	.st136{opacity:0.2;}
	.st137{fill:#EE2E3B;}
	.st138{fill:#005BA6;}
	.st139{fill:#737577;}
	.st140{fill:#A1A0A5;}
	.st141{fill:#272360;}
	.st142{fill:#FAFAFB;}
	.st143{fill:#058BA6;}
	.st144{fill:#DEDBE7;}
	.st145{fill:#B2965B;}
	.st146{fill:#1B305B;}
	.st147{fill:#F9F9FA;}
	.st148{fill:#E12039;}
	.st149{fill:#FEF4F4;}
</style>
<g>
	<path class="st5" d="M132.5,43.2c-1-1.2-3-1.3-5.5-1.4c-0.1,0-0.3,0-0.5,0c1.8-2.5,4.3-6.1,4.8-7.1c0.6-1.1,1.9-3.4-0.8-5.2
		c-0.1-0.1-0.2-0.1-0.3-0.2c-2.2-0.9-6.1-1.4-11.7-1.4c-0.6,0-1.1,0-1.6,0C108.6,12.6,92.7,3.2,75.2,3.2C49,3.2,27.6,24.5,27.6,50.8
		c0,3.5,0.4,6.9,1.1,10.3c-0.3-0.1-0.6-0.2-0.7-0.2c-0.4-0.2-1-0.3-1.9-0.3c-2.5,0-7.2,0.6-10.5,1.5c-4,1.1-9.4,2.5-9.4,2.5
		c-0.7,0.2-1.2,0.7-1.4,1.4c-0.1,0.7,0.1,1.4,0.7,1.9c0,0,3.5,2.7,2.5,5.6c-0.7,1.8-2.7,7.3-0.1,12.2c1.8,3.4,5.5,5.9,10.9,7.3
		c0.6,0.3,2.5,0.9,5.4,0.9c3.5,0,7.2-0.9,11.1-2.7c4.5-2.1,7.4-3.4,9.2-4.1c8.6,7.2,19.4,11.2,30.7,11.2c23.9,0,44-17.6,47.2-41.1
		c0.9-0.3,2-0.6,2.9-0.8c2.5-0.7,3.4-2.3,4.1-3.6c0.2-0.3,0.3-0.6,0.5-0.8l0.4-0.6C132.5,48,134.1,45.1,132.5,43.2z"/>
	<path class="st64" d="M131.1,44.4c-1-1.2-7-0.4-7.8-1.4c0,0,5.6-7.9,6.4-9.3c0.8-1.4,1-1.9-0.2-2.7c-3.2-1.4-10.5-1.3-13.6-1.2
		C108.3,15.1,92.9,5,75.2,5C50,5,29.5,25.5,29.5,50.8c0,4.4,0.6,8.7,1.8,12.7c-0.9-0.2-3.2-0.6-3.9-0.9c-1-0.4-7.2,0.2-11.2,1.4
		c-4.1,1.2-9.5,2.5-9.5,2.5s4.7,3.5,3.1,7.8c-1.5,4.3-4.1,13.6,9.7,17.1c0,0,5.6,2.7,15.1-1.7c5.6-2.6,8.7-3.9,10.4-4.5
		c8.1,7.1,18.7,11.5,30.3,11.5c23.6,0,43-17.8,45.5-40.7c0.9-0.3,2.7-0.8,4.2-1.2c2.1-0.6,2.5-2.1,3.5-3.7
		C129.3,49.4,132,45.5,131.1,44.4z"/>
	<path class="st65" d="M47.7,31.8c0,0,9.2-14.8,30.2-13.7c21,1.1,26.6,16.9,26.6,16.9L97,32.3l-26.4,0.9
		C70.6,33.1,55.7,30,47.7,31.8z"/>
	<path class="st66" d="M108.6,55.8c0,0.5-3.7,20.4-20.7,27.5c-11.1,4.6-28,2.7-37.2-8.9l5.1-5L108.6,55.8z"/>
	<g>
		<path class="st67" d="M52.7,75.3c0,0,7.5,6.3,15.6,3.1c8.2-3.1,15.1-10.3,22.6-10.1c0.2-4.1-0.8-7.1-0.8-7.1L82.5,64l-8.7,3.7
			l-4.3-0.9l-1.7-2.3L60.6,66L52.7,75.3z"/>
		<path class="st67" d="M63.7,81.5c-0.4,0,11.9,3.6,18.5,1c3.6-2.4,7.8-8.4,7.7-12.1c-1.6,0.2-7.3,1.4-11.3,4.7
			C74.7,78.3,67.9,81.3,63.7,81.5z"/>
		<path class="st67" d="M92.5,70.5c0,0,3.8,0.8,5,2.9C96.2,75.5,91,79.7,87,81C89.5,79.2,92.4,72.5,92.5,70.5z"/>
		<path class="st67" d="M92.4,60.1c0,0,1,5.7,0.3,7.7c3,0.5,6.4,3.8,6.4,3.8s5.7-7,6.8-14.1L92.4,60.1z"/>
	</g>
	<path class="st67" d="M50.3,31.8l6.1,0.5l3.1,0.5c0,0,3.4,0.7,3.7,1.2c0.4,0.5-1,5.1-1,5.1l21.9-2.7l8.9-1.1l7.3-2.1L98.1,27h-1.2
		l-1.6,1.6L92,24.4l-2.7,2.2l-5.2-8.1L79,22.9L74.3,12L63.6,24.9l-2.2-4.2l-6.2,7.4L54,27.5C54,27.5,51.1,30.4,50.3,31.8z"/>
	<path class="st66" d="M97.5,25.8l-2,2.1l-3-4.2l-2.5,2.2L84,17.6l-3.1,3.6L74,10.9l-9.8,12.5L61.5,19c0,0-5.8,7.9-6.2,8.1
		c-0.4,0.1-1.2-1-1.2-1s-4.8,5.5-5.1,5.8l1.4-0.1l3.7-4.2l-0.2,4.3l4.5,0.6c0,0-2.2-3.6-2.6-3.4c-0.4,0.2,5.6-7.6,5.6-7.6l0.1,4.1
		l1.4,0.9l-3.2,6.2l3.7,1.2l-5.3,5.6l4.3-0.5l6-6.3l1.4,1.9l3.6-2.1l2.1-5.5l6.3,9.4l2.5-0.1L80,30.6l0.7-7.8l3.1-3.4l-0.1,4.6
		l2.2,3.4L83,31c0,0,1.1,2.5,1.1,2.9c0,0.4,2.6-2.6,2.6-2.6l4.7,4l9.8-0.5l3.2,0.2L97.5,25.8z M73.7,25.8L69,30l-4.5-4.8l9.2-11.5
		l-1.4,11.9L73.7,25.8z M90.1,31.5l1.9-6l1.7,8.7L90.1,31.5z M95.9,29.4l1.5-1.6c0,0,1.1,4,1.1,4.3C98.5,32.5,96.3,29.8,95.9,29.4z"
		/>
	<g>
		<path class="st68" d="M52,14.8l-2.1,1.6l2.4,3.2c0,0,0.6,0.9-0.1,1.5c-0.7,0.6-1.7,1.2-1.7,1.2s-0.7,0.4-1.4-0.3
			c-0.7-0.7-2.4-2.8-2.4-2.8l-2,2.1l3.6,3.3c0,0,1.3,1,2.7-0.2c1.4-1.2,4-3.2,4-3.2s1-1.2,0-2.4C53.9,17.6,52,14.8,52,14.8z"/>
		<path class="st68" d="M60.5,10.1c0,0,0.3,0.8,0.6,1.6c1-0.4,3.6-0.9,3.6-0.9l1.2,4.9l2.2-0.5c0,0-0.6-2.8-1-4.8
			c0.7-0.3,3.2-0.7,3.2-0.7s0-0.1-0.3-1.6C66.8,8.2,60.7,10.1,60.5,10.1z"/>
		<path class="st68" d="M87.5,9.6c-0.4-0.1-2.4-0.9-4.6-1.2c-2.1-0.3-2.6,1.5-2.6,1.5l-1.2,4.6l2.3,0.5l0.7-1.7l2.8,0.9l-0.6,1.6
			l2.3,0.9c0,0,1.1-2.3,1.6-4.2C89,10.7,87.9,9.7,87.5,9.6z M86.1,11.9c-0.1,0.2-0.5,1-0.5,1L82.5,12c0,0,0.3-0.9,0.5-1.5
			c0.2-0.6,1-0.2,1-0.2s1.2,0.3,1.8,0.5C86.3,11,86.1,11.8,86.1,11.9z"/>
		<polygon class="st68" points="103.6,18.4 101.3,20.4 98.8,18.1 100.3,16 98,14.2 93.6,19.8 95.8,21.5 97.7,19 100.7,21.4 
			98.8,23.8 100.7,25.4 105.5,20.2 		"/>
	</g>
	<g>
		<g>
			<path class="st64" d="M50.4,60.2c1.1-0.6,1.7-1.8,1.5-3.1c-0.1-0.9,0-3.3,0.8-5.9c0.2-0.6,0.4-1.3,0.6-2.2
				c1-3.4,2.6-9.1,5.1-10.9c1.1-0.8,1.5-2.1,1.1-3.4c-0.4-1.3-1.6-2.1-2.9-2.1c-2.9,0-9.6,0.2-12.3,0.2l-0.1,0
				c-1.5,0-2.7,1.1-2.9,2.6c-0.2,1.2,0.4,2.4,1.5,3c0,0.3-0.1,0.9-0.5,1.9c-0.6,1.5-1.3,3.4-2,5.4c-1.2,3.2-3.2,8.5-3.7,9.3
				c-0.7,1.1-1.3,1.9-1.5,2.1c-1.1,0.9-1.8,2.6-0.6,4.4c-0.6,2-4.3,12.9-5.9,17.7l-0.1,0.2c-0.1,0.2-0.5,1-1.6,1.2
				c0-0.5,0.2-1.5,0.6-3l0.1-0.5c0.4-1.6,2.3-5.9,3.9-7.9c0.9-1.1,0.9-2.7,0-3.8c-0.9-1.1-2.5-1.4-3.7-0.8
				c-2.3,1.2-8.2,2.3-11.3,2.7c-1.2,0.2-2.3,1.1-2.5,2.4c-0.2,0.8,0,1.7,0.5,2.4c0,0.5-0.2,1.9-1,4.8c-0.4,1.3-1.4,5.9,1,9.6
				c1.5,2.4,4,3.8,7.4,4.2c1.4,0.2,2.8,0.3,4.1,0.3c5.9,0,9.1-2,10.8-3.1l0.3-0.2c1.1-0.7,3.4-1.3,4.5-1.6c0.8-0.2,1.5-0.7,2-1.5
				c0.4-0.7,0.5-1.6,0.3-2.4c0,0-0.7-2.5,0.4-6C48.4,63.4,50,60.7,50.4,60.2z"/>
			<path class="st64" d="M128.9,46.1c-0.9-1-2.5-1.3-3.7-0.6c-0.9,0.5-1.9,0.9-3,1.2c0.8-0.4,1.4-1.2,1.6-2.1c0.1-0.6,0-1.2-0.2-1.8
				c0.5-1.1,2.1-3.8,4.6-6.9c0.8-1,0.9-2.4,0.3-3.4c-0.6-1.1-1.9-1.7-3.1-1.5l-16.5,2.8c-0.8,0.1-1.5,0.6-2,1.2l-2.7,3.9
				c-0.9,1.3-0.7,3,0.4,4c1.1,1,2.9,1,4,0.1c0.4-0.2,1.4-0.4,2.1-0.5c-0.4,0.3-0.9,0.6-1.3,0.8c-0.8,0.3-1.5,1-1.8,1.9
				c-0.2,0.7-0.2,1.5,0.1,2.2l-3.7,5.8c-0.1-0.2-0.3-0.4-0.5-0.6c-1-0.9-2.6-1-3.7-0.3c-1,0.7-2.3,1.2-3.6,1.5
				c0.1-0.5,0.3-0.9,0.3-1.1c0.1-0.4,0.6-1.1,0.9-1.2c1.1-0.3,1.9-1.2,2.1-2.3c0.1-0.5,0.1-1.1-0.1-1.6c0.3-1.2,1.7-4.6,3.7-8.2
				c0.6-1,0.5-2.2-0.2-3.2c-0.6-0.8-1.5-1.3-2.5-1.3c-0.1,0-0.3,0-0.4,0L84.3,37c-0.9,0.1-1.7,0.7-2.2,1.5l-2.6,4.5
				c0-0.2,0.1-0.3,0.1-0.4c0.4-1.1,0.2-2.4-0.6-3.2c-0.8-0.8-2.1-1.1-3.2-0.8c-2.5,0.9-9.8,2.1-13.6,2.7c-1.2,0.2-2.2,1.1-2.5,2.3
				c-0.1,0.3-0.7,3-2.2,6.4c-1,2.3-2.2,2.9-2.3,3c-0.8,0.3-1.4,0.9-1.7,1.6c-0.3,0.7-0.4,1.6-0.1,2.3c0.1,0.6-0.6,2.6-0.9,3.6
				l-0.1,0.2c-0.4,1.3-4.1,8.6-6.6,13.4c-0.6,1.1-0.4,2.5,0.5,3.4c0.6,0.6,1.4,1,2.2,1c0.4,0,0.8-0.1,1.1-0.2l9.4-3.8
				c0.7-0.3,1.3-0.8,1.6-1.5l2.1-4.4l2.5-0.8l0,1c0,1,0.5,1.9,1.3,2.4c0.8,0.5,1.9,0.7,2.8,0.3l6.6-2.4c1.2-0.4,1.9-1.5,2-2.8l0-0.2
				c0-0.3,0-0.6,0-0.9c0.1,0.4,0.3,0.7,0.6,1.1c0.6,0.7,1.4,1.1,2.3,1.1c0.3,0,0.6,0,0.9-0.1l18.4-5.7c0.5-0.2,1-0.5,1.4-0.9
				c0.1-0.2,0.5-0.6,1.2-1.7c0,0,0,0,0,0c0.6,0.8,1.5,1.2,2.4,1.2c0.3,0,0.6,0,0.8-0.1l18.7-5.2c0.5-0.1,1-0.4,1.4-0.8
				c0.2-0.2,1.3-1.4,3.1-3.9C129.9,48.7,129.8,47.2,128.9,46.1z M78.2,62.7c-0.1,0.1-0.1,0.2-0.1,0.3c0.1-3.3,0.2-7,0.2-8.2
				c0-0.2,0-0.3,0.1-0.3c0.7-0.6,1.1-1.4,1.1-2.3c0-0.8-0.3-1.5-0.8-2.1c0-0.2,0-0.3,0-0.5c0.1-0.9,0.2-2.9,0.4-4.6
				c0.1,0.7,0.5,1.4,1.1,1.8c1.2,0.9,3,0.8,4-0.2c0.3-0.2,1.3-0.4,1.8-0.4c0.3,0,0.5-0.1,0.7-0.1c-0.1,0.1-0.1,0.2-0.2,0.3
				c-0.5,0.9-0.9,1.2-1.4,1.5c-0.8,0.3-1.4,1-1.7,1.8c-0.2,0.7-0.2,1.5,0.1,2.2c0,0.1,0,0.3,0,0.4L78.2,62.7z"/>
		</g>
		<g>
			<path class="st65" d="M49.4,58.7c0.5-0.2,0.8-0.7,0.7-1.3c-0.2-1.3,0-4,0.9-6.7c0.2-0.6,0.4-1.3,0.6-2.1c1.1-3.9,2.7-9.7,5.8-12
				c0.4-0.3,0.6-0.8,0.4-1.3c-0.2-0.5-0.6-0.8-1.1-0.8c-3.5,0-12.3,0.2-12.4,0.2c-0.6,0-1.1,0.4-1.1,1c-0.1,0.6,0.2,1.1,0.8,1.3
				c0.5,0.2,1.2,1.3,0.1,4.1c-0.6,1.5-1.3,3.4-2,5.4c-1.4,3.9-3.2,8.6-3.8,9.6c-0.9,1.4-1.7,2.4-1.9,2.6c-0.3,0.2-1,0.8-0.2,2
				c0.2,0.3,0.4,0.7,0.2,1.4c-0.6,1.8-6,18-6,18.1c0,0-0.9,2.4-4,2.5c-0.6,0-0.8-0.2-0.9-0.3c-0.8-1,0-3.9,0.3-5.1l0.1-0.5
				c0.4-1.8,2.5-6.3,4.3-8.6c0.3-0.4,0.3-1,0-1.5c-0.3-0.4-0.9-0.6-1.4-0.3c-3.2,1.6-11,2.8-11.9,2.9c-0.5,0.1-0.9,0.4-1,0.9
				c-0.1,0.4,0.1,0.9,0.4,1.2c0.1,0.3,0.3,1.5-1,6.1c-0.3,1.1-1.2,5,0.8,8.1c1.2,1.9,3.3,3,6.1,3.4c1.3,0.2,2.6,0.3,3.8,0.3
				c5.4,0,8.2-1.8,9.9-2.8l0.3-0.2c1.7-1,5.1-1.8,5.1-1.8c0.3-0.1,0.6-0.3,0.8-0.6c0.2-0.3,0.2-0.6,0.1-0.9c0,0-0.9-3,0.4-7.1
				C46.9,61.8,48.7,59,49.4,58.7z"/>
			<path class="st65" d="M76.4,40.3c-3.5,1.2-13.9,2.7-14,2.7c-0.5,0.1-0.9,0.4-1,0.9c0,0-0.7,3-2.3,6.7c-1.4,3.2-3.3,4-3.4,4
				c-0.3,0.1-0.6,0.3-0.7,0.6c-0.1,0.3-0.1,0.6,0,0.9c0.4,0.9-0.3,3.1-0.9,4.8l-0.1,0.2c-0.5,1.7-5,10.4-6.7,13.7
				c-0.2,0.4-0.2,1,0.2,1.3c0.2,0.2,0.5,0.4,0.9,0.4c0.1,0,0.3,0,0.4-0.1l9.4-3.8c0.3-0.1,0.5-0.3,0.6-0.6l2.5-5.1l5.6-1.8l0.1,3.4
				c0,0.4,0.2,0.7,0.5,0.9c0.3,0.2,0.7,0.3,1.1,0.1l6.6-2.4c0.4-0.2,0.7-0.6,0.8-1.1c0-0.4,0.2-9.4,0.2-11.2c0-1.2,0.7-1.7,0.7-1.7
				c0.3-0.2,0.5-0.6,0.5-0.9c0-0.4-0.2-0.7-0.4-1c-0.2-0.1-0.4-0.4-0.4-0.6c0-0.2,0.1-0.6,0.1-1.2c0.1-1.8,0.4-6.1,1.1-7.7
				c0.2-0.4,0.1-0.9-0.2-1.2C77.3,40.2,76.8,40.1,76.4,40.3z M67.4,52.9l-0.2,6.7l-3.7,1.3L67.4,52.9z"/>
			<path class="st65" d="M100.8,53.8c-2.2,1.5-5.3,2.1-7.2,2.3c0.4-1.4,1-3.3,1.2-4.1c0.3-0.9,1.3-2.3,2.1-2.5
				c0.4-0.1,0.8-0.5,0.8-0.9c0.1-0.3,0-0.7-0.2-0.9c-0.1-1.2,2-5.8,3.9-9.5c0.2-0.4,0.2-0.9-0.1-1.2c-0.3-0.4-0.7-0.5-1.1-0.5
				l-15.7,2.2c-0.4,0.1-0.7,0.3-0.8,0.6L81,43.9c-0.3,0.5-0.2,1.2,0.3,1.5c0.5,0.4,1.1,0.3,1.5-0.1c0.6-0.6,1.9-0.8,2.8-0.9
				c0.4-0.1,0.7-0.1,1-0.2c0.4-0.1,1.8-0.3,3.1-0.5c-0.6,1.4-1.3,3-1.6,3.6c-0.7,1.2-1.3,1.9-2.3,2.3c-0.3,0.1-0.5,0.4-0.6,0.7
				c-0.1,0.3-0.1,0.7,0.1,1c0.1,0.2,0.1,1,0,1.6l-5.4,10.7c-0.2,0.4-0.2,0.9,0.1,1.3c0.2,0.3,0.6,0.4,0.9,0.4c0.1,0,0.2,0,0.3-0.1
				l18.4-5.7c0.2-0.1,0.4-0.2,0.5-0.4c0.1-0.1,0.8-1,2.4-3.8c0.3-0.5,0.2-1.1-0.2-1.4C101.9,53.6,101.3,53.5,100.8,53.8z"/>
			<path class="st65" d="M127.5,47.4c-0.4-0.4-1-0.5-1.4-0.2c-2.5,1.4-5.8,1.9-7.9,2.2c0.3-0.8,0.7-1.7,0.9-2.2c0.3-0.8,1.1-1.7,2-2
				c0.4-0.1,0.7-0.5,0.8-0.9c0.1-0.4-0.1-0.8-0.3-1.1c-0.1-1,2.2-4.9,5.1-8.4c0.3-0.4,0.4-0.9,0.1-1.3c-0.2-0.4-0.7-0.7-1.2-0.6
				l-16.5,2.8c-0.3,0.1-0.6,0.2-0.8,0.5l-2.7,3.9c-0.3,0.5-0.3,1.1,0.2,1.5c0.4,0.4,1.1,0.4,1.6,0c0.6-0.5,2.3-0.8,3.3-0.9
				c0.5-0.1,0.9-0.1,1.3-0.2c0.4-0.1,1.4-0.3,2.5-0.4c-0.6,1.1-1.2,2.2-1.6,2.7c-0.7,1-1.8,1.9-2.9,2.3c-0.3,0.1-0.6,0.4-0.7,0.7
				c-0.1,0.3-0.1,0.7,0.1,1c0.1,0.2,0.2,0.5,0.2,0.9l-5.5,8.7c-0.3,0.4-0.2,0.9,0,1.3c0.2,0.3,0.6,0.5,0.9,0.5c0.1,0,0.2,0,0.3,0
				l18.7-5.2c0.2-0.1,0.4-0.2,0.5-0.3c0,0,1.1-1.2,2.9-3.7C127.9,48.4,127.9,47.8,127.5,47.4z"/>
		</g>
		<g>
			<path class="st66" d="M44.4,35.9c0,0,2.7,0.8,0.8,5.6c-1.9,4.8-5,13.6-5.9,15.1c-0.9,1.5-1.9,2.7-2.2,2.9c-0.3,0.2,1,0.9,0.5,2.8
				c-0.6,1.9-6.1,18.2-6.1,18.2s-1.2,3.1-5,3.3c-3.8,0.1-2.2-5.4-1.7-7.3c0.5-2,2.6-6.6,4.5-9.1c-3.4,1.7-11.4,2.9-12.2,3
				c1.3,0.8-0.1,5.7-0.6,7.3c-0.5,1.6-2,9,5.9,10c7.9,1,11.3-1.4,13.2-2.6c1.9-1.2,5.5-2,5.5-2s-1-3.3,0.3-7.7
				c1.4-4.4,5.4-17,7.6-17.9c-0.2-1.5,0.1-4.4,0.9-7.2c1.2-3.7,2.8-11.8,6.9-14.7C53.3,35.7,44.4,35.9,44.4,35.9z"/>
			<path class="st66" d="M75.5,50.6c0.1-0.9,0.3-6.9,1.3-9.2c-3.6,1.3-14.2,2.8-14.2,2.8s-0.7,3-2.3,6.9c-1.6,3.8-4.1,4.7-4.1,4.7
				c0.6,1.4-0.2,3.7-0.9,5.8c-0.7,2.1-6.8,13.9-6.8,13.9l9.4-3.8l2.7-5.6l7.6-2.4l0.1,5l6.6-2.4c0,0,0.2-9.3,0.2-11.2
				c0-1.9,1.2-2.7,1.2-2.7S75.4,51.5,75.5,50.6z M68.4,60.5l-7.1,2.4l7.5-15.4L68.4,60.5z"/>
			<path class="st66" d="M82,44.5l2.7-4.5l15.7-2.2c0,0-5.2,9.7-3.8,10.7c-1.3,0.4-2.6,2.1-2.9,3.3c-0.3,1.2-1.6,5.7-1.6,5.7
				s5.7-0.2,9.4-2.7c-1.5,2.8-2.2,3.6-2.2,3.6l-18.4,5.7l5.5-10.8c0,0,0.3-1.7-0.1-2.6c1.4-0.6,2.2-1.5,2.9-2.8
				c0.7-1.3,2.4-5.6,2.4-5.6s-4.3,0.6-5.2,0.8C85.4,43.4,83.2,43.4,82,44.5z"/>
			<path class="st66" d="M106.6,40.6l2.7-3.9l16.5-2.8c0,0-7,8.5-5,10c-1.3,0.4-2.4,1.7-2.8,2.7c-0.4,1-1.6,4-1.6,4
				s6.2-0.2,10.3-2.4c-1.7,2.5-2.8,3.5-2.8,3.5l-18.7,5.2l5.7-9c0,0,0-1.2-0.5-1.8c1.4-0.5,2.7-1.7,3.4-2.8c0.7-1.1,2.7-4.8,2.7-4.8
				s-4,0.4-4.9,0.7C110.7,39.4,107.8,39.6,106.6,40.6z"/>
		</g>
	</g>
</g>
</svg>
